%TF.GenerationSoftware,KiCad,Pcbnew,9.0.3*%
%TF.CreationDate,2025-09-10T20:52:41+09:00*%
%TF.ProjectId,mirror_Shooter_v2,6d697272-6f72-45f5-9368-6f6f7465725f,rev?*%
%TF.SameCoordinates,Original*%
%TF.FileFunction,Soldermask,Bot*%
%TF.FilePolarity,Negative*%
%FSLAX46Y46*%
G04 Gerber Fmt 4.6, Leading zero omitted, Abs format (unit mm)*
G04 Created by KiCad (PCBNEW 9.0.3) date 2025-09-10 20:52:41*
%MOMM*%
%LPD*%
G01*
G04 APERTURE LIST*
G04 Aperture macros list*
%AMRoundRect*
0 Rectangle with rounded corners*
0 $1 Rounding radius*
0 $2 $3 $4 $5 $6 $7 $8 $9 X,Y pos of 4 corners*
0 Add a 4 corners polygon primitive as box body*
4,1,4,$2,$3,$4,$5,$6,$7,$8,$9,$2,$3,0*
0 Add four circle primitives for the rounded corners*
1,1,$1+$1,$2,$3*
1,1,$1+$1,$4,$5*
1,1,$1+$1,$6,$7*
1,1,$1+$1,$8,$9*
0 Add four rect primitives between the rounded corners*
20,1,$1+$1,$2,$3,$4,$5,0*
20,1,$1+$1,$4,$5,$6,$7,0*
20,1,$1+$1,$6,$7,$8,$9,0*
20,1,$1+$1,$8,$9,$2,$3,0*%
G04 Aperture macros list end*
%ADD10RoundRect,0.250000X0.750000X-0.600000X0.750000X0.600000X-0.750000X0.600000X-0.750000X-0.600000X0*%
%ADD11O,2.000000X1.700000*%
%ADD12C,3.200000*%
%ADD13C,1.700000*%
%ADD14R,1.700000X1.700000*%
%ADD15RoundRect,0.250000X0.725000X-0.600000X0.725000X0.600000X-0.725000X0.600000X-0.725000X-0.600000X0*%
%ADD16O,1.950000X1.700000*%
%ADD17C,2.000000*%
%ADD18C,0.060000*%
%ADD19C,0.150000*%
%ADD20C,0.050000*%
%ADD21C,0.100000*%
G04 APERTURE END LIST*
D10*
%TO.C,J5*%
X162814000Y-118324000D03*
D11*
X162814000Y-115824000D03*
%TD*%
D12*
%TO.C,H1*%
X163450000Y-102100000D03*
%TD*%
%TO.C,H2*%
X216490000Y-118140000D03*
%TD*%
D13*
%TO.C,J10*%
X206700000Y-101460000D03*
X206700000Y-104000000D03*
X206700000Y-106540000D03*
X206700000Y-109080000D03*
X206700000Y-111620000D03*
X206700000Y-114160000D03*
X206700000Y-116700000D03*
D14*
X206700000Y-119240000D03*
%TD*%
D15*
%TO.C,J1*%
X184400000Y-106500000D03*
D16*
X184400000Y-104000000D03*
X184400000Y-101500000D03*
%TD*%
D15*
%TO.C,J3*%
X170100000Y-106450000D03*
D16*
X170100000Y-103950000D03*
X170100000Y-101450000D03*
%TD*%
D15*
%TO.C,J2*%
X177250000Y-106500000D03*
D16*
X177250000Y-104000000D03*
X177250000Y-101500000D03*
%TD*%
D17*
%TO.C,J9*%
X199950000Y-118680900D03*
X191950000Y-118680900D03*
%TD*%
D10*
%TO.C,J7*%
X170125000Y-118350000D03*
D11*
X170125000Y-115850000D03*
%TD*%
D10*
%TO.C,J8*%
X184425000Y-118350000D03*
D11*
X184425000Y-115850000D03*
%TD*%
D17*
%TO.C,J4*%
X191950000Y-101180900D03*
X195450000Y-101180900D03*
%TD*%
D10*
%TO.C,J6*%
X177275000Y-118350000D03*
D11*
X177275000Y-115850000D03*
%TD*%
D14*
%TO.C,J11*%
X221950000Y-119240000D03*
D13*
X221950000Y-116700000D03*
X221950000Y-114160000D03*
X221950000Y-111620000D03*
X221950000Y-109080000D03*
X221950000Y-106540000D03*
X221950000Y-104000000D03*
X221950000Y-101460000D03*
%TD*%
D18*
X202053857Y-100384927D02*
X201920524Y-100194451D01*
X201825286Y-100384927D02*
X201825286Y-99984927D01*
X201825286Y-99984927D02*
X201977667Y-99984927D01*
X201977667Y-99984927D02*
X202015762Y-100003975D01*
X202015762Y-100003975D02*
X202034809Y-100023022D01*
X202034809Y-100023022D02*
X202053857Y-100061118D01*
X202053857Y-100061118D02*
X202053857Y-100118260D01*
X202053857Y-100118260D02*
X202034809Y-100156356D01*
X202034809Y-100156356D02*
X202015762Y-100175403D01*
X202015762Y-100175403D02*
X201977667Y-100194451D01*
X201977667Y-100194451D02*
X201825286Y-100194451D01*
X202434809Y-100384927D02*
X202206238Y-100384927D01*
X202320524Y-100384927D02*
X202320524Y-99984927D01*
X202320524Y-99984927D02*
X202282428Y-100042070D01*
X202282428Y-100042070D02*
X202244333Y-100080165D01*
X202244333Y-100080165D02*
X202206238Y-100099213D01*
X202777666Y-100118260D02*
X202777666Y-100384927D01*
X202682428Y-99965880D02*
X202587190Y-100251594D01*
X202587190Y-100251594D02*
X202834809Y-100251594D01*
X214176927Y-102137642D02*
X213986451Y-102270975D01*
X214176927Y-102366213D02*
X213776927Y-102366213D01*
X213776927Y-102366213D02*
X213776927Y-102213832D01*
X213776927Y-102213832D02*
X213795975Y-102175737D01*
X213795975Y-102175737D02*
X213815022Y-102156690D01*
X213815022Y-102156690D02*
X213853118Y-102137642D01*
X213853118Y-102137642D02*
X213910260Y-102137642D01*
X213910260Y-102137642D02*
X213948356Y-102156690D01*
X213948356Y-102156690D02*
X213967403Y-102175737D01*
X213967403Y-102175737D02*
X213986451Y-102213832D01*
X213986451Y-102213832D02*
X213986451Y-102366213D01*
X214176927Y-101756690D02*
X214176927Y-101985261D01*
X214176927Y-101870975D02*
X213776927Y-101870975D01*
X213776927Y-101870975D02*
X213834070Y-101909071D01*
X213834070Y-101909071D02*
X213872165Y-101947166D01*
X213872165Y-101947166D02*
X213891213Y-101985261D01*
X213776927Y-101623357D02*
X213776927Y-101375738D01*
X213776927Y-101375738D02*
X213929308Y-101509071D01*
X213929308Y-101509071D02*
X213929308Y-101451928D01*
X213929308Y-101451928D02*
X213948356Y-101413833D01*
X213948356Y-101413833D02*
X213967403Y-101394785D01*
X213967403Y-101394785D02*
X214005499Y-101375738D01*
X214005499Y-101375738D02*
X214100737Y-101375738D01*
X214100737Y-101375738D02*
X214138832Y-101394785D01*
X214138832Y-101394785D02*
X214157880Y-101413833D01*
X214157880Y-101413833D02*
X214176927Y-101451928D01*
X214176927Y-101451928D02*
X214176927Y-101566214D01*
X214176927Y-101566214D02*
X214157880Y-101604309D01*
X214157880Y-101604309D02*
X214138832Y-101623357D01*
X210536357Y-102543927D02*
X210403024Y-102353451D01*
X210307786Y-102543927D02*
X210307786Y-102143927D01*
X210307786Y-102143927D02*
X210460167Y-102143927D01*
X210460167Y-102143927D02*
X210498262Y-102162975D01*
X210498262Y-102162975D02*
X210517309Y-102182022D01*
X210517309Y-102182022D02*
X210536357Y-102220118D01*
X210536357Y-102220118D02*
X210536357Y-102277260D01*
X210536357Y-102277260D02*
X210517309Y-102315356D01*
X210517309Y-102315356D02*
X210498262Y-102334403D01*
X210498262Y-102334403D02*
X210460167Y-102353451D01*
X210460167Y-102353451D02*
X210307786Y-102353451D01*
X210917309Y-102543927D02*
X210688738Y-102543927D01*
X210803024Y-102543927D02*
X210803024Y-102143927D01*
X210803024Y-102143927D02*
X210764928Y-102201070D01*
X210764928Y-102201070D02*
X210726833Y-102239165D01*
X210726833Y-102239165D02*
X210688738Y-102258213D01*
X211069690Y-102182022D02*
X211088738Y-102162975D01*
X211088738Y-102162975D02*
X211126833Y-102143927D01*
X211126833Y-102143927D02*
X211222071Y-102143927D01*
X211222071Y-102143927D02*
X211260166Y-102162975D01*
X211260166Y-102162975D02*
X211279214Y-102182022D01*
X211279214Y-102182022D02*
X211298261Y-102220118D01*
X211298261Y-102220118D02*
X211298261Y-102258213D01*
X211298261Y-102258213D02*
X211279214Y-102315356D01*
X211279214Y-102315356D02*
X211050642Y-102543927D01*
X211050642Y-102543927D02*
X211298261Y-102543927D01*
D19*
X164968819Y-117407333D02*
X165683104Y-117407333D01*
X165683104Y-117407333D02*
X165825961Y-117454952D01*
X165825961Y-117454952D02*
X165921200Y-117550190D01*
X165921200Y-117550190D02*
X165968819Y-117693047D01*
X165968819Y-117693047D02*
X165968819Y-117788285D01*
X164968819Y-116454952D02*
X164968819Y-116931142D01*
X164968819Y-116931142D02*
X165445009Y-116978761D01*
X165445009Y-116978761D02*
X165397390Y-116931142D01*
X165397390Y-116931142D02*
X165349771Y-116835904D01*
X165349771Y-116835904D02*
X165349771Y-116597809D01*
X165349771Y-116597809D02*
X165397390Y-116502571D01*
X165397390Y-116502571D02*
X165445009Y-116454952D01*
X165445009Y-116454952D02*
X165540247Y-116407333D01*
X165540247Y-116407333D02*
X165778342Y-116407333D01*
X165778342Y-116407333D02*
X165873580Y-116454952D01*
X165873580Y-116454952D02*
X165921200Y-116502571D01*
X165921200Y-116502571D02*
X165968819Y-116597809D01*
X165968819Y-116597809D02*
X165968819Y-116835904D01*
X165968819Y-116835904D02*
X165921200Y-116931142D01*
X165921200Y-116931142D02*
X165873580Y-116978761D01*
X162688095Y-102554819D02*
X162688095Y-101554819D01*
X162688095Y-102031009D02*
X163259523Y-102031009D01*
X163259523Y-102554819D02*
X163259523Y-101554819D01*
X164259523Y-102554819D02*
X163688095Y-102554819D01*
X163973809Y-102554819D02*
X163973809Y-101554819D01*
X163973809Y-101554819D02*
X163878571Y-101697676D01*
X163878571Y-101697676D02*
X163783333Y-101792914D01*
X163783333Y-101792914D02*
X163688095Y-101840533D01*
X215728095Y-118594819D02*
X215728095Y-117594819D01*
X215728095Y-118071009D02*
X216299523Y-118071009D01*
X216299523Y-118594819D02*
X216299523Y-117594819D01*
X216728095Y-117690057D02*
X216775714Y-117642438D01*
X216775714Y-117642438D02*
X216870952Y-117594819D01*
X216870952Y-117594819D02*
X217109047Y-117594819D01*
X217109047Y-117594819D02*
X217204285Y-117642438D01*
X217204285Y-117642438D02*
X217251904Y-117690057D01*
X217251904Y-117690057D02*
X217299523Y-117785295D01*
X217299523Y-117785295D02*
X217299523Y-117880533D01*
X217299523Y-117880533D02*
X217251904Y-118023390D01*
X217251904Y-118023390D02*
X216680476Y-118594819D01*
X216680476Y-118594819D02*
X217299523Y-118594819D01*
X206154819Y-111159523D02*
X206869104Y-111159523D01*
X206869104Y-111159523D02*
X207011961Y-111207142D01*
X207011961Y-111207142D02*
X207107200Y-111302380D01*
X207107200Y-111302380D02*
X207154819Y-111445237D01*
X207154819Y-111445237D02*
X207154819Y-111540475D01*
X207154819Y-110159523D02*
X207154819Y-110730951D01*
X207154819Y-110445237D02*
X206154819Y-110445237D01*
X206154819Y-110445237D02*
X206297676Y-110540475D01*
X206297676Y-110540475D02*
X206392914Y-110635713D01*
X206392914Y-110635713D02*
X206440533Y-110730951D01*
X206154819Y-109540475D02*
X206154819Y-109445237D01*
X206154819Y-109445237D02*
X206202438Y-109349999D01*
X206202438Y-109349999D02*
X206250057Y-109302380D01*
X206250057Y-109302380D02*
X206345295Y-109254761D01*
X206345295Y-109254761D02*
X206535771Y-109207142D01*
X206535771Y-109207142D02*
X206773866Y-109207142D01*
X206773866Y-109207142D02*
X206964342Y-109254761D01*
X206964342Y-109254761D02*
X207059580Y-109302380D01*
X207059580Y-109302380D02*
X207107200Y-109349999D01*
X207107200Y-109349999D02*
X207154819Y-109445237D01*
X207154819Y-109445237D02*
X207154819Y-109540475D01*
X207154819Y-109540475D02*
X207107200Y-109635713D01*
X207107200Y-109635713D02*
X207059580Y-109683332D01*
X207059580Y-109683332D02*
X206964342Y-109730951D01*
X206964342Y-109730951D02*
X206773866Y-109778570D01*
X206773866Y-109778570D02*
X206535771Y-109778570D01*
X206535771Y-109778570D02*
X206345295Y-109730951D01*
X206345295Y-109730951D02*
X206250057Y-109683332D01*
X206250057Y-109683332D02*
X206202438Y-109635713D01*
X206202438Y-109635713D02*
X206154819Y-109540475D01*
D18*
X163431927Y-111254166D02*
X163241451Y-111387499D01*
X163431927Y-111482737D02*
X163031927Y-111482737D01*
X163031927Y-111482737D02*
X163031927Y-111330356D01*
X163031927Y-111330356D02*
X163050975Y-111292261D01*
X163050975Y-111292261D02*
X163070022Y-111273214D01*
X163070022Y-111273214D02*
X163108118Y-111254166D01*
X163108118Y-111254166D02*
X163165260Y-111254166D01*
X163165260Y-111254166D02*
X163203356Y-111273214D01*
X163203356Y-111273214D02*
X163222403Y-111292261D01*
X163222403Y-111292261D02*
X163241451Y-111330356D01*
X163241451Y-111330356D02*
X163241451Y-111482737D01*
X163431927Y-110873214D02*
X163431927Y-111101785D01*
X163431927Y-110987499D02*
X163031927Y-110987499D01*
X163031927Y-110987499D02*
X163089070Y-111025595D01*
X163089070Y-111025595D02*
X163127165Y-111063690D01*
X163127165Y-111063690D02*
X163146213Y-111101785D01*
X210320833Y-107681927D02*
X210187500Y-107491451D01*
X210092262Y-107681927D02*
X210092262Y-107281927D01*
X210092262Y-107281927D02*
X210244643Y-107281927D01*
X210244643Y-107281927D02*
X210282738Y-107300975D01*
X210282738Y-107300975D02*
X210301785Y-107320022D01*
X210301785Y-107320022D02*
X210320833Y-107358118D01*
X210320833Y-107358118D02*
X210320833Y-107415260D01*
X210320833Y-107415260D02*
X210301785Y-107453356D01*
X210301785Y-107453356D02*
X210282738Y-107472403D01*
X210282738Y-107472403D02*
X210244643Y-107491451D01*
X210244643Y-107491451D02*
X210092262Y-107491451D01*
X210663690Y-107415260D02*
X210663690Y-107681927D01*
X210568452Y-107262880D02*
X210473214Y-107548594D01*
X210473214Y-107548594D02*
X210720833Y-107548594D01*
X218169033Y-110468727D02*
X218035700Y-110278251D01*
X217940462Y-110468727D02*
X217940462Y-110068727D01*
X217940462Y-110068727D02*
X218092843Y-110068727D01*
X218092843Y-110068727D02*
X218130938Y-110087775D01*
X218130938Y-110087775D02*
X218149985Y-110106822D01*
X218149985Y-110106822D02*
X218169033Y-110144918D01*
X218169033Y-110144918D02*
X218169033Y-110202060D01*
X218169033Y-110202060D02*
X218149985Y-110240156D01*
X218149985Y-110240156D02*
X218130938Y-110259203D01*
X218130938Y-110259203D02*
X218092843Y-110278251D01*
X218092843Y-110278251D02*
X217940462Y-110278251D01*
X218302366Y-110068727D02*
X218569033Y-110068727D01*
X218569033Y-110068727D02*
X218397604Y-110468727D01*
X204043832Y-118666666D02*
X204062880Y-118685714D01*
X204062880Y-118685714D02*
X204081927Y-118742856D01*
X204081927Y-118742856D02*
X204081927Y-118780952D01*
X204081927Y-118780952D02*
X204062880Y-118838095D01*
X204062880Y-118838095D02*
X204024784Y-118876190D01*
X204024784Y-118876190D02*
X203986689Y-118895237D01*
X203986689Y-118895237D02*
X203910499Y-118914285D01*
X203910499Y-118914285D02*
X203853356Y-118914285D01*
X203853356Y-118914285D02*
X203777165Y-118895237D01*
X203777165Y-118895237D02*
X203739070Y-118876190D01*
X203739070Y-118876190D02*
X203700975Y-118838095D01*
X203700975Y-118838095D02*
X203681927Y-118780952D01*
X203681927Y-118780952D02*
X203681927Y-118742856D01*
X203681927Y-118742856D02*
X203700975Y-118685714D01*
X203700975Y-118685714D02*
X203720022Y-118666666D01*
X203681927Y-118323809D02*
X203681927Y-118399999D01*
X203681927Y-118399999D02*
X203700975Y-118438095D01*
X203700975Y-118438095D02*
X203720022Y-118457142D01*
X203720022Y-118457142D02*
X203777165Y-118495237D01*
X203777165Y-118495237D02*
X203853356Y-118514285D01*
X203853356Y-118514285D02*
X204005737Y-118514285D01*
X204005737Y-118514285D02*
X204043832Y-118495237D01*
X204043832Y-118495237D02*
X204062880Y-118476190D01*
X204062880Y-118476190D02*
X204081927Y-118438095D01*
X204081927Y-118438095D02*
X204081927Y-118361904D01*
X204081927Y-118361904D02*
X204062880Y-118323809D01*
X204062880Y-118323809D02*
X204043832Y-118304761D01*
X204043832Y-118304761D02*
X204005737Y-118285714D01*
X204005737Y-118285714D02*
X203910499Y-118285714D01*
X203910499Y-118285714D02*
X203872403Y-118304761D01*
X203872403Y-118304761D02*
X203853356Y-118323809D01*
X203853356Y-118323809D02*
X203834308Y-118361904D01*
X203834308Y-118361904D02*
X203834308Y-118438095D01*
X203834308Y-118438095D02*
X203853356Y-118476190D01*
X203853356Y-118476190D02*
X203872403Y-118495237D01*
X203872403Y-118495237D02*
X203910499Y-118514285D01*
X217900357Y-107531927D02*
X217767024Y-107341451D01*
X217671786Y-107531927D02*
X217671786Y-107131927D01*
X217671786Y-107131927D02*
X217824167Y-107131927D01*
X217824167Y-107131927D02*
X217862262Y-107150975D01*
X217862262Y-107150975D02*
X217881309Y-107170022D01*
X217881309Y-107170022D02*
X217900357Y-107208118D01*
X217900357Y-107208118D02*
X217900357Y-107265260D01*
X217900357Y-107265260D02*
X217881309Y-107303356D01*
X217881309Y-107303356D02*
X217862262Y-107322403D01*
X217862262Y-107322403D02*
X217824167Y-107341451D01*
X217824167Y-107341451D02*
X217671786Y-107341451D01*
X218281309Y-107531927D02*
X218052738Y-107531927D01*
X218167024Y-107531927D02*
X218167024Y-107131927D01*
X218167024Y-107131927D02*
X218128928Y-107189070D01*
X218128928Y-107189070D02*
X218090833Y-107227165D01*
X218090833Y-107227165D02*
X218052738Y-107246213D01*
X218662261Y-107531927D02*
X218433690Y-107531927D01*
X218547976Y-107531927D02*
X218547976Y-107131927D01*
X218547976Y-107131927D02*
X218509880Y-107189070D01*
X218509880Y-107189070D02*
X218471785Y-107227165D01*
X218471785Y-107227165D02*
X218433690Y-107246213D01*
X210320833Y-112592927D02*
X210187500Y-112402451D01*
X210092262Y-112592927D02*
X210092262Y-112192927D01*
X210092262Y-112192927D02*
X210244643Y-112192927D01*
X210244643Y-112192927D02*
X210282738Y-112211975D01*
X210282738Y-112211975D02*
X210301785Y-112231022D01*
X210301785Y-112231022D02*
X210320833Y-112269118D01*
X210320833Y-112269118D02*
X210320833Y-112326260D01*
X210320833Y-112326260D02*
X210301785Y-112364356D01*
X210301785Y-112364356D02*
X210282738Y-112383403D01*
X210282738Y-112383403D02*
X210244643Y-112402451D01*
X210244643Y-112402451D02*
X210092262Y-112402451D01*
X210454166Y-112192927D02*
X210701785Y-112192927D01*
X210701785Y-112192927D02*
X210568452Y-112345308D01*
X210568452Y-112345308D02*
X210625595Y-112345308D01*
X210625595Y-112345308D02*
X210663690Y-112364356D01*
X210663690Y-112364356D02*
X210682738Y-112383403D01*
X210682738Y-112383403D02*
X210701785Y-112421499D01*
X210701785Y-112421499D02*
X210701785Y-112516737D01*
X210701785Y-112516737D02*
X210682738Y-112554832D01*
X210682738Y-112554832D02*
X210663690Y-112573880D01*
X210663690Y-112573880D02*
X210625595Y-112592927D01*
X210625595Y-112592927D02*
X210511309Y-112592927D01*
X210511309Y-112592927D02*
X210473214Y-112573880D01*
X210473214Y-112573880D02*
X210454166Y-112554832D01*
X212041927Y-117806666D02*
X211851451Y-117939999D01*
X212041927Y-118035237D02*
X211641927Y-118035237D01*
X211641927Y-118035237D02*
X211641927Y-117882856D01*
X211641927Y-117882856D02*
X211660975Y-117844761D01*
X211660975Y-117844761D02*
X211680022Y-117825714D01*
X211680022Y-117825714D02*
X211718118Y-117806666D01*
X211718118Y-117806666D02*
X211775260Y-117806666D01*
X211775260Y-117806666D02*
X211813356Y-117825714D01*
X211813356Y-117825714D02*
X211832403Y-117844761D01*
X211832403Y-117844761D02*
X211851451Y-117882856D01*
X211851451Y-117882856D02*
X211851451Y-118035237D01*
X211680022Y-117654285D02*
X211660975Y-117635237D01*
X211660975Y-117635237D02*
X211641927Y-117597142D01*
X211641927Y-117597142D02*
X211641927Y-117501904D01*
X211641927Y-117501904D02*
X211660975Y-117463809D01*
X211660975Y-117463809D02*
X211680022Y-117444761D01*
X211680022Y-117444761D02*
X211718118Y-117425714D01*
X211718118Y-117425714D02*
X211756213Y-117425714D01*
X211756213Y-117425714D02*
X211813356Y-117444761D01*
X211813356Y-117444761D02*
X212041927Y-117673333D01*
X212041927Y-117673333D02*
X212041927Y-117425714D01*
D20*
X202032023Y-108375914D02*
X202001547Y-108360676D01*
X202001547Y-108360676D02*
X201971071Y-108330200D01*
X201971071Y-108330200D02*
X201925357Y-108284485D01*
X201925357Y-108284485D02*
X201894880Y-108269247D01*
X201894880Y-108269247D02*
X201864404Y-108269247D01*
X201879642Y-108345438D02*
X201849166Y-108330200D01*
X201849166Y-108330200D02*
X201818690Y-108299723D01*
X201818690Y-108299723D02*
X201803452Y-108238771D01*
X201803452Y-108238771D02*
X201803452Y-108132104D01*
X201803452Y-108132104D02*
X201818690Y-108071152D01*
X201818690Y-108071152D02*
X201849166Y-108040676D01*
X201849166Y-108040676D02*
X201879642Y-108025438D01*
X201879642Y-108025438D02*
X201940595Y-108025438D01*
X201940595Y-108025438D02*
X201971071Y-108040676D01*
X201971071Y-108040676D02*
X202001547Y-108071152D01*
X202001547Y-108071152D02*
X202016785Y-108132104D01*
X202016785Y-108132104D02*
X202016785Y-108238771D01*
X202016785Y-108238771D02*
X202001547Y-108299723D01*
X202001547Y-108299723D02*
X201971071Y-108330200D01*
X201971071Y-108330200D02*
X201940595Y-108345438D01*
X201940595Y-108345438D02*
X201879642Y-108345438D01*
X202291071Y-108132104D02*
X202291071Y-108345438D01*
X202214880Y-108010200D02*
X202138690Y-108238771D01*
X202138690Y-108238771D02*
X202336785Y-108238771D01*
D18*
X217929957Y-101527927D02*
X217796624Y-101337451D01*
X217701386Y-101527927D02*
X217701386Y-101127927D01*
X217701386Y-101127927D02*
X217853767Y-101127927D01*
X217853767Y-101127927D02*
X217891862Y-101146975D01*
X217891862Y-101146975D02*
X217910909Y-101166022D01*
X217910909Y-101166022D02*
X217929957Y-101204118D01*
X217929957Y-101204118D02*
X217929957Y-101261260D01*
X217929957Y-101261260D02*
X217910909Y-101299356D01*
X217910909Y-101299356D02*
X217891862Y-101318403D01*
X217891862Y-101318403D02*
X217853767Y-101337451D01*
X217853767Y-101337451D02*
X217701386Y-101337451D01*
X218310909Y-101527927D02*
X218082338Y-101527927D01*
X218196624Y-101527927D02*
X218196624Y-101127927D01*
X218196624Y-101127927D02*
X218158528Y-101185070D01*
X218158528Y-101185070D02*
X218120433Y-101223165D01*
X218120433Y-101223165D02*
X218082338Y-101242213D01*
X218558528Y-101127927D02*
X218596623Y-101127927D01*
X218596623Y-101127927D02*
X218634719Y-101146975D01*
X218634719Y-101146975D02*
X218653766Y-101166022D01*
X218653766Y-101166022D02*
X218672814Y-101204118D01*
X218672814Y-101204118D02*
X218691861Y-101280308D01*
X218691861Y-101280308D02*
X218691861Y-101375546D01*
X218691861Y-101375546D02*
X218672814Y-101451737D01*
X218672814Y-101451737D02*
X218653766Y-101489832D01*
X218653766Y-101489832D02*
X218634719Y-101508880D01*
X218634719Y-101508880D02*
X218596623Y-101527927D01*
X218596623Y-101527927D02*
X218558528Y-101527927D01*
X218558528Y-101527927D02*
X218520433Y-101508880D01*
X218520433Y-101508880D02*
X218501385Y-101489832D01*
X218501385Y-101489832D02*
X218482338Y-101451737D01*
X218482338Y-101451737D02*
X218463290Y-101375546D01*
X218463290Y-101375546D02*
X218463290Y-101280308D01*
X218463290Y-101280308D02*
X218482338Y-101204118D01*
X218482338Y-101204118D02*
X218501385Y-101166022D01*
X218501385Y-101166022D02*
X218520433Y-101146975D01*
X218520433Y-101146975D02*
X218558528Y-101127927D01*
X210320833Y-109332927D02*
X210187500Y-109142451D01*
X210092262Y-109332927D02*
X210092262Y-108932927D01*
X210092262Y-108932927D02*
X210244643Y-108932927D01*
X210244643Y-108932927D02*
X210282738Y-108951975D01*
X210282738Y-108951975D02*
X210301785Y-108971022D01*
X210301785Y-108971022D02*
X210320833Y-109009118D01*
X210320833Y-109009118D02*
X210320833Y-109066260D01*
X210320833Y-109066260D02*
X210301785Y-109104356D01*
X210301785Y-109104356D02*
X210282738Y-109123403D01*
X210282738Y-109123403D02*
X210244643Y-109142451D01*
X210244643Y-109142451D02*
X210092262Y-109142451D01*
X210682738Y-108932927D02*
X210492262Y-108932927D01*
X210492262Y-108932927D02*
X210473214Y-109123403D01*
X210473214Y-109123403D02*
X210492262Y-109104356D01*
X210492262Y-109104356D02*
X210530357Y-109085308D01*
X210530357Y-109085308D02*
X210625595Y-109085308D01*
X210625595Y-109085308D02*
X210663690Y-109104356D01*
X210663690Y-109104356D02*
X210682738Y-109123403D01*
X210682738Y-109123403D02*
X210701785Y-109161499D01*
X210701785Y-109161499D02*
X210701785Y-109256737D01*
X210701785Y-109256737D02*
X210682738Y-109294832D01*
X210682738Y-109294832D02*
X210663690Y-109313880D01*
X210663690Y-109313880D02*
X210625595Y-109332927D01*
X210625595Y-109332927D02*
X210530357Y-109332927D01*
X210530357Y-109332927D02*
X210492262Y-109313880D01*
X210492262Y-109313880D02*
X210473214Y-109294832D01*
X198320833Y-113393832D02*
X198301785Y-113412880D01*
X198301785Y-113412880D02*
X198244643Y-113431927D01*
X198244643Y-113431927D02*
X198206547Y-113431927D01*
X198206547Y-113431927D02*
X198149404Y-113412880D01*
X198149404Y-113412880D02*
X198111309Y-113374784D01*
X198111309Y-113374784D02*
X198092262Y-113336689D01*
X198092262Y-113336689D02*
X198073214Y-113260499D01*
X198073214Y-113260499D02*
X198073214Y-113203356D01*
X198073214Y-113203356D02*
X198092262Y-113127165D01*
X198092262Y-113127165D02*
X198111309Y-113089070D01*
X198111309Y-113089070D02*
X198149404Y-113050975D01*
X198149404Y-113050975D02*
X198206547Y-113031927D01*
X198206547Y-113031927D02*
X198244643Y-113031927D01*
X198244643Y-113031927D02*
X198301785Y-113050975D01*
X198301785Y-113050975D02*
X198320833Y-113070022D01*
X198682738Y-113031927D02*
X198492262Y-113031927D01*
X198492262Y-113031927D02*
X198473214Y-113222403D01*
X198473214Y-113222403D02*
X198492262Y-113203356D01*
X198492262Y-113203356D02*
X198530357Y-113184308D01*
X198530357Y-113184308D02*
X198625595Y-113184308D01*
X198625595Y-113184308D02*
X198663690Y-113203356D01*
X198663690Y-113203356D02*
X198682738Y-113222403D01*
X198682738Y-113222403D02*
X198701785Y-113260499D01*
X198701785Y-113260499D02*
X198701785Y-113355737D01*
X198701785Y-113355737D02*
X198682738Y-113393832D01*
X198682738Y-113393832D02*
X198663690Y-113412880D01*
X198663690Y-113412880D02*
X198625595Y-113431927D01*
X198625595Y-113431927D02*
X198530357Y-113431927D01*
X198530357Y-113431927D02*
X198492262Y-113412880D01*
X198492262Y-113412880D02*
X198473214Y-113393832D01*
D20*
X202157023Y-113425914D02*
X202126547Y-113410676D01*
X202126547Y-113410676D02*
X202096071Y-113380200D01*
X202096071Y-113380200D02*
X202050357Y-113334485D01*
X202050357Y-113334485D02*
X202019880Y-113319247D01*
X202019880Y-113319247D02*
X201989404Y-113319247D01*
X202004642Y-113395438D02*
X201974166Y-113380200D01*
X201974166Y-113380200D02*
X201943690Y-113349723D01*
X201943690Y-113349723D02*
X201928452Y-113288771D01*
X201928452Y-113288771D02*
X201928452Y-113182104D01*
X201928452Y-113182104D02*
X201943690Y-113121152D01*
X201943690Y-113121152D02*
X201974166Y-113090676D01*
X201974166Y-113090676D02*
X202004642Y-113075438D01*
X202004642Y-113075438D02*
X202065595Y-113075438D01*
X202065595Y-113075438D02*
X202096071Y-113090676D01*
X202096071Y-113090676D02*
X202126547Y-113121152D01*
X202126547Y-113121152D02*
X202141785Y-113182104D01*
X202141785Y-113182104D02*
X202141785Y-113288771D01*
X202141785Y-113288771D02*
X202126547Y-113349723D01*
X202126547Y-113349723D02*
X202096071Y-113380200D01*
X202096071Y-113380200D02*
X202065595Y-113395438D01*
X202065595Y-113395438D02*
X202004642Y-113395438D01*
X202446547Y-113395438D02*
X202263690Y-113395438D01*
X202355118Y-113395438D02*
X202355118Y-113075438D01*
X202355118Y-113075438D02*
X202324642Y-113121152D01*
X202324642Y-113121152D02*
X202294166Y-113151628D01*
X202294166Y-113151628D02*
X202263690Y-113166866D01*
D18*
X198295833Y-108393832D02*
X198276785Y-108412880D01*
X198276785Y-108412880D02*
X198219643Y-108431927D01*
X198219643Y-108431927D02*
X198181547Y-108431927D01*
X198181547Y-108431927D02*
X198124404Y-108412880D01*
X198124404Y-108412880D02*
X198086309Y-108374784D01*
X198086309Y-108374784D02*
X198067262Y-108336689D01*
X198067262Y-108336689D02*
X198048214Y-108260499D01*
X198048214Y-108260499D02*
X198048214Y-108203356D01*
X198048214Y-108203356D02*
X198067262Y-108127165D01*
X198067262Y-108127165D02*
X198086309Y-108089070D01*
X198086309Y-108089070D02*
X198124404Y-108050975D01*
X198124404Y-108050975D02*
X198181547Y-108031927D01*
X198181547Y-108031927D02*
X198219643Y-108031927D01*
X198219643Y-108031927D02*
X198276785Y-108050975D01*
X198276785Y-108050975D02*
X198295833Y-108070022D01*
X198429166Y-108031927D02*
X198676785Y-108031927D01*
X198676785Y-108031927D02*
X198543452Y-108184308D01*
X198543452Y-108184308D02*
X198600595Y-108184308D01*
X198600595Y-108184308D02*
X198638690Y-108203356D01*
X198638690Y-108203356D02*
X198657738Y-108222403D01*
X198657738Y-108222403D02*
X198676785Y-108260499D01*
X198676785Y-108260499D02*
X198676785Y-108355737D01*
X198676785Y-108355737D02*
X198657738Y-108393832D01*
X198657738Y-108393832D02*
X198638690Y-108412880D01*
X198638690Y-108412880D02*
X198600595Y-108431927D01*
X198600595Y-108431927D02*
X198486309Y-108431927D01*
X198486309Y-108431927D02*
X198448214Y-108412880D01*
X198448214Y-108412880D02*
X198429166Y-108393832D01*
X218120433Y-104169527D02*
X217987100Y-103979051D01*
X217891862Y-104169527D02*
X217891862Y-103769527D01*
X217891862Y-103769527D02*
X218044243Y-103769527D01*
X218044243Y-103769527D02*
X218082338Y-103788575D01*
X218082338Y-103788575D02*
X218101385Y-103807622D01*
X218101385Y-103807622D02*
X218120433Y-103845718D01*
X218120433Y-103845718D02*
X218120433Y-103902860D01*
X218120433Y-103902860D02*
X218101385Y-103940956D01*
X218101385Y-103940956D02*
X218082338Y-103960003D01*
X218082338Y-103960003D02*
X218044243Y-103979051D01*
X218044243Y-103979051D02*
X217891862Y-103979051D01*
X218310909Y-104169527D02*
X218387100Y-104169527D01*
X218387100Y-104169527D02*
X218425195Y-104150480D01*
X218425195Y-104150480D02*
X218444243Y-104131432D01*
X218444243Y-104131432D02*
X218482338Y-104074289D01*
X218482338Y-104074289D02*
X218501385Y-103998099D01*
X218501385Y-103998099D02*
X218501385Y-103845718D01*
X218501385Y-103845718D02*
X218482338Y-103807622D01*
X218482338Y-103807622D02*
X218463290Y-103788575D01*
X218463290Y-103788575D02*
X218425195Y-103769527D01*
X218425195Y-103769527D02*
X218349004Y-103769527D01*
X218349004Y-103769527D02*
X218310909Y-103788575D01*
X218310909Y-103788575D02*
X218291862Y-103807622D01*
X218291862Y-103807622D02*
X218272814Y-103845718D01*
X218272814Y-103845718D02*
X218272814Y-103940956D01*
X218272814Y-103940956D02*
X218291862Y-103979051D01*
X218291862Y-103979051D02*
X218310909Y-103998099D01*
X218310909Y-103998099D02*
X218349004Y-104017146D01*
X218349004Y-104017146D02*
X218425195Y-104017146D01*
X218425195Y-104017146D02*
X218463290Y-103998099D01*
X218463290Y-103998099D02*
X218482338Y-103979051D01*
X218482338Y-103979051D02*
X218501385Y-103940956D01*
X160993832Y-111204166D02*
X161012880Y-111223214D01*
X161012880Y-111223214D02*
X161031927Y-111280356D01*
X161031927Y-111280356D02*
X161031927Y-111318452D01*
X161031927Y-111318452D02*
X161012880Y-111375595D01*
X161012880Y-111375595D02*
X160974784Y-111413690D01*
X160974784Y-111413690D02*
X160936689Y-111432737D01*
X160936689Y-111432737D02*
X160860499Y-111451785D01*
X160860499Y-111451785D02*
X160803356Y-111451785D01*
X160803356Y-111451785D02*
X160727165Y-111432737D01*
X160727165Y-111432737D02*
X160689070Y-111413690D01*
X160689070Y-111413690D02*
X160650975Y-111375595D01*
X160650975Y-111375595D02*
X160631927Y-111318452D01*
X160631927Y-111318452D02*
X160631927Y-111280356D01*
X160631927Y-111280356D02*
X160650975Y-111223214D01*
X160650975Y-111223214D02*
X160670022Y-111204166D01*
X161031927Y-110823214D02*
X161031927Y-111051785D01*
X161031927Y-110937499D02*
X160631927Y-110937499D01*
X160631927Y-110937499D02*
X160689070Y-110975595D01*
X160689070Y-110975595D02*
X160727165Y-111013690D01*
X160727165Y-111013690D02*
X160746213Y-111051785D01*
X210344033Y-110891127D02*
X210210700Y-110700651D01*
X210115462Y-110891127D02*
X210115462Y-110491127D01*
X210115462Y-110491127D02*
X210267843Y-110491127D01*
X210267843Y-110491127D02*
X210305938Y-110510175D01*
X210305938Y-110510175D02*
X210324985Y-110529222D01*
X210324985Y-110529222D02*
X210344033Y-110567318D01*
X210344033Y-110567318D02*
X210344033Y-110624460D01*
X210344033Y-110624460D02*
X210324985Y-110662556D01*
X210324985Y-110662556D02*
X210305938Y-110681603D01*
X210305938Y-110681603D02*
X210267843Y-110700651D01*
X210267843Y-110700651D02*
X210115462Y-110700651D01*
X210686890Y-110491127D02*
X210610700Y-110491127D01*
X210610700Y-110491127D02*
X210572604Y-110510175D01*
X210572604Y-110510175D02*
X210553557Y-110529222D01*
X210553557Y-110529222D02*
X210515462Y-110586365D01*
X210515462Y-110586365D02*
X210496414Y-110662556D01*
X210496414Y-110662556D02*
X210496414Y-110814937D01*
X210496414Y-110814937D02*
X210515462Y-110853032D01*
X210515462Y-110853032D02*
X210534509Y-110872080D01*
X210534509Y-110872080D02*
X210572604Y-110891127D01*
X210572604Y-110891127D02*
X210648795Y-110891127D01*
X210648795Y-110891127D02*
X210686890Y-110872080D01*
X210686890Y-110872080D02*
X210705938Y-110853032D01*
X210705938Y-110853032D02*
X210724985Y-110814937D01*
X210724985Y-110814937D02*
X210724985Y-110719699D01*
X210724985Y-110719699D02*
X210705938Y-110681603D01*
X210705938Y-110681603D02*
X210686890Y-110662556D01*
X210686890Y-110662556D02*
X210648795Y-110643508D01*
X210648795Y-110643508D02*
X210572604Y-110643508D01*
X210572604Y-110643508D02*
X210534509Y-110662556D01*
X210534509Y-110662556D02*
X210515462Y-110681603D01*
X210515462Y-110681603D02*
X210496414Y-110719699D01*
D20*
X201950323Y-103517214D02*
X201919847Y-103501976D01*
X201919847Y-103501976D02*
X201889371Y-103471500D01*
X201889371Y-103471500D02*
X201843657Y-103425785D01*
X201843657Y-103425785D02*
X201813180Y-103410547D01*
X201813180Y-103410547D02*
X201782704Y-103410547D01*
X201797942Y-103486738D02*
X201767466Y-103471500D01*
X201767466Y-103471500D02*
X201736990Y-103441023D01*
X201736990Y-103441023D02*
X201721752Y-103380071D01*
X201721752Y-103380071D02*
X201721752Y-103273404D01*
X201721752Y-103273404D02*
X201736990Y-103212452D01*
X201736990Y-103212452D02*
X201767466Y-103181976D01*
X201767466Y-103181976D02*
X201797942Y-103166738D01*
X201797942Y-103166738D02*
X201858895Y-103166738D01*
X201858895Y-103166738D02*
X201889371Y-103181976D01*
X201889371Y-103181976D02*
X201919847Y-103212452D01*
X201919847Y-103212452D02*
X201935085Y-103273404D01*
X201935085Y-103273404D02*
X201935085Y-103380071D01*
X201935085Y-103380071D02*
X201919847Y-103441023D01*
X201919847Y-103441023D02*
X201889371Y-103471500D01*
X201889371Y-103471500D02*
X201858895Y-103486738D01*
X201858895Y-103486738D02*
X201797942Y-103486738D01*
X202041752Y-103166738D02*
X202239847Y-103166738D01*
X202239847Y-103166738D02*
X202133180Y-103288642D01*
X202133180Y-103288642D02*
X202178895Y-103288642D01*
X202178895Y-103288642D02*
X202209371Y-103303880D01*
X202209371Y-103303880D02*
X202224609Y-103319119D01*
X202224609Y-103319119D02*
X202239847Y-103349595D01*
X202239847Y-103349595D02*
X202239847Y-103425785D01*
X202239847Y-103425785D02*
X202224609Y-103456261D01*
X202224609Y-103456261D02*
X202209371Y-103471500D01*
X202209371Y-103471500D02*
X202178895Y-103486738D01*
X202178895Y-103486738D02*
X202087466Y-103486738D01*
X202087466Y-103486738D02*
X202056990Y-103471500D01*
X202056990Y-103471500D02*
X202041752Y-103456261D01*
X192625914Y-112592976D02*
X192610676Y-112623452D01*
X192610676Y-112623452D02*
X192580200Y-112653928D01*
X192580200Y-112653928D02*
X192534485Y-112699642D01*
X192534485Y-112699642D02*
X192519247Y-112730119D01*
X192519247Y-112730119D02*
X192519247Y-112760595D01*
X192595438Y-112745357D02*
X192580200Y-112775833D01*
X192580200Y-112775833D02*
X192549723Y-112806309D01*
X192549723Y-112806309D02*
X192488771Y-112821547D01*
X192488771Y-112821547D02*
X192382104Y-112821547D01*
X192382104Y-112821547D02*
X192321152Y-112806309D01*
X192321152Y-112806309D02*
X192290676Y-112775833D01*
X192290676Y-112775833D02*
X192275438Y-112745357D01*
X192275438Y-112745357D02*
X192275438Y-112684404D01*
X192275438Y-112684404D02*
X192290676Y-112653928D01*
X192290676Y-112653928D02*
X192321152Y-112623452D01*
X192321152Y-112623452D02*
X192382104Y-112608214D01*
X192382104Y-112608214D02*
X192488771Y-112608214D01*
X192488771Y-112608214D02*
X192549723Y-112623452D01*
X192549723Y-112623452D02*
X192580200Y-112653928D01*
X192580200Y-112653928D02*
X192595438Y-112684404D01*
X192595438Y-112684404D02*
X192595438Y-112745357D01*
X192305914Y-112486309D02*
X192290676Y-112471071D01*
X192290676Y-112471071D02*
X192275438Y-112440595D01*
X192275438Y-112440595D02*
X192275438Y-112364404D01*
X192275438Y-112364404D02*
X192290676Y-112333928D01*
X192290676Y-112333928D02*
X192305914Y-112318690D01*
X192305914Y-112318690D02*
X192336390Y-112303452D01*
X192336390Y-112303452D02*
X192366866Y-112303452D01*
X192366866Y-112303452D02*
X192412580Y-112318690D01*
X192412580Y-112318690D02*
X192595438Y-112501547D01*
X192595438Y-112501547D02*
X192595438Y-112303452D01*
D18*
X198204633Y-103471032D02*
X198185585Y-103490080D01*
X198185585Y-103490080D02*
X198128443Y-103509127D01*
X198128443Y-103509127D02*
X198090347Y-103509127D01*
X198090347Y-103509127D02*
X198033204Y-103490080D01*
X198033204Y-103490080D02*
X197995109Y-103451984D01*
X197995109Y-103451984D02*
X197976062Y-103413889D01*
X197976062Y-103413889D02*
X197957014Y-103337699D01*
X197957014Y-103337699D02*
X197957014Y-103280556D01*
X197957014Y-103280556D02*
X197976062Y-103204365D01*
X197976062Y-103204365D02*
X197995109Y-103166270D01*
X197995109Y-103166270D02*
X198033204Y-103128175D01*
X198033204Y-103128175D02*
X198090347Y-103109127D01*
X198090347Y-103109127D02*
X198128443Y-103109127D01*
X198128443Y-103109127D02*
X198185585Y-103128175D01*
X198185585Y-103128175D02*
X198204633Y-103147222D01*
X198547490Y-103242460D02*
X198547490Y-103509127D01*
X198452252Y-103090080D02*
X198357014Y-103375794D01*
X198357014Y-103375794D02*
X198604633Y-103375794D01*
X192543832Y-108679166D02*
X192562880Y-108698214D01*
X192562880Y-108698214D02*
X192581927Y-108755356D01*
X192581927Y-108755356D02*
X192581927Y-108793452D01*
X192581927Y-108793452D02*
X192562880Y-108850595D01*
X192562880Y-108850595D02*
X192524784Y-108888690D01*
X192524784Y-108888690D02*
X192486689Y-108907737D01*
X192486689Y-108907737D02*
X192410499Y-108926785D01*
X192410499Y-108926785D02*
X192353356Y-108926785D01*
X192353356Y-108926785D02*
X192277165Y-108907737D01*
X192277165Y-108907737D02*
X192239070Y-108888690D01*
X192239070Y-108888690D02*
X192200975Y-108850595D01*
X192200975Y-108850595D02*
X192181927Y-108793452D01*
X192181927Y-108793452D02*
X192181927Y-108755356D01*
X192181927Y-108755356D02*
X192200975Y-108698214D01*
X192200975Y-108698214D02*
X192220022Y-108679166D01*
X192220022Y-108526785D02*
X192200975Y-108507737D01*
X192200975Y-108507737D02*
X192181927Y-108469642D01*
X192181927Y-108469642D02*
X192181927Y-108374404D01*
X192181927Y-108374404D02*
X192200975Y-108336309D01*
X192200975Y-108336309D02*
X192220022Y-108317261D01*
X192220022Y-108317261D02*
X192258118Y-108298214D01*
X192258118Y-108298214D02*
X192296213Y-108298214D01*
X192296213Y-108298214D02*
X192353356Y-108317261D01*
X192353356Y-108317261D02*
X192581927Y-108545833D01*
X192581927Y-108545833D02*
X192581927Y-108298214D01*
X173555833Y-111853832D02*
X173536785Y-111872880D01*
X173536785Y-111872880D02*
X173479643Y-111891927D01*
X173479643Y-111891927D02*
X173441547Y-111891927D01*
X173441547Y-111891927D02*
X173384404Y-111872880D01*
X173384404Y-111872880D02*
X173346309Y-111834784D01*
X173346309Y-111834784D02*
X173327262Y-111796689D01*
X173327262Y-111796689D02*
X173308214Y-111720499D01*
X173308214Y-111720499D02*
X173308214Y-111663356D01*
X173308214Y-111663356D02*
X173327262Y-111587165D01*
X173327262Y-111587165D02*
X173346309Y-111549070D01*
X173346309Y-111549070D02*
X173384404Y-111510975D01*
X173384404Y-111510975D02*
X173441547Y-111491927D01*
X173441547Y-111491927D02*
X173479643Y-111491927D01*
X173479643Y-111491927D02*
X173536785Y-111510975D01*
X173536785Y-111510975D02*
X173555833Y-111530022D01*
X173689166Y-111491927D02*
X173955833Y-111491927D01*
X173955833Y-111491927D02*
X173784404Y-111891927D01*
D19*
X221404819Y-111159523D02*
X222119104Y-111159523D01*
X222119104Y-111159523D02*
X222261961Y-111207142D01*
X222261961Y-111207142D02*
X222357200Y-111302380D01*
X222357200Y-111302380D02*
X222404819Y-111445237D01*
X222404819Y-111445237D02*
X222404819Y-111540475D01*
X222404819Y-110159523D02*
X222404819Y-110730951D01*
X222404819Y-110445237D02*
X221404819Y-110445237D01*
X221404819Y-110445237D02*
X221547676Y-110540475D01*
X221547676Y-110540475D02*
X221642914Y-110635713D01*
X221642914Y-110635713D02*
X221690533Y-110730951D01*
X222404819Y-109207142D02*
X222404819Y-109778570D01*
X222404819Y-109492856D02*
X221404819Y-109492856D01*
X221404819Y-109492856D02*
X221547676Y-109588094D01*
X221547676Y-109588094D02*
X221642914Y-109683332D01*
X221642914Y-109683332D02*
X221690533Y-109778570D01*
D18*
X218169033Y-112297527D02*
X218035700Y-112107051D01*
X217940462Y-112297527D02*
X217940462Y-111897527D01*
X217940462Y-111897527D02*
X218092843Y-111897527D01*
X218092843Y-111897527D02*
X218130938Y-111916575D01*
X218130938Y-111916575D02*
X218149985Y-111935622D01*
X218149985Y-111935622D02*
X218169033Y-111973718D01*
X218169033Y-111973718D02*
X218169033Y-112030860D01*
X218169033Y-112030860D02*
X218149985Y-112068956D01*
X218149985Y-112068956D02*
X218130938Y-112088003D01*
X218130938Y-112088003D02*
X218092843Y-112107051D01*
X218092843Y-112107051D02*
X217940462Y-112107051D01*
X218397604Y-112068956D02*
X218359509Y-112049908D01*
X218359509Y-112049908D02*
X218340462Y-112030860D01*
X218340462Y-112030860D02*
X218321414Y-111992765D01*
X218321414Y-111992765D02*
X218321414Y-111973718D01*
X218321414Y-111973718D02*
X218340462Y-111935622D01*
X218340462Y-111935622D02*
X218359509Y-111916575D01*
X218359509Y-111916575D02*
X218397604Y-111897527D01*
X218397604Y-111897527D02*
X218473795Y-111897527D01*
X218473795Y-111897527D02*
X218511890Y-111916575D01*
X218511890Y-111916575D02*
X218530938Y-111935622D01*
X218530938Y-111935622D02*
X218549985Y-111973718D01*
X218549985Y-111973718D02*
X218549985Y-111992765D01*
X218549985Y-111992765D02*
X218530938Y-112030860D01*
X218530938Y-112030860D02*
X218511890Y-112049908D01*
X218511890Y-112049908D02*
X218473795Y-112068956D01*
X218473795Y-112068956D02*
X218397604Y-112068956D01*
X218397604Y-112068956D02*
X218359509Y-112088003D01*
X218359509Y-112088003D02*
X218340462Y-112107051D01*
X218340462Y-112107051D02*
X218321414Y-112145146D01*
X218321414Y-112145146D02*
X218321414Y-112221337D01*
X218321414Y-112221337D02*
X218340462Y-112259432D01*
X218340462Y-112259432D02*
X218359509Y-112278480D01*
X218359509Y-112278480D02*
X218397604Y-112297527D01*
X218397604Y-112297527D02*
X218473795Y-112297527D01*
X218473795Y-112297527D02*
X218511890Y-112278480D01*
X218511890Y-112278480D02*
X218530938Y-112259432D01*
X218530938Y-112259432D02*
X218549985Y-112221337D01*
X218549985Y-112221337D02*
X218549985Y-112145146D01*
X218549985Y-112145146D02*
X218530938Y-112107051D01*
X218530938Y-112107051D02*
X218511890Y-112088003D01*
X218511890Y-112088003D02*
X218473795Y-112068956D01*
D21*
%TO.C,R14*%
X203111000Y-100603000D02*
X201511000Y-100603000D01*
X203111000Y-99803000D02*
X203111000Y-100603000D01*
X201511000Y-100603000D02*
X201511000Y-99803000D01*
X201511000Y-99803000D02*
X203111000Y-99803000D01*
%TO.C,R13*%
X213595000Y-102680500D02*
X213595000Y-101080500D01*
X214395000Y-102680500D02*
X213595000Y-102680500D01*
X213595000Y-101080500D02*
X214395000Y-101080500D01*
X214395000Y-101080500D02*
X214395000Y-102680500D01*
%TO.C,R12*%
X211593500Y-102762000D02*
X209993500Y-102762000D01*
X211593500Y-101962000D02*
X211593500Y-102762000D01*
X209993500Y-102762000D02*
X209993500Y-101962000D01*
X209993500Y-101962000D02*
X211593500Y-101962000D01*
%TO.C,J5*%
X160464000Y-120774000D02*
X166214000Y-120774000D01*
X166214000Y-120774000D02*
X166214000Y-113374000D01*
X160464000Y-118949000D02*
X161464000Y-118324000D01*
X161464000Y-118324000D02*
X160464000Y-117699000D01*
X160464000Y-113374000D02*
X160464000Y-120774000D01*
X166214000Y-113374000D02*
X160464000Y-113374000D01*
%TO.C,J10*%
X207970000Y-119875000D02*
X207335000Y-120510000D01*
X207970000Y-100190000D02*
X207970000Y-119875000D01*
X207335000Y-120510000D02*
X205430000Y-120510000D01*
X205430000Y-120510000D02*
X205430000Y-100190000D01*
X205430000Y-100190000D02*
X207970000Y-100190000D01*
%TO.C,R1*%
X162850000Y-110387500D02*
X163650000Y-110387500D01*
X162850000Y-111987500D02*
X162850000Y-110387500D01*
X163650000Y-110387500D02*
X163650000Y-111987500D01*
X163650000Y-111987500D02*
X162850000Y-111987500D01*
%TO.C,R4*%
X209587500Y-107100000D02*
X211187500Y-107100000D01*
X209587500Y-107900000D02*
X209587500Y-107100000D01*
X211187500Y-107100000D02*
X211187500Y-107900000D01*
X211187500Y-107900000D02*
X209587500Y-107900000D01*
%TO.C,R7*%
X217435700Y-109886800D02*
X219035700Y-109886800D01*
X217435700Y-110686800D02*
X217435700Y-109886800D01*
X219035700Y-109886800D02*
X219035700Y-110686800D01*
X219035700Y-110686800D02*
X217435700Y-110686800D01*
%TO.C,C6*%
X203500000Y-117800000D02*
X204300000Y-117800000D01*
X203500000Y-119400000D02*
X203500000Y-117800000D01*
X204300000Y-117800000D02*
X204300000Y-119400000D01*
X204300000Y-119400000D02*
X203500000Y-119400000D01*
%TO.C,R11*%
X217357500Y-106950000D02*
X218957500Y-106950000D01*
X217357500Y-107750000D02*
X217357500Y-106950000D01*
X218957500Y-106950000D02*
X218957500Y-107750000D01*
X218957500Y-107750000D02*
X217357500Y-107750000D01*
%TO.C,R3*%
X209587500Y-112011000D02*
X211187500Y-112011000D01*
X209587500Y-112811000D02*
X209587500Y-112011000D01*
X211187500Y-112011000D02*
X211187500Y-112811000D01*
X211187500Y-112811000D02*
X209587500Y-112811000D01*
%TO.C,R2*%
X211460000Y-116940000D02*
X212260000Y-116940000D01*
X211460000Y-118540000D02*
X211460000Y-116940000D01*
X212260000Y-116940000D02*
X212260000Y-118540000D01*
X212260000Y-118540000D02*
X211460000Y-118540000D01*
%TO.C,J1*%
X182050000Y-99050000D02*
X182050000Y-108950000D01*
X182050000Y-107125000D02*
X183050000Y-106500000D01*
X182050000Y-108950000D02*
X187800000Y-108950000D01*
X183050000Y-106500000D02*
X182050000Y-105875000D01*
X187800000Y-99050000D02*
X182050000Y-99050000D01*
X187800000Y-108950000D02*
X187800000Y-99050000D01*
%TO.C,J3*%
X167750000Y-99000000D02*
X167750000Y-108900000D01*
X167750000Y-107075000D02*
X168750000Y-106450000D01*
X167750000Y-108900000D02*
X173500000Y-108900000D01*
X168750000Y-106450000D02*
X167750000Y-105825000D01*
X173500000Y-99000000D02*
X167750000Y-99000000D01*
X173500000Y-108900000D02*
X173500000Y-99000000D01*
%TO.C,J2*%
X174900000Y-99050000D02*
X174900000Y-108950000D01*
X174900000Y-107125000D02*
X175900000Y-106500000D01*
X174900000Y-108950000D02*
X180650000Y-108950000D01*
X175900000Y-106500000D02*
X174900000Y-105875000D01*
X180650000Y-99050000D02*
X174900000Y-99050000D01*
X180650000Y-108950000D02*
X180650000Y-99050000D01*
%TO.C,Q4*%
X201412500Y-106750000D02*
X202712500Y-106750000D01*
X201412500Y-109650000D02*
X201412500Y-106750000D01*
X202387500Y-109650000D02*
X201412500Y-109650000D01*
X202712500Y-106750000D02*
X202712500Y-109325000D01*
X202712500Y-109325000D02*
X202387500Y-109650000D01*
%TO.C,J7*%
X167775000Y-113400000D02*
X167775000Y-120800000D01*
X167775000Y-118975000D02*
X168775000Y-118350000D01*
X167775000Y-120800000D02*
X173525000Y-120800000D01*
X168775000Y-118350000D02*
X167775000Y-117725000D01*
X173525000Y-113400000D02*
X167775000Y-113400000D01*
X173525000Y-120800000D02*
X173525000Y-113400000D01*
%TO.C,J8*%
X182075000Y-113400000D02*
X182075000Y-120800000D01*
X182075000Y-118975000D02*
X183075000Y-118350000D01*
X182075000Y-120800000D02*
X187825000Y-120800000D01*
X183075000Y-118350000D02*
X182075000Y-117725000D01*
X187825000Y-113400000D02*
X182075000Y-113400000D01*
X187825000Y-120800000D02*
X187825000Y-113400000D01*
%TO.C,R10*%
X217387100Y-100946000D02*
X218987100Y-100946000D01*
X217387100Y-101746000D02*
X217387100Y-100946000D01*
X218987100Y-100946000D02*
X218987100Y-101746000D01*
X218987100Y-101746000D02*
X217387100Y-101746000D01*
%TO.C,R5*%
X209587500Y-108751000D02*
X211187500Y-108751000D01*
X209587500Y-109551000D02*
X209587500Y-108751000D01*
X211187500Y-108751000D02*
X211187500Y-109551000D01*
X211187500Y-109551000D02*
X209587500Y-109551000D01*
%TO.C,C5*%
X197587500Y-112850000D02*
X199187500Y-112850000D01*
X197587500Y-113650000D02*
X197587500Y-112850000D01*
X199187500Y-112850000D02*
X199187500Y-113650000D01*
X199187500Y-113650000D02*
X197587500Y-113650000D01*
%TO.C,Q1*%
X201537500Y-111800000D02*
X202837500Y-111800000D01*
X201537500Y-114700000D02*
X201537500Y-111800000D01*
X202512500Y-114700000D02*
X201537500Y-114700000D01*
X202837500Y-111800000D02*
X202837500Y-114375000D01*
X202837500Y-114375000D02*
X202512500Y-114700000D01*
%TO.C,C3*%
X197562500Y-107850000D02*
X199162500Y-107850000D01*
X197562500Y-108650000D02*
X197562500Y-107850000D01*
X199162500Y-107850000D02*
X199162500Y-108650000D01*
X199162500Y-108650000D02*
X197562500Y-108650000D01*
%TO.C,R9*%
X217387100Y-103587600D02*
X218987100Y-103587600D01*
X217387100Y-104387600D02*
X217387100Y-103587600D01*
X218987100Y-103587600D02*
X218987100Y-104387600D01*
X218987100Y-104387600D02*
X217387100Y-104387600D01*
%TO.C,C1*%
X160450000Y-110337500D02*
X161250000Y-110337500D01*
X160450000Y-111937500D02*
X160450000Y-110337500D01*
X161250000Y-110337500D02*
X161250000Y-111937500D01*
X161250000Y-111937500D02*
X160450000Y-111937500D01*
%TO.C,J6*%
X174925000Y-113400000D02*
X174925000Y-120800000D01*
X174925000Y-118975000D02*
X175925000Y-118350000D01*
X174925000Y-120800000D02*
X180675000Y-120800000D01*
X175925000Y-118350000D02*
X174925000Y-117725000D01*
X180675000Y-113400000D02*
X174925000Y-113400000D01*
X180675000Y-120800000D02*
X180675000Y-113400000D01*
%TO.C,R6*%
X209610700Y-110309200D02*
X211210700Y-110309200D01*
X209610700Y-111109200D02*
X209610700Y-110309200D01*
X211210700Y-110309200D02*
X211210700Y-111109200D01*
X211210700Y-111109200D02*
X209610700Y-111109200D01*
%TO.C,Q3*%
X201330800Y-101891300D02*
X202630800Y-101891300D01*
X201330800Y-104791300D02*
X201330800Y-101891300D01*
X202305800Y-104791300D02*
X201330800Y-104791300D01*
X202630800Y-101891300D02*
X202630800Y-104466300D01*
X202630800Y-104466300D02*
X202305800Y-104791300D01*
%TO.C,Q2*%
X191000000Y-111912500D02*
X193900000Y-111912500D01*
X191000000Y-112887500D02*
X191000000Y-111912500D01*
X191325000Y-113212500D02*
X191000000Y-112887500D01*
X193900000Y-111912500D02*
X193900000Y-113212500D01*
X193900000Y-113212500D02*
X191325000Y-113212500D01*
%TO.C,C4*%
X197471300Y-102927200D02*
X199071300Y-102927200D01*
X197471300Y-103727200D02*
X197471300Y-102927200D01*
X199071300Y-102927200D02*
X199071300Y-103727200D01*
X199071300Y-103727200D02*
X197471300Y-103727200D01*
%TO.C,C2*%
X192000000Y-107812500D02*
X192800000Y-107812500D01*
X192000000Y-109412500D02*
X192000000Y-107812500D01*
X192800000Y-107812500D02*
X192800000Y-109412500D01*
X192800000Y-109412500D02*
X192000000Y-109412500D01*
%TO.C,C7*%
X172822500Y-111310000D02*
X174422500Y-111310000D01*
X172822500Y-112110000D02*
X172822500Y-111310000D01*
X174422500Y-111310000D02*
X174422500Y-112110000D01*
X174422500Y-112110000D02*
X172822500Y-112110000D01*
%TO.C,J11*%
X220680000Y-100190000D02*
X223220000Y-100190000D01*
X220680000Y-120510000D02*
X220680000Y-100190000D01*
X222585000Y-120510000D02*
X220680000Y-120510000D01*
X223220000Y-100190000D02*
X223220000Y-119875000D01*
X223220000Y-119875000D02*
X222585000Y-120510000D01*
%TO.C,R8*%
X217435700Y-111715600D02*
X219035700Y-111715600D01*
X217435700Y-112515600D02*
X217435700Y-111715600D01*
X219035700Y-111715600D02*
X219035700Y-112515600D01*
X219035700Y-112515600D02*
X217435700Y-112515600D01*
%TD*%
M02*
