%TF.GenerationSoftware,KiCad,Pcbnew,9.0.3*%
%TF.CreationDate,2025-09-10T20:52:41+09:00*%
%TF.ProjectId,mirror_Shooter_v2,6d697272-6f72-45f5-9368-6f6f7465725f,rev?*%
%TF.SameCoordinates,Original*%
%TF.FileFunction,Legend,Top*%
%TF.FilePolarity,Positive*%
%FSLAX46Y46*%
G04 Gerber Fmt 4.6, Leading zero omitted, Abs format (unit mm)*
G04 Created by KiCad (PCBNEW 9.0.3) date 2025-09-10 20:52:41*
%MOMM*%
%LPD*%
G01*
G04 APERTURE LIST*
%ADD10C,0.200000*%
%ADD11C,0.150000*%
%ADD12C,0.120000*%
%ADD13C,0.060000*%
%ADD14C,0.050000*%
%ADD15C,0.100000*%
G04 APERTURE END LIST*
D10*
X209135474Y-99642219D02*
X209260474Y-98642219D01*
X209260474Y-98642219D02*
X209504522Y-99356504D01*
X209504522Y-99356504D02*
X209927141Y-98642219D01*
X209927141Y-98642219D02*
X209802141Y-99642219D01*
X210278331Y-99642219D02*
X210361665Y-98975552D01*
X210403331Y-98642219D02*
X210349760Y-98689838D01*
X210349760Y-98689838D02*
X210391427Y-98737457D01*
X210391427Y-98737457D02*
X210444998Y-98689838D01*
X210444998Y-98689838D02*
X210403331Y-98642219D01*
X210403331Y-98642219D02*
X210391427Y-98737457D01*
X210754521Y-99642219D02*
X210837855Y-98975552D01*
X210814045Y-99166028D02*
X210873569Y-99070790D01*
X210873569Y-99070790D02*
X210927140Y-99023171D01*
X210927140Y-99023171D02*
X211028331Y-98975552D01*
X211028331Y-98975552D02*
X211123569Y-98975552D01*
X211373569Y-99642219D02*
X211456903Y-98975552D01*
X211433093Y-99166028D02*
X211492617Y-99070790D01*
X211492617Y-99070790D02*
X211546188Y-99023171D01*
X211546188Y-99023171D02*
X211647379Y-98975552D01*
X211647379Y-98975552D02*
X211742617Y-98975552D01*
X212135475Y-99642219D02*
X212046189Y-99594600D01*
X212046189Y-99594600D02*
X212004522Y-99546980D01*
X212004522Y-99546980D02*
X211968808Y-99451742D01*
X211968808Y-99451742D02*
X212004522Y-99166028D01*
X212004522Y-99166028D02*
X212064046Y-99070790D01*
X212064046Y-99070790D02*
X212117617Y-99023171D01*
X212117617Y-99023171D02*
X212218808Y-98975552D01*
X212218808Y-98975552D02*
X212361665Y-98975552D01*
X212361665Y-98975552D02*
X212450951Y-99023171D01*
X212450951Y-99023171D02*
X212492617Y-99070790D01*
X212492617Y-99070790D02*
X212528332Y-99166028D01*
X212528332Y-99166028D02*
X212492617Y-99451742D01*
X212492617Y-99451742D02*
X212433094Y-99546980D01*
X212433094Y-99546980D02*
X212379522Y-99594600D01*
X212379522Y-99594600D02*
X212278332Y-99642219D01*
X212278332Y-99642219D02*
X212135475Y-99642219D01*
X212897379Y-99642219D02*
X212980713Y-98975552D01*
X212956903Y-99166028D02*
X213016427Y-99070790D01*
X213016427Y-99070790D02*
X213069998Y-99023171D01*
X213069998Y-99023171D02*
X213171189Y-98975552D01*
X213171189Y-98975552D02*
X213266427Y-98975552D01*
X213266427Y-99737457D02*
X214028332Y-99737457D01*
X214236666Y-99594600D02*
X214373570Y-99642219D01*
X214373570Y-99642219D02*
X214611666Y-99642219D01*
X214611666Y-99642219D02*
X214712856Y-99594600D01*
X214712856Y-99594600D02*
X214766428Y-99546980D01*
X214766428Y-99546980D02*
X214825951Y-99451742D01*
X214825951Y-99451742D02*
X214837856Y-99356504D01*
X214837856Y-99356504D02*
X214802142Y-99261266D01*
X214802142Y-99261266D02*
X214760475Y-99213647D01*
X214760475Y-99213647D02*
X214671190Y-99166028D01*
X214671190Y-99166028D02*
X214486666Y-99118409D01*
X214486666Y-99118409D02*
X214397380Y-99070790D01*
X214397380Y-99070790D02*
X214355713Y-99023171D01*
X214355713Y-99023171D02*
X214319999Y-98927933D01*
X214319999Y-98927933D02*
X214331904Y-98832695D01*
X214331904Y-98832695D02*
X214391428Y-98737457D01*
X214391428Y-98737457D02*
X214444999Y-98689838D01*
X214444999Y-98689838D02*
X214546190Y-98642219D01*
X214546190Y-98642219D02*
X214784285Y-98642219D01*
X214784285Y-98642219D02*
X214921190Y-98689838D01*
X215230713Y-99642219D02*
X215355713Y-98642219D01*
X215659285Y-99642219D02*
X215724761Y-99118409D01*
X215724761Y-99118409D02*
X215689047Y-99023171D01*
X215689047Y-99023171D02*
X215599761Y-98975552D01*
X215599761Y-98975552D02*
X215456904Y-98975552D01*
X215456904Y-98975552D02*
X215355713Y-99023171D01*
X215355713Y-99023171D02*
X215302142Y-99070790D01*
X216278333Y-99642219D02*
X216189047Y-99594600D01*
X216189047Y-99594600D02*
X216147380Y-99546980D01*
X216147380Y-99546980D02*
X216111666Y-99451742D01*
X216111666Y-99451742D02*
X216147380Y-99166028D01*
X216147380Y-99166028D02*
X216206904Y-99070790D01*
X216206904Y-99070790D02*
X216260475Y-99023171D01*
X216260475Y-99023171D02*
X216361666Y-98975552D01*
X216361666Y-98975552D02*
X216504523Y-98975552D01*
X216504523Y-98975552D02*
X216593809Y-99023171D01*
X216593809Y-99023171D02*
X216635475Y-99070790D01*
X216635475Y-99070790D02*
X216671190Y-99166028D01*
X216671190Y-99166028D02*
X216635475Y-99451742D01*
X216635475Y-99451742D02*
X216575952Y-99546980D01*
X216575952Y-99546980D02*
X216522380Y-99594600D01*
X216522380Y-99594600D02*
X216421190Y-99642219D01*
X216421190Y-99642219D02*
X216278333Y-99642219D01*
X217183095Y-99642219D02*
X217093809Y-99594600D01*
X217093809Y-99594600D02*
X217052142Y-99546980D01*
X217052142Y-99546980D02*
X217016428Y-99451742D01*
X217016428Y-99451742D02*
X217052142Y-99166028D01*
X217052142Y-99166028D02*
X217111666Y-99070790D01*
X217111666Y-99070790D02*
X217165237Y-99023171D01*
X217165237Y-99023171D02*
X217266428Y-98975552D01*
X217266428Y-98975552D02*
X217409285Y-98975552D01*
X217409285Y-98975552D02*
X217498571Y-99023171D01*
X217498571Y-99023171D02*
X217540237Y-99070790D01*
X217540237Y-99070790D02*
X217575952Y-99166028D01*
X217575952Y-99166028D02*
X217540237Y-99451742D01*
X217540237Y-99451742D02*
X217480714Y-99546980D01*
X217480714Y-99546980D02*
X217427142Y-99594600D01*
X217427142Y-99594600D02*
X217325952Y-99642219D01*
X217325952Y-99642219D02*
X217183095Y-99642219D01*
X217885476Y-98975552D02*
X218266428Y-98975552D01*
X218069999Y-98642219D02*
X217962857Y-99499361D01*
X217962857Y-99499361D02*
X217998571Y-99594600D01*
X217998571Y-99594600D02*
X218087857Y-99642219D01*
X218087857Y-99642219D02*
X218183095Y-99642219D01*
X218903333Y-99594600D02*
X218802143Y-99642219D01*
X218802143Y-99642219D02*
X218611666Y-99642219D01*
X218611666Y-99642219D02*
X218522381Y-99594600D01*
X218522381Y-99594600D02*
X218486666Y-99499361D01*
X218486666Y-99499361D02*
X218534286Y-99118409D01*
X218534286Y-99118409D02*
X218593809Y-99023171D01*
X218593809Y-99023171D02*
X218695000Y-98975552D01*
X218695000Y-98975552D02*
X218885476Y-98975552D01*
X218885476Y-98975552D02*
X218974762Y-99023171D01*
X218974762Y-99023171D02*
X219010476Y-99118409D01*
X219010476Y-99118409D02*
X218998571Y-99213647D01*
X218998571Y-99213647D02*
X218510476Y-99308885D01*
X219373571Y-99642219D02*
X219456905Y-98975552D01*
X219433095Y-99166028D02*
X219492619Y-99070790D01*
X219492619Y-99070790D02*
X219546190Y-99023171D01*
X219546190Y-99023171D02*
X219647381Y-98975552D01*
X219647381Y-98975552D02*
X219742619Y-98975552D01*
X219742619Y-99737457D02*
X220504524Y-99737457D01*
X220742620Y-98975552D02*
X220897382Y-99642219D01*
X220897382Y-99642219D02*
X221218810Y-98975552D01*
X221581906Y-98737457D02*
X221635477Y-98689838D01*
X221635477Y-98689838D02*
X221736667Y-98642219D01*
X221736667Y-98642219D02*
X221974763Y-98642219D01*
X221974763Y-98642219D02*
X222064048Y-98689838D01*
X222064048Y-98689838D02*
X222105715Y-98737457D01*
X222105715Y-98737457D02*
X222141429Y-98832695D01*
X222141429Y-98832695D02*
X222129525Y-98927933D01*
X222129525Y-98927933D02*
X222064048Y-99070790D01*
X222064048Y-99070790D02*
X221421191Y-99642219D01*
X221421191Y-99642219D02*
X222040239Y-99642219D01*
D11*
X183285714Y-110454819D02*
X183952380Y-110454819D01*
X183952380Y-110454819D02*
X183285714Y-111454819D01*
X183285714Y-111454819D02*
X183952380Y-111454819D01*
X184333333Y-110454819D02*
X184333333Y-111264342D01*
X184333333Y-111264342D02*
X184380952Y-111359580D01*
X184380952Y-111359580D02*
X184428571Y-111407200D01*
X184428571Y-111407200D02*
X184523809Y-111454819D01*
X184523809Y-111454819D02*
X184714285Y-111454819D01*
X184714285Y-111454819D02*
X184809523Y-111407200D01*
X184809523Y-111407200D02*
X184857142Y-111359580D01*
X184857142Y-111359580D02*
X184904761Y-111264342D01*
X184904761Y-111264342D02*
X184904761Y-110454819D01*
X185238095Y-110454819D02*
X185809523Y-110454819D01*
X185523809Y-111454819D02*
X185523809Y-110454819D01*
X186333333Y-110454819D02*
X186523809Y-110454819D01*
X186523809Y-110454819D02*
X186619047Y-110502438D01*
X186619047Y-110502438D02*
X186714285Y-110597676D01*
X186714285Y-110597676D02*
X186761904Y-110788152D01*
X186761904Y-110788152D02*
X186761904Y-111121485D01*
X186761904Y-111121485D02*
X186714285Y-111311961D01*
X186714285Y-111311961D02*
X186619047Y-111407200D01*
X186619047Y-111407200D02*
X186523809Y-111454819D01*
X186523809Y-111454819D02*
X186333333Y-111454819D01*
X186333333Y-111454819D02*
X186238095Y-111407200D01*
X186238095Y-111407200D02*
X186142857Y-111311961D01*
X186142857Y-111311961D02*
X186095238Y-111121485D01*
X186095238Y-111121485D02*
X186095238Y-110788152D01*
X186095238Y-110788152D02*
X186142857Y-110597676D01*
X186142857Y-110597676D02*
X186238095Y-110502438D01*
X186238095Y-110502438D02*
X186333333Y-110454819D01*
X187190476Y-111454819D02*
X187190476Y-110454819D01*
X187190476Y-110454819D02*
X187523809Y-111169104D01*
X187523809Y-111169104D02*
X187857142Y-110454819D01*
X187857142Y-110454819D02*
X187857142Y-111454819D01*
X188285714Y-111169104D02*
X188761904Y-111169104D01*
X188190476Y-111454819D02*
X188523809Y-110454819D01*
X188523809Y-110454819D02*
X188857142Y-111454819D01*
X189380952Y-110978628D02*
X189380952Y-111454819D01*
X189047619Y-110454819D02*
X189380952Y-110978628D01*
X189380952Y-110978628D02*
X189714285Y-110454819D01*
X190238095Y-110454819D02*
X190428571Y-110454819D01*
X190428571Y-110454819D02*
X190523809Y-110502438D01*
X190523809Y-110502438D02*
X190619047Y-110597676D01*
X190619047Y-110597676D02*
X190666666Y-110788152D01*
X190666666Y-110788152D02*
X190666666Y-111121485D01*
X190666666Y-111121485D02*
X190619047Y-111311961D01*
X190619047Y-111311961D02*
X190523809Y-111407200D01*
X190523809Y-111407200D02*
X190428571Y-111454819D01*
X190428571Y-111454819D02*
X190238095Y-111454819D01*
X190238095Y-111454819D02*
X190142857Y-111407200D01*
X190142857Y-111407200D02*
X190047619Y-111311961D01*
X190047619Y-111311961D02*
X190000000Y-111121485D01*
X190000000Y-111121485D02*
X190000000Y-110788152D01*
X190000000Y-110788152D02*
X190047619Y-110597676D01*
X190047619Y-110597676D02*
X190142857Y-110502438D01*
X190142857Y-110502438D02*
X190238095Y-110454819D01*
D10*
X209103333Y-100172219D02*
X209002143Y-100981742D01*
X209002143Y-100981742D02*
X209037857Y-101076980D01*
X209037857Y-101076980D02*
X209079524Y-101124600D01*
X209079524Y-101124600D02*
X209168810Y-101172219D01*
X209168810Y-101172219D02*
X209359286Y-101172219D01*
X209359286Y-101172219D02*
X209460476Y-101124600D01*
X209460476Y-101124600D02*
X209514048Y-101076980D01*
X209514048Y-101076980D02*
X209573571Y-100981742D01*
X209573571Y-100981742D02*
X209674762Y-100172219D01*
X210025952Y-101172219D02*
X210150952Y-100172219D01*
X210150952Y-100172219D02*
X210597381Y-101172219D01*
X210597381Y-101172219D02*
X210722381Y-100172219D01*
X211656905Y-101076980D02*
X211603333Y-101124600D01*
X211603333Y-101124600D02*
X211454524Y-101172219D01*
X211454524Y-101172219D02*
X211359286Y-101172219D01*
X211359286Y-101172219D02*
X211222381Y-101124600D01*
X211222381Y-101124600D02*
X211139048Y-101029361D01*
X211139048Y-101029361D02*
X211103333Y-100934123D01*
X211103333Y-100934123D02*
X211079524Y-100743647D01*
X211079524Y-100743647D02*
X211097381Y-100600790D01*
X211097381Y-100600790D02*
X211168809Y-100410314D01*
X211168809Y-100410314D02*
X211228333Y-100315076D01*
X211228333Y-100315076D02*
X211335476Y-100219838D01*
X211335476Y-100219838D02*
X211484286Y-100172219D01*
X211484286Y-100172219D02*
X211579524Y-100172219D01*
X211579524Y-100172219D02*
X211716429Y-100219838D01*
X211716429Y-100219838D02*
X211758095Y-100267457D01*
X212103333Y-100172219D02*
X212770000Y-100172219D01*
X212770000Y-100172219D02*
X211978333Y-101172219D01*
X211978333Y-101172219D02*
X212645000Y-101172219D01*
D11*
X164806381Y-110167009D02*
X164949238Y-110214628D01*
X164949238Y-110214628D02*
X164996857Y-110262247D01*
X164996857Y-110262247D02*
X165044476Y-110357485D01*
X165044476Y-110357485D02*
X165044476Y-110500342D01*
X165044476Y-110500342D02*
X164996857Y-110595580D01*
X164996857Y-110595580D02*
X164949238Y-110643200D01*
X164949238Y-110643200D02*
X164854000Y-110690819D01*
X164854000Y-110690819D02*
X164473048Y-110690819D01*
X164473048Y-110690819D02*
X164473048Y-109690819D01*
X164473048Y-109690819D02*
X164806381Y-109690819D01*
X164806381Y-109690819D02*
X164901619Y-109738438D01*
X164901619Y-109738438D02*
X164949238Y-109786057D01*
X164949238Y-109786057D02*
X164996857Y-109881295D01*
X164996857Y-109881295D02*
X164996857Y-109976533D01*
X164996857Y-109976533D02*
X164949238Y-110071771D01*
X164949238Y-110071771D02*
X164901619Y-110119390D01*
X164901619Y-110119390D02*
X164806381Y-110167009D01*
X164806381Y-110167009D02*
X164473048Y-110167009D01*
X165473048Y-110309866D02*
X166234953Y-110309866D01*
D10*
X160041642Y-106841957D02*
X160879737Y-106841957D01*
X160290452Y-106108623D02*
X160814261Y-106108623D01*
X160814261Y-106108623D02*
X160670214Y-106841957D01*
X161194023Y-106841957D02*
X162032118Y-106841957D01*
X161377357Y-106213385D02*
X162005928Y-106213385D01*
X162490452Y-106108623D02*
X163014261Y-106108623D01*
X162732714Y-105846719D02*
X162477357Y-106632433D01*
X162477357Y-106632433D02*
X162713071Y-106422909D01*
X162713071Y-106422909D02*
X162922595Y-106422909D01*
X162922595Y-106422909D02*
X163007714Y-106580052D01*
X163007714Y-106580052D02*
X162981523Y-106789576D01*
X162981523Y-106789576D02*
X162804738Y-106946719D01*
X162804738Y-106946719D02*
X162582119Y-107051480D01*
X163727952Y-106265766D02*
X163891642Y-107051480D01*
X163891642Y-106213385D02*
X163983309Y-106318147D01*
X163636285Y-106580052D02*
X164081523Y-106370528D01*
X164081523Y-106370528D02*
X164232119Y-106422909D01*
X164232119Y-106422909D02*
X164219023Y-106527671D01*
X164219023Y-106527671D02*
X164153547Y-106632433D01*
X164153547Y-106632433D02*
X163989857Y-106684814D01*
X165188071Y-105899100D02*
X164729738Y-107051480D01*
X164729738Y-107051480D02*
X165057119Y-106527671D01*
X165057119Y-106527671D02*
X165161881Y-106527671D01*
X165161881Y-106527671D02*
X165201166Y-107051480D01*
X165201166Y-107051480D02*
X165253547Y-107051480D01*
X165253547Y-107051480D02*
X165443428Y-106789576D01*
X166602357Y-105899100D02*
X166694023Y-106003861D01*
X166766047Y-105846719D02*
X166857714Y-105951480D01*
X166261881Y-106527671D02*
X166347000Y-106684814D01*
X166347000Y-106684814D02*
X166471404Y-106946719D01*
X166019619Y-105951480D02*
X166491047Y-105951480D01*
X166491047Y-105951480D02*
X166399381Y-106265766D01*
X166399381Y-106265766D02*
X166274976Y-106422909D01*
X166274976Y-106422909D02*
X166144023Y-106632433D01*
X166144023Y-106632433D02*
X166019619Y-106789576D01*
X166019619Y-106789576D02*
X165842833Y-106946719D01*
D11*
X197604142Y-100784819D02*
X197270809Y-100308628D01*
X197032714Y-100784819D02*
X197032714Y-99784819D01*
X197032714Y-99784819D02*
X197413666Y-99784819D01*
X197413666Y-99784819D02*
X197508904Y-99832438D01*
X197508904Y-99832438D02*
X197556523Y-99880057D01*
X197556523Y-99880057D02*
X197604142Y-99975295D01*
X197604142Y-99975295D02*
X197604142Y-100118152D01*
X197604142Y-100118152D02*
X197556523Y-100213390D01*
X197556523Y-100213390D02*
X197508904Y-100261009D01*
X197508904Y-100261009D02*
X197413666Y-100308628D01*
X197413666Y-100308628D02*
X197032714Y-100308628D01*
X198556523Y-100784819D02*
X197985095Y-100784819D01*
X198270809Y-100784819D02*
X198270809Y-99784819D01*
X198270809Y-99784819D02*
X198175571Y-99927676D01*
X198175571Y-99927676D02*
X198080333Y-100022914D01*
X198080333Y-100022914D02*
X197985095Y-100070533D01*
X199413666Y-100118152D02*
X199413666Y-100784819D01*
X199175571Y-99737200D02*
X198937476Y-100451485D01*
X198937476Y-100451485D02*
X199556523Y-100451485D01*
X215973819Y-102369857D02*
X215497628Y-102703190D01*
X215973819Y-102941285D02*
X214973819Y-102941285D01*
X214973819Y-102941285D02*
X214973819Y-102560333D01*
X214973819Y-102560333D02*
X215021438Y-102465095D01*
X215021438Y-102465095D02*
X215069057Y-102417476D01*
X215069057Y-102417476D02*
X215164295Y-102369857D01*
X215164295Y-102369857D02*
X215307152Y-102369857D01*
X215307152Y-102369857D02*
X215402390Y-102417476D01*
X215402390Y-102417476D02*
X215450009Y-102465095D01*
X215450009Y-102465095D02*
X215497628Y-102560333D01*
X215497628Y-102560333D02*
X215497628Y-102941285D01*
X215973819Y-101417476D02*
X215973819Y-101988904D01*
X215973819Y-101703190D02*
X214973819Y-101703190D01*
X214973819Y-101703190D02*
X215116676Y-101798428D01*
X215116676Y-101798428D02*
X215211914Y-101893666D01*
X215211914Y-101893666D02*
X215259533Y-101988904D01*
X214973819Y-101084142D02*
X214973819Y-100465095D01*
X214973819Y-100465095D02*
X215354771Y-100798428D01*
X215354771Y-100798428D02*
X215354771Y-100655571D01*
X215354771Y-100655571D02*
X215402390Y-100560333D01*
X215402390Y-100560333D02*
X215450009Y-100512714D01*
X215450009Y-100512714D02*
X215545247Y-100465095D01*
X215545247Y-100465095D02*
X215783342Y-100465095D01*
X215783342Y-100465095D02*
X215878580Y-100512714D01*
X215878580Y-100512714D02*
X215926200Y-100560333D01*
X215926200Y-100560333D02*
X215973819Y-100655571D01*
X215973819Y-100655571D02*
X215973819Y-100941285D01*
X215973819Y-100941285D02*
X215926200Y-101036523D01*
X215926200Y-101036523D02*
X215878580Y-101084142D01*
X210150642Y-104246819D02*
X209817309Y-103770628D01*
X209579214Y-104246819D02*
X209579214Y-103246819D01*
X209579214Y-103246819D02*
X209960166Y-103246819D01*
X209960166Y-103246819D02*
X210055404Y-103294438D01*
X210055404Y-103294438D02*
X210103023Y-103342057D01*
X210103023Y-103342057D02*
X210150642Y-103437295D01*
X210150642Y-103437295D02*
X210150642Y-103580152D01*
X210150642Y-103580152D02*
X210103023Y-103675390D01*
X210103023Y-103675390D02*
X210055404Y-103723009D01*
X210055404Y-103723009D02*
X209960166Y-103770628D01*
X209960166Y-103770628D02*
X209579214Y-103770628D01*
X211103023Y-104246819D02*
X210531595Y-104246819D01*
X210817309Y-104246819D02*
X210817309Y-103246819D01*
X210817309Y-103246819D02*
X210722071Y-103389676D01*
X210722071Y-103389676D02*
X210626833Y-103484914D01*
X210626833Y-103484914D02*
X210531595Y-103532533D01*
X211483976Y-103342057D02*
X211531595Y-103294438D01*
X211531595Y-103294438D02*
X211626833Y-103246819D01*
X211626833Y-103246819D02*
X211864928Y-103246819D01*
X211864928Y-103246819D02*
X211960166Y-103294438D01*
X211960166Y-103294438D02*
X212007785Y-103342057D01*
X212007785Y-103342057D02*
X212055404Y-103437295D01*
X212055404Y-103437295D02*
X212055404Y-103532533D01*
X212055404Y-103532533D02*
X212007785Y-103675390D01*
X212007785Y-103675390D02*
X211436357Y-104246819D01*
X211436357Y-104246819D02*
X212055404Y-104246819D01*
X165655666Y-111595819D02*
X165655666Y-112310104D01*
X165655666Y-112310104D02*
X165608047Y-112452961D01*
X165608047Y-112452961D02*
X165512809Y-112548200D01*
X165512809Y-112548200D02*
X165369952Y-112595819D01*
X165369952Y-112595819D02*
X165274714Y-112595819D01*
X166608047Y-111595819D02*
X166131857Y-111595819D01*
X166131857Y-111595819D02*
X166084238Y-112072009D01*
X166084238Y-112072009D02*
X166131857Y-112024390D01*
X166131857Y-112024390D02*
X166227095Y-111976771D01*
X166227095Y-111976771D02*
X166465190Y-111976771D01*
X166465190Y-111976771D02*
X166560428Y-112024390D01*
X166560428Y-112024390D02*
X166608047Y-112072009D01*
X166608047Y-112072009D02*
X166655666Y-112167247D01*
X166655666Y-112167247D02*
X166655666Y-112405342D01*
X166655666Y-112405342D02*
X166608047Y-112500580D01*
X166608047Y-112500580D02*
X166560428Y-112548200D01*
X166560428Y-112548200D02*
X166465190Y-112595819D01*
X166465190Y-112595819D02*
X166227095Y-112595819D01*
X166227095Y-112595819D02*
X166131857Y-112548200D01*
X166131857Y-112548200D02*
X166084238Y-112500580D01*
X163133333Y-109354819D02*
X162800000Y-108878628D01*
X162561905Y-109354819D02*
X162561905Y-108354819D01*
X162561905Y-108354819D02*
X162942857Y-108354819D01*
X162942857Y-108354819D02*
X163038095Y-108402438D01*
X163038095Y-108402438D02*
X163085714Y-108450057D01*
X163085714Y-108450057D02*
X163133333Y-108545295D01*
X163133333Y-108545295D02*
X163133333Y-108688152D01*
X163133333Y-108688152D02*
X163085714Y-108783390D01*
X163085714Y-108783390D02*
X163038095Y-108831009D01*
X163038095Y-108831009D02*
X162942857Y-108878628D01*
X162942857Y-108878628D02*
X162561905Y-108878628D01*
X164085714Y-109354819D02*
X163514286Y-109354819D01*
X163800000Y-109354819D02*
X163800000Y-108354819D01*
X163800000Y-108354819D02*
X163704762Y-108497676D01*
X163704762Y-108497676D02*
X163609524Y-108592914D01*
X163609524Y-108592914D02*
X163514286Y-108640533D01*
X209603333Y-114464819D02*
X209270000Y-113988628D01*
X209031905Y-114464819D02*
X209031905Y-113464819D01*
X209031905Y-113464819D02*
X209412857Y-113464819D01*
X209412857Y-113464819D02*
X209508095Y-113512438D01*
X209508095Y-113512438D02*
X209555714Y-113560057D01*
X209555714Y-113560057D02*
X209603333Y-113655295D01*
X209603333Y-113655295D02*
X209603333Y-113798152D01*
X209603333Y-113798152D02*
X209555714Y-113893390D01*
X209555714Y-113893390D02*
X209508095Y-113941009D01*
X209508095Y-113941009D02*
X209412857Y-113988628D01*
X209412857Y-113988628D02*
X209031905Y-113988628D01*
X210460476Y-113798152D02*
X210460476Y-114464819D01*
X210222381Y-113417200D02*
X209984286Y-114131485D01*
X209984286Y-114131485D02*
X210603333Y-114131485D01*
X215375533Y-110954819D02*
X215042200Y-110478628D01*
X214804105Y-110954819D02*
X214804105Y-109954819D01*
X214804105Y-109954819D02*
X215185057Y-109954819D01*
X215185057Y-109954819D02*
X215280295Y-110002438D01*
X215280295Y-110002438D02*
X215327914Y-110050057D01*
X215327914Y-110050057D02*
X215375533Y-110145295D01*
X215375533Y-110145295D02*
X215375533Y-110288152D01*
X215375533Y-110288152D02*
X215327914Y-110383390D01*
X215327914Y-110383390D02*
X215280295Y-110431009D01*
X215280295Y-110431009D02*
X215185057Y-110478628D01*
X215185057Y-110478628D02*
X214804105Y-110478628D01*
X215708867Y-109954819D02*
X216375533Y-109954819D01*
X216375533Y-109954819D02*
X215946962Y-110954819D01*
X202829580Y-118766666D02*
X202877200Y-118814285D01*
X202877200Y-118814285D02*
X202924819Y-118957142D01*
X202924819Y-118957142D02*
X202924819Y-119052380D01*
X202924819Y-119052380D02*
X202877200Y-119195237D01*
X202877200Y-119195237D02*
X202781961Y-119290475D01*
X202781961Y-119290475D02*
X202686723Y-119338094D01*
X202686723Y-119338094D02*
X202496247Y-119385713D01*
X202496247Y-119385713D02*
X202353390Y-119385713D01*
X202353390Y-119385713D02*
X202162914Y-119338094D01*
X202162914Y-119338094D02*
X202067676Y-119290475D01*
X202067676Y-119290475D02*
X201972438Y-119195237D01*
X201972438Y-119195237D02*
X201924819Y-119052380D01*
X201924819Y-119052380D02*
X201924819Y-118957142D01*
X201924819Y-118957142D02*
X201972438Y-118814285D01*
X201972438Y-118814285D02*
X202020057Y-118766666D01*
X201924819Y-117909523D02*
X201924819Y-118099999D01*
X201924819Y-118099999D02*
X201972438Y-118195237D01*
X201972438Y-118195237D02*
X202020057Y-118242856D01*
X202020057Y-118242856D02*
X202162914Y-118338094D01*
X202162914Y-118338094D02*
X202353390Y-118385713D01*
X202353390Y-118385713D02*
X202734342Y-118385713D01*
X202734342Y-118385713D02*
X202829580Y-118338094D01*
X202829580Y-118338094D02*
X202877200Y-118290475D01*
X202877200Y-118290475D02*
X202924819Y-118195237D01*
X202924819Y-118195237D02*
X202924819Y-118004761D01*
X202924819Y-118004761D02*
X202877200Y-117909523D01*
X202877200Y-117909523D02*
X202829580Y-117861904D01*
X202829580Y-117861904D02*
X202734342Y-117814285D01*
X202734342Y-117814285D02*
X202496247Y-117814285D01*
X202496247Y-117814285D02*
X202401009Y-117861904D01*
X202401009Y-117861904D02*
X202353390Y-117909523D01*
X202353390Y-117909523D02*
X202305771Y-118004761D01*
X202305771Y-118004761D02*
X202305771Y-118195237D01*
X202305771Y-118195237D02*
X202353390Y-118290475D01*
X202353390Y-118290475D02*
X202401009Y-118338094D01*
X202401009Y-118338094D02*
X202496247Y-118385713D01*
X216657142Y-109254819D02*
X216323809Y-108778628D01*
X216085714Y-109254819D02*
X216085714Y-108254819D01*
X216085714Y-108254819D02*
X216466666Y-108254819D01*
X216466666Y-108254819D02*
X216561904Y-108302438D01*
X216561904Y-108302438D02*
X216609523Y-108350057D01*
X216609523Y-108350057D02*
X216657142Y-108445295D01*
X216657142Y-108445295D02*
X216657142Y-108588152D01*
X216657142Y-108588152D02*
X216609523Y-108683390D01*
X216609523Y-108683390D02*
X216561904Y-108731009D01*
X216561904Y-108731009D02*
X216466666Y-108778628D01*
X216466666Y-108778628D02*
X216085714Y-108778628D01*
X217609523Y-109254819D02*
X217038095Y-109254819D01*
X217323809Y-109254819D02*
X217323809Y-108254819D01*
X217323809Y-108254819D02*
X217228571Y-108397676D01*
X217228571Y-108397676D02*
X217133333Y-108492914D01*
X217133333Y-108492914D02*
X217038095Y-108540533D01*
X218561904Y-109254819D02*
X217990476Y-109254819D01*
X218276190Y-109254819D02*
X218276190Y-108254819D01*
X218276190Y-108254819D02*
X218180952Y-108397676D01*
X218180952Y-108397676D02*
X218085714Y-108492914D01*
X218085714Y-108492914D02*
X217990476Y-108540533D01*
X209603333Y-119375819D02*
X209270000Y-118899628D01*
X209031905Y-119375819D02*
X209031905Y-118375819D01*
X209031905Y-118375819D02*
X209412857Y-118375819D01*
X209412857Y-118375819D02*
X209508095Y-118423438D01*
X209508095Y-118423438D02*
X209555714Y-118471057D01*
X209555714Y-118471057D02*
X209603333Y-118566295D01*
X209603333Y-118566295D02*
X209603333Y-118709152D01*
X209603333Y-118709152D02*
X209555714Y-118804390D01*
X209555714Y-118804390D02*
X209508095Y-118852009D01*
X209508095Y-118852009D02*
X209412857Y-118899628D01*
X209412857Y-118899628D02*
X209031905Y-118899628D01*
X209936667Y-118375819D02*
X210555714Y-118375819D01*
X210555714Y-118375819D02*
X210222381Y-118756771D01*
X210222381Y-118756771D02*
X210365238Y-118756771D01*
X210365238Y-118756771D02*
X210460476Y-118804390D01*
X210460476Y-118804390D02*
X210508095Y-118852009D01*
X210508095Y-118852009D02*
X210555714Y-118947247D01*
X210555714Y-118947247D02*
X210555714Y-119185342D01*
X210555714Y-119185342D02*
X210508095Y-119280580D01*
X210508095Y-119280580D02*
X210460476Y-119328200D01*
X210460476Y-119328200D02*
X210365238Y-119375819D01*
X210365238Y-119375819D02*
X210079524Y-119375819D01*
X210079524Y-119375819D02*
X209984286Y-119328200D01*
X209984286Y-119328200D02*
X209936667Y-119280580D01*
X211753333Y-115604819D02*
X211420000Y-115128628D01*
X211181905Y-115604819D02*
X211181905Y-114604819D01*
X211181905Y-114604819D02*
X211562857Y-114604819D01*
X211562857Y-114604819D02*
X211658095Y-114652438D01*
X211658095Y-114652438D02*
X211705714Y-114700057D01*
X211705714Y-114700057D02*
X211753333Y-114795295D01*
X211753333Y-114795295D02*
X211753333Y-114938152D01*
X211753333Y-114938152D02*
X211705714Y-115033390D01*
X211705714Y-115033390D02*
X211658095Y-115081009D01*
X211658095Y-115081009D02*
X211562857Y-115128628D01*
X211562857Y-115128628D02*
X211181905Y-115128628D01*
X212134286Y-114700057D02*
X212181905Y-114652438D01*
X212181905Y-114652438D02*
X212277143Y-114604819D01*
X212277143Y-114604819D02*
X212515238Y-114604819D01*
X212515238Y-114604819D02*
X212610476Y-114652438D01*
X212610476Y-114652438D02*
X212658095Y-114700057D01*
X212658095Y-114700057D02*
X212705714Y-114795295D01*
X212705714Y-114795295D02*
X212705714Y-114890533D01*
X212705714Y-114890533D02*
X212658095Y-115033390D01*
X212658095Y-115033390D02*
X212086667Y-115604819D01*
X212086667Y-115604819D02*
X212705714Y-115604819D01*
X188666666Y-108454819D02*
X188666666Y-109169104D01*
X188666666Y-109169104D02*
X188619047Y-109311961D01*
X188619047Y-109311961D02*
X188523809Y-109407200D01*
X188523809Y-109407200D02*
X188380952Y-109454819D01*
X188380952Y-109454819D02*
X188285714Y-109454819D01*
X189666666Y-109454819D02*
X189095238Y-109454819D01*
X189380952Y-109454819D02*
X189380952Y-108454819D01*
X189380952Y-108454819D02*
X189285714Y-108597676D01*
X189285714Y-108597676D02*
X189190476Y-108692914D01*
X189190476Y-108692914D02*
X189095238Y-108740533D01*
X167666666Y-109704819D02*
X167666666Y-110419104D01*
X167666666Y-110419104D02*
X167619047Y-110561961D01*
X167619047Y-110561961D02*
X167523809Y-110657200D01*
X167523809Y-110657200D02*
X167380952Y-110704819D01*
X167380952Y-110704819D02*
X167285714Y-110704819D01*
X168047619Y-109704819D02*
X168666666Y-109704819D01*
X168666666Y-109704819D02*
X168333333Y-110085771D01*
X168333333Y-110085771D02*
X168476190Y-110085771D01*
X168476190Y-110085771D02*
X168571428Y-110133390D01*
X168571428Y-110133390D02*
X168619047Y-110181009D01*
X168619047Y-110181009D02*
X168666666Y-110276247D01*
X168666666Y-110276247D02*
X168666666Y-110514342D01*
X168666666Y-110514342D02*
X168619047Y-110609580D01*
X168619047Y-110609580D02*
X168571428Y-110657200D01*
X168571428Y-110657200D02*
X168476190Y-110704819D01*
X168476190Y-110704819D02*
X168190476Y-110704819D01*
X168190476Y-110704819D02*
X168095238Y-110657200D01*
X168095238Y-110657200D02*
X168047619Y-110609580D01*
X179766666Y-109554819D02*
X179766666Y-110269104D01*
X179766666Y-110269104D02*
X179719047Y-110411961D01*
X179719047Y-110411961D02*
X179623809Y-110507200D01*
X179623809Y-110507200D02*
X179480952Y-110554819D01*
X179480952Y-110554819D02*
X179385714Y-110554819D01*
X180195238Y-109650057D02*
X180242857Y-109602438D01*
X180242857Y-109602438D02*
X180338095Y-109554819D01*
X180338095Y-109554819D02*
X180576190Y-109554819D01*
X180576190Y-109554819D02*
X180671428Y-109602438D01*
X180671428Y-109602438D02*
X180719047Y-109650057D01*
X180719047Y-109650057D02*
X180766666Y-109745295D01*
X180766666Y-109745295D02*
X180766666Y-109840533D01*
X180766666Y-109840533D02*
X180719047Y-109983390D01*
X180719047Y-109983390D02*
X180147619Y-110554819D01*
X180147619Y-110554819D02*
X180766666Y-110554819D01*
X201967261Y-111150057D02*
X201872023Y-111102438D01*
X201872023Y-111102438D02*
X201776785Y-111007200D01*
X201776785Y-111007200D02*
X201633928Y-110864342D01*
X201633928Y-110864342D02*
X201538690Y-110816723D01*
X201538690Y-110816723D02*
X201443452Y-110816723D01*
X201491071Y-111054819D02*
X201395833Y-111007200D01*
X201395833Y-111007200D02*
X201300595Y-110911961D01*
X201300595Y-110911961D02*
X201252976Y-110721485D01*
X201252976Y-110721485D02*
X201252976Y-110388152D01*
X201252976Y-110388152D02*
X201300595Y-110197676D01*
X201300595Y-110197676D02*
X201395833Y-110102438D01*
X201395833Y-110102438D02*
X201491071Y-110054819D01*
X201491071Y-110054819D02*
X201681547Y-110054819D01*
X201681547Y-110054819D02*
X201776785Y-110102438D01*
X201776785Y-110102438D02*
X201872023Y-110197676D01*
X201872023Y-110197676D02*
X201919642Y-110388152D01*
X201919642Y-110388152D02*
X201919642Y-110721485D01*
X201919642Y-110721485D02*
X201872023Y-110911961D01*
X201872023Y-110911961D02*
X201776785Y-111007200D01*
X201776785Y-111007200D02*
X201681547Y-111054819D01*
X201681547Y-111054819D02*
X201491071Y-111054819D01*
X202776785Y-110388152D02*
X202776785Y-111054819D01*
X202538690Y-110007200D02*
X202300595Y-110721485D01*
X202300595Y-110721485D02*
X202919642Y-110721485D01*
X167666666Y-111454819D02*
X167666666Y-112169104D01*
X167666666Y-112169104D02*
X167619047Y-112311961D01*
X167619047Y-112311961D02*
X167523809Y-112407200D01*
X167523809Y-112407200D02*
X167380952Y-112454819D01*
X167380952Y-112454819D02*
X167285714Y-112454819D01*
X168047619Y-111454819D02*
X168714285Y-111454819D01*
X168714285Y-111454819D02*
X168285714Y-112454819D01*
X182041666Y-111654819D02*
X182041666Y-112369104D01*
X182041666Y-112369104D02*
X181994047Y-112511961D01*
X181994047Y-112511961D02*
X181898809Y-112607200D01*
X181898809Y-112607200D02*
X181755952Y-112654819D01*
X181755952Y-112654819D02*
X181660714Y-112654819D01*
X182660714Y-112083390D02*
X182565476Y-112035771D01*
X182565476Y-112035771D02*
X182517857Y-111988152D01*
X182517857Y-111988152D02*
X182470238Y-111892914D01*
X182470238Y-111892914D02*
X182470238Y-111845295D01*
X182470238Y-111845295D02*
X182517857Y-111750057D01*
X182517857Y-111750057D02*
X182565476Y-111702438D01*
X182565476Y-111702438D02*
X182660714Y-111654819D01*
X182660714Y-111654819D02*
X182851190Y-111654819D01*
X182851190Y-111654819D02*
X182946428Y-111702438D01*
X182946428Y-111702438D02*
X182994047Y-111750057D01*
X182994047Y-111750057D02*
X183041666Y-111845295D01*
X183041666Y-111845295D02*
X183041666Y-111892914D01*
X183041666Y-111892914D02*
X182994047Y-111988152D01*
X182994047Y-111988152D02*
X182946428Y-112035771D01*
X182946428Y-112035771D02*
X182851190Y-112083390D01*
X182851190Y-112083390D02*
X182660714Y-112083390D01*
X182660714Y-112083390D02*
X182565476Y-112131009D01*
X182565476Y-112131009D02*
X182517857Y-112178628D01*
X182517857Y-112178628D02*
X182470238Y-112273866D01*
X182470238Y-112273866D02*
X182470238Y-112464342D01*
X182470238Y-112464342D02*
X182517857Y-112559580D01*
X182517857Y-112559580D02*
X182565476Y-112607200D01*
X182565476Y-112607200D02*
X182660714Y-112654819D01*
X182660714Y-112654819D02*
X182851190Y-112654819D01*
X182851190Y-112654819D02*
X182946428Y-112607200D01*
X182946428Y-112607200D02*
X182994047Y-112559580D01*
X182994047Y-112559580D02*
X183041666Y-112464342D01*
X183041666Y-112464342D02*
X183041666Y-112273866D01*
X183041666Y-112273866D02*
X182994047Y-112178628D01*
X182994047Y-112178628D02*
X182946428Y-112131009D01*
X182946428Y-112131009D02*
X182851190Y-112083390D01*
X217557142Y-103144819D02*
X217223809Y-102668628D01*
X216985714Y-103144819D02*
X216985714Y-102144819D01*
X216985714Y-102144819D02*
X217366666Y-102144819D01*
X217366666Y-102144819D02*
X217461904Y-102192438D01*
X217461904Y-102192438D02*
X217509523Y-102240057D01*
X217509523Y-102240057D02*
X217557142Y-102335295D01*
X217557142Y-102335295D02*
X217557142Y-102478152D01*
X217557142Y-102478152D02*
X217509523Y-102573390D01*
X217509523Y-102573390D02*
X217461904Y-102621009D01*
X217461904Y-102621009D02*
X217366666Y-102668628D01*
X217366666Y-102668628D02*
X216985714Y-102668628D01*
X218509523Y-103144819D02*
X217938095Y-103144819D01*
X218223809Y-103144819D02*
X218223809Y-102144819D01*
X218223809Y-102144819D02*
X218128571Y-102287676D01*
X218128571Y-102287676D02*
X218033333Y-102382914D01*
X218033333Y-102382914D02*
X217938095Y-102430533D01*
X219128571Y-102144819D02*
X219223809Y-102144819D01*
X219223809Y-102144819D02*
X219319047Y-102192438D01*
X219319047Y-102192438D02*
X219366666Y-102240057D01*
X219366666Y-102240057D02*
X219414285Y-102335295D01*
X219414285Y-102335295D02*
X219461904Y-102525771D01*
X219461904Y-102525771D02*
X219461904Y-102763866D01*
X219461904Y-102763866D02*
X219414285Y-102954342D01*
X219414285Y-102954342D02*
X219366666Y-103049580D01*
X219366666Y-103049580D02*
X219319047Y-103097200D01*
X219319047Y-103097200D02*
X219223809Y-103144819D01*
X219223809Y-103144819D02*
X219128571Y-103144819D01*
X219128571Y-103144819D02*
X219033333Y-103097200D01*
X219033333Y-103097200D02*
X218985714Y-103049580D01*
X218985714Y-103049580D02*
X218938095Y-102954342D01*
X218938095Y-102954342D02*
X218890476Y-102763866D01*
X218890476Y-102763866D02*
X218890476Y-102525771D01*
X218890476Y-102525771D02*
X218938095Y-102335295D01*
X218938095Y-102335295D02*
X218985714Y-102240057D01*
X218985714Y-102240057D02*
X219033333Y-102192438D01*
X219033333Y-102192438D02*
X219128571Y-102144819D01*
X209603333Y-116115819D02*
X209270000Y-115639628D01*
X209031905Y-116115819D02*
X209031905Y-115115819D01*
X209031905Y-115115819D02*
X209412857Y-115115819D01*
X209412857Y-115115819D02*
X209508095Y-115163438D01*
X209508095Y-115163438D02*
X209555714Y-115211057D01*
X209555714Y-115211057D02*
X209603333Y-115306295D01*
X209603333Y-115306295D02*
X209603333Y-115449152D01*
X209603333Y-115449152D02*
X209555714Y-115544390D01*
X209555714Y-115544390D02*
X209508095Y-115592009D01*
X209508095Y-115592009D02*
X209412857Y-115639628D01*
X209412857Y-115639628D02*
X209031905Y-115639628D01*
X210508095Y-115115819D02*
X210031905Y-115115819D01*
X210031905Y-115115819D02*
X209984286Y-115592009D01*
X209984286Y-115592009D02*
X210031905Y-115544390D01*
X210031905Y-115544390D02*
X210127143Y-115496771D01*
X210127143Y-115496771D02*
X210365238Y-115496771D01*
X210365238Y-115496771D02*
X210460476Y-115544390D01*
X210460476Y-115544390D02*
X210508095Y-115592009D01*
X210508095Y-115592009D02*
X210555714Y-115687247D01*
X210555714Y-115687247D02*
X210555714Y-115925342D01*
X210555714Y-115925342D02*
X210508095Y-116020580D01*
X210508095Y-116020580D02*
X210460476Y-116068200D01*
X210460476Y-116068200D02*
X210365238Y-116115819D01*
X210365238Y-116115819D02*
X210127143Y-116115819D01*
X210127143Y-116115819D02*
X210031905Y-116068200D01*
X210031905Y-116068200D02*
X209984286Y-116020580D01*
X198133333Y-112259580D02*
X198085714Y-112307200D01*
X198085714Y-112307200D02*
X197942857Y-112354819D01*
X197942857Y-112354819D02*
X197847619Y-112354819D01*
X197847619Y-112354819D02*
X197704762Y-112307200D01*
X197704762Y-112307200D02*
X197609524Y-112211961D01*
X197609524Y-112211961D02*
X197561905Y-112116723D01*
X197561905Y-112116723D02*
X197514286Y-111926247D01*
X197514286Y-111926247D02*
X197514286Y-111783390D01*
X197514286Y-111783390D02*
X197561905Y-111592914D01*
X197561905Y-111592914D02*
X197609524Y-111497676D01*
X197609524Y-111497676D02*
X197704762Y-111402438D01*
X197704762Y-111402438D02*
X197847619Y-111354819D01*
X197847619Y-111354819D02*
X197942857Y-111354819D01*
X197942857Y-111354819D02*
X198085714Y-111402438D01*
X198085714Y-111402438D02*
X198133333Y-111450057D01*
X199038095Y-111354819D02*
X198561905Y-111354819D01*
X198561905Y-111354819D02*
X198514286Y-111831009D01*
X198514286Y-111831009D02*
X198561905Y-111783390D01*
X198561905Y-111783390D02*
X198657143Y-111735771D01*
X198657143Y-111735771D02*
X198895238Y-111735771D01*
X198895238Y-111735771D02*
X198990476Y-111783390D01*
X198990476Y-111783390D02*
X199038095Y-111831009D01*
X199038095Y-111831009D02*
X199085714Y-111926247D01*
X199085714Y-111926247D02*
X199085714Y-112164342D01*
X199085714Y-112164342D02*
X199038095Y-112259580D01*
X199038095Y-112259580D02*
X198990476Y-112307200D01*
X198990476Y-112307200D02*
X198895238Y-112354819D01*
X198895238Y-112354819D02*
X198657143Y-112354819D01*
X198657143Y-112354819D02*
X198561905Y-112307200D01*
X198561905Y-112307200D02*
X198514286Y-112259580D01*
X202304761Y-116150057D02*
X202209523Y-116102438D01*
X202209523Y-116102438D02*
X202114285Y-116007200D01*
X202114285Y-116007200D02*
X201971428Y-115864342D01*
X201971428Y-115864342D02*
X201876190Y-115816723D01*
X201876190Y-115816723D02*
X201780952Y-115816723D01*
X201828571Y-116054819D02*
X201733333Y-116007200D01*
X201733333Y-116007200D02*
X201638095Y-115911961D01*
X201638095Y-115911961D02*
X201590476Y-115721485D01*
X201590476Y-115721485D02*
X201590476Y-115388152D01*
X201590476Y-115388152D02*
X201638095Y-115197676D01*
X201638095Y-115197676D02*
X201733333Y-115102438D01*
X201733333Y-115102438D02*
X201828571Y-115054819D01*
X201828571Y-115054819D02*
X202019047Y-115054819D01*
X202019047Y-115054819D02*
X202114285Y-115102438D01*
X202114285Y-115102438D02*
X202209523Y-115197676D01*
X202209523Y-115197676D02*
X202257142Y-115388152D01*
X202257142Y-115388152D02*
X202257142Y-115721485D01*
X202257142Y-115721485D02*
X202209523Y-115911961D01*
X202209523Y-115911961D02*
X202114285Y-116007200D01*
X202114285Y-116007200D02*
X202019047Y-116054819D01*
X202019047Y-116054819D02*
X201828571Y-116054819D01*
X203209523Y-116054819D02*
X202638095Y-116054819D01*
X202923809Y-116054819D02*
X202923809Y-115054819D01*
X202923809Y-115054819D02*
X202828571Y-115197676D01*
X202828571Y-115197676D02*
X202733333Y-115292914D01*
X202733333Y-115292914D02*
X202638095Y-115340533D01*
X198195833Y-107179580D02*
X198148214Y-107227200D01*
X198148214Y-107227200D02*
X198005357Y-107274819D01*
X198005357Y-107274819D02*
X197910119Y-107274819D01*
X197910119Y-107274819D02*
X197767262Y-107227200D01*
X197767262Y-107227200D02*
X197672024Y-107131961D01*
X197672024Y-107131961D02*
X197624405Y-107036723D01*
X197624405Y-107036723D02*
X197576786Y-106846247D01*
X197576786Y-106846247D02*
X197576786Y-106703390D01*
X197576786Y-106703390D02*
X197624405Y-106512914D01*
X197624405Y-106512914D02*
X197672024Y-106417676D01*
X197672024Y-106417676D02*
X197767262Y-106322438D01*
X197767262Y-106322438D02*
X197910119Y-106274819D01*
X197910119Y-106274819D02*
X198005357Y-106274819D01*
X198005357Y-106274819D02*
X198148214Y-106322438D01*
X198148214Y-106322438D02*
X198195833Y-106370057D01*
X198529167Y-106274819D02*
X199148214Y-106274819D01*
X199148214Y-106274819D02*
X198814881Y-106655771D01*
X198814881Y-106655771D02*
X198957738Y-106655771D01*
X198957738Y-106655771D02*
X199052976Y-106703390D01*
X199052976Y-106703390D02*
X199100595Y-106751009D01*
X199100595Y-106751009D02*
X199148214Y-106846247D01*
X199148214Y-106846247D02*
X199148214Y-107084342D01*
X199148214Y-107084342D02*
X199100595Y-107179580D01*
X199100595Y-107179580D02*
X199052976Y-107227200D01*
X199052976Y-107227200D02*
X198957738Y-107274819D01*
X198957738Y-107274819D02*
X198672024Y-107274819D01*
X198672024Y-107274819D02*
X198576786Y-107227200D01*
X198576786Y-107227200D02*
X198529167Y-107179580D01*
X218033333Y-105854819D02*
X217700000Y-105378628D01*
X217461905Y-105854819D02*
X217461905Y-104854819D01*
X217461905Y-104854819D02*
X217842857Y-104854819D01*
X217842857Y-104854819D02*
X217938095Y-104902438D01*
X217938095Y-104902438D02*
X217985714Y-104950057D01*
X217985714Y-104950057D02*
X218033333Y-105045295D01*
X218033333Y-105045295D02*
X218033333Y-105188152D01*
X218033333Y-105188152D02*
X217985714Y-105283390D01*
X217985714Y-105283390D02*
X217938095Y-105331009D01*
X217938095Y-105331009D02*
X217842857Y-105378628D01*
X217842857Y-105378628D02*
X217461905Y-105378628D01*
X218509524Y-105854819D02*
X218700000Y-105854819D01*
X218700000Y-105854819D02*
X218795238Y-105807200D01*
X218795238Y-105807200D02*
X218842857Y-105759580D01*
X218842857Y-105759580D02*
X218938095Y-105616723D01*
X218938095Y-105616723D02*
X218985714Y-105426247D01*
X218985714Y-105426247D02*
X218985714Y-105045295D01*
X218985714Y-105045295D02*
X218938095Y-104950057D01*
X218938095Y-104950057D02*
X218890476Y-104902438D01*
X218890476Y-104902438D02*
X218795238Y-104854819D01*
X218795238Y-104854819D02*
X218604762Y-104854819D01*
X218604762Y-104854819D02*
X218509524Y-104902438D01*
X218509524Y-104902438D02*
X218461905Y-104950057D01*
X218461905Y-104950057D02*
X218414286Y-105045295D01*
X218414286Y-105045295D02*
X218414286Y-105283390D01*
X218414286Y-105283390D02*
X218461905Y-105378628D01*
X218461905Y-105378628D02*
X218509524Y-105426247D01*
X218509524Y-105426247D02*
X218604762Y-105473866D01*
X218604762Y-105473866D02*
X218795238Y-105473866D01*
X218795238Y-105473866D02*
X218890476Y-105426247D01*
X218890476Y-105426247D02*
X218938095Y-105378628D01*
X218938095Y-105378628D02*
X218985714Y-105283390D01*
X160683333Y-109259580D02*
X160635714Y-109307200D01*
X160635714Y-109307200D02*
X160492857Y-109354819D01*
X160492857Y-109354819D02*
X160397619Y-109354819D01*
X160397619Y-109354819D02*
X160254762Y-109307200D01*
X160254762Y-109307200D02*
X160159524Y-109211961D01*
X160159524Y-109211961D02*
X160111905Y-109116723D01*
X160111905Y-109116723D02*
X160064286Y-108926247D01*
X160064286Y-108926247D02*
X160064286Y-108783390D01*
X160064286Y-108783390D02*
X160111905Y-108592914D01*
X160111905Y-108592914D02*
X160159524Y-108497676D01*
X160159524Y-108497676D02*
X160254762Y-108402438D01*
X160254762Y-108402438D02*
X160397619Y-108354819D01*
X160397619Y-108354819D02*
X160492857Y-108354819D01*
X160492857Y-108354819D02*
X160635714Y-108402438D01*
X160635714Y-108402438D02*
X160683333Y-108450057D01*
X161635714Y-109354819D02*
X161064286Y-109354819D01*
X161350000Y-109354819D02*
X161350000Y-108354819D01*
X161350000Y-108354819D02*
X161254762Y-108497676D01*
X161254762Y-108497676D02*
X161159524Y-108592914D01*
X161159524Y-108592914D02*
X161064286Y-108640533D01*
X179766666Y-111722819D02*
X179766666Y-112437104D01*
X179766666Y-112437104D02*
X179719047Y-112579961D01*
X179719047Y-112579961D02*
X179623809Y-112675200D01*
X179623809Y-112675200D02*
X179480952Y-112722819D01*
X179480952Y-112722819D02*
X179385714Y-112722819D01*
X180671428Y-111722819D02*
X180480952Y-111722819D01*
X180480952Y-111722819D02*
X180385714Y-111770438D01*
X180385714Y-111770438D02*
X180338095Y-111818057D01*
X180338095Y-111818057D02*
X180242857Y-111960914D01*
X180242857Y-111960914D02*
X180195238Y-112151390D01*
X180195238Y-112151390D02*
X180195238Y-112532342D01*
X180195238Y-112532342D02*
X180242857Y-112627580D01*
X180242857Y-112627580D02*
X180290476Y-112675200D01*
X180290476Y-112675200D02*
X180385714Y-112722819D01*
X180385714Y-112722819D02*
X180576190Y-112722819D01*
X180576190Y-112722819D02*
X180671428Y-112675200D01*
X180671428Y-112675200D02*
X180719047Y-112627580D01*
X180719047Y-112627580D02*
X180766666Y-112532342D01*
X180766666Y-112532342D02*
X180766666Y-112294247D01*
X180766666Y-112294247D02*
X180719047Y-112199009D01*
X180719047Y-112199009D02*
X180671428Y-112151390D01*
X180671428Y-112151390D02*
X180576190Y-112103771D01*
X180576190Y-112103771D02*
X180385714Y-112103771D01*
X180385714Y-112103771D02*
X180290476Y-112151390D01*
X180290476Y-112151390D02*
X180242857Y-112199009D01*
X180242857Y-112199009D02*
X180195238Y-112294247D01*
X209526033Y-117826419D02*
X209192700Y-117350228D01*
X208954605Y-117826419D02*
X208954605Y-116826419D01*
X208954605Y-116826419D02*
X209335557Y-116826419D01*
X209335557Y-116826419D02*
X209430795Y-116874038D01*
X209430795Y-116874038D02*
X209478414Y-116921657D01*
X209478414Y-116921657D02*
X209526033Y-117016895D01*
X209526033Y-117016895D02*
X209526033Y-117159752D01*
X209526033Y-117159752D02*
X209478414Y-117254990D01*
X209478414Y-117254990D02*
X209430795Y-117302609D01*
X209430795Y-117302609D02*
X209335557Y-117350228D01*
X209335557Y-117350228D02*
X208954605Y-117350228D01*
X210383176Y-116826419D02*
X210192700Y-116826419D01*
X210192700Y-116826419D02*
X210097462Y-116874038D01*
X210097462Y-116874038D02*
X210049843Y-116921657D01*
X210049843Y-116921657D02*
X209954605Y-117064514D01*
X209954605Y-117064514D02*
X209906986Y-117254990D01*
X209906986Y-117254990D02*
X209906986Y-117635942D01*
X209906986Y-117635942D02*
X209954605Y-117731180D01*
X209954605Y-117731180D02*
X210002224Y-117778800D01*
X210002224Y-117778800D02*
X210097462Y-117826419D01*
X210097462Y-117826419D02*
X210287938Y-117826419D01*
X210287938Y-117826419D02*
X210383176Y-117778800D01*
X210383176Y-117778800D02*
X210430795Y-117731180D01*
X210430795Y-117731180D02*
X210478414Y-117635942D01*
X210478414Y-117635942D02*
X210478414Y-117397847D01*
X210478414Y-117397847D02*
X210430795Y-117302609D01*
X210430795Y-117302609D02*
X210383176Y-117254990D01*
X210383176Y-117254990D02*
X210287938Y-117207371D01*
X210287938Y-117207371D02*
X210097462Y-117207371D01*
X210097462Y-117207371D02*
X210002224Y-117254990D01*
X210002224Y-117254990D02*
X209954605Y-117302609D01*
X209954605Y-117302609D02*
X209906986Y-117397847D01*
X201784761Y-106320057D02*
X201689523Y-106272438D01*
X201689523Y-106272438D02*
X201594285Y-106177200D01*
X201594285Y-106177200D02*
X201451428Y-106034342D01*
X201451428Y-106034342D02*
X201356190Y-105986723D01*
X201356190Y-105986723D02*
X201260952Y-105986723D01*
X201308571Y-106224819D02*
X201213333Y-106177200D01*
X201213333Y-106177200D02*
X201118095Y-106081961D01*
X201118095Y-106081961D02*
X201070476Y-105891485D01*
X201070476Y-105891485D02*
X201070476Y-105558152D01*
X201070476Y-105558152D02*
X201118095Y-105367676D01*
X201118095Y-105367676D02*
X201213333Y-105272438D01*
X201213333Y-105272438D02*
X201308571Y-105224819D01*
X201308571Y-105224819D02*
X201499047Y-105224819D01*
X201499047Y-105224819D02*
X201594285Y-105272438D01*
X201594285Y-105272438D02*
X201689523Y-105367676D01*
X201689523Y-105367676D02*
X201737142Y-105558152D01*
X201737142Y-105558152D02*
X201737142Y-105891485D01*
X201737142Y-105891485D02*
X201689523Y-106081961D01*
X201689523Y-106081961D02*
X201594285Y-106177200D01*
X201594285Y-106177200D02*
X201499047Y-106224819D01*
X201499047Y-106224819D02*
X201308571Y-106224819D01*
X202070476Y-105224819D02*
X202689523Y-105224819D01*
X202689523Y-105224819D02*
X202356190Y-105605771D01*
X202356190Y-105605771D02*
X202499047Y-105605771D01*
X202499047Y-105605771D02*
X202594285Y-105653390D01*
X202594285Y-105653390D02*
X202641904Y-105701009D01*
X202641904Y-105701009D02*
X202689523Y-105796247D01*
X202689523Y-105796247D02*
X202689523Y-106034342D01*
X202689523Y-106034342D02*
X202641904Y-106129580D01*
X202641904Y-106129580D02*
X202594285Y-106177200D01*
X202594285Y-106177200D02*
X202499047Y-106224819D01*
X202499047Y-106224819D02*
X202213333Y-106224819D01*
X202213333Y-106224819D02*
X202118095Y-106177200D01*
X202118095Y-106177200D02*
X202070476Y-106129580D01*
X188904761Y-114550057D02*
X188809523Y-114502438D01*
X188809523Y-114502438D02*
X188714285Y-114407200D01*
X188714285Y-114407200D02*
X188571428Y-114264342D01*
X188571428Y-114264342D02*
X188476190Y-114216723D01*
X188476190Y-114216723D02*
X188380952Y-114216723D01*
X188428571Y-114454819D02*
X188333333Y-114407200D01*
X188333333Y-114407200D02*
X188238095Y-114311961D01*
X188238095Y-114311961D02*
X188190476Y-114121485D01*
X188190476Y-114121485D02*
X188190476Y-113788152D01*
X188190476Y-113788152D02*
X188238095Y-113597676D01*
X188238095Y-113597676D02*
X188333333Y-113502438D01*
X188333333Y-113502438D02*
X188428571Y-113454819D01*
X188428571Y-113454819D02*
X188619047Y-113454819D01*
X188619047Y-113454819D02*
X188714285Y-113502438D01*
X188714285Y-113502438D02*
X188809523Y-113597676D01*
X188809523Y-113597676D02*
X188857142Y-113788152D01*
X188857142Y-113788152D02*
X188857142Y-114121485D01*
X188857142Y-114121485D02*
X188809523Y-114311961D01*
X188809523Y-114311961D02*
X188714285Y-114407200D01*
X188714285Y-114407200D02*
X188619047Y-114454819D01*
X188619047Y-114454819D02*
X188428571Y-114454819D01*
X189238095Y-113550057D02*
X189285714Y-113502438D01*
X189285714Y-113502438D02*
X189380952Y-113454819D01*
X189380952Y-113454819D02*
X189619047Y-113454819D01*
X189619047Y-113454819D02*
X189714285Y-113502438D01*
X189714285Y-113502438D02*
X189761904Y-113550057D01*
X189761904Y-113550057D02*
X189809523Y-113645295D01*
X189809523Y-113645295D02*
X189809523Y-113740533D01*
X189809523Y-113740533D02*
X189761904Y-113883390D01*
X189761904Y-113883390D02*
X189190476Y-114454819D01*
X189190476Y-114454819D02*
X189809523Y-114454819D01*
X198104633Y-102256780D02*
X198057014Y-102304400D01*
X198057014Y-102304400D02*
X197914157Y-102352019D01*
X197914157Y-102352019D02*
X197818919Y-102352019D01*
X197818919Y-102352019D02*
X197676062Y-102304400D01*
X197676062Y-102304400D02*
X197580824Y-102209161D01*
X197580824Y-102209161D02*
X197533205Y-102113923D01*
X197533205Y-102113923D02*
X197485586Y-101923447D01*
X197485586Y-101923447D02*
X197485586Y-101780590D01*
X197485586Y-101780590D02*
X197533205Y-101590114D01*
X197533205Y-101590114D02*
X197580824Y-101494876D01*
X197580824Y-101494876D02*
X197676062Y-101399638D01*
X197676062Y-101399638D02*
X197818919Y-101352019D01*
X197818919Y-101352019D02*
X197914157Y-101352019D01*
X197914157Y-101352019D02*
X198057014Y-101399638D01*
X198057014Y-101399638D02*
X198104633Y-101447257D01*
X198961776Y-101685352D02*
X198961776Y-102352019D01*
X198723681Y-101304400D02*
X198485586Y-102018685D01*
X198485586Y-102018685D02*
X199104633Y-102018685D01*
X194189580Y-108779166D02*
X194237200Y-108826785D01*
X194237200Y-108826785D02*
X194284819Y-108969642D01*
X194284819Y-108969642D02*
X194284819Y-109064880D01*
X194284819Y-109064880D02*
X194237200Y-109207737D01*
X194237200Y-109207737D02*
X194141961Y-109302975D01*
X194141961Y-109302975D02*
X194046723Y-109350594D01*
X194046723Y-109350594D02*
X193856247Y-109398213D01*
X193856247Y-109398213D02*
X193713390Y-109398213D01*
X193713390Y-109398213D02*
X193522914Y-109350594D01*
X193522914Y-109350594D02*
X193427676Y-109302975D01*
X193427676Y-109302975D02*
X193332438Y-109207737D01*
X193332438Y-109207737D02*
X193284819Y-109064880D01*
X193284819Y-109064880D02*
X193284819Y-108969642D01*
X193284819Y-108969642D02*
X193332438Y-108826785D01*
X193332438Y-108826785D02*
X193380057Y-108779166D01*
X193380057Y-108398213D02*
X193332438Y-108350594D01*
X193332438Y-108350594D02*
X193284819Y-108255356D01*
X193284819Y-108255356D02*
X193284819Y-108017261D01*
X193284819Y-108017261D02*
X193332438Y-107922023D01*
X193332438Y-107922023D02*
X193380057Y-107874404D01*
X193380057Y-107874404D02*
X193475295Y-107826785D01*
X193475295Y-107826785D02*
X193570533Y-107826785D01*
X193570533Y-107826785D02*
X193713390Y-107874404D01*
X193713390Y-107874404D02*
X194284819Y-108445832D01*
X194284819Y-108445832D02*
X194284819Y-107826785D01*
X172703333Y-110649580D02*
X172655714Y-110697200D01*
X172655714Y-110697200D02*
X172512857Y-110744819D01*
X172512857Y-110744819D02*
X172417619Y-110744819D01*
X172417619Y-110744819D02*
X172274762Y-110697200D01*
X172274762Y-110697200D02*
X172179524Y-110601961D01*
X172179524Y-110601961D02*
X172131905Y-110506723D01*
X172131905Y-110506723D02*
X172084286Y-110316247D01*
X172084286Y-110316247D02*
X172084286Y-110173390D01*
X172084286Y-110173390D02*
X172131905Y-109982914D01*
X172131905Y-109982914D02*
X172179524Y-109887676D01*
X172179524Y-109887676D02*
X172274762Y-109792438D01*
X172274762Y-109792438D02*
X172417619Y-109744819D01*
X172417619Y-109744819D02*
X172512857Y-109744819D01*
X172512857Y-109744819D02*
X172655714Y-109792438D01*
X172655714Y-109792438D02*
X172703333Y-109840057D01*
X173036667Y-109744819D02*
X173703333Y-109744819D01*
X173703333Y-109744819D02*
X173274762Y-110744819D01*
X215377733Y-112783619D02*
X215044400Y-112307428D01*
X214806305Y-112783619D02*
X214806305Y-111783619D01*
X214806305Y-111783619D02*
X215187257Y-111783619D01*
X215187257Y-111783619D02*
X215282495Y-111831238D01*
X215282495Y-111831238D02*
X215330114Y-111878857D01*
X215330114Y-111878857D02*
X215377733Y-111974095D01*
X215377733Y-111974095D02*
X215377733Y-112116952D01*
X215377733Y-112116952D02*
X215330114Y-112212190D01*
X215330114Y-112212190D02*
X215282495Y-112259809D01*
X215282495Y-112259809D02*
X215187257Y-112307428D01*
X215187257Y-112307428D02*
X214806305Y-112307428D01*
X215949162Y-112212190D02*
X215853924Y-112164571D01*
X215853924Y-112164571D02*
X215806305Y-112116952D01*
X215806305Y-112116952D02*
X215758686Y-112021714D01*
X215758686Y-112021714D02*
X215758686Y-111974095D01*
X215758686Y-111974095D02*
X215806305Y-111878857D01*
X215806305Y-111878857D02*
X215853924Y-111831238D01*
X215853924Y-111831238D02*
X215949162Y-111783619D01*
X215949162Y-111783619D02*
X216139638Y-111783619D01*
X216139638Y-111783619D02*
X216234876Y-111831238D01*
X216234876Y-111831238D02*
X216282495Y-111878857D01*
X216282495Y-111878857D02*
X216330114Y-111974095D01*
X216330114Y-111974095D02*
X216330114Y-112021714D01*
X216330114Y-112021714D02*
X216282495Y-112116952D01*
X216282495Y-112116952D02*
X216234876Y-112164571D01*
X216234876Y-112164571D02*
X216139638Y-112212190D01*
X216139638Y-112212190D02*
X215949162Y-112212190D01*
X215949162Y-112212190D02*
X215853924Y-112259809D01*
X215853924Y-112259809D02*
X215806305Y-112307428D01*
X215806305Y-112307428D02*
X215758686Y-112402666D01*
X215758686Y-112402666D02*
X215758686Y-112593142D01*
X215758686Y-112593142D02*
X215806305Y-112688380D01*
X215806305Y-112688380D02*
X215853924Y-112736000D01*
X215853924Y-112736000D02*
X215949162Y-112783619D01*
X215949162Y-112783619D02*
X216139638Y-112783619D01*
X216139638Y-112783619D02*
X216234876Y-112736000D01*
X216234876Y-112736000D02*
X216282495Y-112688380D01*
X216282495Y-112688380D02*
X216330114Y-112593142D01*
X216330114Y-112593142D02*
X216330114Y-112402666D01*
X216330114Y-112402666D02*
X216282495Y-112307428D01*
X216282495Y-112307428D02*
X216234876Y-112259809D01*
X216234876Y-112259809D02*
X216139638Y-112212190D01*
D12*
%TO.C,R14*%
X202457267Y-100713000D02*
X202164733Y-100713000D01*
X202457267Y-99693000D02*
X202164733Y-99693000D01*
%TO.C,R13*%
X213485000Y-102026767D02*
X213485000Y-101734233D01*
X214505000Y-102026767D02*
X214505000Y-101734233D01*
%TO.C,R12*%
X210939767Y-102872000D02*
X210647233Y-102872000D01*
X210939767Y-101852000D02*
X210647233Y-101852000D01*
%TO.C,J5*%
X160064000Y-121174000D02*
X161314000Y-121174000D01*
X160354000Y-120884000D02*
X166324000Y-120884000D01*
X166324000Y-120884000D02*
X166324000Y-113264000D01*
X160364000Y-120874000D02*
X161114000Y-120874000D01*
X161114000Y-120874000D02*
X161114000Y-119074000D01*
X162614000Y-120874000D02*
X162614000Y-120124000D01*
X162614000Y-120124000D02*
X165564000Y-120124000D01*
X165564000Y-120124000D02*
X165564000Y-117074000D01*
X160064000Y-119924000D02*
X160064000Y-121174000D01*
X160364000Y-119074000D02*
X160364000Y-120874000D01*
X161114000Y-119074000D02*
X160364000Y-119074000D01*
X160364000Y-117574000D02*
X161114000Y-117574000D01*
X161114000Y-117574000D02*
X161114000Y-116574000D01*
X160364000Y-116574000D02*
X160364000Y-117574000D01*
X161114000Y-116574000D02*
X160364000Y-116574000D01*
X160364000Y-115074000D02*
X161114000Y-115074000D01*
X161114000Y-115074000D02*
X161114000Y-113274000D01*
X162614000Y-114024000D02*
X165564000Y-114024000D01*
X165564000Y-114024000D02*
X165564000Y-117074000D01*
X160364000Y-113274000D02*
X160364000Y-115074000D01*
X161114000Y-113274000D02*
X160364000Y-113274000D01*
X162614000Y-113274000D02*
X162614000Y-114024000D01*
X160354000Y-113264000D02*
X160354000Y-120884000D01*
X166324000Y-113264000D02*
X160354000Y-113264000D01*
%TO.C,J10*%
X208080000Y-120620000D02*
X206700000Y-120620000D01*
X208080000Y-119240000D02*
X208080000Y-120620000D01*
X208080000Y-117970000D02*
X208080000Y-100080000D01*
X208080000Y-117970000D02*
X205320000Y-117970000D01*
X208080000Y-100080000D02*
X205320000Y-100080000D01*
X205320000Y-117970000D02*
X205320000Y-100080000D01*
%TO.C,R1*%
X162740000Y-111333767D02*
X162740000Y-111041233D01*
X163760000Y-111333767D02*
X163760000Y-111041233D01*
%TO.C,R4*%
X210241233Y-106990000D02*
X210533767Y-106990000D01*
X210241233Y-108010000D02*
X210533767Y-108010000D01*
%TO.C,R7*%
X218381967Y-109776800D02*
X218089433Y-109776800D01*
X218381967Y-110796800D02*
X218089433Y-110796800D01*
%TO.C,C6*%
X203390000Y-118746267D02*
X203390000Y-118453733D01*
X204410000Y-118746267D02*
X204410000Y-118453733D01*
%TO.C,R11*%
X218011233Y-106840000D02*
X218303767Y-106840000D01*
X218011233Y-107860000D02*
X218303767Y-107860000D01*
%TO.C,R3*%
X210241233Y-111901000D02*
X210533767Y-111901000D01*
X210241233Y-112921000D02*
X210533767Y-112921000D01*
%TO.C,R2*%
X211350000Y-117593733D02*
X211350000Y-117886267D01*
X212370000Y-117593733D02*
X212370000Y-117886267D01*
%TO.C,J1*%
X181650000Y-108100000D02*
X181650000Y-109350000D01*
X181650000Y-109350000D02*
X182900000Y-109350000D01*
X181940000Y-98940000D02*
X181940000Y-109060000D01*
X181940000Y-109060000D02*
X187910000Y-109060000D01*
X181950000Y-98950000D02*
X181950000Y-100750000D01*
X181950000Y-100750000D02*
X182700000Y-100750000D01*
X181950000Y-102250000D02*
X181950000Y-105750000D01*
X181950000Y-105750000D02*
X182700000Y-105750000D01*
X181950000Y-107250000D02*
X181950000Y-109050000D01*
X181950000Y-109050000D02*
X182700000Y-109050000D01*
X182700000Y-98950000D02*
X181950000Y-98950000D01*
X182700000Y-100750000D02*
X182700000Y-98950000D01*
X182700000Y-102250000D02*
X181950000Y-102250000D01*
X182700000Y-105750000D02*
X182700000Y-102250000D01*
X182700000Y-107250000D02*
X181950000Y-107250000D01*
X182700000Y-109050000D02*
X182700000Y-107250000D01*
X184200000Y-98950000D02*
X184200000Y-99700000D01*
X184200000Y-99700000D02*
X187150000Y-99700000D01*
X184200000Y-108300000D02*
X187150000Y-108300000D01*
X184200000Y-109050000D02*
X184200000Y-108300000D01*
X187150000Y-99700000D02*
X187150000Y-104000000D01*
X187150000Y-108300000D02*
X187150000Y-104000000D01*
X187910000Y-98940000D02*
X181940000Y-98940000D01*
X187910000Y-109060000D02*
X187910000Y-98940000D01*
%TO.C,J3*%
X167350000Y-108050000D02*
X167350000Y-109300000D01*
X167350000Y-109300000D02*
X168600000Y-109300000D01*
X167640000Y-98890000D02*
X167640000Y-109010000D01*
X167640000Y-109010000D02*
X173610000Y-109010000D01*
X167650000Y-98900000D02*
X167650000Y-100700000D01*
X167650000Y-100700000D02*
X168400000Y-100700000D01*
X167650000Y-102200000D02*
X167650000Y-105700000D01*
X167650000Y-105700000D02*
X168400000Y-105700000D01*
X167650000Y-107200000D02*
X167650000Y-109000000D01*
X167650000Y-109000000D02*
X168400000Y-109000000D01*
X168400000Y-98900000D02*
X167650000Y-98900000D01*
X168400000Y-100700000D02*
X168400000Y-98900000D01*
X168400000Y-102200000D02*
X167650000Y-102200000D01*
X168400000Y-105700000D02*
X168400000Y-102200000D01*
X168400000Y-107200000D02*
X167650000Y-107200000D01*
X168400000Y-109000000D02*
X168400000Y-107200000D01*
X169900000Y-98900000D02*
X169900000Y-99650000D01*
X169900000Y-99650000D02*
X172850000Y-99650000D01*
X169900000Y-108250000D02*
X172850000Y-108250000D01*
X169900000Y-109000000D02*
X169900000Y-108250000D01*
X172850000Y-99650000D02*
X172850000Y-103950000D01*
X172850000Y-108250000D02*
X172850000Y-103950000D01*
X173610000Y-98890000D02*
X167640000Y-98890000D01*
X173610000Y-109010000D02*
X173610000Y-98890000D01*
%TO.C,J2*%
X174500000Y-108100000D02*
X174500000Y-109350000D01*
X174500000Y-109350000D02*
X175750000Y-109350000D01*
X174790000Y-98940000D02*
X174790000Y-109060000D01*
X174790000Y-109060000D02*
X180760000Y-109060000D01*
X174800000Y-98950000D02*
X174800000Y-100750000D01*
X174800000Y-100750000D02*
X175550000Y-100750000D01*
X174800000Y-102250000D02*
X174800000Y-105750000D01*
X174800000Y-105750000D02*
X175550000Y-105750000D01*
X174800000Y-107250000D02*
X174800000Y-109050000D01*
X174800000Y-109050000D02*
X175550000Y-109050000D01*
X175550000Y-98950000D02*
X174800000Y-98950000D01*
X175550000Y-100750000D02*
X175550000Y-98950000D01*
X175550000Y-102250000D02*
X174800000Y-102250000D01*
X175550000Y-105750000D02*
X175550000Y-102250000D01*
X175550000Y-107250000D02*
X174800000Y-107250000D01*
X175550000Y-109050000D02*
X175550000Y-107250000D01*
X177050000Y-98950000D02*
X177050000Y-99700000D01*
X177050000Y-99700000D02*
X180000000Y-99700000D01*
X177050000Y-108300000D02*
X180000000Y-108300000D01*
X177050000Y-109050000D02*
X177050000Y-108300000D01*
X180000000Y-99700000D02*
X180000000Y-104000000D01*
X180000000Y-108300000D02*
X180000000Y-104000000D01*
X180760000Y-98940000D02*
X174790000Y-98940000D01*
X180760000Y-109060000D02*
X180760000Y-98940000D01*
%TO.C,Q4*%
X202062500Y-106640000D02*
X201412500Y-106640000D01*
X202062500Y-106640000D02*
X202712500Y-106640000D01*
X202062500Y-109760000D02*
X201412500Y-109760000D01*
X202062500Y-109760000D02*
X202712500Y-109760000D01*
X203465000Y-110040000D02*
X202985000Y-110040000D01*
X203225000Y-109710000D01*
X203465000Y-110040000D01*
G36*
X203465000Y-110040000D02*
G01*
X202985000Y-110040000D01*
X203225000Y-109710000D01*
X203465000Y-110040000D01*
G37*
%TO.C,J7*%
X167375000Y-119950000D02*
X167375000Y-121200000D01*
X167375000Y-121200000D02*
X168625000Y-121200000D01*
X167665000Y-113290000D02*
X167665000Y-120910000D01*
X167665000Y-120910000D02*
X173635000Y-120910000D01*
X167675000Y-113300000D02*
X167675000Y-115100000D01*
X167675000Y-115100000D02*
X168425000Y-115100000D01*
X167675000Y-116600000D02*
X167675000Y-117600000D01*
X167675000Y-117600000D02*
X168425000Y-117600000D01*
X167675000Y-119100000D02*
X167675000Y-120900000D01*
X167675000Y-120900000D02*
X168425000Y-120900000D01*
X168425000Y-113300000D02*
X167675000Y-113300000D01*
X168425000Y-115100000D02*
X168425000Y-113300000D01*
X168425000Y-116600000D02*
X167675000Y-116600000D01*
X168425000Y-117600000D02*
X168425000Y-116600000D01*
X168425000Y-119100000D02*
X167675000Y-119100000D01*
X168425000Y-120900000D02*
X168425000Y-119100000D01*
X169925000Y-113300000D02*
X169925000Y-114050000D01*
X169925000Y-114050000D02*
X172875000Y-114050000D01*
X169925000Y-120150000D02*
X172875000Y-120150000D01*
X169925000Y-120900000D02*
X169925000Y-120150000D01*
X172875000Y-114050000D02*
X172875000Y-117100000D01*
X172875000Y-120150000D02*
X172875000Y-117100000D01*
X173635000Y-113290000D02*
X167665000Y-113290000D01*
X173635000Y-120910000D02*
X173635000Y-113290000D01*
%TO.C,J8*%
X181675000Y-119950000D02*
X181675000Y-121200000D01*
X181675000Y-121200000D02*
X182925000Y-121200000D01*
X181965000Y-113290000D02*
X181965000Y-120910000D01*
X181965000Y-120910000D02*
X187935000Y-120910000D01*
X181975000Y-113300000D02*
X181975000Y-115100000D01*
X181975000Y-115100000D02*
X182725000Y-115100000D01*
X181975000Y-116600000D02*
X181975000Y-117600000D01*
X181975000Y-117600000D02*
X182725000Y-117600000D01*
X181975000Y-119100000D02*
X181975000Y-120900000D01*
X181975000Y-120900000D02*
X182725000Y-120900000D01*
X182725000Y-113300000D02*
X181975000Y-113300000D01*
X182725000Y-115100000D02*
X182725000Y-113300000D01*
X182725000Y-116600000D02*
X181975000Y-116600000D01*
X182725000Y-117600000D02*
X182725000Y-116600000D01*
X182725000Y-119100000D02*
X181975000Y-119100000D01*
X182725000Y-120900000D02*
X182725000Y-119100000D01*
X184225000Y-113300000D02*
X184225000Y-114050000D01*
X184225000Y-114050000D02*
X187175000Y-114050000D01*
X184225000Y-120150000D02*
X187175000Y-120150000D01*
X184225000Y-120900000D02*
X184225000Y-120150000D01*
X187175000Y-114050000D02*
X187175000Y-117100000D01*
X187175000Y-120150000D02*
X187175000Y-117100000D01*
X187935000Y-113290000D02*
X181965000Y-113290000D01*
X187935000Y-120910000D02*
X187935000Y-113290000D01*
%TO.C,R10*%
X218333367Y-100836000D02*
X218040833Y-100836000D01*
X218333367Y-101856000D02*
X218040833Y-101856000D01*
%TO.C,R5*%
X210241233Y-108641000D02*
X210533767Y-108641000D01*
X210241233Y-109661000D02*
X210533767Y-109661000D01*
%TO.C,C5*%
X198241233Y-112740000D02*
X198533767Y-112740000D01*
X198241233Y-113760000D02*
X198533767Y-113760000D01*
%TO.C,Q1*%
X202187500Y-111690000D02*
X201537500Y-111690000D01*
X202187500Y-111690000D02*
X202837500Y-111690000D01*
X202187500Y-114810000D02*
X201537500Y-114810000D01*
X202187500Y-114810000D02*
X202837500Y-114810000D01*
X203590000Y-115090000D02*
X203110000Y-115090000D01*
X203350000Y-114760000D01*
X203590000Y-115090000D01*
G36*
X203590000Y-115090000D02*
G01*
X203110000Y-115090000D01*
X203350000Y-114760000D01*
X203590000Y-115090000D01*
G37*
%TO.C,C3*%
X198216233Y-107740000D02*
X198508767Y-107740000D01*
X198216233Y-108760000D02*
X198508767Y-108760000D01*
%TO.C,R9*%
X218333367Y-103477600D02*
X218040833Y-103477600D01*
X218333367Y-104497600D02*
X218040833Y-104497600D01*
%TO.C,C1*%
X160340000Y-111283767D02*
X160340000Y-110991233D01*
X161360000Y-111283767D02*
X161360000Y-110991233D01*
%TO.C,J6*%
X174525000Y-119950000D02*
X174525000Y-121200000D01*
X174525000Y-121200000D02*
X175775000Y-121200000D01*
X174815000Y-113290000D02*
X174815000Y-120910000D01*
X174815000Y-120910000D02*
X180785000Y-120910000D01*
X174825000Y-113300000D02*
X174825000Y-115100000D01*
X174825000Y-115100000D02*
X175575000Y-115100000D01*
X174825000Y-116600000D02*
X174825000Y-117600000D01*
X174825000Y-117600000D02*
X175575000Y-117600000D01*
X174825000Y-119100000D02*
X174825000Y-120900000D01*
X174825000Y-120900000D02*
X175575000Y-120900000D01*
X175575000Y-113300000D02*
X174825000Y-113300000D01*
X175575000Y-115100000D02*
X175575000Y-113300000D01*
X175575000Y-116600000D02*
X174825000Y-116600000D01*
X175575000Y-117600000D02*
X175575000Y-116600000D01*
X175575000Y-119100000D02*
X174825000Y-119100000D01*
X175575000Y-120900000D02*
X175575000Y-119100000D01*
X177075000Y-113300000D02*
X177075000Y-114050000D01*
X177075000Y-114050000D02*
X180025000Y-114050000D01*
X177075000Y-120150000D02*
X180025000Y-120150000D01*
X177075000Y-120900000D02*
X177075000Y-120150000D01*
X180025000Y-114050000D02*
X180025000Y-117100000D01*
X180025000Y-120150000D02*
X180025000Y-117100000D01*
X180785000Y-113290000D02*
X174815000Y-113290000D01*
X180785000Y-120910000D02*
X180785000Y-113290000D01*
%TO.C,R6*%
X210264433Y-110199200D02*
X210556967Y-110199200D01*
X210264433Y-111219200D02*
X210556967Y-111219200D01*
%TO.C,Q3*%
X201980800Y-101781300D02*
X201330800Y-101781300D01*
X201980800Y-101781300D02*
X202630800Y-101781300D01*
X201980800Y-104901300D02*
X201330800Y-104901300D01*
X201980800Y-104901300D02*
X202630800Y-104901300D01*
X203383300Y-105181300D02*
X202903300Y-105181300D01*
X203143300Y-104851300D01*
X203383300Y-105181300D01*
G36*
X203383300Y-105181300D02*
G01*
X202903300Y-105181300D01*
X203143300Y-104851300D01*
X203383300Y-105181300D01*
G37*
%TO.C,Q2*%
X190890000Y-112562500D02*
X190890000Y-111912500D01*
X190890000Y-112562500D02*
X190890000Y-113212500D01*
X194010000Y-112562500D02*
X194010000Y-111912500D01*
X194010000Y-112562500D02*
X194010000Y-113212500D01*
X190940000Y-113725000D02*
X190610000Y-113965000D01*
X190610000Y-113485000D01*
X190940000Y-113725000D01*
G36*
X190940000Y-113725000D02*
G01*
X190610000Y-113965000D01*
X190610000Y-113485000D01*
X190940000Y-113725000D01*
G37*
%TO.C,C4*%
X198125033Y-102817200D02*
X198417567Y-102817200D01*
X198125033Y-103837200D02*
X198417567Y-103837200D01*
%TO.C,C2*%
X191890000Y-108466233D02*
X191890000Y-108758767D01*
X192910000Y-108466233D02*
X192910000Y-108758767D01*
%TO.C,C7*%
X173476233Y-111200000D02*
X173768767Y-111200000D01*
X173476233Y-112220000D02*
X173768767Y-112220000D01*
%TO.C,J11*%
X220570000Y-117970000D02*
X220570000Y-100080000D01*
X223330000Y-100080000D02*
X220570000Y-100080000D01*
X223330000Y-117970000D02*
X220570000Y-117970000D01*
X223330000Y-117970000D02*
X223330000Y-100080000D01*
X223330000Y-119240000D02*
X223330000Y-120620000D01*
X223330000Y-120620000D02*
X221950000Y-120620000D01*
%TO.C,R8*%
X218381967Y-111605600D02*
X218089433Y-111605600D01*
X218381967Y-112625600D02*
X218089433Y-112625600D01*
%TD*%
D13*
X202053857Y-100384927D02*
X201920524Y-100194451D01*
X201825286Y-100384927D02*
X201825286Y-99984927D01*
X201825286Y-99984927D02*
X201977667Y-99984927D01*
X201977667Y-99984927D02*
X202015762Y-100003975D01*
X202015762Y-100003975D02*
X202034809Y-100023022D01*
X202034809Y-100023022D02*
X202053857Y-100061118D01*
X202053857Y-100061118D02*
X202053857Y-100118260D01*
X202053857Y-100118260D02*
X202034809Y-100156356D01*
X202034809Y-100156356D02*
X202015762Y-100175403D01*
X202015762Y-100175403D02*
X201977667Y-100194451D01*
X201977667Y-100194451D02*
X201825286Y-100194451D01*
X202434809Y-100384927D02*
X202206238Y-100384927D01*
X202320524Y-100384927D02*
X202320524Y-99984927D01*
X202320524Y-99984927D02*
X202282428Y-100042070D01*
X202282428Y-100042070D02*
X202244333Y-100080165D01*
X202244333Y-100080165D02*
X202206238Y-100099213D01*
X202777666Y-100118260D02*
X202777666Y-100384927D01*
X202682428Y-99965880D02*
X202587190Y-100251594D01*
X202587190Y-100251594D02*
X202834809Y-100251594D01*
X214176927Y-102137642D02*
X213986451Y-102270975D01*
X214176927Y-102366213D02*
X213776927Y-102366213D01*
X213776927Y-102366213D02*
X213776927Y-102213832D01*
X213776927Y-102213832D02*
X213795975Y-102175737D01*
X213795975Y-102175737D02*
X213815022Y-102156690D01*
X213815022Y-102156690D02*
X213853118Y-102137642D01*
X213853118Y-102137642D02*
X213910260Y-102137642D01*
X213910260Y-102137642D02*
X213948356Y-102156690D01*
X213948356Y-102156690D02*
X213967403Y-102175737D01*
X213967403Y-102175737D02*
X213986451Y-102213832D01*
X213986451Y-102213832D02*
X213986451Y-102366213D01*
X214176927Y-101756690D02*
X214176927Y-101985261D01*
X214176927Y-101870975D02*
X213776927Y-101870975D01*
X213776927Y-101870975D02*
X213834070Y-101909071D01*
X213834070Y-101909071D02*
X213872165Y-101947166D01*
X213872165Y-101947166D02*
X213891213Y-101985261D01*
X213776927Y-101623357D02*
X213776927Y-101375738D01*
X213776927Y-101375738D02*
X213929308Y-101509071D01*
X213929308Y-101509071D02*
X213929308Y-101451928D01*
X213929308Y-101451928D02*
X213948356Y-101413833D01*
X213948356Y-101413833D02*
X213967403Y-101394785D01*
X213967403Y-101394785D02*
X214005499Y-101375738D01*
X214005499Y-101375738D02*
X214100737Y-101375738D01*
X214100737Y-101375738D02*
X214138832Y-101394785D01*
X214138832Y-101394785D02*
X214157880Y-101413833D01*
X214157880Y-101413833D02*
X214176927Y-101451928D01*
X214176927Y-101451928D02*
X214176927Y-101566214D01*
X214176927Y-101566214D02*
X214157880Y-101604309D01*
X214157880Y-101604309D02*
X214138832Y-101623357D01*
X210536357Y-102543927D02*
X210403024Y-102353451D01*
X210307786Y-102543927D02*
X210307786Y-102143927D01*
X210307786Y-102143927D02*
X210460167Y-102143927D01*
X210460167Y-102143927D02*
X210498262Y-102162975D01*
X210498262Y-102162975D02*
X210517309Y-102182022D01*
X210517309Y-102182022D02*
X210536357Y-102220118D01*
X210536357Y-102220118D02*
X210536357Y-102277260D01*
X210536357Y-102277260D02*
X210517309Y-102315356D01*
X210517309Y-102315356D02*
X210498262Y-102334403D01*
X210498262Y-102334403D02*
X210460167Y-102353451D01*
X210460167Y-102353451D02*
X210307786Y-102353451D01*
X210917309Y-102543927D02*
X210688738Y-102543927D01*
X210803024Y-102543927D02*
X210803024Y-102143927D01*
X210803024Y-102143927D02*
X210764928Y-102201070D01*
X210764928Y-102201070D02*
X210726833Y-102239165D01*
X210726833Y-102239165D02*
X210688738Y-102258213D01*
X211069690Y-102182022D02*
X211088738Y-102162975D01*
X211088738Y-102162975D02*
X211126833Y-102143927D01*
X211126833Y-102143927D02*
X211222071Y-102143927D01*
X211222071Y-102143927D02*
X211260166Y-102162975D01*
X211260166Y-102162975D02*
X211279214Y-102182022D01*
X211279214Y-102182022D02*
X211298261Y-102220118D01*
X211298261Y-102220118D02*
X211298261Y-102258213D01*
X211298261Y-102258213D02*
X211279214Y-102315356D01*
X211279214Y-102315356D02*
X211050642Y-102543927D01*
X211050642Y-102543927D02*
X211298261Y-102543927D01*
D11*
X164968819Y-117407333D02*
X165683104Y-117407333D01*
X165683104Y-117407333D02*
X165825961Y-117454952D01*
X165825961Y-117454952D02*
X165921200Y-117550190D01*
X165921200Y-117550190D02*
X165968819Y-117693047D01*
X165968819Y-117693047D02*
X165968819Y-117788285D01*
X164968819Y-116454952D02*
X164968819Y-116931142D01*
X164968819Y-116931142D02*
X165445009Y-116978761D01*
X165445009Y-116978761D02*
X165397390Y-116931142D01*
X165397390Y-116931142D02*
X165349771Y-116835904D01*
X165349771Y-116835904D02*
X165349771Y-116597809D01*
X165349771Y-116597809D02*
X165397390Y-116502571D01*
X165397390Y-116502571D02*
X165445009Y-116454952D01*
X165445009Y-116454952D02*
X165540247Y-116407333D01*
X165540247Y-116407333D02*
X165778342Y-116407333D01*
X165778342Y-116407333D02*
X165873580Y-116454952D01*
X165873580Y-116454952D02*
X165921200Y-116502571D01*
X165921200Y-116502571D02*
X165968819Y-116597809D01*
X165968819Y-116597809D02*
X165968819Y-116835904D01*
X165968819Y-116835904D02*
X165921200Y-116931142D01*
X165921200Y-116931142D02*
X165873580Y-116978761D01*
X162688095Y-102554819D02*
X162688095Y-101554819D01*
X162688095Y-102031009D02*
X163259523Y-102031009D01*
X163259523Y-102554819D02*
X163259523Y-101554819D01*
X164259523Y-102554819D02*
X163688095Y-102554819D01*
X163973809Y-102554819D02*
X163973809Y-101554819D01*
X163973809Y-101554819D02*
X163878571Y-101697676D01*
X163878571Y-101697676D02*
X163783333Y-101792914D01*
X163783333Y-101792914D02*
X163688095Y-101840533D01*
X215728095Y-118594819D02*
X215728095Y-117594819D01*
X215728095Y-118071009D02*
X216299523Y-118071009D01*
X216299523Y-118594819D02*
X216299523Y-117594819D01*
X216728095Y-117690057D02*
X216775714Y-117642438D01*
X216775714Y-117642438D02*
X216870952Y-117594819D01*
X216870952Y-117594819D02*
X217109047Y-117594819D01*
X217109047Y-117594819D02*
X217204285Y-117642438D01*
X217204285Y-117642438D02*
X217251904Y-117690057D01*
X217251904Y-117690057D02*
X217299523Y-117785295D01*
X217299523Y-117785295D02*
X217299523Y-117880533D01*
X217299523Y-117880533D02*
X217251904Y-118023390D01*
X217251904Y-118023390D02*
X216680476Y-118594819D01*
X216680476Y-118594819D02*
X217299523Y-118594819D01*
X206154819Y-111159523D02*
X206869104Y-111159523D01*
X206869104Y-111159523D02*
X207011961Y-111207142D01*
X207011961Y-111207142D02*
X207107200Y-111302380D01*
X207107200Y-111302380D02*
X207154819Y-111445237D01*
X207154819Y-111445237D02*
X207154819Y-111540475D01*
X207154819Y-110159523D02*
X207154819Y-110730951D01*
X207154819Y-110445237D02*
X206154819Y-110445237D01*
X206154819Y-110445237D02*
X206297676Y-110540475D01*
X206297676Y-110540475D02*
X206392914Y-110635713D01*
X206392914Y-110635713D02*
X206440533Y-110730951D01*
X206154819Y-109540475D02*
X206154819Y-109445237D01*
X206154819Y-109445237D02*
X206202438Y-109349999D01*
X206202438Y-109349999D02*
X206250057Y-109302380D01*
X206250057Y-109302380D02*
X206345295Y-109254761D01*
X206345295Y-109254761D02*
X206535771Y-109207142D01*
X206535771Y-109207142D02*
X206773866Y-109207142D01*
X206773866Y-109207142D02*
X206964342Y-109254761D01*
X206964342Y-109254761D02*
X207059580Y-109302380D01*
X207059580Y-109302380D02*
X207107200Y-109349999D01*
X207107200Y-109349999D02*
X207154819Y-109445237D01*
X207154819Y-109445237D02*
X207154819Y-109540475D01*
X207154819Y-109540475D02*
X207107200Y-109635713D01*
X207107200Y-109635713D02*
X207059580Y-109683332D01*
X207059580Y-109683332D02*
X206964342Y-109730951D01*
X206964342Y-109730951D02*
X206773866Y-109778570D01*
X206773866Y-109778570D02*
X206535771Y-109778570D01*
X206535771Y-109778570D02*
X206345295Y-109730951D01*
X206345295Y-109730951D02*
X206250057Y-109683332D01*
X206250057Y-109683332D02*
X206202438Y-109635713D01*
X206202438Y-109635713D02*
X206154819Y-109540475D01*
D13*
X163431927Y-111254166D02*
X163241451Y-111387499D01*
X163431927Y-111482737D02*
X163031927Y-111482737D01*
X163031927Y-111482737D02*
X163031927Y-111330356D01*
X163031927Y-111330356D02*
X163050975Y-111292261D01*
X163050975Y-111292261D02*
X163070022Y-111273214D01*
X163070022Y-111273214D02*
X163108118Y-111254166D01*
X163108118Y-111254166D02*
X163165260Y-111254166D01*
X163165260Y-111254166D02*
X163203356Y-111273214D01*
X163203356Y-111273214D02*
X163222403Y-111292261D01*
X163222403Y-111292261D02*
X163241451Y-111330356D01*
X163241451Y-111330356D02*
X163241451Y-111482737D01*
X163431927Y-110873214D02*
X163431927Y-111101785D01*
X163431927Y-110987499D02*
X163031927Y-110987499D01*
X163031927Y-110987499D02*
X163089070Y-111025595D01*
X163089070Y-111025595D02*
X163127165Y-111063690D01*
X163127165Y-111063690D02*
X163146213Y-111101785D01*
X210320833Y-107681927D02*
X210187500Y-107491451D01*
X210092262Y-107681927D02*
X210092262Y-107281927D01*
X210092262Y-107281927D02*
X210244643Y-107281927D01*
X210244643Y-107281927D02*
X210282738Y-107300975D01*
X210282738Y-107300975D02*
X210301785Y-107320022D01*
X210301785Y-107320022D02*
X210320833Y-107358118D01*
X210320833Y-107358118D02*
X210320833Y-107415260D01*
X210320833Y-107415260D02*
X210301785Y-107453356D01*
X210301785Y-107453356D02*
X210282738Y-107472403D01*
X210282738Y-107472403D02*
X210244643Y-107491451D01*
X210244643Y-107491451D02*
X210092262Y-107491451D01*
X210663690Y-107415260D02*
X210663690Y-107681927D01*
X210568452Y-107262880D02*
X210473214Y-107548594D01*
X210473214Y-107548594D02*
X210720833Y-107548594D01*
X218169033Y-110468727D02*
X218035700Y-110278251D01*
X217940462Y-110468727D02*
X217940462Y-110068727D01*
X217940462Y-110068727D02*
X218092843Y-110068727D01*
X218092843Y-110068727D02*
X218130938Y-110087775D01*
X218130938Y-110087775D02*
X218149985Y-110106822D01*
X218149985Y-110106822D02*
X218169033Y-110144918D01*
X218169033Y-110144918D02*
X218169033Y-110202060D01*
X218169033Y-110202060D02*
X218149985Y-110240156D01*
X218149985Y-110240156D02*
X218130938Y-110259203D01*
X218130938Y-110259203D02*
X218092843Y-110278251D01*
X218092843Y-110278251D02*
X217940462Y-110278251D01*
X218302366Y-110068727D02*
X218569033Y-110068727D01*
X218569033Y-110068727D02*
X218397604Y-110468727D01*
X204043832Y-118666666D02*
X204062880Y-118685714D01*
X204062880Y-118685714D02*
X204081927Y-118742856D01*
X204081927Y-118742856D02*
X204081927Y-118780952D01*
X204081927Y-118780952D02*
X204062880Y-118838095D01*
X204062880Y-118838095D02*
X204024784Y-118876190D01*
X204024784Y-118876190D02*
X203986689Y-118895237D01*
X203986689Y-118895237D02*
X203910499Y-118914285D01*
X203910499Y-118914285D02*
X203853356Y-118914285D01*
X203853356Y-118914285D02*
X203777165Y-118895237D01*
X203777165Y-118895237D02*
X203739070Y-118876190D01*
X203739070Y-118876190D02*
X203700975Y-118838095D01*
X203700975Y-118838095D02*
X203681927Y-118780952D01*
X203681927Y-118780952D02*
X203681927Y-118742856D01*
X203681927Y-118742856D02*
X203700975Y-118685714D01*
X203700975Y-118685714D02*
X203720022Y-118666666D01*
X203681927Y-118323809D02*
X203681927Y-118399999D01*
X203681927Y-118399999D02*
X203700975Y-118438095D01*
X203700975Y-118438095D02*
X203720022Y-118457142D01*
X203720022Y-118457142D02*
X203777165Y-118495237D01*
X203777165Y-118495237D02*
X203853356Y-118514285D01*
X203853356Y-118514285D02*
X204005737Y-118514285D01*
X204005737Y-118514285D02*
X204043832Y-118495237D01*
X204043832Y-118495237D02*
X204062880Y-118476190D01*
X204062880Y-118476190D02*
X204081927Y-118438095D01*
X204081927Y-118438095D02*
X204081927Y-118361904D01*
X204081927Y-118361904D02*
X204062880Y-118323809D01*
X204062880Y-118323809D02*
X204043832Y-118304761D01*
X204043832Y-118304761D02*
X204005737Y-118285714D01*
X204005737Y-118285714D02*
X203910499Y-118285714D01*
X203910499Y-118285714D02*
X203872403Y-118304761D01*
X203872403Y-118304761D02*
X203853356Y-118323809D01*
X203853356Y-118323809D02*
X203834308Y-118361904D01*
X203834308Y-118361904D02*
X203834308Y-118438095D01*
X203834308Y-118438095D02*
X203853356Y-118476190D01*
X203853356Y-118476190D02*
X203872403Y-118495237D01*
X203872403Y-118495237D02*
X203910499Y-118514285D01*
X217900357Y-107531927D02*
X217767024Y-107341451D01*
X217671786Y-107531927D02*
X217671786Y-107131927D01*
X217671786Y-107131927D02*
X217824167Y-107131927D01*
X217824167Y-107131927D02*
X217862262Y-107150975D01*
X217862262Y-107150975D02*
X217881309Y-107170022D01*
X217881309Y-107170022D02*
X217900357Y-107208118D01*
X217900357Y-107208118D02*
X217900357Y-107265260D01*
X217900357Y-107265260D02*
X217881309Y-107303356D01*
X217881309Y-107303356D02*
X217862262Y-107322403D01*
X217862262Y-107322403D02*
X217824167Y-107341451D01*
X217824167Y-107341451D02*
X217671786Y-107341451D01*
X218281309Y-107531927D02*
X218052738Y-107531927D01*
X218167024Y-107531927D02*
X218167024Y-107131927D01*
X218167024Y-107131927D02*
X218128928Y-107189070D01*
X218128928Y-107189070D02*
X218090833Y-107227165D01*
X218090833Y-107227165D02*
X218052738Y-107246213D01*
X218662261Y-107531927D02*
X218433690Y-107531927D01*
X218547976Y-107531927D02*
X218547976Y-107131927D01*
X218547976Y-107131927D02*
X218509880Y-107189070D01*
X218509880Y-107189070D02*
X218471785Y-107227165D01*
X218471785Y-107227165D02*
X218433690Y-107246213D01*
X210320833Y-112592927D02*
X210187500Y-112402451D01*
X210092262Y-112592927D02*
X210092262Y-112192927D01*
X210092262Y-112192927D02*
X210244643Y-112192927D01*
X210244643Y-112192927D02*
X210282738Y-112211975D01*
X210282738Y-112211975D02*
X210301785Y-112231022D01*
X210301785Y-112231022D02*
X210320833Y-112269118D01*
X210320833Y-112269118D02*
X210320833Y-112326260D01*
X210320833Y-112326260D02*
X210301785Y-112364356D01*
X210301785Y-112364356D02*
X210282738Y-112383403D01*
X210282738Y-112383403D02*
X210244643Y-112402451D01*
X210244643Y-112402451D02*
X210092262Y-112402451D01*
X210454166Y-112192927D02*
X210701785Y-112192927D01*
X210701785Y-112192927D02*
X210568452Y-112345308D01*
X210568452Y-112345308D02*
X210625595Y-112345308D01*
X210625595Y-112345308D02*
X210663690Y-112364356D01*
X210663690Y-112364356D02*
X210682738Y-112383403D01*
X210682738Y-112383403D02*
X210701785Y-112421499D01*
X210701785Y-112421499D02*
X210701785Y-112516737D01*
X210701785Y-112516737D02*
X210682738Y-112554832D01*
X210682738Y-112554832D02*
X210663690Y-112573880D01*
X210663690Y-112573880D02*
X210625595Y-112592927D01*
X210625595Y-112592927D02*
X210511309Y-112592927D01*
X210511309Y-112592927D02*
X210473214Y-112573880D01*
X210473214Y-112573880D02*
X210454166Y-112554832D01*
X212041927Y-117806666D02*
X211851451Y-117939999D01*
X212041927Y-118035237D02*
X211641927Y-118035237D01*
X211641927Y-118035237D02*
X211641927Y-117882856D01*
X211641927Y-117882856D02*
X211660975Y-117844761D01*
X211660975Y-117844761D02*
X211680022Y-117825714D01*
X211680022Y-117825714D02*
X211718118Y-117806666D01*
X211718118Y-117806666D02*
X211775260Y-117806666D01*
X211775260Y-117806666D02*
X211813356Y-117825714D01*
X211813356Y-117825714D02*
X211832403Y-117844761D01*
X211832403Y-117844761D02*
X211851451Y-117882856D01*
X211851451Y-117882856D02*
X211851451Y-118035237D01*
X211680022Y-117654285D02*
X211660975Y-117635237D01*
X211660975Y-117635237D02*
X211641927Y-117597142D01*
X211641927Y-117597142D02*
X211641927Y-117501904D01*
X211641927Y-117501904D02*
X211660975Y-117463809D01*
X211660975Y-117463809D02*
X211680022Y-117444761D01*
X211680022Y-117444761D02*
X211718118Y-117425714D01*
X211718118Y-117425714D02*
X211756213Y-117425714D01*
X211756213Y-117425714D02*
X211813356Y-117444761D01*
X211813356Y-117444761D02*
X212041927Y-117673333D01*
X212041927Y-117673333D02*
X212041927Y-117425714D01*
D14*
X202032023Y-108375914D02*
X202001547Y-108360676D01*
X202001547Y-108360676D02*
X201971071Y-108330200D01*
X201971071Y-108330200D02*
X201925357Y-108284485D01*
X201925357Y-108284485D02*
X201894880Y-108269247D01*
X201894880Y-108269247D02*
X201864404Y-108269247D01*
X201879642Y-108345438D02*
X201849166Y-108330200D01*
X201849166Y-108330200D02*
X201818690Y-108299723D01*
X201818690Y-108299723D02*
X201803452Y-108238771D01*
X201803452Y-108238771D02*
X201803452Y-108132104D01*
X201803452Y-108132104D02*
X201818690Y-108071152D01*
X201818690Y-108071152D02*
X201849166Y-108040676D01*
X201849166Y-108040676D02*
X201879642Y-108025438D01*
X201879642Y-108025438D02*
X201940595Y-108025438D01*
X201940595Y-108025438D02*
X201971071Y-108040676D01*
X201971071Y-108040676D02*
X202001547Y-108071152D01*
X202001547Y-108071152D02*
X202016785Y-108132104D01*
X202016785Y-108132104D02*
X202016785Y-108238771D01*
X202016785Y-108238771D02*
X202001547Y-108299723D01*
X202001547Y-108299723D02*
X201971071Y-108330200D01*
X201971071Y-108330200D02*
X201940595Y-108345438D01*
X201940595Y-108345438D02*
X201879642Y-108345438D01*
X202291071Y-108132104D02*
X202291071Y-108345438D01*
X202214880Y-108010200D02*
X202138690Y-108238771D01*
X202138690Y-108238771D02*
X202336785Y-108238771D01*
D13*
X217929957Y-101527927D02*
X217796624Y-101337451D01*
X217701386Y-101527927D02*
X217701386Y-101127927D01*
X217701386Y-101127927D02*
X217853767Y-101127927D01*
X217853767Y-101127927D02*
X217891862Y-101146975D01*
X217891862Y-101146975D02*
X217910909Y-101166022D01*
X217910909Y-101166022D02*
X217929957Y-101204118D01*
X217929957Y-101204118D02*
X217929957Y-101261260D01*
X217929957Y-101261260D02*
X217910909Y-101299356D01*
X217910909Y-101299356D02*
X217891862Y-101318403D01*
X217891862Y-101318403D02*
X217853767Y-101337451D01*
X217853767Y-101337451D02*
X217701386Y-101337451D01*
X218310909Y-101527927D02*
X218082338Y-101527927D01*
X218196624Y-101527927D02*
X218196624Y-101127927D01*
X218196624Y-101127927D02*
X218158528Y-101185070D01*
X218158528Y-101185070D02*
X218120433Y-101223165D01*
X218120433Y-101223165D02*
X218082338Y-101242213D01*
X218558528Y-101127927D02*
X218596623Y-101127927D01*
X218596623Y-101127927D02*
X218634719Y-101146975D01*
X218634719Y-101146975D02*
X218653766Y-101166022D01*
X218653766Y-101166022D02*
X218672814Y-101204118D01*
X218672814Y-101204118D02*
X218691861Y-101280308D01*
X218691861Y-101280308D02*
X218691861Y-101375546D01*
X218691861Y-101375546D02*
X218672814Y-101451737D01*
X218672814Y-101451737D02*
X218653766Y-101489832D01*
X218653766Y-101489832D02*
X218634719Y-101508880D01*
X218634719Y-101508880D02*
X218596623Y-101527927D01*
X218596623Y-101527927D02*
X218558528Y-101527927D01*
X218558528Y-101527927D02*
X218520433Y-101508880D01*
X218520433Y-101508880D02*
X218501385Y-101489832D01*
X218501385Y-101489832D02*
X218482338Y-101451737D01*
X218482338Y-101451737D02*
X218463290Y-101375546D01*
X218463290Y-101375546D02*
X218463290Y-101280308D01*
X218463290Y-101280308D02*
X218482338Y-101204118D01*
X218482338Y-101204118D02*
X218501385Y-101166022D01*
X218501385Y-101166022D02*
X218520433Y-101146975D01*
X218520433Y-101146975D02*
X218558528Y-101127927D01*
X210320833Y-109332927D02*
X210187500Y-109142451D01*
X210092262Y-109332927D02*
X210092262Y-108932927D01*
X210092262Y-108932927D02*
X210244643Y-108932927D01*
X210244643Y-108932927D02*
X210282738Y-108951975D01*
X210282738Y-108951975D02*
X210301785Y-108971022D01*
X210301785Y-108971022D02*
X210320833Y-109009118D01*
X210320833Y-109009118D02*
X210320833Y-109066260D01*
X210320833Y-109066260D02*
X210301785Y-109104356D01*
X210301785Y-109104356D02*
X210282738Y-109123403D01*
X210282738Y-109123403D02*
X210244643Y-109142451D01*
X210244643Y-109142451D02*
X210092262Y-109142451D01*
X210682738Y-108932927D02*
X210492262Y-108932927D01*
X210492262Y-108932927D02*
X210473214Y-109123403D01*
X210473214Y-109123403D02*
X210492262Y-109104356D01*
X210492262Y-109104356D02*
X210530357Y-109085308D01*
X210530357Y-109085308D02*
X210625595Y-109085308D01*
X210625595Y-109085308D02*
X210663690Y-109104356D01*
X210663690Y-109104356D02*
X210682738Y-109123403D01*
X210682738Y-109123403D02*
X210701785Y-109161499D01*
X210701785Y-109161499D02*
X210701785Y-109256737D01*
X210701785Y-109256737D02*
X210682738Y-109294832D01*
X210682738Y-109294832D02*
X210663690Y-109313880D01*
X210663690Y-109313880D02*
X210625595Y-109332927D01*
X210625595Y-109332927D02*
X210530357Y-109332927D01*
X210530357Y-109332927D02*
X210492262Y-109313880D01*
X210492262Y-109313880D02*
X210473214Y-109294832D01*
X198320833Y-113393832D02*
X198301785Y-113412880D01*
X198301785Y-113412880D02*
X198244643Y-113431927D01*
X198244643Y-113431927D02*
X198206547Y-113431927D01*
X198206547Y-113431927D02*
X198149404Y-113412880D01*
X198149404Y-113412880D02*
X198111309Y-113374784D01*
X198111309Y-113374784D02*
X198092262Y-113336689D01*
X198092262Y-113336689D02*
X198073214Y-113260499D01*
X198073214Y-113260499D02*
X198073214Y-113203356D01*
X198073214Y-113203356D02*
X198092262Y-113127165D01*
X198092262Y-113127165D02*
X198111309Y-113089070D01*
X198111309Y-113089070D02*
X198149404Y-113050975D01*
X198149404Y-113050975D02*
X198206547Y-113031927D01*
X198206547Y-113031927D02*
X198244643Y-113031927D01*
X198244643Y-113031927D02*
X198301785Y-113050975D01*
X198301785Y-113050975D02*
X198320833Y-113070022D01*
X198682738Y-113031927D02*
X198492262Y-113031927D01*
X198492262Y-113031927D02*
X198473214Y-113222403D01*
X198473214Y-113222403D02*
X198492262Y-113203356D01*
X198492262Y-113203356D02*
X198530357Y-113184308D01*
X198530357Y-113184308D02*
X198625595Y-113184308D01*
X198625595Y-113184308D02*
X198663690Y-113203356D01*
X198663690Y-113203356D02*
X198682738Y-113222403D01*
X198682738Y-113222403D02*
X198701785Y-113260499D01*
X198701785Y-113260499D02*
X198701785Y-113355737D01*
X198701785Y-113355737D02*
X198682738Y-113393832D01*
X198682738Y-113393832D02*
X198663690Y-113412880D01*
X198663690Y-113412880D02*
X198625595Y-113431927D01*
X198625595Y-113431927D02*
X198530357Y-113431927D01*
X198530357Y-113431927D02*
X198492262Y-113412880D01*
X198492262Y-113412880D02*
X198473214Y-113393832D01*
D14*
X202157023Y-113425914D02*
X202126547Y-113410676D01*
X202126547Y-113410676D02*
X202096071Y-113380200D01*
X202096071Y-113380200D02*
X202050357Y-113334485D01*
X202050357Y-113334485D02*
X202019880Y-113319247D01*
X202019880Y-113319247D02*
X201989404Y-113319247D01*
X202004642Y-113395438D02*
X201974166Y-113380200D01*
X201974166Y-113380200D02*
X201943690Y-113349723D01*
X201943690Y-113349723D02*
X201928452Y-113288771D01*
X201928452Y-113288771D02*
X201928452Y-113182104D01*
X201928452Y-113182104D02*
X201943690Y-113121152D01*
X201943690Y-113121152D02*
X201974166Y-113090676D01*
X201974166Y-113090676D02*
X202004642Y-113075438D01*
X202004642Y-113075438D02*
X202065595Y-113075438D01*
X202065595Y-113075438D02*
X202096071Y-113090676D01*
X202096071Y-113090676D02*
X202126547Y-113121152D01*
X202126547Y-113121152D02*
X202141785Y-113182104D01*
X202141785Y-113182104D02*
X202141785Y-113288771D01*
X202141785Y-113288771D02*
X202126547Y-113349723D01*
X202126547Y-113349723D02*
X202096071Y-113380200D01*
X202096071Y-113380200D02*
X202065595Y-113395438D01*
X202065595Y-113395438D02*
X202004642Y-113395438D01*
X202446547Y-113395438D02*
X202263690Y-113395438D01*
X202355118Y-113395438D02*
X202355118Y-113075438D01*
X202355118Y-113075438D02*
X202324642Y-113121152D01*
X202324642Y-113121152D02*
X202294166Y-113151628D01*
X202294166Y-113151628D02*
X202263690Y-113166866D01*
D13*
X198295833Y-108393832D02*
X198276785Y-108412880D01*
X198276785Y-108412880D02*
X198219643Y-108431927D01*
X198219643Y-108431927D02*
X198181547Y-108431927D01*
X198181547Y-108431927D02*
X198124404Y-108412880D01*
X198124404Y-108412880D02*
X198086309Y-108374784D01*
X198086309Y-108374784D02*
X198067262Y-108336689D01*
X198067262Y-108336689D02*
X198048214Y-108260499D01*
X198048214Y-108260499D02*
X198048214Y-108203356D01*
X198048214Y-108203356D02*
X198067262Y-108127165D01*
X198067262Y-108127165D02*
X198086309Y-108089070D01*
X198086309Y-108089070D02*
X198124404Y-108050975D01*
X198124404Y-108050975D02*
X198181547Y-108031927D01*
X198181547Y-108031927D02*
X198219643Y-108031927D01*
X198219643Y-108031927D02*
X198276785Y-108050975D01*
X198276785Y-108050975D02*
X198295833Y-108070022D01*
X198429166Y-108031927D02*
X198676785Y-108031927D01*
X198676785Y-108031927D02*
X198543452Y-108184308D01*
X198543452Y-108184308D02*
X198600595Y-108184308D01*
X198600595Y-108184308D02*
X198638690Y-108203356D01*
X198638690Y-108203356D02*
X198657738Y-108222403D01*
X198657738Y-108222403D02*
X198676785Y-108260499D01*
X198676785Y-108260499D02*
X198676785Y-108355737D01*
X198676785Y-108355737D02*
X198657738Y-108393832D01*
X198657738Y-108393832D02*
X198638690Y-108412880D01*
X198638690Y-108412880D02*
X198600595Y-108431927D01*
X198600595Y-108431927D02*
X198486309Y-108431927D01*
X198486309Y-108431927D02*
X198448214Y-108412880D01*
X198448214Y-108412880D02*
X198429166Y-108393832D01*
X218120433Y-104169527D02*
X217987100Y-103979051D01*
X217891862Y-104169527D02*
X217891862Y-103769527D01*
X217891862Y-103769527D02*
X218044243Y-103769527D01*
X218044243Y-103769527D02*
X218082338Y-103788575D01*
X218082338Y-103788575D02*
X218101385Y-103807622D01*
X218101385Y-103807622D02*
X218120433Y-103845718D01*
X218120433Y-103845718D02*
X218120433Y-103902860D01*
X218120433Y-103902860D02*
X218101385Y-103940956D01*
X218101385Y-103940956D02*
X218082338Y-103960003D01*
X218082338Y-103960003D02*
X218044243Y-103979051D01*
X218044243Y-103979051D02*
X217891862Y-103979051D01*
X218310909Y-104169527D02*
X218387100Y-104169527D01*
X218387100Y-104169527D02*
X218425195Y-104150480D01*
X218425195Y-104150480D02*
X218444243Y-104131432D01*
X218444243Y-104131432D02*
X218482338Y-104074289D01*
X218482338Y-104074289D02*
X218501385Y-103998099D01*
X218501385Y-103998099D02*
X218501385Y-103845718D01*
X218501385Y-103845718D02*
X218482338Y-103807622D01*
X218482338Y-103807622D02*
X218463290Y-103788575D01*
X218463290Y-103788575D02*
X218425195Y-103769527D01*
X218425195Y-103769527D02*
X218349004Y-103769527D01*
X218349004Y-103769527D02*
X218310909Y-103788575D01*
X218310909Y-103788575D02*
X218291862Y-103807622D01*
X218291862Y-103807622D02*
X218272814Y-103845718D01*
X218272814Y-103845718D02*
X218272814Y-103940956D01*
X218272814Y-103940956D02*
X218291862Y-103979051D01*
X218291862Y-103979051D02*
X218310909Y-103998099D01*
X218310909Y-103998099D02*
X218349004Y-104017146D01*
X218349004Y-104017146D02*
X218425195Y-104017146D01*
X218425195Y-104017146D02*
X218463290Y-103998099D01*
X218463290Y-103998099D02*
X218482338Y-103979051D01*
X218482338Y-103979051D02*
X218501385Y-103940956D01*
X160993832Y-111204166D02*
X161012880Y-111223214D01*
X161012880Y-111223214D02*
X161031927Y-111280356D01*
X161031927Y-111280356D02*
X161031927Y-111318452D01*
X161031927Y-111318452D02*
X161012880Y-111375595D01*
X161012880Y-111375595D02*
X160974784Y-111413690D01*
X160974784Y-111413690D02*
X160936689Y-111432737D01*
X160936689Y-111432737D02*
X160860499Y-111451785D01*
X160860499Y-111451785D02*
X160803356Y-111451785D01*
X160803356Y-111451785D02*
X160727165Y-111432737D01*
X160727165Y-111432737D02*
X160689070Y-111413690D01*
X160689070Y-111413690D02*
X160650975Y-111375595D01*
X160650975Y-111375595D02*
X160631927Y-111318452D01*
X160631927Y-111318452D02*
X160631927Y-111280356D01*
X160631927Y-111280356D02*
X160650975Y-111223214D01*
X160650975Y-111223214D02*
X160670022Y-111204166D01*
X161031927Y-110823214D02*
X161031927Y-111051785D01*
X161031927Y-110937499D02*
X160631927Y-110937499D01*
X160631927Y-110937499D02*
X160689070Y-110975595D01*
X160689070Y-110975595D02*
X160727165Y-111013690D01*
X160727165Y-111013690D02*
X160746213Y-111051785D01*
X210344033Y-110891127D02*
X210210700Y-110700651D01*
X210115462Y-110891127D02*
X210115462Y-110491127D01*
X210115462Y-110491127D02*
X210267843Y-110491127D01*
X210267843Y-110491127D02*
X210305938Y-110510175D01*
X210305938Y-110510175D02*
X210324985Y-110529222D01*
X210324985Y-110529222D02*
X210344033Y-110567318D01*
X210344033Y-110567318D02*
X210344033Y-110624460D01*
X210344033Y-110624460D02*
X210324985Y-110662556D01*
X210324985Y-110662556D02*
X210305938Y-110681603D01*
X210305938Y-110681603D02*
X210267843Y-110700651D01*
X210267843Y-110700651D02*
X210115462Y-110700651D01*
X210686890Y-110491127D02*
X210610700Y-110491127D01*
X210610700Y-110491127D02*
X210572604Y-110510175D01*
X210572604Y-110510175D02*
X210553557Y-110529222D01*
X210553557Y-110529222D02*
X210515462Y-110586365D01*
X210515462Y-110586365D02*
X210496414Y-110662556D01*
X210496414Y-110662556D02*
X210496414Y-110814937D01*
X210496414Y-110814937D02*
X210515462Y-110853032D01*
X210515462Y-110853032D02*
X210534509Y-110872080D01*
X210534509Y-110872080D02*
X210572604Y-110891127D01*
X210572604Y-110891127D02*
X210648795Y-110891127D01*
X210648795Y-110891127D02*
X210686890Y-110872080D01*
X210686890Y-110872080D02*
X210705938Y-110853032D01*
X210705938Y-110853032D02*
X210724985Y-110814937D01*
X210724985Y-110814937D02*
X210724985Y-110719699D01*
X210724985Y-110719699D02*
X210705938Y-110681603D01*
X210705938Y-110681603D02*
X210686890Y-110662556D01*
X210686890Y-110662556D02*
X210648795Y-110643508D01*
X210648795Y-110643508D02*
X210572604Y-110643508D01*
X210572604Y-110643508D02*
X210534509Y-110662556D01*
X210534509Y-110662556D02*
X210515462Y-110681603D01*
X210515462Y-110681603D02*
X210496414Y-110719699D01*
D14*
X201950323Y-103517214D02*
X201919847Y-103501976D01*
X201919847Y-103501976D02*
X201889371Y-103471500D01*
X201889371Y-103471500D02*
X201843657Y-103425785D01*
X201843657Y-103425785D02*
X201813180Y-103410547D01*
X201813180Y-103410547D02*
X201782704Y-103410547D01*
X201797942Y-103486738D02*
X201767466Y-103471500D01*
X201767466Y-103471500D02*
X201736990Y-103441023D01*
X201736990Y-103441023D02*
X201721752Y-103380071D01*
X201721752Y-103380071D02*
X201721752Y-103273404D01*
X201721752Y-103273404D02*
X201736990Y-103212452D01*
X201736990Y-103212452D02*
X201767466Y-103181976D01*
X201767466Y-103181976D02*
X201797942Y-103166738D01*
X201797942Y-103166738D02*
X201858895Y-103166738D01*
X201858895Y-103166738D02*
X201889371Y-103181976D01*
X201889371Y-103181976D02*
X201919847Y-103212452D01*
X201919847Y-103212452D02*
X201935085Y-103273404D01*
X201935085Y-103273404D02*
X201935085Y-103380071D01*
X201935085Y-103380071D02*
X201919847Y-103441023D01*
X201919847Y-103441023D02*
X201889371Y-103471500D01*
X201889371Y-103471500D02*
X201858895Y-103486738D01*
X201858895Y-103486738D02*
X201797942Y-103486738D01*
X202041752Y-103166738D02*
X202239847Y-103166738D01*
X202239847Y-103166738D02*
X202133180Y-103288642D01*
X202133180Y-103288642D02*
X202178895Y-103288642D01*
X202178895Y-103288642D02*
X202209371Y-103303880D01*
X202209371Y-103303880D02*
X202224609Y-103319119D01*
X202224609Y-103319119D02*
X202239847Y-103349595D01*
X202239847Y-103349595D02*
X202239847Y-103425785D01*
X202239847Y-103425785D02*
X202224609Y-103456261D01*
X202224609Y-103456261D02*
X202209371Y-103471500D01*
X202209371Y-103471500D02*
X202178895Y-103486738D01*
X202178895Y-103486738D02*
X202087466Y-103486738D01*
X202087466Y-103486738D02*
X202056990Y-103471500D01*
X202056990Y-103471500D02*
X202041752Y-103456261D01*
X192625914Y-112592976D02*
X192610676Y-112623452D01*
X192610676Y-112623452D02*
X192580200Y-112653928D01*
X192580200Y-112653928D02*
X192534485Y-112699642D01*
X192534485Y-112699642D02*
X192519247Y-112730119D01*
X192519247Y-112730119D02*
X192519247Y-112760595D01*
X192595438Y-112745357D02*
X192580200Y-112775833D01*
X192580200Y-112775833D02*
X192549723Y-112806309D01*
X192549723Y-112806309D02*
X192488771Y-112821547D01*
X192488771Y-112821547D02*
X192382104Y-112821547D01*
X192382104Y-112821547D02*
X192321152Y-112806309D01*
X192321152Y-112806309D02*
X192290676Y-112775833D01*
X192290676Y-112775833D02*
X192275438Y-112745357D01*
X192275438Y-112745357D02*
X192275438Y-112684404D01*
X192275438Y-112684404D02*
X192290676Y-112653928D01*
X192290676Y-112653928D02*
X192321152Y-112623452D01*
X192321152Y-112623452D02*
X192382104Y-112608214D01*
X192382104Y-112608214D02*
X192488771Y-112608214D01*
X192488771Y-112608214D02*
X192549723Y-112623452D01*
X192549723Y-112623452D02*
X192580200Y-112653928D01*
X192580200Y-112653928D02*
X192595438Y-112684404D01*
X192595438Y-112684404D02*
X192595438Y-112745357D01*
X192305914Y-112486309D02*
X192290676Y-112471071D01*
X192290676Y-112471071D02*
X192275438Y-112440595D01*
X192275438Y-112440595D02*
X192275438Y-112364404D01*
X192275438Y-112364404D02*
X192290676Y-112333928D01*
X192290676Y-112333928D02*
X192305914Y-112318690D01*
X192305914Y-112318690D02*
X192336390Y-112303452D01*
X192336390Y-112303452D02*
X192366866Y-112303452D01*
X192366866Y-112303452D02*
X192412580Y-112318690D01*
X192412580Y-112318690D02*
X192595438Y-112501547D01*
X192595438Y-112501547D02*
X192595438Y-112303452D01*
D13*
X198204633Y-103471032D02*
X198185585Y-103490080D01*
X198185585Y-103490080D02*
X198128443Y-103509127D01*
X198128443Y-103509127D02*
X198090347Y-103509127D01*
X198090347Y-103509127D02*
X198033204Y-103490080D01*
X198033204Y-103490080D02*
X197995109Y-103451984D01*
X197995109Y-103451984D02*
X197976062Y-103413889D01*
X197976062Y-103413889D02*
X197957014Y-103337699D01*
X197957014Y-103337699D02*
X197957014Y-103280556D01*
X197957014Y-103280556D02*
X197976062Y-103204365D01*
X197976062Y-103204365D02*
X197995109Y-103166270D01*
X197995109Y-103166270D02*
X198033204Y-103128175D01*
X198033204Y-103128175D02*
X198090347Y-103109127D01*
X198090347Y-103109127D02*
X198128443Y-103109127D01*
X198128443Y-103109127D02*
X198185585Y-103128175D01*
X198185585Y-103128175D02*
X198204633Y-103147222D01*
X198547490Y-103242460D02*
X198547490Y-103509127D01*
X198452252Y-103090080D02*
X198357014Y-103375794D01*
X198357014Y-103375794D02*
X198604633Y-103375794D01*
X192543832Y-108679166D02*
X192562880Y-108698214D01*
X192562880Y-108698214D02*
X192581927Y-108755356D01*
X192581927Y-108755356D02*
X192581927Y-108793452D01*
X192581927Y-108793452D02*
X192562880Y-108850595D01*
X192562880Y-108850595D02*
X192524784Y-108888690D01*
X192524784Y-108888690D02*
X192486689Y-108907737D01*
X192486689Y-108907737D02*
X192410499Y-108926785D01*
X192410499Y-108926785D02*
X192353356Y-108926785D01*
X192353356Y-108926785D02*
X192277165Y-108907737D01*
X192277165Y-108907737D02*
X192239070Y-108888690D01*
X192239070Y-108888690D02*
X192200975Y-108850595D01*
X192200975Y-108850595D02*
X192181927Y-108793452D01*
X192181927Y-108793452D02*
X192181927Y-108755356D01*
X192181927Y-108755356D02*
X192200975Y-108698214D01*
X192200975Y-108698214D02*
X192220022Y-108679166D01*
X192220022Y-108526785D02*
X192200975Y-108507737D01*
X192200975Y-108507737D02*
X192181927Y-108469642D01*
X192181927Y-108469642D02*
X192181927Y-108374404D01*
X192181927Y-108374404D02*
X192200975Y-108336309D01*
X192200975Y-108336309D02*
X192220022Y-108317261D01*
X192220022Y-108317261D02*
X192258118Y-108298214D01*
X192258118Y-108298214D02*
X192296213Y-108298214D01*
X192296213Y-108298214D02*
X192353356Y-108317261D01*
X192353356Y-108317261D02*
X192581927Y-108545833D01*
X192581927Y-108545833D02*
X192581927Y-108298214D01*
X173555833Y-111853832D02*
X173536785Y-111872880D01*
X173536785Y-111872880D02*
X173479643Y-111891927D01*
X173479643Y-111891927D02*
X173441547Y-111891927D01*
X173441547Y-111891927D02*
X173384404Y-111872880D01*
X173384404Y-111872880D02*
X173346309Y-111834784D01*
X173346309Y-111834784D02*
X173327262Y-111796689D01*
X173327262Y-111796689D02*
X173308214Y-111720499D01*
X173308214Y-111720499D02*
X173308214Y-111663356D01*
X173308214Y-111663356D02*
X173327262Y-111587165D01*
X173327262Y-111587165D02*
X173346309Y-111549070D01*
X173346309Y-111549070D02*
X173384404Y-111510975D01*
X173384404Y-111510975D02*
X173441547Y-111491927D01*
X173441547Y-111491927D02*
X173479643Y-111491927D01*
X173479643Y-111491927D02*
X173536785Y-111510975D01*
X173536785Y-111510975D02*
X173555833Y-111530022D01*
X173689166Y-111491927D02*
X173955833Y-111491927D01*
X173955833Y-111491927D02*
X173784404Y-111891927D01*
D11*
X221404819Y-111159523D02*
X222119104Y-111159523D01*
X222119104Y-111159523D02*
X222261961Y-111207142D01*
X222261961Y-111207142D02*
X222357200Y-111302380D01*
X222357200Y-111302380D02*
X222404819Y-111445237D01*
X222404819Y-111445237D02*
X222404819Y-111540475D01*
X222404819Y-110159523D02*
X222404819Y-110730951D01*
X222404819Y-110445237D02*
X221404819Y-110445237D01*
X221404819Y-110445237D02*
X221547676Y-110540475D01*
X221547676Y-110540475D02*
X221642914Y-110635713D01*
X221642914Y-110635713D02*
X221690533Y-110730951D01*
X222404819Y-109207142D02*
X222404819Y-109778570D01*
X222404819Y-109492856D02*
X221404819Y-109492856D01*
X221404819Y-109492856D02*
X221547676Y-109588094D01*
X221547676Y-109588094D02*
X221642914Y-109683332D01*
X221642914Y-109683332D02*
X221690533Y-109778570D01*
D13*
X218169033Y-112297527D02*
X218035700Y-112107051D01*
X217940462Y-112297527D02*
X217940462Y-111897527D01*
X217940462Y-111897527D02*
X218092843Y-111897527D01*
X218092843Y-111897527D02*
X218130938Y-111916575D01*
X218130938Y-111916575D02*
X218149985Y-111935622D01*
X218149985Y-111935622D02*
X218169033Y-111973718D01*
X218169033Y-111973718D02*
X218169033Y-112030860D01*
X218169033Y-112030860D02*
X218149985Y-112068956D01*
X218149985Y-112068956D02*
X218130938Y-112088003D01*
X218130938Y-112088003D02*
X218092843Y-112107051D01*
X218092843Y-112107051D02*
X217940462Y-112107051D01*
X218397604Y-112068956D02*
X218359509Y-112049908D01*
X218359509Y-112049908D02*
X218340462Y-112030860D01*
X218340462Y-112030860D02*
X218321414Y-111992765D01*
X218321414Y-111992765D02*
X218321414Y-111973718D01*
X218321414Y-111973718D02*
X218340462Y-111935622D01*
X218340462Y-111935622D02*
X218359509Y-111916575D01*
X218359509Y-111916575D02*
X218397604Y-111897527D01*
X218397604Y-111897527D02*
X218473795Y-111897527D01*
X218473795Y-111897527D02*
X218511890Y-111916575D01*
X218511890Y-111916575D02*
X218530938Y-111935622D01*
X218530938Y-111935622D02*
X218549985Y-111973718D01*
X218549985Y-111973718D02*
X218549985Y-111992765D01*
X218549985Y-111992765D02*
X218530938Y-112030860D01*
X218530938Y-112030860D02*
X218511890Y-112049908D01*
X218511890Y-112049908D02*
X218473795Y-112068956D01*
X218473795Y-112068956D02*
X218397604Y-112068956D01*
X218397604Y-112068956D02*
X218359509Y-112088003D01*
X218359509Y-112088003D02*
X218340462Y-112107051D01*
X218340462Y-112107051D02*
X218321414Y-112145146D01*
X218321414Y-112145146D02*
X218321414Y-112221337D01*
X218321414Y-112221337D02*
X218340462Y-112259432D01*
X218340462Y-112259432D02*
X218359509Y-112278480D01*
X218359509Y-112278480D02*
X218397604Y-112297527D01*
X218397604Y-112297527D02*
X218473795Y-112297527D01*
X218473795Y-112297527D02*
X218511890Y-112278480D01*
X218511890Y-112278480D02*
X218530938Y-112259432D01*
X218530938Y-112259432D02*
X218549985Y-112221337D01*
X218549985Y-112221337D02*
X218549985Y-112145146D01*
X218549985Y-112145146D02*
X218530938Y-112107051D01*
X218530938Y-112107051D02*
X218511890Y-112088003D01*
X218511890Y-112088003D02*
X218473795Y-112068956D01*
D15*
%TO.C,R14*%
X203111000Y-100603000D02*
X201511000Y-100603000D01*
X203111000Y-99803000D02*
X203111000Y-100603000D01*
X201511000Y-100603000D02*
X201511000Y-99803000D01*
X201511000Y-99803000D02*
X203111000Y-99803000D01*
%TO.C,R13*%
X213595000Y-102680500D02*
X213595000Y-101080500D01*
X214395000Y-102680500D02*
X213595000Y-102680500D01*
X213595000Y-101080500D02*
X214395000Y-101080500D01*
X214395000Y-101080500D02*
X214395000Y-102680500D01*
%TO.C,R12*%
X211593500Y-102762000D02*
X209993500Y-102762000D01*
X211593500Y-101962000D02*
X211593500Y-102762000D01*
X209993500Y-102762000D02*
X209993500Y-101962000D01*
X209993500Y-101962000D02*
X211593500Y-101962000D01*
%TO.C,J5*%
X160464000Y-120774000D02*
X166214000Y-120774000D01*
X166214000Y-120774000D02*
X166214000Y-113374000D01*
X160464000Y-118949000D02*
X161464000Y-118324000D01*
X161464000Y-118324000D02*
X160464000Y-117699000D01*
X160464000Y-113374000D02*
X160464000Y-120774000D01*
X166214000Y-113374000D02*
X160464000Y-113374000D01*
%TO.C,J10*%
X207970000Y-119875000D02*
X207335000Y-120510000D01*
X207970000Y-100190000D02*
X207970000Y-119875000D01*
X207335000Y-120510000D02*
X205430000Y-120510000D01*
X205430000Y-120510000D02*
X205430000Y-100190000D01*
X205430000Y-100190000D02*
X207970000Y-100190000D01*
%TO.C,R1*%
X162850000Y-110387500D02*
X163650000Y-110387500D01*
X162850000Y-111987500D02*
X162850000Y-110387500D01*
X163650000Y-110387500D02*
X163650000Y-111987500D01*
X163650000Y-111987500D02*
X162850000Y-111987500D01*
%TO.C,R4*%
X209587500Y-107100000D02*
X211187500Y-107100000D01*
X209587500Y-107900000D02*
X209587500Y-107100000D01*
X211187500Y-107100000D02*
X211187500Y-107900000D01*
X211187500Y-107900000D02*
X209587500Y-107900000D01*
%TO.C,R7*%
X217435700Y-109886800D02*
X219035700Y-109886800D01*
X217435700Y-110686800D02*
X217435700Y-109886800D01*
X219035700Y-109886800D02*
X219035700Y-110686800D01*
X219035700Y-110686800D02*
X217435700Y-110686800D01*
%TO.C,C6*%
X203500000Y-117800000D02*
X204300000Y-117800000D01*
X203500000Y-119400000D02*
X203500000Y-117800000D01*
X204300000Y-117800000D02*
X204300000Y-119400000D01*
X204300000Y-119400000D02*
X203500000Y-119400000D01*
%TO.C,R11*%
X217357500Y-106950000D02*
X218957500Y-106950000D01*
X217357500Y-107750000D02*
X217357500Y-106950000D01*
X218957500Y-106950000D02*
X218957500Y-107750000D01*
X218957500Y-107750000D02*
X217357500Y-107750000D01*
%TO.C,R3*%
X209587500Y-112011000D02*
X211187500Y-112011000D01*
X209587500Y-112811000D02*
X209587500Y-112011000D01*
X211187500Y-112011000D02*
X211187500Y-112811000D01*
X211187500Y-112811000D02*
X209587500Y-112811000D01*
%TO.C,R2*%
X211460000Y-116940000D02*
X212260000Y-116940000D01*
X211460000Y-118540000D02*
X211460000Y-116940000D01*
X212260000Y-116940000D02*
X212260000Y-118540000D01*
X212260000Y-118540000D02*
X211460000Y-118540000D01*
%TO.C,J1*%
X182050000Y-99050000D02*
X182050000Y-108950000D01*
X182050000Y-107125000D02*
X183050000Y-106500000D01*
X182050000Y-108950000D02*
X187800000Y-108950000D01*
X183050000Y-106500000D02*
X182050000Y-105875000D01*
X187800000Y-99050000D02*
X182050000Y-99050000D01*
X187800000Y-108950000D02*
X187800000Y-99050000D01*
%TO.C,J3*%
X167750000Y-99000000D02*
X167750000Y-108900000D01*
X167750000Y-107075000D02*
X168750000Y-106450000D01*
X167750000Y-108900000D02*
X173500000Y-108900000D01*
X168750000Y-106450000D02*
X167750000Y-105825000D01*
X173500000Y-99000000D02*
X167750000Y-99000000D01*
X173500000Y-108900000D02*
X173500000Y-99000000D01*
%TO.C,J2*%
X174900000Y-99050000D02*
X174900000Y-108950000D01*
X174900000Y-107125000D02*
X175900000Y-106500000D01*
X174900000Y-108950000D02*
X180650000Y-108950000D01*
X175900000Y-106500000D02*
X174900000Y-105875000D01*
X180650000Y-99050000D02*
X174900000Y-99050000D01*
X180650000Y-108950000D02*
X180650000Y-99050000D01*
%TO.C,Q4*%
X201412500Y-106750000D02*
X202712500Y-106750000D01*
X201412500Y-109650000D02*
X201412500Y-106750000D01*
X202387500Y-109650000D02*
X201412500Y-109650000D01*
X202712500Y-106750000D02*
X202712500Y-109325000D01*
X202712500Y-109325000D02*
X202387500Y-109650000D01*
%TO.C,J7*%
X167775000Y-113400000D02*
X167775000Y-120800000D01*
X167775000Y-118975000D02*
X168775000Y-118350000D01*
X167775000Y-120800000D02*
X173525000Y-120800000D01*
X168775000Y-118350000D02*
X167775000Y-117725000D01*
X173525000Y-113400000D02*
X167775000Y-113400000D01*
X173525000Y-120800000D02*
X173525000Y-113400000D01*
%TO.C,J8*%
X182075000Y-113400000D02*
X182075000Y-120800000D01*
X182075000Y-118975000D02*
X183075000Y-118350000D01*
X182075000Y-120800000D02*
X187825000Y-120800000D01*
X183075000Y-118350000D02*
X182075000Y-117725000D01*
X187825000Y-113400000D02*
X182075000Y-113400000D01*
X187825000Y-120800000D02*
X187825000Y-113400000D01*
%TO.C,R10*%
X217387100Y-100946000D02*
X218987100Y-100946000D01*
X217387100Y-101746000D02*
X217387100Y-100946000D01*
X218987100Y-100946000D02*
X218987100Y-101746000D01*
X218987100Y-101746000D02*
X217387100Y-101746000D01*
%TO.C,R5*%
X209587500Y-108751000D02*
X211187500Y-108751000D01*
X209587500Y-109551000D02*
X209587500Y-108751000D01*
X211187500Y-108751000D02*
X211187500Y-109551000D01*
X211187500Y-109551000D02*
X209587500Y-109551000D01*
%TO.C,C5*%
X197587500Y-112850000D02*
X199187500Y-112850000D01*
X197587500Y-113650000D02*
X197587500Y-112850000D01*
X199187500Y-112850000D02*
X199187500Y-113650000D01*
X199187500Y-113650000D02*
X197587500Y-113650000D01*
%TO.C,Q1*%
X201537500Y-111800000D02*
X202837500Y-111800000D01*
X201537500Y-114700000D02*
X201537500Y-111800000D01*
X202512500Y-114700000D02*
X201537500Y-114700000D01*
X202837500Y-111800000D02*
X202837500Y-114375000D01*
X202837500Y-114375000D02*
X202512500Y-114700000D01*
%TO.C,C3*%
X197562500Y-107850000D02*
X199162500Y-107850000D01*
X197562500Y-108650000D02*
X197562500Y-107850000D01*
X199162500Y-107850000D02*
X199162500Y-108650000D01*
X199162500Y-108650000D02*
X197562500Y-108650000D01*
%TO.C,R9*%
X217387100Y-103587600D02*
X218987100Y-103587600D01*
X217387100Y-104387600D02*
X217387100Y-103587600D01*
X218987100Y-103587600D02*
X218987100Y-104387600D01*
X218987100Y-104387600D02*
X217387100Y-104387600D01*
%TO.C,C1*%
X160450000Y-110337500D02*
X161250000Y-110337500D01*
X160450000Y-111937500D02*
X160450000Y-110337500D01*
X161250000Y-110337500D02*
X161250000Y-111937500D01*
X161250000Y-111937500D02*
X160450000Y-111937500D01*
%TO.C,J6*%
X174925000Y-113400000D02*
X174925000Y-120800000D01*
X174925000Y-118975000D02*
X175925000Y-118350000D01*
X174925000Y-120800000D02*
X180675000Y-120800000D01*
X175925000Y-118350000D02*
X174925000Y-117725000D01*
X180675000Y-113400000D02*
X174925000Y-113400000D01*
X180675000Y-120800000D02*
X180675000Y-113400000D01*
%TO.C,R6*%
X209610700Y-110309200D02*
X211210700Y-110309200D01*
X209610700Y-111109200D02*
X209610700Y-110309200D01*
X211210700Y-110309200D02*
X211210700Y-111109200D01*
X211210700Y-111109200D02*
X209610700Y-111109200D01*
%TO.C,Q3*%
X201330800Y-101891300D02*
X202630800Y-101891300D01*
X201330800Y-104791300D02*
X201330800Y-101891300D01*
X202305800Y-104791300D02*
X201330800Y-104791300D01*
X202630800Y-101891300D02*
X202630800Y-104466300D01*
X202630800Y-104466300D02*
X202305800Y-104791300D01*
%TO.C,Q2*%
X191000000Y-111912500D02*
X193900000Y-111912500D01*
X191000000Y-112887500D02*
X191000000Y-111912500D01*
X191325000Y-113212500D02*
X191000000Y-112887500D01*
X193900000Y-111912500D02*
X193900000Y-113212500D01*
X193900000Y-113212500D02*
X191325000Y-113212500D01*
%TO.C,C4*%
X197471300Y-102927200D02*
X199071300Y-102927200D01*
X197471300Y-103727200D02*
X197471300Y-102927200D01*
X199071300Y-102927200D02*
X199071300Y-103727200D01*
X199071300Y-103727200D02*
X197471300Y-103727200D01*
%TO.C,C2*%
X192000000Y-107812500D02*
X192800000Y-107812500D01*
X192000000Y-109412500D02*
X192000000Y-107812500D01*
X192800000Y-107812500D02*
X192800000Y-109412500D01*
X192800000Y-109412500D02*
X192000000Y-109412500D01*
%TO.C,C7*%
X172822500Y-111310000D02*
X174422500Y-111310000D01*
X172822500Y-112110000D02*
X172822500Y-111310000D01*
X174422500Y-111310000D02*
X174422500Y-112110000D01*
X174422500Y-112110000D02*
X172822500Y-112110000D01*
%TO.C,J11*%
X220680000Y-100190000D02*
X223220000Y-100190000D01*
X220680000Y-120510000D02*
X220680000Y-100190000D01*
X222585000Y-120510000D02*
X220680000Y-120510000D01*
X223220000Y-100190000D02*
X223220000Y-119875000D01*
X223220000Y-119875000D02*
X222585000Y-120510000D01*
%TO.C,R8*%
X217435700Y-111715600D02*
X219035700Y-111715600D01*
X217435700Y-112515600D02*
X217435700Y-111715600D01*
X219035700Y-111715600D02*
X219035700Y-112515600D01*
X219035700Y-112515600D02*
X217435700Y-112515600D01*
%TD*%
M02*
