%TF.GenerationSoftware,KiCad,Pcbnew,9.0.3*%
%TF.CreationDate,2025-09-10T20:52:41+09:00*%
%TF.ProjectId,mirror_Shooter_v2,6d697272-6f72-45f5-9368-6f6f7465725f,rev?*%
%TF.SameCoordinates,Original*%
%TF.FileFunction,Copper,L2,Bot*%
%TF.FilePolarity,Positive*%
%FSLAX46Y46*%
G04 Gerber Fmt 4.6, Leading zero omitted, Abs format (unit mm)*
G04 Created by KiCad (PCBNEW 9.0.3) date 2025-09-10 20:52:41*
%MOMM*%
%LPD*%
G01*
G04 APERTURE LIST*
G04 Aperture macros list*
%AMRoundRect*
0 Rectangle with rounded corners*
0 $1 Rounding radius*
0 $2 $3 $4 $5 $6 $7 $8 $9 X,Y pos of 4 corners*
0 Add a 4 corners polygon primitive as box body*
4,1,4,$2,$3,$4,$5,$6,$7,$8,$9,$2,$3,0*
0 Add four circle primitives for the rounded corners*
1,1,$1+$1,$2,$3*
1,1,$1+$1,$4,$5*
1,1,$1+$1,$6,$7*
1,1,$1+$1,$8,$9*
0 Add four rect primitives between the rounded corners*
20,1,$1+$1,$2,$3,$4,$5,0*
20,1,$1+$1,$4,$5,$6,$7,0*
20,1,$1+$1,$6,$7,$8,$9,0*
20,1,$1+$1,$8,$9,$2,$3,0*%
G04 Aperture macros list end*
%TA.AperFunction,ComponentPad*%
%ADD10RoundRect,0.250000X0.750000X-0.600000X0.750000X0.600000X-0.750000X0.600000X-0.750000X-0.600000X0*%
%TD*%
%TA.AperFunction,ComponentPad*%
%ADD11O,2.000000X1.700000*%
%TD*%
%TA.AperFunction,ComponentPad*%
%ADD12C,1.700000*%
%TD*%
%TA.AperFunction,ComponentPad*%
%ADD13R,1.700000X1.700000*%
%TD*%
%TA.AperFunction,ComponentPad*%
%ADD14RoundRect,0.250000X0.725000X-0.600000X0.725000X0.600000X-0.725000X0.600000X-0.725000X-0.600000X0*%
%TD*%
%TA.AperFunction,ComponentPad*%
%ADD15O,1.950000X1.700000*%
%TD*%
%TA.AperFunction,ComponentPad*%
%ADD16C,2.000000*%
%TD*%
%TA.AperFunction,ViaPad*%
%ADD17C,0.600000*%
%TD*%
%TA.AperFunction,ViaPad*%
%ADD18C,1.000000*%
%TD*%
%TA.AperFunction,Conductor*%
%ADD19C,0.200000*%
%TD*%
%TA.AperFunction,Conductor*%
%ADD20C,1.000000*%
%TD*%
%ADD21C,0.060000*%
%ADD22C,0.150000*%
%ADD23C,0.050000*%
%ADD24C,0.100000*%
G04 APERTURE END LIST*
D10*
%TO.P,J5,1,Pin_1*%
%TO.N,Net-(J4-Pin_1)*%
X162814000Y-118324000D03*
D11*
%TO.P,J5,2,Pin_2*%
%TO.N,Net-(J5-Pin_2)*%
X162814000Y-115824000D03*
%TD*%
D12*
%TO.P,J10,8,Pin_8*%
%TO.N,unconnected-(J10-Pin_8-Pad8)*%
X206700000Y-101460000D03*
%TO.P,J10,7,Pin_7*%
%TO.N,Net-(J10-Pin_7)*%
X206700000Y-104000000D03*
%TO.P,J10,6,Pin_6*%
%TO.N,unconnected-(J10-Pin_6-Pad6)*%
X206700000Y-106540000D03*
%TO.P,J10,5,Pin_5*%
%TO.N,Net-(J10-Pin_5)*%
X206700000Y-109080000D03*
%TO.P,J10,4,Pin_4*%
%TO.N,Net-(J10-Pin_4)*%
X206700000Y-111620000D03*
%TO.P,J10,3,Pin_3*%
%TO.N,3.3v*%
X206700000Y-114160000D03*
%TO.P,J10,2,Pin_2*%
%TO.N,GND*%
X206700000Y-116700000D03*
D13*
%TO.P,J10,1,Pin_1*%
%TO.N,+5V*%
X206700000Y-119240000D03*
%TD*%
D14*
%TO.P,J1,1,Pin_1*%
%TO.N,Net-(J1-Pin_1)*%
X184400000Y-106500000D03*
D15*
%TO.P,J1,2,Pin_2*%
%TO.N,+5V*%
X184400000Y-104000000D03*
%TO.P,J1,3,Pin_3*%
%TO.N,/PWM2*%
X184400000Y-101500000D03*
%TD*%
D14*
%TO.P,J3,1,Pin_1*%
%TO.N,Net-(J3-Pin_1)*%
X170100000Y-106450000D03*
D15*
%TO.P,J3,2,Pin_2*%
%TO.N,+5V*%
X170100000Y-103950000D03*
%TO.P,J3,3,Pin_3*%
%TO.N,/PWM3*%
X170100000Y-101450000D03*
%TD*%
D14*
%TO.P,J2,1,Pin_1*%
%TO.N,Net-(J2-Pin_1)*%
X177250000Y-106500000D03*
D15*
%TO.P,J2,2,Pin_2*%
%TO.N,+5V*%
X177250000Y-104000000D03*
%TO.P,J2,3,Pin_3*%
%TO.N,/PWM1*%
X177250000Y-101500000D03*
%TD*%
D16*
%TO.P,J9,1,Pin_1*%
%TO.N,+5V*%
X199950000Y-118680900D03*
%TO.P,J9,2,Pin_2*%
%TO.N,GND*%
X191950000Y-118680900D03*
%TD*%
D10*
%TO.P,J7,1,Pin_1*%
%TO.N,Net-(J4-Pin_2)*%
X170125000Y-118350000D03*
D11*
%TO.P,J7,2,Pin_2*%
%TO.N,Net-(J5-Pin_2)*%
X170125000Y-115850000D03*
%TD*%
D10*
%TO.P,J8,1,Pin_1*%
%TO.N,Net-(J8-Pin_1)*%
X184425000Y-118350000D03*
D11*
%TO.P,J8,2,Pin_2*%
%TO.N,+5V*%
X184425000Y-115850000D03*
%TD*%
D16*
%TO.P,J4,1,Pin_1*%
%TO.N,Net-(J4-Pin_1)*%
X191950000Y-101180900D03*
%TO.P,J4,2,Pin_2*%
%TO.N,Net-(J4-Pin_2)*%
X195450000Y-101180900D03*
%TD*%
D10*
%TO.P,J6,1,Pin_1*%
%TO.N,Net-(J6-Pin_1)*%
X177275000Y-118350000D03*
D11*
%TO.P,J6,2,Pin_2*%
%TO.N,GND*%
X177275000Y-115850000D03*
%TD*%
D13*
%TO.P,J11,1,Pin_1*%
%TO.N,/TACT*%
X221950000Y-119240000D03*
D12*
%TO.P,J11,2,Pin_2*%
%TO.N,/ON1*%
X221950000Y-116700000D03*
%TO.P,J11,3,Pin_3*%
%TO.N,/ON2*%
X221950000Y-114160000D03*
%TO.P,J11,4,Pin_4*%
%TO.N,unconnected-(J11-Pin_4-Pad4)*%
X221950000Y-111620000D03*
%TO.P,J11,5,Pin_5*%
%TO.N,unconnected-(J11-Pin_5-Pad5)*%
X221950000Y-109080000D03*
%TO.P,J11,6,Pin_6*%
%TO.N,unconnected-(J11-Pin_6-Pad6)*%
X221950000Y-106540000D03*
%TO.P,J11,7,Pin_7*%
%TO.N,/ON3*%
X221950000Y-104000000D03*
%TO.P,J11,8,Pin_8*%
%TO.N,/ON4*%
X221950000Y-101460000D03*
%TD*%
D17*
%TO.N,/PWM2*%
X204724000Y-99187000D03*
%TO.N,Net-(J10-Pin_4)*%
X211074000Y-104394000D03*
X209804000Y-106045000D03*
%TO.N,/PWM3*%
X209042000Y-103759000D03*
%TO.N,+5V*%
X195400000Y-113400000D03*
X175800000Y-110200000D03*
D18*
%TO.N,Net-(J4-Pin_1)*%
X165750000Y-116950000D03*
D17*
%TO.N,GND*%
X200250000Y-101750000D03*
X196750000Y-115250000D03*
X202150000Y-117950000D03*
X199750000Y-105750000D03*
X200000000Y-111250000D03*
%TO.N,/PWM3*%
X187250000Y-99750000D03*
%TO.N,/TACT*%
X219180000Y-108940000D03*
X218100000Y-113780000D03*
%TO.N,Net-(Q1-G)*%
X204250000Y-115500000D03*
X212750000Y-111250000D03*
%TO.N,Net-(Q2-G)*%
X204250000Y-116500000D03*
X213000000Y-112750000D03*
%TO.N,Net-(Q3-G)*%
X214250000Y-106000000D03*
X213500000Y-104250000D03*
%TO.N,Net-(J8-Pin_1)*%
X193800000Y-109750000D03*
%TO.N,Net-(J3-Pin_1)*%
X179200000Y-105600000D03*
X198701000Y-104800000D03*
X195200000Y-104800000D03*
%TO.N,Net-(J1-Pin_1)*%
X198800000Y-114800000D03*
X193400000Y-104600000D03*
%TO.N,Net-(Q4-G)*%
X212750000Y-105000000D03*
X204500000Y-109000000D03*
%TO.N,Net-(J6-Pin_1)*%
X215090000Y-109020000D03*
X213730000Y-114300000D03*
%TO.N,Net-(J10-Pin_5)*%
X212471000Y-103632000D03*
X208407000Y-106172000D03*
%TD*%
D19*
%TO.N,/PWM2*%
X204686000Y-99149000D02*
X186751000Y-99149000D01*
X204724000Y-99187000D02*
X204686000Y-99149000D01*
X186751000Y-99149000D02*
X184400000Y-101500000D01*
%TO.N,/PWM3*%
X187432000Y-99568000D02*
X187250000Y-99750000D01*
X203371000Y-106851000D02*
X202692000Y-106172000D01*
X202692000Y-106172000D02*
X202692000Y-100722000D01*
X204748943Y-106851000D02*
X203371000Y-106851000D01*
X202692000Y-100722000D02*
X201538000Y-99568000D01*
X206448943Y-105151000D02*
X204748943Y-106851000D01*
X207650000Y-105151000D02*
X206448943Y-105151000D01*
X209042000Y-103759000D02*
X207650000Y-105151000D01*
X201538000Y-99568000D02*
X187432000Y-99568000D01*
%TO.N,Net-(J10-Pin_4)*%
X211074000Y-104775000D02*
X211074000Y-104394000D01*
X209804000Y-106045000D02*
X211074000Y-104775000D01*
D20*
%TO.N,Net-(J4-Pin_2)*%
X177951000Y-112799000D02*
X183502530Y-112799000D01*
X195110100Y-101180900D02*
X195450000Y-101180900D01*
X195120630Y-101180900D02*
X195450000Y-101180900D01*
X170125000Y-118350000D02*
X172400000Y-118350000D01*
X183502530Y-112799000D02*
X195120630Y-101180900D01*
X172400000Y-118350000D02*
X177951000Y-112799000D01*
%TO.N,+5V*%
X184425000Y-115850000D02*
X185034000Y-116459000D01*
X178246156Y-108753844D02*
X183000000Y-104000000D01*
X195007900Y-118680900D02*
X199950000Y-118680900D01*
X192341000Y-116459000D02*
X189600000Y-116459000D01*
X183000000Y-104000000D02*
X184400000Y-104000000D01*
X189600000Y-116459000D02*
X192786000Y-116459000D01*
X192786000Y-116459000D02*
X195007900Y-118680900D01*
X195400000Y-113400000D02*
X192341000Y-116459000D01*
X185034000Y-116459000D02*
X189600000Y-116459000D01*
X175800000Y-110200000D02*
X177246156Y-108753844D01*
X177246156Y-108753844D02*
X178246156Y-108753844D01*
%TO.N,Net-(J4-Pin_1)*%
X165750000Y-116050000D02*
X165750000Y-116950000D01*
X170080000Y-111720000D02*
X165750000Y-116050000D01*
X183140000Y-110750000D02*
X176948470Y-110750000D01*
X191950000Y-101180900D02*
X191950000Y-101940000D01*
X191950000Y-101940000D02*
X183140000Y-110750000D01*
X176948470Y-110750000D02*
X175978470Y-111720000D01*
X175978470Y-111720000D02*
X170080000Y-111720000D01*
%TO.N,GND*%
X200250000Y-105250000D02*
X199750000Y-105750000D01*
X199750000Y-111000000D02*
X200000000Y-111250000D01*
X196750000Y-115250000D02*
X198300000Y-116800000D01*
X202150000Y-117950000D02*
X202150000Y-119541000D01*
X199750000Y-105750000D02*
X199750000Y-111000000D01*
X198300000Y-116800000D02*
X201000000Y-116800000D01*
X201000000Y-116800000D02*
X202150000Y-117950000D01*
X200250000Y-101750000D02*
X200250000Y-105250000D01*
X193919100Y-120650000D02*
X191950000Y-118680900D01*
X201041000Y-120650000D02*
X193919100Y-120650000D01*
X202150000Y-119541000D02*
X201041000Y-120650000D01*
D19*
%TO.N,/TACT*%
X218100000Y-113780000D02*
X218100000Y-110020000D01*
X218100000Y-110020000D02*
X219180000Y-108940000D01*
%TO.N,Net-(Q1-G)*%
X208500000Y-115500000D02*
X212750000Y-111250000D01*
X204250000Y-115500000D02*
X208500000Y-115500000D01*
%TO.N,Net-(Q2-G)*%
X204250000Y-116500000D02*
X205601000Y-117851000D01*
X207899000Y-117851000D02*
X213000000Y-112750000D01*
X205601000Y-117851000D02*
X207899000Y-117851000D01*
%TO.N,Net-(Q3-G)*%
X214250000Y-105000000D02*
X214250000Y-106000000D01*
X213500000Y-104250000D02*
X214250000Y-105000000D01*
D20*
%TO.N,Net-(J8-Pin_1)*%
X183100000Y-118350000D02*
X184425000Y-118350000D01*
X181750000Y-117000000D02*
X183100000Y-118350000D01*
X182500000Y-114000000D02*
X181750000Y-114750000D01*
X193800000Y-111450000D02*
X191250000Y-114000000D01*
X181750000Y-114750000D02*
X181750000Y-117000000D01*
X193800000Y-109750000D02*
X193800000Y-111450000D01*
X191250000Y-114000000D02*
X182500000Y-114000000D01*
%TO.N,Net-(J3-Pin_1)*%
X179000000Y-105400000D02*
X179000000Y-100931555D01*
X170100000Y-106331556D02*
X170100000Y-106450000D01*
X179000000Y-100931555D02*
X178017445Y-99949000D01*
X198701000Y-104800000D02*
X195200000Y-104800000D01*
X178017445Y-99949000D02*
X176482556Y-99949000D01*
X176482556Y-99949000D02*
X170100000Y-106331556D01*
X179200000Y-105600000D02*
X179000000Y-105400000D01*
%TO.N,Net-(J1-Pin_1)*%
X193400000Y-107400000D02*
X195200000Y-109200000D01*
X195200000Y-109200000D02*
X195200000Y-111200000D01*
X195200000Y-111200000D02*
X198800000Y-114800000D01*
X193400000Y-104600000D02*
X193400000Y-107400000D01*
D19*
%TO.N,Net-(Q4-G)*%
X205809000Y-107691000D02*
X210059000Y-107691000D01*
X210059000Y-107691000D02*
X212750000Y-105000000D01*
X204500000Y-109000000D02*
X205809000Y-107691000D01*
%TO.N,Net-(J6-Pin_1)*%
X213730000Y-110380000D02*
X215090000Y-109020000D01*
X213730000Y-114300000D02*
X213730000Y-110380000D01*
%TO.N,Net-(J10-Pin_5)*%
X210947000Y-103632000D02*
X208407000Y-106172000D01*
X212471000Y-103632000D02*
X210947000Y-103632000D01*
%TD*%
%TA.AperFunction,Conductor*%
%TO.N,GND*%
G36*
X186379087Y-98424802D02*
G01*
X186404772Y-98428273D01*
X186412066Y-98434485D01*
X186421259Y-98437185D01*
X186438230Y-98456770D01*
X186457963Y-98473578D01*
X186460740Y-98482749D01*
X186467014Y-98489989D01*
X186470702Y-98515639D01*
X186478216Y-98540448D01*
X186475594Y-98549664D01*
X186476958Y-98559147D01*
X186466192Y-98582720D01*
X186459101Y-98607652D01*
X186449842Y-98618520D01*
X186447933Y-98622703D01*
X186442364Y-98627301D01*
X186436215Y-98634520D01*
X186426932Y-98642702D01*
X186382284Y-98668480D01*
X186270480Y-98780284D01*
X186270478Y-98780286D01*
X186267727Y-98783036D01*
X186267719Y-98783044D01*
X184909025Y-100141738D01*
X184847702Y-100175223D01*
X184801946Y-100176530D01*
X184631287Y-100149500D01*
X184168713Y-100149500D01*
X184120042Y-100157208D01*
X183958760Y-100182753D01*
X183756585Y-100248444D01*
X183567179Y-100344951D01*
X183395213Y-100469890D01*
X183244890Y-100620213D01*
X183119951Y-100792179D01*
X183023444Y-100981585D01*
X182957753Y-101183760D01*
X182924500Y-101393713D01*
X182924500Y-101606286D01*
X182951418Y-101776243D01*
X182957754Y-101816243D01*
X183012314Y-101984162D01*
X183023444Y-102018414D01*
X183119951Y-102207820D01*
X183244890Y-102379786D01*
X183395209Y-102530105D01*
X183395214Y-102530109D01*
X183559793Y-102649682D01*
X183576907Y-102671876D01*
X183596477Y-102691943D01*
X183597954Y-102699169D01*
X183602459Y-102705011D01*
X183604857Y-102732938D01*
X183610471Y-102760397D01*
X183607806Y-102767275D01*
X183608438Y-102774625D01*
X183595357Y-102799415D01*
X183585235Y-102825550D01*
X183577695Y-102832889D01*
X183575833Y-102836420D01*
X183559967Y-102850192D01*
X183559808Y-102850307D01*
X183395208Y-102969896D01*
X183393593Y-102971510D01*
X183387859Y-102975692D01*
X183359280Y-102985944D01*
X183331581Y-102998359D01*
X183323060Y-102998938D01*
X183322094Y-102999285D01*
X183321153Y-102999068D01*
X183314800Y-102999500D01*
X182901454Y-102999500D01*
X182869391Y-103005876D01*
X182869392Y-103005877D01*
X182708170Y-103037946D01*
X182708164Y-103037948D01*
X182526088Y-103113366D01*
X182526079Y-103113371D01*
X182362219Y-103222859D01*
X182362215Y-103222862D01*
X180326917Y-105258160D01*
X180303643Y-105270868D01*
X180282386Y-105286729D01*
X180273452Y-105287353D01*
X180265594Y-105291645D01*
X180239140Y-105289753D01*
X180212687Y-105291603D01*
X180204835Y-105287299D01*
X180195902Y-105286661D01*
X180174671Y-105270767D01*
X180151416Y-105258022D01*
X180145202Y-105248706D01*
X180139969Y-105244789D01*
X180130310Y-105229734D01*
X180127183Y-105223987D01*
X180086631Y-105126086D01*
X180018267Y-105023771D01*
X180015574Y-105018820D01*
X180009342Y-104989954D01*
X180000520Y-104961777D01*
X180000500Y-104959565D01*
X180000500Y-101036230D01*
X180000501Y-101036209D01*
X180000501Y-100833012D01*
X180000500Y-100833010D01*
X179992378Y-100792179D01*
X179962052Y-100639720D01*
X179891706Y-100469890D01*
X179886633Y-100457643D01*
X179886628Y-100457634D01*
X179777140Y-100293774D01*
X179777137Y-100293770D01*
X178801654Y-99318289D01*
X178801651Y-99318285D01*
X178801651Y-99318286D01*
X178794584Y-99311219D01*
X178794584Y-99311218D01*
X178655227Y-99171861D01*
X178655226Y-99171860D01*
X178655225Y-99171859D01*
X178491362Y-99062369D01*
X178491359Y-99062368D01*
X178361123Y-99008423D01*
X178309281Y-98986949D01*
X178309273Y-98986947D01*
X178141137Y-98953503D01*
X178141135Y-98953502D01*
X178115986Y-98948500D01*
X176384015Y-98948500D01*
X176358864Y-98953503D01*
X176358863Y-98953503D01*
X176190727Y-98986947D01*
X176190719Y-98986949D01*
X176138878Y-99008423D01*
X176008638Y-99062369D01*
X175910101Y-99128211D01*
X175910100Y-99128212D01*
X175844771Y-99171862D01*
X175844770Y-99171863D01*
X171633859Y-103382775D01*
X171572536Y-103416260D01*
X171502844Y-103411276D01*
X171446911Y-103369404D01*
X171435693Y-103351388D01*
X171380050Y-103242182D01*
X171255109Y-103070213D01*
X171104792Y-102919896D01*
X171104784Y-102919890D01*
X170940204Y-102800316D01*
X170897540Y-102744989D01*
X170891561Y-102675376D01*
X170924166Y-102613580D01*
X170940199Y-102599686D01*
X171104792Y-102480104D01*
X171255104Y-102329792D01*
X171255106Y-102329788D01*
X171255109Y-102329786D01*
X171380048Y-102157820D01*
X171380047Y-102157820D01*
X171380051Y-102157816D01*
X171476557Y-101968412D01*
X171542246Y-101766243D01*
X171575500Y-101556287D01*
X171575500Y-101343713D01*
X171542246Y-101133757D01*
X171476557Y-100931588D01*
X171380051Y-100742184D01*
X171380049Y-100742181D01*
X171380048Y-100742179D01*
X171255109Y-100570213D01*
X171104786Y-100419890D01*
X170932820Y-100294951D01*
X170743414Y-100198444D01*
X170743413Y-100198443D01*
X170743412Y-100198443D01*
X170541243Y-100132754D01*
X170541241Y-100132753D01*
X170541240Y-100132753D01*
X170379957Y-100107208D01*
X170331287Y-100099500D01*
X169868713Y-100099500D01*
X169820042Y-100107208D01*
X169658760Y-100132753D01*
X169456585Y-100198444D01*
X169267179Y-100294951D01*
X169095213Y-100419890D01*
X168944890Y-100570213D01*
X168819951Y-100742179D01*
X168723444Y-100931585D01*
X168657753Y-101133760D01*
X168624500Y-101343713D01*
X168624500Y-101556286D01*
X168656273Y-101756896D01*
X168657754Y-101766243D01*
X168723092Y-101967333D01*
X168723444Y-101968414D01*
X168819951Y-102157820D01*
X168944890Y-102329786D01*
X169095209Y-102480105D01*
X169095214Y-102480109D01*
X169259793Y-102599682D01*
X169302459Y-102655011D01*
X169308438Y-102724625D01*
X169275833Y-102786420D01*
X169259793Y-102800318D01*
X169095214Y-102919890D01*
X169095209Y-102919894D01*
X168944890Y-103070213D01*
X168819951Y-103242179D01*
X168723444Y-103431585D01*
X168657753Y-103633760D01*
X168624500Y-103843713D01*
X168624500Y-104056286D01*
X168652409Y-104232500D01*
X168657754Y-104266243D01*
X168677200Y-104326092D01*
X168723444Y-104468414D01*
X168819951Y-104657820D01*
X168944890Y-104829786D01*
X169083705Y-104968601D01*
X169117190Y-105029924D01*
X169112206Y-105099616D01*
X169070334Y-105155549D01*
X169061121Y-105161821D01*
X168906342Y-105257289D01*
X168782289Y-105381342D01*
X168690187Y-105530663D01*
X168690185Y-105530668D01*
X168673617Y-105580668D01*
X168635001Y-105697203D01*
X168635001Y-105697204D01*
X168635000Y-105697204D01*
X168624500Y-105799983D01*
X168624500Y-107100001D01*
X168624501Y-107100018D01*
X168635000Y-107202796D01*
X168635001Y-107202799D01*
X168690185Y-107369331D01*
X168690187Y-107369336D01*
X168715625Y-107410577D01*
X168782288Y-107518656D01*
X168906344Y-107642712D01*
X169055666Y-107734814D01*
X169222203Y-107789999D01*
X169324991Y-107800500D01*
X170875008Y-107800499D01*
X170977797Y-107789999D01*
X171144334Y-107734814D01*
X171293656Y-107642712D01*
X171417712Y-107518656D01*
X171509814Y-107369334D01*
X171564999Y-107202797D01*
X171575500Y-107100009D01*
X171575499Y-106322336D01*
X171595183Y-106255298D01*
X171611813Y-106234661D01*
X175737446Y-102109029D01*
X175798765Y-102075547D01*
X175868457Y-102080531D01*
X175924390Y-102122403D01*
X175935608Y-102140418D01*
X175944776Y-102158412D01*
X175969951Y-102207819D01*
X176094890Y-102379786D01*
X176245209Y-102530105D01*
X176245214Y-102530109D01*
X176409793Y-102649682D01*
X176452459Y-102705011D01*
X176458438Y-102774625D01*
X176425833Y-102836420D01*
X176409793Y-102850318D01*
X176245214Y-102969890D01*
X176245209Y-102969894D01*
X176094890Y-103120213D01*
X175969951Y-103292179D01*
X175873444Y-103481585D01*
X175807753Y-103683760D01*
X175774500Y-103893713D01*
X175774500Y-104106286D01*
X175799834Y-104266243D01*
X175807754Y-104316243D01*
X175870115Y-104508170D01*
X175873444Y-104518414D01*
X175969951Y-104707820D01*
X176094890Y-104879786D01*
X176233705Y-105018601D01*
X176267190Y-105079924D01*
X176262206Y-105149616D01*
X176220334Y-105205549D01*
X176211121Y-105211821D01*
X176056342Y-105307289D01*
X175932289Y-105431342D01*
X175840187Y-105580663D01*
X175840185Y-105580668D01*
X175813828Y-105660208D01*
X175785001Y-105747203D01*
X175785001Y-105747204D01*
X175785000Y-105747204D01*
X175774500Y-105849983D01*
X175774500Y-107150001D01*
X175774501Y-107150018D01*
X175785000Y-107252796D01*
X175785001Y-107252799D01*
X175840185Y-107419331D01*
X175840187Y-107419336D01*
X175860026Y-107451500D01*
X175932288Y-107568656D01*
X176056344Y-107692712D01*
X176205666Y-107784814D01*
X176372203Y-107839999D01*
X176450920Y-107848040D01*
X176515610Y-107874435D01*
X176555762Y-107931616D01*
X176558626Y-108001427D01*
X176525998Y-108059079D01*
X175022863Y-109562215D01*
X175022860Y-109562219D01*
X174913372Y-109726079D01*
X174913367Y-109726089D01*
X174837949Y-109908163D01*
X174837947Y-109908171D01*
X174799500Y-110101455D01*
X174799500Y-110298544D01*
X174835647Y-110480263D01*
X174837949Y-110491836D01*
X174858150Y-110540606D01*
X174861233Y-110548047D01*
X174868702Y-110617516D01*
X174837427Y-110679995D01*
X174777339Y-110715648D01*
X174746672Y-110719500D01*
X169981457Y-110719500D01*
X169914526Y-110732813D01*
X169914504Y-110732818D01*
X169911741Y-110733368D01*
X169788164Y-110757949D01*
X169760326Y-110769480D01*
X169751702Y-110773051D01*
X169751694Y-110773054D01*
X169606090Y-110833365D01*
X169550034Y-110870821D01*
X169442216Y-110942861D01*
X169442213Y-110942864D01*
X166163926Y-114221153D01*
X165112220Y-115272859D01*
X165112218Y-115272861D01*
X165070031Y-115315048D01*
X164972859Y-115412219D01*
X164863371Y-115576080D01*
X164863369Y-115576084D01*
X164863368Y-115576086D01*
X164838290Y-115636631D01*
X164790729Y-115751455D01*
X164790727Y-115751460D01*
X164787949Y-115758164D01*
X164787946Y-115758175D01*
X164749500Y-115951454D01*
X164749500Y-115951459D01*
X164749500Y-117048541D01*
X164749500Y-117048543D01*
X164749499Y-117048543D01*
X164787947Y-117241829D01*
X164787950Y-117241839D01*
X164863364Y-117423907D01*
X164863371Y-117423920D01*
X164972860Y-117587781D01*
X164972863Y-117587785D01*
X165112214Y-117727136D01*
X165112218Y-117727139D01*
X165276079Y-117836628D01*
X165276092Y-117836635D01*
X165458160Y-117912049D01*
X165458165Y-117912051D01*
X165458169Y-117912051D01*
X165458170Y-117912052D01*
X165651456Y-117950500D01*
X165651459Y-117950500D01*
X165848543Y-117950500D01*
X165978582Y-117924632D01*
X166041835Y-117912051D01*
X166223914Y-117836632D01*
X166387782Y-117727139D01*
X166527139Y-117587782D01*
X166636632Y-117423914D01*
X166712051Y-117241835D01*
X166734040Y-117131289D01*
X166750500Y-117048543D01*
X166750500Y-116515782D01*
X166770185Y-116448743D01*
X166786819Y-116428101D01*
X170458102Y-112756819D01*
X170519425Y-112723334D01*
X170545783Y-112720500D01*
X176077013Y-112720500D01*
X176133788Y-112709206D01*
X176227297Y-112690606D01*
X176270306Y-112682051D01*
X176347432Y-112650104D01*
X176351604Y-112648375D01*
X176355849Y-112646968D01*
X176385358Y-112645945D01*
X176417507Y-112642574D01*
X176421698Y-112644685D01*
X176425677Y-112644548D01*
X176449244Y-112658565D01*
X176479904Y-112674013D01*
X176482436Y-112678306D01*
X176485728Y-112680264D01*
X176497511Y-112703867D01*
X176515399Y-112734195D01*
X176515203Y-112739303D01*
X176516937Y-112742776D01*
X176514050Y-112769357D01*
X176512722Y-112804013D01*
X176509770Y-112808776D01*
X176509395Y-112812237D01*
X176501802Y-112821639D01*
X176482852Y-112852227D01*
X172021899Y-117313181D01*
X171960576Y-117346666D01*
X171934218Y-117349500D01*
X171578958Y-117349500D01*
X171511919Y-117329815D01*
X171473420Y-117290598D01*
X171467712Y-117281344D01*
X171343657Y-117157289D01*
X171343656Y-117157288D01*
X171194334Y-117065186D01*
X171194333Y-117065185D01*
X171188878Y-117061821D01*
X171142154Y-117009873D01*
X171130931Y-116940910D01*
X171158775Y-116876828D01*
X171166272Y-116868623D01*
X171305104Y-116729792D01*
X171430051Y-116557816D01*
X171526557Y-116368412D01*
X171592246Y-116166243D01*
X171625500Y-115956287D01*
X171625500Y-115743713D01*
X171592246Y-115533757D01*
X171526557Y-115331588D01*
X171430051Y-115142184D01*
X171430049Y-115142181D01*
X171430048Y-115142179D01*
X171305109Y-114970213D01*
X171154786Y-114819890D01*
X170982820Y-114694951D01*
X170793414Y-114598444D01*
X170793413Y-114598443D01*
X170793412Y-114598443D01*
X170591243Y-114532754D01*
X170591241Y-114532753D01*
X170591240Y-114532753D01*
X170427080Y-114506753D01*
X170381287Y-114499500D01*
X169868713Y-114499500D01*
X169822920Y-114506753D01*
X169658760Y-114532753D01*
X169456585Y-114598444D01*
X169267179Y-114694951D01*
X169095213Y-114819890D01*
X168944890Y-114970213D01*
X168819951Y-115142179D01*
X168723444Y-115331585D01*
X168657753Y-115533760D01*
X168624500Y-115743713D01*
X168624500Y-115956286D01*
X168652511Y-116133144D01*
X168657754Y-116166243D01*
X168709071Y-116324181D01*
X168723444Y-116368414D01*
X168819951Y-116557820D01*
X168944890Y-116729786D01*
X169083705Y-116868601D01*
X169117190Y-116929924D01*
X169112206Y-116999616D01*
X169070334Y-117055549D01*
X169061121Y-117061821D01*
X168906342Y-117157289D01*
X168782289Y-117281342D01*
X168690187Y-117430663D01*
X168690186Y-117430666D01*
X168635001Y-117597203D01*
X168635001Y-117597204D01*
X168635000Y-117597204D01*
X168624500Y-117699983D01*
X168624500Y-119000001D01*
X168624501Y-119000018D01*
X168635000Y-119102796D01*
X168635001Y-119102799D01*
X168680469Y-119240011D01*
X168690186Y-119269334D01*
X168782288Y-119418656D01*
X168906344Y-119542712D01*
X169055666Y-119634814D01*
X169222203Y-119689999D01*
X169324991Y-119700500D01*
X170925008Y-119700499D01*
X171027797Y-119689999D01*
X171194334Y-119634814D01*
X171343656Y-119542712D01*
X171467712Y-119418656D01*
X171473420Y-119409402D01*
X171525368Y-119362678D01*
X171578958Y-119350500D01*
X172498542Y-119350500D01*
X172522186Y-119345796D01*
X172595188Y-119331275D01*
X172691836Y-119312051D01*
X172754605Y-119286051D01*
X172873914Y-119236632D01*
X173037782Y-119127139D01*
X173177139Y-118987782D01*
X173177139Y-118987780D01*
X173187347Y-118977573D01*
X173187348Y-118977570D01*
X175727166Y-116437753D01*
X175788485Y-116404271D01*
X175858177Y-116409255D01*
X175914110Y-116451127D01*
X175925327Y-116469141D01*
X175970377Y-116557555D01*
X176095272Y-116729459D01*
X176095276Y-116729464D01*
X176234143Y-116868331D01*
X176267628Y-116929654D01*
X176262644Y-116999346D01*
X176220772Y-117055279D01*
X176211559Y-117061551D01*
X176056342Y-117157289D01*
X175932289Y-117281342D01*
X175840187Y-117430663D01*
X175840186Y-117430666D01*
X175785001Y-117597203D01*
X175785001Y-117597204D01*
X175785000Y-117597204D01*
X175774500Y-117699983D01*
X175774500Y-119000001D01*
X175774501Y-119000018D01*
X175785000Y-119102796D01*
X175785001Y-119102799D01*
X175830469Y-119240011D01*
X175840186Y-119269334D01*
X175932288Y-119418656D01*
X176056344Y-119542712D01*
X176205666Y-119634814D01*
X176372203Y-119689999D01*
X176474991Y-119700500D01*
X178075008Y-119700499D01*
X178177797Y-119689999D01*
X178344334Y-119634814D01*
X178493656Y-119542712D01*
X178617712Y-119418656D01*
X178709814Y-119269334D01*
X178764999Y-119102797D01*
X178775500Y-119000009D01*
X178775499Y-117699992D01*
X178764999Y-117597203D01*
X178709814Y-117430666D01*
X178617712Y-117281344D01*
X178493656Y-117157288D01*
X178344334Y-117065186D01*
X178344332Y-117065185D01*
X178338440Y-117061551D01*
X178291716Y-117009603D01*
X178280493Y-116940641D01*
X178308337Y-116876558D01*
X178315856Y-116868330D01*
X178454728Y-116729458D01*
X178579620Y-116557557D01*
X178676095Y-116368217D01*
X178741757Y-116166129D01*
X178741757Y-116166126D01*
X178752231Y-116100000D01*
X177708012Y-116100000D01*
X177740925Y-116042993D01*
X177775000Y-115915826D01*
X177775000Y-115784174D01*
X177740925Y-115657007D01*
X177708012Y-115600000D01*
X178752231Y-115600000D01*
X178741757Y-115533873D01*
X178741757Y-115533870D01*
X178676095Y-115331782D01*
X178579620Y-115142442D01*
X178454727Y-114970540D01*
X178454723Y-114970535D01*
X178304464Y-114820276D01*
X178304459Y-114820272D01*
X178132557Y-114695379D01*
X177943217Y-114598904D01*
X177850965Y-114568930D01*
X177793290Y-114529493D01*
X177766091Y-114465134D01*
X177778006Y-114396288D01*
X177801600Y-114363320D01*
X178329102Y-113835819D01*
X178390425Y-113802334D01*
X178416783Y-113799500D01*
X180986217Y-113799500D01*
X181053256Y-113819185D01*
X181099011Y-113871989D01*
X181108955Y-113941147D01*
X181079930Y-114004703D01*
X181073911Y-114011167D01*
X181047297Y-114037782D01*
X180972859Y-114112219D01*
X180863371Y-114276080D01*
X180863364Y-114276093D01*
X180821174Y-114377950D01*
X180821165Y-114377973D01*
X180820119Y-114380500D01*
X180787949Y-114458164D01*
X180784816Y-114473914D01*
X180782975Y-114483166D01*
X180782975Y-114483168D01*
X180749500Y-114651456D01*
X180749500Y-114651459D01*
X180749500Y-117098541D01*
X180749500Y-117098543D01*
X180749499Y-117098543D01*
X180787947Y-117291829D01*
X180787950Y-117291838D01*
X180863364Y-117473907D01*
X180863371Y-117473920D01*
X180972859Y-117637780D01*
X180972860Y-117637781D01*
X180972861Y-117637782D01*
X181112218Y-117777139D01*
X181112219Y-117777139D01*
X181119286Y-117784206D01*
X181119285Y-117784206D01*
X181119288Y-117784208D01*
X182322860Y-118987781D01*
X182322861Y-118987782D01*
X182411874Y-119076795D01*
X182462219Y-119127140D01*
X182626079Y-119236628D01*
X182626086Y-119236632D01*
X182745395Y-119286051D01*
X182808164Y-119312051D01*
X182904812Y-119331275D01*
X182992688Y-119348755D01*
X183054599Y-119381140D01*
X183074032Y-119405272D01*
X183082288Y-119418656D01*
X183206344Y-119542712D01*
X183355666Y-119634814D01*
X183522203Y-119689999D01*
X183624991Y-119700500D01*
X185225008Y-119700499D01*
X185327797Y-119689999D01*
X185494334Y-119634814D01*
X185643656Y-119542712D01*
X185767712Y-119418656D01*
X185859814Y-119269334D01*
X185914999Y-119102797D01*
X185925500Y-119000009D01*
X185925499Y-118342135D01*
X185925499Y-117699998D01*
X185925498Y-117699983D01*
X185924818Y-117693325D01*
X185914999Y-117597203D01*
X185914998Y-117597200D01*
X185914886Y-117596102D01*
X185927656Y-117527409D01*
X185975536Y-117476525D01*
X186038244Y-117459500D01*
X189501459Y-117459500D01*
X191030792Y-117459500D01*
X191097831Y-117479185D01*
X191118473Y-117495819D01*
X191738941Y-118116287D01*
X191718409Y-118121789D01*
X191581592Y-118200781D01*
X191469881Y-118312492D01*
X191390889Y-118449309D01*
X191385387Y-118469841D01*
X190727340Y-117811794D01*
X190667084Y-117894730D01*
X190559897Y-118105097D01*
X190486934Y-118329652D01*
X190450000Y-118562847D01*
X190450000Y-118798952D01*
X190486934Y-119032147D01*
X190559897Y-119256702D01*
X190667087Y-119467074D01*
X190727338Y-119550004D01*
X190727340Y-119550005D01*
X191385387Y-118891958D01*
X191390889Y-118912491D01*
X191469881Y-119049308D01*
X191581592Y-119161019D01*
X191718409Y-119240011D01*
X191738940Y-119245512D01*
X191080893Y-119903558D01*
X191163828Y-119963814D01*
X191374197Y-120071002D01*
X191598752Y-120143965D01*
X191598751Y-120143965D01*
X191831948Y-120180900D01*
X192068052Y-120180900D01*
X192301247Y-120143965D01*
X192525802Y-120071002D01*
X192736163Y-119963818D01*
X192736169Y-119963814D01*
X192819104Y-119903558D01*
X192819105Y-119903558D01*
X192161058Y-119245512D01*
X192181591Y-119240011D01*
X192318408Y-119161019D01*
X192430119Y-119049308D01*
X192509111Y-118912491D01*
X192514612Y-118891958D01*
X193172658Y-119550005D01*
X193172658Y-119550004D01*
X193232914Y-119467069D01*
X193232918Y-119467063D01*
X193340102Y-119256702D01*
X193413065Y-119032148D01*
X193447620Y-118813977D01*
X193477549Y-118750843D01*
X193536860Y-118713911D01*
X193606723Y-118714909D01*
X193657774Y-118745694D01*
X194227635Y-119315555D01*
X194227664Y-119315586D01*
X194370114Y-119458036D01*
X194370118Y-119458039D01*
X194533979Y-119567528D01*
X194533992Y-119567535D01*
X194662733Y-119620861D01*
X194716059Y-119642949D01*
X194716064Y-119642951D01*
X194793782Y-119658410D01*
X194821874Y-119663998D01*
X194909356Y-119681400D01*
X194909359Y-119681400D01*
X194909360Y-119681400D01*
X195106440Y-119681400D01*
X198777111Y-119681400D01*
X198844150Y-119701085D01*
X198864792Y-119717719D01*
X198972490Y-119825417D01*
X199163567Y-119964243D01*
X199262991Y-120014902D01*
X199374003Y-120071466D01*
X199374005Y-120071466D01*
X199374008Y-120071468D01*
X199494412Y-120110589D01*
X199598631Y-120144453D01*
X199831903Y-120181400D01*
X199831908Y-120181400D01*
X200068097Y-120181400D01*
X200301368Y-120144453D01*
X200321647Y-120137864D01*
X200525992Y-120071468D01*
X200736433Y-119964243D01*
X200927510Y-119825417D01*
X201094517Y-119658410D01*
X201233343Y-119467333D01*
X201340568Y-119256892D01*
X201413553Y-119032268D01*
X201418662Y-119000009D01*
X201450500Y-118798997D01*
X201450500Y-118562802D01*
X201413553Y-118329531D01*
X201379689Y-118225312D01*
X201340568Y-118104908D01*
X201340566Y-118104905D01*
X201340566Y-118104903D01*
X201242301Y-117912049D01*
X201233343Y-117894467D01*
X201094517Y-117703390D01*
X200927510Y-117536383D01*
X200736433Y-117397557D01*
X200525996Y-117290333D01*
X200301368Y-117217346D01*
X200068097Y-117180400D01*
X200068092Y-117180400D01*
X199831908Y-117180400D01*
X199831903Y-117180400D01*
X199598631Y-117217346D01*
X199374003Y-117290333D01*
X199163566Y-117397557D01*
X199078310Y-117459500D01*
X198972490Y-117536383D01*
X198972488Y-117536385D01*
X198972487Y-117536385D01*
X198864792Y-117644081D01*
X198803469Y-117677566D01*
X198777111Y-117680400D01*
X195473682Y-117680400D01*
X195406643Y-117660715D01*
X195386001Y-117644081D01*
X194066101Y-116324181D01*
X194032616Y-116262858D01*
X194037600Y-116193166D01*
X194066101Y-116148819D01*
X195086820Y-115128101D01*
X196177139Y-114037782D01*
X196271728Y-113896216D01*
X196325337Y-113851415D01*
X196394662Y-113842706D01*
X196457690Y-113872861D01*
X196462509Y-113877429D01*
X198162215Y-115577136D01*
X198162219Y-115577139D01*
X198326079Y-115686627D01*
X198326083Y-115686629D01*
X198326086Y-115686631D01*
X198508164Y-115762051D01*
X198701455Y-115800499D01*
X198701458Y-115800500D01*
X198701460Y-115800500D01*
X198898542Y-115800500D01*
X198898543Y-115800499D01*
X199091836Y-115762051D01*
X199273914Y-115686631D01*
X199437781Y-115577139D01*
X199577139Y-115437781D01*
X199686631Y-115273914D01*
X199762051Y-115091836D01*
X199800500Y-114898540D01*
X199800500Y-114701460D01*
X199800500Y-114701457D01*
X199800499Y-114701455D01*
X199795915Y-114678412D01*
X199762051Y-114508164D01*
X199686631Y-114326086D01*
X199686629Y-114326083D01*
X199686627Y-114326079D01*
X199577139Y-114162219D01*
X199577136Y-114162215D01*
X196236819Y-110821898D01*
X196203334Y-110760575D01*
X196200500Y-110734217D01*
X196200500Y-109101458D01*
X196200499Y-109101457D01*
X196189405Y-109045679D01*
X196162051Y-108908164D01*
X196103373Y-108766503D01*
X196086632Y-108726086D01*
X195977139Y-108562218D01*
X195837782Y-108422861D01*
X195837781Y-108422860D01*
X194436819Y-107021898D01*
X194403334Y-106960575D01*
X194400500Y-106934217D01*
X194400500Y-105701070D01*
X194420185Y-105634031D01*
X194472989Y-105588276D01*
X194542147Y-105578332D01*
X194593391Y-105597968D01*
X194726079Y-105686628D01*
X194726092Y-105686635D01*
X194872311Y-105747200D01*
X194908165Y-105762051D01*
X194908169Y-105762051D01*
X194908170Y-105762052D01*
X195101456Y-105800500D01*
X195101459Y-105800500D01*
X198799543Y-105800500D01*
X198970418Y-105766510D01*
X198992835Y-105762051D01*
X199174914Y-105686632D01*
X199338782Y-105577139D01*
X199478139Y-105437782D01*
X199587632Y-105273914D01*
X199594158Y-105258160D01*
X199635017Y-105159516D01*
X199663051Y-105091835D01*
X199687564Y-104968601D01*
X199701500Y-104898543D01*
X199701500Y-104701456D01*
X199663052Y-104508170D01*
X199663051Y-104508169D01*
X199663051Y-104508165D01*
X199593973Y-104341394D01*
X199587635Y-104326092D01*
X199587628Y-104326079D01*
X199478139Y-104162218D01*
X199478136Y-104162214D01*
X199338785Y-104022863D01*
X199338781Y-104022860D01*
X199174920Y-103913371D01*
X199174907Y-103913364D01*
X198992839Y-103837950D01*
X198992829Y-103837947D01*
X198799543Y-103799500D01*
X198799541Y-103799500D01*
X195101459Y-103799500D01*
X195101457Y-103799500D01*
X194908170Y-103837947D01*
X194908160Y-103837950D01*
X194726092Y-103913364D01*
X194726079Y-103913371D01*
X194562218Y-104022860D01*
X194462509Y-104122569D01*
X194401186Y-104156053D01*
X194331494Y-104151069D01*
X194275561Y-104109197D01*
X194271726Y-104103777D01*
X194177142Y-103962222D01*
X194177136Y-103962214D01*
X194053367Y-103838445D01*
X194019882Y-103777122D01*
X194024866Y-103707430D01*
X194053367Y-103663083D01*
X194493591Y-103222859D01*
X195030964Y-102685485D01*
X195092285Y-102652002D01*
X195138041Y-102650695D01*
X195331903Y-102681400D01*
X195331908Y-102681400D01*
X195568097Y-102681400D01*
X195801368Y-102644453D01*
X195821471Y-102637921D01*
X196025992Y-102571468D01*
X196236433Y-102464243D01*
X196427510Y-102325417D01*
X196594517Y-102158410D01*
X196733343Y-101967333D01*
X196840568Y-101756892D01*
X196913553Y-101532268D01*
X196935498Y-101393713D01*
X196950500Y-101298997D01*
X196950500Y-101062802D01*
X196913553Y-100829531D01*
X196851879Y-100639719D01*
X196840568Y-100604908D01*
X196840566Y-100604905D01*
X196840566Y-100604903D01*
X196782130Y-100490216D01*
X196733343Y-100394467D01*
X196712213Y-100365385D01*
X196688734Y-100299580D01*
X196704559Y-100231526D01*
X196754664Y-100182831D01*
X196812532Y-100168500D01*
X201237903Y-100168500D01*
X201304942Y-100188185D01*
X201325584Y-100204819D01*
X202055181Y-100934416D01*
X202088666Y-100995739D01*
X202091500Y-101022097D01*
X202091500Y-106085330D01*
X202091499Y-106085348D01*
X202091499Y-106251054D01*
X202091498Y-106251054D01*
X202132423Y-106403787D01*
X202138156Y-106413716D01*
X202138158Y-106413718D01*
X202211477Y-106540712D01*
X202211481Y-106540717D01*
X202330349Y-106659585D01*
X202330355Y-106659590D01*
X202886139Y-107215374D01*
X202886149Y-107215385D01*
X202890479Y-107219715D01*
X202890480Y-107219716D01*
X203002284Y-107331520D01*
X203067782Y-107369334D01*
X203089095Y-107381639D01*
X203089097Y-107381641D01*
X203127151Y-107403611D01*
X203139215Y-107410577D01*
X203291943Y-107451501D01*
X203291946Y-107451501D01*
X203457653Y-107451501D01*
X203457669Y-107451500D01*
X204662274Y-107451500D01*
X204662290Y-107451501D01*
X204669886Y-107451501D01*
X204827998Y-107451501D01*
X204828000Y-107451501D01*
X204888151Y-107435383D01*
X204957998Y-107437044D01*
X205015862Y-107476206D01*
X205043367Y-107540434D01*
X205031781Y-107609336D01*
X205007925Y-107642838D01*
X204485339Y-108165425D01*
X204424016Y-108198910D01*
X204421850Y-108199361D01*
X204266508Y-108230261D01*
X204266498Y-108230264D01*
X204120827Y-108290602D01*
X204120814Y-108290609D01*
X203989711Y-108378210D01*
X203989707Y-108378213D01*
X203878213Y-108489707D01*
X203878210Y-108489711D01*
X203790609Y-108620814D01*
X203790602Y-108620827D01*
X203730264Y-108766498D01*
X203730261Y-108766510D01*
X203699500Y-108921153D01*
X203699500Y-109078846D01*
X203730261Y-109233489D01*
X203730264Y-109233501D01*
X203790602Y-109379172D01*
X203790609Y-109379185D01*
X203878210Y-109510288D01*
X203878213Y-109510292D01*
X203989707Y-109621786D01*
X203989711Y-109621789D01*
X204120814Y-109709390D01*
X204120827Y-109709397D01*
X204210804Y-109746666D01*
X204266503Y-109769737D01*
X204421153Y-109800499D01*
X204421156Y-109800500D01*
X204421158Y-109800500D01*
X204578844Y-109800500D01*
X204578845Y-109800499D01*
X204733497Y-109769737D01*
X204846166Y-109723067D01*
X204879172Y-109709397D01*
X204879172Y-109709396D01*
X204879179Y-109709394D01*
X205010289Y-109621789D01*
X205121789Y-109510289D01*
X205161880Y-109450289D01*
X205180272Y-109422764D01*
X205233884Y-109377958D01*
X205303209Y-109369251D01*
X205366236Y-109399405D01*
X205401304Y-109453335D01*
X205444934Y-109587613D01*
X205448444Y-109598414D01*
X205544951Y-109787820D01*
X205669890Y-109959786D01*
X205820213Y-110110109D01*
X205992182Y-110235050D01*
X206000946Y-110239516D01*
X206051742Y-110287491D01*
X206068536Y-110355312D01*
X206045998Y-110421447D01*
X206000946Y-110460484D01*
X205992182Y-110464949D01*
X205820213Y-110589890D01*
X205669890Y-110740213D01*
X205544951Y-110912179D01*
X205448444Y-111101585D01*
X205382753Y-111303760D01*
X205349500Y-111513713D01*
X205349500Y-111726286D01*
X205378972Y-111912368D01*
X205382754Y-111936243D01*
X205444930Y-112127601D01*
X205448444Y-112138414D01*
X205544951Y-112327820D01*
X205669890Y-112499786D01*
X205820213Y-112650109D01*
X205992182Y-112775050D01*
X206000946Y-112779516D01*
X206051742Y-112827491D01*
X206068536Y-112895312D01*
X206045998Y-112961447D01*
X206000946Y-113000484D01*
X205992182Y-113004949D01*
X205820213Y-113129890D01*
X205669890Y-113280213D01*
X205544951Y-113452179D01*
X205448444Y-113641585D01*
X205382753Y-113843760D01*
X205370549Y-113920814D01*
X205349500Y-114053713D01*
X205349500Y-114266287D01*
X205353302Y-114290289D01*
X205382319Y-114473500D01*
X205382754Y-114476243D01*
X205445368Y-114668949D01*
X205448444Y-114678414D01*
X205469228Y-114719205D01*
X205482124Y-114787874D01*
X205455848Y-114852615D01*
X205398741Y-114892872D01*
X205358743Y-114899500D01*
X204829766Y-114899500D01*
X204762727Y-114879815D01*
X204760875Y-114878602D01*
X204629185Y-114790609D01*
X204629172Y-114790602D01*
X204483501Y-114730264D01*
X204483489Y-114730261D01*
X204328845Y-114699500D01*
X204328842Y-114699500D01*
X204171158Y-114699500D01*
X204171155Y-114699500D01*
X204016510Y-114730261D01*
X204016498Y-114730264D01*
X203870827Y-114790602D01*
X203870814Y-114790609D01*
X203739711Y-114878210D01*
X203739707Y-114878213D01*
X203628213Y-114989707D01*
X203628210Y-114989711D01*
X203540609Y-115120814D01*
X203540602Y-115120827D01*
X203480264Y-115266498D01*
X203480261Y-115266510D01*
X203449500Y-115421153D01*
X203449500Y-115578846D01*
X203480261Y-115733489D01*
X203480264Y-115733501D01*
X203540602Y-115879172D01*
X203540609Y-115879185D01*
X203575304Y-115931109D01*
X203596182Y-115997786D01*
X203577698Y-116065167D01*
X203575304Y-116068891D01*
X203540609Y-116120814D01*
X203540602Y-116120827D01*
X203480264Y-116266498D01*
X203480261Y-116266510D01*
X203449500Y-116421153D01*
X203449500Y-116578846D01*
X203480261Y-116733488D01*
X203480264Y-116733501D01*
X203540602Y-116879172D01*
X203540609Y-116879185D01*
X203628210Y-117010288D01*
X203628213Y-117010292D01*
X203739707Y-117121786D01*
X203739711Y-117121789D01*
X203870814Y-117209390D01*
X203870827Y-117209397D01*
X203970060Y-117250500D01*
X204016503Y-117269737D01*
X204074845Y-117281342D01*
X204171849Y-117300638D01*
X204233760Y-117333023D01*
X204235337Y-117334572D01*
X205232284Y-118331520D01*
X205232285Y-118331521D01*
X205232287Y-118331522D01*
X205250670Y-118342135D01*
X205287499Y-118363398D01*
X205335715Y-118413963D01*
X205349500Y-118470785D01*
X205349500Y-120137870D01*
X205349501Y-120137876D01*
X205355908Y-120197483D01*
X205406202Y-120332328D01*
X205406206Y-120332335D01*
X205492452Y-120447544D01*
X205492455Y-120447547D01*
X205607664Y-120533793D01*
X205607671Y-120533797D01*
X205742517Y-120584091D01*
X205742516Y-120584091D01*
X205749444Y-120584835D01*
X205802127Y-120590500D01*
X207597872Y-120590499D01*
X207657483Y-120584091D01*
X207792331Y-120533796D01*
X207907546Y-120447546D01*
X207993796Y-120332331D01*
X208044091Y-120197483D01*
X208050500Y-120137873D01*
X208050499Y-118526685D01*
X208054233Y-118513967D01*
X208053242Y-118500748D01*
X208063887Y-118481091D01*
X208070184Y-118459647D01*
X208080946Y-118449592D01*
X208086515Y-118439309D01*
X208105783Y-118426386D01*
X208114696Y-118418060D01*
X208125920Y-118411880D01*
X208130785Y-118410577D01*
X208180904Y-118381639D01*
X208267716Y-118331520D01*
X208379520Y-118219716D01*
X208379520Y-118219714D01*
X208389728Y-118209507D01*
X208389729Y-118209504D01*
X208580522Y-118018711D01*
X214639500Y-118018711D01*
X214639500Y-118261288D01*
X214671161Y-118501785D01*
X214733947Y-118736104D01*
X214807009Y-118912491D01*
X214826776Y-118960212D01*
X214948064Y-119170289D01*
X214948066Y-119170292D01*
X214948067Y-119170293D01*
X215095733Y-119362736D01*
X215095739Y-119362743D01*
X215267256Y-119534260D01*
X215267263Y-119534266D01*
X215287775Y-119550005D01*
X215459711Y-119681936D01*
X215669788Y-119803224D01*
X215893900Y-119896054D01*
X216128211Y-119958838D01*
X216308586Y-119982584D01*
X216368711Y-119990500D01*
X216368712Y-119990500D01*
X216611289Y-119990500D01*
X216659388Y-119984167D01*
X216851789Y-119958838D01*
X217086100Y-119896054D01*
X217310212Y-119803224D01*
X217520289Y-119681936D01*
X217712738Y-119534265D01*
X217884265Y-119362738D01*
X218031936Y-119170289D01*
X218153224Y-118960212D01*
X218246054Y-118736100D01*
X218308838Y-118501789D01*
X218340500Y-118261288D01*
X218340500Y-118018712D01*
X218308838Y-117778211D01*
X218246054Y-117543900D01*
X218153224Y-117319788D01*
X218031936Y-117109711D01*
X217884265Y-116917262D01*
X217884260Y-116917256D01*
X217712743Y-116745739D01*
X217712736Y-116745733D01*
X217520293Y-116598067D01*
X217520292Y-116598066D01*
X217520289Y-116598064D01*
X217310212Y-116476776D01*
X217310205Y-116476773D01*
X217086104Y-116383947D01*
X216851785Y-116321161D01*
X216611289Y-116289500D01*
X216611288Y-116289500D01*
X216368712Y-116289500D01*
X216368711Y-116289500D01*
X216128214Y-116321161D01*
X215893895Y-116383947D01*
X215669794Y-116476773D01*
X215669785Y-116476777D01*
X215459706Y-116598067D01*
X215267263Y-116745733D01*
X215267256Y-116745739D01*
X215095739Y-116917256D01*
X215095733Y-116917263D01*
X214948067Y-117109706D01*
X214948064Y-117109710D01*
X214948064Y-117109711D01*
X214941091Y-117121789D01*
X214826777Y-117319785D01*
X214826773Y-117319794D01*
X214733947Y-117543895D01*
X214671161Y-117778214D01*
X214639500Y-118018711D01*
X208580522Y-118018711D01*
X212822441Y-113776793D01*
X212883762Y-113743310D01*
X212953454Y-113748294D01*
X213009387Y-113790166D01*
X213033804Y-113855630D01*
X213021276Y-113914504D01*
X213022937Y-113915192D01*
X212960264Y-114066498D01*
X212960261Y-114066510D01*
X212929500Y-114221153D01*
X212929500Y-114378846D01*
X212960261Y-114533489D01*
X212960264Y-114533501D01*
X213020602Y-114679172D01*
X213020609Y-114679185D01*
X213108210Y-114810288D01*
X213108213Y-114810292D01*
X213219707Y-114921786D01*
X213219711Y-114921789D01*
X213350814Y-115009390D01*
X213350827Y-115009397D01*
X213439329Y-115046055D01*
X213496503Y-115069737D01*
X213651153Y-115100499D01*
X213651156Y-115100500D01*
X213651158Y-115100500D01*
X213808844Y-115100500D01*
X213808845Y-115100499D01*
X213963497Y-115069737D01*
X214109179Y-115009394D01*
X214240289Y-114921789D01*
X214351789Y-114810289D01*
X214439394Y-114679179D01*
X214499737Y-114533497D01*
X214530500Y-114378842D01*
X214530500Y-114221158D01*
X214530500Y-114221155D01*
X214530499Y-114221153D01*
X214518173Y-114159185D01*
X214499737Y-114066503D01*
X214487842Y-114037786D01*
X214439397Y-113920827D01*
X214439390Y-113920814D01*
X214351398Y-113789125D01*
X214345747Y-113771078D01*
X214335523Y-113755169D01*
X214331071Y-113724207D01*
X214330520Y-113722447D01*
X214330500Y-113720234D01*
X214330500Y-113701153D01*
X217299500Y-113701153D01*
X217299500Y-113858846D01*
X217330261Y-114013489D01*
X217330264Y-114013501D01*
X217390602Y-114159172D01*
X217390609Y-114159185D01*
X217478210Y-114290288D01*
X217478213Y-114290292D01*
X217589707Y-114401786D01*
X217589711Y-114401789D01*
X217720814Y-114489390D01*
X217720827Y-114489397D01*
X217866498Y-114549735D01*
X217866503Y-114549737D01*
X218021153Y-114580499D01*
X218021156Y-114580500D01*
X218021158Y-114580500D01*
X218178844Y-114580500D01*
X218178845Y-114580499D01*
X218333497Y-114549737D01*
X218479179Y-114489394D01*
X218610289Y-114401789D01*
X218721789Y-114290289D01*
X218809394Y-114159179D01*
X218869737Y-114013497D01*
X218900500Y-113858842D01*
X218900500Y-113701158D01*
X218900500Y-113701155D01*
X218900499Y-113701153D01*
X218869738Y-113546510D01*
X218869737Y-113546503D01*
X218830667Y-113452179D01*
X218809397Y-113400827D01*
X218809390Y-113400814D01*
X218721398Y-113269125D01*
X218700520Y-113202447D01*
X218700500Y-113200234D01*
X218700500Y-110320097D01*
X218720185Y-110253058D01*
X218736819Y-110232416D01*
X218957953Y-110011282D01*
X219194664Y-109774571D01*
X219255985Y-109741088D01*
X219258152Y-109740637D01*
X219258841Y-109740500D01*
X219258842Y-109740500D01*
X219413497Y-109709737D01*
X219526166Y-109663067D01*
X219559172Y-109649397D01*
X219559172Y-109649396D01*
X219559179Y-109649394D01*
X219690289Y-109561789D01*
X219801789Y-109450289D01*
X219889394Y-109319179D01*
X219949737Y-109173497D01*
X219980500Y-109018842D01*
X219980500Y-108861158D01*
X219980500Y-108861155D01*
X219980499Y-108861153D01*
X219961126Y-108763760D01*
X219949737Y-108706503D01*
X219949735Y-108706498D01*
X219889397Y-108560827D01*
X219889390Y-108560814D01*
X219801789Y-108429711D01*
X219801786Y-108429707D01*
X219690292Y-108318213D01*
X219690288Y-108318210D01*
X219559185Y-108230609D01*
X219559172Y-108230602D01*
X219413501Y-108170264D01*
X219413489Y-108170261D01*
X219258845Y-108139500D01*
X219258842Y-108139500D01*
X219101158Y-108139500D01*
X219101155Y-108139500D01*
X218946510Y-108170261D01*
X218946498Y-108170264D01*
X218800827Y-108230602D01*
X218800814Y-108230609D01*
X218669711Y-108318210D01*
X218669707Y-108318213D01*
X218558213Y-108429707D01*
X218558210Y-108429711D01*
X218470609Y-108560814D01*
X218470602Y-108560827D01*
X218410264Y-108706498D01*
X218410261Y-108706508D01*
X218379362Y-108861848D01*
X218346977Y-108923759D01*
X218345426Y-108925337D01*
X217731286Y-109539478D01*
X217619481Y-109651282D01*
X217619479Y-109651285D01*
X217574385Y-109729392D01*
X217574384Y-109729393D01*
X217540423Y-109788214D01*
X217540423Y-109788215D01*
X217499499Y-109940943D01*
X217499499Y-109940945D01*
X217499499Y-110109046D01*
X217499500Y-110109059D01*
X217499500Y-113200234D01*
X217479815Y-113267273D01*
X217478602Y-113269125D01*
X217390609Y-113400814D01*
X217390602Y-113400827D01*
X217330264Y-113546498D01*
X217330261Y-113546510D01*
X217299500Y-113701153D01*
X214330500Y-113701153D01*
X214330500Y-110680097D01*
X214350185Y-110613058D01*
X214366819Y-110592416D01*
X214726819Y-110232416D01*
X215104662Y-109854572D01*
X215165983Y-109821089D01*
X215168150Y-109820638D01*
X215226085Y-109809113D01*
X215323497Y-109789737D01*
X215469179Y-109729394D01*
X215600289Y-109641789D01*
X215711789Y-109530289D01*
X215799394Y-109399179D01*
X215859737Y-109253497D01*
X215890500Y-109098842D01*
X215890500Y-108941158D01*
X215890500Y-108941155D01*
X215890499Y-108941153D01*
X215880575Y-108891264D01*
X215859737Y-108786503D01*
X215859735Y-108786498D01*
X215799397Y-108640827D01*
X215799390Y-108640814D01*
X215711789Y-108509711D01*
X215711786Y-108509707D01*
X215600292Y-108398213D01*
X215600288Y-108398210D01*
X215469185Y-108310609D01*
X215469172Y-108310602D01*
X215323501Y-108250264D01*
X215323489Y-108250261D01*
X215168845Y-108219500D01*
X215168842Y-108219500D01*
X215011158Y-108219500D01*
X215011155Y-108219500D01*
X214856510Y-108250261D01*
X214856498Y-108250264D01*
X214710827Y-108310602D01*
X214710814Y-108310609D01*
X214579711Y-108398210D01*
X214579707Y-108398213D01*
X214468213Y-108509707D01*
X214468210Y-108509711D01*
X214380609Y-108640814D01*
X214380602Y-108640827D01*
X214320264Y-108786498D01*
X214320261Y-108786508D01*
X214289361Y-108941850D01*
X214256976Y-109003761D01*
X214255425Y-109005339D01*
X213249481Y-110011282D01*
X213249477Y-110011287D01*
X213205979Y-110086630D01*
X213205979Y-110086631D01*
X213170423Y-110148214D01*
X213170423Y-110148215D01*
X213129499Y-110300943D01*
X213129499Y-110300945D01*
X213129499Y-110358210D01*
X213109814Y-110425249D01*
X213057010Y-110471004D01*
X212987852Y-110480948D01*
X212981308Y-110479827D01*
X212828845Y-110449500D01*
X212828842Y-110449500D01*
X212671158Y-110449500D01*
X212671155Y-110449500D01*
X212516510Y-110480261D01*
X212516498Y-110480264D01*
X212370827Y-110540602D01*
X212370814Y-110540609D01*
X212239711Y-110628210D01*
X212239707Y-110628213D01*
X212128213Y-110739707D01*
X212128210Y-110739711D01*
X212040609Y-110870814D01*
X212040602Y-110870827D01*
X211980264Y-111016498D01*
X211980261Y-111016508D01*
X211949362Y-111171848D01*
X211916977Y-111233759D01*
X211915426Y-111235337D01*
X208287584Y-114863181D01*
X208260656Y-114877884D01*
X208234838Y-114894477D01*
X208228637Y-114895368D01*
X208226261Y-114896666D01*
X208199903Y-114899500D01*
X208041257Y-114899500D01*
X207974218Y-114879815D01*
X207928463Y-114827011D01*
X207918519Y-114757853D01*
X207930772Y-114719205D01*
X207940812Y-114699500D01*
X207951557Y-114678412D01*
X208017246Y-114476243D01*
X208050500Y-114266287D01*
X208050500Y-114053713D01*
X208017246Y-113843757D01*
X207951557Y-113641588D01*
X207855051Y-113452184D01*
X207855049Y-113452181D01*
X207855048Y-113452179D01*
X207730109Y-113280213D01*
X207579786Y-113129890D01*
X207407820Y-113004951D01*
X207407115Y-113004591D01*
X207399054Y-113000485D01*
X207348259Y-112952512D01*
X207331463Y-112884692D01*
X207353999Y-112818556D01*
X207399054Y-112779515D01*
X207407816Y-112775051D01*
X207482900Y-112720500D01*
X207579786Y-112650109D01*
X207579792Y-112650104D01*
X207623264Y-112606632D01*
X207730104Y-112499792D01*
X207730106Y-112499788D01*
X207730109Y-112499786D01*
X207855048Y-112327820D01*
X207855047Y-112327820D01*
X207855051Y-112327816D01*
X207951557Y-112138412D01*
X208017246Y-111936243D01*
X208050500Y-111726287D01*
X208050500Y-111513713D01*
X208017246Y-111303757D01*
X207951557Y-111101588D01*
X207855051Y-110912184D01*
X207855049Y-110912181D01*
X207855048Y-110912179D01*
X207730109Y-110740213D01*
X207579786Y-110589890D01*
X207407820Y-110464951D01*
X207407115Y-110464591D01*
X207399054Y-110460485D01*
X207348259Y-110412512D01*
X207331463Y-110344692D01*
X207353999Y-110278556D01*
X207399054Y-110239515D01*
X207407816Y-110235051D01*
X207429789Y-110219086D01*
X207579786Y-110110109D01*
X207579788Y-110110106D01*
X207579792Y-110110104D01*
X207730104Y-109959792D01*
X207730106Y-109959788D01*
X207730109Y-109959786D01*
X207855048Y-109787820D01*
X207855047Y-109787820D01*
X207855051Y-109787816D01*
X207951557Y-109598412D01*
X208017246Y-109396243D01*
X208050500Y-109186287D01*
X208050500Y-108973713D01*
X208017246Y-108763757D01*
X207951557Y-108561588D01*
X207905804Y-108471794D01*
X207892909Y-108403126D01*
X207919185Y-108338385D01*
X207976291Y-108298128D01*
X208016290Y-108291500D01*
X209972331Y-108291500D01*
X209972347Y-108291501D01*
X209979943Y-108291501D01*
X210138054Y-108291501D01*
X210138057Y-108291501D01*
X210290785Y-108250577D01*
X210378026Y-108200208D01*
X210427716Y-108171520D01*
X210539520Y-108059716D01*
X210539520Y-108059714D01*
X210549724Y-108049511D01*
X210549727Y-108049506D01*
X212764664Y-105834571D01*
X212825985Y-105801088D01*
X212828152Y-105800637D01*
X212828841Y-105800500D01*
X212828842Y-105800500D01*
X212983497Y-105769737D01*
X213129179Y-105709394D01*
X213260289Y-105621789D01*
X213297331Y-105584747D01*
X213358653Y-105551261D01*
X213428345Y-105556245D01*
X213484279Y-105598115D01*
X213508697Y-105663579D01*
X213499575Y-105719878D01*
X213480263Y-105766502D01*
X213480261Y-105766510D01*
X213449500Y-105921153D01*
X213449500Y-106078846D01*
X213480261Y-106233489D01*
X213480264Y-106233501D01*
X213540602Y-106379172D01*
X213540609Y-106379185D01*
X213628210Y-106510288D01*
X213628213Y-106510292D01*
X213739707Y-106621786D01*
X213739711Y-106621789D01*
X213870814Y-106709390D01*
X213870827Y-106709397D01*
X214016498Y-106769735D01*
X214016503Y-106769737D01*
X214137405Y-106793786D01*
X214171153Y-106800499D01*
X214171156Y-106800500D01*
X214171158Y-106800500D01*
X214328844Y-106800500D01*
X214328845Y-106800499D01*
X214483497Y-106769737D01*
X214629179Y-106709394D01*
X214760289Y-106621789D01*
X214871789Y-106510289D01*
X214959394Y-106379179D01*
X215019737Y-106233497D01*
X215050500Y-106078842D01*
X215050500Y-105921158D01*
X215050500Y-105921155D01*
X215050499Y-105921153D01*
X215045945Y-105898261D01*
X215019737Y-105766503D01*
X215011743Y-105747203D01*
X214959397Y-105620827D01*
X214959390Y-105620814D01*
X214871398Y-105489125D01*
X214850520Y-105422447D01*
X214850500Y-105420234D01*
X214850500Y-104920945D01*
X214850500Y-104920943D01*
X214827069Y-104833497D01*
X214809577Y-104768215D01*
X214771035Y-104701459D01*
X214730520Y-104631284D01*
X214618716Y-104519480D01*
X214614385Y-104515149D01*
X214614374Y-104515139D01*
X214334574Y-104235339D01*
X214301089Y-104174016D01*
X214300638Y-104171849D01*
X214282595Y-104081147D01*
X214269737Y-104016503D01*
X214242398Y-103950500D01*
X214209397Y-103870827D01*
X214209390Y-103870814D01*
X214121789Y-103739711D01*
X214121786Y-103739707D01*
X214010292Y-103628213D01*
X214010288Y-103628210D01*
X213879185Y-103540609D01*
X213879172Y-103540602D01*
X213733501Y-103480264D01*
X213733489Y-103480261D01*
X213578845Y-103449500D01*
X213578842Y-103449500D01*
X213421158Y-103449500D01*
X213373793Y-103458921D01*
X213304201Y-103452692D01*
X213249025Y-103409829D01*
X213235042Y-103384755D01*
X213232998Y-103379821D01*
X213217604Y-103342654D01*
X213180397Y-103252826D01*
X213180390Y-103252814D01*
X213092789Y-103121711D01*
X213092786Y-103121707D01*
X212981292Y-103010213D01*
X212981288Y-103010210D01*
X212850185Y-102922609D01*
X212850172Y-102922602D01*
X212704501Y-102862264D01*
X212704489Y-102862261D01*
X212549845Y-102831500D01*
X212549842Y-102831500D01*
X212392158Y-102831500D01*
X212392155Y-102831500D01*
X212237510Y-102862261D01*
X212237498Y-102862264D01*
X212091827Y-102922602D01*
X212091814Y-102922609D01*
X211960125Y-103010602D01*
X211893447Y-103031480D01*
X211891234Y-103031500D01*
X211026057Y-103031500D01*
X210867942Y-103031500D01*
X210843875Y-103037949D01*
X210800988Y-103049440D01*
X210715214Y-103072423D01*
X210715209Y-103072426D01*
X210578290Y-103151475D01*
X210578282Y-103151481D01*
X210466478Y-103263286D01*
X210040901Y-103688862D01*
X209979578Y-103722347D01*
X209909886Y-103717363D01*
X209853953Y-103675491D01*
X209831603Y-103625373D01*
X209811738Y-103525508D01*
X209811737Y-103525507D01*
X209811737Y-103525503D01*
X209792998Y-103480263D01*
X209751397Y-103379827D01*
X209751390Y-103379814D01*
X209663789Y-103248711D01*
X209663786Y-103248707D01*
X209552292Y-103137213D01*
X209552288Y-103137210D01*
X209421185Y-103049609D01*
X209421172Y-103049602D01*
X209275501Y-102989264D01*
X209275489Y-102989261D01*
X209120845Y-102958500D01*
X209120842Y-102958500D01*
X208963158Y-102958500D01*
X208963155Y-102958500D01*
X208808510Y-102989261D01*
X208808498Y-102989264D01*
X208662827Y-103049602D01*
X208662814Y-103049609D01*
X208531711Y-103137210D01*
X208531707Y-103137213D01*
X208420213Y-103248707D01*
X208420210Y-103248711D01*
X208332609Y-103379814D01*
X208332602Y-103379827D01*
X208272264Y-103525498D01*
X208272262Y-103525507D01*
X208248605Y-103644432D01*
X208216219Y-103706342D01*
X208155503Y-103740916D01*
X208085734Y-103737175D01*
X208029062Y-103696308D01*
X208009059Y-103658561D01*
X207951557Y-103481588D01*
X207855051Y-103292184D01*
X207855049Y-103292181D01*
X207855048Y-103292179D01*
X207730109Y-103120213D01*
X207579786Y-102969890D01*
X207407820Y-102844951D01*
X207407115Y-102844591D01*
X207399054Y-102840485D01*
X207348259Y-102792512D01*
X207331463Y-102724692D01*
X207353999Y-102658556D01*
X207399054Y-102619515D01*
X207407816Y-102615051D01*
X207467806Y-102571466D01*
X207579786Y-102490109D01*
X207579788Y-102490106D01*
X207579792Y-102490104D01*
X207730104Y-102339792D01*
X207730106Y-102339788D01*
X207730109Y-102339786D01*
X207855048Y-102167820D01*
X207855047Y-102167820D01*
X207855051Y-102167816D01*
X207951557Y-101978412D01*
X208017246Y-101776243D01*
X208050500Y-101566287D01*
X208050500Y-101353713D01*
X220599500Y-101353713D01*
X220599500Y-101566286D01*
X220631169Y-101766239D01*
X220632754Y-101776243D01*
X220695194Y-101968414D01*
X220698444Y-101978414D01*
X220794951Y-102167820D01*
X220919890Y-102339786D01*
X221070213Y-102490109D01*
X221242182Y-102615050D01*
X221250946Y-102619516D01*
X221301742Y-102667491D01*
X221318536Y-102735312D01*
X221295998Y-102801447D01*
X221250946Y-102840484D01*
X221242182Y-102844949D01*
X221070213Y-102969890D01*
X220919890Y-103120213D01*
X220794951Y-103292179D01*
X220698444Y-103481585D01*
X220632753Y-103683760D01*
X220599500Y-103893713D01*
X220599500Y-104106286D01*
X220624834Y-104266243D01*
X220632754Y-104316243D01*
X220695115Y-104508170D01*
X220698444Y-104518414D01*
X220794951Y-104707820D01*
X220919890Y-104879786D01*
X221070213Y-105030109D01*
X221242182Y-105155050D01*
X221250946Y-105159516D01*
X221301742Y-105207491D01*
X221318536Y-105275312D01*
X221295998Y-105341447D01*
X221250946Y-105380484D01*
X221242182Y-105384949D01*
X221070213Y-105509890D01*
X220919890Y-105660213D01*
X220794951Y-105832179D01*
X220698444Y-106021585D01*
X220632753Y-106223760D01*
X220608137Y-106379179D01*
X220599500Y-106433713D01*
X220599500Y-106646287D01*
X220601606Y-106659585D01*
X220630954Y-106844883D01*
X220632754Y-106856243D01*
X220684298Y-107014879D01*
X220698444Y-107058414D01*
X220794951Y-107247820D01*
X220919890Y-107419786D01*
X221070213Y-107570109D01*
X221242182Y-107695050D01*
X221250946Y-107699516D01*
X221301742Y-107747491D01*
X221318536Y-107815312D01*
X221295998Y-107881447D01*
X221250946Y-107920484D01*
X221242182Y-107924949D01*
X221070213Y-108049890D01*
X221070209Y-108049894D01*
X220919896Y-108200208D01*
X220919890Y-108200213D01*
X220794951Y-108372179D01*
X220698444Y-108561585D01*
X220632753Y-108763760D01*
X220599500Y-108973713D01*
X220599500Y-109186286D01*
X220632022Y-109391626D01*
X220632754Y-109396243D01*
X220694934Y-109587613D01*
X220698444Y-109598414D01*
X220794951Y-109787820D01*
X220919890Y-109959786D01*
X221070213Y-110110109D01*
X221242182Y-110235050D01*
X221250946Y-110239516D01*
X221301742Y-110287491D01*
X221318536Y-110355312D01*
X221295998Y-110421447D01*
X221250946Y-110460484D01*
X221242182Y-110464949D01*
X221070213Y-110589890D01*
X220919890Y-110740213D01*
X220794951Y-110912179D01*
X220698444Y-111101585D01*
X220632753Y-111303760D01*
X220599500Y-111513713D01*
X220599500Y-111726286D01*
X220628972Y-111912368D01*
X220632754Y-111936243D01*
X220694930Y-112127601D01*
X220698444Y-112138414D01*
X220794951Y-112327820D01*
X220919890Y-112499786D01*
X221070213Y-112650109D01*
X221242182Y-112775050D01*
X221250946Y-112779516D01*
X221301742Y-112827491D01*
X221318536Y-112895312D01*
X221295998Y-112961447D01*
X221250946Y-113000484D01*
X221242182Y-113004949D01*
X221070213Y-113129890D01*
X220919890Y-113280213D01*
X220794951Y-113452179D01*
X220698444Y-113641585D01*
X220632753Y-113843760D01*
X220620549Y-113920814D01*
X220599500Y-114053713D01*
X220599500Y-114266287D01*
X220603302Y-114290289D01*
X220632319Y-114473500D01*
X220632754Y-114476243D01*
X220695368Y-114668949D01*
X220698444Y-114678414D01*
X220794951Y-114867820D01*
X220919890Y-115039786D01*
X221070213Y-115190109D01*
X221242182Y-115315050D01*
X221250946Y-115319516D01*
X221301742Y-115367491D01*
X221318536Y-115435312D01*
X221295998Y-115501447D01*
X221250946Y-115540484D01*
X221242182Y-115544949D01*
X221070213Y-115669890D01*
X220919890Y-115820213D01*
X220794951Y-115992179D01*
X220698444Y-116181585D01*
X220632753Y-116383760D01*
X220602423Y-116575256D01*
X220599500Y-116593713D01*
X220599500Y-116806287D01*
X220605252Y-116842601D01*
X220631810Y-117010288D01*
X220632754Y-117016243D01*
X220664220Y-117113086D01*
X220698444Y-117218414D01*
X220794951Y-117407820D01*
X220919890Y-117579786D01*
X221033430Y-117693326D01*
X221066915Y-117754649D01*
X221061931Y-117824341D01*
X221020059Y-117880274D01*
X220989083Y-117897189D01*
X220857669Y-117946203D01*
X220857664Y-117946206D01*
X220742455Y-118032452D01*
X220742452Y-118032455D01*
X220656206Y-118147664D01*
X220656202Y-118147671D01*
X220605908Y-118282517D01*
X220600640Y-118331520D01*
X220599501Y-118342123D01*
X220599500Y-118342135D01*
X220599500Y-120137870D01*
X220599501Y-120137876D01*
X220605908Y-120197483D01*
X220656202Y-120332328D01*
X220656206Y-120332335D01*
X220742452Y-120447544D01*
X220742455Y-120447547D01*
X220857664Y-120533793D01*
X220857671Y-120533797D01*
X220992517Y-120584091D01*
X220992516Y-120584091D01*
X220999444Y-120584835D01*
X221052127Y-120590500D01*
X222847872Y-120590499D01*
X222907483Y-120584091D01*
X223042331Y-120533796D01*
X223157546Y-120447546D01*
X223243796Y-120332331D01*
X223294091Y-120197483D01*
X223300500Y-120137873D01*
X223300499Y-118342128D01*
X223294091Y-118282517D01*
X223263605Y-118200781D01*
X223243797Y-118147671D01*
X223243793Y-118147664D01*
X223157547Y-118032455D01*
X223157544Y-118032452D01*
X223042335Y-117946206D01*
X223042328Y-117946202D01*
X222910917Y-117897189D01*
X222854983Y-117855318D01*
X222830566Y-117789853D01*
X222845418Y-117721580D01*
X222866563Y-117693332D01*
X222980104Y-117579792D01*
X222986347Y-117571200D01*
X223105048Y-117407820D01*
X223105047Y-117407820D01*
X223105051Y-117407816D01*
X223201557Y-117218412D01*
X223267246Y-117016243D01*
X223300500Y-116806287D01*
X223300500Y-116593713D01*
X223267246Y-116383757D01*
X223201557Y-116181588D01*
X223105051Y-115992184D01*
X223105049Y-115992181D01*
X223105048Y-115992179D01*
X222980109Y-115820213D01*
X222829786Y-115669890D01*
X222657820Y-115544951D01*
X222653977Y-115542993D01*
X222649054Y-115540485D01*
X222598259Y-115492512D01*
X222581463Y-115424692D01*
X222603999Y-115358556D01*
X222649054Y-115319515D01*
X222657816Y-115315051D01*
X222679789Y-115299086D01*
X222829786Y-115190109D01*
X222829788Y-115190106D01*
X222829792Y-115190104D01*
X222980104Y-115039792D01*
X222980106Y-115039788D01*
X222980109Y-115039786D01*
X223105048Y-114867820D01*
X223105047Y-114867820D01*
X223105051Y-114867816D01*
X223201557Y-114678412D01*
X223267246Y-114476243D01*
X223300500Y-114266287D01*
X223300500Y-114053713D01*
X223267246Y-113843757D01*
X223201557Y-113641588D01*
X223105051Y-113452184D01*
X223105049Y-113452181D01*
X223105048Y-113452179D01*
X222980109Y-113280213D01*
X222829786Y-113129890D01*
X222657820Y-113004951D01*
X222657115Y-113004591D01*
X222649054Y-113000485D01*
X222598259Y-112952512D01*
X222581463Y-112884692D01*
X222603999Y-112818556D01*
X222649054Y-112779515D01*
X222657816Y-112775051D01*
X222732900Y-112720500D01*
X222829786Y-112650109D01*
X222829792Y-112650104D01*
X222873264Y-112606632D01*
X222980104Y-112499792D01*
X222980106Y-112499788D01*
X222980109Y-112499786D01*
X223105048Y-112327820D01*
X223105047Y-112327820D01*
X223105051Y-112327816D01*
X223201557Y-112138412D01*
X223267246Y-111936243D01*
X223300500Y-111726287D01*
X223300500Y-111513713D01*
X223267246Y-111303757D01*
X223201557Y-111101588D01*
X223105051Y-110912184D01*
X223105049Y-110912181D01*
X223105048Y-110912179D01*
X222980109Y-110740213D01*
X222829786Y-110589890D01*
X222657820Y-110464951D01*
X222657115Y-110464591D01*
X222649054Y-110460485D01*
X222598259Y-110412512D01*
X222581463Y-110344692D01*
X222603999Y-110278556D01*
X222649054Y-110239515D01*
X222657816Y-110235051D01*
X222679789Y-110219086D01*
X222829786Y-110110109D01*
X222829788Y-110110106D01*
X222829792Y-110110104D01*
X222980104Y-109959792D01*
X222980106Y-109959788D01*
X222980109Y-109959786D01*
X223105048Y-109787820D01*
X223105047Y-109787820D01*
X223105051Y-109787816D01*
X223201557Y-109598412D01*
X223267246Y-109396243D01*
X223300500Y-109186287D01*
X223300500Y-108973713D01*
X223267246Y-108763757D01*
X223201557Y-108561588D01*
X223105051Y-108372184D01*
X223105049Y-108372181D01*
X223105048Y-108372179D01*
X222980109Y-108200213D01*
X222829786Y-108049890D01*
X222657820Y-107924951D01*
X222653965Y-107922987D01*
X222649054Y-107920485D01*
X222598259Y-107872512D01*
X222581463Y-107804692D01*
X222603999Y-107738556D01*
X222649054Y-107699515D01*
X222657816Y-107695051D01*
X222729858Y-107642710D01*
X222829786Y-107570109D01*
X222829788Y-107570106D01*
X222829792Y-107570104D01*
X222980104Y-107419792D01*
X222980106Y-107419788D01*
X222980109Y-107419786D01*
X223105048Y-107247820D01*
X223105047Y-107247820D01*
X223105051Y-107247816D01*
X223201557Y-107058412D01*
X223267246Y-106856243D01*
X223300500Y-106646287D01*
X223300500Y-106433713D01*
X223267246Y-106223757D01*
X223201557Y-106021588D01*
X223105051Y-105832184D01*
X223105049Y-105832181D01*
X223105048Y-105832179D01*
X222980109Y-105660213D01*
X222829786Y-105509890D01*
X222657820Y-105384951D01*
X222655504Y-105383771D01*
X222649054Y-105380485D01*
X222598259Y-105332512D01*
X222581463Y-105264692D01*
X222603999Y-105198556D01*
X222649054Y-105159515D01*
X222657816Y-105155051D01*
X222697683Y-105126086D01*
X222829786Y-105030109D01*
X222829788Y-105030106D01*
X222829792Y-105030104D01*
X222980104Y-104879792D01*
X222980106Y-104879788D01*
X222980109Y-104879786D01*
X223105048Y-104707820D01*
X223105047Y-104707820D01*
X223105051Y-104707816D01*
X223201557Y-104518412D01*
X223267246Y-104316243D01*
X223300500Y-104106287D01*
X223300500Y-103893713D01*
X223267246Y-103683757D01*
X223201557Y-103481588D01*
X223105051Y-103292184D01*
X223105049Y-103292181D01*
X223105048Y-103292179D01*
X222980109Y-103120213D01*
X222829786Y-102969890D01*
X222657820Y-102844951D01*
X222657115Y-102844591D01*
X222649054Y-102840485D01*
X222598259Y-102792512D01*
X222581463Y-102724692D01*
X222603999Y-102658556D01*
X222649054Y-102619515D01*
X222657816Y-102615051D01*
X222717806Y-102571466D01*
X222829786Y-102490109D01*
X222829788Y-102490106D01*
X222829792Y-102490104D01*
X222980104Y-102339792D01*
X222980106Y-102339788D01*
X222980109Y-102339786D01*
X223105048Y-102167820D01*
X223105047Y-102167820D01*
X223105051Y-102167816D01*
X223201557Y-101978412D01*
X223267246Y-101776243D01*
X223300500Y-101566287D01*
X223300500Y-101353713D01*
X223267246Y-101143757D01*
X223201557Y-100941588D01*
X223105051Y-100752184D01*
X223105049Y-100752181D01*
X223105048Y-100752179D01*
X222980109Y-100580213D01*
X222829786Y-100429890D01*
X222657820Y-100304951D01*
X222468414Y-100208444D01*
X222468413Y-100208443D01*
X222468412Y-100208443D01*
X222266243Y-100142754D01*
X222266241Y-100142753D01*
X222266240Y-100142753D01*
X222104957Y-100117208D01*
X222056287Y-100109500D01*
X221843713Y-100109500D01*
X221795042Y-100117208D01*
X221633760Y-100142753D01*
X221633757Y-100142754D01*
X221442742Y-100204819D01*
X221431585Y-100208444D01*
X221242179Y-100304951D01*
X221070213Y-100429890D01*
X220919890Y-100580213D01*
X220794951Y-100752179D01*
X220698444Y-100941585D01*
X220632753Y-101143760D01*
X220599500Y-101353713D01*
X208050500Y-101353713D01*
X208017246Y-101143757D01*
X207951557Y-100941588D01*
X207855051Y-100752184D01*
X207855049Y-100752181D01*
X207855048Y-100752179D01*
X207730109Y-100580213D01*
X207579786Y-100429890D01*
X207407820Y-100304951D01*
X207218414Y-100208444D01*
X207218413Y-100208443D01*
X207218412Y-100208443D01*
X207016243Y-100142754D01*
X207016241Y-100142753D01*
X207016240Y-100142753D01*
X206854957Y-100117208D01*
X206806287Y-100109500D01*
X206593713Y-100109500D01*
X206545042Y-100117208D01*
X206383760Y-100142753D01*
X206383757Y-100142754D01*
X206192742Y-100204819D01*
X206181585Y-100208444D01*
X205992179Y-100304951D01*
X205820213Y-100429890D01*
X205669890Y-100580213D01*
X205544951Y-100752179D01*
X205448444Y-100941585D01*
X205382753Y-101143760D01*
X205349500Y-101353713D01*
X205349500Y-101566286D01*
X205381169Y-101766239D01*
X205382754Y-101776243D01*
X205445194Y-101968414D01*
X205448444Y-101978414D01*
X205544951Y-102167820D01*
X205669890Y-102339786D01*
X205820213Y-102490109D01*
X205992182Y-102615050D01*
X206000946Y-102619516D01*
X206051742Y-102667491D01*
X206068536Y-102735312D01*
X206045998Y-102801447D01*
X206000946Y-102840484D01*
X205992182Y-102844949D01*
X205820213Y-102969890D01*
X205669890Y-103120213D01*
X205544951Y-103292179D01*
X205448444Y-103481585D01*
X205382753Y-103683760D01*
X205349500Y-103893713D01*
X205349500Y-104106286D01*
X205374834Y-104266243D01*
X205382754Y-104316243D01*
X205445115Y-104508170D01*
X205448444Y-104518414D01*
X205544951Y-104707820D01*
X205669890Y-104879786D01*
X205682725Y-104892621D01*
X205716210Y-104953944D01*
X205711226Y-105023636D01*
X205682725Y-105067983D01*
X204536527Y-106214181D01*
X204475204Y-106247666D01*
X204448846Y-106250500D01*
X203671097Y-106250500D01*
X203604058Y-106230815D01*
X203583416Y-106214181D01*
X203328819Y-105959584D01*
X203295334Y-105898261D01*
X203292500Y-105871903D01*
X203292500Y-100642945D01*
X203292500Y-100642943D01*
X203291636Y-100639720D01*
X203270808Y-100561988D01*
X203251577Y-100490216D01*
X203196297Y-100394467D01*
X203172524Y-100353290D01*
X203172521Y-100353286D01*
X203172520Y-100353284D01*
X203060716Y-100241480D01*
X203060715Y-100241479D01*
X203056385Y-100237149D01*
X203056374Y-100237139D01*
X202780416Y-99961181D01*
X202746931Y-99899858D01*
X202751915Y-99830166D01*
X202793787Y-99774233D01*
X202859251Y-99749816D01*
X202868097Y-99749500D01*
X204103059Y-99749500D01*
X204170098Y-99769185D01*
X204190740Y-99785819D01*
X204213707Y-99808786D01*
X204213711Y-99808789D01*
X204344814Y-99896390D01*
X204344827Y-99896397D01*
X204490498Y-99956735D01*
X204490503Y-99956737D01*
X204645153Y-99987499D01*
X204645156Y-99987500D01*
X204645158Y-99987500D01*
X204802844Y-99987500D01*
X204802845Y-99987499D01*
X204957497Y-99956737D01*
X205103179Y-99896394D01*
X205234289Y-99808789D01*
X205345789Y-99697289D01*
X205433394Y-99566179D01*
X205493737Y-99420497D01*
X205524500Y-99265842D01*
X205524500Y-99108158D01*
X205524500Y-99108155D01*
X205524499Y-99108153D01*
X205493738Y-98953510D01*
X205493737Y-98953503D01*
X205491665Y-98948500D01*
X205433397Y-98807827D01*
X205433390Y-98807814D01*
X205345789Y-98676711D01*
X205345786Y-98676707D01*
X205298260Y-98629181D01*
X205264775Y-98567858D01*
X205269759Y-98498166D01*
X205311631Y-98442233D01*
X205377095Y-98417816D01*
X205385941Y-98417500D01*
X223657500Y-98417500D01*
X223724539Y-98437185D01*
X223770294Y-98489989D01*
X223781500Y-98541500D01*
X223781500Y-121295500D01*
X223761815Y-121362539D01*
X223709011Y-121408294D01*
X223657500Y-121419500D01*
X160009500Y-121419500D01*
X159942461Y-121399815D01*
X159896706Y-121347011D01*
X159885500Y-121295500D01*
X159885500Y-115717713D01*
X161313500Y-115717713D01*
X161313500Y-115930286D01*
X161345629Y-116133144D01*
X161346754Y-116140243D01*
X161406519Y-116324181D01*
X161412444Y-116342414D01*
X161508951Y-116531820D01*
X161633890Y-116703786D01*
X161772705Y-116842601D01*
X161806190Y-116903924D01*
X161801206Y-116973616D01*
X161759334Y-117029549D01*
X161750121Y-117035821D01*
X161595342Y-117131289D01*
X161471289Y-117255342D01*
X161379187Y-117404663D01*
X161379186Y-117404666D01*
X161324001Y-117571203D01*
X161324001Y-117571204D01*
X161324000Y-117571204D01*
X161313500Y-117673983D01*
X161313500Y-118974001D01*
X161313501Y-118974018D01*
X161324000Y-119076796D01*
X161324001Y-119076799D01*
X161379185Y-119243331D01*
X161379187Y-119243336D01*
X161387551Y-119256896D01*
X161471288Y-119392656D01*
X161595344Y-119516712D01*
X161744666Y-119608814D01*
X161911203Y-119663999D01*
X162013991Y-119674500D01*
X163614008Y-119674499D01*
X163716797Y-119663999D01*
X163883334Y-119608814D01*
X164032656Y-119516712D01*
X164156712Y-119392656D01*
X164248814Y-119243334D01*
X164303999Y-119076797D01*
X164314500Y-118974009D01*
X164314499Y-117673992D01*
X164303999Y-117571203D01*
X164248814Y-117404666D01*
X164156712Y-117255344D01*
X164032656Y-117131288D01*
X163883334Y-117039186D01*
X163883333Y-117039185D01*
X163877878Y-117035821D01*
X163831154Y-116983873D01*
X163819931Y-116914910D01*
X163847775Y-116850828D01*
X163855272Y-116842623D01*
X163994104Y-116703792D01*
X164119051Y-116531816D01*
X164215557Y-116342412D01*
X164281246Y-116140243D01*
X164314500Y-115930287D01*
X164314500Y-115717713D01*
X164281246Y-115507757D01*
X164215557Y-115305588D01*
X164119051Y-115116184D01*
X164119049Y-115116181D01*
X164119048Y-115116179D01*
X163994109Y-114944213D01*
X163843786Y-114793890D01*
X163671820Y-114668951D01*
X163482414Y-114572444D01*
X163482413Y-114572443D01*
X163482412Y-114572443D01*
X163280243Y-114506754D01*
X163280241Y-114506753D01*
X163280240Y-114506753D01*
X163087580Y-114476239D01*
X163070287Y-114473500D01*
X162557713Y-114473500D01*
X162540420Y-114476239D01*
X162347760Y-114506753D01*
X162145585Y-114572444D01*
X161956179Y-114668951D01*
X161784213Y-114793890D01*
X161633890Y-114944213D01*
X161508951Y-115116179D01*
X161412444Y-115305585D01*
X161412443Y-115305587D01*
X161412443Y-115305588D01*
X161403996Y-115331585D01*
X161346753Y-115507760D01*
X161313500Y-115717713D01*
X159885500Y-115717713D01*
X159885500Y-101978711D01*
X161599500Y-101978711D01*
X161599500Y-102221288D01*
X161631161Y-102461785D01*
X161693947Y-102696104D01*
X161753752Y-102840486D01*
X161786776Y-102920212D01*
X161908064Y-103130289D01*
X161908066Y-103130292D01*
X161908067Y-103130293D01*
X162055733Y-103322736D01*
X162055739Y-103322743D01*
X162227256Y-103494260D01*
X162227262Y-103494265D01*
X162419711Y-103641936D01*
X162629788Y-103763224D01*
X162853900Y-103856054D01*
X163088211Y-103918838D01*
X163268586Y-103942584D01*
X163328711Y-103950500D01*
X163328712Y-103950500D01*
X163571289Y-103950500D01*
X163619388Y-103944167D01*
X163811789Y-103918838D01*
X164046100Y-103856054D01*
X164270212Y-103763224D01*
X164480289Y-103641936D01*
X164672738Y-103494265D01*
X164844265Y-103322738D01*
X164991936Y-103130289D01*
X165113224Y-102920212D01*
X165206054Y-102696100D01*
X165268838Y-102461789D01*
X165300500Y-102221288D01*
X165300500Y-101978712D01*
X165268838Y-101738211D01*
X165206054Y-101503900D01*
X165113224Y-101279788D01*
X164991936Y-101069711D01*
X164885951Y-100931588D01*
X164844266Y-100877263D01*
X164844260Y-100877256D01*
X164672743Y-100705739D01*
X164672736Y-100705733D01*
X164480293Y-100558067D01*
X164480292Y-100558066D01*
X164480289Y-100558064D01*
X164270212Y-100436776D01*
X164270205Y-100436773D01*
X164046104Y-100343947D01*
X163900570Y-100304951D01*
X163811789Y-100281162D01*
X163811788Y-100281161D01*
X163811785Y-100281161D01*
X163571289Y-100249500D01*
X163571288Y-100249500D01*
X163328712Y-100249500D01*
X163328711Y-100249500D01*
X163088214Y-100281161D01*
X162853895Y-100343947D01*
X162629794Y-100436773D01*
X162629785Y-100436777D01*
X162419706Y-100558067D01*
X162227263Y-100705733D01*
X162227256Y-100705739D01*
X162055739Y-100877256D01*
X162055733Y-100877263D01*
X161908067Y-101069706D01*
X161786777Y-101279785D01*
X161786773Y-101279794D01*
X161693947Y-101503895D01*
X161631161Y-101738214D01*
X161599500Y-101978711D01*
X159885500Y-101978711D01*
X159885500Y-98541500D01*
X159905185Y-98474461D01*
X159957989Y-98428706D01*
X160009500Y-98417500D01*
X186354220Y-98417500D01*
X186379087Y-98424802D01*
G37*
%TD.AperFunction*%
%TD*%
D21*
X202053857Y-100384927D02*
X201920524Y-100194451D01*
X201825286Y-100384927D02*
X201825286Y-99984927D01*
X201825286Y-99984927D02*
X201977667Y-99984927D01*
X201977667Y-99984927D02*
X202015762Y-100003975D01*
X202015762Y-100003975D02*
X202034809Y-100023022D01*
X202034809Y-100023022D02*
X202053857Y-100061118D01*
X202053857Y-100061118D02*
X202053857Y-100118260D01*
X202053857Y-100118260D02*
X202034809Y-100156356D01*
X202034809Y-100156356D02*
X202015762Y-100175403D01*
X202015762Y-100175403D02*
X201977667Y-100194451D01*
X201977667Y-100194451D02*
X201825286Y-100194451D01*
X202434809Y-100384927D02*
X202206238Y-100384927D01*
X202320524Y-100384927D02*
X202320524Y-99984927D01*
X202320524Y-99984927D02*
X202282428Y-100042070D01*
X202282428Y-100042070D02*
X202244333Y-100080165D01*
X202244333Y-100080165D02*
X202206238Y-100099213D01*
X202777666Y-100118260D02*
X202777666Y-100384927D01*
X202682428Y-99965880D02*
X202587190Y-100251594D01*
X202587190Y-100251594D02*
X202834809Y-100251594D01*
X214176927Y-102137642D02*
X213986451Y-102270975D01*
X214176927Y-102366213D02*
X213776927Y-102366213D01*
X213776927Y-102366213D02*
X213776927Y-102213832D01*
X213776927Y-102213832D02*
X213795975Y-102175737D01*
X213795975Y-102175737D02*
X213815022Y-102156690D01*
X213815022Y-102156690D02*
X213853118Y-102137642D01*
X213853118Y-102137642D02*
X213910260Y-102137642D01*
X213910260Y-102137642D02*
X213948356Y-102156690D01*
X213948356Y-102156690D02*
X213967403Y-102175737D01*
X213967403Y-102175737D02*
X213986451Y-102213832D01*
X213986451Y-102213832D02*
X213986451Y-102366213D01*
X214176927Y-101756690D02*
X214176927Y-101985261D01*
X214176927Y-101870975D02*
X213776927Y-101870975D01*
X213776927Y-101870975D02*
X213834070Y-101909071D01*
X213834070Y-101909071D02*
X213872165Y-101947166D01*
X213872165Y-101947166D02*
X213891213Y-101985261D01*
X213776927Y-101623357D02*
X213776927Y-101375738D01*
X213776927Y-101375738D02*
X213929308Y-101509071D01*
X213929308Y-101509071D02*
X213929308Y-101451928D01*
X213929308Y-101451928D02*
X213948356Y-101413833D01*
X213948356Y-101413833D02*
X213967403Y-101394785D01*
X213967403Y-101394785D02*
X214005499Y-101375738D01*
X214005499Y-101375738D02*
X214100737Y-101375738D01*
X214100737Y-101375738D02*
X214138832Y-101394785D01*
X214138832Y-101394785D02*
X214157880Y-101413833D01*
X214157880Y-101413833D02*
X214176927Y-101451928D01*
X214176927Y-101451928D02*
X214176927Y-101566214D01*
X214176927Y-101566214D02*
X214157880Y-101604309D01*
X214157880Y-101604309D02*
X214138832Y-101623357D01*
X210536357Y-102543927D02*
X210403024Y-102353451D01*
X210307786Y-102543927D02*
X210307786Y-102143927D01*
X210307786Y-102143927D02*
X210460167Y-102143927D01*
X210460167Y-102143927D02*
X210498262Y-102162975D01*
X210498262Y-102162975D02*
X210517309Y-102182022D01*
X210517309Y-102182022D02*
X210536357Y-102220118D01*
X210536357Y-102220118D02*
X210536357Y-102277260D01*
X210536357Y-102277260D02*
X210517309Y-102315356D01*
X210517309Y-102315356D02*
X210498262Y-102334403D01*
X210498262Y-102334403D02*
X210460167Y-102353451D01*
X210460167Y-102353451D02*
X210307786Y-102353451D01*
X210917309Y-102543927D02*
X210688738Y-102543927D01*
X210803024Y-102543927D02*
X210803024Y-102143927D01*
X210803024Y-102143927D02*
X210764928Y-102201070D01*
X210764928Y-102201070D02*
X210726833Y-102239165D01*
X210726833Y-102239165D02*
X210688738Y-102258213D01*
X211069690Y-102182022D02*
X211088738Y-102162975D01*
X211088738Y-102162975D02*
X211126833Y-102143927D01*
X211126833Y-102143927D02*
X211222071Y-102143927D01*
X211222071Y-102143927D02*
X211260166Y-102162975D01*
X211260166Y-102162975D02*
X211279214Y-102182022D01*
X211279214Y-102182022D02*
X211298261Y-102220118D01*
X211298261Y-102220118D02*
X211298261Y-102258213D01*
X211298261Y-102258213D02*
X211279214Y-102315356D01*
X211279214Y-102315356D02*
X211050642Y-102543927D01*
X211050642Y-102543927D02*
X211298261Y-102543927D01*
D22*
X164968819Y-117407333D02*
X165683104Y-117407333D01*
X165683104Y-117407333D02*
X165825961Y-117454952D01*
X165825961Y-117454952D02*
X165921200Y-117550190D01*
X165921200Y-117550190D02*
X165968819Y-117693047D01*
X165968819Y-117693047D02*
X165968819Y-117788285D01*
X164968819Y-116454952D02*
X164968819Y-116931142D01*
X164968819Y-116931142D02*
X165445009Y-116978761D01*
X165445009Y-116978761D02*
X165397390Y-116931142D01*
X165397390Y-116931142D02*
X165349771Y-116835904D01*
X165349771Y-116835904D02*
X165349771Y-116597809D01*
X165349771Y-116597809D02*
X165397390Y-116502571D01*
X165397390Y-116502571D02*
X165445009Y-116454952D01*
X165445009Y-116454952D02*
X165540247Y-116407333D01*
X165540247Y-116407333D02*
X165778342Y-116407333D01*
X165778342Y-116407333D02*
X165873580Y-116454952D01*
X165873580Y-116454952D02*
X165921200Y-116502571D01*
X165921200Y-116502571D02*
X165968819Y-116597809D01*
X165968819Y-116597809D02*
X165968819Y-116835904D01*
X165968819Y-116835904D02*
X165921200Y-116931142D01*
X165921200Y-116931142D02*
X165873580Y-116978761D01*
X162688095Y-102554819D02*
X162688095Y-101554819D01*
X162688095Y-102031009D02*
X163259523Y-102031009D01*
X163259523Y-102554819D02*
X163259523Y-101554819D01*
X164259523Y-102554819D02*
X163688095Y-102554819D01*
X163973809Y-102554819D02*
X163973809Y-101554819D01*
X163973809Y-101554819D02*
X163878571Y-101697676D01*
X163878571Y-101697676D02*
X163783333Y-101792914D01*
X163783333Y-101792914D02*
X163688095Y-101840533D01*
X215728095Y-118594819D02*
X215728095Y-117594819D01*
X215728095Y-118071009D02*
X216299523Y-118071009D01*
X216299523Y-118594819D02*
X216299523Y-117594819D01*
X216728095Y-117690057D02*
X216775714Y-117642438D01*
X216775714Y-117642438D02*
X216870952Y-117594819D01*
X216870952Y-117594819D02*
X217109047Y-117594819D01*
X217109047Y-117594819D02*
X217204285Y-117642438D01*
X217204285Y-117642438D02*
X217251904Y-117690057D01*
X217251904Y-117690057D02*
X217299523Y-117785295D01*
X217299523Y-117785295D02*
X217299523Y-117880533D01*
X217299523Y-117880533D02*
X217251904Y-118023390D01*
X217251904Y-118023390D02*
X216680476Y-118594819D01*
X216680476Y-118594819D02*
X217299523Y-118594819D01*
X206154819Y-111159523D02*
X206869104Y-111159523D01*
X206869104Y-111159523D02*
X207011961Y-111207142D01*
X207011961Y-111207142D02*
X207107200Y-111302380D01*
X207107200Y-111302380D02*
X207154819Y-111445237D01*
X207154819Y-111445237D02*
X207154819Y-111540475D01*
X207154819Y-110159523D02*
X207154819Y-110730951D01*
X207154819Y-110445237D02*
X206154819Y-110445237D01*
X206154819Y-110445237D02*
X206297676Y-110540475D01*
X206297676Y-110540475D02*
X206392914Y-110635713D01*
X206392914Y-110635713D02*
X206440533Y-110730951D01*
X206154819Y-109540475D02*
X206154819Y-109445237D01*
X206154819Y-109445237D02*
X206202438Y-109349999D01*
X206202438Y-109349999D02*
X206250057Y-109302380D01*
X206250057Y-109302380D02*
X206345295Y-109254761D01*
X206345295Y-109254761D02*
X206535771Y-109207142D01*
X206535771Y-109207142D02*
X206773866Y-109207142D01*
X206773866Y-109207142D02*
X206964342Y-109254761D01*
X206964342Y-109254761D02*
X207059580Y-109302380D01*
X207059580Y-109302380D02*
X207107200Y-109349999D01*
X207107200Y-109349999D02*
X207154819Y-109445237D01*
X207154819Y-109445237D02*
X207154819Y-109540475D01*
X207154819Y-109540475D02*
X207107200Y-109635713D01*
X207107200Y-109635713D02*
X207059580Y-109683332D01*
X207059580Y-109683332D02*
X206964342Y-109730951D01*
X206964342Y-109730951D02*
X206773866Y-109778570D01*
X206773866Y-109778570D02*
X206535771Y-109778570D01*
X206535771Y-109778570D02*
X206345295Y-109730951D01*
X206345295Y-109730951D02*
X206250057Y-109683332D01*
X206250057Y-109683332D02*
X206202438Y-109635713D01*
X206202438Y-109635713D02*
X206154819Y-109540475D01*
D21*
X163431927Y-111254166D02*
X163241451Y-111387499D01*
X163431927Y-111482737D02*
X163031927Y-111482737D01*
X163031927Y-111482737D02*
X163031927Y-111330356D01*
X163031927Y-111330356D02*
X163050975Y-111292261D01*
X163050975Y-111292261D02*
X163070022Y-111273214D01*
X163070022Y-111273214D02*
X163108118Y-111254166D01*
X163108118Y-111254166D02*
X163165260Y-111254166D01*
X163165260Y-111254166D02*
X163203356Y-111273214D01*
X163203356Y-111273214D02*
X163222403Y-111292261D01*
X163222403Y-111292261D02*
X163241451Y-111330356D01*
X163241451Y-111330356D02*
X163241451Y-111482737D01*
X163431927Y-110873214D02*
X163431927Y-111101785D01*
X163431927Y-110987499D02*
X163031927Y-110987499D01*
X163031927Y-110987499D02*
X163089070Y-111025595D01*
X163089070Y-111025595D02*
X163127165Y-111063690D01*
X163127165Y-111063690D02*
X163146213Y-111101785D01*
X210320833Y-107681927D02*
X210187500Y-107491451D01*
X210092262Y-107681927D02*
X210092262Y-107281927D01*
X210092262Y-107281927D02*
X210244643Y-107281927D01*
X210244643Y-107281927D02*
X210282738Y-107300975D01*
X210282738Y-107300975D02*
X210301785Y-107320022D01*
X210301785Y-107320022D02*
X210320833Y-107358118D01*
X210320833Y-107358118D02*
X210320833Y-107415260D01*
X210320833Y-107415260D02*
X210301785Y-107453356D01*
X210301785Y-107453356D02*
X210282738Y-107472403D01*
X210282738Y-107472403D02*
X210244643Y-107491451D01*
X210244643Y-107491451D02*
X210092262Y-107491451D01*
X210663690Y-107415260D02*
X210663690Y-107681927D01*
X210568452Y-107262880D02*
X210473214Y-107548594D01*
X210473214Y-107548594D02*
X210720833Y-107548594D01*
X218169033Y-110468727D02*
X218035700Y-110278251D01*
X217940462Y-110468727D02*
X217940462Y-110068727D01*
X217940462Y-110068727D02*
X218092843Y-110068727D01*
X218092843Y-110068727D02*
X218130938Y-110087775D01*
X218130938Y-110087775D02*
X218149985Y-110106822D01*
X218149985Y-110106822D02*
X218169033Y-110144918D01*
X218169033Y-110144918D02*
X218169033Y-110202060D01*
X218169033Y-110202060D02*
X218149985Y-110240156D01*
X218149985Y-110240156D02*
X218130938Y-110259203D01*
X218130938Y-110259203D02*
X218092843Y-110278251D01*
X218092843Y-110278251D02*
X217940462Y-110278251D01*
X218302366Y-110068727D02*
X218569033Y-110068727D01*
X218569033Y-110068727D02*
X218397604Y-110468727D01*
X204043832Y-118666666D02*
X204062880Y-118685714D01*
X204062880Y-118685714D02*
X204081927Y-118742856D01*
X204081927Y-118742856D02*
X204081927Y-118780952D01*
X204081927Y-118780952D02*
X204062880Y-118838095D01*
X204062880Y-118838095D02*
X204024784Y-118876190D01*
X204024784Y-118876190D02*
X203986689Y-118895237D01*
X203986689Y-118895237D02*
X203910499Y-118914285D01*
X203910499Y-118914285D02*
X203853356Y-118914285D01*
X203853356Y-118914285D02*
X203777165Y-118895237D01*
X203777165Y-118895237D02*
X203739070Y-118876190D01*
X203739070Y-118876190D02*
X203700975Y-118838095D01*
X203700975Y-118838095D02*
X203681927Y-118780952D01*
X203681927Y-118780952D02*
X203681927Y-118742856D01*
X203681927Y-118742856D02*
X203700975Y-118685714D01*
X203700975Y-118685714D02*
X203720022Y-118666666D01*
X203681927Y-118323809D02*
X203681927Y-118399999D01*
X203681927Y-118399999D02*
X203700975Y-118438095D01*
X203700975Y-118438095D02*
X203720022Y-118457142D01*
X203720022Y-118457142D02*
X203777165Y-118495237D01*
X203777165Y-118495237D02*
X203853356Y-118514285D01*
X203853356Y-118514285D02*
X204005737Y-118514285D01*
X204005737Y-118514285D02*
X204043832Y-118495237D01*
X204043832Y-118495237D02*
X204062880Y-118476190D01*
X204062880Y-118476190D02*
X204081927Y-118438095D01*
X204081927Y-118438095D02*
X204081927Y-118361904D01*
X204081927Y-118361904D02*
X204062880Y-118323809D01*
X204062880Y-118323809D02*
X204043832Y-118304761D01*
X204043832Y-118304761D02*
X204005737Y-118285714D01*
X204005737Y-118285714D02*
X203910499Y-118285714D01*
X203910499Y-118285714D02*
X203872403Y-118304761D01*
X203872403Y-118304761D02*
X203853356Y-118323809D01*
X203853356Y-118323809D02*
X203834308Y-118361904D01*
X203834308Y-118361904D02*
X203834308Y-118438095D01*
X203834308Y-118438095D02*
X203853356Y-118476190D01*
X203853356Y-118476190D02*
X203872403Y-118495237D01*
X203872403Y-118495237D02*
X203910499Y-118514285D01*
X217900357Y-107531927D02*
X217767024Y-107341451D01*
X217671786Y-107531927D02*
X217671786Y-107131927D01*
X217671786Y-107131927D02*
X217824167Y-107131927D01*
X217824167Y-107131927D02*
X217862262Y-107150975D01*
X217862262Y-107150975D02*
X217881309Y-107170022D01*
X217881309Y-107170022D02*
X217900357Y-107208118D01*
X217900357Y-107208118D02*
X217900357Y-107265260D01*
X217900357Y-107265260D02*
X217881309Y-107303356D01*
X217881309Y-107303356D02*
X217862262Y-107322403D01*
X217862262Y-107322403D02*
X217824167Y-107341451D01*
X217824167Y-107341451D02*
X217671786Y-107341451D01*
X218281309Y-107531927D02*
X218052738Y-107531927D01*
X218167024Y-107531927D02*
X218167024Y-107131927D01*
X218167024Y-107131927D02*
X218128928Y-107189070D01*
X218128928Y-107189070D02*
X218090833Y-107227165D01*
X218090833Y-107227165D02*
X218052738Y-107246213D01*
X218662261Y-107531927D02*
X218433690Y-107531927D01*
X218547976Y-107531927D02*
X218547976Y-107131927D01*
X218547976Y-107131927D02*
X218509880Y-107189070D01*
X218509880Y-107189070D02*
X218471785Y-107227165D01*
X218471785Y-107227165D02*
X218433690Y-107246213D01*
X210320833Y-112592927D02*
X210187500Y-112402451D01*
X210092262Y-112592927D02*
X210092262Y-112192927D01*
X210092262Y-112192927D02*
X210244643Y-112192927D01*
X210244643Y-112192927D02*
X210282738Y-112211975D01*
X210282738Y-112211975D02*
X210301785Y-112231022D01*
X210301785Y-112231022D02*
X210320833Y-112269118D01*
X210320833Y-112269118D02*
X210320833Y-112326260D01*
X210320833Y-112326260D02*
X210301785Y-112364356D01*
X210301785Y-112364356D02*
X210282738Y-112383403D01*
X210282738Y-112383403D02*
X210244643Y-112402451D01*
X210244643Y-112402451D02*
X210092262Y-112402451D01*
X210454166Y-112192927D02*
X210701785Y-112192927D01*
X210701785Y-112192927D02*
X210568452Y-112345308D01*
X210568452Y-112345308D02*
X210625595Y-112345308D01*
X210625595Y-112345308D02*
X210663690Y-112364356D01*
X210663690Y-112364356D02*
X210682738Y-112383403D01*
X210682738Y-112383403D02*
X210701785Y-112421499D01*
X210701785Y-112421499D02*
X210701785Y-112516737D01*
X210701785Y-112516737D02*
X210682738Y-112554832D01*
X210682738Y-112554832D02*
X210663690Y-112573880D01*
X210663690Y-112573880D02*
X210625595Y-112592927D01*
X210625595Y-112592927D02*
X210511309Y-112592927D01*
X210511309Y-112592927D02*
X210473214Y-112573880D01*
X210473214Y-112573880D02*
X210454166Y-112554832D01*
X212041927Y-117806666D02*
X211851451Y-117939999D01*
X212041927Y-118035237D02*
X211641927Y-118035237D01*
X211641927Y-118035237D02*
X211641927Y-117882856D01*
X211641927Y-117882856D02*
X211660975Y-117844761D01*
X211660975Y-117844761D02*
X211680022Y-117825714D01*
X211680022Y-117825714D02*
X211718118Y-117806666D01*
X211718118Y-117806666D02*
X211775260Y-117806666D01*
X211775260Y-117806666D02*
X211813356Y-117825714D01*
X211813356Y-117825714D02*
X211832403Y-117844761D01*
X211832403Y-117844761D02*
X211851451Y-117882856D01*
X211851451Y-117882856D02*
X211851451Y-118035237D01*
X211680022Y-117654285D02*
X211660975Y-117635237D01*
X211660975Y-117635237D02*
X211641927Y-117597142D01*
X211641927Y-117597142D02*
X211641927Y-117501904D01*
X211641927Y-117501904D02*
X211660975Y-117463809D01*
X211660975Y-117463809D02*
X211680022Y-117444761D01*
X211680022Y-117444761D02*
X211718118Y-117425714D01*
X211718118Y-117425714D02*
X211756213Y-117425714D01*
X211756213Y-117425714D02*
X211813356Y-117444761D01*
X211813356Y-117444761D02*
X212041927Y-117673333D01*
X212041927Y-117673333D02*
X212041927Y-117425714D01*
D23*
X202032023Y-108375914D02*
X202001547Y-108360676D01*
X202001547Y-108360676D02*
X201971071Y-108330200D01*
X201971071Y-108330200D02*
X201925357Y-108284485D01*
X201925357Y-108284485D02*
X201894880Y-108269247D01*
X201894880Y-108269247D02*
X201864404Y-108269247D01*
X201879642Y-108345438D02*
X201849166Y-108330200D01*
X201849166Y-108330200D02*
X201818690Y-108299723D01*
X201818690Y-108299723D02*
X201803452Y-108238771D01*
X201803452Y-108238771D02*
X201803452Y-108132104D01*
X201803452Y-108132104D02*
X201818690Y-108071152D01*
X201818690Y-108071152D02*
X201849166Y-108040676D01*
X201849166Y-108040676D02*
X201879642Y-108025438D01*
X201879642Y-108025438D02*
X201940595Y-108025438D01*
X201940595Y-108025438D02*
X201971071Y-108040676D01*
X201971071Y-108040676D02*
X202001547Y-108071152D01*
X202001547Y-108071152D02*
X202016785Y-108132104D01*
X202016785Y-108132104D02*
X202016785Y-108238771D01*
X202016785Y-108238771D02*
X202001547Y-108299723D01*
X202001547Y-108299723D02*
X201971071Y-108330200D01*
X201971071Y-108330200D02*
X201940595Y-108345438D01*
X201940595Y-108345438D02*
X201879642Y-108345438D01*
X202291071Y-108132104D02*
X202291071Y-108345438D01*
X202214880Y-108010200D02*
X202138690Y-108238771D01*
X202138690Y-108238771D02*
X202336785Y-108238771D01*
D21*
X217929957Y-101527927D02*
X217796624Y-101337451D01*
X217701386Y-101527927D02*
X217701386Y-101127927D01*
X217701386Y-101127927D02*
X217853767Y-101127927D01*
X217853767Y-101127927D02*
X217891862Y-101146975D01*
X217891862Y-101146975D02*
X217910909Y-101166022D01*
X217910909Y-101166022D02*
X217929957Y-101204118D01*
X217929957Y-101204118D02*
X217929957Y-101261260D01*
X217929957Y-101261260D02*
X217910909Y-101299356D01*
X217910909Y-101299356D02*
X217891862Y-101318403D01*
X217891862Y-101318403D02*
X217853767Y-101337451D01*
X217853767Y-101337451D02*
X217701386Y-101337451D01*
X218310909Y-101527927D02*
X218082338Y-101527927D01*
X218196624Y-101527927D02*
X218196624Y-101127927D01*
X218196624Y-101127927D02*
X218158528Y-101185070D01*
X218158528Y-101185070D02*
X218120433Y-101223165D01*
X218120433Y-101223165D02*
X218082338Y-101242213D01*
X218558528Y-101127927D02*
X218596623Y-101127927D01*
X218596623Y-101127927D02*
X218634719Y-101146975D01*
X218634719Y-101146975D02*
X218653766Y-101166022D01*
X218653766Y-101166022D02*
X218672814Y-101204118D01*
X218672814Y-101204118D02*
X218691861Y-101280308D01*
X218691861Y-101280308D02*
X218691861Y-101375546D01*
X218691861Y-101375546D02*
X218672814Y-101451737D01*
X218672814Y-101451737D02*
X218653766Y-101489832D01*
X218653766Y-101489832D02*
X218634719Y-101508880D01*
X218634719Y-101508880D02*
X218596623Y-101527927D01*
X218596623Y-101527927D02*
X218558528Y-101527927D01*
X218558528Y-101527927D02*
X218520433Y-101508880D01*
X218520433Y-101508880D02*
X218501385Y-101489832D01*
X218501385Y-101489832D02*
X218482338Y-101451737D01*
X218482338Y-101451737D02*
X218463290Y-101375546D01*
X218463290Y-101375546D02*
X218463290Y-101280308D01*
X218463290Y-101280308D02*
X218482338Y-101204118D01*
X218482338Y-101204118D02*
X218501385Y-101166022D01*
X218501385Y-101166022D02*
X218520433Y-101146975D01*
X218520433Y-101146975D02*
X218558528Y-101127927D01*
X210320833Y-109332927D02*
X210187500Y-109142451D01*
X210092262Y-109332927D02*
X210092262Y-108932927D01*
X210092262Y-108932927D02*
X210244643Y-108932927D01*
X210244643Y-108932927D02*
X210282738Y-108951975D01*
X210282738Y-108951975D02*
X210301785Y-108971022D01*
X210301785Y-108971022D02*
X210320833Y-109009118D01*
X210320833Y-109009118D02*
X210320833Y-109066260D01*
X210320833Y-109066260D02*
X210301785Y-109104356D01*
X210301785Y-109104356D02*
X210282738Y-109123403D01*
X210282738Y-109123403D02*
X210244643Y-109142451D01*
X210244643Y-109142451D02*
X210092262Y-109142451D01*
X210682738Y-108932927D02*
X210492262Y-108932927D01*
X210492262Y-108932927D02*
X210473214Y-109123403D01*
X210473214Y-109123403D02*
X210492262Y-109104356D01*
X210492262Y-109104356D02*
X210530357Y-109085308D01*
X210530357Y-109085308D02*
X210625595Y-109085308D01*
X210625595Y-109085308D02*
X210663690Y-109104356D01*
X210663690Y-109104356D02*
X210682738Y-109123403D01*
X210682738Y-109123403D02*
X210701785Y-109161499D01*
X210701785Y-109161499D02*
X210701785Y-109256737D01*
X210701785Y-109256737D02*
X210682738Y-109294832D01*
X210682738Y-109294832D02*
X210663690Y-109313880D01*
X210663690Y-109313880D02*
X210625595Y-109332927D01*
X210625595Y-109332927D02*
X210530357Y-109332927D01*
X210530357Y-109332927D02*
X210492262Y-109313880D01*
X210492262Y-109313880D02*
X210473214Y-109294832D01*
X198320833Y-113393832D02*
X198301785Y-113412880D01*
X198301785Y-113412880D02*
X198244643Y-113431927D01*
X198244643Y-113431927D02*
X198206547Y-113431927D01*
X198206547Y-113431927D02*
X198149404Y-113412880D01*
X198149404Y-113412880D02*
X198111309Y-113374784D01*
X198111309Y-113374784D02*
X198092262Y-113336689D01*
X198092262Y-113336689D02*
X198073214Y-113260499D01*
X198073214Y-113260499D02*
X198073214Y-113203356D01*
X198073214Y-113203356D02*
X198092262Y-113127165D01*
X198092262Y-113127165D02*
X198111309Y-113089070D01*
X198111309Y-113089070D02*
X198149404Y-113050975D01*
X198149404Y-113050975D02*
X198206547Y-113031927D01*
X198206547Y-113031927D02*
X198244643Y-113031927D01*
X198244643Y-113031927D02*
X198301785Y-113050975D01*
X198301785Y-113050975D02*
X198320833Y-113070022D01*
X198682738Y-113031927D02*
X198492262Y-113031927D01*
X198492262Y-113031927D02*
X198473214Y-113222403D01*
X198473214Y-113222403D02*
X198492262Y-113203356D01*
X198492262Y-113203356D02*
X198530357Y-113184308D01*
X198530357Y-113184308D02*
X198625595Y-113184308D01*
X198625595Y-113184308D02*
X198663690Y-113203356D01*
X198663690Y-113203356D02*
X198682738Y-113222403D01*
X198682738Y-113222403D02*
X198701785Y-113260499D01*
X198701785Y-113260499D02*
X198701785Y-113355737D01*
X198701785Y-113355737D02*
X198682738Y-113393832D01*
X198682738Y-113393832D02*
X198663690Y-113412880D01*
X198663690Y-113412880D02*
X198625595Y-113431927D01*
X198625595Y-113431927D02*
X198530357Y-113431927D01*
X198530357Y-113431927D02*
X198492262Y-113412880D01*
X198492262Y-113412880D02*
X198473214Y-113393832D01*
D23*
X202157023Y-113425914D02*
X202126547Y-113410676D01*
X202126547Y-113410676D02*
X202096071Y-113380200D01*
X202096071Y-113380200D02*
X202050357Y-113334485D01*
X202050357Y-113334485D02*
X202019880Y-113319247D01*
X202019880Y-113319247D02*
X201989404Y-113319247D01*
X202004642Y-113395438D02*
X201974166Y-113380200D01*
X201974166Y-113380200D02*
X201943690Y-113349723D01*
X201943690Y-113349723D02*
X201928452Y-113288771D01*
X201928452Y-113288771D02*
X201928452Y-113182104D01*
X201928452Y-113182104D02*
X201943690Y-113121152D01*
X201943690Y-113121152D02*
X201974166Y-113090676D01*
X201974166Y-113090676D02*
X202004642Y-113075438D01*
X202004642Y-113075438D02*
X202065595Y-113075438D01*
X202065595Y-113075438D02*
X202096071Y-113090676D01*
X202096071Y-113090676D02*
X202126547Y-113121152D01*
X202126547Y-113121152D02*
X202141785Y-113182104D01*
X202141785Y-113182104D02*
X202141785Y-113288771D01*
X202141785Y-113288771D02*
X202126547Y-113349723D01*
X202126547Y-113349723D02*
X202096071Y-113380200D01*
X202096071Y-113380200D02*
X202065595Y-113395438D01*
X202065595Y-113395438D02*
X202004642Y-113395438D01*
X202446547Y-113395438D02*
X202263690Y-113395438D01*
X202355118Y-113395438D02*
X202355118Y-113075438D01*
X202355118Y-113075438D02*
X202324642Y-113121152D01*
X202324642Y-113121152D02*
X202294166Y-113151628D01*
X202294166Y-113151628D02*
X202263690Y-113166866D01*
D21*
X198295833Y-108393832D02*
X198276785Y-108412880D01*
X198276785Y-108412880D02*
X198219643Y-108431927D01*
X198219643Y-108431927D02*
X198181547Y-108431927D01*
X198181547Y-108431927D02*
X198124404Y-108412880D01*
X198124404Y-108412880D02*
X198086309Y-108374784D01*
X198086309Y-108374784D02*
X198067262Y-108336689D01*
X198067262Y-108336689D02*
X198048214Y-108260499D01*
X198048214Y-108260499D02*
X198048214Y-108203356D01*
X198048214Y-108203356D02*
X198067262Y-108127165D01*
X198067262Y-108127165D02*
X198086309Y-108089070D01*
X198086309Y-108089070D02*
X198124404Y-108050975D01*
X198124404Y-108050975D02*
X198181547Y-108031927D01*
X198181547Y-108031927D02*
X198219643Y-108031927D01*
X198219643Y-108031927D02*
X198276785Y-108050975D01*
X198276785Y-108050975D02*
X198295833Y-108070022D01*
X198429166Y-108031927D02*
X198676785Y-108031927D01*
X198676785Y-108031927D02*
X198543452Y-108184308D01*
X198543452Y-108184308D02*
X198600595Y-108184308D01*
X198600595Y-108184308D02*
X198638690Y-108203356D01*
X198638690Y-108203356D02*
X198657738Y-108222403D01*
X198657738Y-108222403D02*
X198676785Y-108260499D01*
X198676785Y-108260499D02*
X198676785Y-108355737D01*
X198676785Y-108355737D02*
X198657738Y-108393832D01*
X198657738Y-108393832D02*
X198638690Y-108412880D01*
X198638690Y-108412880D02*
X198600595Y-108431927D01*
X198600595Y-108431927D02*
X198486309Y-108431927D01*
X198486309Y-108431927D02*
X198448214Y-108412880D01*
X198448214Y-108412880D02*
X198429166Y-108393832D01*
X218120433Y-104169527D02*
X217987100Y-103979051D01*
X217891862Y-104169527D02*
X217891862Y-103769527D01*
X217891862Y-103769527D02*
X218044243Y-103769527D01*
X218044243Y-103769527D02*
X218082338Y-103788575D01*
X218082338Y-103788575D02*
X218101385Y-103807622D01*
X218101385Y-103807622D02*
X218120433Y-103845718D01*
X218120433Y-103845718D02*
X218120433Y-103902860D01*
X218120433Y-103902860D02*
X218101385Y-103940956D01*
X218101385Y-103940956D02*
X218082338Y-103960003D01*
X218082338Y-103960003D02*
X218044243Y-103979051D01*
X218044243Y-103979051D02*
X217891862Y-103979051D01*
X218310909Y-104169527D02*
X218387100Y-104169527D01*
X218387100Y-104169527D02*
X218425195Y-104150480D01*
X218425195Y-104150480D02*
X218444243Y-104131432D01*
X218444243Y-104131432D02*
X218482338Y-104074289D01*
X218482338Y-104074289D02*
X218501385Y-103998099D01*
X218501385Y-103998099D02*
X218501385Y-103845718D01*
X218501385Y-103845718D02*
X218482338Y-103807622D01*
X218482338Y-103807622D02*
X218463290Y-103788575D01*
X218463290Y-103788575D02*
X218425195Y-103769527D01*
X218425195Y-103769527D02*
X218349004Y-103769527D01*
X218349004Y-103769527D02*
X218310909Y-103788575D01*
X218310909Y-103788575D02*
X218291862Y-103807622D01*
X218291862Y-103807622D02*
X218272814Y-103845718D01*
X218272814Y-103845718D02*
X218272814Y-103940956D01*
X218272814Y-103940956D02*
X218291862Y-103979051D01*
X218291862Y-103979051D02*
X218310909Y-103998099D01*
X218310909Y-103998099D02*
X218349004Y-104017146D01*
X218349004Y-104017146D02*
X218425195Y-104017146D01*
X218425195Y-104017146D02*
X218463290Y-103998099D01*
X218463290Y-103998099D02*
X218482338Y-103979051D01*
X218482338Y-103979051D02*
X218501385Y-103940956D01*
X160993832Y-111204166D02*
X161012880Y-111223214D01*
X161012880Y-111223214D02*
X161031927Y-111280356D01*
X161031927Y-111280356D02*
X161031927Y-111318452D01*
X161031927Y-111318452D02*
X161012880Y-111375595D01*
X161012880Y-111375595D02*
X160974784Y-111413690D01*
X160974784Y-111413690D02*
X160936689Y-111432737D01*
X160936689Y-111432737D02*
X160860499Y-111451785D01*
X160860499Y-111451785D02*
X160803356Y-111451785D01*
X160803356Y-111451785D02*
X160727165Y-111432737D01*
X160727165Y-111432737D02*
X160689070Y-111413690D01*
X160689070Y-111413690D02*
X160650975Y-111375595D01*
X160650975Y-111375595D02*
X160631927Y-111318452D01*
X160631927Y-111318452D02*
X160631927Y-111280356D01*
X160631927Y-111280356D02*
X160650975Y-111223214D01*
X160650975Y-111223214D02*
X160670022Y-111204166D01*
X161031927Y-110823214D02*
X161031927Y-111051785D01*
X161031927Y-110937499D02*
X160631927Y-110937499D01*
X160631927Y-110937499D02*
X160689070Y-110975595D01*
X160689070Y-110975595D02*
X160727165Y-111013690D01*
X160727165Y-111013690D02*
X160746213Y-111051785D01*
X210344033Y-110891127D02*
X210210700Y-110700651D01*
X210115462Y-110891127D02*
X210115462Y-110491127D01*
X210115462Y-110491127D02*
X210267843Y-110491127D01*
X210267843Y-110491127D02*
X210305938Y-110510175D01*
X210305938Y-110510175D02*
X210324985Y-110529222D01*
X210324985Y-110529222D02*
X210344033Y-110567318D01*
X210344033Y-110567318D02*
X210344033Y-110624460D01*
X210344033Y-110624460D02*
X210324985Y-110662556D01*
X210324985Y-110662556D02*
X210305938Y-110681603D01*
X210305938Y-110681603D02*
X210267843Y-110700651D01*
X210267843Y-110700651D02*
X210115462Y-110700651D01*
X210686890Y-110491127D02*
X210610700Y-110491127D01*
X210610700Y-110491127D02*
X210572604Y-110510175D01*
X210572604Y-110510175D02*
X210553557Y-110529222D01*
X210553557Y-110529222D02*
X210515462Y-110586365D01*
X210515462Y-110586365D02*
X210496414Y-110662556D01*
X210496414Y-110662556D02*
X210496414Y-110814937D01*
X210496414Y-110814937D02*
X210515462Y-110853032D01*
X210515462Y-110853032D02*
X210534509Y-110872080D01*
X210534509Y-110872080D02*
X210572604Y-110891127D01*
X210572604Y-110891127D02*
X210648795Y-110891127D01*
X210648795Y-110891127D02*
X210686890Y-110872080D01*
X210686890Y-110872080D02*
X210705938Y-110853032D01*
X210705938Y-110853032D02*
X210724985Y-110814937D01*
X210724985Y-110814937D02*
X210724985Y-110719699D01*
X210724985Y-110719699D02*
X210705938Y-110681603D01*
X210705938Y-110681603D02*
X210686890Y-110662556D01*
X210686890Y-110662556D02*
X210648795Y-110643508D01*
X210648795Y-110643508D02*
X210572604Y-110643508D01*
X210572604Y-110643508D02*
X210534509Y-110662556D01*
X210534509Y-110662556D02*
X210515462Y-110681603D01*
X210515462Y-110681603D02*
X210496414Y-110719699D01*
D23*
X201950323Y-103517214D02*
X201919847Y-103501976D01*
X201919847Y-103501976D02*
X201889371Y-103471500D01*
X201889371Y-103471500D02*
X201843657Y-103425785D01*
X201843657Y-103425785D02*
X201813180Y-103410547D01*
X201813180Y-103410547D02*
X201782704Y-103410547D01*
X201797942Y-103486738D02*
X201767466Y-103471500D01*
X201767466Y-103471500D02*
X201736990Y-103441023D01*
X201736990Y-103441023D02*
X201721752Y-103380071D01*
X201721752Y-103380071D02*
X201721752Y-103273404D01*
X201721752Y-103273404D02*
X201736990Y-103212452D01*
X201736990Y-103212452D02*
X201767466Y-103181976D01*
X201767466Y-103181976D02*
X201797942Y-103166738D01*
X201797942Y-103166738D02*
X201858895Y-103166738D01*
X201858895Y-103166738D02*
X201889371Y-103181976D01*
X201889371Y-103181976D02*
X201919847Y-103212452D01*
X201919847Y-103212452D02*
X201935085Y-103273404D01*
X201935085Y-103273404D02*
X201935085Y-103380071D01*
X201935085Y-103380071D02*
X201919847Y-103441023D01*
X201919847Y-103441023D02*
X201889371Y-103471500D01*
X201889371Y-103471500D02*
X201858895Y-103486738D01*
X201858895Y-103486738D02*
X201797942Y-103486738D01*
X202041752Y-103166738D02*
X202239847Y-103166738D01*
X202239847Y-103166738D02*
X202133180Y-103288642D01*
X202133180Y-103288642D02*
X202178895Y-103288642D01*
X202178895Y-103288642D02*
X202209371Y-103303880D01*
X202209371Y-103303880D02*
X202224609Y-103319119D01*
X202224609Y-103319119D02*
X202239847Y-103349595D01*
X202239847Y-103349595D02*
X202239847Y-103425785D01*
X202239847Y-103425785D02*
X202224609Y-103456261D01*
X202224609Y-103456261D02*
X202209371Y-103471500D01*
X202209371Y-103471500D02*
X202178895Y-103486738D01*
X202178895Y-103486738D02*
X202087466Y-103486738D01*
X202087466Y-103486738D02*
X202056990Y-103471500D01*
X202056990Y-103471500D02*
X202041752Y-103456261D01*
X192625914Y-112592976D02*
X192610676Y-112623452D01*
X192610676Y-112623452D02*
X192580200Y-112653928D01*
X192580200Y-112653928D02*
X192534485Y-112699642D01*
X192534485Y-112699642D02*
X192519247Y-112730119D01*
X192519247Y-112730119D02*
X192519247Y-112760595D01*
X192595438Y-112745357D02*
X192580200Y-112775833D01*
X192580200Y-112775833D02*
X192549723Y-112806309D01*
X192549723Y-112806309D02*
X192488771Y-112821547D01*
X192488771Y-112821547D02*
X192382104Y-112821547D01*
X192382104Y-112821547D02*
X192321152Y-112806309D01*
X192321152Y-112806309D02*
X192290676Y-112775833D01*
X192290676Y-112775833D02*
X192275438Y-112745357D01*
X192275438Y-112745357D02*
X192275438Y-112684404D01*
X192275438Y-112684404D02*
X192290676Y-112653928D01*
X192290676Y-112653928D02*
X192321152Y-112623452D01*
X192321152Y-112623452D02*
X192382104Y-112608214D01*
X192382104Y-112608214D02*
X192488771Y-112608214D01*
X192488771Y-112608214D02*
X192549723Y-112623452D01*
X192549723Y-112623452D02*
X192580200Y-112653928D01*
X192580200Y-112653928D02*
X192595438Y-112684404D01*
X192595438Y-112684404D02*
X192595438Y-112745357D01*
X192305914Y-112486309D02*
X192290676Y-112471071D01*
X192290676Y-112471071D02*
X192275438Y-112440595D01*
X192275438Y-112440595D02*
X192275438Y-112364404D01*
X192275438Y-112364404D02*
X192290676Y-112333928D01*
X192290676Y-112333928D02*
X192305914Y-112318690D01*
X192305914Y-112318690D02*
X192336390Y-112303452D01*
X192336390Y-112303452D02*
X192366866Y-112303452D01*
X192366866Y-112303452D02*
X192412580Y-112318690D01*
X192412580Y-112318690D02*
X192595438Y-112501547D01*
X192595438Y-112501547D02*
X192595438Y-112303452D01*
D21*
X198204633Y-103471032D02*
X198185585Y-103490080D01*
X198185585Y-103490080D02*
X198128443Y-103509127D01*
X198128443Y-103509127D02*
X198090347Y-103509127D01*
X198090347Y-103509127D02*
X198033204Y-103490080D01*
X198033204Y-103490080D02*
X197995109Y-103451984D01*
X197995109Y-103451984D02*
X197976062Y-103413889D01*
X197976062Y-103413889D02*
X197957014Y-103337699D01*
X197957014Y-103337699D02*
X197957014Y-103280556D01*
X197957014Y-103280556D02*
X197976062Y-103204365D01*
X197976062Y-103204365D02*
X197995109Y-103166270D01*
X197995109Y-103166270D02*
X198033204Y-103128175D01*
X198033204Y-103128175D02*
X198090347Y-103109127D01*
X198090347Y-103109127D02*
X198128443Y-103109127D01*
X198128443Y-103109127D02*
X198185585Y-103128175D01*
X198185585Y-103128175D02*
X198204633Y-103147222D01*
X198547490Y-103242460D02*
X198547490Y-103509127D01*
X198452252Y-103090080D02*
X198357014Y-103375794D01*
X198357014Y-103375794D02*
X198604633Y-103375794D01*
X192543832Y-108679166D02*
X192562880Y-108698214D01*
X192562880Y-108698214D02*
X192581927Y-108755356D01*
X192581927Y-108755356D02*
X192581927Y-108793452D01*
X192581927Y-108793452D02*
X192562880Y-108850595D01*
X192562880Y-108850595D02*
X192524784Y-108888690D01*
X192524784Y-108888690D02*
X192486689Y-108907737D01*
X192486689Y-108907737D02*
X192410499Y-108926785D01*
X192410499Y-108926785D02*
X192353356Y-108926785D01*
X192353356Y-108926785D02*
X192277165Y-108907737D01*
X192277165Y-108907737D02*
X192239070Y-108888690D01*
X192239070Y-108888690D02*
X192200975Y-108850595D01*
X192200975Y-108850595D02*
X192181927Y-108793452D01*
X192181927Y-108793452D02*
X192181927Y-108755356D01*
X192181927Y-108755356D02*
X192200975Y-108698214D01*
X192200975Y-108698214D02*
X192220022Y-108679166D01*
X192220022Y-108526785D02*
X192200975Y-108507737D01*
X192200975Y-108507737D02*
X192181927Y-108469642D01*
X192181927Y-108469642D02*
X192181927Y-108374404D01*
X192181927Y-108374404D02*
X192200975Y-108336309D01*
X192200975Y-108336309D02*
X192220022Y-108317261D01*
X192220022Y-108317261D02*
X192258118Y-108298214D01*
X192258118Y-108298214D02*
X192296213Y-108298214D01*
X192296213Y-108298214D02*
X192353356Y-108317261D01*
X192353356Y-108317261D02*
X192581927Y-108545833D01*
X192581927Y-108545833D02*
X192581927Y-108298214D01*
X173555833Y-111853832D02*
X173536785Y-111872880D01*
X173536785Y-111872880D02*
X173479643Y-111891927D01*
X173479643Y-111891927D02*
X173441547Y-111891927D01*
X173441547Y-111891927D02*
X173384404Y-111872880D01*
X173384404Y-111872880D02*
X173346309Y-111834784D01*
X173346309Y-111834784D02*
X173327262Y-111796689D01*
X173327262Y-111796689D02*
X173308214Y-111720499D01*
X173308214Y-111720499D02*
X173308214Y-111663356D01*
X173308214Y-111663356D02*
X173327262Y-111587165D01*
X173327262Y-111587165D02*
X173346309Y-111549070D01*
X173346309Y-111549070D02*
X173384404Y-111510975D01*
X173384404Y-111510975D02*
X173441547Y-111491927D01*
X173441547Y-111491927D02*
X173479643Y-111491927D01*
X173479643Y-111491927D02*
X173536785Y-111510975D01*
X173536785Y-111510975D02*
X173555833Y-111530022D01*
X173689166Y-111491927D02*
X173955833Y-111491927D01*
X173955833Y-111491927D02*
X173784404Y-111891927D01*
D22*
X221404819Y-111159523D02*
X222119104Y-111159523D01*
X222119104Y-111159523D02*
X222261961Y-111207142D01*
X222261961Y-111207142D02*
X222357200Y-111302380D01*
X222357200Y-111302380D02*
X222404819Y-111445237D01*
X222404819Y-111445237D02*
X222404819Y-111540475D01*
X222404819Y-110159523D02*
X222404819Y-110730951D01*
X222404819Y-110445237D02*
X221404819Y-110445237D01*
X221404819Y-110445237D02*
X221547676Y-110540475D01*
X221547676Y-110540475D02*
X221642914Y-110635713D01*
X221642914Y-110635713D02*
X221690533Y-110730951D01*
X222404819Y-109207142D02*
X222404819Y-109778570D01*
X222404819Y-109492856D02*
X221404819Y-109492856D01*
X221404819Y-109492856D02*
X221547676Y-109588094D01*
X221547676Y-109588094D02*
X221642914Y-109683332D01*
X221642914Y-109683332D02*
X221690533Y-109778570D01*
D21*
X218169033Y-112297527D02*
X218035700Y-112107051D01*
X217940462Y-112297527D02*
X217940462Y-111897527D01*
X217940462Y-111897527D02*
X218092843Y-111897527D01*
X218092843Y-111897527D02*
X218130938Y-111916575D01*
X218130938Y-111916575D02*
X218149985Y-111935622D01*
X218149985Y-111935622D02*
X218169033Y-111973718D01*
X218169033Y-111973718D02*
X218169033Y-112030860D01*
X218169033Y-112030860D02*
X218149985Y-112068956D01*
X218149985Y-112068956D02*
X218130938Y-112088003D01*
X218130938Y-112088003D02*
X218092843Y-112107051D01*
X218092843Y-112107051D02*
X217940462Y-112107051D01*
X218397604Y-112068956D02*
X218359509Y-112049908D01*
X218359509Y-112049908D02*
X218340462Y-112030860D01*
X218340462Y-112030860D02*
X218321414Y-111992765D01*
X218321414Y-111992765D02*
X218321414Y-111973718D01*
X218321414Y-111973718D02*
X218340462Y-111935622D01*
X218340462Y-111935622D02*
X218359509Y-111916575D01*
X218359509Y-111916575D02*
X218397604Y-111897527D01*
X218397604Y-111897527D02*
X218473795Y-111897527D01*
X218473795Y-111897527D02*
X218511890Y-111916575D01*
X218511890Y-111916575D02*
X218530938Y-111935622D01*
X218530938Y-111935622D02*
X218549985Y-111973718D01*
X218549985Y-111973718D02*
X218549985Y-111992765D01*
X218549985Y-111992765D02*
X218530938Y-112030860D01*
X218530938Y-112030860D02*
X218511890Y-112049908D01*
X218511890Y-112049908D02*
X218473795Y-112068956D01*
X218473795Y-112068956D02*
X218397604Y-112068956D01*
X218397604Y-112068956D02*
X218359509Y-112088003D01*
X218359509Y-112088003D02*
X218340462Y-112107051D01*
X218340462Y-112107051D02*
X218321414Y-112145146D01*
X218321414Y-112145146D02*
X218321414Y-112221337D01*
X218321414Y-112221337D02*
X218340462Y-112259432D01*
X218340462Y-112259432D02*
X218359509Y-112278480D01*
X218359509Y-112278480D02*
X218397604Y-112297527D01*
X218397604Y-112297527D02*
X218473795Y-112297527D01*
X218473795Y-112297527D02*
X218511890Y-112278480D01*
X218511890Y-112278480D02*
X218530938Y-112259432D01*
X218530938Y-112259432D02*
X218549985Y-112221337D01*
X218549985Y-112221337D02*
X218549985Y-112145146D01*
X218549985Y-112145146D02*
X218530938Y-112107051D01*
X218530938Y-112107051D02*
X218511890Y-112088003D01*
X218511890Y-112088003D02*
X218473795Y-112068956D01*
D24*
%TO.C,R14*%
X203111000Y-100603000D02*
X201511000Y-100603000D01*
X203111000Y-99803000D02*
X203111000Y-100603000D01*
X201511000Y-100603000D02*
X201511000Y-99803000D01*
X201511000Y-99803000D02*
X203111000Y-99803000D01*
%TO.C,R13*%
X213595000Y-102680500D02*
X213595000Y-101080500D01*
X214395000Y-102680500D02*
X213595000Y-102680500D01*
X213595000Y-101080500D02*
X214395000Y-101080500D01*
X214395000Y-101080500D02*
X214395000Y-102680500D01*
%TO.C,R12*%
X211593500Y-102762000D02*
X209993500Y-102762000D01*
X211593500Y-101962000D02*
X211593500Y-102762000D01*
X209993500Y-102762000D02*
X209993500Y-101962000D01*
X209993500Y-101962000D02*
X211593500Y-101962000D01*
%TO.C,J5*%
X160464000Y-120774000D02*
X166214000Y-120774000D01*
X166214000Y-120774000D02*
X166214000Y-113374000D01*
X160464000Y-118949000D02*
X161464000Y-118324000D01*
X161464000Y-118324000D02*
X160464000Y-117699000D01*
X160464000Y-113374000D02*
X160464000Y-120774000D01*
X166214000Y-113374000D02*
X160464000Y-113374000D01*
%TO.C,J10*%
X207970000Y-119875000D02*
X207335000Y-120510000D01*
X207970000Y-100190000D02*
X207970000Y-119875000D01*
X207335000Y-120510000D02*
X205430000Y-120510000D01*
X205430000Y-120510000D02*
X205430000Y-100190000D01*
X205430000Y-100190000D02*
X207970000Y-100190000D01*
%TO.C,R1*%
X162850000Y-110387500D02*
X163650000Y-110387500D01*
X162850000Y-111987500D02*
X162850000Y-110387500D01*
X163650000Y-110387500D02*
X163650000Y-111987500D01*
X163650000Y-111987500D02*
X162850000Y-111987500D01*
%TO.C,R4*%
X209587500Y-107100000D02*
X211187500Y-107100000D01*
X209587500Y-107900000D02*
X209587500Y-107100000D01*
X211187500Y-107100000D02*
X211187500Y-107900000D01*
X211187500Y-107900000D02*
X209587500Y-107900000D01*
%TO.C,R7*%
X217435700Y-109886800D02*
X219035700Y-109886800D01*
X217435700Y-110686800D02*
X217435700Y-109886800D01*
X219035700Y-109886800D02*
X219035700Y-110686800D01*
X219035700Y-110686800D02*
X217435700Y-110686800D01*
%TO.C,C6*%
X203500000Y-117800000D02*
X204300000Y-117800000D01*
X203500000Y-119400000D02*
X203500000Y-117800000D01*
X204300000Y-117800000D02*
X204300000Y-119400000D01*
X204300000Y-119400000D02*
X203500000Y-119400000D01*
%TO.C,R11*%
X217357500Y-106950000D02*
X218957500Y-106950000D01*
X217357500Y-107750000D02*
X217357500Y-106950000D01*
X218957500Y-106950000D02*
X218957500Y-107750000D01*
X218957500Y-107750000D02*
X217357500Y-107750000D01*
%TO.C,R3*%
X209587500Y-112011000D02*
X211187500Y-112011000D01*
X209587500Y-112811000D02*
X209587500Y-112011000D01*
X211187500Y-112011000D02*
X211187500Y-112811000D01*
X211187500Y-112811000D02*
X209587500Y-112811000D01*
%TO.C,R2*%
X211460000Y-116940000D02*
X212260000Y-116940000D01*
X211460000Y-118540000D02*
X211460000Y-116940000D01*
X212260000Y-116940000D02*
X212260000Y-118540000D01*
X212260000Y-118540000D02*
X211460000Y-118540000D01*
%TO.C,J1*%
X182050000Y-99050000D02*
X182050000Y-108950000D01*
X182050000Y-107125000D02*
X183050000Y-106500000D01*
X182050000Y-108950000D02*
X187800000Y-108950000D01*
X183050000Y-106500000D02*
X182050000Y-105875000D01*
X187800000Y-99050000D02*
X182050000Y-99050000D01*
X187800000Y-108950000D02*
X187800000Y-99050000D01*
%TO.C,J3*%
X167750000Y-99000000D02*
X167750000Y-108900000D01*
X167750000Y-107075000D02*
X168750000Y-106450000D01*
X167750000Y-108900000D02*
X173500000Y-108900000D01*
X168750000Y-106450000D02*
X167750000Y-105825000D01*
X173500000Y-99000000D02*
X167750000Y-99000000D01*
X173500000Y-108900000D02*
X173500000Y-99000000D01*
%TO.C,J2*%
X174900000Y-99050000D02*
X174900000Y-108950000D01*
X174900000Y-107125000D02*
X175900000Y-106500000D01*
X174900000Y-108950000D02*
X180650000Y-108950000D01*
X175900000Y-106500000D02*
X174900000Y-105875000D01*
X180650000Y-99050000D02*
X174900000Y-99050000D01*
X180650000Y-108950000D02*
X180650000Y-99050000D01*
%TO.C,Q4*%
X201412500Y-106750000D02*
X202712500Y-106750000D01*
X201412500Y-109650000D02*
X201412500Y-106750000D01*
X202387500Y-109650000D02*
X201412500Y-109650000D01*
X202712500Y-106750000D02*
X202712500Y-109325000D01*
X202712500Y-109325000D02*
X202387500Y-109650000D01*
%TO.C,J7*%
X167775000Y-113400000D02*
X167775000Y-120800000D01*
X167775000Y-118975000D02*
X168775000Y-118350000D01*
X167775000Y-120800000D02*
X173525000Y-120800000D01*
X168775000Y-118350000D02*
X167775000Y-117725000D01*
X173525000Y-113400000D02*
X167775000Y-113400000D01*
X173525000Y-120800000D02*
X173525000Y-113400000D01*
%TO.C,J8*%
X182075000Y-113400000D02*
X182075000Y-120800000D01*
X182075000Y-118975000D02*
X183075000Y-118350000D01*
X182075000Y-120800000D02*
X187825000Y-120800000D01*
X183075000Y-118350000D02*
X182075000Y-117725000D01*
X187825000Y-113400000D02*
X182075000Y-113400000D01*
X187825000Y-120800000D02*
X187825000Y-113400000D01*
%TO.C,R10*%
X217387100Y-100946000D02*
X218987100Y-100946000D01*
X217387100Y-101746000D02*
X217387100Y-100946000D01*
X218987100Y-100946000D02*
X218987100Y-101746000D01*
X218987100Y-101746000D02*
X217387100Y-101746000D01*
%TO.C,R5*%
X209587500Y-108751000D02*
X211187500Y-108751000D01*
X209587500Y-109551000D02*
X209587500Y-108751000D01*
X211187500Y-108751000D02*
X211187500Y-109551000D01*
X211187500Y-109551000D02*
X209587500Y-109551000D01*
%TO.C,C5*%
X197587500Y-112850000D02*
X199187500Y-112850000D01*
X197587500Y-113650000D02*
X197587500Y-112850000D01*
X199187500Y-112850000D02*
X199187500Y-113650000D01*
X199187500Y-113650000D02*
X197587500Y-113650000D01*
%TO.C,Q1*%
X201537500Y-111800000D02*
X202837500Y-111800000D01*
X201537500Y-114700000D02*
X201537500Y-111800000D01*
X202512500Y-114700000D02*
X201537500Y-114700000D01*
X202837500Y-111800000D02*
X202837500Y-114375000D01*
X202837500Y-114375000D02*
X202512500Y-114700000D01*
%TO.C,C3*%
X197562500Y-107850000D02*
X199162500Y-107850000D01*
X197562500Y-108650000D02*
X197562500Y-107850000D01*
X199162500Y-107850000D02*
X199162500Y-108650000D01*
X199162500Y-108650000D02*
X197562500Y-108650000D01*
%TO.C,R9*%
X217387100Y-103587600D02*
X218987100Y-103587600D01*
X217387100Y-104387600D02*
X217387100Y-103587600D01*
X218987100Y-103587600D02*
X218987100Y-104387600D01*
X218987100Y-104387600D02*
X217387100Y-104387600D01*
%TO.C,C1*%
X160450000Y-110337500D02*
X161250000Y-110337500D01*
X160450000Y-111937500D02*
X160450000Y-110337500D01*
X161250000Y-110337500D02*
X161250000Y-111937500D01*
X161250000Y-111937500D02*
X160450000Y-111937500D01*
%TO.C,J6*%
X174925000Y-113400000D02*
X174925000Y-120800000D01*
X174925000Y-118975000D02*
X175925000Y-118350000D01*
X174925000Y-120800000D02*
X180675000Y-120800000D01*
X175925000Y-118350000D02*
X174925000Y-117725000D01*
X180675000Y-113400000D02*
X174925000Y-113400000D01*
X180675000Y-120800000D02*
X180675000Y-113400000D01*
%TO.C,R6*%
X209610700Y-110309200D02*
X211210700Y-110309200D01*
X209610700Y-111109200D02*
X209610700Y-110309200D01*
X211210700Y-110309200D02*
X211210700Y-111109200D01*
X211210700Y-111109200D02*
X209610700Y-111109200D01*
%TO.C,Q3*%
X201330800Y-101891300D02*
X202630800Y-101891300D01*
X201330800Y-104791300D02*
X201330800Y-101891300D01*
X202305800Y-104791300D02*
X201330800Y-104791300D01*
X202630800Y-101891300D02*
X202630800Y-104466300D01*
X202630800Y-104466300D02*
X202305800Y-104791300D01*
%TO.C,Q2*%
X191000000Y-111912500D02*
X193900000Y-111912500D01*
X191000000Y-112887500D02*
X191000000Y-111912500D01*
X191325000Y-113212500D02*
X191000000Y-112887500D01*
X193900000Y-111912500D02*
X193900000Y-113212500D01*
X193900000Y-113212500D02*
X191325000Y-113212500D01*
%TO.C,C4*%
X197471300Y-102927200D02*
X199071300Y-102927200D01*
X197471300Y-103727200D02*
X197471300Y-102927200D01*
X199071300Y-102927200D02*
X199071300Y-103727200D01*
X199071300Y-103727200D02*
X197471300Y-103727200D01*
%TO.C,C2*%
X192000000Y-107812500D02*
X192800000Y-107812500D01*
X192000000Y-109412500D02*
X192000000Y-107812500D01*
X192800000Y-107812500D02*
X192800000Y-109412500D01*
X192800000Y-109412500D02*
X192000000Y-109412500D01*
%TO.C,C7*%
X172822500Y-111310000D02*
X174422500Y-111310000D01*
X172822500Y-112110000D02*
X172822500Y-111310000D01*
X174422500Y-111310000D02*
X174422500Y-112110000D01*
X174422500Y-112110000D02*
X172822500Y-112110000D01*
%TO.C,J11*%
X220680000Y-100190000D02*
X223220000Y-100190000D01*
X220680000Y-120510000D02*
X220680000Y-100190000D01*
X222585000Y-120510000D02*
X220680000Y-120510000D01*
X223220000Y-100190000D02*
X223220000Y-119875000D01*
X223220000Y-119875000D02*
X222585000Y-120510000D01*
%TO.C,R8*%
X217435700Y-111715600D02*
X219035700Y-111715600D01*
X217435700Y-112515600D02*
X217435700Y-111715600D01*
X219035700Y-111715600D02*
X219035700Y-112515600D01*
X219035700Y-112515600D02*
X217435700Y-112515600D01*
%TD*%
M02*
