M48
; DRILL file {KiCad 9.0.3} date 2025-09-10T20:52:43+0900
; FORMAT={-:-/ absolute / metric / decimal}
; #@! TF.CreationDate,2025-09-10T20:52:43+09:00
; #@! TF.GenerationSoftware,Kicad,Pcbnew,9.0.3
; #@! TF.FileFunction,Plated,1,2,PTH
FMAT,2
METRIC
; #@! TA.AperFunction,Plated,PTH,ViaDrill
T1C0.300
; #@! TA.AperFunction,Plated,PTH,ViaDrill
T2C0.500
; #@! TA.AperFunction,Plated,PTH,ComponentDrill
T3C0.950
; #@! TA.AperFunction,Plated,PTH,ComponentDrill
T4C1.000
; #@! TA.AperFunction,Plated,PTH,ComponentDrill
T5C1.200
%
G90
G05
T1
X175.8Y-110.2
X179.2Y-105.6
X187.25Y-99.75
X193.4Y-104.6
X193.8Y-109.75
X195.2Y-104.8
X195.4Y-113.4
X196.75Y-115.25
X198.701Y-104.8
X198.8Y-114.8
X199.75Y-105.75
X200.0Y-111.25
X200.25Y-101.75
X202.15Y-117.95
X204.25Y-115.5
X204.25Y-116.5
X204.5Y-109.0
X204.724Y-99.187
X208.407Y-106.172
X209.042Y-103.759
X209.804Y-106.045
X211.074Y-104.394
X212.471Y-103.632
X212.75Y-105.0
X212.75Y-111.25
X213.0Y-112.75
X213.5Y-104.25
X213.73Y-114.3
X214.25Y-106.0
X215.09Y-109.02
X218.1Y-113.78
X219.18Y-108.94
T2
X165.75Y-116.95
T3
X170.1Y-101.45
X170.1Y-103.95
X170.1Y-106.45
X177.25Y-101.5
X177.25Y-104.0
X177.25Y-106.5
X184.4Y-101.5
X184.4Y-104.0
X184.4Y-106.5
T4
X162.814Y-115.824
X162.814Y-118.324
X170.125Y-115.85
X170.125Y-118.35
X177.275Y-115.85
X177.275Y-118.35
X184.425Y-115.85
X184.425Y-118.35
X206.7Y-101.46
X206.7Y-104.0
X206.7Y-106.54
X206.7Y-109.08
X206.7Y-111.62
X206.7Y-114.16
X206.7Y-116.7
X206.7Y-119.24
X221.95Y-101.46
X221.95Y-104.0
X221.95Y-106.54
X221.95Y-109.08
X221.95Y-111.62
X221.95Y-114.16
X221.95Y-116.7
X221.95Y-119.24
T5
X191.95Y-101.181
X191.95Y-118.681
X195.45Y-101.181
X199.95Y-118.681
M30
