M48
; DRILL file {KiCad 9.0.3} date 2025-08-24T20:12:35+0900
; FORMAT={-:-/ absolute / metric / decimal}
; #@! TF.CreationDate,2025-08-24T20:12:35+09:00
; #@! TF.GenerationSoftware,Kicad,Pcbnew,9.0.3
; #@! TF.FileFunction,Plated,1,2,PTH
FMAT,2
METRIC
; #@! TA.AperFunction,Plated,PTH,ViaDrill
T1C0.300
; #@! TA.AperFunction,Plated,PTH,ComponentDrill
T2C0.950
; #@! TA.AperFunction,Plated,PTH,ComponentDrill
T3C1.000
; #@! TA.AperFunction,Plated,PTH,ComponentDrill
T4C1.200
%
G90
G05
T1
X125.044Y-105.893
X132.41Y-95.936
X134.595Y-87.63
X134.747Y-89.103
X136.677Y-92.507
X138.176Y-87.732
X140.106Y-112.954
X140.665Y-107.086
X141.308Y-102.114
X141.529Y-105.232
X141.8Y-96.8
X141.91Y-91.415
X143.002Y-94.717
X144.45Y-111.125
X145.923Y-102.413
X146.507Y-114.859
X148.2Y-98.7
X149.479Y-95.428
X150.393Y-98.552
X152.603Y-91.313
X153.083Y-97.617
X153.975Y-108.433
X154.686Y-105.461
X155.372Y-103.2
X161.6Y-98.05
X162.05Y-105.6
X163.9Y-115.2
T2
X127.717Y-97.662
X127.717Y-100.162
X127.717Y-102.662
X136.742Y-97.662
X136.742Y-100.162
X136.742Y-102.662
T3
X119.66Y-109.546
X119.66Y-112.046
X119.693Y-98.724
X119.693Y-101.224
X127.717Y-90.262
X127.717Y-109.462
X127.717Y-111.962
X130.217Y-90.262
X136.717Y-109.462
X136.717Y-111.962
X159.273Y-88.544
X159.273Y-91.084
X159.273Y-93.624
X159.273Y-96.164
X159.273Y-98.704
X159.273Y-101.244
X159.273Y-103.784
X159.273Y-106.324
X174.523Y-88.544
X174.523Y-91.084
X174.523Y-93.624
X174.523Y-96.164
X174.523Y-98.704
X174.523Y-101.244
X174.523Y-103.784
X174.523Y-106.324
T4
X143.716Y-96.52
X143.716Y-114.02
X147.216Y-96.52
X151.716Y-114.02
M30
