%TF.GenerationSoftware,KiCad,Pcbnew,9.0.3*%
%TF.CreationDate,2025-08-24T20:12:34+09:00*%
%TF.ProjectId,mirror_Shooter_v2,6d697272-6f72-45f5-9368-6f6f7465725f,rev?*%
%TF.SameCoordinates,Original*%
%TF.FileFunction,Soldermask,Bot*%
%TF.FilePolarity,Negative*%
%FSLAX46Y46*%
G04 Gerber Fmt 4.6, Leading zero omitted, Abs format (unit mm)*
G04 Created by KiCad (PCBNEW 9.0.3) date 2025-08-24 20:12:34*
%MOMM*%
%LPD*%
G01*
G04 APERTURE LIST*
G04 Aperture macros list*
%AMRoundRect*
0 Rectangle with rounded corners*
0 $1 Rounding radius*
0 $2 $3 $4 $5 $6 $7 $8 $9 X,Y pos of 4 corners*
0 Add a 4 corners polygon primitive as box body*
4,1,4,$2,$3,$4,$5,$6,$7,$8,$9,$2,$3,0*
0 Add four circle primitives for the rounded corners*
1,1,$1+$1,$2,$3*
1,1,$1+$1,$4,$5*
1,1,$1+$1,$6,$7*
1,1,$1+$1,$8,$9*
0 Add four rect primitives between the rounded corners*
20,1,$1+$1,$2,$3,$4,$5,0*
20,1,$1+$1,$4,$5,$6,$7,0*
20,1,$1+$1,$6,$7,$8,$9,0*
20,1,$1+$1,$8,$9,$2,$3,0*%
G04 Aperture macros list end*
%ADD10RoundRect,0.250000X-0.725000X0.600000X-0.725000X-0.600000X0.725000X-0.600000X0.725000X0.600000X0*%
%ADD11O,1.950000X1.700000*%
%ADD12C,3.200000*%
%ADD13RoundRect,0.250000X0.725000X-0.600000X0.725000X0.600000X-0.725000X0.600000X-0.725000X-0.600000X0*%
%ADD14C,2.000000*%
%ADD15RoundRect,0.250000X0.750000X-0.600000X0.750000X0.600000X-0.750000X0.600000X-0.750000X-0.600000X0*%
%ADD16O,2.000000X1.700000*%
%ADD17RoundRect,0.250000X-0.600000X-0.750000X0.600000X-0.750000X0.600000X0.750000X-0.600000X0.750000X0*%
%ADD18O,1.700000X2.000000*%
%ADD19R,1.700000X1.700000*%
%ADD20C,1.700000*%
%ADD21RoundRect,0.250000X-0.750000X0.600000X-0.750000X-0.600000X0.750000X-0.600000X0.750000X0.600000X0*%
%ADD22C,0.060000*%
%ADD23C,0.120000*%
%ADD24C,0.050000*%
%ADD25C,0.150000*%
%ADD26C,0.100000*%
G04 APERTURE END LIST*
D10*
%TO.C,J5*%
X136742200Y-97661600D03*
D11*
X136742200Y-100161600D03*
X136742200Y-102661600D03*
%TD*%
D12*
%TO.C,H2*%
X174167800Y-112166400D03*
%TD*%
D13*
%TO.C,J4*%
X127717200Y-102661600D03*
D11*
X127717200Y-100161600D03*
X127717200Y-97661600D03*
%TD*%
D14*
%TO.C,J1*%
X151715800Y-114020000D03*
X143715800Y-114020000D03*
%TD*%
D15*
%TO.C,J6*%
X127717200Y-111961600D03*
D16*
X127717200Y-109461600D03*
%TD*%
D14*
%TO.C,J2*%
X143715800Y-96520000D03*
X147215800Y-96520000D03*
%TD*%
D15*
%TO.C,B+*%
X119660400Y-112046400D03*
D16*
X119660400Y-109546400D03*
%TD*%
D17*
%TO.C,J3*%
X127717200Y-90261600D03*
D18*
X130217200Y-90261600D03*
%TD*%
D19*
%TO.C,J9*%
X159273400Y-106324400D03*
D20*
X159273400Y-103784400D03*
X159273400Y-101244400D03*
X159273400Y-98704400D03*
X159273400Y-96164400D03*
X159273400Y-93624400D03*
X159273400Y-91084400D03*
X159273400Y-88544400D03*
%TD*%
D12*
%TO.C,H1*%
X120217800Y-91084400D03*
%TD*%
D15*
%TO.C,J10*%
X119692800Y-101223600D03*
D16*
X119692800Y-98723600D03*
%TD*%
D21*
%TO.C,J7*%
X136717200Y-109461600D03*
D16*
X136717200Y-111961600D03*
%TD*%
D19*
%TO.C,J8*%
X174523400Y-106324400D03*
D20*
X174523400Y-103784400D03*
X174523400Y-101244400D03*
X174523400Y-98704400D03*
X174523400Y-96164400D03*
X174523400Y-93624400D03*
X174523400Y-91084400D03*
X174523400Y-88544400D03*
%TD*%
D22*
X153013633Y-103813927D02*
X152880300Y-103623451D01*
X152785062Y-103813927D02*
X152785062Y-103413927D01*
X152785062Y-103413927D02*
X152937443Y-103413927D01*
X152937443Y-103413927D02*
X152975538Y-103432975D01*
X152975538Y-103432975D02*
X152994585Y-103452022D01*
X152994585Y-103452022D02*
X153013633Y-103490118D01*
X153013633Y-103490118D02*
X153013633Y-103547260D01*
X153013633Y-103547260D02*
X152994585Y-103585356D01*
X152994585Y-103585356D02*
X152975538Y-103604403D01*
X152975538Y-103604403D02*
X152937443Y-103623451D01*
X152937443Y-103623451D02*
X152785062Y-103623451D01*
X153146966Y-103413927D02*
X153413633Y-103413927D01*
X153413633Y-103413927D02*
X153242204Y-103813927D01*
X145857433Y-103864727D02*
X145724100Y-103674251D01*
X145628862Y-103864727D02*
X145628862Y-103464727D01*
X145628862Y-103464727D02*
X145781243Y-103464727D01*
X145781243Y-103464727D02*
X145819338Y-103483775D01*
X145819338Y-103483775D02*
X145838385Y-103502822D01*
X145838385Y-103502822D02*
X145857433Y-103540918D01*
X145857433Y-103540918D02*
X145857433Y-103598060D01*
X145857433Y-103598060D02*
X145838385Y-103636156D01*
X145838385Y-103636156D02*
X145819338Y-103655203D01*
X145819338Y-103655203D02*
X145781243Y-103674251D01*
X145781243Y-103674251D02*
X145628862Y-103674251D01*
X146086004Y-103636156D02*
X146047909Y-103617108D01*
X146047909Y-103617108D02*
X146028862Y-103598060D01*
X146028862Y-103598060D02*
X146009814Y-103559965D01*
X146009814Y-103559965D02*
X146009814Y-103540918D01*
X146009814Y-103540918D02*
X146028862Y-103502822D01*
X146028862Y-103502822D02*
X146047909Y-103483775D01*
X146047909Y-103483775D02*
X146086004Y-103464727D01*
X146086004Y-103464727D02*
X146162195Y-103464727D01*
X146162195Y-103464727D02*
X146200290Y-103483775D01*
X146200290Y-103483775D02*
X146219338Y-103502822D01*
X146219338Y-103502822D02*
X146238385Y-103540918D01*
X146238385Y-103540918D02*
X146238385Y-103559965D01*
X146238385Y-103559965D02*
X146219338Y-103598060D01*
X146219338Y-103598060D02*
X146200290Y-103617108D01*
X146200290Y-103617108D02*
X146162195Y-103636156D01*
X146162195Y-103636156D02*
X146086004Y-103636156D01*
X146086004Y-103636156D02*
X146047909Y-103655203D01*
X146047909Y-103655203D02*
X146028862Y-103674251D01*
X146028862Y-103674251D02*
X146009814Y-103712346D01*
X146009814Y-103712346D02*
X146009814Y-103788537D01*
X146009814Y-103788537D02*
X146028862Y-103826632D01*
X146028862Y-103826632D02*
X146047909Y-103845680D01*
X146047909Y-103845680D02*
X146086004Y-103864727D01*
X146086004Y-103864727D02*
X146162195Y-103864727D01*
X146162195Y-103864727D02*
X146200290Y-103845680D01*
X146200290Y-103845680D02*
X146219338Y-103826632D01*
X146219338Y-103826632D02*
X146238385Y-103788537D01*
X146238385Y-103788537D02*
X146238385Y-103712346D01*
X146238385Y-103712346D02*
X146219338Y-103674251D01*
X146219338Y-103674251D02*
X146200290Y-103655203D01*
X146200290Y-103655203D02*
X146162195Y-103636156D01*
X138434127Y-92238966D02*
X138243651Y-92372299D01*
X138434127Y-92467537D02*
X138034127Y-92467537D01*
X138034127Y-92467537D02*
X138034127Y-92315156D01*
X138034127Y-92315156D02*
X138053175Y-92277061D01*
X138053175Y-92277061D02*
X138072222Y-92258014D01*
X138072222Y-92258014D02*
X138110318Y-92238966D01*
X138110318Y-92238966D02*
X138167460Y-92238966D01*
X138167460Y-92238966D02*
X138205556Y-92258014D01*
X138205556Y-92258014D02*
X138224603Y-92277061D01*
X138224603Y-92277061D02*
X138243651Y-92315156D01*
X138243651Y-92315156D02*
X138243651Y-92467537D01*
X138034127Y-92105633D02*
X138034127Y-91858014D01*
X138034127Y-91858014D02*
X138186508Y-91991347D01*
X138186508Y-91991347D02*
X138186508Y-91934204D01*
X138186508Y-91934204D02*
X138205556Y-91896109D01*
X138205556Y-91896109D02*
X138224603Y-91877061D01*
X138224603Y-91877061D02*
X138262699Y-91858014D01*
X138262699Y-91858014D02*
X138357937Y-91858014D01*
X138357937Y-91858014D02*
X138396032Y-91877061D01*
X138396032Y-91877061D02*
X138415080Y-91896109D01*
X138415080Y-91896109D02*
X138434127Y-91934204D01*
X138434127Y-91934204D02*
X138434127Y-92048490D01*
X138434127Y-92048490D02*
X138415080Y-92086585D01*
X138415080Y-92086585D02*
X138396032Y-92105633D01*
X149800632Y-112689166D02*
X149819680Y-112708214D01*
X149819680Y-112708214D02*
X149838727Y-112765356D01*
X149838727Y-112765356D02*
X149838727Y-112803452D01*
X149838727Y-112803452D02*
X149819680Y-112860595D01*
X149819680Y-112860595D02*
X149781584Y-112898690D01*
X149781584Y-112898690D02*
X149743489Y-112917737D01*
X149743489Y-112917737D02*
X149667299Y-112936785D01*
X149667299Y-112936785D02*
X149610156Y-112936785D01*
X149610156Y-112936785D02*
X149533965Y-112917737D01*
X149533965Y-112917737D02*
X149495870Y-112898690D01*
X149495870Y-112898690D02*
X149457775Y-112860595D01*
X149457775Y-112860595D02*
X149438727Y-112803452D01*
X149438727Y-112803452D02*
X149438727Y-112765356D01*
X149438727Y-112765356D02*
X149457775Y-112708214D01*
X149457775Y-112708214D02*
X149476822Y-112689166D01*
X149438727Y-112346309D02*
X149438727Y-112422499D01*
X149438727Y-112422499D02*
X149457775Y-112460595D01*
X149457775Y-112460595D02*
X149476822Y-112479642D01*
X149476822Y-112479642D02*
X149533965Y-112517737D01*
X149533965Y-112517737D02*
X149610156Y-112536785D01*
X149610156Y-112536785D02*
X149762537Y-112536785D01*
X149762537Y-112536785D02*
X149800632Y-112517737D01*
X149800632Y-112517737D02*
X149819680Y-112498690D01*
X149819680Y-112498690D02*
X149838727Y-112460595D01*
X149838727Y-112460595D02*
X149838727Y-112384404D01*
X149838727Y-112384404D02*
X149819680Y-112346309D01*
X149819680Y-112346309D02*
X149800632Y-112327261D01*
X149800632Y-112327261D02*
X149762537Y-112308214D01*
X149762537Y-112308214D02*
X149667299Y-112308214D01*
X149667299Y-112308214D02*
X149629203Y-112327261D01*
X149629203Y-112327261D02*
X149610156Y-112346309D01*
X149610156Y-112346309D02*
X149591108Y-112384404D01*
X149591108Y-112384404D02*
X149591108Y-112460595D01*
X149591108Y-112460595D02*
X149610156Y-112498690D01*
X149610156Y-112498690D02*
X149629203Y-112517737D01*
X149629203Y-112517737D02*
X149667299Y-112536785D01*
X145855233Y-99686432D02*
X145836185Y-99705480D01*
X145836185Y-99705480D02*
X145779043Y-99724527D01*
X145779043Y-99724527D02*
X145740947Y-99724527D01*
X145740947Y-99724527D02*
X145683804Y-99705480D01*
X145683804Y-99705480D02*
X145645709Y-99667384D01*
X145645709Y-99667384D02*
X145626662Y-99629289D01*
X145626662Y-99629289D02*
X145607614Y-99553099D01*
X145607614Y-99553099D02*
X145607614Y-99495956D01*
X145607614Y-99495956D02*
X145626662Y-99419765D01*
X145626662Y-99419765D02*
X145645709Y-99381670D01*
X145645709Y-99381670D02*
X145683804Y-99343575D01*
X145683804Y-99343575D02*
X145740947Y-99324527D01*
X145740947Y-99324527D02*
X145779043Y-99324527D01*
X145779043Y-99324527D02*
X145836185Y-99343575D01*
X145836185Y-99343575D02*
X145855233Y-99362622D01*
X146236185Y-99724527D02*
X146007614Y-99724527D01*
X146121900Y-99724527D02*
X146121900Y-99324527D01*
X146121900Y-99324527D02*
X146083804Y-99381670D01*
X146083804Y-99381670D02*
X146045709Y-99419765D01*
X146045709Y-99419765D02*
X146007614Y-99438813D01*
X151781832Y-91607166D02*
X151800880Y-91626214D01*
X151800880Y-91626214D02*
X151819927Y-91683356D01*
X151819927Y-91683356D02*
X151819927Y-91721452D01*
X151819927Y-91721452D02*
X151800880Y-91778595D01*
X151800880Y-91778595D02*
X151762784Y-91816690D01*
X151762784Y-91816690D02*
X151724689Y-91835737D01*
X151724689Y-91835737D02*
X151648499Y-91854785D01*
X151648499Y-91854785D02*
X151591356Y-91854785D01*
X151591356Y-91854785D02*
X151515165Y-91835737D01*
X151515165Y-91835737D02*
X151477070Y-91816690D01*
X151477070Y-91816690D02*
X151438975Y-91778595D01*
X151438975Y-91778595D02*
X151419927Y-91721452D01*
X151419927Y-91721452D02*
X151419927Y-91683356D01*
X151419927Y-91683356D02*
X151438975Y-91626214D01*
X151438975Y-91626214D02*
X151458022Y-91607166D01*
X151419927Y-91245261D02*
X151419927Y-91435737D01*
X151419927Y-91435737D02*
X151610403Y-91454785D01*
X151610403Y-91454785D02*
X151591356Y-91435737D01*
X151591356Y-91435737D02*
X151572308Y-91397642D01*
X151572308Y-91397642D02*
X151572308Y-91302404D01*
X151572308Y-91302404D02*
X151591356Y-91264309D01*
X151591356Y-91264309D02*
X151610403Y-91245261D01*
X151610403Y-91245261D02*
X151648499Y-91226214D01*
X151648499Y-91226214D02*
X151743737Y-91226214D01*
X151743737Y-91226214D02*
X151781832Y-91245261D01*
X151781832Y-91245261D02*
X151800880Y-91264309D01*
X151800880Y-91264309D02*
X151819927Y-91302404D01*
X151819927Y-91302404D02*
X151819927Y-91397642D01*
X151819927Y-91397642D02*
X151800880Y-91435737D01*
X151800880Y-91435737D02*
X151781832Y-91454785D01*
X153018033Y-101629527D02*
X152884700Y-101439051D01*
X152789462Y-101629527D02*
X152789462Y-101229527D01*
X152789462Y-101229527D02*
X152941843Y-101229527D01*
X152941843Y-101229527D02*
X152979938Y-101248575D01*
X152979938Y-101248575D02*
X152998985Y-101267622D01*
X152998985Y-101267622D02*
X153018033Y-101305718D01*
X153018033Y-101305718D02*
X153018033Y-101362860D01*
X153018033Y-101362860D02*
X152998985Y-101400956D01*
X152998985Y-101400956D02*
X152979938Y-101420003D01*
X152979938Y-101420003D02*
X152941843Y-101439051D01*
X152941843Y-101439051D02*
X152789462Y-101439051D01*
X153170414Y-101267622D02*
X153189462Y-101248575D01*
X153189462Y-101248575D02*
X153227557Y-101229527D01*
X153227557Y-101229527D02*
X153322795Y-101229527D01*
X153322795Y-101229527D02*
X153360890Y-101248575D01*
X153360890Y-101248575D02*
X153379938Y-101267622D01*
X153379938Y-101267622D02*
X153398985Y-101305718D01*
X153398985Y-101305718D02*
X153398985Y-101343813D01*
X153398985Y-101343813D02*
X153379938Y-101400956D01*
X153379938Y-101400956D02*
X153151366Y-101629527D01*
X153151366Y-101629527D02*
X153398985Y-101629527D01*
D23*
X149599407Y-102185766D02*
X149599407Y-102452432D01*
X150018455Y-102452432D02*
X149218455Y-102452432D01*
X149218455Y-102452432D02*
X149218455Y-102071480D01*
X149294645Y-101804814D02*
X149256550Y-101766718D01*
X149256550Y-101766718D02*
X149218455Y-101690528D01*
X149218455Y-101690528D02*
X149218455Y-101500052D01*
X149218455Y-101500052D02*
X149256550Y-101423861D01*
X149256550Y-101423861D02*
X149294645Y-101385766D01*
X149294645Y-101385766D02*
X149370836Y-101347671D01*
X149370836Y-101347671D02*
X149447026Y-101347671D01*
X149447026Y-101347671D02*
X149561312Y-101385766D01*
X149561312Y-101385766D02*
X150018455Y-101842909D01*
X150018455Y-101842909D02*
X150018455Y-101347671D01*
D22*
X145666957Y-101756527D02*
X145533624Y-101566051D01*
X145438386Y-101756527D02*
X145438386Y-101356527D01*
X145438386Y-101356527D02*
X145590767Y-101356527D01*
X145590767Y-101356527D02*
X145628862Y-101375575D01*
X145628862Y-101375575D02*
X145647909Y-101394622D01*
X145647909Y-101394622D02*
X145666957Y-101432718D01*
X145666957Y-101432718D02*
X145666957Y-101489860D01*
X145666957Y-101489860D02*
X145647909Y-101527956D01*
X145647909Y-101527956D02*
X145628862Y-101547003D01*
X145628862Y-101547003D02*
X145590767Y-101566051D01*
X145590767Y-101566051D02*
X145438386Y-101566051D01*
X146047909Y-101756527D02*
X145819338Y-101756527D01*
X145933624Y-101756527D02*
X145933624Y-101356527D01*
X145933624Y-101356527D02*
X145895528Y-101413670D01*
X145895528Y-101413670D02*
X145857433Y-101451765D01*
X145857433Y-101451765D02*
X145819338Y-101470813D01*
X146428861Y-101756527D02*
X146200290Y-101756527D01*
X146314576Y-101756527D02*
X146314576Y-101356527D01*
X146314576Y-101356527D02*
X146276480Y-101413670D01*
X146276480Y-101413670D02*
X146238385Y-101451765D01*
X146238385Y-101451765D02*
X146200290Y-101470813D01*
X134687632Y-92213866D02*
X134706680Y-92232914D01*
X134706680Y-92232914D02*
X134725727Y-92290056D01*
X134725727Y-92290056D02*
X134725727Y-92328152D01*
X134725727Y-92328152D02*
X134706680Y-92385295D01*
X134706680Y-92385295D02*
X134668584Y-92423390D01*
X134668584Y-92423390D02*
X134630489Y-92442437D01*
X134630489Y-92442437D02*
X134554299Y-92461485D01*
X134554299Y-92461485D02*
X134497156Y-92461485D01*
X134497156Y-92461485D02*
X134420965Y-92442437D01*
X134420965Y-92442437D02*
X134382870Y-92423390D01*
X134382870Y-92423390D02*
X134344775Y-92385295D01*
X134344775Y-92385295D02*
X134325727Y-92328152D01*
X134325727Y-92328152D02*
X134325727Y-92290056D01*
X134325727Y-92290056D02*
X134344775Y-92232914D01*
X134344775Y-92232914D02*
X134363822Y-92213866D01*
X134325727Y-92080533D02*
X134325727Y-91832914D01*
X134325727Y-91832914D02*
X134478108Y-91966247D01*
X134478108Y-91966247D02*
X134478108Y-91909104D01*
X134478108Y-91909104D02*
X134497156Y-91871009D01*
X134497156Y-91871009D02*
X134516203Y-91851961D01*
X134516203Y-91851961D02*
X134554299Y-91832914D01*
X134554299Y-91832914D02*
X134649537Y-91832914D01*
X134649537Y-91832914D02*
X134687632Y-91851961D01*
X134687632Y-91851961D02*
X134706680Y-91871009D01*
X134706680Y-91871009D02*
X134725727Y-91909104D01*
X134725727Y-91909104D02*
X134725727Y-92023390D01*
X134725727Y-92023390D02*
X134706680Y-92061485D01*
X134706680Y-92061485D02*
X134687632Y-92080533D01*
X146028727Y-112691366D02*
X145838251Y-112824699D01*
X146028727Y-112919937D02*
X145628727Y-112919937D01*
X145628727Y-112919937D02*
X145628727Y-112767556D01*
X145628727Y-112767556D02*
X145647775Y-112729461D01*
X145647775Y-112729461D02*
X145666822Y-112710414D01*
X145666822Y-112710414D02*
X145704918Y-112691366D01*
X145704918Y-112691366D02*
X145762060Y-112691366D01*
X145762060Y-112691366D02*
X145800156Y-112710414D01*
X145800156Y-112710414D02*
X145819203Y-112729461D01*
X145819203Y-112729461D02*
X145838251Y-112767556D01*
X145838251Y-112767556D02*
X145838251Y-112919937D01*
X145628727Y-112329461D02*
X145628727Y-112519937D01*
X145628727Y-112519937D02*
X145819203Y-112538985D01*
X145819203Y-112538985D02*
X145800156Y-112519937D01*
X145800156Y-112519937D02*
X145781108Y-112481842D01*
X145781108Y-112481842D02*
X145781108Y-112386604D01*
X145781108Y-112386604D02*
X145800156Y-112348509D01*
X145800156Y-112348509D02*
X145819203Y-112329461D01*
X145819203Y-112329461D02*
X145857299Y-112310414D01*
X145857299Y-112310414D02*
X145952537Y-112310414D01*
X145952537Y-112310414D02*
X145990632Y-112329461D01*
X145990632Y-112329461D02*
X146009680Y-112348509D01*
X146009680Y-112348509D02*
X146028727Y-112386604D01*
X146028727Y-112386604D02*
X146028727Y-112481842D01*
X146028727Y-112481842D02*
X146009680Y-112519937D01*
X146009680Y-112519937D02*
X145990632Y-112538985D01*
D24*
X142418223Y-111290714D02*
X142387747Y-111275476D01*
X142387747Y-111275476D02*
X142357271Y-111245000D01*
X142357271Y-111245000D02*
X142311557Y-111199285D01*
X142311557Y-111199285D02*
X142281080Y-111184047D01*
X142281080Y-111184047D02*
X142250604Y-111184047D01*
X142265842Y-111260238D02*
X142235366Y-111245000D01*
X142235366Y-111245000D02*
X142204890Y-111214523D01*
X142204890Y-111214523D02*
X142189652Y-111153571D01*
X142189652Y-111153571D02*
X142189652Y-111046904D01*
X142189652Y-111046904D02*
X142204890Y-110985952D01*
X142204890Y-110985952D02*
X142235366Y-110955476D01*
X142235366Y-110955476D02*
X142265842Y-110940238D01*
X142265842Y-110940238D02*
X142326795Y-110940238D01*
X142326795Y-110940238D02*
X142357271Y-110955476D01*
X142357271Y-110955476D02*
X142387747Y-110985952D01*
X142387747Y-110985952D02*
X142402985Y-111046904D01*
X142402985Y-111046904D02*
X142402985Y-111153571D01*
X142402985Y-111153571D02*
X142387747Y-111214523D01*
X142387747Y-111214523D02*
X142357271Y-111245000D01*
X142357271Y-111245000D02*
X142326795Y-111260238D01*
X142326795Y-111260238D02*
X142265842Y-111260238D01*
X142707747Y-111260238D02*
X142524890Y-111260238D01*
X142616318Y-111260238D02*
X142616318Y-110940238D01*
X142616318Y-110940238D02*
X142585842Y-110985952D01*
X142585842Y-110985952D02*
X142555366Y-111016428D01*
X142555366Y-111016428D02*
X142524890Y-111031666D01*
X143858223Y-90218914D02*
X143827747Y-90203676D01*
X143827747Y-90203676D02*
X143797271Y-90173200D01*
X143797271Y-90173200D02*
X143751557Y-90127485D01*
X143751557Y-90127485D02*
X143721080Y-90112247D01*
X143721080Y-90112247D02*
X143690604Y-90112247D01*
X143705842Y-90188438D02*
X143675366Y-90173200D01*
X143675366Y-90173200D02*
X143644890Y-90142723D01*
X143644890Y-90142723D02*
X143629652Y-90081771D01*
X143629652Y-90081771D02*
X143629652Y-89975104D01*
X143629652Y-89975104D02*
X143644890Y-89914152D01*
X143644890Y-89914152D02*
X143675366Y-89883676D01*
X143675366Y-89883676D02*
X143705842Y-89868438D01*
X143705842Y-89868438D02*
X143766795Y-89868438D01*
X143766795Y-89868438D02*
X143797271Y-89883676D01*
X143797271Y-89883676D02*
X143827747Y-89914152D01*
X143827747Y-89914152D02*
X143842985Y-89975104D01*
X143842985Y-89975104D02*
X143842985Y-90081771D01*
X143842985Y-90081771D02*
X143827747Y-90142723D01*
X143827747Y-90142723D02*
X143797271Y-90173200D01*
X143797271Y-90173200D02*
X143766795Y-90188438D01*
X143766795Y-90188438D02*
X143705842Y-90188438D01*
X143964890Y-89898914D02*
X143980128Y-89883676D01*
X143980128Y-89883676D02*
X144010604Y-89868438D01*
X144010604Y-89868438D02*
X144086795Y-89868438D01*
X144086795Y-89868438D02*
X144117271Y-89883676D01*
X144117271Y-89883676D02*
X144132509Y-89898914D01*
X144132509Y-89898914D02*
X144147747Y-89929390D01*
X144147747Y-89929390D02*
X144147747Y-89959866D01*
X144147747Y-89959866D02*
X144132509Y-90005580D01*
X144132509Y-90005580D02*
X143949652Y-90188438D01*
X143949652Y-90188438D02*
X144147747Y-90188438D01*
X151318914Y-107114576D02*
X151303676Y-107145052D01*
X151303676Y-107145052D02*
X151273200Y-107175528D01*
X151273200Y-107175528D02*
X151227485Y-107221242D01*
X151227485Y-107221242D02*
X151212247Y-107251719D01*
X151212247Y-107251719D02*
X151212247Y-107282195D01*
X151288438Y-107266957D02*
X151273200Y-107297433D01*
X151273200Y-107297433D02*
X151242723Y-107327909D01*
X151242723Y-107327909D02*
X151181771Y-107343147D01*
X151181771Y-107343147D02*
X151075104Y-107343147D01*
X151075104Y-107343147D02*
X151014152Y-107327909D01*
X151014152Y-107327909D02*
X150983676Y-107297433D01*
X150983676Y-107297433D02*
X150968438Y-107266957D01*
X150968438Y-107266957D02*
X150968438Y-107206004D01*
X150968438Y-107206004D02*
X150983676Y-107175528D01*
X150983676Y-107175528D02*
X151014152Y-107145052D01*
X151014152Y-107145052D02*
X151075104Y-107129814D01*
X151075104Y-107129814D02*
X151181771Y-107129814D01*
X151181771Y-107129814D02*
X151242723Y-107145052D01*
X151242723Y-107145052D02*
X151273200Y-107175528D01*
X151273200Y-107175528D02*
X151288438Y-107206004D01*
X151288438Y-107206004D02*
X151288438Y-107266957D01*
X150968438Y-107023147D02*
X150968438Y-106825052D01*
X150968438Y-106825052D02*
X151090342Y-106931719D01*
X151090342Y-106931719D02*
X151090342Y-106886004D01*
X151090342Y-106886004D02*
X151105580Y-106855528D01*
X151105580Y-106855528D02*
X151120819Y-106840290D01*
X151120819Y-106840290D02*
X151151295Y-106825052D01*
X151151295Y-106825052D02*
X151227485Y-106825052D01*
X151227485Y-106825052D02*
X151257961Y-106840290D01*
X151257961Y-106840290D02*
X151273200Y-106855528D01*
X151273200Y-106855528D02*
X151288438Y-106886004D01*
X151288438Y-106886004D02*
X151288438Y-106977433D01*
X151288438Y-106977433D02*
X151273200Y-107007909D01*
X151273200Y-107007909D02*
X151257961Y-107023147D01*
D22*
X140199432Y-88762366D02*
X140218480Y-88781414D01*
X140218480Y-88781414D02*
X140237527Y-88838556D01*
X140237527Y-88838556D02*
X140237527Y-88876652D01*
X140237527Y-88876652D02*
X140218480Y-88933795D01*
X140218480Y-88933795D02*
X140180384Y-88971890D01*
X140180384Y-88971890D02*
X140142289Y-88990937D01*
X140142289Y-88990937D02*
X140066099Y-89009985D01*
X140066099Y-89009985D02*
X140008956Y-89009985D01*
X140008956Y-89009985D02*
X139932765Y-88990937D01*
X139932765Y-88990937D02*
X139894670Y-88971890D01*
X139894670Y-88971890D02*
X139856575Y-88933795D01*
X139856575Y-88933795D02*
X139837527Y-88876652D01*
X139837527Y-88876652D02*
X139837527Y-88838556D01*
X139837527Y-88838556D02*
X139856575Y-88781414D01*
X139856575Y-88781414D02*
X139875622Y-88762366D01*
X139875622Y-88609985D02*
X139856575Y-88590937D01*
X139856575Y-88590937D02*
X139837527Y-88552842D01*
X139837527Y-88552842D02*
X139837527Y-88457604D01*
X139837527Y-88457604D02*
X139856575Y-88419509D01*
X139856575Y-88419509D02*
X139875622Y-88400461D01*
X139875622Y-88400461D02*
X139913718Y-88381414D01*
X139913718Y-88381414D02*
X139951813Y-88381414D01*
X139951813Y-88381414D02*
X140008956Y-88400461D01*
X140008956Y-88400461D02*
X140237527Y-88629033D01*
X140237527Y-88629033D02*
X140237527Y-88381414D01*
D24*
X143823114Y-106987576D02*
X143807876Y-107018052D01*
X143807876Y-107018052D02*
X143777400Y-107048528D01*
X143777400Y-107048528D02*
X143731685Y-107094242D01*
X143731685Y-107094242D02*
X143716447Y-107124719D01*
X143716447Y-107124719D02*
X143716447Y-107155195D01*
X143792638Y-107139957D02*
X143777400Y-107170433D01*
X143777400Y-107170433D02*
X143746923Y-107200909D01*
X143746923Y-107200909D02*
X143685971Y-107216147D01*
X143685971Y-107216147D02*
X143579304Y-107216147D01*
X143579304Y-107216147D02*
X143518352Y-107200909D01*
X143518352Y-107200909D02*
X143487876Y-107170433D01*
X143487876Y-107170433D02*
X143472638Y-107139957D01*
X143472638Y-107139957D02*
X143472638Y-107079004D01*
X143472638Y-107079004D02*
X143487876Y-107048528D01*
X143487876Y-107048528D02*
X143518352Y-107018052D01*
X143518352Y-107018052D02*
X143579304Y-107002814D01*
X143579304Y-107002814D02*
X143685971Y-107002814D01*
X143685971Y-107002814D02*
X143746923Y-107018052D01*
X143746923Y-107018052D02*
X143777400Y-107048528D01*
X143777400Y-107048528D02*
X143792638Y-107079004D01*
X143792638Y-107079004D02*
X143792638Y-107139957D01*
X143579304Y-106728528D02*
X143792638Y-106728528D01*
X143457400Y-106804719D02*
X143685971Y-106880909D01*
X143685971Y-106880909D02*
X143685971Y-106682814D01*
D22*
X147451127Y-91660166D02*
X147260651Y-91793499D01*
X147451127Y-91888737D02*
X147051127Y-91888737D01*
X147051127Y-91888737D02*
X147051127Y-91736356D01*
X147051127Y-91736356D02*
X147070175Y-91698261D01*
X147070175Y-91698261D02*
X147089222Y-91679214D01*
X147089222Y-91679214D02*
X147127318Y-91660166D01*
X147127318Y-91660166D02*
X147184460Y-91660166D01*
X147184460Y-91660166D02*
X147222556Y-91679214D01*
X147222556Y-91679214D02*
X147241603Y-91698261D01*
X147241603Y-91698261D02*
X147260651Y-91736356D01*
X147260651Y-91736356D02*
X147260651Y-91888737D01*
X147051127Y-91317309D02*
X147051127Y-91393499D01*
X147051127Y-91393499D02*
X147070175Y-91431595D01*
X147070175Y-91431595D02*
X147089222Y-91450642D01*
X147089222Y-91450642D02*
X147146365Y-91488737D01*
X147146365Y-91488737D02*
X147222556Y-91507785D01*
X147222556Y-91507785D02*
X147374937Y-91507785D01*
X147374937Y-91507785D02*
X147413032Y-91488737D01*
X147413032Y-91488737D02*
X147432080Y-91469690D01*
X147432080Y-91469690D02*
X147451127Y-91431595D01*
X147451127Y-91431595D02*
X147451127Y-91355404D01*
X147451127Y-91355404D02*
X147432080Y-91317309D01*
X147432080Y-91317309D02*
X147413032Y-91298261D01*
X147413032Y-91298261D02*
X147374937Y-91279214D01*
X147374937Y-91279214D02*
X147279699Y-91279214D01*
X147279699Y-91279214D02*
X147241603Y-91298261D01*
X147241603Y-91298261D02*
X147222556Y-91317309D01*
X147222556Y-91317309D02*
X147203508Y-91355404D01*
X147203508Y-91355404D02*
X147203508Y-91431595D01*
X147203508Y-91431595D02*
X147222556Y-91469690D01*
X147222556Y-91469690D02*
X147241603Y-91488737D01*
X147241603Y-91488737D02*
X147279699Y-91507785D01*
D25*
X158728219Y-97767733D02*
X159442504Y-97767733D01*
X159442504Y-97767733D02*
X159585361Y-97815352D01*
X159585361Y-97815352D02*
X159680600Y-97910590D01*
X159680600Y-97910590D02*
X159728219Y-98053447D01*
X159728219Y-98053447D02*
X159728219Y-98148685D01*
X159728219Y-97243923D02*
X159728219Y-97053447D01*
X159728219Y-97053447D02*
X159680600Y-96958209D01*
X159680600Y-96958209D02*
X159632980Y-96910590D01*
X159632980Y-96910590D02*
X159490123Y-96815352D01*
X159490123Y-96815352D02*
X159299647Y-96767733D01*
X159299647Y-96767733D02*
X158918695Y-96767733D01*
X158918695Y-96767733D02*
X158823457Y-96815352D01*
X158823457Y-96815352D02*
X158775838Y-96862971D01*
X158775838Y-96862971D02*
X158728219Y-96958209D01*
X158728219Y-96958209D02*
X158728219Y-97148685D01*
X158728219Y-97148685D02*
X158775838Y-97243923D01*
X158775838Y-97243923D02*
X158823457Y-97291542D01*
X158823457Y-97291542D02*
X158918695Y-97339161D01*
X158918695Y-97339161D02*
X159156790Y-97339161D01*
X159156790Y-97339161D02*
X159252028Y-97291542D01*
X159252028Y-97291542D02*
X159299647Y-97243923D01*
X159299647Y-97243923D02*
X159347266Y-97148685D01*
X159347266Y-97148685D02*
X159347266Y-96958209D01*
X159347266Y-96958209D02*
X159299647Y-96862971D01*
X159299647Y-96862971D02*
X159252028Y-96815352D01*
X159252028Y-96815352D02*
X159156790Y-96767733D01*
X119455895Y-91539219D02*
X119455895Y-90539219D01*
X119455895Y-91015409D02*
X120027323Y-91015409D01*
X120027323Y-91539219D02*
X120027323Y-90539219D01*
X121027323Y-91539219D02*
X120455895Y-91539219D01*
X120741609Y-91539219D02*
X120741609Y-90539219D01*
X120741609Y-90539219D02*
X120646371Y-90682076D01*
X120646371Y-90682076D02*
X120551133Y-90777314D01*
X120551133Y-90777314D02*
X120455895Y-90824933D01*
D22*
X149559327Y-91607166D02*
X149368851Y-91740499D01*
X149559327Y-91835737D02*
X149159327Y-91835737D01*
X149159327Y-91835737D02*
X149159327Y-91683356D01*
X149159327Y-91683356D02*
X149178375Y-91645261D01*
X149178375Y-91645261D02*
X149197422Y-91626214D01*
X149197422Y-91626214D02*
X149235518Y-91607166D01*
X149235518Y-91607166D02*
X149292660Y-91607166D01*
X149292660Y-91607166D02*
X149330756Y-91626214D01*
X149330756Y-91626214D02*
X149349803Y-91645261D01*
X149349803Y-91645261D02*
X149368851Y-91683356D01*
X149368851Y-91683356D02*
X149368851Y-91835737D01*
X149559327Y-91416690D02*
X149559327Y-91340499D01*
X149559327Y-91340499D02*
X149540280Y-91302404D01*
X149540280Y-91302404D02*
X149521232Y-91283356D01*
X149521232Y-91283356D02*
X149464089Y-91245261D01*
X149464089Y-91245261D02*
X149387899Y-91226214D01*
X149387899Y-91226214D02*
X149235518Y-91226214D01*
X149235518Y-91226214D02*
X149197422Y-91245261D01*
X149197422Y-91245261D02*
X149178375Y-91264309D01*
X149178375Y-91264309D02*
X149159327Y-91302404D01*
X149159327Y-91302404D02*
X149159327Y-91378595D01*
X149159327Y-91378595D02*
X149178375Y-91416690D01*
X149178375Y-91416690D02*
X149197422Y-91435737D01*
X149197422Y-91435737D02*
X149235518Y-91454785D01*
X149235518Y-91454785D02*
X149330756Y-91454785D01*
X149330756Y-91454785D02*
X149368851Y-91435737D01*
X149368851Y-91435737D02*
X149387899Y-91416690D01*
X149387899Y-91416690D02*
X149406946Y-91378595D01*
X149406946Y-91378595D02*
X149406946Y-91302404D01*
X149406946Y-91302404D02*
X149387899Y-91264309D01*
X149387899Y-91264309D02*
X149368851Y-91245261D01*
X149368851Y-91245261D02*
X149330756Y-91226214D01*
D23*
X148690033Y-88209807D02*
X148423367Y-88209807D01*
X148423367Y-88628855D02*
X148423367Y-87828855D01*
X148423367Y-87828855D02*
X148804319Y-87828855D01*
X149032890Y-87828855D02*
X149528128Y-87828855D01*
X149528128Y-87828855D02*
X149261462Y-88133617D01*
X149261462Y-88133617D02*
X149375747Y-88133617D01*
X149375747Y-88133617D02*
X149451938Y-88171712D01*
X149451938Y-88171712D02*
X149490033Y-88209807D01*
X149490033Y-88209807D02*
X149528128Y-88285998D01*
X149528128Y-88285998D02*
X149528128Y-88476474D01*
X149528128Y-88476474D02*
X149490033Y-88552664D01*
X149490033Y-88552664D02*
X149451938Y-88590760D01*
X149451938Y-88590760D02*
X149375747Y-88628855D01*
X149375747Y-88628855D02*
X149147176Y-88628855D01*
X149147176Y-88628855D02*
X149070985Y-88590760D01*
X149070985Y-88590760D02*
X149032890Y-88552664D01*
X147296233Y-109215607D02*
X147029567Y-109215607D01*
X147029567Y-109634655D02*
X147029567Y-108834655D01*
X147029567Y-108834655D02*
X147410519Y-108834655D01*
X148058138Y-109101321D02*
X148058138Y-109634655D01*
X147867662Y-108796560D02*
X147677185Y-109367988D01*
X147677185Y-109367988D02*
X148172424Y-109367988D01*
X142372807Y-102212066D02*
X142372807Y-102478732D01*
X142791855Y-102478732D02*
X141991855Y-102478732D01*
X141991855Y-102478732D02*
X141991855Y-102097780D01*
X142791855Y-101373971D02*
X142791855Y-101831114D01*
X142791855Y-101602542D02*
X141991855Y-101602542D01*
X141991855Y-101602542D02*
X142106140Y-101678733D01*
X142106140Y-101678733D02*
X142182331Y-101754923D01*
X142182331Y-101754923D02*
X142220426Y-101831114D01*
D22*
X136630727Y-88788866D02*
X136440251Y-88922199D01*
X136630727Y-89017437D02*
X136230727Y-89017437D01*
X136230727Y-89017437D02*
X136230727Y-88865056D01*
X136230727Y-88865056D02*
X136249775Y-88826961D01*
X136249775Y-88826961D02*
X136268822Y-88807914D01*
X136268822Y-88807914D02*
X136306918Y-88788866D01*
X136306918Y-88788866D02*
X136364060Y-88788866D01*
X136364060Y-88788866D02*
X136402156Y-88807914D01*
X136402156Y-88807914D02*
X136421203Y-88826961D01*
X136421203Y-88826961D02*
X136440251Y-88865056D01*
X136440251Y-88865056D02*
X136440251Y-89017437D01*
X136364060Y-88446009D02*
X136630727Y-88446009D01*
X136211680Y-88541247D02*
X136497394Y-88636485D01*
X136497394Y-88636485D02*
X136497394Y-88388866D01*
D25*
X173978219Y-97767733D02*
X174692504Y-97767733D01*
X174692504Y-97767733D02*
X174835361Y-97815352D01*
X174835361Y-97815352D02*
X174930600Y-97910590D01*
X174930600Y-97910590D02*
X174978219Y-98053447D01*
X174978219Y-98053447D02*
X174978219Y-98148685D01*
X174406790Y-97148685D02*
X174359171Y-97243923D01*
X174359171Y-97243923D02*
X174311552Y-97291542D01*
X174311552Y-97291542D02*
X174216314Y-97339161D01*
X174216314Y-97339161D02*
X174168695Y-97339161D01*
X174168695Y-97339161D02*
X174073457Y-97291542D01*
X174073457Y-97291542D02*
X174025838Y-97243923D01*
X174025838Y-97243923D02*
X173978219Y-97148685D01*
X173978219Y-97148685D02*
X173978219Y-96958209D01*
X173978219Y-96958209D02*
X174025838Y-96862971D01*
X174025838Y-96862971D02*
X174073457Y-96815352D01*
X174073457Y-96815352D02*
X174168695Y-96767733D01*
X174168695Y-96767733D02*
X174216314Y-96767733D01*
X174216314Y-96767733D02*
X174311552Y-96815352D01*
X174311552Y-96815352D02*
X174359171Y-96862971D01*
X174359171Y-96862971D02*
X174406790Y-96958209D01*
X174406790Y-96958209D02*
X174406790Y-97148685D01*
X174406790Y-97148685D02*
X174454409Y-97243923D01*
X174454409Y-97243923D02*
X174502028Y-97291542D01*
X174502028Y-97291542D02*
X174597266Y-97339161D01*
X174597266Y-97339161D02*
X174787742Y-97339161D01*
X174787742Y-97339161D02*
X174882980Y-97291542D01*
X174882980Y-97291542D02*
X174930600Y-97243923D01*
X174930600Y-97243923D02*
X174978219Y-97148685D01*
X174978219Y-97148685D02*
X174978219Y-96958209D01*
X174978219Y-96958209D02*
X174930600Y-96862971D01*
X174930600Y-96862971D02*
X174882980Y-96815352D01*
X174882980Y-96815352D02*
X174787742Y-96767733D01*
X174787742Y-96767733D02*
X174597266Y-96767733D01*
X174597266Y-96767733D02*
X174502028Y-96815352D01*
X174502028Y-96815352D02*
X174454409Y-96862971D01*
X174454409Y-96862971D02*
X174406790Y-96958209D01*
D22*
X153018033Y-99356232D02*
X152998985Y-99375280D01*
X152998985Y-99375280D02*
X152941843Y-99394327D01*
X152941843Y-99394327D02*
X152903747Y-99394327D01*
X152903747Y-99394327D02*
X152846604Y-99375280D01*
X152846604Y-99375280D02*
X152808509Y-99337184D01*
X152808509Y-99337184D02*
X152789462Y-99299089D01*
X152789462Y-99299089D02*
X152770414Y-99222899D01*
X152770414Y-99222899D02*
X152770414Y-99165756D01*
X152770414Y-99165756D02*
X152789462Y-99089565D01*
X152789462Y-99089565D02*
X152808509Y-99051470D01*
X152808509Y-99051470D02*
X152846604Y-99013375D01*
X152846604Y-99013375D02*
X152903747Y-98994327D01*
X152903747Y-98994327D02*
X152941843Y-98994327D01*
X152941843Y-98994327D02*
X152998985Y-99013375D01*
X152998985Y-99013375D02*
X153018033Y-99032422D01*
X153360890Y-99127660D02*
X153360890Y-99394327D01*
X153265652Y-98975280D02*
X153170414Y-99260994D01*
X153170414Y-99260994D02*
X153418033Y-99260994D01*
X147933727Y-112879642D02*
X147743251Y-113012975D01*
X147933727Y-113108213D02*
X147533727Y-113108213D01*
X147533727Y-113108213D02*
X147533727Y-112955832D01*
X147533727Y-112955832D02*
X147552775Y-112917737D01*
X147552775Y-112917737D02*
X147571822Y-112898690D01*
X147571822Y-112898690D02*
X147609918Y-112879642D01*
X147609918Y-112879642D02*
X147667060Y-112879642D01*
X147667060Y-112879642D02*
X147705156Y-112898690D01*
X147705156Y-112898690D02*
X147724203Y-112917737D01*
X147724203Y-112917737D02*
X147743251Y-112955832D01*
X147743251Y-112955832D02*
X147743251Y-113108213D01*
X147933727Y-112498690D02*
X147933727Y-112727261D01*
X147933727Y-112612975D02*
X147533727Y-112612975D01*
X147533727Y-112612975D02*
X147590870Y-112651071D01*
X147590870Y-112651071D02*
X147628965Y-112689166D01*
X147628965Y-112689166D02*
X147648013Y-112727261D01*
X147533727Y-112251071D02*
X147533727Y-112212976D01*
X147533727Y-112212976D02*
X147552775Y-112174880D01*
X147552775Y-112174880D02*
X147571822Y-112155833D01*
X147571822Y-112155833D02*
X147609918Y-112136785D01*
X147609918Y-112136785D02*
X147686108Y-112117738D01*
X147686108Y-112117738D02*
X147781346Y-112117738D01*
X147781346Y-112117738D02*
X147857537Y-112136785D01*
X147857537Y-112136785D02*
X147895632Y-112155833D01*
X147895632Y-112155833D02*
X147914680Y-112174880D01*
X147914680Y-112174880D02*
X147933727Y-112212976D01*
X147933727Y-112212976D02*
X147933727Y-112251071D01*
X147933727Y-112251071D02*
X147914680Y-112289166D01*
X147914680Y-112289166D02*
X147895632Y-112308214D01*
X147895632Y-112308214D02*
X147857537Y-112327261D01*
X147857537Y-112327261D02*
X147781346Y-112346309D01*
X147781346Y-112346309D02*
X147686108Y-112346309D01*
X147686108Y-112346309D02*
X147609918Y-112327261D01*
X147609918Y-112327261D02*
X147571822Y-112308214D01*
X147571822Y-112308214D02*
X147552775Y-112289166D01*
X147552775Y-112289166D02*
X147533727Y-112251071D01*
D26*
%TO.C,R7*%
X152280300Y-103232000D02*
X153880300Y-103232000D01*
X152280300Y-104032000D02*
X152280300Y-103232000D01*
X153880300Y-103232000D02*
X153880300Y-104032000D01*
X153880300Y-104032000D02*
X152280300Y-104032000D01*
%TO.C,R8*%
X145124100Y-103282800D02*
X146724100Y-103282800D01*
X145124100Y-104082800D02*
X145124100Y-103282800D01*
X146724100Y-103282800D02*
X146724100Y-104082800D01*
X146724100Y-104082800D02*
X145124100Y-104082800D01*
%TO.C,R3*%
X137852200Y-91372300D02*
X138652200Y-91372300D01*
X137852200Y-92972300D02*
X137852200Y-91372300D01*
X138652200Y-91372300D02*
X138652200Y-92972300D01*
X138652200Y-92972300D02*
X137852200Y-92972300D01*
%TO.C,C6*%
X149256800Y-111822500D02*
X150056800Y-111822500D01*
X149256800Y-113422500D02*
X149256800Y-111822500D01*
X150056800Y-111822500D02*
X150056800Y-113422500D01*
X150056800Y-113422500D02*
X149256800Y-113422500D01*
%TO.C,C1*%
X145121900Y-99142600D02*
X146721900Y-99142600D01*
X145121900Y-99942600D02*
X145121900Y-99142600D01*
X146721900Y-99142600D02*
X146721900Y-99942600D01*
X146721900Y-99942600D02*
X145121900Y-99942600D01*
%TO.C,J5*%
X133342200Y-95211600D02*
X133342200Y-105111600D01*
X133342200Y-105111600D02*
X139092200Y-105111600D01*
X138092200Y-97661600D02*
X139092200Y-98286600D01*
X139092200Y-95211600D02*
X133342200Y-95211600D01*
X139092200Y-97036600D02*
X138092200Y-97661600D01*
X139092200Y-105111600D02*
X139092200Y-95211600D01*
%TO.C,J4*%
X125367200Y-95211600D02*
X125367200Y-105111600D01*
X125367200Y-103286600D02*
X126367200Y-102661600D01*
X125367200Y-105111600D02*
X131117200Y-105111600D01*
X126367200Y-102661600D02*
X125367200Y-102036600D01*
X131117200Y-95211600D02*
X125367200Y-95211600D01*
X131117200Y-105111600D02*
X131117200Y-95211600D01*
%TO.C,C5*%
X151238000Y-90740500D02*
X152038000Y-90740500D01*
X151238000Y-92340500D02*
X151238000Y-90740500D01*
X152038000Y-90740500D02*
X152038000Y-92340500D01*
X152038000Y-92340500D02*
X151238000Y-92340500D01*
%TO.C,R2*%
X152284700Y-101047600D02*
X153884700Y-101047600D01*
X152284700Y-101847600D02*
X152284700Y-101047600D01*
X153884700Y-101047600D02*
X153884700Y-101847600D01*
X153884700Y-101847600D02*
X152284700Y-101847600D01*
%TO.C,F2*%
X148854600Y-100319100D02*
X150454600Y-100319100D01*
X148854600Y-103519100D02*
X148854600Y-100319100D01*
X150454600Y-100319100D02*
X150454600Y-103519100D01*
X150454600Y-103519100D02*
X148854600Y-103519100D01*
%TO.C,J6*%
X125367200Y-107011600D02*
X125367200Y-114411600D01*
X125367200Y-112586600D02*
X126367200Y-111961600D01*
X125367200Y-114411600D02*
X131117200Y-114411600D01*
X126367200Y-111961600D02*
X125367200Y-111336600D01*
X131117200Y-107011600D02*
X125367200Y-107011600D01*
X131117200Y-114411600D02*
X131117200Y-107011600D01*
%TO.C,R11*%
X145124100Y-101174600D02*
X146724100Y-101174600D01*
X145124100Y-101974600D02*
X145124100Y-101174600D01*
X146724100Y-101174600D02*
X146724100Y-101974600D01*
X146724100Y-101974600D02*
X145124100Y-101974600D01*
%TO.C,C3*%
X134143800Y-91347200D02*
X134943800Y-91347200D01*
X134143800Y-92947200D02*
X134143800Y-91347200D01*
X134943800Y-91347200D02*
X134943800Y-92947200D01*
X134943800Y-92947200D02*
X134143800Y-92947200D01*
%TO.C,R5*%
X145446800Y-111824700D02*
X146246800Y-111824700D01*
X145446800Y-113424700D02*
X145446800Y-111824700D01*
X146246800Y-111824700D02*
X146246800Y-113424700D01*
X146246800Y-113424700D02*
X145446800Y-113424700D01*
%TO.C,Q1*%
X141798700Y-109664800D02*
X143098700Y-109664800D01*
X141798700Y-112564800D02*
X141798700Y-109664800D01*
X142773700Y-112564800D02*
X141798700Y-112564800D01*
X143098700Y-109664800D02*
X143098700Y-112239800D01*
X143098700Y-112239800D02*
X142773700Y-112564800D01*
%TO.C,Q2*%
X143238700Y-88593000D02*
X144538700Y-88593000D01*
X143238700Y-91493000D02*
X143238700Y-88593000D01*
X144213700Y-91493000D02*
X143238700Y-91493000D01*
X144538700Y-88593000D02*
X144538700Y-91168000D01*
X144538700Y-91168000D02*
X144213700Y-91493000D01*
%TO.C,Q3*%
X149693000Y-106434100D02*
X152268000Y-106434100D01*
X149693000Y-107734100D02*
X149693000Y-106434100D01*
X152268000Y-106434100D02*
X152593000Y-106759100D01*
X152593000Y-106759100D02*
X152593000Y-107734100D01*
X152593000Y-107734100D02*
X149693000Y-107734100D01*
%TO.C,B+*%
X117310400Y-107096400D02*
X117310400Y-114496400D01*
X117310400Y-112671400D02*
X118310400Y-112046400D01*
X117310400Y-114496400D02*
X123060400Y-114496400D01*
X118310400Y-112046400D02*
X117310400Y-111421400D01*
X123060400Y-107096400D02*
X117310400Y-107096400D01*
X123060400Y-114496400D02*
X123060400Y-107096400D01*
%TO.C,C2*%
X139655600Y-87895700D02*
X140455600Y-87895700D01*
X139655600Y-89495700D02*
X139655600Y-87895700D01*
X140455600Y-87895700D02*
X140455600Y-89495700D01*
X140455600Y-89495700D02*
X139655600Y-89495700D01*
%TO.C,J3*%
X125267200Y-87911600D02*
X125267200Y-93661600D01*
X125267200Y-93661600D02*
X132667200Y-93661600D01*
X127092200Y-87911600D02*
X127717200Y-88911600D01*
X127717200Y-88911600D02*
X128342200Y-87911600D01*
X132667200Y-87911600D02*
X125267200Y-87911600D01*
X132667200Y-93661600D02*
X132667200Y-87911600D01*
%TO.C,Q4*%
X142197200Y-106307100D02*
X144772200Y-106307100D01*
X142197200Y-107607100D02*
X142197200Y-106307100D01*
X144772200Y-106307100D02*
X145097200Y-106632100D01*
X145097200Y-106632100D02*
X145097200Y-107607100D01*
X145097200Y-107607100D02*
X142197200Y-107607100D01*
%TO.C,R6*%
X146869200Y-90793500D02*
X147669200Y-90793500D01*
X146869200Y-92393500D02*
X146869200Y-90793500D01*
X147669200Y-90793500D02*
X147669200Y-92393500D01*
X147669200Y-92393500D02*
X146869200Y-92393500D01*
%TO.C,J9*%
X158003400Y-87274400D02*
X160543400Y-87274400D01*
X158003400Y-107594400D02*
X158003400Y-87274400D01*
X159908400Y-107594400D02*
X158003400Y-107594400D01*
X160543400Y-87274400D02*
X160543400Y-106959400D01*
X160543400Y-106959400D02*
X159908400Y-107594400D01*
%TO.C,R9*%
X148977400Y-90740500D02*
X149777400Y-90740500D01*
X148977400Y-92340500D02*
X148977400Y-90740500D01*
X149777400Y-90740500D02*
X149777400Y-92340500D01*
X149777400Y-92340500D02*
X148977400Y-92340500D01*
%TO.C,F3*%
X147356700Y-87465000D02*
X150556700Y-87465000D01*
X147356700Y-89065000D02*
X147356700Y-87465000D01*
X150556700Y-87465000D02*
X150556700Y-89065000D01*
X150556700Y-89065000D02*
X147356700Y-89065000D01*
%TO.C,F4*%
X145962900Y-108470800D02*
X149162900Y-108470800D01*
X145962900Y-110070800D02*
X145962900Y-108470800D01*
X149162900Y-108470800D02*
X149162900Y-110070800D01*
X149162900Y-110070800D02*
X145962900Y-110070800D01*
%TO.C,F1*%
X141628000Y-100345400D02*
X143228000Y-100345400D01*
X141628000Y-103545400D02*
X141628000Y-100345400D01*
X143228000Y-100345400D02*
X143228000Y-103545400D01*
X143228000Y-103545400D02*
X141628000Y-103545400D01*
%TO.C,R4*%
X136048800Y-87922200D02*
X136848800Y-87922200D01*
X136048800Y-89522200D02*
X136048800Y-87922200D01*
X136848800Y-87922200D02*
X136848800Y-89522200D01*
X136848800Y-89522200D02*
X136048800Y-89522200D01*
%TO.C,J10*%
X117342800Y-96273600D02*
X117342800Y-103673600D01*
X117342800Y-101848600D02*
X118342800Y-101223600D01*
X117342800Y-103673600D02*
X123092800Y-103673600D01*
X118342800Y-101223600D02*
X117342800Y-100598600D01*
X123092800Y-96273600D02*
X117342800Y-96273600D01*
X123092800Y-103673600D02*
X123092800Y-96273600D01*
%TO.C,J7*%
X133317200Y-107011600D02*
X133317200Y-114411600D01*
X133317200Y-114411600D02*
X139067200Y-114411600D01*
X138067200Y-109461600D02*
X139067200Y-110086600D01*
X139067200Y-107011600D02*
X133317200Y-107011600D01*
X139067200Y-108836600D02*
X138067200Y-109461600D01*
X139067200Y-114411600D02*
X139067200Y-107011600D01*
%TO.C,J8*%
X173253400Y-87274400D02*
X175793400Y-87274400D01*
X173253400Y-107594400D02*
X173253400Y-87274400D01*
X175158400Y-107594400D02*
X173253400Y-107594400D01*
X175793400Y-87274400D02*
X175793400Y-106959400D01*
X175793400Y-106959400D02*
X175158400Y-107594400D01*
%TO.C,C4*%
X152284700Y-98812400D02*
X153884700Y-98812400D01*
X152284700Y-99612400D02*
X152284700Y-98812400D01*
X153884700Y-98812400D02*
X153884700Y-99612400D01*
X153884700Y-99612400D02*
X152284700Y-99612400D01*
%TO.C,R10*%
X147351800Y-111822500D02*
X148151800Y-111822500D01*
X147351800Y-113422500D02*
X147351800Y-111822500D01*
X148151800Y-111822500D02*
X148151800Y-113422500D01*
X148151800Y-113422500D02*
X147351800Y-113422500D01*
%TD*%
M02*
