%TF.GenerationSoftware,KiCad,Pcbnew,9.0.3*%
%TF.CreationDate,2025-08-24T20:12:34+09:00*%
%TF.ProjectId,mirror_Shooter_v2,6d697272-6f72-45f5-9368-6f6f7465725f,rev?*%
%TF.SameCoordinates,Original*%
%TF.FileFunction,Copper,L1,Top*%
%TF.FilePolarity,Positive*%
%FSLAX46Y46*%
G04 Gerber Fmt 4.6, Leading zero omitted, Abs format (unit mm)*
G04 Created by KiCad (PCBNEW 9.0.3) date 2025-08-24 20:12:34*
%MOMM*%
%LPD*%
G01*
G04 APERTURE LIST*
G04 Aperture macros list*
%AMRoundRect*
0 Rectangle with rounded corners*
0 $1 Rounding radius*
0 $2 $3 $4 $5 $6 $7 $8 $9 X,Y pos of 4 corners*
0 Add a 4 corners polygon primitive as box body*
4,1,4,$2,$3,$4,$5,$6,$7,$8,$9,$2,$3,0*
0 Add four circle primitives for the rounded corners*
1,1,$1+$1,$2,$3*
1,1,$1+$1,$4,$5*
1,1,$1+$1,$6,$7*
1,1,$1+$1,$8,$9*
0 Add four rect primitives between the rounded corners*
20,1,$1+$1,$2,$3,$4,$5,0*
20,1,$1+$1,$4,$5,$6,$7,0*
20,1,$1+$1,$6,$7,$8,$9,0*
20,1,$1+$1,$8,$9,$2,$3,0*%
G04 Aperture macros list end*
%TA.AperFunction,NonConductor*%
%ADD10C,0.200000*%
%TD*%
%TA.AperFunction,SMDPad,CuDef*%
%ADD11RoundRect,0.237500X0.300000X0.237500X-0.300000X0.237500X-0.300000X-0.237500X0.300000X-0.237500X0*%
%TD*%
%TA.AperFunction,SMDPad,CuDef*%
%ADD12RoundRect,0.237500X-0.237500X0.300000X-0.237500X-0.300000X0.237500X-0.300000X0.237500X0.300000X0*%
%TD*%
%TA.AperFunction,SMDPad,CuDef*%
%ADD13RoundRect,0.237500X0.237500X-0.300000X0.237500X0.300000X-0.237500X0.300000X-0.237500X-0.300000X0*%
%TD*%
%TA.AperFunction,ComponentPad*%
%ADD14RoundRect,0.250000X-0.725000X0.600000X-0.725000X-0.600000X0.725000X-0.600000X0.725000X0.600000X0*%
%TD*%
%TA.AperFunction,ComponentPad*%
%ADD15O,1.950000X1.700000*%
%TD*%
%TA.AperFunction,ComponentPad*%
%ADD16RoundRect,0.250000X0.725000X-0.600000X0.725000X0.600000X-0.725000X0.600000X-0.725000X-0.600000X0*%
%TD*%
%TA.AperFunction,SMDPad,CuDef*%
%ADD17RoundRect,0.250001X0.624999X-0.462499X0.624999X0.462499X-0.624999X0.462499X-0.624999X-0.462499X0*%
%TD*%
%TA.AperFunction,ComponentPad*%
%ADD18C,2.000000*%
%TD*%
%TA.AperFunction,ComponentPad*%
%ADD19RoundRect,0.250000X0.750000X-0.600000X0.750000X0.600000X-0.750000X0.600000X-0.750000X-0.600000X0*%
%TD*%
%TA.AperFunction,ComponentPad*%
%ADD20O,2.000000X1.700000*%
%TD*%
%TA.AperFunction,SMDPad,CuDef*%
%ADD21RoundRect,0.150000X0.587500X0.150000X-0.587500X0.150000X-0.587500X-0.150000X0.587500X-0.150000X0*%
%TD*%
%TA.AperFunction,SMDPad,CuDef*%
%ADD22RoundRect,0.150000X-0.150000X0.587500X-0.150000X-0.587500X0.150000X-0.587500X0.150000X0.587500X0*%
%TD*%
%TA.AperFunction,ComponentPad*%
%ADD23RoundRect,0.250000X-0.600000X-0.750000X0.600000X-0.750000X0.600000X0.750000X-0.600000X0.750000X0*%
%TD*%
%TA.AperFunction,ComponentPad*%
%ADD24O,1.700000X2.000000*%
%TD*%
%TA.AperFunction,ComponentPad*%
%ADD25R,1.700000X1.700000*%
%TD*%
%TA.AperFunction,ComponentPad*%
%ADD26C,1.700000*%
%TD*%
%TA.AperFunction,SMDPad,CuDef*%
%ADD27RoundRect,0.250001X-0.462499X-0.624999X0.462499X-0.624999X0.462499X0.624999X-0.462499X0.624999X0*%
%TD*%
%TA.AperFunction,ComponentPad*%
%ADD28RoundRect,0.250000X-0.750000X0.600000X-0.750000X-0.600000X0.750000X-0.600000X0.750000X0.600000X0*%
%TD*%
%TA.AperFunction,ViaPad*%
%ADD29C,0.600000*%
%TD*%
%TA.AperFunction,Conductor*%
%ADD30C,0.500000*%
%TD*%
%TA.AperFunction,Conductor*%
%ADD31C,1.000000*%
%TD*%
%TA.AperFunction,Conductor*%
%ADD32C,0.200000*%
%TD*%
%ADD33C,0.060000*%
%ADD34C,0.120000*%
%ADD35C,0.050000*%
%ADD36C,0.150000*%
%ADD37C,0.100000*%
G04 APERTURE END LIST*
D10*
X116001800Y-86080600D02*
X177952400Y-86080600D01*
X177952400Y-116281200D01*
X116001800Y-116281200D01*
X116001800Y-86080600D01*
D11*
%TO.P,R7,1*%
%TO.N,/ON2*%
X153942800Y-103632000D03*
%TO.P,R7,2*%
%TO.N,Net-(Q3-B)*%
X152217800Y-103632000D03*
%TD*%
%TO.P,R8,1*%
%TO.N,/ON1*%
X146786600Y-103682800D03*
%TO.P,R8,2*%
%TO.N,Net-(Q4-B)*%
X145061600Y-103682800D03*
%TD*%
D12*
%TO.P,R3,1*%
%TO.N,+3.3V*%
X138252200Y-91309800D03*
%TO.P,R3,2*%
%TO.N,/TACT*%
X138252200Y-93034800D03*
%TD*%
D13*
%TO.P,C6,1*%
%TO.N,GND*%
X149656800Y-113485000D03*
%TO.P,C6,2*%
%TO.N,Net-(J6-Pin_1)*%
X149656800Y-111760000D03*
%TD*%
D11*
%TO.P,C1,1*%
%TO.N,GND*%
X146784400Y-99542600D03*
%TO.P,C1,2*%
%TO.N,Net-(J4-Pin_1)*%
X145059400Y-99542600D03*
%TD*%
D14*
%TO.P,J5,1,Pin_1*%
%TO.N,Net-(J5-Pin_1)*%
X136742200Y-97661600D03*
D15*
%TO.P,J5,2,Pin_2*%
%TO.N,GND*%
X136742200Y-100161600D03*
%TO.P,J5,3,Pin_3*%
%TO.N,/PWM2*%
X136742200Y-102661600D03*
%TD*%
D16*
%TO.P,J4,1,Pin_1*%
%TO.N,Net-(J4-Pin_1)*%
X127717200Y-102661600D03*
D15*
%TO.P,J4,2,Pin_2*%
%TO.N,GND*%
X127717200Y-100161600D03*
%TO.P,J4,3,Pin_3*%
%TO.N,/PWM1*%
X127717200Y-97661600D03*
%TD*%
D13*
%TO.P,C5,1*%
%TO.N,GND*%
X151638000Y-92403000D03*
%TO.P,C5,2*%
%TO.N,Net-(J7-Pin_1)*%
X151638000Y-90678000D03*
%TD*%
D11*
%TO.P,R2,1*%
%TO.N,GND*%
X153947200Y-101447600D03*
%TO.P,R2,2*%
%TO.N,Net-(Q3-B)*%
X152222200Y-101447600D03*
%TD*%
D17*
%TO.P,F2,1*%
%TO.N,Net-(Q3-E)*%
X149654600Y-103406600D03*
%TO.P,F2,2*%
%TO.N,Net-(J5-Pin_1)*%
X149654600Y-100431600D03*
%TD*%
D18*
%TO.P,J1,1,Pin_1*%
%TO.N,+5V*%
X151715800Y-114020000D03*
%TO.P,J1,2,Pin_2*%
%TO.N,GND*%
X143715800Y-114020000D03*
%TD*%
D19*
%TO.P,J6,1,Pin_1*%
%TO.N,Net-(J6-Pin_1)*%
X127717200Y-111961600D03*
D20*
%TO.P,J6,2,Pin_2*%
%TO.N,GND*%
X127717200Y-109461600D03*
%TD*%
D11*
%TO.P,R11,1*%
%TO.N,GND*%
X146786600Y-101574600D03*
%TO.P,R11,2*%
%TO.N,Net-(Q4-B)*%
X145061600Y-101574600D03*
%TD*%
D12*
%TO.P,C3,1*%
%TO.N,Net-(C3-Pad1)*%
X134543800Y-91284700D03*
%TO.P,C3,2*%
%TO.N,+3.3V*%
X134543800Y-93009700D03*
%TD*%
D13*
%TO.P,R5,1*%
%TO.N,/ON4*%
X145846800Y-113487200D03*
%TO.P,R5,2*%
%TO.N,Net-(Q1-B)*%
X145846800Y-111762200D03*
%TD*%
D21*
%TO.P,Q1,1,B*%
%TO.N,Net-(Q1-B)*%
X143386200Y-112064800D03*
%TO.P,Q1,2,E*%
%TO.N,Net-(Q1-E)*%
X143386200Y-110164800D03*
%TO.P,Q1,3,C*%
%TO.N,+5V*%
X141511200Y-111114800D03*
%TD*%
%TO.P,Q2,1,B*%
%TO.N,Net-(Q2-B)*%
X144826200Y-90993000D03*
%TO.P,Q2,2,E*%
%TO.N,Net-(Q2-E)*%
X144826200Y-89093000D03*
%TO.P,Q2,3,C*%
%TO.N,+5V*%
X142951200Y-90043000D03*
%TD*%
D18*
%TO.P,J2,1,Pin_1*%
%TO.N,+3.3V*%
X143715800Y-96520000D03*
%TO.P,J2,2,Pin_2*%
%TO.N,GNDD*%
X147215800Y-96520000D03*
%TD*%
D22*
%TO.P,Q3,1,B*%
%TO.N,Net-(Q3-B)*%
X152093000Y-106146600D03*
%TO.P,Q3,2,E*%
%TO.N,Net-(Q3-E)*%
X150193000Y-106146600D03*
%TO.P,Q3,3,C*%
%TO.N,+5V*%
X151143000Y-108021600D03*
%TD*%
D19*
%TO.P,B+,1,Pin_1*%
%TO.N,+3.3V*%
X119660400Y-112046400D03*
D20*
%TO.P,B+,2,Pin_2*%
%TO.N,Net-(J10-Pin_2)*%
X119660400Y-109546400D03*
%TD*%
D13*
%TO.P,C2,1*%
%TO.N,+3.3V*%
X140055600Y-89558200D03*
%TO.P,C2,2*%
%TO.N,GNDD*%
X140055600Y-87833200D03*
%TD*%
D23*
%TO.P,J3,1,Pin_1*%
%TO.N,/TACT*%
X127717200Y-90261600D03*
D24*
%TO.P,J3,2,Pin_2*%
%TO.N,GNDD*%
X130217200Y-90261600D03*
%TD*%
D22*
%TO.P,Q4,1,B*%
%TO.N,Net-(Q4-B)*%
X144597200Y-106019600D03*
%TO.P,Q4,2,E*%
%TO.N,Net-(Q4-E)*%
X142697200Y-106019600D03*
%TO.P,Q4,3,C*%
%TO.N,+5V*%
X143647200Y-107894600D03*
%TD*%
D13*
%TO.P,R6,1*%
%TO.N,/ON3*%
X147269200Y-92456000D03*
%TO.P,R6,2*%
%TO.N,Net-(Q2-B)*%
X147269200Y-90731000D03*
%TD*%
D25*
%TO.P,J9,1,Pin_1*%
%TO.N,+3.3V*%
X159273400Y-106324400D03*
D26*
%TO.P,J9,2,Pin_2*%
%TO.N,GNDD*%
X159273400Y-103784400D03*
%TO.P,J9,3,Pin_3*%
%TO.N,unconnected-(J9-Pin_3-Pad3)*%
X159273400Y-101244400D03*
%TO.P,J9,4,Pin_4*%
%TO.N,unconnected-(J9-Pin_4-Pad4)*%
X159273400Y-98704400D03*
%TO.P,J9,5,Pin_5*%
%TO.N,unconnected-(J9-Pin_5-Pad5)*%
X159273400Y-96164400D03*
%TO.P,J9,6,Pin_6*%
%TO.N,/TACT*%
X159273400Y-93624400D03*
%TO.P,J9,7,Pin_7*%
%TO.N,/PWM2*%
X159273400Y-91084400D03*
%TO.P,J9,8,Pin_8*%
%TO.N,/PWM1*%
X159273400Y-88544400D03*
%TD*%
D13*
%TO.P,R9,1*%
%TO.N,GND*%
X149377400Y-92403000D03*
%TO.P,R9,2*%
%TO.N,Net-(Q2-B)*%
X149377400Y-90678000D03*
%TD*%
D27*
%TO.P,F3,1*%
%TO.N,Net-(Q2-E)*%
X147469200Y-88265000D03*
%TO.P,F3,2*%
%TO.N,Net-(J7-Pin_1)*%
X150444200Y-88265000D03*
%TD*%
%TO.P,F4,1*%
%TO.N,Net-(Q1-E)*%
X146075400Y-109270800D03*
%TO.P,F4,2*%
%TO.N,Net-(J6-Pin_1)*%
X149050400Y-109270800D03*
%TD*%
D17*
%TO.P,F1,1*%
%TO.N,Net-(Q4-E)*%
X142428000Y-103432900D03*
%TO.P,F1,2*%
%TO.N,Net-(J4-Pin_1)*%
X142428000Y-100457900D03*
%TD*%
D12*
%TO.P,R4,1*%
%TO.N,Net-(J10-Pin_2)*%
X136448800Y-87859700D03*
%TO.P,R4,2*%
%TO.N,Net-(C3-Pad1)*%
X136448800Y-89584700D03*
%TD*%
D19*
%TO.P,J10,1,Pin_1*%
%TO.N,GNDD*%
X119692800Y-101223600D03*
D20*
%TO.P,J10,2,Pin_2*%
%TO.N,Net-(J10-Pin_2)*%
X119692800Y-98723600D03*
%TD*%
D28*
%TO.P,J7,1,Pin_1*%
%TO.N,Net-(J7-Pin_1)*%
X136717200Y-109461600D03*
D20*
%TO.P,J7,2,Pin_2*%
%TO.N,GND*%
X136717200Y-111961600D03*
%TD*%
D25*
%TO.P,J8,1,Pin_1*%
%TO.N,unconnected-(J8-Pin_1-Pad1)*%
X174523400Y-106324400D03*
D26*
%TO.P,J8,2,Pin_2*%
%TO.N,/ON1*%
X174523400Y-103784400D03*
%TO.P,J8,3,Pin_3*%
%TO.N,/ON2*%
X174523400Y-101244400D03*
%TO.P,J8,4,Pin_4*%
%TO.N,unconnected-(J8-Pin_4-Pad4)*%
X174523400Y-98704400D03*
%TO.P,J8,5,Pin_5*%
%TO.N,/ON3*%
X174523400Y-96164400D03*
%TO.P,J8,6,Pin_6*%
%TO.N,/ON4*%
X174523400Y-93624400D03*
%TO.P,J8,7,Pin_7*%
%TO.N,unconnected-(J8-Pin_7-Pad7)*%
X174523400Y-91084400D03*
%TO.P,J8,8,Pin_8*%
%TO.N,unconnected-(J8-Pin_8-Pad8)*%
X174523400Y-88544400D03*
%TD*%
D11*
%TO.P,C4,1*%
%TO.N,GND*%
X153947200Y-99212400D03*
%TO.P,C4,2*%
%TO.N,Net-(J5-Pin_1)*%
X152222200Y-99212400D03*
%TD*%
D13*
%TO.P,R10,1*%
%TO.N,GND*%
X147751800Y-113485000D03*
%TO.P,R10,2*%
%TO.N,Net-(Q1-B)*%
X147751800Y-111760000D03*
%TD*%
D29*
%TO.N,Net-(J7-Pin_1)*%
X152603200Y-91313000D03*
X141528800Y-105232200D03*
%TO.N,Net-(J6-Pin_1)*%
X144449800Y-111125000D03*
X140106400Y-112953800D03*
%TO.N,+3.3V*%
X136677400Y-92506800D03*
X132410200Y-95935800D03*
X149479000Y-95427800D03*
%TO.N,+5V*%
X140665200Y-107086400D03*
X141909800Y-91414600D03*
%TO.N,Net-(J10-Pin_2)*%
X134594600Y-87630000D03*
%TO.N,Net-(J5-Pin_1)*%
X148200000Y-98700000D03*
X141800000Y-96800000D03*
%TO.N,GNDD*%
X138176000Y-87731600D03*
X141307956Y-102113600D03*
X125044200Y-105892600D03*
X134747000Y-89103200D03*
X150393400Y-98552000D03*
%TO.N,GND*%
X155371800Y-103200200D03*
X154686000Y-105460800D03*
X145923000Y-102412800D03*
X153974800Y-108432600D03*
%TO.N,/TACT*%
X143002000Y-94716600D03*
%TO.N,/PWM2*%
X162050000Y-105600000D03*
X163900000Y-115200000D03*
X161600000Y-98050000D03*
%TO.N,/ON1*%
X153082707Y-97617293D03*
%TO.N,/ON4*%
X146507200Y-114858800D03*
%TD*%
D30*
%TO.N,Net-(Q2-E)*%
X144826200Y-89093000D02*
X146641200Y-89093000D01*
X146641200Y-89093000D02*
X147469200Y-88265000D01*
%TO.N,Net-(J7-Pin_1)*%
X152273000Y-91313000D02*
X151638000Y-90678000D01*
X140946600Y-105232200D02*
X136717200Y-109461600D01*
X151638000Y-89458800D02*
X150444200Y-88265000D01*
X152603200Y-91313000D02*
X152273000Y-91313000D01*
X141528800Y-105232200D02*
X140946600Y-105232200D01*
X151638000Y-90678000D02*
X151638000Y-89458800D01*
%TO.N,Net-(J6-Pin_1)*%
X140106400Y-112953800D02*
X139797600Y-113262600D01*
X149656800Y-111760000D02*
X149656800Y-109877200D01*
X144803300Y-110771500D02*
X144449800Y-111125000D01*
X129018200Y-113262600D02*
X127717200Y-111961600D01*
X149656800Y-109877200D02*
X149050400Y-109270800D01*
X149656800Y-111760000D02*
X148668300Y-110771500D01*
X148668300Y-110771500D02*
X144803300Y-110771500D01*
X139797600Y-113262600D02*
X129018200Y-113262600D01*
D31*
%TO.N,+3.3V*%
X148353172Y-94301972D02*
X149479000Y-95427800D01*
X136677400Y-92506800D02*
X135046700Y-92506800D01*
X136677400Y-92506800D02*
X137874400Y-91309800D01*
X137874400Y-91309800D02*
X138252200Y-91309800D01*
X122148600Y-109558200D02*
X119660400Y-112046400D01*
X144003000Y-96232800D02*
X143715800Y-96520000D01*
X138252200Y-91309800D02*
X138252200Y-89547200D01*
X142458200Y-93715600D02*
X143416628Y-93715600D01*
X122148600Y-100911755D02*
X122148600Y-109558200D01*
X135046700Y-92506800D02*
X134543800Y-93009700D01*
X144003000Y-94301972D02*
X144003000Y-96232800D01*
X143416628Y-93715600D02*
X144003000Y-94301972D01*
X138263200Y-89558200D02*
X140055600Y-89558200D01*
X140055600Y-89558200D02*
X140055600Y-91313000D01*
X144003000Y-94301972D02*
X148353172Y-94301972D01*
X138252200Y-89547200D02*
X138263200Y-89558200D01*
X132410200Y-95935800D02*
X127124555Y-95935800D01*
X127124555Y-95935800D02*
X122148600Y-100911755D01*
X140055600Y-91313000D02*
X142458200Y-93715600D01*
D30*
%TO.N,+5V*%
X140665200Y-107086400D02*
X141486400Y-107086400D01*
X140385800Y-109989400D02*
X140385800Y-107365800D01*
X143641800Y-107900000D02*
X143647200Y-107894600D01*
X142951200Y-90373200D02*
X141909800Y-91414600D01*
D31*
X151143000Y-108021600D02*
X151143000Y-113447200D01*
D30*
X140385800Y-107365800D02*
X140665200Y-107086400D01*
X142951200Y-90373200D02*
X142951200Y-90043000D01*
X141511200Y-111114800D02*
X140385800Y-109989400D01*
D32*
X151143000Y-113447200D02*
X151715800Y-114020000D01*
D30*
X142300000Y-107900000D02*
X143641800Y-107900000D01*
X141486400Y-107086400D02*
X142300000Y-107900000D01*
D31*
%TO.N,Net-(C3-Pad1)*%
X136243800Y-89584700D02*
X134543800Y-91284700D01*
D32*
X136448800Y-89584700D02*
X136243800Y-89584700D01*
D31*
%TO.N,Net-(J10-Pin_2)*%
X134594600Y-87630000D02*
X134824300Y-87859700D01*
X134824300Y-87859700D02*
X136448800Y-87859700D01*
D30*
%TO.N,Net-(J4-Pin_1)*%
X141542100Y-100457900D02*
X138037400Y-103962600D01*
X135462600Y-103962600D02*
X134161600Y-102661600D01*
X144144100Y-100457900D02*
X145059400Y-99542600D01*
X138037400Y-103962600D02*
X135462600Y-103962600D01*
X142428000Y-100457900D02*
X141542100Y-100457900D01*
X134161600Y-102661600D02*
X127717200Y-102661600D01*
X142428000Y-100457900D02*
X144144100Y-100457900D01*
%TO.N,Net-(J5-Pin_1)*%
X141300000Y-96300000D02*
X141800000Y-96800000D01*
X136742200Y-96557800D02*
X137000000Y-96300000D01*
X151307800Y-99212400D02*
X152222200Y-99212400D01*
X149654600Y-100431600D02*
X150088600Y-100431600D01*
X148200000Y-98977000D02*
X149654600Y-100431600D01*
X150088600Y-100431600D02*
X151307800Y-99212400D01*
X148200000Y-98700000D02*
X148200000Y-98977000D01*
X136742200Y-97661600D02*
X136742200Y-96557800D01*
X137000000Y-96300000D02*
X141300000Y-96300000D01*
D31*
%TO.N,GNDD*%
X125044200Y-105892600D02*
X137528956Y-105892600D01*
X147215800Y-96520000D02*
X148361400Y-96520000D01*
X131800600Y-89839800D02*
X134010400Y-89839800D01*
X138176000Y-87731600D02*
X139954000Y-87731600D01*
X137528956Y-105892600D02*
X141307956Y-102113600D01*
X131378800Y-90261600D02*
X131800600Y-89839800D01*
X134010400Y-89839800D02*
X134747000Y-89103200D01*
X148361400Y-96520000D02*
X150393400Y-98552000D01*
X130217200Y-90261600D02*
X131378800Y-90261600D01*
D30*
%TO.N,Net-(Q4-E)*%
X142428000Y-103432900D02*
X142428000Y-105750400D01*
X142428000Y-105750400D02*
X142697200Y-106019600D01*
D32*
%TO.N,GND*%
X146786600Y-99544800D02*
X146784400Y-99542600D01*
D30*
X155371800Y-103200200D02*
X155371800Y-102872200D01*
X146784400Y-99542600D02*
X146784400Y-99084400D01*
X155371800Y-102872200D02*
X153947200Y-101447600D01*
X145923300Y-102413100D02*
X145923000Y-102412800D01*
X147411600Y-115730200D02*
X145426000Y-115730200D01*
X138603800Y-98300000D02*
X136742200Y-100161600D01*
X149656800Y-113485000D02*
X147411600Y-115730200D01*
X146784400Y-99084400D02*
X146000000Y-98300000D01*
X146000000Y-98300000D02*
X138603800Y-98300000D01*
X153947200Y-94712200D02*
X153947200Y-99212400D01*
X146786600Y-101574600D02*
X146786600Y-99544800D01*
X145426000Y-115730200D02*
X143715800Y-114020000D01*
X153947200Y-101447600D02*
X153947200Y-99212400D01*
D32*
X149377400Y-92403000D02*
X151638000Y-92403000D01*
D30*
X146786600Y-101574600D02*
X145948100Y-102413100D01*
X145948100Y-102413100D02*
X145923300Y-102413100D01*
X153974800Y-108432600D02*
X153974800Y-106172000D01*
D32*
X149656800Y-113485000D02*
X147751800Y-113485000D01*
D30*
X151638000Y-92403000D02*
X153947200Y-94712200D01*
X153974800Y-106172000D02*
X154686000Y-105460800D01*
%TO.N,Net-(Q3-E)*%
X149654600Y-105608200D02*
X150193000Y-106146600D01*
X149654600Y-103406600D02*
X149654600Y-105608200D01*
D31*
%TO.N,/TACT*%
X127717200Y-92716000D02*
X127717200Y-90261600D01*
X138252200Y-93034800D02*
X137038800Y-94248200D01*
D32*
X140792200Y-94716600D02*
X143002000Y-94716600D01*
D31*
X129249400Y-94248200D02*
X127717200Y-92716000D01*
D32*
X138252200Y-93034800D02*
X139110400Y-93034800D01*
X139110400Y-93034800D02*
X140792200Y-94716600D01*
D31*
X137038800Y-94248200D02*
X129249400Y-94248200D01*
D32*
%TO.N,/PWM2*%
X161600000Y-98050000D02*
X161600000Y-93411000D01*
X162050000Y-113350000D02*
X162050000Y-105600000D01*
X163900000Y-115200000D02*
X162050000Y-113350000D01*
X161600000Y-93411000D02*
X159273400Y-91084400D01*
%TO.N,/ON3*%
X174695760Y-87089000D02*
X175742600Y-88135840D01*
X149844534Y-91516500D02*
X150153400Y-91207634D01*
X147269200Y-92456000D02*
X148208700Y-91516500D01*
X148208700Y-91516500D02*
X149844534Y-91516500D01*
X150153400Y-91207634D02*
X150153400Y-89847860D01*
X149430700Y-87404840D02*
X149746540Y-87089000D01*
X150153400Y-89847860D02*
X149430700Y-89125160D01*
X175742600Y-88135840D02*
X175742600Y-94945200D01*
X149746540Y-87089000D02*
X174695760Y-87089000D01*
X175742600Y-94945200D02*
X174523400Y-96164400D01*
X149430700Y-89125160D02*
X149430700Y-87404840D01*
%TO.N,/ON1*%
X149608600Y-102393100D02*
X148076300Y-102393100D01*
X153108700Y-99631534D02*
X152751834Y-99988400D01*
X153082707Y-97617293D02*
X153082707Y-97791907D01*
X152751834Y-99988400D02*
X152013300Y-99988400D01*
X153108700Y-97817900D02*
X153108700Y-99631534D01*
X152013300Y-99988400D02*
X149608600Y-102393100D01*
X153082707Y-97791907D02*
X153108700Y-97817900D01*
X148076300Y-102393100D02*
X146786600Y-103682800D01*
%TO.N,/ON4*%
X145846800Y-114198400D02*
X146507200Y-114858800D01*
X145846800Y-113487200D02*
X145846800Y-114198400D01*
%TO.N,/ON2*%
X170832400Y-104935400D02*
X174523400Y-101244400D01*
X155246200Y-104935400D02*
X170832400Y-104935400D01*
X153942800Y-103632000D02*
X155246200Y-104935400D01*
%TO.N,Net-(Q1-B)*%
X145544200Y-112064800D02*
X145846800Y-111762200D01*
X145846800Y-111762200D02*
X147749600Y-111762200D01*
X147749600Y-111762200D02*
X147751800Y-111760000D01*
X143386200Y-112064800D02*
X145544200Y-112064800D01*
%TO.N,Net-(Q2-B)*%
X149377400Y-90678000D02*
X147322200Y-90678000D01*
X147007200Y-90993000D02*
X147269200Y-90731000D01*
X147322200Y-90678000D02*
X147269200Y-90731000D01*
X144826200Y-90993000D02*
X147007200Y-90993000D01*
%TO.N,Net-(Q3-B)*%
X152217800Y-101452000D02*
X152222200Y-101447600D01*
X152093000Y-106146600D02*
X152093000Y-103756800D01*
X152093000Y-103756800D02*
X152217800Y-103632000D01*
X152217800Y-103632000D02*
X152217800Y-101452000D01*
%TO.N,Net-(Q4-B)*%
X145061600Y-101574600D02*
X145061600Y-103682800D01*
X144597200Y-106019600D02*
X144597200Y-104147200D01*
X144597200Y-104147200D02*
X145061600Y-103682800D01*
D30*
%TO.N,Net-(Q1-E)*%
X145446200Y-109900000D02*
X143651000Y-109900000D01*
X146075400Y-109270800D02*
X145446200Y-109900000D01*
X143651000Y-109900000D02*
X143386200Y-110164800D01*
%TD*%
%TA.AperFunction,Conductor*%
%TO.N,GNDD*%
G36*
X133896256Y-86700785D02*
G01*
X133942011Y-86753589D01*
X133951955Y-86822747D01*
X133922930Y-86886303D01*
X133916898Y-86892781D01*
X133817463Y-86992215D01*
X133817460Y-86992219D01*
X133707972Y-87156079D01*
X133707967Y-87156089D01*
X133632549Y-87338163D01*
X133632547Y-87338171D01*
X133594100Y-87531455D01*
X133594100Y-87728544D01*
X133632547Y-87921828D01*
X133632549Y-87921836D01*
X133707967Y-88103910D01*
X133707972Y-88103920D01*
X133817460Y-88267780D01*
X133817463Y-88267784D01*
X134044036Y-88494356D01*
X134044063Y-88494385D01*
X134186514Y-88636836D01*
X134186518Y-88636839D01*
X134350379Y-88746328D01*
X134350386Y-88746332D01*
X134464782Y-88793716D01*
X134532464Y-88821751D01*
X134605280Y-88836235D01*
X134674804Y-88850064D01*
X134725756Y-88860200D01*
X134725759Y-88860200D01*
X134725760Y-88860200D01*
X134922840Y-88860200D01*
X135254018Y-88860200D01*
X135321057Y-88879885D01*
X135366812Y-88932689D01*
X135376756Y-89001847D01*
X135347731Y-89065403D01*
X135341699Y-89071881D01*
X134177584Y-90235994D01*
X134128908Y-90266019D01*
X133992284Y-90311292D01*
X133992281Y-90311293D01*
X133845448Y-90401861D01*
X133723461Y-90523848D01*
X133632893Y-90670681D01*
X133632892Y-90670684D01*
X133578626Y-90834447D01*
X133578626Y-90834448D01*
X133578625Y-90834448D01*
X133568300Y-90935515D01*
X133568300Y-91048264D01*
X133565917Y-91072455D01*
X133543300Y-91186156D01*
X133543300Y-91186160D01*
X133543300Y-91383240D01*
X133546762Y-91400643D01*
X133565918Y-91496952D01*
X133568300Y-91521141D01*
X133568300Y-91633868D01*
X133568301Y-91633887D01*
X133578625Y-91734952D01*
X133632892Y-91898715D01*
X133632893Y-91898718D01*
X133636530Y-91904614D01*
X133721909Y-92043036D01*
X133723461Y-92045551D01*
X133737429Y-92059519D01*
X133770914Y-92120842D01*
X133765930Y-92190534D01*
X133737429Y-92234881D01*
X133723461Y-92248848D01*
X133632893Y-92395681D01*
X133632891Y-92395686D01*
X133623528Y-92423942D01*
X133578626Y-92559447D01*
X133578626Y-92559448D01*
X133578625Y-92559448D01*
X133568300Y-92660515D01*
X133568300Y-92773264D01*
X133565917Y-92797455D01*
X133543300Y-92911156D01*
X133543300Y-93108243D01*
X133543625Y-93111542D01*
X133543300Y-93113256D01*
X133543300Y-93114332D01*
X133543096Y-93114332D01*
X133530609Y-93180188D01*
X133482546Y-93230900D01*
X133420223Y-93247700D01*
X129715182Y-93247700D01*
X129648143Y-93228015D01*
X129627501Y-93211381D01*
X128754019Y-92337899D01*
X128720534Y-92276576D01*
X128717700Y-92250218D01*
X128717700Y-91715557D01*
X128737385Y-91648518D01*
X128776607Y-91610016D01*
X128785856Y-91604312D01*
X128909912Y-91480256D01*
X129002014Y-91330934D01*
X129002014Y-91330931D01*
X129005648Y-91325041D01*
X129057595Y-91278316D01*
X129126558Y-91267093D01*
X129190640Y-91294936D01*
X129198868Y-91302456D01*
X129337735Y-91441323D01*
X129337740Y-91441327D01*
X129509642Y-91566220D01*
X129698982Y-91662695D01*
X129901071Y-91728357D01*
X129967200Y-91738831D01*
X129967200Y-90694612D01*
X130024207Y-90727525D01*
X130151374Y-90761600D01*
X130283026Y-90761600D01*
X130410193Y-90727525D01*
X130467200Y-90694612D01*
X130467200Y-91738830D01*
X130533326Y-91728357D01*
X130533329Y-91728357D01*
X130735417Y-91662695D01*
X130924757Y-91566220D01*
X131096659Y-91441327D01*
X131096664Y-91441323D01*
X131246923Y-91291064D01*
X131246927Y-91291059D01*
X131371820Y-91119157D01*
X131468295Y-90929817D01*
X131533957Y-90727730D01*
X131533957Y-90727727D01*
X131567200Y-90517846D01*
X131567200Y-90511600D01*
X130650212Y-90511600D01*
X130683125Y-90454593D01*
X130717200Y-90327426D01*
X130717200Y-90195774D01*
X130683125Y-90068607D01*
X130650212Y-90011600D01*
X131567200Y-90011600D01*
X131567200Y-90005353D01*
X131533957Y-89795472D01*
X131533957Y-89795469D01*
X131468295Y-89593382D01*
X131371820Y-89404042D01*
X131246927Y-89232140D01*
X131246923Y-89232135D01*
X131096664Y-89081876D01*
X131096659Y-89081872D01*
X130924757Y-88956979D01*
X130735415Y-88860503D01*
X130533324Y-88794841D01*
X130467200Y-88784368D01*
X130467200Y-89828588D01*
X130410193Y-89795675D01*
X130283026Y-89761600D01*
X130151374Y-89761600D01*
X130024207Y-89795675D01*
X129967200Y-89828588D01*
X129967200Y-88784368D01*
X129967199Y-88784368D01*
X129901075Y-88794841D01*
X129698984Y-88860503D01*
X129509642Y-88956979D01*
X129337741Y-89081871D01*
X129198868Y-89220744D01*
X129137545Y-89254228D01*
X129067853Y-89249244D01*
X129011920Y-89207372D01*
X129005648Y-89198158D01*
X128984706Y-89164206D01*
X128909912Y-89042944D01*
X128785856Y-88918888D01*
X128653770Y-88837417D01*
X128636536Y-88826787D01*
X128636531Y-88826785D01*
X128621339Y-88821751D01*
X128469997Y-88771601D01*
X128469995Y-88771600D01*
X128367210Y-88761100D01*
X127067198Y-88761100D01*
X127067181Y-88761101D01*
X126964403Y-88771600D01*
X126964400Y-88771601D01*
X126797868Y-88826785D01*
X126797863Y-88826787D01*
X126648542Y-88918889D01*
X126524489Y-89042942D01*
X126432387Y-89192263D01*
X126432385Y-89192268D01*
X126412519Y-89252220D01*
X126377201Y-89358803D01*
X126377201Y-89358804D01*
X126377200Y-89358804D01*
X126366700Y-89461583D01*
X126366700Y-91061601D01*
X126366701Y-91061618D01*
X126377200Y-91164396D01*
X126377201Y-91164399D01*
X126404100Y-91245573D01*
X126432386Y-91330934D01*
X126524488Y-91480256D01*
X126648544Y-91604312D01*
X126657791Y-91610016D01*
X126704518Y-91661960D01*
X126716700Y-91715557D01*
X126716700Y-92814542D01*
X126719569Y-92828968D01*
X126730002Y-92881416D01*
X126755149Y-93007836D01*
X126758952Y-93017016D01*
X126762992Y-93026770D01*
X126762993Y-93026773D01*
X126830566Y-93189910D01*
X126830571Y-93189919D01*
X126940060Y-93353782D01*
X127083737Y-93497459D01*
X127083759Y-93497479D01*
X128309899Y-94723619D01*
X128343384Y-94784942D01*
X128338400Y-94854634D01*
X128296528Y-94910567D01*
X128231064Y-94934984D01*
X128222218Y-94935300D01*
X127026012Y-94935300D01*
X126963722Y-94947690D01*
X126932577Y-94953886D01*
X126832722Y-94973747D01*
X126832714Y-94973750D01*
X126779389Y-94995837D01*
X126779389Y-94995838D01*
X126733870Y-95014692D01*
X126650644Y-95049166D01*
X126650634Y-95049171D01*
X126486774Y-95158659D01*
X126448314Y-95197120D01*
X126347416Y-95298018D01*
X126347413Y-95298021D01*
X121510821Y-100134613D01*
X121510818Y-100134616D01*
X121441139Y-100204294D01*
X121371461Y-100273972D01*
X121341581Y-100318691D01*
X121287968Y-100363495D01*
X121218643Y-100372202D01*
X121155616Y-100342047D01*
X121131902Y-100310036D01*
X121130949Y-100310625D01*
X121035115Y-100155254D01*
X120911145Y-100031284D01*
X120756315Y-99935784D01*
X120709591Y-99883836D01*
X120698368Y-99814873D01*
X120726212Y-99750791D01*
X120733709Y-99742586D01*
X120872904Y-99603392D01*
X120997851Y-99431416D01*
X121094357Y-99242012D01*
X121160046Y-99039843D01*
X121193300Y-98829887D01*
X121193300Y-98617313D01*
X121160046Y-98407357D01*
X121094357Y-98205188D01*
X120997851Y-98015784D01*
X120997849Y-98015781D01*
X120997848Y-98015779D01*
X120872909Y-97843813D01*
X120722586Y-97693490D01*
X120550620Y-97568551D01*
X120361214Y-97472044D01*
X120361213Y-97472043D01*
X120361212Y-97472043D01*
X120159043Y-97406354D01*
X120159041Y-97406353D01*
X120159040Y-97406353D01*
X119997757Y-97380808D01*
X119949087Y-97373100D01*
X119436513Y-97373100D01*
X119387842Y-97380808D01*
X119226560Y-97406353D01*
X119024385Y-97472044D01*
X118834979Y-97568551D01*
X118663013Y-97693490D01*
X118512690Y-97843813D01*
X118387751Y-98015779D01*
X118291244Y-98205185D01*
X118225553Y-98407360D01*
X118192300Y-98617313D01*
X118192300Y-98829886D01*
X118220280Y-99006549D01*
X118225554Y-99039843D01*
X118285005Y-99222814D01*
X118291244Y-99242014D01*
X118387751Y-99431420D01*
X118512690Y-99603386D01*
X118651868Y-99742564D01*
X118685353Y-99803887D01*
X118680369Y-99873579D01*
X118638497Y-99929512D01*
X118629284Y-99935783D01*
X118474459Y-100031280D01*
X118474455Y-100031283D01*
X118350484Y-100155254D01*
X118258443Y-100304475D01*
X118258441Y-100304480D01*
X118203294Y-100470902D01*
X118203293Y-100470909D01*
X118192800Y-100573613D01*
X118192800Y-100973600D01*
X119259788Y-100973600D01*
X119226875Y-101030607D01*
X119192800Y-101157774D01*
X119192800Y-101289426D01*
X119226875Y-101416593D01*
X119259788Y-101473600D01*
X118192801Y-101473600D01*
X118192801Y-101873586D01*
X118203294Y-101976297D01*
X118258441Y-102142719D01*
X118258443Y-102142724D01*
X118350484Y-102291945D01*
X118474454Y-102415915D01*
X118623675Y-102507956D01*
X118623680Y-102507958D01*
X118790102Y-102563105D01*
X118790109Y-102563106D01*
X118892819Y-102573599D01*
X119442799Y-102573599D01*
X119442800Y-102573598D01*
X119442800Y-101656612D01*
X119499807Y-101689525D01*
X119626974Y-101723600D01*
X119758626Y-101723600D01*
X119885793Y-101689525D01*
X119942800Y-101656612D01*
X119942800Y-102573599D01*
X120492772Y-102573599D01*
X120492786Y-102573598D01*
X120595497Y-102563105D01*
X120761919Y-102507958D01*
X120761924Y-102507956D01*
X120911145Y-102415915D01*
X120936419Y-102390642D01*
X120997742Y-102357157D01*
X121067434Y-102362141D01*
X121123367Y-102404013D01*
X121147784Y-102469477D01*
X121148100Y-102478323D01*
X121148100Y-108708345D01*
X121128415Y-108775384D01*
X121075611Y-108821139D01*
X121006453Y-108831083D01*
X120942897Y-108802058D01*
X120923782Y-108781230D01*
X120840509Y-108666613D01*
X120690186Y-108516290D01*
X120518220Y-108391351D01*
X120328814Y-108294844D01*
X120328813Y-108294843D01*
X120328812Y-108294843D01*
X120126643Y-108229154D01*
X120126641Y-108229153D01*
X120126640Y-108229153D01*
X119936960Y-108199111D01*
X119916687Y-108195900D01*
X119404113Y-108195900D01*
X119383840Y-108199111D01*
X119194160Y-108229153D01*
X118991985Y-108294844D01*
X118802579Y-108391351D01*
X118630613Y-108516290D01*
X118480290Y-108666613D01*
X118355351Y-108838579D01*
X118258844Y-109027985D01*
X118193153Y-109230160D01*
X118171448Y-109367201D01*
X118159900Y-109440113D01*
X118159900Y-109652687D01*
X118169746Y-109714851D01*
X118191157Y-109850039D01*
X118193154Y-109862643D01*
X118258358Y-110063320D01*
X118258844Y-110064814D01*
X118355351Y-110254220D01*
X118480290Y-110426186D01*
X118619105Y-110565001D01*
X118652590Y-110626324D01*
X118647606Y-110696016D01*
X118605734Y-110751949D01*
X118596521Y-110758221D01*
X118441742Y-110853689D01*
X118317689Y-110977742D01*
X118225587Y-111127063D01*
X118225585Y-111127068D01*
X118209624Y-111175235D01*
X118170401Y-111293603D01*
X118170401Y-111293604D01*
X118170400Y-111293604D01*
X118159900Y-111396383D01*
X118159900Y-112696401D01*
X118159901Y-112696418D01*
X118170400Y-112799196D01*
X118170401Y-112799199D01*
X118225585Y-112965731D01*
X118225587Y-112965736D01*
X118238465Y-112986614D01*
X118317688Y-113115056D01*
X118441744Y-113239112D01*
X118591066Y-113331214D01*
X118757603Y-113386399D01*
X118860391Y-113396900D01*
X120460408Y-113396899D01*
X120563197Y-113386399D01*
X120729734Y-113331214D01*
X120879056Y-113239112D01*
X121003112Y-113115056D01*
X121095214Y-112965734D01*
X121150399Y-112799197D01*
X121160900Y-112696409D01*
X121160899Y-112012180D01*
X121180583Y-111945142D01*
X121197213Y-111924505D01*
X122786378Y-110335341D01*
X122786382Y-110335339D01*
X122925739Y-110195982D01*
X123035232Y-110032114D01*
X123110651Y-109850035D01*
X123115416Y-109826083D01*
X123129673Y-109754406D01*
X123130705Y-109749219D01*
X123130705Y-109749216D01*
X123149100Y-109656741D01*
X123149100Y-101377536D01*
X123168785Y-101310497D01*
X123185414Y-101289860D01*
X126204644Y-98270629D01*
X126265965Y-98237146D01*
X126335657Y-98242130D01*
X126391590Y-98284002D01*
X126402808Y-98302018D01*
X126437149Y-98369417D01*
X126562090Y-98541386D01*
X126712409Y-98691705D01*
X126712414Y-98691709D01*
X126876993Y-98811282D01*
X126919659Y-98866611D01*
X126925638Y-98936225D01*
X126893033Y-98998020D01*
X126876993Y-99011918D01*
X126712414Y-99131490D01*
X126712409Y-99131494D01*
X126562090Y-99281813D01*
X126437151Y-99453779D01*
X126340644Y-99643185D01*
X126274953Y-99845360D01*
X126241700Y-100055313D01*
X126241700Y-100267886D01*
X126273855Y-100470909D01*
X126274954Y-100477843D01*
X126335340Y-100663692D01*
X126340644Y-100680014D01*
X126437151Y-100869420D01*
X126562090Y-101041386D01*
X126700905Y-101180201D01*
X126734390Y-101241524D01*
X126729406Y-101311216D01*
X126687534Y-101367149D01*
X126678321Y-101373421D01*
X126523542Y-101468889D01*
X126399489Y-101592942D01*
X126307387Y-101742263D01*
X126307385Y-101742268D01*
X126300577Y-101762814D01*
X126252201Y-101908803D01*
X126252201Y-101908804D01*
X126252200Y-101908804D01*
X126241700Y-102011583D01*
X126241700Y-103311601D01*
X126241701Y-103311618D01*
X126252200Y-103414396D01*
X126252201Y-103414399D01*
X126295610Y-103545396D01*
X126307386Y-103580934D01*
X126399488Y-103730256D01*
X126523544Y-103854312D01*
X126672866Y-103946414D01*
X126839403Y-104001599D01*
X126942191Y-104012100D01*
X128492208Y-104012099D01*
X128594997Y-104001599D01*
X128761534Y-103946414D01*
X128910856Y-103854312D01*
X129034912Y-103730256D01*
X129127014Y-103580934D01*
X129154795Y-103497095D01*
X129194568Y-103439651D01*
X129259084Y-103412828D01*
X129272501Y-103412100D01*
X133799370Y-103412100D01*
X133866409Y-103431785D01*
X133887051Y-103448419D01*
X134984184Y-104545552D01*
X135016458Y-104567116D01*
X135107105Y-104627684D01*
X135107106Y-104627684D01*
X135107107Y-104627685D01*
X135243682Y-104684256D01*
X135243687Y-104684258D01*
X135243691Y-104684258D01*
X135243692Y-104684259D01*
X135388679Y-104713100D01*
X135388682Y-104713100D01*
X138111320Y-104713100D01*
X138208862Y-104693696D01*
X138256313Y-104684258D01*
X138392895Y-104627684D01*
X138483542Y-104567116D01*
X138515816Y-104545552D01*
X141408919Y-101652446D01*
X141470240Y-101618963D01*
X141535598Y-101622422D01*
X141650203Y-101660399D01*
X141752992Y-101670900D01*
X141752997Y-101670900D01*
X143103003Y-101670900D01*
X143103008Y-101670900D01*
X143205797Y-101660399D01*
X143372334Y-101605214D01*
X143521655Y-101513111D01*
X143645711Y-101389055D01*
X143708090Y-101287924D01*
X143720810Y-101267302D01*
X143728396Y-101260478D01*
X143732635Y-101251197D01*
X143753933Y-101237509D01*
X143772758Y-101220578D01*
X143784394Y-101217933D01*
X143791413Y-101213423D01*
X143826348Y-101208400D01*
X143899600Y-101208400D01*
X143966639Y-101228085D01*
X144012394Y-101280889D01*
X144023600Y-101332400D01*
X144023600Y-101861269D01*
X144023601Y-101861287D01*
X144033925Y-101962352D01*
X144070209Y-102071849D01*
X144087554Y-102124192D01*
X144088192Y-102126115D01*
X144088193Y-102126118D01*
X144122495Y-102181729D01*
X144178760Y-102272950D01*
X144300750Y-102394940D01*
X144402196Y-102457512D01*
X144409019Y-102465098D01*
X144418303Y-102469338D01*
X144431991Y-102490638D01*
X144448921Y-102509460D01*
X144451565Y-102521095D01*
X144456077Y-102528116D01*
X144461100Y-102563051D01*
X144461100Y-102694348D01*
X144441415Y-102761387D01*
X144402197Y-102799886D01*
X144300753Y-102862457D01*
X144300749Y-102862460D01*
X144178761Y-102984448D01*
X144088193Y-103131281D01*
X144088191Y-103131286D01*
X144045206Y-103261007D01*
X144005433Y-103318452D01*
X143940917Y-103345275D01*
X143872141Y-103332960D01*
X143820942Y-103285417D01*
X143803500Y-103222003D01*
X143803500Y-102920397D01*
X143803499Y-102920384D01*
X143803486Y-102920260D01*
X143792999Y-102817603D01*
X143737814Y-102651066D01*
X143724680Y-102629773D01*
X143645713Y-102501748D01*
X143645710Y-102501744D01*
X143521655Y-102377689D01*
X143521651Y-102377686D01*
X143372337Y-102285587D01*
X143372335Y-102285586D01*
X143241962Y-102242385D01*
X143205797Y-102230401D01*
X143205795Y-102230400D01*
X143103015Y-102219900D01*
X143103008Y-102219900D01*
X141752992Y-102219900D01*
X141752984Y-102219900D01*
X141650204Y-102230400D01*
X141650203Y-102230401D01*
X141483664Y-102285586D01*
X141483662Y-102285587D01*
X141334348Y-102377686D01*
X141334344Y-102377689D01*
X141210289Y-102501744D01*
X141210286Y-102501748D01*
X141118187Y-102651062D01*
X141118186Y-102651064D01*
X141063001Y-102817603D01*
X141063000Y-102817604D01*
X141052500Y-102920384D01*
X141052500Y-103945415D01*
X141063000Y-104048195D01*
X141063001Y-104048197D01*
X141080379Y-104100639D01*
X141118186Y-104214735D01*
X141118187Y-104214737D01*
X141166216Y-104292603D01*
X141184657Y-104359995D01*
X141163735Y-104426659D01*
X141110093Y-104471428D01*
X141060678Y-104481700D01*
X140872680Y-104481700D01*
X140727692Y-104510540D01*
X140727682Y-104510543D01*
X140591108Y-104567114D01*
X140591105Y-104567115D01*
X140591105Y-104567116D01*
X140551307Y-104593708D01*
X140551306Y-104593707D01*
X140468185Y-104649246D01*
X140468178Y-104649252D01*
X137042649Y-108074781D01*
X136981326Y-108108266D01*
X136954968Y-108111100D01*
X135917198Y-108111100D01*
X135917180Y-108111101D01*
X135814403Y-108121600D01*
X135814400Y-108121601D01*
X135647868Y-108176785D01*
X135647863Y-108176787D01*
X135498542Y-108268889D01*
X135374489Y-108392942D01*
X135282387Y-108542263D01*
X135282385Y-108542268D01*
X135256079Y-108621656D01*
X135227201Y-108708803D01*
X135227201Y-108708804D01*
X135227200Y-108708804D01*
X135216700Y-108811583D01*
X135216700Y-110111601D01*
X135216701Y-110111618D01*
X135227200Y-110214396D01*
X135227201Y-110214399D01*
X135282385Y-110380931D01*
X135282387Y-110380936D01*
X135300527Y-110410346D01*
X135348688Y-110488428D01*
X135374489Y-110530257D01*
X135498544Y-110654312D01*
X135653320Y-110749778D01*
X135700045Y-110801726D01*
X135711268Y-110870688D01*
X135683424Y-110934771D01*
X135675906Y-110942998D01*
X135537089Y-111081815D01*
X135412151Y-111253779D01*
X135315644Y-111443185D01*
X135249953Y-111645360D01*
X135216700Y-111855313D01*
X135216700Y-112067886D01*
X135244658Y-112244409D01*
X135249954Y-112277843D01*
X135273194Y-112349369D01*
X135273329Y-112349782D01*
X135275324Y-112419623D01*
X135239244Y-112479456D01*
X135176543Y-112510284D01*
X135155398Y-112512100D01*
X129380430Y-112512100D01*
X129350989Y-112503455D01*
X129321003Y-112496932D01*
X129315987Y-112493177D01*
X129313391Y-112492415D01*
X129292749Y-112475781D01*
X129254018Y-112437050D01*
X129220533Y-112375727D01*
X129217699Y-112349369D01*
X129217699Y-111311598D01*
X129217698Y-111311581D01*
X129207199Y-111208803D01*
X129207198Y-111208800D01*
X129183111Y-111136111D01*
X129152014Y-111042266D01*
X129059912Y-110892944D01*
X128935856Y-110768888D01*
X128786534Y-110676786D01*
X128786533Y-110676785D01*
X128781078Y-110673421D01*
X128734354Y-110621473D01*
X128723131Y-110552510D01*
X128750975Y-110488428D01*
X128758472Y-110480223D01*
X128897304Y-110341392D01*
X128937700Y-110285792D01*
X129022248Y-110169420D01*
X129022247Y-110169420D01*
X129022251Y-110169416D01*
X129118757Y-109980012D01*
X129184446Y-109777843D01*
X129217700Y-109567887D01*
X129217700Y-109355313D01*
X129184446Y-109145357D01*
X129118757Y-108943188D01*
X129022251Y-108753784D01*
X129022249Y-108753781D01*
X129022248Y-108753779D01*
X128897309Y-108581813D01*
X128746986Y-108431490D01*
X128575020Y-108306551D01*
X128385614Y-108210044D01*
X128385613Y-108210043D01*
X128385612Y-108210043D01*
X128183443Y-108144354D01*
X128183441Y-108144353D01*
X128183440Y-108144353D01*
X128022157Y-108118808D01*
X127973487Y-108111100D01*
X127460913Y-108111100D01*
X127412242Y-108118808D01*
X127250960Y-108144353D01*
X127250957Y-108144354D01*
X127082449Y-108199106D01*
X127048785Y-108210044D01*
X126859379Y-108306551D01*
X126687413Y-108431490D01*
X126537090Y-108581813D01*
X126412151Y-108753779D01*
X126315644Y-108943185D01*
X126249953Y-109145360D01*
X126216700Y-109355313D01*
X126216700Y-109567886D01*
X126234224Y-109678532D01*
X126249954Y-109777843D01*
X126305598Y-109949098D01*
X126315644Y-109980014D01*
X126412151Y-110169420D01*
X126537090Y-110341386D01*
X126675905Y-110480201D01*
X126709390Y-110541524D01*
X126704406Y-110611216D01*
X126662534Y-110667149D01*
X126653321Y-110673421D01*
X126498542Y-110768889D01*
X126374489Y-110892942D01*
X126282387Y-111042263D01*
X126282386Y-111042266D01*
X126227201Y-111208803D01*
X126227201Y-111208804D01*
X126227200Y-111208804D01*
X126216700Y-111311583D01*
X126216700Y-112611601D01*
X126216701Y-112611618D01*
X126227200Y-112714396D01*
X126227201Y-112714399D01*
X126282385Y-112880931D01*
X126282387Y-112880936D01*
X126317269Y-112937488D01*
X126374488Y-113030256D01*
X126498544Y-113154312D01*
X126647866Y-113246414D01*
X126814403Y-113301599D01*
X126917191Y-113312100D01*
X127954969Y-113312099D01*
X128022008Y-113331783D01*
X128042650Y-113348418D01*
X128539786Y-113845554D01*
X128569258Y-113865245D01*
X128613470Y-113894786D01*
X128662705Y-113927684D01*
X128662706Y-113927684D01*
X128662707Y-113927685D01*
X128662709Y-113927686D01*
X128775970Y-113974600D01*
X128799287Y-113984258D01*
X128799291Y-113984258D01*
X128799292Y-113984259D01*
X128944279Y-114013100D01*
X128944282Y-114013100D01*
X139871520Y-114013100D01*
X139969062Y-113993696D01*
X140016513Y-113984258D01*
X140153095Y-113927684D01*
X140202329Y-113894786D01*
X140276014Y-113845554D01*
X140276017Y-113845551D01*
X140421694Y-113699872D01*
X140461925Y-113672990D01*
X140485579Y-113663194D01*
X140616689Y-113575589D01*
X140728189Y-113464089D01*
X140815794Y-113332979D01*
X140876137Y-113187297D01*
X140906900Y-113032642D01*
X140906900Y-112874958D01*
X140906900Y-112874955D01*
X140906899Y-112874953D01*
X140902720Y-112853943D01*
X140876137Y-112720303D01*
X140866240Y-112696409D01*
X140815797Y-112574627D01*
X140815790Y-112574614D01*
X140728189Y-112443511D01*
X140728186Y-112443507D01*
X140616692Y-112332013D01*
X140616688Y-112332010D01*
X140485585Y-112244409D01*
X140485572Y-112244402D01*
X140339901Y-112184064D01*
X140339889Y-112184061D01*
X140185245Y-112153300D01*
X140185242Y-112153300D01*
X140027558Y-112153300D01*
X140027555Y-112153300D01*
X139872910Y-112184061D01*
X139872898Y-112184064D01*
X139727227Y-112244402D01*
X139727214Y-112244409D01*
X139596111Y-112332010D01*
X139596107Y-112332013D01*
X139484613Y-112443507D01*
X139484609Y-112443512D01*
X139475605Y-112456989D01*
X139421994Y-112501795D01*
X139372502Y-112512100D01*
X138279002Y-112512100D01*
X138211963Y-112492415D01*
X138166208Y-112439611D01*
X138156264Y-112370453D01*
X138161071Y-112349782D01*
X138184446Y-112277843D01*
X138217700Y-112067887D01*
X138217700Y-111855313D01*
X138184446Y-111645357D01*
X138118757Y-111443188D01*
X138022251Y-111253784D01*
X138022249Y-111253781D01*
X138022248Y-111253779D01*
X137897309Y-111081813D01*
X137758494Y-110942998D01*
X137725009Y-110881675D01*
X137729993Y-110811983D01*
X137771865Y-110756050D01*
X137781079Y-110749778D01*
X137786531Y-110746414D01*
X137786534Y-110746414D01*
X137935856Y-110654312D01*
X138059912Y-110530256D01*
X138152014Y-110380934D01*
X138207199Y-110214397D01*
X138217700Y-110111609D01*
X138217699Y-109073828D01*
X138237383Y-109006790D01*
X138254013Y-108986153D01*
X139423620Y-107816546D01*
X139484942Y-107783063D01*
X139554634Y-107788047D01*
X139610567Y-107829919D01*
X139634984Y-107895383D01*
X139635300Y-107904229D01*
X139635300Y-110063318D01*
X139635300Y-110063320D01*
X139635299Y-110063320D01*
X139664140Y-110208307D01*
X139664143Y-110208317D01*
X139720713Y-110344890D01*
X139720714Y-110344892D01*
X139746653Y-110383712D01*
X139746654Y-110383714D01*
X139802843Y-110467810D01*
X139802847Y-110467815D01*
X140236881Y-110901849D01*
X140270366Y-110963172D01*
X140273200Y-110989530D01*
X140273200Y-111330501D01*
X140276101Y-111367367D01*
X140276102Y-111367373D01*
X140321954Y-111525193D01*
X140321955Y-111525196D01*
X140405617Y-111666662D01*
X140405623Y-111666670D01*
X140521829Y-111782876D01*
X140521833Y-111782879D01*
X140521835Y-111782881D01*
X140663302Y-111866544D01*
X140704924Y-111878636D01*
X140821126Y-111912397D01*
X140821129Y-111912397D01*
X140821131Y-111912398D01*
X140858006Y-111915300D01*
X142024200Y-111915300D01*
X142091239Y-111934985D01*
X142136994Y-111987789D01*
X142148200Y-112039300D01*
X142148200Y-112280501D01*
X142151101Y-112317367D01*
X142151102Y-112317373D01*
X142196954Y-112475193D01*
X142196955Y-112475196D01*
X142196956Y-112475198D01*
X142228292Y-112528185D01*
X142280617Y-112616662D01*
X142280623Y-112616670D01*
X142396829Y-112732876D01*
X142396833Y-112732879D01*
X142396835Y-112732881D01*
X142538302Y-112816544D01*
X142538305Y-112816544D01*
X142545465Y-112819644D01*
X142544881Y-112820993D01*
X142596476Y-112853943D01*
X142625683Y-112917415D01*
X142615937Y-112986602D01*
X142590679Y-113023093D01*
X142571286Y-113042486D01*
X142571285Y-113042488D01*
X142571283Y-113042490D01*
X142553098Y-113067520D01*
X142432457Y-113233566D01*
X142325233Y-113444003D01*
X142252246Y-113668631D01*
X142215300Y-113901902D01*
X142215300Y-114138097D01*
X142252246Y-114371368D01*
X142325233Y-114595996D01*
X142367486Y-114678921D01*
X142432457Y-114806433D01*
X142571283Y-114997510D01*
X142738290Y-115164517D01*
X142929367Y-115303343D01*
X143028791Y-115354002D01*
X143139803Y-115410566D01*
X143139805Y-115410566D01*
X143139808Y-115410568D01*
X143226602Y-115438769D01*
X143284277Y-115478207D01*
X143311475Y-115542566D01*
X143299560Y-115611412D01*
X143252316Y-115662888D01*
X143188283Y-115680700D01*
X116726300Y-115680700D01*
X116659261Y-115661015D01*
X116613506Y-115608211D01*
X116602300Y-115556700D01*
X116602300Y-90963111D01*
X118367300Y-90963111D01*
X118367300Y-91205688D01*
X118398961Y-91446185D01*
X118461747Y-91680504D01*
X118552133Y-91898715D01*
X118554576Y-91904612D01*
X118675864Y-92114689D01*
X118675866Y-92114692D01*
X118675867Y-92114693D01*
X118823533Y-92307136D01*
X118823539Y-92307143D01*
X118995056Y-92478660D01*
X118995063Y-92478666D01*
X119093604Y-92554279D01*
X119187511Y-92626336D01*
X119397588Y-92747624D01*
X119621700Y-92840454D01*
X119856011Y-92903238D01*
X120007291Y-92923154D01*
X120096511Y-92934900D01*
X120096512Y-92934900D01*
X120339089Y-92934900D01*
X120387188Y-92928567D01*
X120579589Y-92903238D01*
X120813900Y-92840454D01*
X121038012Y-92747624D01*
X121248089Y-92626336D01*
X121440538Y-92478665D01*
X121612065Y-92307138D01*
X121759736Y-92114689D01*
X121881024Y-91904612D01*
X121973854Y-91680500D01*
X122036638Y-91446189D01*
X122068300Y-91205688D01*
X122068300Y-90963112D01*
X122036638Y-90722611D01*
X121973854Y-90488300D01*
X121881024Y-90264188D01*
X121759736Y-90054111D01*
X121664786Y-89930369D01*
X121612066Y-89861663D01*
X121612060Y-89861656D01*
X121440543Y-89690139D01*
X121440536Y-89690133D01*
X121248093Y-89542467D01*
X121248092Y-89542466D01*
X121248089Y-89542464D01*
X121043236Y-89424192D01*
X121038014Y-89421177D01*
X121038005Y-89421173D01*
X120813904Y-89328347D01*
X120579585Y-89265561D01*
X120339089Y-89233900D01*
X120339088Y-89233900D01*
X120096512Y-89233900D01*
X120096511Y-89233900D01*
X119856014Y-89265561D01*
X119621695Y-89328347D01*
X119397594Y-89421173D01*
X119397585Y-89421177D01*
X119187506Y-89542467D01*
X118995063Y-89690133D01*
X118995056Y-89690139D01*
X118823539Y-89861656D01*
X118823533Y-89861663D01*
X118675867Y-90054106D01*
X118675864Y-90054110D01*
X118675864Y-90054111D01*
X118670166Y-90063981D01*
X118554577Y-90264185D01*
X118554573Y-90264194D01*
X118461747Y-90488295D01*
X118398961Y-90722614D01*
X118367300Y-90963111D01*
X116602300Y-90963111D01*
X116602300Y-86805100D01*
X116621985Y-86738061D01*
X116674789Y-86692306D01*
X116726300Y-86681100D01*
X133829217Y-86681100D01*
X133896256Y-86700785D01*
G37*
%TD.AperFunction*%
%TA.AperFunction,Conductor*%
G36*
X158057981Y-87709185D02*
G01*
X158103736Y-87761989D01*
X158113680Y-87831147D01*
X158101427Y-87869795D01*
X158021844Y-88025985D01*
X157956153Y-88228160D01*
X157929777Y-88394696D01*
X157922900Y-88438113D01*
X157922900Y-88650687D01*
X157924587Y-88661337D01*
X157956131Y-88860503D01*
X157956154Y-88860643D01*
X158015387Y-89042944D01*
X158021844Y-89062814D01*
X158118351Y-89252220D01*
X158243290Y-89424186D01*
X158393613Y-89574509D01*
X158565582Y-89699450D01*
X158574346Y-89703916D01*
X158625142Y-89751891D01*
X158641936Y-89819712D01*
X158619398Y-89885847D01*
X158574346Y-89924884D01*
X158565582Y-89929349D01*
X158393613Y-90054290D01*
X158243290Y-90204613D01*
X158118351Y-90376579D01*
X158021844Y-90565985D01*
X157956153Y-90768160D01*
X157922900Y-90978113D01*
X157922900Y-91190686D01*
X157956153Y-91400639D01*
X157956153Y-91400641D01*
X157956154Y-91400643D01*
X158019738Y-91596334D01*
X158021844Y-91602814D01*
X158118351Y-91792220D01*
X158243290Y-91964186D01*
X158393613Y-92114509D01*
X158565582Y-92239450D01*
X158574346Y-92243916D01*
X158625142Y-92291891D01*
X158641936Y-92359712D01*
X158619398Y-92425847D01*
X158574346Y-92464884D01*
X158565582Y-92469349D01*
X158393613Y-92594290D01*
X158243290Y-92744613D01*
X158118351Y-92916579D01*
X158021844Y-93105985D01*
X157956153Y-93308160D01*
X157922900Y-93518113D01*
X157922900Y-93730686D01*
X157952510Y-93917640D01*
X157956154Y-93940643D01*
X158012555Y-94114228D01*
X158021844Y-94142814D01*
X158118351Y-94332220D01*
X158243290Y-94504186D01*
X158393613Y-94654509D01*
X158565582Y-94779450D01*
X158574346Y-94783916D01*
X158625142Y-94831891D01*
X158641936Y-94899712D01*
X158619398Y-94965847D01*
X158574346Y-95004884D01*
X158565582Y-95009349D01*
X158393613Y-95134290D01*
X158243290Y-95284613D01*
X158118351Y-95456579D01*
X158021844Y-95645985D01*
X157956153Y-95848160D01*
X157922900Y-96058113D01*
X157922900Y-96270686D01*
X157949876Y-96441009D01*
X157956154Y-96480643D01*
X157992642Y-96592942D01*
X158021844Y-96682814D01*
X158118351Y-96872220D01*
X158243290Y-97044186D01*
X158393613Y-97194509D01*
X158565582Y-97319450D01*
X158574346Y-97323916D01*
X158625142Y-97371891D01*
X158641936Y-97439712D01*
X158619398Y-97505847D01*
X158574346Y-97544884D01*
X158565582Y-97549349D01*
X158393613Y-97674290D01*
X158243290Y-97824613D01*
X158118351Y-97996579D01*
X158021844Y-98185985D01*
X158021843Y-98185987D01*
X158021843Y-98185988D01*
X158015605Y-98205188D01*
X157956153Y-98388160D01*
X157930945Y-98547319D01*
X157922900Y-98598113D01*
X157922900Y-98810687D01*
X157925941Y-98829886D01*
X157953921Y-99006549D01*
X157956154Y-99020643D01*
X158020474Y-99218600D01*
X158021844Y-99222814D01*
X158118351Y-99412220D01*
X158243290Y-99584186D01*
X158393613Y-99734509D01*
X158565582Y-99859450D01*
X158574346Y-99863916D01*
X158625142Y-99911891D01*
X158641936Y-99979712D01*
X158619398Y-100045847D01*
X158574346Y-100084884D01*
X158565582Y-100089349D01*
X158393613Y-100214290D01*
X158243290Y-100364613D01*
X158118351Y-100536579D01*
X158021844Y-100725985D01*
X157956153Y-100928160D01*
X157937347Y-101046896D01*
X157922900Y-101138113D01*
X157922900Y-101350687D01*
X157928648Y-101386976D01*
X157951396Y-101530607D01*
X157956154Y-101560643D01*
X158019696Y-101756205D01*
X158021844Y-101762814D01*
X158118351Y-101952220D01*
X158243290Y-102124186D01*
X158393613Y-102274509D01*
X158565579Y-102399448D01*
X158565581Y-102399449D01*
X158565584Y-102399451D01*
X158574893Y-102404194D01*
X158625690Y-102452166D01*
X158642487Y-102519987D01*
X158619952Y-102586122D01*
X158574905Y-102625160D01*
X158565846Y-102629776D01*
X158565840Y-102629780D01*
X158511682Y-102669127D01*
X158511682Y-102669128D01*
X159143991Y-103301437D01*
X159080407Y-103318475D01*
X158966393Y-103384301D01*
X158873301Y-103477393D01*
X158807475Y-103591407D01*
X158790437Y-103654991D01*
X158158128Y-103022682D01*
X158158127Y-103022682D01*
X158118780Y-103076839D01*
X158022304Y-103266182D01*
X157956642Y-103468269D01*
X157956642Y-103468272D01*
X157923400Y-103678153D01*
X157923400Y-103890646D01*
X157956642Y-104100527D01*
X157956642Y-104100530D01*
X157980054Y-104172582D01*
X157982049Y-104242423D01*
X157945969Y-104302256D01*
X157883268Y-104333084D01*
X157862123Y-104334900D01*
X155546297Y-104334900D01*
X155516856Y-104326255D01*
X155486870Y-104319732D01*
X155481854Y-104315977D01*
X155479258Y-104315215D01*
X155458616Y-104298581D01*
X155372114Y-104212079D01*
X155338629Y-104150756D01*
X155343613Y-104081064D01*
X155385485Y-104025131D01*
X155444716Y-104002133D01*
X155444668Y-104001889D01*
X155446058Y-104001612D01*
X155447651Y-104000994D01*
X155450632Y-104000700D01*
X155450642Y-104000700D01*
X155605297Y-103969937D01*
X155750979Y-103909594D01*
X155882089Y-103821989D01*
X155993589Y-103710489D01*
X156081194Y-103579379D01*
X156141537Y-103433697D01*
X156172300Y-103279042D01*
X156172300Y-103121358D01*
X156172300Y-103121355D01*
X156172299Y-103121353D01*
X156141539Y-102966711D01*
X156141538Y-102966708D01*
X156141537Y-102966703D01*
X156131737Y-102943044D01*
X156130947Y-102939648D01*
X156129819Y-102938119D01*
X156127370Y-102924273D01*
X156122557Y-102903580D01*
X156122300Y-102899597D01*
X156122300Y-102798282D01*
X156114223Y-102757678D01*
X156093459Y-102653288D01*
X156052876Y-102555313D01*
X156052624Y-102554704D01*
X156036885Y-102516706D01*
X156036883Y-102516702D01*
X155958538Y-102399450D01*
X155958538Y-102399451D01*
X155954752Y-102393784D01*
X155021518Y-101460550D01*
X154988033Y-101399227D01*
X154985199Y-101372869D01*
X154985199Y-101160930D01*
X154985198Y-101160913D01*
X154974874Y-101059847D01*
X154970315Y-101046089D01*
X154920608Y-100896084D01*
X154830040Y-100749250D01*
X154734019Y-100653229D01*
X154700534Y-100591906D01*
X154697700Y-100565548D01*
X154697700Y-100094452D01*
X154717385Y-100027413D01*
X154734019Y-100006771D01*
X154771698Y-99969092D01*
X154830040Y-99910750D01*
X154920608Y-99763916D01*
X154974874Y-99600153D01*
X154985200Y-99499077D01*
X154985199Y-98925724D01*
X154974874Y-98824647D01*
X154920608Y-98660884D01*
X154830040Y-98514050D01*
X154734019Y-98418029D01*
X154700534Y-98356706D01*
X154697700Y-98330348D01*
X154697700Y-94638279D01*
X154668859Y-94493292D01*
X154668858Y-94493291D01*
X154668858Y-94493287D01*
X154668856Y-94493282D01*
X154612287Y-94356711D01*
X154612283Y-94356704D01*
X154575685Y-94301931D01*
X154530152Y-94233784D01*
X152649818Y-92353450D01*
X152635114Y-92326522D01*
X152618522Y-92300704D01*
X152617630Y-92294503D01*
X152616333Y-92292127D01*
X152613499Y-92265769D01*
X152613499Y-92228898D01*
X152633184Y-92161859D01*
X152685988Y-92116104D01*
X152713308Y-92107281D01*
X152748513Y-92100277D01*
X152836697Y-92082737D01*
X152982379Y-92022394D01*
X153113489Y-91934789D01*
X153224989Y-91823289D01*
X153312594Y-91692179D01*
X153372937Y-91546497D01*
X153403700Y-91391842D01*
X153403700Y-91234158D01*
X153403700Y-91234155D01*
X153403699Y-91234153D01*
X153395053Y-91190686D01*
X153372937Y-91079503D01*
X153365522Y-91061601D01*
X153312597Y-90933827D01*
X153312590Y-90933814D01*
X153224989Y-90802711D01*
X153224986Y-90802707D01*
X153113492Y-90691213D01*
X153113488Y-90691210D01*
X152982385Y-90603609D01*
X152982372Y-90603602D01*
X152836701Y-90543264D01*
X152836691Y-90543261D01*
X152713307Y-90518718D01*
X152651396Y-90486333D01*
X152616822Y-90425617D01*
X152613499Y-90397101D01*
X152613499Y-90328830D01*
X152613498Y-90328813D01*
X152603174Y-90227747D01*
X152592456Y-90195402D01*
X152548908Y-90063984D01*
X152458340Y-89917150D01*
X152424819Y-89883629D01*
X152391334Y-89822306D01*
X152388500Y-89795948D01*
X152388500Y-89384879D01*
X152359659Y-89239892D01*
X152359658Y-89239891D01*
X152359658Y-89239887D01*
X152344883Y-89204217D01*
X152303087Y-89103311D01*
X152303080Y-89103298D01*
X152220952Y-88980385D01*
X152169687Y-88929120D01*
X152116416Y-88875849D01*
X151909487Y-88668920D01*
X151693519Y-88452951D01*
X151660034Y-88391628D01*
X151657200Y-88365270D01*
X151657200Y-87813500D01*
X151676885Y-87746461D01*
X151729689Y-87700706D01*
X151781200Y-87689500D01*
X157990942Y-87689500D01*
X158057981Y-87709185D01*
G37*
%TD.AperFunction*%
%TA.AperFunction,Conductor*%
G36*
X173307981Y-87709185D02*
G01*
X173353736Y-87761989D01*
X173363680Y-87831147D01*
X173351427Y-87869795D01*
X173271844Y-88025985D01*
X173206153Y-88228160D01*
X173179777Y-88394696D01*
X173172900Y-88438113D01*
X173172900Y-88650687D01*
X173174587Y-88661337D01*
X173206131Y-88860503D01*
X173206154Y-88860643D01*
X173265387Y-89042944D01*
X173271844Y-89062814D01*
X173368351Y-89252220D01*
X173493290Y-89424186D01*
X173643613Y-89574509D01*
X173815582Y-89699450D01*
X173824346Y-89703916D01*
X173875142Y-89751891D01*
X173891936Y-89819712D01*
X173869398Y-89885847D01*
X173824346Y-89924884D01*
X173815582Y-89929349D01*
X173643613Y-90054290D01*
X173493290Y-90204613D01*
X173368351Y-90376579D01*
X173271844Y-90565985D01*
X173206153Y-90768160D01*
X173172900Y-90978113D01*
X173172900Y-91190686D01*
X173206153Y-91400639D01*
X173206153Y-91400641D01*
X173206154Y-91400643D01*
X173269738Y-91596334D01*
X173271844Y-91602814D01*
X173368351Y-91792220D01*
X173493290Y-91964186D01*
X173643613Y-92114509D01*
X173815582Y-92239450D01*
X173824346Y-92243916D01*
X173875142Y-92291891D01*
X173891936Y-92359712D01*
X173869398Y-92425847D01*
X173824346Y-92464884D01*
X173815582Y-92469349D01*
X173643613Y-92594290D01*
X173493290Y-92744613D01*
X173368351Y-92916579D01*
X173271844Y-93105985D01*
X173206153Y-93308160D01*
X173172900Y-93518113D01*
X173172900Y-93730686D01*
X173202510Y-93917640D01*
X173206154Y-93940643D01*
X173262555Y-94114228D01*
X173271844Y-94142814D01*
X173368351Y-94332220D01*
X173493290Y-94504186D01*
X173643613Y-94654509D01*
X173815582Y-94779450D01*
X173824346Y-94783916D01*
X173875142Y-94831891D01*
X173891936Y-94899712D01*
X173869398Y-94965847D01*
X173824346Y-95004884D01*
X173815582Y-95009349D01*
X173643613Y-95134290D01*
X173493290Y-95284613D01*
X173368351Y-95456579D01*
X173271844Y-95645985D01*
X173206153Y-95848160D01*
X173172900Y-96058113D01*
X173172900Y-96270686D01*
X173199876Y-96441009D01*
X173206154Y-96480643D01*
X173242642Y-96592942D01*
X173271844Y-96682814D01*
X173368351Y-96872220D01*
X173493290Y-97044186D01*
X173643613Y-97194509D01*
X173815582Y-97319450D01*
X173824346Y-97323916D01*
X173875142Y-97371891D01*
X173891936Y-97439712D01*
X173869398Y-97505847D01*
X173824346Y-97544884D01*
X173815582Y-97549349D01*
X173643613Y-97674290D01*
X173493290Y-97824613D01*
X173368351Y-97996579D01*
X173271844Y-98185985D01*
X173271843Y-98185987D01*
X173271843Y-98185988D01*
X173265605Y-98205188D01*
X173206153Y-98388160D01*
X173180945Y-98547319D01*
X173172900Y-98598113D01*
X173172900Y-98810687D01*
X173175941Y-98829886D01*
X173203921Y-99006549D01*
X173206154Y-99020643D01*
X173270474Y-99218600D01*
X173271844Y-99222814D01*
X173368351Y-99412220D01*
X173493290Y-99584186D01*
X173643613Y-99734509D01*
X173815582Y-99859450D01*
X173824346Y-99863916D01*
X173875142Y-99911891D01*
X173891936Y-99979712D01*
X173869398Y-100045847D01*
X173824346Y-100084884D01*
X173815582Y-100089349D01*
X173643613Y-100214290D01*
X173493290Y-100364613D01*
X173368351Y-100536579D01*
X173271844Y-100725985D01*
X173206153Y-100928160D01*
X173187347Y-101046896D01*
X173172900Y-101138113D01*
X173172900Y-101350687D01*
X173178648Y-101386976D01*
X173206154Y-101560644D01*
X173206154Y-101560647D01*
X173219891Y-101602923D01*
X173221886Y-101672764D01*
X173189641Y-101728922D01*
X170619984Y-104298581D01*
X170558661Y-104332066D01*
X170532303Y-104334900D01*
X160684677Y-104334900D01*
X160617638Y-104315215D01*
X160571883Y-104262411D01*
X160561939Y-104193253D01*
X160566746Y-104172582D01*
X160590157Y-104100530D01*
X160590157Y-104100527D01*
X160623400Y-103890646D01*
X160623400Y-103678153D01*
X160590157Y-103468272D01*
X160590157Y-103468269D01*
X160524495Y-103266182D01*
X160428024Y-103076849D01*
X160388670Y-103022682D01*
X160388669Y-103022682D01*
X159756362Y-103654989D01*
X159739325Y-103591407D01*
X159673499Y-103477393D01*
X159580407Y-103384301D01*
X159466393Y-103318475D01*
X159402809Y-103301437D01*
X160035116Y-102669128D01*
X159980947Y-102629773D01*
X159980947Y-102629772D01*
X159971900Y-102625163D01*
X159921106Y-102577188D01*
X159904312Y-102509366D01*
X159926851Y-102443232D01*
X159971908Y-102404193D01*
X159981216Y-102399451D01*
X160079839Y-102327798D01*
X160153186Y-102274509D01*
X160153188Y-102274506D01*
X160153192Y-102274504D01*
X160303504Y-102124192D01*
X160303506Y-102124188D01*
X160303509Y-102124186D01*
X160428448Y-101952220D01*
X160428447Y-101952220D01*
X160428451Y-101952216D01*
X160524957Y-101762812D01*
X160590646Y-101560643D01*
X160623900Y-101350687D01*
X160623900Y-101138113D01*
X160590646Y-100928157D01*
X160524957Y-100725988D01*
X160428451Y-100536584D01*
X160428449Y-100536581D01*
X160428448Y-100536579D01*
X160303509Y-100364613D01*
X160153186Y-100214290D01*
X159981220Y-100089351D01*
X159980515Y-100088991D01*
X159972454Y-100084885D01*
X159921659Y-100036912D01*
X159904863Y-99969092D01*
X159927399Y-99902956D01*
X159972454Y-99863915D01*
X159981216Y-99859451D01*
X160057694Y-99803887D01*
X160153186Y-99734509D01*
X160153188Y-99734506D01*
X160153192Y-99734504D01*
X160303504Y-99584192D01*
X160303506Y-99584188D01*
X160303509Y-99584186D01*
X160428448Y-99412220D01*
X160428447Y-99412220D01*
X160428451Y-99412216D01*
X160524957Y-99222812D01*
X160590646Y-99020643D01*
X160623900Y-98810687D01*
X160623900Y-98598113D01*
X160590646Y-98388157D01*
X160524957Y-98185988D01*
X160428451Y-97996584D01*
X160428449Y-97996581D01*
X160428448Y-97996579D01*
X160303509Y-97824613D01*
X160153186Y-97674290D01*
X159981220Y-97549351D01*
X159980515Y-97548991D01*
X159972454Y-97544885D01*
X159921659Y-97496912D01*
X159904863Y-97429092D01*
X159927399Y-97362956D01*
X159972454Y-97323915D01*
X159981216Y-97319451D01*
X160008591Y-97299562D01*
X160153186Y-97194509D01*
X160153188Y-97194506D01*
X160153192Y-97194504D01*
X160303504Y-97044192D01*
X160303506Y-97044188D01*
X160303509Y-97044186D01*
X160428448Y-96872220D01*
X160428447Y-96872220D01*
X160428451Y-96872216D01*
X160524957Y-96682812D01*
X160590646Y-96480643D01*
X160623900Y-96270687D01*
X160623900Y-96058113D01*
X160590646Y-95848157D01*
X160524957Y-95645988D01*
X160428451Y-95456584D01*
X160428449Y-95456581D01*
X160428448Y-95456579D01*
X160303509Y-95284613D01*
X160153186Y-95134290D01*
X159981220Y-95009351D01*
X159980515Y-95008991D01*
X159972454Y-95004885D01*
X159921659Y-94956912D01*
X159904863Y-94889092D01*
X159927399Y-94822956D01*
X159972454Y-94783915D01*
X159981216Y-94779451D01*
X160058063Y-94723619D01*
X160153186Y-94654509D01*
X160153188Y-94654506D01*
X160153192Y-94654504D01*
X160303504Y-94504192D01*
X160303506Y-94504188D01*
X160303509Y-94504186D01*
X160428448Y-94332220D01*
X160428447Y-94332220D01*
X160428451Y-94332216D01*
X160524957Y-94142812D01*
X160590646Y-93940643D01*
X160623900Y-93730687D01*
X160623900Y-93583497D01*
X160630138Y-93562251D01*
X160631718Y-93540163D01*
X160639790Y-93529379D01*
X160643585Y-93516458D01*
X160660318Y-93501958D01*
X160673590Y-93484230D01*
X160686210Y-93479522D01*
X160696389Y-93470703D01*
X160718306Y-93467551D01*
X160739054Y-93459813D01*
X160752214Y-93462675D01*
X160765547Y-93460759D01*
X160785690Y-93469958D01*
X160807327Y-93474665D01*
X160825052Y-93487933D01*
X160829103Y-93489784D01*
X160835581Y-93495816D01*
X160963181Y-93623416D01*
X160996666Y-93684739D01*
X160999500Y-93711097D01*
X160999500Y-97470234D01*
X160979815Y-97537273D01*
X160978602Y-97539125D01*
X160890609Y-97670814D01*
X160890602Y-97670827D01*
X160830264Y-97816498D01*
X160830261Y-97816510D01*
X160799500Y-97971153D01*
X160799500Y-98128846D01*
X160830261Y-98283489D01*
X160830264Y-98283501D01*
X160890602Y-98429172D01*
X160890609Y-98429185D01*
X160978210Y-98560288D01*
X160978213Y-98560292D01*
X161089707Y-98671786D01*
X161089711Y-98671789D01*
X161220814Y-98759390D01*
X161220827Y-98759397D01*
X161366498Y-98819735D01*
X161366503Y-98819737D01*
X161521153Y-98850499D01*
X161521156Y-98850500D01*
X161521158Y-98850500D01*
X161678844Y-98850500D01*
X161678845Y-98850499D01*
X161833497Y-98819737D01*
X161979179Y-98759394D01*
X162110289Y-98671789D01*
X162221789Y-98560289D01*
X162309394Y-98429179D01*
X162314013Y-98418029D01*
X162350331Y-98330348D01*
X162369737Y-98283497D01*
X162400500Y-98128842D01*
X162400500Y-97971158D01*
X162400500Y-97971155D01*
X162400499Y-97971153D01*
X162386246Y-97899500D01*
X162369737Y-97816503D01*
X162349600Y-97767887D01*
X162309397Y-97670827D01*
X162309390Y-97670814D01*
X162221398Y-97539125D01*
X162200520Y-97472447D01*
X162200500Y-97470234D01*
X162200500Y-93331943D01*
X162200499Y-93331939D01*
X162192353Y-93301537D01*
X162188147Y-93285840D01*
X162159577Y-93179215D01*
X162104180Y-93083265D01*
X162080520Y-93042284D01*
X161968716Y-92930480D01*
X161968713Y-92930478D01*
X160607157Y-91568922D01*
X160573672Y-91507599D01*
X160576907Y-91442923D01*
X160590646Y-91400643D01*
X160623900Y-91190687D01*
X160623900Y-90978113D01*
X160590646Y-90768157D01*
X160524957Y-90565988D01*
X160428451Y-90376584D01*
X160428449Y-90376581D01*
X160428448Y-90376579D01*
X160303509Y-90204613D01*
X160153186Y-90054290D01*
X159981220Y-89929351D01*
X159980515Y-89928991D01*
X159972454Y-89924885D01*
X159921659Y-89876912D01*
X159904863Y-89809092D01*
X159927399Y-89742956D01*
X159972454Y-89703915D01*
X159981216Y-89699451D01*
X160015838Y-89674297D01*
X160153186Y-89574509D01*
X160153188Y-89574506D01*
X160153192Y-89574504D01*
X160303504Y-89424192D01*
X160303506Y-89424188D01*
X160303509Y-89424186D01*
X160428448Y-89252220D01*
X160428447Y-89252220D01*
X160428451Y-89252216D01*
X160524957Y-89062812D01*
X160590646Y-88860643D01*
X160623900Y-88650687D01*
X160623900Y-88438113D01*
X160590646Y-88228157D01*
X160524957Y-88025988D01*
X160445373Y-87869795D01*
X160432477Y-87801126D01*
X160458753Y-87736385D01*
X160515860Y-87696128D01*
X160555858Y-87689500D01*
X173240942Y-87689500D01*
X173307981Y-87709185D01*
G37*
%TD.AperFunction*%
%TA.AperFunction,Conductor*%
G36*
X150659338Y-93006374D02*
G01*
X150669464Y-93005110D01*
X150692296Y-93016052D01*
X150716587Y-93023185D01*
X150724945Y-93031699D01*
X150732471Y-93035306D01*
X150755086Y-93062403D01*
X150817657Y-93163846D01*
X150817660Y-93163850D01*
X150939650Y-93285840D01*
X151086484Y-93376408D01*
X151250247Y-93430674D01*
X151351323Y-93441000D01*
X151563268Y-93440999D01*
X151630308Y-93460683D01*
X151650950Y-93477318D01*
X153160381Y-94986749D01*
X153193866Y-95048072D01*
X153196700Y-95074430D01*
X153196700Y-96692793D01*
X153177015Y-96759832D01*
X153124211Y-96805587D01*
X153072700Y-96816793D01*
X153003862Y-96816793D01*
X152849217Y-96847554D01*
X152849205Y-96847557D01*
X152703534Y-96907895D01*
X152703521Y-96907902D01*
X152572418Y-96995503D01*
X152572414Y-96995506D01*
X152460920Y-97107000D01*
X152460917Y-97107004D01*
X152373316Y-97238107D01*
X152373309Y-97238120D01*
X152312971Y-97383791D01*
X152312968Y-97383803D01*
X152282207Y-97538446D01*
X152282207Y-97696139D01*
X152312968Y-97850782D01*
X152312971Y-97850794D01*
X152373309Y-97996465D01*
X152373315Y-97996476D01*
X152405076Y-98044010D01*
X152425953Y-98110688D01*
X152407468Y-98178068D01*
X152355489Y-98224757D01*
X152301973Y-98236900D01*
X151873030Y-98236900D01*
X151873012Y-98236901D01*
X151771947Y-98247225D01*
X151608184Y-98301492D01*
X151608181Y-98301493D01*
X151461348Y-98392061D01*
X151427829Y-98425581D01*
X151366506Y-98459066D01*
X151340148Y-98461900D01*
X151233880Y-98461900D01*
X151088892Y-98490740D01*
X151088882Y-98490743D01*
X150952311Y-98547312D01*
X150952298Y-98547319D01*
X150829384Y-98629448D01*
X150829380Y-98629451D01*
X150276552Y-99182281D01*
X150215229Y-99215766D01*
X150188871Y-99218600D01*
X149554330Y-99218600D01*
X149487291Y-99198915D01*
X149466649Y-99182281D01*
X149036819Y-98752451D01*
X149003334Y-98691128D01*
X149000500Y-98664770D01*
X149000500Y-98621155D01*
X149000499Y-98621153D01*
X148984632Y-98541386D01*
X148969737Y-98466503D01*
X148957999Y-98438164D01*
X148909397Y-98320827D01*
X148909390Y-98320814D01*
X148821789Y-98189711D01*
X148821786Y-98189707D01*
X148710292Y-98078213D01*
X148710288Y-98078210D01*
X148579185Y-97990609D01*
X148579172Y-97990602D01*
X148433501Y-97930264D01*
X148433489Y-97930261D01*
X148278845Y-97899500D01*
X148278842Y-97899500D01*
X148206704Y-97899500D01*
X148139665Y-97879815D01*
X148093910Y-97827011D01*
X148083086Y-97765771D01*
X148084905Y-97742658D01*
X147426858Y-97084612D01*
X147447391Y-97079111D01*
X147584208Y-97000119D01*
X147695919Y-96888408D01*
X147774911Y-96751591D01*
X147780412Y-96731058D01*
X148438458Y-97389105D01*
X148438458Y-97389104D01*
X148498714Y-97306169D01*
X148498718Y-97306163D01*
X148605902Y-97095802D01*
X148678865Y-96871247D01*
X148715800Y-96638052D01*
X148715800Y-96401947D01*
X148710407Y-96367898D01*
X148719362Y-96298604D01*
X148764358Y-96245153D01*
X148831109Y-96224513D01*
X148898423Y-96243238D01*
X148901753Y-96245386D01*
X149005086Y-96314431D01*
X149187164Y-96389851D01*
X149380455Y-96428299D01*
X149380458Y-96428300D01*
X149380460Y-96428300D01*
X149577542Y-96428300D01*
X149577543Y-96428299D01*
X149770836Y-96389851D01*
X149952914Y-96314431D01*
X150116781Y-96204939D01*
X150256139Y-96065581D01*
X150365631Y-95901714D01*
X150441051Y-95719636D01*
X150479500Y-95526340D01*
X150479500Y-95329260D01*
X150479500Y-95329257D01*
X150479499Y-95329255D01*
X150474819Y-95305725D01*
X150441051Y-95135964D01*
X150365631Y-94953886D01*
X150365627Y-94953879D01*
X150256139Y-94790019D01*
X150256136Y-94790015D01*
X149134651Y-93668531D01*
X149130313Y-93664193D01*
X149130311Y-93664190D01*
X149118796Y-93652675D01*
X149095418Y-93609855D01*
X149085317Y-93591357D01*
X149085317Y-93591353D01*
X149085315Y-93591349D01*
X149087953Y-93554500D01*
X149090301Y-93521665D01*
X149090303Y-93521661D01*
X149090304Y-93521658D01*
X149112627Y-93491842D01*
X149132173Y-93465732D01*
X149132176Y-93465730D01*
X149132179Y-93465727D01*
X149170279Y-93451518D01*
X149197637Y-93441315D01*
X149197642Y-93441314D01*
X149197647Y-93441314D01*
X149206460Y-93440999D01*
X149664076Y-93440999D01*
X149664084Y-93440998D01*
X149664087Y-93440998D01*
X149719430Y-93435344D01*
X149765153Y-93430674D01*
X149928916Y-93376408D01*
X150075750Y-93285840D01*
X150197740Y-93163850D01*
X150233430Y-93105988D01*
X150260314Y-93062403D01*
X150312262Y-93015678D01*
X150365852Y-93003500D01*
X150649548Y-93003500D01*
X150659338Y-93006374D01*
G37*
%TD.AperFunction*%
%TA.AperFunction,Conductor*%
G36*
X146367503Y-95322157D02*
G01*
X146388145Y-95338791D01*
X147004741Y-95955387D01*
X146984209Y-95960889D01*
X146847392Y-96039881D01*
X146735681Y-96151592D01*
X146656689Y-96288409D01*
X146651187Y-96308941D01*
X145993140Y-95650894D01*
X145932884Y-95733830D01*
X145825697Y-95944197D01*
X145752734Y-96168752D01*
X145715800Y-96401947D01*
X145715800Y-96638052D01*
X145752734Y-96871247D01*
X145825697Y-97095802D01*
X145932885Y-97306171D01*
X145966628Y-97352614D01*
X145990108Y-97418421D01*
X145974283Y-97486475D01*
X145924177Y-97535170D01*
X145866310Y-97549500D01*
X145065908Y-97549500D01*
X144998869Y-97529815D01*
X144953114Y-97477011D01*
X144943170Y-97407853D01*
X144965590Y-97352614D01*
X144999143Y-97306433D01*
X145106368Y-97095992D01*
X145179353Y-96871368D01*
X145183124Y-96847557D01*
X145216300Y-96638097D01*
X145216300Y-96401902D01*
X145179353Y-96168631D01*
X145106366Y-95944003D01*
X145017015Y-95768642D01*
X145003500Y-95712347D01*
X145003500Y-95426472D01*
X145023185Y-95359433D01*
X145075989Y-95313678D01*
X145127500Y-95302472D01*
X146300464Y-95302472D01*
X146367503Y-95322157D01*
G37*
%TD.AperFunction*%
%TA.AperFunction,Conductor*%
G36*
X139424542Y-86700785D02*
G01*
X139470297Y-86753589D01*
X139480241Y-86822747D01*
X139451216Y-86886303D01*
X139422601Y-86910638D01*
X139357562Y-86950754D01*
X139235655Y-87072661D01*
X139235652Y-87072665D01*
X139145151Y-87219388D01*
X139145146Y-87219399D01*
X139090919Y-87383047D01*
X139080600Y-87484045D01*
X139080600Y-87583200D01*
X141030599Y-87583200D01*
X141030599Y-87484060D01*
X141030598Y-87484045D01*
X141020280Y-87383047D01*
X140966053Y-87219399D01*
X140966048Y-87219388D01*
X140875547Y-87072665D01*
X140875544Y-87072661D01*
X140753637Y-86950754D01*
X140688599Y-86910638D01*
X140641875Y-86858690D01*
X140630654Y-86789727D01*
X140658497Y-86725645D01*
X140716566Y-86686790D01*
X140753697Y-86681100D01*
X146746079Y-86681100D01*
X146813118Y-86700785D01*
X146858873Y-86753589D01*
X146868817Y-86822747D01*
X146839792Y-86886303D01*
X146785083Y-86922805D01*
X146756966Y-86932122D01*
X146687364Y-86955186D01*
X146687362Y-86955187D01*
X146538048Y-87047286D01*
X146538044Y-87047289D01*
X146413989Y-87171344D01*
X146413986Y-87171348D01*
X146321887Y-87320662D01*
X146321886Y-87320664D01*
X146303466Y-87376254D01*
X146267743Y-87484060D01*
X146266702Y-87487201D01*
X146266701Y-87487203D01*
X146256200Y-87589984D01*
X146256200Y-88218500D01*
X146236515Y-88285539D01*
X146183711Y-88331294D01*
X146132200Y-88342500D01*
X145696028Y-88342500D01*
X145661433Y-88337576D01*
X145516273Y-88295402D01*
X145516267Y-88295401D01*
X145479401Y-88292500D01*
X145479394Y-88292500D01*
X144173006Y-88292500D01*
X144172998Y-88292500D01*
X144136132Y-88295401D01*
X144136126Y-88295402D01*
X143978306Y-88341254D01*
X143978303Y-88341255D01*
X143836837Y-88424917D01*
X143836829Y-88424923D01*
X143720623Y-88541129D01*
X143720617Y-88541137D01*
X143636955Y-88682603D01*
X143636954Y-88682606D01*
X143591102Y-88840426D01*
X143591101Y-88840432D01*
X143588200Y-88877298D01*
X143588200Y-89118500D01*
X143568515Y-89185539D01*
X143515711Y-89231294D01*
X143464200Y-89242500D01*
X142297998Y-89242500D01*
X142261132Y-89245401D01*
X142261126Y-89245402D01*
X142103306Y-89291254D01*
X142103303Y-89291255D01*
X141961837Y-89374917D01*
X141961829Y-89374923D01*
X141845623Y-89491129D01*
X141845617Y-89491137D01*
X141761955Y-89632603D01*
X141761954Y-89632606D01*
X141716102Y-89790426D01*
X141716101Y-89790432D01*
X141713200Y-89827298D01*
X141713200Y-90258701D01*
X141716101Y-90295567D01*
X141716102Y-90295573D01*
X141752229Y-90419920D01*
X141752191Y-90433213D01*
X141756837Y-90445669D01*
X141752093Y-90467474D01*
X141752030Y-90489789D01*
X141744480Y-90502472D01*
X141741985Y-90513942D01*
X141720834Y-90542196D01*
X141594503Y-90668527D01*
X141554280Y-90695405D01*
X141530619Y-90705206D01*
X141530618Y-90705207D01*
X141399515Y-90792807D01*
X141399507Y-90792813D01*
X141288013Y-90904307D01*
X141288006Y-90904316D01*
X141283200Y-90911509D01*
X141229587Y-90956313D01*
X141160262Y-90965019D01*
X141097235Y-90934862D01*
X141060517Y-90875419D01*
X141056100Y-90842616D01*
X141056100Y-89459656D01*
X141033482Y-89345952D01*
X141031099Y-89321760D01*
X141031099Y-89209030D01*
X141031098Y-89209013D01*
X141020774Y-89107947D01*
X141012135Y-89081876D01*
X140966508Y-88944184D01*
X140875940Y-88797350D01*
X140861617Y-88783027D01*
X140828132Y-88721704D01*
X140833116Y-88652012D01*
X140861621Y-88607660D01*
X140875547Y-88593735D01*
X140966048Y-88447011D01*
X140966053Y-88447000D01*
X141020280Y-88283352D01*
X141030599Y-88182354D01*
X141030600Y-88182341D01*
X141030600Y-88083200D01*
X139080601Y-88083200D01*
X139080601Y-88182354D01*
X139090919Y-88283352D01*
X139127815Y-88394696D01*
X139130217Y-88464524D01*
X139094485Y-88524566D01*
X139031965Y-88555759D01*
X139010109Y-88557700D01*
X138418253Y-88557700D01*
X138394061Y-88555317D01*
X138372302Y-88550989D01*
X138350742Y-88546700D01*
X138350741Y-88546700D01*
X138153659Y-88546700D01*
X138153657Y-88546700D01*
X138100875Y-88557199D01*
X138100862Y-88557201D01*
X138098359Y-88557700D01*
X137960364Y-88585149D01*
X137933808Y-88596149D01*
X137924919Y-88599830D01*
X137924910Y-88599833D01*
X137778292Y-88660564D01*
X137778279Y-88660571D01*
X137614418Y-88770060D01*
X137491232Y-88893246D01*
X137474878Y-88902175D01*
X137461531Y-88915174D01*
X137444849Y-88918571D01*
X137429909Y-88926730D01*
X137411324Y-88925400D01*
X137393067Y-88929120D01*
X137377197Y-88922960D01*
X137360217Y-88921746D01*
X137345301Y-88910579D01*
X137327932Y-88903838D01*
X137310554Y-88884567D01*
X137304284Y-88879874D01*
X137303308Y-88878553D01*
X137300515Y-88874717D01*
X137269140Y-88823850D01*
X137248313Y-88803023D01*
X137242609Y-88795189D01*
X137233969Y-88771053D01*
X137221686Y-88748558D01*
X137222390Y-88738705D01*
X137219062Y-88729407D01*
X137224841Y-88704437D01*
X137226670Y-88678866D01*
X137233061Y-88668920D01*
X137234817Y-88661337D01*
X137243152Y-88653218D01*
X137255171Y-88634519D01*
X137269140Y-88620550D01*
X137359708Y-88473716D01*
X137413974Y-88309953D01*
X137424300Y-88208877D01*
X137424299Y-88096135D01*
X137426682Y-88071942D01*
X137435824Y-88025988D01*
X137449300Y-87958241D01*
X137449300Y-87761159D01*
X137449300Y-87761156D01*
X137426682Y-87647452D01*
X137424299Y-87623260D01*
X137424299Y-87510530D01*
X137424298Y-87510513D01*
X137413974Y-87409447D01*
X137402740Y-87375546D01*
X137359708Y-87245684D01*
X137269140Y-87098850D01*
X137147150Y-86976860D01*
X137039787Y-86910637D01*
X136993064Y-86858691D01*
X136981841Y-86789728D01*
X137009685Y-86725646D01*
X137067754Y-86686790D01*
X137104885Y-86681100D01*
X139357503Y-86681100D01*
X139424542Y-86700785D01*
G37*
%TD.AperFunction*%
%TD*%
D33*
X153013633Y-103813927D02*
X152880300Y-103623451D01*
X152785062Y-103813927D02*
X152785062Y-103413927D01*
X152785062Y-103413927D02*
X152937443Y-103413927D01*
X152937443Y-103413927D02*
X152975538Y-103432975D01*
X152975538Y-103432975D02*
X152994585Y-103452022D01*
X152994585Y-103452022D02*
X153013633Y-103490118D01*
X153013633Y-103490118D02*
X153013633Y-103547260D01*
X153013633Y-103547260D02*
X152994585Y-103585356D01*
X152994585Y-103585356D02*
X152975538Y-103604403D01*
X152975538Y-103604403D02*
X152937443Y-103623451D01*
X152937443Y-103623451D02*
X152785062Y-103623451D01*
X153146966Y-103413927D02*
X153413633Y-103413927D01*
X153413633Y-103413927D02*
X153242204Y-103813927D01*
X145857433Y-103864727D02*
X145724100Y-103674251D01*
X145628862Y-103864727D02*
X145628862Y-103464727D01*
X145628862Y-103464727D02*
X145781243Y-103464727D01*
X145781243Y-103464727D02*
X145819338Y-103483775D01*
X145819338Y-103483775D02*
X145838385Y-103502822D01*
X145838385Y-103502822D02*
X145857433Y-103540918D01*
X145857433Y-103540918D02*
X145857433Y-103598060D01*
X145857433Y-103598060D02*
X145838385Y-103636156D01*
X145838385Y-103636156D02*
X145819338Y-103655203D01*
X145819338Y-103655203D02*
X145781243Y-103674251D01*
X145781243Y-103674251D02*
X145628862Y-103674251D01*
X146086004Y-103636156D02*
X146047909Y-103617108D01*
X146047909Y-103617108D02*
X146028862Y-103598060D01*
X146028862Y-103598060D02*
X146009814Y-103559965D01*
X146009814Y-103559965D02*
X146009814Y-103540918D01*
X146009814Y-103540918D02*
X146028862Y-103502822D01*
X146028862Y-103502822D02*
X146047909Y-103483775D01*
X146047909Y-103483775D02*
X146086004Y-103464727D01*
X146086004Y-103464727D02*
X146162195Y-103464727D01*
X146162195Y-103464727D02*
X146200290Y-103483775D01*
X146200290Y-103483775D02*
X146219338Y-103502822D01*
X146219338Y-103502822D02*
X146238385Y-103540918D01*
X146238385Y-103540918D02*
X146238385Y-103559965D01*
X146238385Y-103559965D02*
X146219338Y-103598060D01*
X146219338Y-103598060D02*
X146200290Y-103617108D01*
X146200290Y-103617108D02*
X146162195Y-103636156D01*
X146162195Y-103636156D02*
X146086004Y-103636156D01*
X146086004Y-103636156D02*
X146047909Y-103655203D01*
X146047909Y-103655203D02*
X146028862Y-103674251D01*
X146028862Y-103674251D02*
X146009814Y-103712346D01*
X146009814Y-103712346D02*
X146009814Y-103788537D01*
X146009814Y-103788537D02*
X146028862Y-103826632D01*
X146028862Y-103826632D02*
X146047909Y-103845680D01*
X146047909Y-103845680D02*
X146086004Y-103864727D01*
X146086004Y-103864727D02*
X146162195Y-103864727D01*
X146162195Y-103864727D02*
X146200290Y-103845680D01*
X146200290Y-103845680D02*
X146219338Y-103826632D01*
X146219338Y-103826632D02*
X146238385Y-103788537D01*
X146238385Y-103788537D02*
X146238385Y-103712346D01*
X146238385Y-103712346D02*
X146219338Y-103674251D01*
X146219338Y-103674251D02*
X146200290Y-103655203D01*
X146200290Y-103655203D02*
X146162195Y-103636156D01*
X138434127Y-92238966D02*
X138243651Y-92372299D01*
X138434127Y-92467537D02*
X138034127Y-92467537D01*
X138034127Y-92467537D02*
X138034127Y-92315156D01*
X138034127Y-92315156D02*
X138053175Y-92277061D01*
X138053175Y-92277061D02*
X138072222Y-92258014D01*
X138072222Y-92258014D02*
X138110318Y-92238966D01*
X138110318Y-92238966D02*
X138167460Y-92238966D01*
X138167460Y-92238966D02*
X138205556Y-92258014D01*
X138205556Y-92258014D02*
X138224603Y-92277061D01*
X138224603Y-92277061D02*
X138243651Y-92315156D01*
X138243651Y-92315156D02*
X138243651Y-92467537D01*
X138034127Y-92105633D02*
X138034127Y-91858014D01*
X138034127Y-91858014D02*
X138186508Y-91991347D01*
X138186508Y-91991347D02*
X138186508Y-91934204D01*
X138186508Y-91934204D02*
X138205556Y-91896109D01*
X138205556Y-91896109D02*
X138224603Y-91877061D01*
X138224603Y-91877061D02*
X138262699Y-91858014D01*
X138262699Y-91858014D02*
X138357937Y-91858014D01*
X138357937Y-91858014D02*
X138396032Y-91877061D01*
X138396032Y-91877061D02*
X138415080Y-91896109D01*
X138415080Y-91896109D02*
X138434127Y-91934204D01*
X138434127Y-91934204D02*
X138434127Y-92048490D01*
X138434127Y-92048490D02*
X138415080Y-92086585D01*
X138415080Y-92086585D02*
X138396032Y-92105633D01*
X149800632Y-112689166D02*
X149819680Y-112708214D01*
X149819680Y-112708214D02*
X149838727Y-112765356D01*
X149838727Y-112765356D02*
X149838727Y-112803452D01*
X149838727Y-112803452D02*
X149819680Y-112860595D01*
X149819680Y-112860595D02*
X149781584Y-112898690D01*
X149781584Y-112898690D02*
X149743489Y-112917737D01*
X149743489Y-112917737D02*
X149667299Y-112936785D01*
X149667299Y-112936785D02*
X149610156Y-112936785D01*
X149610156Y-112936785D02*
X149533965Y-112917737D01*
X149533965Y-112917737D02*
X149495870Y-112898690D01*
X149495870Y-112898690D02*
X149457775Y-112860595D01*
X149457775Y-112860595D02*
X149438727Y-112803452D01*
X149438727Y-112803452D02*
X149438727Y-112765356D01*
X149438727Y-112765356D02*
X149457775Y-112708214D01*
X149457775Y-112708214D02*
X149476822Y-112689166D01*
X149438727Y-112346309D02*
X149438727Y-112422499D01*
X149438727Y-112422499D02*
X149457775Y-112460595D01*
X149457775Y-112460595D02*
X149476822Y-112479642D01*
X149476822Y-112479642D02*
X149533965Y-112517737D01*
X149533965Y-112517737D02*
X149610156Y-112536785D01*
X149610156Y-112536785D02*
X149762537Y-112536785D01*
X149762537Y-112536785D02*
X149800632Y-112517737D01*
X149800632Y-112517737D02*
X149819680Y-112498690D01*
X149819680Y-112498690D02*
X149838727Y-112460595D01*
X149838727Y-112460595D02*
X149838727Y-112384404D01*
X149838727Y-112384404D02*
X149819680Y-112346309D01*
X149819680Y-112346309D02*
X149800632Y-112327261D01*
X149800632Y-112327261D02*
X149762537Y-112308214D01*
X149762537Y-112308214D02*
X149667299Y-112308214D01*
X149667299Y-112308214D02*
X149629203Y-112327261D01*
X149629203Y-112327261D02*
X149610156Y-112346309D01*
X149610156Y-112346309D02*
X149591108Y-112384404D01*
X149591108Y-112384404D02*
X149591108Y-112460595D01*
X149591108Y-112460595D02*
X149610156Y-112498690D01*
X149610156Y-112498690D02*
X149629203Y-112517737D01*
X149629203Y-112517737D02*
X149667299Y-112536785D01*
X145855233Y-99686432D02*
X145836185Y-99705480D01*
X145836185Y-99705480D02*
X145779043Y-99724527D01*
X145779043Y-99724527D02*
X145740947Y-99724527D01*
X145740947Y-99724527D02*
X145683804Y-99705480D01*
X145683804Y-99705480D02*
X145645709Y-99667384D01*
X145645709Y-99667384D02*
X145626662Y-99629289D01*
X145626662Y-99629289D02*
X145607614Y-99553099D01*
X145607614Y-99553099D02*
X145607614Y-99495956D01*
X145607614Y-99495956D02*
X145626662Y-99419765D01*
X145626662Y-99419765D02*
X145645709Y-99381670D01*
X145645709Y-99381670D02*
X145683804Y-99343575D01*
X145683804Y-99343575D02*
X145740947Y-99324527D01*
X145740947Y-99324527D02*
X145779043Y-99324527D01*
X145779043Y-99324527D02*
X145836185Y-99343575D01*
X145836185Y-99343575D02*
X145855233Y-99362622D01*
X146236185Y-99724527D02*
X146007614Y-99724527D01*
X146121900Y-99724527D02*
X146121900Y-99324527D01*
X146121900Y-99324527D02*
X146083804Y-99381670D01*
X146083804Y-99381670D02*
X146045709Y-99419765D01*
X146045709Y-99419765D02*
X146007614Y-99438813D01*
X151781832Y-91607166D02*
X151800880Y-91626214D01*
X151800880Y-91626214D02*
X151819927Y-91683356D01*
X151819927Y-91683356D02*
X151819927Y-91721452D01*
X151819927Y-91721452D02*
X151800880Y-91778595D01*
X151800880Y-91778595D02*
X151762784Y-91816690D01*
X151762784Y-91816690D02*
X151724689Y-91835737D01*
X151724689Y-91835737D02*
X151648499Y-91854785D01*
X151648499Y-91854785D02*
X151591356Y-91854785D01*
X151591356Y-91854785D02*
X151515165Y-91835737D01*
X151515165Y-91835737D02*
X151477070Y-91816690D01*
X151477070Y-91816690D02*
X151438975Y-91778595D01*
X151438975Y-91778595D02*
X151419927Y-91721452D01*
X151419927Y-91721452D02*
X151419927Y-91683356D01*
X151419927Y-91683356D02*
X151438975Y-91626214D01*
X151438975Y-91626214D02*
X151458022Y-91607166D01*
X151419927Y-91245261D02*
X151419927Y-91435737D01*
X151419927Y-91435737D02*
X151610403Y-91454785D01*
X151610403Y-91454785D02*
X151591356Y-91435737D01*
X151591356Y-91435737D02*
X151572308Y-91397642D01*
X151572308Y-91397642D02*
X151572308Y-91302404D01*
X151572308Y-91302404D02*
X151591356Y-91264309D01*
X151591356Y-91264309D02*
X151610403Y-91245261D01*
X151610403Y-91245261D02*
X151648499Y-91226214D01*
X151648499Y-91226214D02*
X151743737Y-91226214D01*
X151743737Y-91226214D02*
X151781832Y-91245261D01*
X151781832Y-91245261D02*
X151800880Y-91264309D01*
X151800880Y-91264309D02*
X151819927Y-91302404D01*
X151819927Y-91302404D02*
X151819927Y-91397642D01*
X151819927Y-91397642D02*
X151800880Y-91435737D01*
X151800880Y-91435737D02*
X151781832Y-91454785D01*
X153018033Y-101629527D02*
X152884700Y-101439051D01*
X152789462Y-101629527D02*
X152789462Y-101229527D01*
X152789462Y-101229527D02*
X152941843Y-101229527D01*
X152941843Y-101229527D02*
X152979938Y-101248575D01*
X152979938Y-101248575D02*
X152998985Y-101267622D01*
X152998985Y-101267622D02*
X153018033Y-101305718D01*
X153018033Y-101305718D02*
X153018033Y-101362860D01*
X153018033Y-101362860D02*
X152998985Y-101400956D01*
X152998985Y-101400956D02*
X152979938Y-101420003D01*
X152979938Y-101420003D02*
X152941843Y-101439051D01*
X152941843Y-101439051D02*
X152789462Y-101439051D01*
X153170414Y-101267622D02*
X153189462Y-101248575D01*
X153189462Y-101248575D02*
X153227557Y-101229527D01*
X153227557Y-101229527D02*
X153322795Y-101229527D01*
X153322795Y-101229527D02*
X153360890Y-101248575D01*
X153360890Y-101248575D02*
X153379938Y-101267622D01*
X153379938Y-101267622D02*
X153398985Y-101305718D01*
X153398985Y-101305718D02*
X153398985Y-101343813D01*
X153398985Y-101343813D02*
X153379938Y-101400956D01*
X153379938Y-101400956D02*
X153151366Y-101629527D01*
X153151366Y-101629527D02*
X153398985Y-101629527D01*
D34*
X149599407Y-102185766D02*
X149599407Y-102452432D01*
X150018455Y-102452432D02*
X149218455Y-102452432D01*
X149218455Y-102452432D02*
X149218455Y-102071480D01*
X149294645Y-101804814D02*
X149256550Y-101766718D01*
X149256550Y-101766718D02*
X149218455Y-101690528D01*
X149218455Y-101690528D02*
X149218455Y-101500052D01*
X149218455Y-101500052D02*
X149256550Y-101423861D01*
X149256550Y-101423861D02*
X149294645Y-101385766D01*
X149294645Y-101385766D02*
X149370836Y-101347671D01*
X149370836Y-101347671D02*
X149447026Y-101347671D01*
X149447026Y-101347671D02*
X149561312Y-101385766D01*
X149561312Y-101385766D02*
X150018455Y-101842909D01*
X150018455Y-101842909D02*
X150018455Y-101347671D01*
D33*
X145666957Y-101756527D02*
X145533624Y-101566051D01*
X145438386Y-101756527D02*
X145438386Y-101356527D01*
X145438386Y-101356527D02*
X145590767Y-101356527D01*
X145590767Y-101356527D02*
X145628862Y-101375575D01*
X145628862Y-101375575D02*
X145647909Y-101394622D01*
X145647909Y-101394622D02*
X145666957Y-101432718D01*
X145666957Y-101432718D02*
X145666957Y-101489860D01*
X145666957Y-101489860D02*
X145647909Y-101527956D01*
X145647909Y-101527956D02*
X145628862Y-101547003D01*
X145628862Y-101547003D02*
X145590767Y-101566051D01*
X145590767Y-101566051D02*
X145438386Y-101566051D01*
X146047909Y-101756527D02*
X145819338Y-101756527D01*
X145933624Y-101756527D02*
X145933624Y-101356527D01*
X145933624Y-101356527D02*
X145895528Y-101413670D01*
X145895528Y-101413670D02*
X145857433Y-101451765D01*
X145857433Y-101451765D02*
X145819338Y-101470813D01*
X146428861Y-101756527D02*
X146200290Y-101756527D01*
X146314576Y-101756527D02*
X146314576Y-101356527D01*
X146314576Y-101356527D02*
X146276480Y-101413670D01*
X146276480Y-101413670D02*
X146238385Y-101451765D01*
X146238385Y-101451765D02*
X146200290Y-101470813D01*
X134687632Y-92213866D02*
X134706680Y-92232914D01*
X134706680Y-92232914D02*
X134725727Y-92290056D01*
X134725727Y-92290056D02*
X134725727Y-92328152D01*
X134725727Y-92328152D02*
X134706680Y-92385295D01*
X134706680Y-92385295D02*
X134668584Y-92423390D01*
X134668584Y-92423390D02*
X134630489Y-92442437D01*
X134630489Y-92442437D02*
X134554299Y-92461485D01*
X134554299Y-92461485D02*
X134497156Y-92461485D01*
X134497156Y-92461485D02*
X134420965Y-92442437D01*
X134420965Y-92442437D02*
X134382870Y-92423390D01*
X134382870Y-92423390D02*
X134344775Y-92385295D01*
X134344775Y-92385295D02*
X134325727Y-92328152D01*
X134325727Y-92328152D02*
X134325727Y-92290056D01*
X134325727Y-92290056D02*
X134344775Y-92232914D01*
X134344775Y-92232914D02*
X134363822Y-92213866D01*
X134325727Y-92080533D02*
X134325727Y-91832914D01*
X134325727Y-91832914D02*
X134478108Y-91966247D01*
X134478108Y-91966247D02*
X134478108Y-91909104D01*
X134478108Y-91909104D02*
X134497156Y-91871009D01*
X134497156Y-91871009D02*
X134516203Y-91851961D01*
X134516203Y-91851961D02*
X134554299Y-91832914D01*
X134554299Y-91832914D02*
X134649537Y-91832914D01*
X134649537Y-91832914D02*
X134687632Y-91851961D01*
X134687632Y-91851961D02*
X134706680Y-91871009D01*
X134706680Y-91871009D02*
X134725727Y-91909104D01*
X134725727Y-91909104D02*
X134725727Y-92023390D01*
X134725727Y-92023390D02*
X134706680Y-92061485D01*
X134706680Y-92061485D02*
X134687632Y-92080533D01*
X146028727Y-112691366D02*
X145838251Y-112824699D01*
X146028727Y-112919937D02*
X145628727Y-112919937D01*
X145628727Y-112919937D02*
X145628727Y-112767556D01*
X145628727Y-112767556D02*
X145647775Y-112729461D01*
X145647775Y-112729461D02*
X145666822Y-112710414D01*
X145666822Y-112710414D02*
X145704918Y-112691366D01*
X145704918Y-112691366D02*
X145762060Y-112691366D01*
X145762060Y-112691366D02*
X145800156Y-112710414D01*
X145800156Y-112710414D02*
X145819203Y-112729461D01*
X145819203Y-112729461D02*
X145838251Y-112767556D01*
X145838251Y-112767556D02*
X145838251Y-112919937D01*
X145628727Y-112329461D02*
X145628727Y-112519937D01*
X145628727Y-112519937D02*
X145819203Y-112538985D01*
X145819203Y-112538985D02*
X145800156Y-112519937D01*
X145800156Y-112519937D02*
X145781108Y-112481842D01*
X145781108Y-112481842D02*
X145781108Y-112386604D01*
X145781108Y-112386604D02*
X145800156Y-112348509D01*
X145800156Y-112348509D02*
X145819203Y-112329461D01*
X145819203Y-112329461D02*
X145857299Y-112310414D01*
X145857299Y-112310414D02*
X145952537Y-112310414D01*
X145952537Y-112310414D02*
X145990632Y-112329461D01*
X145990632Y-112329461D02*
X146009680Y-112348509D01*
X146009680Y-112348509D02*
X146028727Y-112386604D01*
X146028727Y-112386604D02*
X146028727Y-112481842D01*
X146028727Y-112481842D02*
X146009680Y-112519937D01*
X146009680Y-112519937D02*
X145990632Y-112538985D01*
D35*
X142418223Y-111290714D02*
X142387747Y-111275476D01*
X142387747Y-111275476D02*
X142357271Y-111245000D01*
X142357271Y-111245000D02*
X142311557Y-111199285D01*
X142311557Y-111199285D02*
X142281080Y-111184047D01*
X142281080Y-111184047D02*
X142250604Y-111184047D01*
X142265842Y-111260238D02*
X142235366Y-111245000D01*
X142235366Y-111245000D02*
X142204890Y-111214523D01*
X142204890Y-111214523D02*
X142189652Y-111153571D01*
X142189652Y-111153571D02*
X142189652Y-111046904D01*
X142189652Y-111046904D02*
X142204890Y-110985952D01*
X142204890Y-110985952D02*
X142235366Y-110955476D01*
X142235366Y-110955476D02*
X142265842Y-110940238D01*
X142265842Y-110940238D02*
X142326795Y-110940238D01*
X142326795Y-110940238D02*
X142357271Y-110955476D01*
X142357271Y-110955476D02*
X142387747Y-110985952D01*
X142387747Y-110985952D02*
X142402985Y-111046904D01*
X142402985Y-111046904D02*
X142402985Y-111153571D01*
X142402985Y-111153571D02*
X142387747Y-111214523D01*
X142387747Y-111214523D02*
X142357271Y-111245000D01*
X142357271Y-111245000D02*
X142326795Y-111260238D01*
X142326795Y-111260238D02*
X142265842Y-111260238D01*
X142707747Y-111260238D02*
X142524890Y-111260238D01*
X142616318Y-111260238D02*
X142616318Y-110940238D01*
X142616318Y-110940238D02*
X142585842Y-110985952D01*
X142585842Y-110985952D02*
X142555366Y-111016428D01*
X142555366Y-111016428D02*
X142524890Y-111031666D01*
X143858223Y-90218914D02*
X143827747Y-90203676D01*
X143827747Y-90203676D02*
X143797271Y-90173200D01*
X143797271Y-90173200D02*
X143751557Y-90127485D01*
X143751557Y-90127485D02*
X143721080Y-90112247D01*
X143721080Y-90112247D02*
X143690604Y-90112247D01*
X143705842Y-90188438D02*
X143675366Y-90173200D01*
X143675366Y-90173200D02*
X143644890Y-90142723D01*
X143644890Y-90142723D02*
X143629652Y-90081771D01*
X143629652Y-90081771D02*
X143629652Y-89975104D01*
X143629652Y-89975104D02*
X143644890Y-89914152D01*
X143644890Y-89914152D02*
X143675366Y-89883676D01*
X143675366Y-89883676D02*
X143705842Y-89868438D01*
X143705842Y-89868438D02*
X143766795Y-89868438D01*
X143766795Y-89868438D02*
X143797271Y-89883676D01*
X143797271Y-89883676D02*
X143827747Y-89914152D01*
X143827747Y-89914152D02*
X143842985Y-89975104D01*
X143842985Y-89975104D02*
X143842985Y-90081771D01*
X143842985Y-90081771D02*
X143827747Y-90142723D01*
X143827747Y-90142723D02*
X143797271Y-90173200D01*
X143797271Y-90173200D02*
X143766795Y-90188438D01*
X143766795Y-90188438D02*
X143705842Y-90188438D01*
X143964890Y-89898914D02*
X143980128Y-89883676D01*
X143980128Y-89883676D02*
X144010604Y-89868438D01*
X144010604Y-89868438D02*
X144086795Y-89868438D01*
X144086795Y-89868438D02*
X144117271Y-89883676D01*
X144117271Y-89883676D02*
X144132509Y-89898914D01*
X144132509Y-89898914D02*
X144147747Y-89929390D01*
X144147747Y-89929390D02*
X144147747Y-89959866D01*
X144147747Y-89959866D02*
X144132509Y-90005580D01*
X144132509Y-90005580D02*
X143949652Y-90188438D01*
X143949652Y-90188438D02*
X144147747Y-90188438D01*
X151318914Y-107114576D02*
X151303676Y-107145052D01*
X151303676Y-107145052D02*
X151273200Y-107175528D01*
X151273200Y-107175528D02*
X151227485Y-107221242D01*
X151227485Y-107221242D02*
X151212247Y-107251719D01*
X151212247Y-107251719D02*
X151212247Y-107282195D01*
X151288438Y-107266957D02*
X151273200Y-107297433D01*
X151273200Y-107297433D02*
X151242723Y-107327909D01*
X151242723Y-107327909D02*
X151181771Y-107343147D01*
X151181771Y-107343147D02*
X151075104Y-107343147D01*
X151075104Y-107343147D02*
X151014152Y-107327909D01*
X151014152Y-107327909D02*
X150983676Y-107297433D01*
X150983676Y-107297433D02*
X150968438Y-107266957D01*
X150968438Y-107266957D02*
X150968438Y-107206004D01*
X150968438Y-107206004D02*
X150983676Y-107175528D01*
X150983676Y-107175528D02*
X151014152Y-107145052D01*
X151014152Y-107145052D02*
X151075104Y-107129814D01*
X151075104Y-107129814D02*
X151181771Y-107129814D01*
X151181771Y-107129814D02*
X151242723Y-107145052D01*
X151242723Y-107145052D02*
X151273200Y-107175528D01*
X151273200Y-107175528D02*
X151288438Y-107206004D01*
X151288438Y-107206004D02*
X151288438Y-107266957D01*
X150968438Y-107023147D02*
X150968438Y-106825052D01*
X150968438Y-106825052D02*
X151090342Y-106931719D01*
X151090342Y-106931719D02*
X151090342Y-106886004D01*
X151090342Y-106886004D02*
X151105580Y-106855528D01*
X151105580Y-106855528D02*
X151120819Y-106840290D01*
X151120819Y-106840290D02*
X151151295Y-106825052D01*
X151151295Y-106825052D02*
X151227485Y-106825052D01*
X151227485Y-106825052D02*
X151257961Y-106840290D01*
X151257961Y-106840290D02*
X151273200Y-106855528D01*
X151273200Y-106855528D02*
X151288438Y-106886004D01*
X151288438Y-106886004D02*
X151288438Y-106977433D01*
X151288438Y-106977433D02*
X151273200Y-107007909D01*
X151273200Y-107007909D02*
X151257961Y-107023147D01*
D33*
X140199432Y-88762366D02*
X140218480Y-88781414D01*
X140218480Y-88781414D02*
X140237527Y-88838556D01*
X140237527Y-88838556D02*
X140237527Y-88876652D01*
X140237527Y-88876652D02*
X140218480Y-88933795D01*
X140218480Y-88933795D02*
X140180384Y-88971890D01*
X140180384Y-88971890D02*
X140142289Y-88990937D01*
X140142289Y-88990937D02*
X140066099Y-89009985D01*
X140066099Y-89009985D02*
X140008956Y-89009985D01*
X140008956Y-89009985D02*
X139932765Y-88990937D01*
X139932765Y-88990937D02*
X139894670Y-88971890D01*
X139894670Y-88971890D02*
X139856575Y-88933795D01*
X139856575Y-88933795D02*
X139837527Y-88876652D01*
X139837527Y-88876652D02*
X139837527Y-88838556D01*
X139837527Y-88838556D02*
X139856575Y-88781414D01*
X139856575Y-88781414D02*
X139875622Y-88762366D01*
X139875622Y-88609985D02*
X139856575Y-88590937D01*
X139856575Y-88590937D02*
X139837527Y-88552842D01*
X139837527Y-88552842D02*
X139837527Y-88457604D01*
X139837527Y-88457604D02*
X139856575Y-88419509D01*
X139856575Y-88419509D02*
X139875622Y-88400461D01*
X139875622Y-88400461D02*
X139913718Y-88381414D01*
X139913718Y-88381414D02*
X139951813Y-88381414D01*
X139951813Y-88381414D02*
X140008956Y-88400461D01*
X140008956Y-88400461D02*
X140237527Y-88629033D01*
X140237527Y-88629033D02*
X140237527Y-88381414D01*
D35*
X143823114Y-106987576D02*
X143807876Y-107018052D01*
X143807876Y-107018052D02*
X143777400Y-107048528D01*
X143777400Y-107048528D02*
X143731685Y-107094242D01*
X143731685Y-107094242D02*
X143716447Y-107124719D01*
X143716447Y-107124719D02*
X143716447Y-107155195D01*
X143792638Y-107139957D02*
X143777400Y-107170433D01*
X143777400Y-107170433D02*
X143746923Y-107200909D01*
X143746923Y-107200909D02*
X143685971Y-107216147D01*
X143685971Y-107216147D02*
X143579304Y-107216147D01*
X143579304Y-107216147D02*
X143518352Y-107200909D01*
X143518352Y-107200909D02*
X143487876Y-107170433D01*
X143487876Y-107170433D02*
X143472638Y-107139957D01*
X143472638Y-107139957D02*
X143472638Y-107079004D01*
X143472638Y-107079004D02*
X143487876Y-107048528D01*
X143487876Y-107048528D02*
X143518352Y-107018052D01*
X143518352Y-107018052D02*
X143579304Y-107002814D01*
X143579304Y-107002814D02*
X143685971Y-107002814D01*
X143685971Y-107002814D02*
X143746923Y-107018052D01*
X143746923Y-107018052D02*
X143777400Y-107048528D01*
X143777400Y-107048528D02*
X143792638Y-107079004D01*
X143792638Y-107079004D02*
X143792638Y-107139957D01*
X143579304Y-106728528D02*
X143792638Y-106728528D01*
X143457400Y-106804719D02*
X143685971Y-106880909D01*
X143685971Y-106880909D02*
X143685971Y-106682814D01*
D33*
X147451127Y-91660166D02*
X147260651Y-91793499D01*
X147451127Y-91888737D02*
X147051127Y-91888737D01*
X147051127Y-91888737D02*
X147051127Y-91736356D01*
X147051127Y-91736356D02*
X147070175Y-91698261D01*
X147070175Y-91698261D02*
X147089222Y-91679214D01*
X147089222Y-91679214D02*
X147127318Y-91660166D01*
X147127318Y-91660166D02*
X147184460Y-91660166D01*
X147184460Y-91660166D02*
X147222556Y-91679214D01*
X147222556Y-91679214D02*
X147241603Y-91698261D01*
X147241603Y-91698261D02*
X147260651Y-91736356D01*
X147260651Y-91736356D02*
X147260651Y-91888737D01*
X147051127Y-91317309D02*
X147051127Y-91393499D01*
X147051127Y-91393499D02*
X147070175Y-91431595D01*
X147070175Y-91431595D02*
X147089222Y-91450642D01*
X147089222Y-91450642D02*
X147146365Y-91488737D01*
X147146365Y-91488737D02*
X147222556Y-91507785D01*
X147222556Y-91507785D02*
X147374937Y-91507785D01*
X147374937Y-91507785D02*
X147413032Y-91488737D01*
X147413032Y-91488737D02*
X147432080Y-91469690D01*
X147432080Y-91469690D02*
X147451127Y-91431595D01*
X147451127Y-91431595D02*
X147451127Y-91355404D01*
X147451127Y-91355404D02*
X147432080Y-91317309D01*
X147432080Y-91317309D02*
X147413032Y-91298261D01*
X147413032Y-91298261D02*
X147374937Y-91279214D01*
X147374937Y-91279214D02*
X147279699Y-91279214D01*
X147279699Y-91279214D02*
X147241603Y-91298261D01*
X147241603Y-91298261D02*
X147222556Y-91317309D01*
X147222556Y-91317309D02*
X147203508Y-91355404D01*
X147203508Y-91355404D02*
X147203508Y-91431595D01*
X147203508Y-91431595D02*
X147222556Y-91469690D01*
X147222556Y-91469690D02*
X147241603Y-91488737D01*
X147241603Y-91488737D02*
X147279699Y-91507785D01*
D36*
X158728219Y-97767733D02*
X159442504Y-97767733D01*
X159442504Y-97767733D02*
X159585361Y-97815352D01*
X159585361Y-97815352D02*
X159680600Y-97910590D01*
X159680600Y-97910590D02*
X159728219Y-98053447D01*
X159728219Y-98053447D02*
X159728219Y-98148685D01*
X159728219Y-97243923D02*
X159728219Y-97053447D01*
X159728219Y-97053447D02*
X159680600Y-96958209D01*
X159680600Y-96958209D02*
X159632980Y-96910590D01*
X159632980Y-96910590D02*
X159490123Y-96815352D01*
X159490123Y-96815352D02*
X159299647Y-96767733D01*
X159299647Y-96767733D02*
X158918695Y-96767733D01*
X158918695Y-96767733D02*
X158823457Y-96815352D01*
X158823457Y-96815352D02*
X158775838Y-96862971D01*
X158775838Y-96862971D02*
X158728219Y-96958209D01*
X158728219Y-96958209D02*
X158728219Y-97148685D01*
X158728219Y-97148685D02*
X158775838Y-97243923D01*
X158775838Y-97243923D02*
X158823457Y-97291542D01*
X158823457Y-97291542D02*
X158918695Y-97339161D01*
X158918695Y-97339161D02*
X159156790Y-97339161D01*
X159156790Y-97339161D02*
X159252028Y-97291542D01*
X159252028Y-97291542D02*
X159299647Y-97243923D01*
X159299647Y-97243923D02*
X159347266Y-97148685D01*
X159347266Y-97148685D02*
X159347266Y-96958209D01*
X159347266Y-96958209D02*
X159299647Y-96862971D01*
X159299647Y-96862971D02*
X159252028Y-96815352D01*
X159252028Y-96815352D02*
X159156790Y-96767733D01*
X119455895Y-91539219D02*
X119455895Y-90539219D01*
X119455895Y-91015409D02*
X120027323Y-91015409D01*
X120027323Y-91539219D02*
X120027323Y-90539219D01*
X121027323Y-91539219D02*
X120455895Y-91539219D01*
X120741609Y-91539219D02*
X120741609Y-90539219D01*
X120741609Y-90539219D02*
X120646371Y-90682076D01*
X120646371Y-90682076D02*
X120551133Y-90777314D01*
X120551133Y-90777314D02*
X120455895Y-90824933D01*
D33*
X149559327Y-91607166D02*
X149368851Y-91740499D01*
X149559327Y-91835737D02*
X149159327Y-91835737D01*
X149159327Y-91835737D02*
X149159327Y-91683356D01*
X149159327Y-91683356D02*
X149178375Y-91645261D01*
X149178375Y-91645261D02*
X149197422Y-91626214D01*
X149197422Y-91626214D02*
X149235518Y-91607166D01*
X149235518Y-91607166D02*
X149292660Y-91607166D01*
X149292660Y-91607166D02*
X149330756Y-91626214D01*
X149330756Y-91626214D02*
X149349803Y-91645261D01*
X149349803Y-91645261D02*
X149368851Y-91683356D01*
X149368851Y-91683356D02*
X149368851Y-91835737D01*
X149559327Y-91416690D02*
X149559327Y-91340499D01*
X149559327Y-91340499D02*
X149540280Y-91302404D01*
X149540280Y-91302404D02*
X149521232Y-91283356D01*
X149521232Y-91283356D02*
X149464089Y-91245261D01*
X149464089Y-91245261D02*
X149387899Y-91226214D01*
X149387899Y-91226214D02*
X149235518Y-91226214D01*
X149235518Y-91226214D02*
X149197422Y-91245261D01*
X149197422Y-91245261D02*
X149178375Y-91264309D01*
X149178375Y-91264309D02*
X149159327Y-91302404D01*
X149159327Y-91302404D02*
X149159327Y-91378595D01*
X149159327Y-91378595D02*
X149178375Y-91416690D01*
X149178375Y-91416690D02*
X149197422Y-91435737D01*
X149197422Y-91435737D02*
X149235518Y-91454785D01*
X149235518Y-91454785D02*
X149330756Y-91454785D01*
X149330756Y-91454785D02*
X149368851Y-91435737D01*
X149368851Y-91435737D02*
X149387899Y-91416690D01*
X149387899Y-91416690D02*
X149406946Y-91378595D01*
X149406946Y-91378595D02*
X149406946Y-91302404D01*
X149406946Y-91302404D02*
X149387899Y-91264309D01*
X149387899Y-91264309D02*
X149368851Y-91245261D01*
X149368851Y-91245261D02*
X149330756Y-91226214D01*
D34*
X148690033Y-88209807D02*
X148423367Y-88209807D01*
X148423367Y-88628855D02*
X148423367Y-87828855D01*
X148423367Y-87828855D02*
X148804319Y-87828855D01*
X149032890Y-87828855D02*
X149528128Y-87828855D01*
X149528128Y-87828855D02*
X149261462Y-88133617D01*
X149261462Y-88133617D02*
X149375747Y-88133617D01*
X149375747Y-88133617D02*
X149451938Y-88171712D01*
X149451938Y-88171712D02*
X149490033Y-88209807D01*
X149490033Y-88209807D02*
X149528128Y-88285998D01*
X149528128Y-88285998D02*
X149528128Y-88476474D01*
X149528128Y-88476474D02*
X149490033Y-88552664D01*
X149490033Y-88552664D02*
X149451938Y-88590760D01*
X149451938Y-88590760D02*
X149375747Y-88628855D01*
X149375747Y-88628855D02*
X149147176Y-88628855D01*
X149147176Y-88628855D02*
X149070985Y-88590760D01*
X149070985Y-88590760D02*
X149032890Y-88552664D01*
X147296233Y-109215607D02*
X147029567Y-109215607D01*
X147029567Y-109634655D02*
X147029567Y-108834655D01*
X147029567Y-108834655D02*
X147410519Y-108834655D01*
X148058138Y-109101321D02*
X148058138Y-109634655D01*
X147867662Y-108796560D02*
X147677185Y-109367988D01*
X147677185Y-109367988D02*
X148172424Y-109367988D01*
X142372807Y-102212066D02*
X142372807Y-102478732D01*
X142791855Y-102478732D02*
X141991855Y-102478732D01*
X141991855Y-102478732D02*
X141991855Y-102097780D01*
X142791855Y-101373971D02*
X142791855Y-101831114D01*
X142791855Y-101602542D02*
X141991855Y-101602542D01*
X141991855Y-101602542D02*
X142106140Y-101678733D01*
X142106140Y-101678733D02*
X142182331Y-101754923D01*
X142182331Y-101754923D02*
X142220426Y-101831114D01*
D33*
X136630727Y-88788866D02*
X136440251Y-88922199D01*
X136630727Y-89017437D02*
X136230727Y-89017437D01*
X136230727Y-89017437D02*
X136230727Y-88865056D01*
X136230727Y-88865056D02*
X136249775Y-88826961D01*
X136249775Y-88826961D02*
X136268822Y-88807914D01*
X136268822Y-88807914D02*
X136306918Y-88788866D01*
X136306918Y-88788866D02*
X136364060Y-88788866D01*
X136364060Y-88788866D02*
X136402156Y-88807914D01*
X136402156Y-88807914D02*
X136421203Y-88826961D01*
X136421203Y-88826961D02*
X136440251Y-88865056D01*
X136440251Y-88865056D02*
X136440251Y-89017437D01*
X136364060Y-88446009D02*
X136630727Y-88446009D01*
X136211680Y-88541247D02*
X136497394Y-88636485D01*
X136497394Y-88636485D02*
X136497394Y-88388866D01*
D36*
X173978219Y-97767733D02*
X174692504Y-97767733D01*
X174692504Y-97767733D02*
X174835361Y-97815352D01*
X174835361Y-97815352D02*
X174930600Y-97910590D01*
X174930600Y-97910590D02*
X174978219Y-98053447D01*
X174978219Y-98053447D02*
X174978219Y-98148685D01*
X174406790Y-97148685D02*
X174359171Y-97243923D01*
X174359171Y-97243923D02*
X174311552Y-97291542D01*
X174311552Y-97291542D02*
X174216314Y-97339161D01*
X174216314Y-97339161D02*
X174168695Y-97339161D01*
X174168695Y-97339161D02*
X174073457Y-97291542D01*
X174073457Y-97291542D02*
X174025838Y-97243923D01*
X174025838Y-97243923D02*
X173978219Y-97148685D01*
X173978219Y-97148685D02*
X173978219Y-96958209D01*
X173978219Y-96958209D02*
X174025838Y-96862971D01*
X174025838Y-96862971D02*
X174073457Y-96815352D01*
X174073457Y-96815352D02*
X174168695Y-96767733D01*
X174168695Y-96767733D02*
X174216314Y-96767733D01*
X174216314Y-96767733D02*
X174311552Y-96815352D01*
X174311552Y-96815352D02*
X174359171Y-96862971D01*
X174359171Y-96862971D02*
X174406790Y-96958209D01*
X174406790Y-96958209D02*
X174406790Y-97148685D01*
X174406790Y-97148685D02*
X174454409Y-97243923D01*
X174454409Y-97243923D02*
X174502028Y-97291542D01*
X174502028Y-97291542D02*
X174597266Y-97339161D01*
X174597266Y-97339161D02*
X174787742Y-97339161D01*
X174787742Y-97339161D02*
X174882980Y-97291542D01*
X174882980Y-97291542D02*
X174930600Y-97243923D01*
X174930600Y-97243923D02*
X174978219Y-97148685D01*
X174978219Y-97148685D02*
X174978219Y-96958209D01*
X174978219Y-96958209D02*
X174930600Y-96862971D01*
X174930600Y-96862971D02*
X174882980Y-96815352D01*
X174882980Y-96815352D02*
X174787742Y-96767733D01*
X174787742Y-96767733D02*
X174597266Y-96767733D01*
X174597266Y-96767733D02*
X174502028Y-96815352D01*
X174502028Y-96815352D02*
X174454409Y-96862971D01*
X174454409Y-96862971D02*
X174406790Y-96958209D01*
D33*
X153018033Y-99356232D02*
X152998985Y-99375280D01*
X152998985Y-99375280D02*
X152941843Y-99394327D01*
X152941843Y-99394327D02*
X152903747Y-99394327D01*
X152903747Y-99394327D02*
X152846604Y-99375280D01*
X152846604Y-99375280D02*
X152808509Y-99337184D01*
X152808509Y-99337184D02*
X152789462Y-99299089D01*
X152789462Y-99299089D02*
X152770414Y-99222899D01*
X152770414Y-99222899D02*
X152770414Y-99165756D01*
X152770414Y-99165756D02*
X152789462Y-99089565D01*
X152789462Y-99089565D02*
X152808509Y-99051470D01*
X152808509Y-99051470D02*
X152846604Y-99013375D01*
X152846604Y-99013375D02*
X152903747Y-98994327D01*
X152903747Y-98994327D02*
X152941843Y-98994327D01*
X152941843Y-98994327D02*
X152998985Y-99013375D01*
X152998985Y-99013375D02*
X153018033Y-99032422D01*
X153360890Y-99127660D02*
X153360890Y-99394327D01*
X153265652Y-98975280D02*
X153170414Y-99260994D01*
X153170414Y-99260994D02*
X153418033Y-99260994D01*
X147933727Y-112879642D02*
X147743251Y-113012975D01*
X147933727Y-113108213D02*
X147533727Y-113108213D01*
X147533727Y-113108213D02*
X147533727Y-112955832D01*
X147533727Y-112955832D02*
X147552775Y-112917737D01*
X147552775Y-112917737D02*
X147571822Y-112898690D01*
X147571822Y-112898690D02*
X147609918Y-112879642D01*
X147609918Y-112879642D02*
X147667060Y-112879642D01*
X147667060Y-112879642D02*
X147705156Y-112898690D01*
X147705156Y-112898690D02*
X147724203Y-112917737D01*
X147724203Y-112917737D02*
X147743251Y-112955832D01*
X147743251Y-112955832D02*
X147743251Y-113108213D01*
X147933727Y-112498690D02*
X147933727Y-112727261D01*
X147933727Y-112612975D02*
X147533727Y-112612975D01*
X147533727Y-112612975D02*
X147590870Y-112651071D01*
X147590870Y-112651071D02*
X147628965Y-112689166D01*
X147628965Y-112689166D02*
X147648013Y-112727261D01*
X147533727Y-112251071D02*
X147533727Y-112212976D01*
X147533727Y-112212976D02*
X147552775Y-112174880D01*
X147552775Y-112174880D02*
X147571822Y-112155833D01*
X147571822Y-112155833D02*
X147609918Y-112136785D01*
X147609918Y-112136785D02*
X147686108Y-112117738D01*
X147686108Y-112117738D02*
X147781346Y-112117738D01*
X147781346Y-112117738D02*
X147857537Y-112136785D01*
X147857537Y-112136785D02*
X147895632Y-112155833D01*
X147895632Y-112155833D02*
X147914680Y-112174880D01*
X147914680Y-112174880D02*
X147933727Y-112212976D01*
X147933727Y-112212976D02*
X147933727Y-112251071D01*
X147933727Y-112251071D02*
X147914680Y-112289166D01*
X147914680Y-112289166D02*
X147895632Y-112308214D01*
X147895632Y-112308214D02*
X147857537Y-112327261D01*
X147857537Y-112327261D02*
X147781346Y-112346309D01*
X147781346Y-112346309D02*
X147686108Y-112346309D01*
X147686108Y-112346309D02*
X147609918Y-112327261D01*
X147609918Y-112327261D02*
X147571822Y-112308214D01*
X147571822Y-112308214D02*
X147552775Y-112289166D01*
X147552775Y-112289166D02*
X147533727Y-112251071D01*
D37*
%TO.C,R7*%
X152280300Y-103232000D02*
X153880300Y-103232000D01*
X152280300Y-104032000D02*
X152280300Y-103232000D01*
X153880300Y-103232000D02*
X153880300Y-104032000D01*
X153880300Y-104032000D02*
X152280300Y-104032000D01*
%TO.C,R8*%
X145124100Y-103282800D02*
X146724100Y-103282800D01*
X145124100Y-104082800D02*
X145124100Y-103282800D01*
X146724100Y-103282800D02*
X146724100Y-104082800D01*
X146724100Y-104082800D02*
X145124100Y-104082800D01*
%TO.C,R3*%
X137852200Y-91372300D02*
X138652200Y-91372300D01*
X137852200Y-92972300D02*
X137852200Y-91372300D01*
X138652200Y-91372300D02*
X138652200Y-92972300D01*
X138652200Y-92972300D02*
X137852200Y-92972300D01*
%TO.C,C6*%
X149256800Y-111822500D02*
X150056800Y-111822500D01*
X149256800Y-113422500D02*
X149256800Y-111822500D01*
X150056800Y-111822500D02*
X150056800Y-113422500D01*
X150056800Y-113422500D02*
X149256800Y-113422500D01*
%TO.C,C1*%
X145121900Y-99142600D02*
X146721900Y-99142600D01*
X145121900Y-99942600D02*
X145121900Y-99142600D01*
X146721900Y-99142600D02*
X146721900Y-99942600D01*
X146721900Y-99942600D02*
X145121900Y-99942600D01*
%TO.C,J5*%
X133342200Y-95211600D02*
X133342200Y-105111600D01*
X133342200Y-105111600D02*
X139092200Y-105111600D01*
X138092200Y-97661600D02*
X139092200Y-98286600D01*
X139092200Y-95211600D02*
X133342200Y-95211600D01*
X139092200Y-97036600D02*
X138092200Y-97661600D01*
X139092200Y-105111600D02*
X139092200Y-95211600D01*
%TO.C,J4*%
X125367200Y-95211600D02*
X125367200Y-105111600D01*
X125367200Y-103286600D02*
X126367200Y-102661600D01*
X125367200Y-105111600D02*
X131117200Y-105111600D01*
X126367200Y-102661600D02*
X125367200Y-102036600D01*
X131117200Y-95211600D02*
X125367200Y-95211600D01*
X131117200Y-105111600D02*
X131117200Y-95211600D01*
%TO.C,C5*%
X151238000Y-90740500D02*
X152038000Y-90740500D01*
X151238000Y-92340500D02*
X151238000Y-90740500D01*
X152038000Y-90740500D02*
X152038000Y-92340500D01*
X152038000Y-92340500D02*
X151238000Y-92340500D01*
%TO.C,R2*%
X152284700Y-101047600D02*
X153884700Y-101047600D01*
X152284700Y-101847600D02*
X152284700Y-101047600D01*
X153884700Y-101047600D02*
X153884700Y-101847600D01*
X153884700Y-101847600D02*
X152284700Y-101847600D01*
%TO.C,F2*%
X148854600Y-100319100D02*
X150454600Y-100319100D01*
X148854600Y-103519100D02*
X148854600Y-100319100D01*
X150454600Y-100319100D02*
X150454600Y-103519100D01*
X150454600Y-103519100D02*
X148854600Y-103519100D01*
%TO.C,J6*%
X125367200Y-107011600D02*
X125367200Y-114411600D01*
X125367200Y-112586600D02*
X126367200Y-111961600D01*
X125367200Y-114411600D02*
X131117200Y-114411600D01*
X126367200Y-111961600D02*
X125367200Y-111336600D01*
X131117200Y-107011600D02*
X125367200Y-107011600D01*
X131117200Y-114411600D02*
X131117200Y-107011600D01*
%TO.C,R11*%
X145124100Y-101174600D02*
X146724100Y-101174600D01*
X145124100Y-101974600D02*
X145124100Y-101174600D01*
X146724100Y-101174600D02*
X146724100Y-101974600D01*
X146724100Y-101974600D02*
X145124100Y-101974600D01*
%TO.C,C3*%
X134143800Y-91347200D02*
X134943800Y-91347200D01*
X134143800Y-92947200D02*
X134143800Y-91347200D01*
X134943800Y-91347200D02*
X134943800Y-92947200D01*
X134943800Y-92947200D02*
X134143800Y-92947200D01*
%TO.C,R5*%
X145446800Y-111824700D02*
X146246800Y-111824700D01*
X145446800Y-113424700D02*
X145446800Y-111824700D01*
X146246800Y-111824700D02*
X146246800Y-113424700D01*
X146246800Y-113424700D02*
X145446800Y-113424700D01*
%TO.C,Q1*%
X141798700Y-109664800D02*
X143098700Y-109664800D01*
X141798700Y-112564800D02*
X141798700Y-109664800D01*
X142773700Y-112564800D02*
X141798700Y-112564800D01*
X143098700Y-109664800D02*
X143098700Y-112239800D01*
X143098700Y-112239800D02*
X142773700Y-112564800D01*
%TO.C,Q2*%
X143238700Y-88593000D02*
X144538700Y-88593000D01*
X143238700Y-91493000D02*
X143238700Y-88593000D01*
X144213700Y-91493000D02*
X143238700Y-91493000D01*
X144538700Y-88593000D02*
X144538700Y-91168000D01*
X144538700Y-91168000D02*
X144213700Y-91493000D01*
%TO.C,Q3*%
X149693000Y-106434100D02*
X152268000Y-106434100D01*
X149693000Y-107734100D02*
X149693000Y-106434100D01*
X152268000Y-106434100D02*
X152593000Y-106759100D01*
X152593000Y-106759100D02*
X152593000Y-107734100D01*
X152593000Y-107734100D02*
X149693000Y-107734100D01*
%TO.C,B+*%
X117310400Y-107096400D02*
X117310400Y-114496400D01*
X117310400Y-112671400D02*
X118310400Y-112046400D01*
X117310400Y-114496400D02*
X123060400Y-114496400D01*
X118310400Y-112046400D02*
X117310400Y-111421400D01*
X123060400Y-107096400D02*
X117310400Y-107096400D01*
X123060400Y-114496400D02*
X123060400Y-107096400D01*
%TO.C,C2*%
X139655600Y-87895700D02*
X140455600Y-87895700D01*
X139655600Y-89495700D02*
X139655600Y-87895700D01*
X140455600Y-87895700D02*
X140455600Y-89495700D01*
X140455600Y-89495700D02*
X139655600Y-89495700D01*
%TO.C,J3*%
X125267200Y-87911600D02*
X125267200Y-93661600D01*
X125267200Y-93661600D02*
X132667200Y-93661600D01*
X127092200Y-87911600D02*
X127717200Y-88911600D01*
X127717200Y-88911600D02*
X128342200Y-87911600D01*
X132667200Y-87911600D02*
X125267200Y-87911600D01*
X132667200Y-93661600D02*
X132667200Y-87911600D01*
%TO.C,Q4*%
X142197200Y-106307100D02*
X144772200Y-106307100D01*
X142197200Y-107607100D02*
X142197200Y-106307100D01*
X144772200Y-106307100D02*
X145097200Y-106632100D01*
X145097200Y-106632100D02*
X145097200Y-107607100D01*
X145097200Y-107607100D02*
X142197200Y-107607100D01*
%TO.C,R6*%
X146869200Y-90793500D02*
X147669200Y-90793500D01*
X146869200Y-92393500D02*
X146869200Y-90793500D01*
X147669200Y-90793500D02*
X147669200Y-92393500D01*
X147669200Y-92393500D02*
X146869200Y-92393500D01*
%TO.C,J9*%
X158003400Y-87274400D02*
X160543400Y-87274400D01*
X158003400Y-107594400D02*
X158003400Y-87274400D01*
X159908400Y-107594400D02*
X158003400Y-107594400D01*
X160543400Y-87274400D02*
X160543400Y-106959400D01*
X160543400Y-106959400D02*
X159908400Y-107594400D01*
%TO.C,R9*%
X148977400Y-90740500D02*
X149777400Y-90740500D01*
X148977400Y-92340500D02*
X148977400Y-90740500D01*
X149777400Y-90740500D02*
X149777400Y-92340500D01*
X149777400Y-92340500D02*
X148977400Y-92340500D01*
%TO.C,F3*%
X147356700Y-87465000D02*
X150556700Y-87465000D01*
X147356700Y-89065000D02*
X147356700Y-87465000D01*
X150556700Y-87465000D02*
X150556700Y-89065000D01*
X150556700Y-89065000D02*
X147356700Y-89065000D01*
%TO.C,F4*%
X145962900Y-108470800D02*
X149162900Y-108470800D01*
X145962900Y-110070800D02*
X145962900Y-108470800D01*
X149162900Y-108470800D02*
X149162900Y-110070800D01*
X149162900Y-110070800D02*
X145962900Y-110070800D01*
%TO.C,F1*%
X141628000Y-100345400D02*
X143228000Y-100345400D01*
X141628000Y-103545400D02*
X141628000Y-100345400D01*
X143228000Y-100345400D02*
X143228000Y-103545400D01*
X143228000Y-103545400D02*
X141628000Y-103545400D01*
%TO.C,R4*%
X136048800Y-87922200D02*
X136848800Y-87922200D01*
X136048800Y-89522200D02*
X136048800Y-87922200D01*
X136848800Y-87922200D02*
X136848800Y-89522200D01*
X136848800Y-89522200D02*
X136048800Y-89522200D01*
%TO.C,J10*%
X117342800Y-96273600D02*
X117342800Y-103673600D01*
X117342800Y-101848600D02*
X118342800Y-101223600D01*
X117342800Y-103673600D02*
X123092800Y-103673600D01*
X118342800Y-101223600D02*
X117342800Y-100598600D01*
X123092800Y-96273600D02*
X117342800Y-96273600D01*
X123092800Y-103673600D02*
X123092800Y-96273600D01*
%TO.C,J7*%
X133317200Y-107011600D02*
X133317200Y-114411600D01*
X133317200Y-114411600D02*
X139067200Y-114411600D01*
X138067200Y-109461600D02*
X139067200Y-110086600D01*
X139067200Y-107011600D02*
X133317200Y-107011600D01*
X139067200Y-108836600D02*
X138067200Y-109461600D01*
X139067200Y-114411600D02*
X139067200Y-107011600D01*
%TO.C,J8*%
X173253400Y-87274400D02*
X175793400Y-87274400D01*
X173253400Y-107594400D02*
X173253400Y-87274400D01*
X175158400Y-107594400D02*
X173253400Y-107594400D01*
X175793400Y-87274400D02*
X175793400Y-106959400D01*
X175793400Y-106959400D02*
X175158400Y-107594400D01*
%TO.C,C4*%
X152284700Y-98812400D02*
X153884700Y-98812400D01*
X152284700Y-99612400D02*
X152284700Y-98812400D01*
X153884700Y-98812400D02*
X153884700Y-99612400D01*
X153884700Y-99612400D02*
X152284700Y-99612400D01*
%TO.C,R10*%
X147351800Y-111822500D02*
X148151800Y-111822500D01*
X147351800Y-113422500D02*
X147351800Y-111822500D01*
X148151800Y-111822500D02*
X148151800Y-113422500D01*
X148151800Y-113422500D02*
X147351800Y-113422500D01*
%TD*%
M02*
