%TF.GenerationSoftware,KiCad,Pcbnew,9.0.3*%
%TF.CreationDate,2025-08-24T20:12:34+09:00*%
%TF.ProjectId,mirror_Shooter_v2,6d697272-6f72-45f5-9368-6f6f7465725f,rev?*%
%TF.SameCoordinates,Original*%
%TF.FileFunction,Legend,Top*%
%TF.FilePolarity,Positive*%
%FSLAX46Y46*%
G04 Gerber Fmt 4.6, Leading zero omitted, Abs format (unit mm)*
G04 Created by KiCad (PCBNEW 9.0.3) date 2025-08-24 20:12:34*
%MOMM*%
%LPD*%
G01*
G04 APERTURE LIST*
%ADD10C,0.250000*%
%ADD11C,0.150000*%
%ADD12C,0.120000*%
%ADD13C,0.060000*%
%ADD14C,0.050000*%
%ADD15C,0.100000*%
G04 APERTURE END LIST*
D10*
X164833333Y-112438404D02*
X164701786Y-113490785D01*
X164701786Y-113490785D02*
X164748214Y-113614595D01*
X164748214Y-113614595D02*
X164802381Y-113676500D01*
X164802381Y-113676500D02*
X164918452Y-113738404D01*
X164918452Y-113738404D02*
X165166071Y-113738404D01*
X165166071Y-113738404D02*
X165297619Y-113676500D01*
X165297619Y-113676500D02*
X165367262Y-113614595D01*
X165367262Y-113614595D02*
X165444643Y-113490785D01*
X165444643Y-113490785D02*
X165576190Y-112438404D01*
X166032738Y-113738404D02*
X166195238Y-112438404D01*
X166195238Y-112438404D02*
X166775595Y-113738404D01*
X166775595Y-113738404D02*
X166938095Y-112438404D01*
X168152977Y-113614595D02*
X168083334Y-113676500D01*
X168083334Y-113676500D02*
X167889881Y-113738404D01*
X167889881Y-113738404D02*
X167766072Y-113738404D01*
X167766072Y-113738404D02*
X167588096Y-113676500D01*
X167588096Y-113676500D02*
X167479762Y-113552690D01*
X167479762Y-113552690D02*
X167433334Y-113428880D01*
X167433334Y-113428880D02*
X167402381Y-113181261D01*
X167402381Y-113181261D02*
X167425596Y-112995547D01*
X167425596Y-112995547D02*
X167518453Y-112747928D01*
X167518453Y-112747928D02*
X167595834Y-112624119D01*
X167595834Y-112624119D02*
X167735119Y-112500309D01*
X167735119Y-112500309D02*
X167928572Y-112438404D01*
X167928572Y-112438404D02*
X168052381Y-112438404D01*
X168052381Y-112438404D02*
X168230358Y-112500309D01*
X168230358Y-112500309D02*
X168284524Y-112562214D01*
X168733334Y-112438404D02*
X169600000Y-112438404D01*
X169600000Y-112438404D02*
X168570834Y-113738404D01*
X168570834Y-113738404D02*
X169437500Y-113738404D01*
X153573213Y-113590785D02*
X154563689Y-113590785D01*
X153867261Y-112724119D02*
X154486308Y-112724119D01*
X154486308Y-112724119D02*
X154316070Y-113590785D01*
X154935118Y-113590785D02*
X155925594Y-113590785D01*
X155151785Y-112847928D02*
X155894642Y-112847928D01*
X156467261Y-112724119D02*
X157086309Y-112724119D01*
X156753571Y-112414595D02*
X156451785Y-113343166D01*
X156451785Y-113343166D02*
X156730356Y-113095547D01*
X156730356Y-113095547D02*
X156977975Y-113095547D01*
X156977975Y-113095547D02*
X157078571Y-113281261D01*
X157078571Y-113281261D02*
X157047618Y-113528880D01*
X157047618Y-113528880D02*
X156838690Y-113714595D01*
X156838690Y-113714595D02*
X156575595Y-113838404D01*
X157929761Y-112909833D02*
X158123214Y-113838404D01*
X158123214Y-112847928D02*
X158231547Y-112971738D01*
X157821428Y-113281261D02*
X158347619Y-113033642D01*
X158347619Y-113033642D02*
X158525595Y-113095547D01*
X158525595Y-113095547D02*
X158510119Y-113219357D01*
X158510119Y-113219357D02*
X158432738Y-113343166D01*
X158432738Y-113343166D02*
X158239285Y-113405071D01*
X159655357Y-112476500D02*
X159113690Y-113838404D01*
X159113690Y-113838404D02*
X159500595Y-113219357D01*
X159500595Y-113219357D02*
X159624405Y-113219357D01*
X159624405Y-113219357D02*
X159670833Y-113838404D01*
X159670833Y-113838404D02*
X159732738Y-113838404D01*
X159732738Y-113838404D02*
X159957143Y-113528880D01*
X161326786Y-112476500D02*
X161435119Y-112600309D01*
X161520238Y-112414595D02*
X161628571Y-112538404D01*
X160924405Y-113219357D02*
X161025000Y-113405071D01*
X161025000Y-113405071D02*
X161172024Y-113714595D01*
X160638095Y-112538404D02*
X161195238Y-112538404D01*
X161195238Y-112538404D02*
X161086905Y-112909833D01*
X161086905Y-112909833D02*
X160939881Y-113095547D01*
X160939881Y-113095547D02*
X160785119Y-113343166D01*
X160785119Y-113343166D02*
X160638095Y-113528880D01*
X160638095Y-113528880D02*
X160429167Y-113714595D01*
X153921429Y-111092142D02*
X154071429Y-109892142D01*
X154071429Y-109892142D02*
X154364286Y-110749285D01*
X154364286Y-110749285D02*
X154871429Y-109892142D01*
X154871429Y-109892142D02*
X154721429Y-111092142D01*
X155292858Y-111092142D02*
X155392858Y-110292142D01*
X155442858Y-109892142D02*
X155378572Y-109949285D01*
X155378572Y-109949285D02*
X155428572Y-110006428D01*
X155428572Y-110006428D02*
X155492858Y-109949285D01*
X155492858Y-109949285D02*
X155442858Y-109892142D01*
X155442858Y-109892142D02*
X155428572Y-110006428D01*
X155864287Y-111092142D02*
X155964287Y-110292142D01*
X155935716Y-110520714D02*
X156007144Y-110406428D01*
X156007144Y-110406428D02*
X156071430Y-110349285D01*
X156071430Y-110349285D02*
X156192858Y-110292142D01*
X156192858Y-110292142D02*
X156307144Y-110292142D01*
X156607144Y-111092142D02*
X156707144Y-110292142D01*
X156678573Y-110520714D02*
X156750001Y-110406428D01*
X156750001Y-110406428D02*
X156814287Y-110349285D01*
X156814287Y-110349285D02*
X156935715Y-110292142D01*
X156935715Y-110292142D02*
X157050001Y-110292142D01*
X157521430Y-111092142D02*
X157414287Y-111035000D01*
X157414287Y-111035000D02*
X157364287Y-110977857D01*
X157364287Y-110977857D02*
X157321430Y-110863571D01*
X157321430Y-110863571D02*
X157364287Y-110520714D01*
X157364287Y-110520714D02*
X157435715Y-110406428D01*
X157435715Y-110406428D02*
X157500001Y-110349285D01*
X157500001Y-110349285D02*
X157621430Y-110292142D01*
X157621430Y-110292142D02*
X157792858Y-110292142D01*
X157792858Y-110292142D02*
X157900001Y-110349285D01*
X157900001Y-110349285D02*
X157950001Y-110406428D01*
X157950001Y-110406428D02*
X157992858Y-110520714D01*
X157992858Y-110520714D02*
X157950001Y-110863571D01*
X157950001Y-110863571D02*
X157878572Y-110977857D01*
X157878572Y-110977857D02*
X157814287Y-111035000D01*
X157814287Y-111035000D02*
X157692858Y-111092142D01*
X157692858Y-111092142D02*
X157521430Y-111092142D01*
X158435715Y-111092142D02*
X158535715Y-110292142D01*
X158507144Y-110520714D02*
X158578572Y-110406428D01*
X158578572Y-110406428D02*
X158642858Y-110349285D01*
X158642858Y-110349285D02*
X158764286Y-110292142D01*
X158764286Y-110292142D02*
X158878572Y-110292142D01*
X158878572Y-111206428D02*
X159792858Y-111206428D01*
X160042858Y-111035000D02*
X160207144Y-111092142D01*
X160207144Y-111092142D02*
X160492858Y-111092142D01*
X160492858Y-111092142D02*
X160614287Y-111035000D01*
X160614287Y-111035000D02*
X160678572Y-110977857D01*
X160678572Y-110977857D02*
X160750001Y-110863571D01*
X160750001Y-110863571D02*
X160764287Y-110749285D01*
X160764287Y-110749285D02*
X160721429Y-110635000D01*
X160721429Y-110635000D02*
X160671429Y-110577857D01*
X160671429Y-110577857D02*
X160564287Y-110520714D01*
X160564287Y-110520714D02*
X160342858Y-110463571D01*
X160342858Y-110463571D02*
X160235715Y-110406428D01*
X160235715Y-110406428D02*
X160185715Y-110349285D01*
X160185715Y-110349285D02*
X160142858Y-110235000D01*
X160142858Y-110235000D02*
X160157144Y-110120714D01*
X160157144Y-110120714D02*
X160228572Y-110006428D01*
X160228572Y-110006428D02*
X160292858Y-109949285D01*
X160292858Y-109949285D02*
X160414287Y-109892142D01*
X160414287Y-109892142D02*
X160700001Y-109892142D01*
X160700001Y-109892142D02*
X160864287Y-109949285D01*
X161235715Y-111092142D02*
X161385715Y-109892142D01*
X161750001Y-111092142D02*
X161828572Y-110463571D01*
X161828572Y-110463571D02*
X161785715Y-110349285D01*
X161785715Y-110349285D02*
X161678572Y-110292142D01*
X161678572Y-110292142D02*
X161507144Y-110292142D01*
X161507144Y-110292142D02*
X161385715Y-110349285D01*
X161385715Y-110349285D02*
X161321429Y-110406428D01*
X162492858Y-111092142D02*
X162385715Y-111035000D01*
X162385715Y-111035000D02*
X162335715Y-110977857D01*
X162335715Y-110977857D02*
X162292858Y-110863571D01*
X162292858Y-110863571D02*
X162335715Y-110520714D01*
X162335715Y-110520714D02*
X162407143Y-110406428D01*
X162407143Y-110406428D02*
X162471429Y-110349285D01*
X162471429Y-110349285D02*
X162592858Y-110292142D01*
X162592858Y-110292142D02*
X162764286Y-110292142D01*
X162764286Y-110292142D02*
X162871429Y-110349285D01*
X162871429Y-110349285D02*
X162921429Y-110406428D01*
X162921429Y-110406428D02*
X162964286Y-110520714D01*
X162964286Y-110520714D02*
X162921429Y-110863571D01*
X162921429Y-110863571D02*
X162850000Y-110977857D01*
X162850000Y-110977857D02*
X162785715Y-111035000D01*
X162785715Y-111035000D02*
X162664286Y-111092142D01*
X162664286Y-111092142D02*
X162492858Y-111092142D01*
X163578572Y-111092142D02*
X163471429Y-111035000D01*
X163471429Y-111035000D02*
X163421429Y-110977857D01*
X163421429Y-110977857D02*
X163378572Y-110863571D01*
X163378572Y-110863571D02*
X163421429Y-110520714D01*
X163421429Y-110520714D02*
X163492857Y-110406428D01*
X163492857Y-110406428D02*
X163557143Y-110349285D01*
X163557143Y-110349285D02*
X163678572Y-110292142D01*
X163678572Y-110292142D02*
X163850000Y-110292142D01*
X163850000Y-110292142D02*
X163957143Y-110349285D01*
X163957143Y-110349285D02*
X164007143Y-110406428D01*
X164007143Y-110406428D02*
X164050000Y-110520714D01*
X164050000Y-110520714D02*
X164007143Y-110863571D01*
X164007143Y-110863571D02*
X163935714Y-110977857D01*
X163935714Y-110977857D02*
X163871429Y-111035000D01*
X163871429Y-111035000D02*
X163750000Y-111092142D01*
X163750000Y-111092142D02*
X163578572Y-111092142D01*
X164421428Y-110292142D02*
X164878571Y-110292142D01*
X164642857Y-109892142D02*
X164514286Y-110920714D01*
X164514286Y-110920714D02*
X164557143Y-111035000D01*
X164557143Y-111035000D02*
X164664286Y-111092142D01*
X164664286Y-111092142D02*
X164778571Y-111092142D01*
X165642857Y-111035000D02*
X165521428Y-111092142D01*
X165521428Y-111092142D02*
X165292857Y-111092142D01*
X165292857Y-111092142D02*
X165185714Y-111035000D01*
X165185714Y-111035000D02*
X165142857Y-110920714D01*
X165142857Y-110920714D02*
X165200000Y-110463571D01*
X165200000Y-110463571D02*
X165271428Y-110349285D01*
X165271428Y-110349285D02*
X165392857Y-110292142D01*
X165392857Y-110292142D02*
X165621428Y-110292142D01*
X165621428Y-110292142D02*
X165728571Y-110349285D01*
X165728571Y-110349285D02*
X165771428Y-110463571D01*
X165771428Y-110463571D02*
X165757142Y-110577857D01*
X165757142Y-110577857D02*
X165171428Y-110692142D01*
X166207142Y-111092142D02*
X166307142Y-110292142D01*
X166278571Y-110520714D02*
X166349999Y-110406428D01*
X166349999Y-110406428D02*
X166414285Y-110349285D01*
X166414285Y-110349285D02*
X166535713Y-110292142D01*
X166535713Y-110292142D02*
X166649999Y-110292142D01*
X166649999Y-111206428D02*
X167564285Y-111206428D01*
X167842856Y-109892142D02*
X168092856Y-111092142D01*
X168092856Y-111092142D02*
X168642856Y-109892142D01*
X168971427Y-110006428D02*
X169035713Y-109949285D01*
X169035713Y-109949285D02*
X169157142Y-109892142D01*
X169157142Y-109892142D02*
X169442856Y-109892142D01*
X169442856Y-109892142D02*
X169549999Y-109949285D01*
X169549999Y-109949285D02*
X169599999Y-110006428D01*
X169599999Y-110006428D02*
X169642856Y-110120714D01*
X169642856Y-110120714D02*
X169628570Y-110235000D01*
X169628570Y-110235000D02*
X169549999Y-110406428D01*
X169549999Y-110406428D02*
X168778570Y-111092142D01*
X168778570Y-111092142D02*
X169521427Y-111092142D01*
D11*
X117613181Y-104731409D02*
X117756038Y-104779028D01*
X117756038Y-104779028D02*
X117803657Y-104826647D01*
X117803657Y-104826647D02*
X117851276Y-104921885D01*
X117851276Y-104921885D02*
X117851276Y-105064742D01*
X117851276Y-105064742D02*
X117803657Y-105159980D01*
X117803657Y-105159980D02*
X117756038Y-105207600D01*
X117756038Y-105207600D02*
X117660800Y-105255219D01*
X117660800Y-105255219D02*
X117279848Y-105255219D01*
X117279848Y-105255219D02*
X117279848Y-104255219D01*
X117279848Y-104255219D02*
X117613181Y-104255219D01*
X117613181Y-104255219D02*
X117708419Y-104302838D01*
X117708419Y-104302838D02*
X117756038Y-104350457D01*
X117756038Y-104350457D02*
X117803657Y-104445695D01*
X117803657Y-104445695D02*
X117803657Y-104540933D01*
X117803657Y-104540933D02*
X117756038Y-104636171D01*
X117756038Y-104636171D02*
X117708419Y-104683790D01*
X117708419Y-104683790D02*
X117613181Y-104731409D01*
X117613181Y-104731409D02*
X117279848Y-104731409D01*
X118279848Y-104874266D02*
X119041753Y-104874266D01*
X139833333Y-91954819D02*
X139500000Y-91478628D01*
X139261905Y-91954819D02*
X139261905Y-90954819D01*
X139261905Y-90954819D02*
X139642857Y-90954819D01*
X139642857Y-90954819D02*
X139738095Y-91002438D01*
X139738095Y-91002438D02*
X139785714Y-91050057D01*
X139785714Y-91050057D02*
X139833333Y-91145295D01*
X139833333Y-91145295D02*
X139833333Y-91288152D01*
X139833333Y-91288152D02*
X139785714Y-91383390D01*
X139785714Y-91383390D02*
X139738095Y-91431009D01*
X139738095Y-91431009D02*
X139642857Y-91478628D01*
X139642857Y-91478628D02*
X139261905Y-91478628D01*
X140166667Y-90954819D02*
X140785714Y-90954819D01*
X140785714Y-90954819D02*
X140452381Y-91335771D01*
X140452381Y-91335771D02*
X140595238Y-91335771D01*
X140595238Y-91335771D02*
X140690476Y-91383390D01*
X140690476Y-91383390D02*
X140738095Y-91431009D01*
X140738095Y-91431009D02*
X140785714Y-91526247D01*
X140785714Y-91526247D02*
X140785714Y-91764342D01*
X140785714Y-91764342D02*
X140738095Y-91859580D01*
X140738095Y-91859580D02*
X140690476Y-91907200D01*
X140690476Y-91907200D02*
X140595238Y-91954819D01*
X140595238Y-91954819D02*
X140309524Y-91954819D01*
X140309524Y-91954819D02*
X140214286Y-91907200D01*
X140214286Y-91907200D02*
X140166667Y-91859580D01*
X140306466Y-95162019D02*
X140306466Y-95876304D01*
X140306466Y-95876304D02*
X140258847Y-96019161D01*
X140258847Y-96019161D02*
X140163609Y-96114400D01*
X140163609Y-96114400D02*
X140020752Y-96162019D01*
X140020752Y-96162019D02*
X139925514Y-96162019D01*
X141258847Y-95162019D02*
X140782657Y-95162019D01*
X140782657Y-95162019D02*
X140735038Y-95638209D01*
X140735038Y-95638209D02*
X140782657Y-95590590D01*
X140782657Y-95590590D02*
X140877895Y-95542971D01*
X140877895Y-95542971D02*
X141115990Y-95542971D01*
X141115990Y-95542971D02*
X141211228Y-95590590D01*
X141211228Y-95590590D02*
X141258847Y-95638209D01*
X141258847Y-95638209D02*
X141306466Y-95733447D01*
X141306466Y-95733447D02*
X141306466Y-95971542D01*
X141306466Y-95971542D02*
X141258847Y-96066780D01*
X141258847Y-96066780D02*
X141211228Y-96114400D01*
X141211228Y-96114400D02*
X141115990Y-96162019D01*
X141115990Y-96162019D02*
X140877895Y-96162019D01*
X140877895Y-96162019D02*
X140782657Y-96114400D01*
X140782657Y-96114400D02*
X140735038Y-96066780D01*
X123466266Y-94146019D02*
X123466266Y-94860304D01*
X123466266Y-94860304D02*
X123418647Y-95003161D01*
X123418647Y-95003161D02*
X123323409Y-95098400D01*
X123323409Y-95098400D02*
X123180552Y-95146019D01*
X123180552Y-95146019D02*
X123085314Y-95146019D01*
X124371028Y-94479352D02*
X124371028Y-95146019D01*
X124132933Y-94098400D02*
X123894838Y-94812685D01*
X123894838Y-94812685D02*
X124513885Y-94812685D01*
X123847266Y-114974019D02*
X123847266Y-115688304D01*
X123847266Y-115688304D02*
X123799647Y-115831161D01*
X123799647Y-115831161D02*
X123704409Y-115926400D01*
X123704409Y-115926400D02*
X123561552Y-115974019D01*
X123561552Y-115974019D02*
X123466314Y-115974019D01*
X124752028Y-114974019D02*
X124561552Y-114974019D01*
X124561552Y-114974019D02*
X124466314Y-115021638D01*
X124466314Y-115021638D02*
X124418695Y-115069257D01*
X124418695Y-115069257D02*
X124323457Y-115212114D01*
X124323457Y-115212114D02*
X124275838Y-115402590D01*
X124275838Y-115402590D02*
X124275838Y-115783542D01*
X124275838Y-115783542D02*
X124323457Y-115878780D01*
X124323457Y-115878780D02*
X124371076Y-115926400D01*
X124371076Y-115926400D02*
X124466314Y-115974019D01*
X124466314Y-115974019D02*
X124656790Y-115974019D01*
X124656790Y-115974019D02*
X124752028Y-115926400D01*
X124752028Y-115926400D02*
X124799647Y-115878780D01*
X124799647Y-115878780D02*
X124847266Y-115783542D01*
X124847266Y-115783542D02*
X124847266Y-115545447D01*
X124847266Y-115545447D02*
X124799647Y-115450209D01*
X124799647Y-115450209D02*
X124752028Y-115402590D01*
X124752028Y-115402590D02*
X124656790Y-115354971D01*
X124656790Y-115354971D02*
X124466314Y-115354971D01*
X124466314Y-115354971D02*
X124371076Y-115402590D01*
X124371076Y-115402590D02*
X124323457Y-115450209D01*
X124323457Y-115450209D02*
X124275838Y-115545447D01*
X136183333Y-91759580D02*
X136135714Y-91807200D01*
X136135714Y-91807200D02*
X135992857Y-91854819D01*
X135992857Y-91854819D02*
X135897619Y-91854819D01*
X135897619Y-91854819D02*
X135754762Y-91807200D01*
X135754762Y-91807200D02*
X135659524Y-91711961D01*
X135659524Y-91711961D02*
X135611905Y-91616723D01*
X135611905Y-91616723D02*
X135564286Y-91426247D01*
X135564286Y-91426247D02*
X135564286Y-91283390D01*
X135564286Y-91283390D02*
X135611905Y-91092914D01*
X135611905Y-91092914D02*
X135659524Y-90997676D01*
X135659524Y-90997676D02*
X135754762Y-90902438D01*
X135754762Y-90902438D02*
X135897619Y-90854819D01*
X135897619Y-90854819D02*
X135992857Y-90854819D01*
X135992857Y-90854819D02*
X136135714Y-90902438D01*
X136135714Y-90902438D02*
X136183333Y-90950057D01*
X136516667Y-90854819D02*
X137135714Y-90854819D01*
X137135714Y-90854819D02*
X136802381Y-91235771D01*
X136802381Y-91235771D02*
X136945238Y-91235771D01*
X136945238Y-91235771D02*
X137040476Y-91283390D01*
X137040476Y-91283390D02*
X137088095Y-91331009D01*
X137088095Y-91331009D02*
X137135714Y-91426247D01*
X137135714Y-91426247D02*
X137135714Y-91664342D01*
X137135714Y-91664342D02*
X137088095Y-91759580D01*
X137088095Y-91759580D02*
X137040476Y-91807200D01*
X137040476Y-91807200D02*
X136945238Y-91854819D01*
X136945238Y-91854819D02*
X136659524Y-91854819D01*
X136659524Y-91854819D02*
X136564286Y-91807200D01*
X136564286Y-91807200D02*
X136516667Y-91759580D01*
X141052561Y-114494457D02*
X140957323Y-114446838D01*
X140957323Y-114446838D02*
X140862085Y-114351600D01*
X140862085Y-114351600D02*
X140719228Y-114208742D01*
X140719228Y-114208742D02*
X140623990Y-114161123D01*
X140623990Y-114161123D02*
X140528752Y-114161123D01*
X140576371Y-114399219D02*
X140481133Y-114351600D01*
X140481133Y-114351600D02*
X140385895Y-114256361D01*
X140385895Y-114256361D02*
X140338276Y-114065885D01*
X140338276Y-114065885D02*
X140338276Y-113732552D01*
X140338276Y-113732552D02*
X140385895Y-113542076D01*
X140385895Y-113542076D02*
X140481133Y-113446838D01*
X140481133Y-113446838D02*
X140576371Y-113399219D01*
X140576371Y-113399219D02*
X140766847Y-113399219D01*
X140766847Y-113399219D02*
X140862085Y-113446838D01*
X140862085Y-113446838D02*
X140957323Y-113542076D01*
X140957323Y-113542076D02*
X141004942Y-113732552D01*
X141004942Y-113732552D02*
X141004942Y-114065885D01*
X141004942Y-114065885D02*
X140957323Y-114256361D01*
X140957323Y-114256361D02*
X140862085Y-114351600D01*
X140862085Y-114351600D02*
X140766847Y-114399219D01*
X140766847Y-114399219D02*
X140576371Y-114399219D01*
X141957323Y-114399219D02*
X141385895Y-114399219D01*
X141671609Y-114399219D02*
X141671609Y-113399219D01*
X141671609Y-113399219D02*
X141576371Y-113542076D01*
X141576371Y-113542076D02*
X141481133Y-113637314D01*
X141481133Y-113637314D02*
X141385895Y-113684933D01*
X144735561Y-93285457D02*
X144640323Y-93237838D01*
X144640323Y-93237838D02*
X144545085Y-93142600D01*
X144545085Y-93142600D02*
X144402228Y-92999742D01*
X144402228Y-92999742D02*
X144306990Y-92952123D01*
X144306990Y-92952123D02*
X144211752Y-92952123D01*
X144259371Y-93190219D02*
X144164133Y-93142600D01*
X144164133Y-93142600D02*
X144068895Y-93047361D01*
X144068895Y-93047361D02*
X144021276Y-92856885D01*
X144021276Y-92856885D02*
X144021276Y-92523552D01*
X144021276Y-92523552D02*
X144068895Y-92333076D01*
X144068895Y-92333076D02*
X144164133Y-92237838D01*
X144164133Y-92237838D02*
X144259371Y-92190219D01*
X144259371Y-92190219D02*
X144449847Y-92190219D01*
X144449847Y-92190219D02*
X144545085Y-92237838D01*
X144545085Y-92237838D02*
X144640323Y-92333076D01*
X144640323Y-92333076D02*
X144687942Y-92523552D01*
X144687942Y-92523552D02*
X144687942Y-92856885D01*
X144687942Y-92856885D02*
X144640323Y-93047361D01*
X144640323Y-93047361D02*
X144545085Y-93142600D01*
X144545085Y-93142600D02*
X144449847Y-93190219D01*
X144449847Y-93190219D02*
X144259371Y-93190219D01*
X145068895Y-92285457D02*
X145116514Y-92237838D01*
X145116514Y-92237838D02*
X145211752Y-92190219D01*
X145211752Y-92190219D02*
X145449847Y-92190219D01*
X145449847Y-92190219D02*
X145545085Y-92237838D01*
X145545085Y-92237838D02*
X145592704Y-92285457D01*
X145592704Y-92285457D02*
X145640323Y-92380695D01*
X145640323Y-92380695D02*
X145640323Y-92475933D01*
X145640323Y-92475933D02*
X145592704Y-92618790D01*
X145592704Y-92618790D02*
X145021276Y-93190219D01*
X145021276Y-93190219D02*
X145640323Y-93190219D01*
X152654761Y-109300057D02*
X152559523Y-109252438D01*
X152559523Y-109252438D02*
X152464285Y-109157200D01*
X152464285Y-109157200D02*
X152321428Y-109014342D01*
X152321428Y-109014342D02*
X152226190Y-108966723D01*
X152226190Y-108966723D02*
X152130952Y-108966723D01*
X152178571Y-109204819D02*
X152083333Y-109157200D01*
X152083333Y-109157200D02*
X151988095Y-109061961D01*
X151988095Y-109061961D02*
X151940476Y-108871485D01*
X151940476Y-108871485D02*
X151940476Y-108538152D01*
X151940476Y-108538152D02*
X151988095Y-108347676D01*
X151988095Y-108347676D02*
X152083333Y-108252438D01*
X152083333Y-108252438D02*
X152178571Y-108204819D01*
X152178571Y-108204819D02*
X152369047Y-108204819D01*
X152369047Y-108204819D02*
X152464285Y-108252438D01*
X152464285Y-108252438D02*
X152559523Y-108347676D01*
X152559523Y-108347676D02*
X152607142Y-108538152D01*
X152607142Y-108538152D02*
X152607142Y-108871485D01*
X152607142Y-108871485D02*
X152559523Y-109061961D01*
X152559523Y-109061961D02*
X152464285Y-109157200D01*
X152464285Y-109157200D02*
X152369047Y-109204819D01*
X152369047Y-109204819D02*
X152178571Y-109204819D01*
X152940476Y-108204819D02*
X153559523Y-108204819D01*
X153559523Y-108204819D02*
X153226190Y-108585771D01*
X153226190Y-108585771D02*
X153369047Y-108585771D01*
X153369047Y-108585771D02*
X153464285Y-108633390D01*
X153464285Y-108633390D02*
X153511904Y-108681009D01*
X153511904Y-108681009D02*
X153559523Y-108776247D01*
X153559523Y-108776247D02*
X153559523Y-109014342D01*
X153559523Y-109014342D02*
X153511904Y-109109580D01*
X153511904Y-109109580D02*
X153464285Y-109157200D01*
X153464285Y-109157200D02*
X153369047Y-109204819D01*
X153369047Y-109204819D02*
X153083333Y-109204819D01*
X153083333Y-109204819D02*
X152988095Y-109157200D01*
X152988095Y-109157200D02*
X152940476Y-109109580D01*
X121829581Y-105899809D02*
X121972438Y-105947428D01*
X121972438Y-105947428D02*
X122020057Y-105995047D01*
X122020057Y-105995047D02*
X122067676Y-106090285D01*
X122067676Y-106090285D02*
X122067676Y-106233142D01*
X122067676Y-106233142D02*
X122020057Y-106328380D01*
X122020057Y-106328380D02*
X121972438Y-106376000D01*
X121972438Y-106376000D02*
X121877200Y-106423619D01*
X121877200Y-106423619D02*
X121496248Y-106423619D01*
X121496248Y-106423619D02*
X121496248Y-105423619D01*
X121496248Y-105423619D02*
X121829581Y-105423619D01*
X121829581Y-105423619D02*
X121924819Y-105471238D01*
X121924819Y-105471238D02*
X121972438Y-105518857D01*
X121972438Y-105518857D02*
X122020057Y-105614095D01*
X122020057Y-105614095D02*
X122020057Y-105709333D01*
X122020057Y-105709333D02*
X121972438Y-105804571D01*
X121972438Y-105804571D02*
X121924819Y-105852190D01*
X121924819Y-105852190D02*
X121829581Y-105899809D01*
X121829581Y-105899809D02*
X121496248Y-105899809D01*
X122496248Y-106042666D02*
X123258153Y-106042666D01*
X122877200Y-106423619D02*
X122877200Y-105661714D01*
X141683333Y-89109580D02*
X141635714Y-89157200D01*
X141635714Y-89157200D02*
X141492857Y-89204819D01*
X141492857Y-89204819D02*
X141397619Y-89204819D01*
X141397619Y-89204819D02*
X141254762Y-89157200D01*
X141254762Y-89157200D02*
X141159524Y-89061961D01*
X141159524Y-89061961D02*
X141111905Y-88966723D01*
X141111905Y-88966723D02*
X141064286Y-88776247D01*
X141064286Y-88776247D02*
X141064286Y-88633390D01*
X141064286Y-88633390D02*
X141111905Y-88442914D01*
X141111905Y-88442914D02*
X141159524Y-88347676D01*
X141159524Y-88347676D02*
X141254762Y-88252438D01*
X141254762Y-88252438D02*
X141397619Y-88204819D01*
X141397619Y-88204819D02*
X141492857Y-88204819D01*
X141492857Y-88204819D02*
X141635714Y-88252438D01*
X141635714Y-88252438D02*
X141683333Y-88300057D01*
X142064286Y-88300057D02*
X142111905Y-88252438D01*
X142111905Y-88252438D02*
X142207143Y-88204819D01*
X142207143Y-88204819D02*
X142445238Y-88204819D01*
X142445238Y-88204819D02*
X142540476Y-88252438D01*
X142540476Y-88252438D02*
X142588095Y-88300057D01*
X142588095Y-88300057D02*
X142635714Y-88395295D01*
X142635714Y-88395295D02*
X142635714Y-88490533D01*
X142635714Y-88490533D02*
X142588095Y-88633390D01*
X142588095Y-88633390D02*
X142016667Y-89204819D01*
X142016667Y-89204819D02*
X142635714Y-89204819D01*
X133931066Y-87973819D02*
X133931066Y-88688104D01*
X133931066Y-88688104D02*
X133883447Y-88830961D01*
X133883447Y-88830961D02*
X133788209Y-88926200D01*
X133788209Y-88926200D02*
X133645352Y-88973819D01*
X133645352Y-88973819D02*
X133550114Y-88973819D01*
X134312019Y-87973819D02*
X134931066Y-87973819D01*
X134931066Y-87973819D02*
X134597733Y-88354771D01*
X134597733Y-88354771D02*
X134740590Y-88354771D01*
X134740590Y-88354771D02*
X134835828Y-88402390D01*
X134835828Y-88402390D02*
X134883447Y-88450009D01*
X134883447Y-88450009D02*
X134931066Y-88545247D01*
X134931066Y-88545247D02*
X134931066Y-88783342D01*
X134931066Y-88783342D02*
X134883447Y-88878580D01*
X134883447Y-88878580D02*
X134835828Y-88926200D01*
X134835828Y-88926200D02*
X134740590Y-88973819D01*
X134740590Y-88973819D02*
X134454876Y-88973819D01*
X134454876Y-88973819D02*
X134359638Y-88926200D01*
X134359638Y-88926200D02*
X134312019Y-88878580D01*
X146564361Y-106772857D02*
X146469123Y-106725238D01*
X146469123Y-106725238D02*
X146373885Y-106630000D01*
X146373885Y-106630000D02*
X146231028Y-106487142D01*
X146231028Y-106487142D02*
X146135790Y-106439523D01*
X146135790Y-106439523D02*
X146040552Y-106439523D01*
X146088171Y-106677619D02*
X145992933Y-106630000D01*
X145992933Y-106630000D02*
X145897695Y-106534761D01*
X145897695Y-106534761D02*
X145850076Y-106344285D01*
X145850076Y-106344285D02*
X145850076Y-106010952D01*
X145850076Y-106010952D02*
X145897695Y-105820476D01*
X145897695Y-105820476D02*
X145992933Y-105725238D01*
X145992933Y-105725238D02*
X146088171Y-105677619D01*
X146088171Y-105677619D02*
X146278647Y-105677619D01*
X146278647Y-105677619D02*
X146373885Y-105725238D01*
X146373885Y-105725238D02*
X146469123Y-105820476D01*
X146469123Y-105820476D02*
X146516742Y-106010952D01*
X146516742Y-106010952D02*
X146516742Y-106344285D01*
X146516742Y-106344285D02*
X146469123Y-106534761D01*
X146469123Y-106534761D02*
X146373885Y-106630000D01*
X146373885Y-106630000D02*
X146278647Y-106677619D01*
X146278647Y-106677619D02*
X146088171Y-106677619D01*
X147373885Y-106010952D02*
X147373885Y-106677619D01*
X147135790Y-105630000D02*
X146897695Y-106344285D01*
X146897695Y-106344285D02*
X147516742Y-106344285D01*
X137933333Y-89054819D02*
X137600000Y-88578628D01*
X137361905Y-89054819D02*
X137361905Y-88054819D01*
X137361905Y-88054819D02*
X137742857Y-88054819D01*
X137742857Y-88054819D02*
X137838095Y-88102438D01*
X137838095Y-88102438D02*
X137885714Y-88150057D01*
X137885714Y-88150057D02*
X137933333Y-88245295D01*
X137933333Y-88245295D02*
X137933333Y-88388152D01*
X137933333Y-88388152D02*
X137885714Y-88483390D01*
X137885714Y-88483390D02*
X137838095Y-88531009D01*
X137838095Y-88531009D02*
X137742857Y-88578628D01*
X137742857Y-88578628D02*
X137361905Y-88578628D01*
X138790476Y-88388152D02*
X138790476Y-89054819D01*
X138552381Y-88007200D02*
X138314286Y-88721485D01*
X138314286Y-88721485D02*
X138933333Y-88721485D01*
X140281066Y-105423619D02*
X140281066Y-106137904D01*
X140281066Y-106137904D02*
X140233447Y-106280761D01*
X140233447Y-106280761D02*
X140138209Y-106376000D01*
X140138209Y-106376000D02*
X139995352Y-106423619D01*
X139995352Y-106423619D02*
X139900114Y-106423619D01*
X140662019Y-105423619D02*
X141328685Y-105423619D01*
X141328685Y-105423619D02*
X140900114Y-106423619D01*
D12*
%TO.C,R7*%
X153226567Y-103122000D02*
X152934033Y-103122000D01*
X153226567Y-104142000D02*
X152934033Y-104142000D01*
%TO.C,R8*%
X146070367Y-103172800D02*
X145777833Y-103172800D01*
X146070367Y-104192800D02*
X145777833Y-104192800D01*
%TO.C,R3*%
X137742200Y-92026033D02*
X137742200Y-92318567D01*
X138762200Y-92026033D02*
X138762200Y-92318567D01*
%TO.C,C6*%
X149146800Y-112768767D02*
X149146800Y-112476233D01*
X150166800Y-112768767D02*
X150166800Y-112476233D01*
%TO.C,C1*%
X146068167Y-99032600D02*
X145775633Y-99032600D01*
X146068167Y-100052600D02*
X145775633Y-100052600D01*
%TO.C,J5*%
X133232200Y-95101600D02*
X133232200Y-105221600D01*
X133232200Y-105221600D02*
X139202200Y-105221600D01*
X133992200Y-95861600D02*
X133992200Y-100161600D01*
X133992200Y-104461600D02*
X133992200Y-100161600D01*
X136942200Y-95111600D02*
X136942200Y-95861600D01*
X136942200Y-95861600D02*
X133992200Y-95861600D01*
X136942200Y-104461600D02*
X133992200Y-104461600D01*
X136942200Y-105211600D02*
X136942200Y-104461600D01*
X138442200Y-95111600D02*
X138442200Y-96911600D01*
X138442200Y-96911600D02*
X139192200Y-96911600D01*
X138442200Y-98411600D02*
X138442200Y-101911600D01*
X138442200Y-101911600D02*
X139192200Y-101911600D01*
X138442200Y-103411600D02*
X138442200Y-105211600D01*
X138442200Y-105211600D02*
X139192200Y-105211600D01*
X139192200Y-95111600D02*
X138442200Y-95111600D01*
X139192200Y-96911600D02*
X139192200Y-95111600D01*
X139192200Y-98411600D02*
X138442200Y-98411600D01*
X139192200Y-101911600D02*
X139192200Y-98411600D01*
X139192200Y-103411600D02*
X138442200Y-103411600D01*
X139192200Y-105211600D02*
X139192200Y-103411600D01*
X139202200Y-95101600D02*
X133232200Y-95101600D01*
X139202200Y-105221600D02*
X139202200Y-95101600D01*
X139492200Y-94811600D02*
X138242200Y-94811600D01*
X139492200Y-96061600D02*
X139492200Y-94811600D01*
%TO.C,J4*%
X124967200Y-104261600D02*
X124967200Y-105511600D01*
X124967200Y-105511600D02*
X126217200Y-105511600D01*
X125257200Y-95101600D02*
X125257200Y-105221600D01*
X125257200Y-105221600D02*
X131227200Y-105221600D01*
X125267200Y-95111600D02*
X125267200Y-96911600D01*
X125267200Y-96911600D02*
X126017200Y-96911600D01*
X125267200Y-98411600D02*
X125267200Y-101911600D01*
X125267200Y-101911600D02*
X126017200Y-101911600D01*
X125267200Y-103411600D02*
X125267200Y-105211600D01*
X125267200Y-105211600D02*
X126017200Y-105211600D01*
X126017200Y-95111600D02*
X125267200Y-95111600D01*
X126017200Y-96911600D02*
X126017200Y-95111600D01*
X126017200Y-98411600D02*
X125267200Y-98411600D01*
X126017200Y-101911600D02*
X126017200Y-98411600D01*
X126017200Y-103411600D02*
X125267200Y-103411600D01*
X126017200Y-105211600D02*
X126017200Y-103411600D01*
X127517200Y-95111600D02*
X127517200Y-95861600D01*
X127517200Y-95861600D02*
X130467200Y-95861600D01*
X127517200Y-104461600D02*
X130467200Y-104461600D01*
X127517200Y-105211600D02*
X127517200Y-104461600D01*
X130467200Y-95861600D02*
X130467200Y-100161600D01*
X130467200Y-104461600D02*
X130467200Y-100161600D01*
X131227200Y-95101600D02*
X125257200Y-95101600D01*
X131227200Y-105221600D02*
X131227200Y-95101600D01*
%TO.C,C5*%
X151128000Y-91686767D02*
X151128000Y-91394233D01*
X152148000Y-91686767D02*
X152148000Y-91394233D01*
%TO.C,R2*%
X153230967Y-100937600D02*
X152938433Y-100937600D01*
X153230967Y-101957600D02*
X152938433Y-101957600D01*
%TO.C,F2*%
X148744600Y-102521164D02*
X148744600Y-101317036D01*
X150564600Y-102521164D02*
X150564600Y-101317036D01*
%TO.C,J6*%
X124967200Y-113561600D02*
X124967200Y-114811600D01*
X124967200Y-114811600D02*
X126217200Y-114811600D01*
X125257200Y-106901600D02*
X125257200Y-114521600D01*
X125257200Y-114521600D02*
X131227200Y-114521600D01*
X125267200Y-106911600D02*
X125267200Y-108711600D01*
X125267200Y-108711600D02*
X126017200Y-108711600D01*
X125267200Y-110211600D02*
X125267200Y-111211600D01*
X125267200Y-111211600D02*
X126017200Y-111211600D01*
X125267200Y-112711600D02*
X125267200Y-114511600D01*
X125267200Y-114511600D02*
X126017200Y-114511600D01*
X126017200Y-106911600D02*
X125267200Y-106911600D01*
X126017200Y-108711600D02*
X126017200Y-106911600D01*
X126017200Y-110211600D02*
X125267200Y-110211600D01*
X126017200Y-111211600D02*
X126017200Y-110211600D01*
X126017200Y-112711600D02*
X125267200Y-112711600D01*
X126017200Y-114511600D02*
X126017200Y-112711600D01*
X127517200Y-106911600D02*
X127517200Y-107661600D01*
X127517200Y-107661600D02*
X130467200Y-107661600D01*
X127517200Y-113761600D02*
X130467200Y-113761600D01*
X127517200Y-114511600D02*
X127517200Y-113761600D01*
X130467200Y-107661600D02*
X130467200Y-110711600D01*
X130467200Y-113761600D02*
X130467200Y-110711600D01*
X131227200Y-106901600D02*
X125257200Y-106901600D01*
X131227200Y-114521600D02*
X131227200Y-106901600D01*
%TO.C,R11*%
X146070367Y-101064600D02*
X145777833Y-101064600D01*
X146070367Y-102084600D02*
X145777833Y-102084600D01*
%TO.C,C3*%
X134033800Y-92000933D02*
X134033800Y-92293467D01*
X135053800Y-92000933D02*
X135053800Y-92293467D01*
%TO.C,R5*%
X145336800Y-112770967D02*
X145336800Y-112478433D01*
X146356800Y-112770967D02*
X146356800Y-112478433D01*
%TO.C,Q1*%
X142448700Y-109554800D02*
X141798700Y-109554800D01*
X142448700Y-109554800D02*
X143098700Y-109554800D01*
X142448700Y-112674800D02*
X141798700Y-112674800D01*
X142448700Y-112674800D02*
X143098700Y-112674800D01*
X143851200Y-112954800D02*
X143371200Y-112954800D01*
X143611200Y-112624800D01*
X143851200Y-112954800D01*
G36*
X143851200Y-112954800D02*
G01*
X143371200Y-112954800D01*
X143611200Y-112624800D01*
X143851200Y-112954800D01*
G37*
%TO.C,Q2*%
X143888700Y-88483000D02*
X143238700Y-88483000D01*
X143888700Y-88483000D02*
X144538700Y-88483000D01*
X143888700Y-91603000D02*
X143238700Y-91603000D01*
X143888700Y-91603000D02*
X144538700Y-91603000D01*
X145291200Y-91883000D02*
X144811200Y-91883000D01*
X145051200Y-91553000D01*
X145291200Y-91883000D01*
G36*
X145291200Y-91883000D02*
G01*
X144811200Y-91883000D01*
X145051200Y-91553000D01*
X145291200Y-91883000D01*
G37*
%TO.C,Q3*%
X149583000Y-107084100D02*
X149583000Y-106434100D01*
X149583000Y-107084100D02*
X149583000Y-107734100D01*
X152703000Y-107084100D02*
X152703000Y-106434100D01*
X152703000Y-107084100D02*
X152703000Y-107734100D01*
X152983000Y-106161600D02*
X152653000Y-105921600D01*
X152983000Y-105681600D01*
X152983000Y-106161600D01*
G36*
X152983000Y-106161600D02*
G01*
X152653000Y-105921600D01*
X152983000Y-105681600D01*
X152983000Y-106161600D01*
G37*
%TO.C,B+*%
X116910400Y-113646400D02*
X116910400Y-114896400D01*
X116910400Y-114896400D02*
X118160400Y-114896400D01*
X117200400Y-106986400D02*
X117200400Y-114606400D01*
X117200400Y-114606400D02*
X123170400Y-114606400D01*
X117210400Y-106996400D02*
X117210400Y-108796400D01*
X117210400Y-108796400D02*
X117960400Y-108796400D01*
X117210400Y-110296400D02*
X117210400Y-111296400D01*
X117210400Y-111296400D02*
X117960400Y-111296400D01*
X117210400Y-112796400D02*
X117210400Y-114596400D01*
X117210400Y-114596400D02*
X117960400Y-114596400D01*
X117960400Y-106996400D02*
X117210400Y-106996400D01*
X117960400Y-108796400D02*
X117960400Y-106996400D01*
X117960400Y-110296400D02*
X117210400Y-110296400D01*
X117960400Y-111296400D02*
X117960400Y-110296400D01*
X117960400Y-112796400D02*
X117210400Y-112796400D01*
X117960400Y-114596400D02*
X117960400Y-112796400D01*
X119460400Y-106996400D02*
X119460400Y-107746400D01*
X119460400Y-107746400D02*
X122410400Y-107746400D01*
X119460400Y-113846400D02*
X122410400Y-113846400D01*
X119460400Y-114596400D02*
X119460400Y-113846400D01*
X122410400Y-107746400D02*
X122410400Y-110796400D01*
X122410400Y-113846400D02*
X122410400Y-110796400D01*
X123170400Y-106986400D02*
X117200400Y-106986400D01*
X123170400Y-114606400D02*
X123170400Y-106986400D01*
%TO.C,C2*%
X139545600Y-88841967D02*
X139545600Y-88549433D01*
X140565600Y-88841967D02*
X140565600Y-88549433D01*
%TO.C,J3*%
X124867200Y-87511600D02*
X124867200Y-88761600D01*
X125157200Y-87801600D02*
X125157200Y-93771600D01*
X125157200Y-93771600D02*
X132777200Y-93771600D01*
X125167200Y-87811600D02*
X125167200Y-88561600D01*
X125167200Y-88561600D02*
X126967200Y-88561600D01*
X125167200Y-90061600D02*
X125917200Y-90061600D01*
X125917200Y-90061600D02*
X125917200Y-93011600D01*
X125917200Y-93011600D02*
X128967200Y-93011600D01*
X126117200Y-87511600D02*
X124867200Y-87511600D01*
X126967200Y-87811600D02*
X125167200Y-87811600D01*
X126967200Y-88561600D02*
X126967200Y-87811600D01*
X128467200Y-87811600D02*
X128467200Y-88561600D01*
X128467200Y-88561600D02*
X129467200Y-88561600D01*
X129467200Y-87811600D02*
X128467200Y-87811600D01*
X129467200Y-88561600D02*
X129467200Y-87811600D01*
X130967200Y-87811600D02*
X130967200Y-88561600D01*
X130967200Y-88561600D02*
X132767200Y-88561600D01*
X132017200Y-90061600D02*
X132017200Y-93011600D01*
X132017200Y-93011600D02*
X128967200Y-93011600D01*
X132767200Y-87811600D02*
X130967200Y-87811600D01*
X132767200Y-88561600D02*
X132767200Y-87811600D01*
X132767200Y-90061600D02*
X132017200Y-90061600D01*
X132777200Y-87801600D02*
X125157200Y-87801600D01*
X132777200Y-93771600D02*
X132777200Y-87801600D01*
%TO.C,Q4*%
X142087200Y-106957100D02*
X142087200Y-106307100D01*
X142087200Y-106957100D02*
X142087200Y-107607100D01*
X145207200Y-106957100D02*
X145207200Y-106307100D01*
X145207200Y-106957100D02*
X145207200Y-107607100D01*
X145487200Y-106034600D02*
X145157200Y-105794600D01*
X145487200Y-105554600D01*
X145487200Y-106034600D01*
G36*
X145487200Y-106034600D02*
G01*
X145157200Y-105794600D01*
X145487200Y-105554600D01*
X145487200Y-106034600D01*
G37*
%TO.C,R6*%
X146759200Y-91739767D02*
X146759200Y-91447233D01*
X147779200Y-91739767D02*
X147779200Y-91447233D01*
%TO.C,J9*%
X157893400Y-105054400D02*
X157893400Y-87164400D01*
X160653400Y-87164400D02*
X157893400Y-87164400D01*
X160653400Y-105054400D02*
X157893400Y-105054400D01*
X160653400Y-105054400D02*
X160653400Y-87164400D01*
X160653400Y-106324400D02*
X160653400Y-107704400D01*
X160653400Y-107704400D02*
X159273400Y-107704400D01*
%TO.C,R9*%
X148867400Y-91686767D02*
X148867400Y-91394233D01*
X149887400Y-91686767D02*
X149887400Y-91394233D01*
%TO.C,F3*%
X148354636Y-87355000D02*
X149558764Y-87355000D01*
X148354636Y-89175000D02*
X149558764Y-89175000D01*
%TO.C,F4*%
X146960836Y-108360800D02*
X148164964Y-108360800D01*
X146960836Y-110180800D02*
X148164964Y-110180800D01*
%TO.C,F1*%
X141518000Y-102547464D02*
X141518000Y-101343336D01*
X143338000Y-102547464D02*
X143338000Y-101343336D01*
%TO.C,R4*%
X135938800Y-88575933D02*
X135938800Y-88868467D01*
X136958800Y-88575933D02*
X136958800Y-88868467D01*
%TO.C,J10*%
X116942800Y-102823600D02*
X116942800Y-104073600D01*
X116942800Y-104073600D02*
X118192800Y-104073600D01*
X117232800Y-96163600D02*
X117232800Y-103783600D01*
X117232800Y-103783600D02*
X123202800Y-103783600D01*
X117242800Y-96173600D02*
X117242800Y-97973600D01*
X117242800Y-97973600D02*
X117992800Y-97973600D01*
X117242800Y-99473600D02*
X117242800Y-100473600D01*
X117242800Y-100473600D02*
X117992800Y-100473600D01*
X117242800Y-101973600D02*
X117242800Y-103773600D01*
X117242800Y-103773600D02*
X117992800Y-103773600D01*
X117992800Y-96173600D02*
X117242800Y-96173600D01*
X117992800Y-97973600D02*
X117992800Y-96173600D01*
X117992800Y-99473600D02*
X117242800Y-99473600D01*
X117992800Y-100473600D02*
X117992800Y-99473600D01*
X117992800Y-101973600D02*
X117242800Y-101973600D01*
X117992800Y-103773600D02*
X117992800Y-101973600D01*
X119492800Y-96173600D02*
X119492800Y-96923600D01*
X119492800Y-96923600D02*
X122442800Y-96923600D01*
X119492800Y-103023600D02*
X122442800Y-103023600D01*
X119492800Y-103773600D02*
X119492800Y-103023600D01*
X122442800Y-96923600D02*
X122442800Y-99973600D01*
X122442800Y-103023600D02*
X122442800Y-99973600D01*
X123202800Y-96163600D02*
X117232800Y-96163600D01*
X123202800Y-103783600D02*
X123202800Y-96163600D01*
%TO.C,J7*%
X133207200Y-106901600D02*
X133207200Y-114521600D01*
X133207200Y-114521600D02*
X139177200Y-114521600D01*
X133967200Y-107661600D02*
X133967200Y-110711600D01*
X133967200Y-113761600D02*
X133967200Y-110711600D01*
X136917200Y-106911600D02*
X136917200Y-107661600D01*
X136917200Y-107661600D02*
X133967200Y-107661600D01*
X136917200Y-113761600D02*
X133967200Y-113761600D01*
X136917200Y-114511600D02*
X136917200Y-113761600D01*
X138417200Y-106911600D02*
X138417200Y-108711600D01*
X138417200Y-108711600D02*
X139167200Y-108711600D01*
X138417200Y-110211600D02*
X138417200Y-111211600D01*
X138417200Y-111211600D02*
X139167200Y-111211600D01*
X138417200Y-112711600D02*
X138417200Y-114511600D01*
X138417200Y-114511600D02*
X139167200Y-114511600D01*
X139167200Y-106911600D02*
X138417200Y-106911600D01*
X139167200Y-108711600D02*
X139167200Y-106911600D01*
X139167200Y-110211600D02*
X138417200Y-110211600D01*
X139167200Y-111211600D02*
X139167200Y-110211600D01*
X139167200Y-112711600D02*
X138417200Y-112711600D01*
X139167200Y-114511600D02*
X139167200Y-112711600D01*
X139177200Y-106901600D02*
X133207200Y-106901600D01*
X139177200Y-114521600D02*
X139177200Y-106901600D01*
X139467200Y-106611600D02*
X138217200Y-106611600D01*
X139467200Y-107861600D02*
X139467200Y-106611600D01*
%TO.C,J8*%
X173143400Y-105054400D02*
X173143400Y-87164400D01*
X175903400Y-87164400D02*
X173143400Y-87164400D01*
X175903400Y-105054400D02*
X173143400Y-105054400D01*
X175903400Y-105054400D02*
X175903400Y-87164400D01*
X175903400Y-106324400D02*
X175903400Y-107704400D01*
X175903400Y-107704400D02*
X174523400Y-107704400D01*
%TO.C,C4*%
X153230967Y-98702400D02*
X152938433Y-98702400D01*
X153230967Y-99722400D02*
X152938433Y-99722400D01*
%TO.C,R10*%
X147241800Y-112768767D02*
X147241800Y-112476233D01*
X148261800Y-112768767D02*
X148261800Y-112476233D01*
%TD*%
D13*
X153013633Y-103813927D02*
X152880300Y-103623451D01*
X152785062Y-103813927D02*
X152785062Y-103413927D01*
X152785062Y-103413927D02*
X152937443Y-103413927D01*
X152937443Y-103413927D02*
X152975538Y-103432975D01*
X152975538Y-103432975D02*
X152994585Y-103452022D01*
X152994585Y-103452022D02*
X153013633Y-103490118D01*
X153013633Y-103490118D02*
X153013633Y-103547260D01*
X153013633Y-103547260D02*
X152994585Y-103585356D01*
X152994585Y-103585356D02*
X152975538Y-103604403D01*
X152975538Y-103604403D02*
X152937443Y-103623451D01*
X152937443Y-103623451D02*
X152785062Y-103623451D01*
X153146966Y-103413927D02*
X153413633Y-103413927D01*
X153413633Y-103413927D02*
X153242204Y-103813927D01*
X145857433Y-103864727D02*
X145724100Y-103674251D01*
X145628862Y-103864727D02*
X145628862Y-103464727D01*
X145628862Y-103464727D02*
X145781243Y-103464727D01*
X145781243Y-103464727D02*
X145819338Y-103483775D01*
X145819338Y-103483775D02*
X145838385Y-103502822D01*
X145838385Y-103502822D02*
X145857433Y-103540918D01*
X145857433Y-103540918D02*
X145857433Y-103598060D01*
X145857433Y-103598060D02*
X145838385Y-103636156D01*
X145838385Y-103636156D02*
X145819338Y-103655203D01*
X145819338Y-103655203D02*
X145781243Y-103674251D01*
X145781243Y-103674251D02*
X145628862Y-103674251D01*
X146086004Y-103636156D02*
X146047909Y-103617108D01*
X146047909Y-103617108D02*
X146028862Y-103598060D01*
X146028862Y-103598060D02*
X146009814Y-103559965D01*
X146009814Y-103559965D02*
X146009814Y-103540918D01*
X146009814Y-103540918D02*
X146028862Y-103502822D01*
X146028862Y-103502822D02*
X146047909Y-103483775D01*
X146047909Y-103483775D02*
X146086004Y-103464727D01*
X146086004Y-103464727D02*
X146162195Y-103464727D01*
X146162195Y-103464727D02*
X146200290Y-103483775D01*
X146200290Y-103483775D02*
X146219338Y-103502822D01*
X146219338Y-103502822D02*
X146238385Y-103540918D01*
X146238385Y-103540918D02*
X146238385Y-103559965D01*
X146238385Y-103559965D02*
X146219338Y-103598060D01*
X146219338Y-103598060D02*
X146200290Y-103617108D01*
X146200290Y-103617108D02*
X146162195Y-103636156D01*
X146162195Y-103636156D02*
X146086004Y-103636156D01*
X146086004Y-103636156D02*
X146047909Y-103655203D01*
X146047909Y-103655203D02*
X146028862Y-103674251D01*
X146028862Y-103674251D02*
X146009814Y-103712346D01*
X146009814Y-103712346D02*
X146009814Y-103788537D01*
X146009814Y-103788537D02*
X146028862Y-103826632D01*
X146028862Y-103826632D02*
X146047909Y-103845680D01*
X146047909Y-103845680D02*
X146086004Y-103864727D01*
X146086004Y-103864727D02*
X146162195Y-103864727D01*
X146162195Y-103864727D02*
X146200290Y-103845680D01*
X146200290Y-103845680D02*
X146219338Y-103826632D01*
X146219338Y-103826632D02*
X146238385Y-103788537D01*
X146238385Y-103788537D02*
X146238385Y-103712346D01*
X146238385Y-103712346D02*
X146219338Y-103674251D01*
X146219338Y-103674251D02*
X146200290Y-103655203D01*
X146200290Y-103655203D02*
X146162195Y-103636156D01*
X138434127Y-92238966D02*
X138243651Y-92372299D01*
X138434127Y-92467537D02*
X138034127Y-92467537D01*
X138034127Y-92467537D02*
X138034127Y-92315156D01*
X138034127Y-92315156D02*
X138053175Y-92277061D01*
X138053175Y-92277061D02*
X138072222Y-92258014D01*
X138072222Y-92258014D02*
X138110318Y-92238966D01*
X138110318Y-92238966D02*
X138167460Y-92238966D01*
X138167460Y-92238966D02*
X138205556Y-92258014D01*
X138205556Y-92258014D02*
X138224603Y-92277061D01*
X138224603Y-92277061D02*
X138243651Y-92315156D01*
X138243651Y-92315156D02*
X138243651Y-92467537D01*
X138034127Y-92105633D02*
X138034127Y-91858014D01*
X138034127Y-91858014D02*
X138186508Y-91991347D01*
X138186508Y-91991347D02*
X138186508Y-91934204D01*
X138186508Y-91934204D02*
X138205556Y-91896109D01*
X138205556Y-91896109D02*
X138224603Y-91877061D01*
X138224603Y-91877061D02*
X138262699Y-91858014D01*
X138262699Y-91858014D02*
X138357937Y-91858014D01*
X138357937Y-91858014D02*
X138396032Y-91877061D01*
X138396032Y-91877061D02*
X138415080Y-91896109D01*
X138415080Y-91896109D02*
X138434127Y-91934204D01*
X138434127Y-91934204D02*
X138434127Y-92048490D01*
X138434127Y-92048490D02*
X138415080Y-92086585D01*
X138415080Y-92086585D02*
X138396032Y-92105633D01*
X149800632Y-112689166D02*
X149819680Y-112708214D01*
X149819680Y-112708214D02*
X149838727Y-112765356D01*
X149838727Y-112765356D02*
X149838727Y-112803452D01*
X149838727Y-112803452D02*
X149819680Y-112860595D01*
X149819680Y-112860595D02*
X149781584Y-112898690D01*
X149781584Y-112898690D02*
X149743489Y-112917737D01*
X149743489Y-112917737D02*
X149667299Y-112936785D01*
X149667299Y-112936785D02*
X149610156Y-112936785D01*
X149610156Y-112936785D02*
X149533965Y-112917737D01*
X149533965Y-112917737D02*
X149495870Y-112898690D01*
X149495870Y-112898690D02*
X149457775Y-112860595D01*
X149457775Y-112860595D02*
X149438727Y-112803452D01*
X149438727Y-112803452D02*
X149438727Y-112765356D01*
X149438727Y-112765356D02*
X149457775Y-112708214D01*
X149457775Y-112708214D02*
X149476822Y-112689166D01*
X149438727Y-112346309D02*
X149438727Y-112422499D01*
X149438727Y-112422499D02*
X149457775Y-112460595D01*
X149457775Y-112460595D02*
X149476822Y-112479642D01*
X149476822Y-112479642D02*
X149533965Y-112517737D01*
X149533965Y-112517737D02*
X149610156Y-112536785D01*
X149610156Y-112536785D02*
X149762537Y-112536785D01*
X149762537Y-112536785D02*
X149800632Y-112517737D01*
X149800632Y-112517737D02*
X149819680Y-112498690D01*
X149819680Y-112498690D02*
X149838727Y-112460595D01*
X149838727Y-112460595D02*
X149838727Y-112384404D01*
X149838727Y-112384404D02*
X149819680Y-112346309D01*
X149819680Y-112346309D02*
X149800632Y-112327261D01*
X149800632Y-112327261D02*
X149762537Y-112308214D01*
X149762537Y-112308214D02*
X149667299Y-112308214D01*
X149667299Y-112308214D02*
X149629203Y-112327261D01*
X149629203Y-112327261D02*
X149610156Y-112346309D01*
X149610156Y-112346309D02*
X149591108Y-112384404D01*
X149591108Y-112384404D02*
X149591108Y-112460595D01*
X149591108Y-112460595D02*
X149610156Y-112498690D01*
X149610156Y-112498690D02*
X149629203Y-112517737D01*
X149629203Y-112517737D02*
X149667299Y-112536785D01*
X145855233Y-99686432D02*
X145836185Y-99705480D01*
X145836185Y-99705480D02*
X145779043Y-99724527D01*
X145779043Y-99724527D02*
X145740947Y-99724527D01*
X145740947Y-99724527D02*
X145683804Y-99705480D01*
X145683804Y-99705480D02*
X145645709Y-99667384D01*
X145645709Y-99667384D02*
X145626662Y-99629289D01*
X145626662Y-99629289D02*
X145607614Y-99553099D01*
X145607614Y-99553099D02*
X145607614Y-99495956D01*
X145607614Y-99495956D02*
X145626662Y-99419765D01*
X145626662Y-99419765D02*
X145645709Y-99381670D01*
X145645709Y-99381670D02*
X145683804Y-99343575D01*
X145683804Y-99343575D02*
X145740947Y-99324527D01*
X145740947Y-99324527D02*
X145779043Y-99324527D01*
X145779043Y-99324527D02*
X145836185Y-99343575D01*
X145836185Y-99343575D02*
X145855233Y-99362622D01*
X146236185Y-99724527D02*
X146007614Y-99724527D01*
X146121900Y-99724527D02*
X146121900Y-99324527D01*
X146121900Y-99324527D02*
X146083804Y-99381670D01*
X146083804Y-99381670D02*
X146045709Y-99419765D01*
X146045709Y-99419765D02*
X146007614Y-99438813D01*
X151781832Y-91607166D02*
X151800880Y-91626214D01*
X151800880Y-91626214D02*
X151819927Y-91683356D01*
X151819927Y-91683356D02*
X151819927Y-91721452D01*
X151819927Y-91721452D02*
X151800880Y-91778595D01*
X151800880Y-91778595D02*
X151762784Y-91816690D01*
X151762784Y-91816690D02*
X151724689Y-91835737D01*
X151724689Y-91835737D02*
X151648499Y-91854785D01*
X151648499Y-91854785D02*
X151591356Y-91854785D01*
X151591356Y-91854785D02*
X151515165Y-91835737D01*
X151515165Y-91835737D02*
X151477070Y-91816690D01*
X151477070Y-91816690D02*
X151438975Y-91778595D01*
X151438975Y-91778595D02*
X151419927Y-91721452D01*
X151419927Y-91721452D02*
X151419927Y-91683356D01*
X151419927Y-91683356D02*
X151438975Y-91626214D01*
X151438975Y-91626214D02*
X151458022Y-91607166D01*
X151419927Y-91245261D02*
X151419927Y-91435737D01*
X151419927Y-91435737D02*
X151610403Y-91454785D01*
X151610403Y-91454785D02*
X151591356Y-91435737D01*
X151591356Y-91435737D02*
X151572308Y-91397642D01*
X151572308Y-91397642D02*
X151572308Y-91302404D01*
X151572308Y-91302404D02*
X151591356Y-91264309D01*
X151591356Y-91264309D02*
X151610403Y-91245261D01*
X151610403Y-91245261D02*
X151648499Y-91226214D01*
X151648499Y-91226214D02*
X151743737Y-91226214D01*
X151743737Y-91226214D02*
X151781832Y-91245261D01*
X151781832Y-91245261D02*
X151800880Y-91264309D01*
X151800880Y-91264309D02*
X151819927Y-91302404D01*
X151819927Y-91302404D02*
X151819927Y-91397642D01*
X151819927Y-91397642D02*
X151800880Y-91435737D01*
X151800880Y-91435737D02*
X151781832Y-91454785D01*
X153018033Y-101629527D02*
X152884700Y-101439051D01*
X152789462Y-101629527D02*
X152789462Y-101229527D01*
X152789462Y-101229527D02*
X152941843Y-101229527D01*
X152941843Y-101229527D02*
X152979938Y-101248575D01*
X152979938Y-101248575D02*
X152998985Y-101267622D01*
X152998985Y-101267622D02*
X153018033Y-101305718D01*
X153018033Y-101305718D02*
X153018033Y-101362860D01*
X153018033Y-101362860D02*
X152998985Y-101400956D01*
X152998985Y-101400956D02*
X152979938Y-101420003D01*
X152979938Y-101420003D02*
X152941843Y-101439051D01*
X152941843Y-101439051D02*
X152789462Y-101439051D01*
X153170414Y-101267622D02*
X153189462Y-101248575D01*
X153189462Y-101248575D02*
X153227557Y-101229527D01*
X153227557Y-101229527D02*
X153322795Y-101229527D01*
X153322795Y-101229527D02*
X153360890Y-101248575D01*
X153360890Y-101248575D02*
X153379938Y-101267622D01*
X153379938Y-101267622D02*
X153398985Y-101305718D01*
X153398985Y-101305718D02*
X153398985Y-101343813D01*
X153398985Y-101343813D02*
X153379938Y-101400956D01*
X153379938Y-101400956D02*
X153151366Y-101629527D01*
X153151366Y-101629527D02*
X153398985Y-101629527D01*
D12*
X149599407Y-102185766D02*
X149599407Y-102452432D01*
X150018455Y-102452432D02*
X149218455Y-102452432D01*
X149218455Y-102452432D02*
X149218455Y-102071480D01*
X149294645Y-101804814D02*
X149256550Y-101766718D01*
X149256550Y-101766718D02*
X149218455Y-101690528D01*
X149218455Y-101690528D02*
X149218455Y-101500052D01*
X149218455Y-101500052D02*
X149256550Y-101423861D01*
X149256550Y-101423861D02*
X149294645Y-101385766D01*
X149294645Y-101385766D02*
X149370836Y-101347671D01*
X149370836Y-101347671D02*
X149447026Y-101347671D01*
X149447026Y-101347671D02*
X149561312Y-101385766D01*
X149561312Y-101385766D02*
X150018455Y-101842909D01*
X150018455Y-101842909D02*
X150018455Y-101347671D01*
D13*
X145666957Y-101756527D02*
X145533624Y-101566051D01*
X145438386Y-101756527D02*
X145438386Y-101356527D01*
X145438386Y-101356527D02*
X145590767Y-101356527D01*
X145590767Y-101356527D02*
X145628862Y-101375575D01*
X145628862Y-101375575D02*
X145647909Y-101394622D01*
X145647909Y-101394622D02*
X145666957Y-101432718D01*
X145666957Y-101432718D02*
X145666957Y-101489860D01*
X145666957Y-101489860D02*
X145647909Y-101527956D01*
X145647909Y-101527956D02*
X145628862Y-101547003D01*
X145628862Y-101547003D02*
X145590767Y-101566051D01*
X145590767Y-101566051D02*
X145438386Y-101566051D01*
X146047909Y-101756527D02*
X145819338Y-101756527D01*
X145933624Y-101756527D02*
X145933624Y-101356527D01*
X145933624Y-101356527D02*
X145895528Y-101413670D01*
X145895528Y-101413670D02*
X145857433Y-101451765D01*
X145857433Y-101451765D02*
X145819338Y-101470813D01*
X146428861Y-101756527D02*
X146200290Y-101756527D01*
X146314576Y-101756527D02*
X146314576Y-101356527D01*
X146314576Y-101356527D02*
X146276480Y-101413670D01*
X146276480Y-101413670D02*
X146238385Y-101451765D01*
X146238385Y-101451765D02*
X146200290Y-101470813D01*
X134687632Y-92213866D02*
X134706680Y-92232914D01*
X134706680Y-92232914D02*
X134725727Y-92290056D01*
X134725727Y-92290056D02*
X134725727Y-92328152D01*
X134725727Y-92328152D02*
X134706680Y-92385295D01*
X134706680Y-92385295D02*
X134668584Y-92423390D01*
X134668584Y-92423390D02*
X134630489Y-92442437D01*
X134630489Y-92442437D02*
X134554299Y-92461485D01*
X134554299Y-92461485D02*
X134497156Y-92461485D01*
X134497156Y-92461485D02*
X134420965Y-92442437D01*
X134420965Y-92442437D02*
X134382870Y-92423390D01*
X134382870Y-92423390D02*
X134344775Y-92385295D01*
X134344775Y-92385295D02*
X134325727Y-92328152D01*
X134325727Y-92328152D02*
X134325727Y-92290056D01*
X134325727Y-92290056D02*
X134344775Y-92232914D01*
X134344775Y-92232914D02*
X134363822Y-92213866D01*
X134325727Y-92080533D02*
X134325727Y-91832914D01*
X134325727Y-91832914D02*
X134478108Y-91966247D01*
X134478108Y-91966247D02*
X134478108Y-91909104D01*
X134478108Y-91909104D02*
X134497156Y-91871009D01*
X134497156Y-91871009D02*
X134516203Y-91851961D01*
X134516203Y-91851961D02*
X134554299Y-91832914D01*
X134554299Y-91832914D02*
X134649537Y-91832914D01*
X134649537Y-91832914D02*
X134687632Y-91851961D01*
X134687632Y-91851961D02*
X134706680Y-91871009D01*
X134706680Y-91871009D02*
X134725727Y-91909104D01*
X134725727Y-91909104D02*
X134725727Y-92023390D01*
X134725727Y-92023390D02*
X134706680Y-92061485D01*
X134706680Y-92061485D02*
X134687632Y-92080533D01*
X146028727Y-112691366D02*
X145838251Y-112824699D01*
X146028727Y-112919937D02*
X145628727Y-112919937D01*
X145628727Y-112919937D02*
X145628727Y-112767556D01*
X145628727Y-112767556D02*
X145647775Y-112729461D01*
X145647775Y-112729461D02*
X145666822Y-112710414D01*
X145666822Y-112710414D02*
X145704918Y-112691366D01*
X145704918Y-112691366D02*
X145762060Y-112691366D01*
X145762060Y-112691366D02*
X145800156Y-112710414D01*
X145800156Y-112710414D02*
X145819203Y-112729461D01*
X145819203Y-112729461D02*
X145838251Y-112767556D01*
X145838251Y-112767556D02*
X145838251Y-112919937D01*
X145628727Y-112329461D02*
X145628727Y-112519937D01*
X145628727Y-112519937D02*
X145819203Y-112538985D01*
X145819203Y-112538985D02*
X145800156Y-112519937D01*
X145800156Y-112519937D02*
X145781108Y-112481842D01*
X145781108Y-112481842D02*
X145781108Y-112386604D01*
X145781108Y-112386604D02*
X145800156Y-112348509D01*
X145800156Y-112348509D02*
X145819203Y-112329461D01*
X145819203Y-112329461D02*
X145857299Y-112310414D01*
X145857299Y-112310414D02*
X145952537Y-112310414D01*
X145952537Y-112310414D02*
X145990632Y-112329461D01*
X145990632Y-112329461D02*
X146009680Y-112348509D01*
X146009680Y-112348509D02*
X146028727Y-112386604D01*
X146028727Y-112386604D02*
X146028727Y-112481842D01*
X146028727Y-112481842D02*
X146009680Y-112519937D01*
X146009680Y-112519937D02*
X145990632Y-112538985D01*
D14*
X142418223Y-111290714D02*
X142387747Y-111275476D01*
X142387747Y-111275476D02*
X142357271Y-111245000D01*
X142357271Y-111245000D02*
X142311557Y-111199285D01*
X142311557Y-111199285D02*
X142281080Y-111184047D01*
X142281080Y-111184047D02*
X142250604Y-111184047D01*
X142265842Y-111260238D02*
X142235366Y-111245000D01*
X142235366Y-111245000D02*
X142204890Y-111214523D01*
X142204890Y-111214523D02*
X142189652Y-111153571D01*
X142189652Y-111153571D02*
X142189652Y-111046904D01*
X142189652Y-111046904D02*
X142204890Y-110985952D01*
X142204890Y-110985952D02*
X142235366Y-110955476D01*
X142235366Y-110955476D02*
X142265842Y-110940238D01*
X142265842Y-110940238D02*
X142326795Y-110940238D01*
X142326795Y-110940238D02*
X142357271Y-110955476D01*
X142357271Y-110955476D02*
X142387747Y-110985952D01*
X142387747Y-110985952D02*
X142402985Y-111046904D01*
X142402985Y-111046904D02*
X142402985Y-111153571D01*
X142402985Y-111153571D02*
X142387747Y-111214523D01*
X142387747Y-111214523D02*
X142357271Y-111245000D01*
X142357271Y-111245000D02*
X142326795Y-111260238D01*
X142326795Y-111260238D02*
X142265842Y-111260238D01*
X142707747Y-111260238D02*
X142524890Y-111260238D01*
X142616318Y-111260238D02*
X142616318Y-110940238D01*
X142616318Y-110940238D02*
X142585842Y-110985952D01*
X142585842Y-110985952D02*
X142555366Y-111016428D01*
X142555366Y-111016428D02*
X142524890Y-111031666D01*
X143858223Y-90218914D02*
X143827747Y-90203676D01*
X143827747Y-90203676D02*
X143797271Y-90173200D01*
X143797271Y-90173200D02*
X143751557Y-90127485D01*
X143751557Y-90127485D02*
X143721080Y-90112247D01*
X143721080Y-90112247D02*
X143690604Y-90112247D01*
X143705842Y-90188438D02*
X143675366Y-90173200D01*
X143675366Y-90173200D02*
X143644890Y-90142723D01*
X143644890Y-90142723D02*
X143629652Y-90081771D01*
X143629652Y-90081771D02*
X143629652Y-89975104D01*
X143629652Y-89975104D02*
X143644890Y-89914152D01*
X143644890Y-89914152D02*
X143675366Y-89883676D01*
X143675366Y-89883676D02*
X143705842Y-89868438D01*
X143705842Y-89868438D02*
X143766795Y-89868438D01*
X143766795Y-89868438D02*
X143797271Y-89883676D01*
X143797271Y-89883676D02*
X143827747Y-89914152D01*
X143827747Y-89914152D02*
X143842985Y-89975104D01*
X143842985Y-89975104D02*
X143842985Y-90081771D01*
X143842985Y-90081771D02*
X143827747Y-90142723D01*
X143827747Y-90142723D02*
X143797271Y-90173200D01*
X143797271Y-90173200D02*
X143766795Y-90188438D01*
X143766795Y-90188438D02*
X143705842Y-90188438D01*
X143964890Y-89898914D02*
X143980128Y-89883676D01*
X143980128Y-89883676D02*
X144010604Y-89868438D01*
X144010604Y-89868438D02*
X144086795Y-89868438D01*
X144086795Y-89868438D02*
X144117271Y-89883676D01*
X144117271Y-89883676D02*
X144132509Y-89898914D01*
X144132509Y-89898914D02*
X144147747Y-89929390D01*
X144147747Y-89929390D02*
X144147747Y-89959866D01*
X144147747Y-89959866D02*
X144132509Y-90005580D01*
X144132509Y-90005580D02*
X143949652Y-90188438D01*
X143949652Y-90188438D02*
X144147747Y-90188438D01*
X151318914Y-107114576D02*
X151303676Y-107145052D01*
X151303676Y-107145052D02*
X151273200Y-107175528D01*
X151273200Y-107175528D02*
X151227485Y-107221242D01*
X151227485Y-107221242D02*
X151212247Y-107251719D01*
X151212247Y-107251719D02*
X151212247Y-107282195D01*
X151288438Y-107266957D02*
X151273200Y-107297433D01*
X151273200Y-107297433D02*
X151242723Y-107327909D01*
X151242723Y-107327909D02*
X151181771Y-107343147D01*
X151181771Y-107343147D02*
X151075104Y-107343147D01*
X151075104Y-107343147D02*
X151014152Y-107327909D01*
X151014152Y-107327909D02*
X150983676Y-107297433D01*
X150983676Y-107297433D02*
X150968438Y-107266957D01*
X150968438Y-107266957D02*
X150968438Y-107206004D01*
X150968438Y-107206004D02*
X150983676Y-107175528D01*
X150983676Y-107175528D02*
X151014152Y-107145052D01*
X151014152Y-107145052D02*
X151075104Y-107129814D01*
X151075104Y-107129814D02*
X151181771Y-107129814D01*
X151181771Y-107129814D02*
X151242723Y-107145052D01*
X151242723Y-107145052D02*
X151273200Y-107175528D01*
X151273200Y-107175528D02*
X151288438Y-107206004D01*
X151288438Y-107206004D02*
X151288438Y-107266957D01*
X150968438Y-107023147D02*
X150968438Y-106825052D01*
X150968438Y-106825052D02*
X151090342Y-106931719D01*
X151090342Y-106931719D02*
X151090342Y-106886004D01*
X151090342Y-106886004D02*
X151105580Y-106855528D01*
X151105580Y-106855528D02*
X151120819Y-106840290D01*
X151120819Y-106840290D02*
X151151295Y-106825052D01*
X151151295Y-106825052D02*
X151227485Y-106825052D01*
X151227485Y-106825052D02*
X151257961Y-106840290D01*
X151257961Y-106840290D02*
X151273200Y-106855528D01*
X151273200Y-106855528D02*
X151288438Y-106886004D01*
X151288438Y-106886004D02*
X151288438Y-106977433D01*
X151288438Y-106977433D02*
X151273200Y-107007909D01*
X151273200Y-107007909D02*
X151257961Y-107023147D01*
D13*
X140199432Y-88762366D02*
X140218480Y-88781414D01*
X140218480Y-88781414D02*
X140237527Y-88838556D01*
X140237527Y-88838556D02*
X140237527Y-88876652D01*
X140237527Y-88876652D02*
X140218480Y-88933795D01*
X140218480Y-88933795D02*
X140180384Y-88971890D01*
X140180384Y-88971890D02*
X140142289Y-88990937D01*
X140142289Y-88990937D02*
X140066099Y-89009985D01*
X140066099Y-89009985D02*
X140008956Y-89009985D01*
X140008956Y-89009985D02*
X139932765Y-88990937D01*
X139932765Y-88990937D02*
X139894670Y-88971890D01*
X139894670Y-88971890D02*
X139856575Y-88933795D01*
X139856575Y-88933795D02*
X139837527Y-88876652D01*
X139837527Y-88876652D02*
X139837527Y-88838556D01*
X139837527Y-88838556D02*
X139856575Y-88781414D01*
X139856575Y-88781414D02*
X139875622Y-88762366D01*
X139875622Y-88609985D02*
X139856575Y-88590937D01*
X139856575Y-88590937D02*
X139837527Y-88552842D01*
X139837527Y-88552842D02*
X139837527Y-88457604D01*
X139837527Y-88457604D02*
X139856575Y-88419509D01*
X139856575Y-88419509D02*
X139875622Y-88400461D01*
X139875622Y-88400461D02*
X139913718Y-88381414D01*
X139913718Y-88381414D02*
X139951813Y-88381414D01*
X139951813Y-88381414D02*
X140008956Y-88400461D01*
X140008956Y-88400461D02*
X140237527Y-88629033D01*
X140237527Y-88629033D02*
X140237527Y-88381414D01*
D14*
X143823114Y-106987576D02*
X143807876Y-107018052D01*
X143807876Y-107018052D02*
X143777400Y-107048528D01*
X143777400Y-107048528D02*
X143731685Y-107094242D01*
X143731685Y-107094242D02*
X143716447Y-107124719D01*
X143716447Y-107124719D02*
X143716447Y-107155195D01*
X143792638Y-107139957D02*
X143777400Y-107170433D01*
X143777400Y-107170433D02*
X143746923Y-107200909D01*
X143746923Y-107200909D02*
X143685971Y-107216147D01*
X143685971Y-107216147D02*
X143579304Y-107216147D01*
X143579304Y-107216147D02*
X143518352Y-107200909D01*
X143518352Y-107200909D02*
X143487876Y-107170433D01*
X143487876Y-107170433D02*
X143472638Y-107139957D01*
X143472638Y-107139957D02*
X143472638Y-107079004D01*
X143472638Y-107079004D02*
X143487876Y-107048528D01*
X143487876Y-107048528D02*
X143518352Y-107018052D01*
X143518352Y-107018052D02*
X143579304Y-107002814D01*
X143579304Y-107002814D02*
X143685971Y-107002814D01*
X143685971Y-107002814D02*
X143746923Y-107018052D01*
X143746923Y-107018052D02*
X143777400Y-107048528D01*
X143777400Y-107048528D02*
X143792638Y-107079004D01*
X143792638Y-107079004D02*
X143792638Y-107139957D01*
X143579304Y-106728528D02*
X143792638Y-106728528D01*
X143457400Y-106804719D02*
X143685971Y-106880909D01*
X143685971Y-106880909D02*
X143685971Y-106682814D01*
D13*
X147451127Y-91660166D02*
X147260651Y-91793499D01*
X147451127Y-91888737D02*
X147051127Y-91888737D01*
X147051127Y-91888737D02*
X147051127Y-91736356D01*
X147051127Y-91736356D02*
X147070175Y-91698261D01*
X147070175Y-91698261D02*
X147089222Y-91679214D01*
X147089222Y-91679214D02*
X147127318Y-91660166D01*
X147127318Y-91660166D02*
X147184460Y-91660166D01*
X147184460Y-91660166D02*
X147222556Y-91679214D01*
X147222556Y-91679214D02*
X147241603Y-91698261D01*
X147241603Y-91698261D02*
X147260651Y-91736356D01*
X147260651Y-91736356D02*
X147260651Y-91888737D01*
X147051127Y-91317309D02*
X147051127Y-91393499D01*
X147051127Y-91393499D02*
X147070175Y-91431595D01*
X147070175Y-91431595D02*
X147089222Y-91450642D01*
X147089222Y-91450642D02*
X147146365Y-91488737D01*
X147146365Y-91488737D02*
X147222556Y-91507785D01*
X147222556Y-91507785D02*
X147374937Y-91507785D01*
X147374937Y-91507785D02*
X147413032Y-91488737D01*
X147413032Y-91488737D02*
X147432080Y-91469690D01*
X147432080Y-91469690D02*
X147451127Y-91431595D01*
X147451127Y-91431595D02*
X147451127Y-91355404D01*
X147451127Y-91355404D02*
X147432080Y-91317309D01*
X147432080Y-91317309D02*
X147413032Y-91298261D01*
X147413032Y-91298261D02*
X147374937Y-91279214D01*
X147374937Y-91279214D02*
X147279699Y-91279214D01*
X147279699Y-91279214D02*
X147241603Y-91298261D01*
X147241603Y-91298261D02*
X147222556Y-91317309D01*
X147222556Y-91317309D02*
X147203508Y-91355404D01*
X147203508Y-91355404D02*
X147203508Y-91431595D01*
X147203508Y-91431595D02*
X147222556Y-91469690D01*
X147222556Y-91469690D02*
X147241603Y-91488737D01*
X147241603Y-91488737D02*
X147279699Y-91507785D01*
D11*
X158728219Y-97767733D02*
X159442504Y-97767733D01*
X159442504Y-97767733D02*
X159585361Y-97815352D01*
X159585361Y-97815352D02*
X159680600Y-97910590D01*
X159680600Y-97910590D02*
X159728219Y-98053447D01*
X159728219Y-98053447D02*
X159728219Y-98148685D01*
X159728219Y-97243923D02*
X159728219Y-97053447D01*
X159728219Y-97053447D02*
X159680600Y-96958209D01*
X159680600Y-96958209D02*
X159632980Y-96910590D01*
X159632980Y-96910590D02*
X159490123Y-96815352D01*
X159490123Y-96815352D02*
X159299647Y-96767733D01*
X159299647Y-96767733D02*
X158918695Y-96767733D01*
X158918695Y-96767733D02*
X158823457Y-96815352D01*
X158823457Y-96815352D02*
X158775838Y-96862971D01*
X158775838Y-96862971D02*
X158728219Y-96958209D01*
X158728219Y-96958209D02*
X158728219Y-97148685D01*
X158728219Y-97148685D02*
X158775838Y-97243923D01*
X158775838Y-97243923D02*
X158823457Y-97291542D01*
X158823457Y-97291542D02*
X158918695Y-97339161D01*
X158918695Y-97339161D02*
X159156790Y-97339161D01*
X159156790Y-97339161D02*
X159252028Y-97291542D01*
X159252028Y-97291542D02*
X159299647Y-97243923D01*
X159299647Y-97243923D02*
X159347266Y-97148685D01*
X159347266Y-97148685D02*
X159347266Y-96958209D01*
X159347266Y-96958209D02*
X159299647Y-96862971D01*
X159299647Y-96862971D02*
X159252028Y-96815352D01*
X159252028Y-96815352D02*
X159156790Y-96767733D01*
X119455895Y-91539219D02*
X119455895Y-90539219D01*
X119455895Y-91015409D02*
X120027323Y-91015409D01*
X120027323Y-91539219D02*
X120027323Y-90539219D01*
X121027323Y-91539219D02*
X120455895Y-91539219D01*
X120741609Y-91539219D02*
X120741609Y-90539219D01*
X120741609Y-90539219D02*
X120646371Y-90682076D01*
X120646371Y-90682076D02*
X120551133Y-90777314D01*
X120551133Y-90777314D02*
X120455895Y-90824933D01*
D13*
X149559327Y-91607166D02*
X149368851Y-91740499D01*
X149559327Y-91835737D02*
X149159327Y-91835737D01*
X149159327Y-91835737D02*
X149159327Y-91683356D01*
X149159327Y-91683356D02*
X149178375Y-91645261D01*
X149178375Y-91645261D02*
X149197422Y-91626214D01*
X149197422Y-91626214D02*
X149235518Y-91607166D01*
X149235518Y-91607166D02*
X149292660Y-91607166D01*
X149292660Y-91607166D02*
X149330756Y-91626214D01*
X149330756Y-91626214D02*
X149349803Y-91645261D01*
X149349803Y-91645261D02*
X149368851Y-91683356D01*
X149368851Y-91683356D02*
X149368851Y-91835737D01*
X149559327Y-91416690D02*
X149559327Y-91340499D01*
X149559327Y-91340499D02*
X149540280Y-91302404D01*
X149540280Y-91302404D02*
X149521232Y-91283356D01*
X149521232Y-91283356D02*
X149464089Y-91245261D01*
X149464089Y-91245261D02*
X149387899Y-91226214D01*
X149387899Y-91226214D02*
X149235518Y-91226214D01*
X149235518Y-91226214D02*
X149197422Y-91245261D01*
X149197422Y-91245261D02*
X149178375Y-91264309D01*
X149178375Y-91264309D02*
X149159327Y-91302404D01*
X149159327Y-91302404D02*
X149159327Y-91378595D01*
X149159327Y-91378595D02*
X149178375Y-91416690D01*
X149178375Y-91416690D02*
X149197422Y-91435737D01*
X149197422Y-91435737D02*
X149235518Y-91454785D01*
X149235518Y-91454785D02*
X149330756Y-91454785D01*
X149330756Y-91454785D02*
X149368851Y-91435737D01*
X149368851Y-91435737D02*
X149387899Y-91416690D01*
X149387899Y-91416690D02*
X149406946Y-91378595D01*
X149406946Y-91378595D02*
X149406946Y-91302404D01*
X149406946Y-91302404D02*
X149387899Y-91264309D01*
X149387899Y-91264309D02*
X149368851Y-91245261D01*
X149368851Y-91245261D02*
X149330756Y-91226214D01*
D12*
X148690033Y-88209807D02*
X148423367Y-88209807D01*
X148423367Y-88628855D02*
X148423367Y-87828855D01*
X148423367Y-87828855D02*
X148804319Y-87828855D01*
X149032890Y-87828855D02*
X149528128Y-87828855D01*
X149528128Y-87828855D02*
X149261462Y-88133617D01*
X149261462Y-88133617D02*
X149375747Y-88133617D01*
X149375747Y-88133617D02*
X149451938Y-88171712D01*
X149451938Y-88171712D02*
X149490033Y-88209807D01*
X149490033Y-88209807D02*
X149528128Y-88285998D01*
X149528128Y-88285998D02*
X149528128Y-88476474D01*
X149528128Y-88476474D02*
X149490033Y-88552664D01*
X149490033Y-88552664D02*
X149451938Y-88590760D01*
X149451938Y-88590760D02*
X149375747Y-88628855D01*
X149375747Y-88628855D02*
X149147176Y-88628855D01*
X149147176Y-88628855D02*
X149070985Y-88590760D01*
X149070985Y-88590760D02*
X149032890Y-88552664D01*
X147296233Y-109215607D02*
X147029567Y-109215607D01*
X147029567Y-109634655D02*
X147029567Y-108834655D01*
X147029567Y-108834655D02*
X147410519Y-108834655D01*
X148058138Y-109101321D02*
X148058138Y-109634655D01*
X147867662Y-108796560D02*
X147677185Y-109367988D01*
X147677185Y-109367988D02*
X148172424Y-109367988D01*
X142372807Y-102212066D02*
X142372807Y-102478732D01*
X142791855Y-102478732D02*
X141991855Y-102478732D01*
X141991855Y-102478732D02*
X141991855Y-102097780D01*
X142791855Y-101373971D02*
X142791855Y-101831114D01*
X142791855Y-101602542D02*
X141991855Y-101602542D01*
X141991855Y-101602542D02*
X142106140Y-101678733D01*
X142106140Y-101678733D02*
X142182331Y-101754923D01*
X142182331Y-101754923D02*
X142220426Y-101831114D01*
D13*
X136630727Y-88788866D02*
X136440251Y-88922199D01*
X136630727Y-89017437D02*
X136230727Y-89017437D01*
X136230727Y-89017437D02*
X136230727Y-88865056D01*
X136230727Y-88865056D02*
X136249775Y-88826961D01*
X136249775Y-88826961D02*
X136268822Y-88807914D01*
X136268822Y-88807914D02*
X136306918Y-88788866D01*
X136306918Y-88788866D02*
X136364060Y-88788866D01*
X136364060Y-88788866D02*
X136402156Y-88807914D01*
X136402156Y-88807914D02*
X136421203Y-88826961D01*
X136421203Y-88826961D02*
X136440251Y-88865056D01*
X136440251Y-88865056D02*
X136440251Y-89017437D01*
X136364060Y-88446009D02*
X136630727Y-88446009D01*
X136211680Y-88541247D02*
X136497394Y-88636485D01*
X136497394Y-88636485D02*
X136497394Y-88388866D01*
D11*
X173978219Y-97767733D02*
X174692504Y-97767733D01*
X174692504Y-97767733D02*
X174835361Y-97815352D01*
X174835361Y-97815352D02*
X174930600Y-97910590D01*
X174930600Y-97910590D02*
X174978219Y-98053447D01*
X174978219Y-98053447D02*
X174978219Y-98148685D01*
X174406790Y-97148685D02*
X174359171Y-97243923D01*
X174359171Y-97243923D02*
X174311552Y-97291542D01*
X174311552Y-97291542D02*
X174216314Y-97339161D01*
X174216314Y-97339161D02*
X174168695Y-97339161D01*
X174168695Y-97339161D02*
X174073457Y-97291542D01*
X174073457Y-97291542D02*
X174025838Y-97243923D01*
X174025838Y-97243923D02*
X173978219Y-97148685D01*
X173978219Y-97148685D02*
X173978219Y-96958209D01*
X173978219Y-96958209D02*
X174025838Y-96862971D01*
X174025838Y-96862971D02*
X174073457Y-96815352D01*
X174073457Y-96815352D02*
X174168695Y-96767733D01*
X174168695Y-96767733D02*
X174216314Y-96767733D01*
X174216314Y-96767733D02*
X174311552Y-96815352D01*
X174311552Y-96815352D02*
X174359171Y-96862971D01*
X174359171Y-96862971D02*
X174406790Y-96958209D01*
X174406790Y-96958209D02*
X174406790Y-97148685D01*
X174406790Y-97148685D02*
X174454409Y-97243923D01*
X174454409Y-97243923D02*
X174502028Y-97291542D01*
X174502028Y-97291542D02*
X174597266Y-97339161D01*
X174597266Y-97339161D02*
X174787742Y-97339161D01*
X174787742Y-97339161D02*
X174882980Y-97291542D01*
X174882980Y-97291542D02*
X174930600Y-97243923D01*
X174930600Y-97243923D02*
X174978219Y-97148685D01*
X174978219Y-97148685D02*
X174978219Y-96958209D01*
X174978219Y-96958209D02*
X174930600Y-96862971D01*
X174930600Y-96862971D02*
X174882980Y-96815352D01*
X174882980Y-96815352D02*
X174787742Y-96767733D01*
X174787742Y-96767733D02*
X174597266Y-96767733D01*
X174597266Y-96767733D02*
X174502028Y-96815352D01*
X174502028Y-96815352D02*
X174454409Y-96862971D01*
X174454409Y-96862971D02*
X174406790Y-96958209D01*
D13*
X153018033Y-99356232D02*
X152998985Y-99375280D01*
X152998985Y-99375280D02*
X152941843Y-99394327D01*
X152941843Y-99394327D02*
X152903747Y-99394327D01*
X152903747Y-99394327D02*
X152846604Y-99375280D01*
X152846604Y-99375280D02*
X152808509Y-99337184D01*
X152808509Y-99337184D02*
X152789462Y-99299089D01*
X152789462Y-99299089D02*
X152770414Y-99222899D01*
X152770414Y-99222899D02*
X152770414Y-99165756D01*
X152770414Y-99165756D02*
X152789462Y-99089565D01*
X152789462Y-99089565D02*
X152808509Y-99051470D01*
X152808509Y-99051470D02*
X152846604Y-99013375D01*
X152846604Y-99013375D02*
X152903747Y-98994327D01*
X152903747Y-98994327D02*
X152941843Y-98994327D01*
X152941843Y-98994327D02*
X152998985Y-99013375D01*
X152998985Y-99013375D02*
X153018033Y-99032422D01*
X153360890Y-99127660D02*
X153360890Y-99394327D01*
X153265652Y-98975280D02*
X153170414Y-99260994D01*
X153170414Y-99260994D02*
X153418033Y-99260994D01*
X147933727Y-112879642D02*
X147743251Y-113012975D01*
X147933727Y-113108213D02*
X147533727Y-113108213D01*
X147533727Y-113108213D02*
X147533727Y-112955832D01*
X147533727Y-112955832D02*
X147552775Y-112917737D01*
X147552775Y-112917737D02*
X147571822Y-112898690D01*
X147571822Y-112898690D02*
X147609918Y-112879642D01*
X147609918Y-112879642D02*
X147667060Y-112879642D01*
X147667060Y-112879642D02*
X147705156Y-112898690D01*
X147705156Y-112898690D02*
X147724203Y-112917737D01*
X147724203Y-112917737D02*
X147743251Y-112955832D01*
X147743251Y-112955832D02*
X147743251Y-113108213D01*
X147933727Y-112498690D02*
X147933727Y-112727261D01*
X147933727Y-112612975D02*
X147533727Y-112612975D01*
X147533727Y-112612975D02*
X147590870Y-112651071D01*
X147590870Y-112651071D02*
X147628965Y-112689166D01*
X147628965Y-112689166D02*
X147648013Y-112727261D01*
X147533727Y-112251071D02*
X147533727Y-112212976D01*
X147533727Y-112212976D02*
X147552775Y-112174880D01*
X147552775Y-112174880D02*
X147571822Y-112155833D01*
X147571822Y-112155833D02*
X147609918Y-112136785D01*
X147609918Y-112136785D02*
X147686108Y-112117738D01*
X147686108Y-112117738D02*
X147781346Y-112117738D01*
X147781346Y-112117738D02*
X147857537Y-112136785D01*
X147857537Y-112136785D02*
X147895632Y-112155833D01*
X147895632Y-112155833D02*
X147914680Y-112174880D01*
X147914680Y-112174880D02*
X147933727Y-112212976D01*
X147933727Y-112212976D02*
X147933727Y-112251071D01*
X147933727Y-112251071D02*
X147914680Y-112289166D01*
X147914680Y-112289166D02*
X147895632Y-112308214D01*
X147895632Y-112308214D02*
X147857537Y-112327261D01*
X147857537Y-112327261D02*
X147781346Y-112346309D01*
X147781346Y-112346309D02*
X147686108Y-112346309D01*
X147686108Y-112346309D02*
X147609918Y-112327261D01*
X147609918Y-112327261D02*
X147571822Y-112308214D01*
X147571822Y-112308214D02*
X147552775Y-112289166D01*
X147552775Y-112289166D02*
X147533727Y-112251071D01*
D15*
%TO.C,R7*%
X152280300Y-103232000D02*
X153880300Y-103232000D01*
X152280300Y-104032000D02*
X152280300Y-103232000D01*
X153880300Y-103232000D02*
X153880300Y-104032000D01*
X153880300Y-104032000D02*
X152280300Y-104032000D01*
%TO.C,R8*%
X145124100Y-103282800D02*
X146724100Y-103282800D01*
X145124100Y-104082800D02*
X145124100Y-103282800D01*
X146724100Y-103282800D02*
X146724100Y-104082800D01*
X146724100Y-104082800D02*
X145124100Y-104082800D01*
%TO.C,R3*%
X137852200Y-91372300D02*
X138652200Y-91372300D01*
X137852200Y-92972300D02*
X137852200Y-91372300D01*
X138652200Y-91372300D02*
X138652200Y-92972300D01*
X138652200Y-92972300D02*
X137852200Y-92972300D01*
%TO.C,C6*%
X149256800Y-111822500D02*
X150056800Y-111822500D01*
X149256800Y-113422500D02*
X149256800Y-111822500D01*
X150056800Y-111822500D02*
X150056800Y-113422500D01*
X150056800Y-113422500D02*
X149256800Y-113422500D01*
%TO.C,C1*%
X145121900Y-99142600D02*
X146721900Y-99142600D01*
X145121900Y-99942600D02*
X145121900Y-99142600D01*
X146721900Y-99142600D02*
X146721900Y-99942600D01*
X146721900Y-99942600D02*
X145121900Y-99942600D01*
%TO.C,J5*%
X133342200Y-95211600D02*
X133342200Y-105111600D01*
X133342200Y-105111600D02*
X139092200Y-105111600D01*
X138092200Y-97661600D02*
X139092200Y-98286600D01*
X139092200Y-95211600D02*
X133342200Y-95211600D01*
X139092200Y-97036600D02*
X138092200Y-97661600D01*
X139092200Y-105111600D02*
X139092200Y-95211600D01*
%TO.C,J4*%
X125367200Y-95211600D02*
X125367200Y-105111600D01*
X125367200Y-103286600D02*
X126367200Y-102661600D01*
X125367200Y-105111600D02*
X131117200Y-105111600D01*
X126367200Y-102661600D02*
X125367200Y-102036600D01*
X131117200Y-95211600D02*
X125367200Y-95211600D01*
X131117200Y-105111600D02*
X131117200Y-95211600D01*
%TO.C,C5*%
X151238000Y-90740500D02*
X152038000Y-90740500D01*
X151238000Y-92340500D02*
X151238000Y-90740500D01*
X152038000Y-90740500D02*
X152038000Y-92340500D01*
X152038000Y-92340500D02*
X151238000Y-92340500D01*
%TO.C,R2*%
X152284700Y-101047600D02*
X153884700Y-101047600D01*
X152284700Y-101847600D02*
X152284700Y-101047600D01*
X153884700Y-101047600D02*
X153884700Y-101847600D01*
X153884700Y-101847600D02*
X152284700Y-101847600D01*
%TO.C,F2*%
X148854600Y-100319100D02*
X150454600Y-100319100D01*
X148854600Y-103519100D02*
X148854600Y-100319100D01*
X150454600Y-100319100D02*
X150454600Y-103519100D01*
X150454600Y-103519100D02*
X148854600Y-103519100D01*
%TO.C,J6*%
X125367200Y-107011600D02*
X125367200Y-114411600D01*
X125367200Y-112586600D02*
X126367200Y-111961600D01*
X125367200Y-114411600D02*
X131117200Y-114411600D01*
X126367200Y-111961600D02*
X125367200Y-111336600D01*
X131117200Y-107011600D02*
X125367200Y-107011600D01*
X131117200Y-114411600D02*
X131117200Y-107011600D01*
%TO.C,R11*%
X145124100Y-101174600D02*
X146724100Y-101174600D01*
X145124100Y-101974600D02*
X145124100Y-101174600D01*
X146724100Y-101174600D02*
X146724100Y-101974600D01*
X146724100Y-101974600D02*
X145124100Y-101974600D01*
%TO.C,C3*%
X134143800Y-91347200D02*
X134943800Y-91347200D01*
X134143800Y-92947200D02*
X134143800Y-91347200D01*
X134943800Y-91347200D02*
X134943800Y-92947200D01*
X134943800Y-92947200D02*
X134143800Y-92947200D01*
%TO.C,R5*%
X145446800Y-111824700D02*
X146246800Y-111824700D01*
X145446800Y-113424700D02*
X145446800Y-111824700D01*
X146246800Y-111824700D02*
X146246800Y-113424700D01*
X146246800Y-113424700D02*
X145446800Y-113424700D01*
%TO.C,Q1*%
X141798700Y-109664800D02*
X143098700Y-109664800D01*
X141798700Y-112564800D02*
X141798700Y-109664800D01*
X142773700Y-112564800D02*
X141798700Y-112564800D01*
X143098700Y-109664800D02*
X143098700Y-112239800D01*
X143098700Y-112239800D02*
X142773700Y-112564800D01*
%TO.C,Q2*%
X143238700Y-88593000D02*
X144538700Y-88593000D01*
X143238700Y-91493000D02*
X143238700Y-88593000D01*
X144213700Y-91493000D02*
X143238700Y-91493000D01*
X144538700Y-88593000D02*
X144538700Y-91168000D01*
X144538700Y-91168000D02*
X144213700Y-91493000D01*
%TO.C,Q3*%
X149693000Y-106434100D02*
X152268000Y-106434100D01*
X149693000Y-107734100D02*
X149693000Y-106434100D01*
X152268000Y-106434100D02*
X152593000Y-106759100D01*
X152593000Y-106759100D02*
X152593000Y-107734100D01*
X152593000Y-107734100D02*
X149693000Y-107734100D01*
%TO.C,B+*%
X117310400Y-107096400D02*
X117310400Y-114496400D01*
X117310400Y-112671400D02*
X118310400Y-112046400D01*
X117310400Y-114496400D02*
X123060400Y-114496400D01*
X118310400Y-112046400D02*
X117310400Y-111421400D01*
X123060400Y-107096400D02*
X117310400Y-107096400D01*
X123060400Y-114496400D02*
X123060400Y-107096400D01*
%TO.C,C2*%
X139655600Y-87895700D02*
X140455600Y-87895700D01*
X139655600Y-89495700D02*
X139655600Y-87895700D01*
X140455600Y-87895700D02*
X140455600Y-89495700D01*
X140455600Y-89495700D02*
X139655600Y-89495700D01*
%TO.C,J3*%
X125267200Y-87911600D02*
X125267200Y-93661600D01*
X125267200Y-93661600D02*
X132667200Y-93661600D01*
X127092200Y-87911600D02*
X127717200Y-88911600D01*
X127717200Y-88911600D02*
X128342200Y-87911600D01*
X132667200Y-87911600D02*
X125267200Y-87911600D01*
X132667200Y-93661600D02*
X132667200Y-87911600D01*
%TO.C,Q4*%
X142197200Y-106307100D02*
X144772200Y-106307100D01*
X142197200Y-107607100D02*
X142197200Y-106307100D01*
X144772200Y-106307100D02*
X145097200Y-106632100D01*
X145097200Y-106632100D02*
X145097200Y-107607100D01*
X145097200Y-107607100D02*
X142197200Y-107607100D01*
%TO.C,R6*%
X146869200Y-90793500D02*
X147669200Y-90793500D01*
X146869200Y-92393500D02*
X146869200Y-90793500D01*
X147669200Y-90793500D02*
X147669200Y-92393500D01*
X147669200Y-92393500D02*
X146869200Y-92393500D01*
%TO.C,J9*%
X158003400Y-87274400D02*
X160543400Y-87274400D01*
X158003400Y-107594400D02*
X158003400Y-87274400D01*
X159908400Y-107594400D02*
X158003400Y-107594400D01*
X160543400Y-87274400D02*
X160543400Y-106959400D01*
X160543400Y-106959400D02*
X159908400Y-107594400D01*
%TO.C,R9*%
X148977400Y-90740500D02*
X149777400Y-90740500D01*
X148977400Y-92340500D02*
X148977400Y-90740500D01*
X149777400Y-90740500D02*
X149777400Y-92340500D01*
X149777400Y-92340500D02*
X148977400Y-92340500D01*
%TO.C,F3*%
X147356700Y-87465000D02*
X150556700Y-87465000D01*
X147356700Y-89065000D02*
X147356700Y-87465000D01*
X150556700Y-87465000D02*
X150556700Y-89065000D01*
X150556700Y-89065000D02*
X147356700Y-89065000D01*
%TO.C,F4*%
X145962900Y-108470800D02*
X149162900Y-108470800D01*
X145962900Y-110070800D02*
X145962900Y-108470800D01*
X149162900Y-108470800D02*
X149162900Y-110070800D01*
X149162900Y-110070800D02*
X145962900Y-110070800D01*
%TO.C,F1*%
X141628000Y-100345400D02*
X143228000Y-100345400D01*
X141628000Y-103545400D02*
X141628000Y-100345400D01*
X143228000Y-100345400D02*
X143228000Y-103545400D01*
X143228000Y-103545400D02*
X141628000Y-103545400D01*
%TO.C,R4*%
X136048800Y-87922200D02*
X136848800Y-87922200D01*
X136048800Y-89522200D02*
X136048800Y-87922200D01*
X136848800Y-87922200D02*
X136848800Y-89522200D01*
X136848800Y-89522200D02*
X136048800Y-89522200D01*
%TO.C,J10*%
X117342800Y-96273600D02*
X117342800Y-103673600D01*
X117342800Y-101848600D02*
X118342800Y-101223600D01*
X117342800Y-103673600D02*
X123092800Y-103673600D01*
X118342800Y-101223600D02*
X117342800Y-100598600D01*
X123092800Y-96273600D02*
X117342800Y-96273600D01*
X123092800Y-103673600D02*
X123092800Y-96273600D01*
%TO.C,J7*%
X133317200Y-107011600D02*
X133317200Y-114411600D01*
X133317200Y-114411600D02*
X139067200Y-114411600D01*
X138067200Y-109461600D02*
X139067200Y-110086600D01*
X139067200Y-107011600D02*
X133317200Y-107011600D01*
X139067200Y-108836600D02*
X138067200Y-109461600D01*
X139067200Y-114411600D02*
X139067200Y-107011600D01*
%TO.C,J8*%
X173253400Y-87274400D02*
X175793400Y-87274400D01*
X173253400Y-107594400D02*
X173253400Y-87274400D01*
X175158400Y-107594400D02*
X173253400Y-107594400D01*
X175793400Y-87274400D02*
X175793400Y-106959400D01*
X175793400Y-106959400D02*
X175158400Y-107594400D01*
%TO.C,C4*%
X152284700Y-98812400D02*
X153884700Y-98812400D01*
X152284700Y-99612400D02*
X152284700Y-98812400D01*
X153884700Y-98812400D02*
X153884700Y-99612400D01*
X153884700Y-99612400D02*
X152284700Y-99612400D01*
%TO.C,R10*%
X147351800Y-111822500D02*
X148151800Y-111822500D01*
X147351800Y-113422500D02*
X147351800Y-111822500D01*
X148151800Y-111822500D02*
X148151800Y-113422500D01*
X148151800Y-113422500D02*
X147351800Y-113422500D01*
%TD*%
M02*
