%TF.GenerationSoftware,KiCad,Pcbnew,9.0.3*%
%TF.CreationDate,2025-08-24T20:12:34+09:00*%
%TF.ProjectId,mirror_Shooter_v2,6d697272-6f72-45f5-9368-6f6f7465725f,rev?*%
%TF.SameCoordinates,Original*%
%TF.FileFunction,Copper,L2,Bot*%
%TF.FilePolarity,Positive*%
%FSLAX46Y46*%
G04 Gerber Fmt 4.6, Leading zero omitted, Abs format (unit mm)*
G04 Created by KiCad (PCBNEW 9.0.3) date 2025-08-24 20:12:34*
%MOMM*%
%LPD*%
G01*
G04 APERTURE LIST*
G04 Aperture macros list*
%AMRoundRect*
0 Rectangle with rounded corners*
0 $1 Rounding radius*
0 $2 $3 $4 $5 $6 $7 $8 $9 X,Y pos of 4 corners*
0 Add a 4 corners polygon primitive as box body*
4,1,4,$2,$3,$4,$5,$6,$7,$8,$9,$2,$3,0*
0 Add four circle primitives for the rounded corners*
1,1,$1+$1,$2,$3*
1,1,$1+$1,$4,$5*
1,1,$1+$1,$6,$7*
1,1,$1+$1,$8,$9*
0 Add four rect primitives between the rounded corners*
20,1,$1+$1,$2,$3,$4,$5,0*
20,1,$1+$1,$4,$5,$6,$7,0*
20,1,$1+$1,$6,$7,$8,$9,0*
20,1,$1+$1,$8,$9,$2,$3,0*%
G04 Aperture macros list end*
%TA.AperFunction,ComponentPad*%
%ADD10RoundRect,0.250000X-0.725000X0.600000X-0.725000X-0.600000X0.725000X-0.600000X0.725000X0.600000X0*%
%TD*%
%TA.AperFunction,ComponentPad*%
%ADD11O,1.950000X1.700000*%
%TD*%
%TA.AperFunction,ComponentPad*%
%ADD12RoundRect,0.250000X0.725000X-0.600000X0.725000X0.600000X-0.725000X0.600000X-0.725000X-0.600000X0*%
%TD*%
%TA.AperFunction,ComponentPad*%
%ADD13C,2.000000*%
%TD*%
%TA.AperFunction,ComponentPad*%
%ADD14RoundRect,0.250000X0.750000X-0.600000X0.750000X0.600000X-0.750000X0.600000X-0.750000X-0.600000X0*%
%TD*%
%TA.AperFunction,ComponentPad*%
%ADD15O,2.000000X1.700000*%
%TD*%
%TA.AperFunction,ComponentPad*%
%ADD16RoundRect,0.250000X-0.600000X-0.750000X0.600000X-0.750000X0.600000X0.750000X-0.600000X0.750000X0*%
%TD*%
%TA.AperFunction,ComponentPad*%
%ADD17O,1.700000X2.000000*%
%TD*%
%TA.AperFunction,ComponentPad*%
%ADD18R,1.700000X1.700000*%
%TD*%
%TA.AperFunction,ComponentPad*%
%ADD19C,1.700000*%
%TD*%
%TA.AperFunction,ComponentPad*%
%ADD20RoundRect,0.250000X-0.750000X0.600000X-0.750000X-0.600000X0.750000X-0.600000X0.750000X0.600000X0*%
%TD*%
%TA.AperFunction,ViaPad*%
%ADD21C,0.600000*%
%TD*%
%TA.AperFunction,Conductor*%
%ADD22C,0.500000*%
%TD*%
%TA.AperFunction,Conductor*%
%ADD23C,1.000000*%
%TD*%
%TA.AperFunction,Conductor*%
%ADD24C,0.200000*%
%TD*%
%ADD25C,0.060000*%
%ADD26C,0.120000*%
%ADD27C,0.050000*%
%ADD28C,0.150000*%
%ADD29C,0.100000*%
G04 APERTURE END LIST*
D10*
%TO.P,J5,1,Pin_1*%
%TO.N,Net-(J5-Pin_1)*%
X136742200Y-97661600D03*
D11*
%TO.P,J5,2,Pin_2*%
%TO.N,GND*%
X136742200Y-100161600D03*
%TO.P,J5,3,Pin_3*%
%TO.N,/PWM2*%
X136742200Y-102661600D03*
%TD*%
D12*
%TO.P,J4,1,Pin_1*%
%TO.N,Net-(J4-Pin_1)*%
X127717200Y-102661600D03*
D11*
%TO.P,J4,2,Pin_2*%
%TO.N,GND*%
X127717200Y-100161600D03*
%TO.P,J4,3,Pin_3*%
%TO.N,/PWM1*%
X127717200Y-97661600D03*
%TD*%
D13*
%TO.P,J1,1,Pin_1*%
%TO.N,+5V*%
X151715800Y-114020000D03*
%TO.P,J1,2,Pin_2*%
%TO.N,GND*%
X143715800Y-114020000D03*
%TD*%
D14*
%TO.P,J6,1,Pin_1*%
%TO.N,Net-(J6-Pin_1)*%
X127717200Y-111961600D03*
D15*
%TO.P,J6,2,Pin_2*%
%TO.N,GND*%
X127717200Y-109461600D03*
%TD*%
D13*
%TO.P,J2,1,Pin_1*%
%TO.N,+3.3V*%
X143715800Y-96520000D03*
%TO.P,J2,2,Pin_2*%
%TO.N,GNDD*%
X147215800Y-96520000D03*
%TD*%
D14*
%TO.P,B+,1,Pin_1*%
%TO.N,+3.3V*%
X119660400Y-112046400D03*
D15*
%TO.P,B+,2,Pin_2*%
%TO.N,Net-(J10-Pin_2)*%
X119660400Y-109546400D03*
%TD*%
D16*
%TO.P,J3,1,Pin_1*%
%TO.N,/TACT*%
X127717200Y-90261600D03*
D17*
%TO.P,J3,2,Pin_2*%
%TO.N,GNDD*%
X130217200Y-90261600D03*
%TD*%
D18*
%TO.P,J9,1,Pin_1*%
%TO.N,+3.3V*%
X159273400Y-106324400D03*
D19*
%TO.P,J9,2,Pin_2*%
%TO.N,GNDD*%
X159273400Y-103784400D03*
%TO.P,J9,3,Pin_3*%
%TO.N,unconnected-(J9-Pin_3-Pad3)*%
X159273400Y-101244400D03*
%TO.P,J9,4,Pin_4*%
%TO.N,unconnected-(J9-Pin_4-Pad4)*%
X159273400Y-98704400D03*
%TO.P,J9,5,Pin_5*%
%TO.N,unconnected-(J9-Pin_5-Pad5)*%
X159273400Y-96164400D03*
%TO.P,J9,6,Pin_6*%
%TO.N,/TACT*%
X159273400Y-93624400D03*
%TO.P,J9,7,Pin_7*%
%TO.N,/PWM2*%
X159273400Y-91084400D03*
%TO.P,J9,8,Pin_8*%
%TO.N,/PWM1*%
X159273400Y-88544400D03*
%TD*%
D14*
%TO.P,J10,1,Pin_1*%
%TO.N,GNDD*%
X119692800Y-101223600D03*
D15*
%TO.P,J10,2,Pin_2*%
%TO.N,Net-(J10-Pin_2)*%
X119692800Y-98723600D03*
%TD*%
D20*
%TO.P,J7,1,Pin_1*%
%TO.N,Net-(J7-Pin_1)*%
X136717200Y-109461600D03*
D15*
%TO.P,J7,2,Pin_2*%
%TO.N,GND*%
X136717200Y-111961600D03*
%TD*%
D18*
%TO.P,J8,1,Pin_1*%
%TO.N,unconnected-(J8-Pin_1-Pad1)*%
X174523400Y-106324400D03*
D19*
%TO.P,J8,2,Pin_2*%
%TO.N,/ON1*%
X174523400Y-103784400D03*
%TO.P,J8,3,Pin_3*%
%TO.N,/ON2*%
X174523400Y-101244400D03*
%TO.P,J8,4,Pin_4*%
%TO.N,unconnected-(J8-Pin_4-Pad4)*%
X174523400Y-98704400D03*
%TO.P,J8,5,Pin_5*%
%TO.N,/ON3*%
X174523400Y-96164400D03*
%TO.P,J8,6,Pin_6*%
%TO.N,/ON4*%
X174523400Y-93624400D03*
%TO.P,J8,7,Pin_7*%
%TO.N,unconnected-(J8-Pin_7-Pad7)*%
X174523400Y-91084400D03*
%TO.P,J8,8,Pin_8*%
%TO.N,unconnected-(J8-Pin_8-Pad8)*%
X174523400Y-88544400D03*
%TD*%
D21*
%TO.N,Net-(J7-Pin_1)*%
X152603200Y-91313000D03*
X141528800Y-105232200D03*
%TO.N,Net-(J6-Pin_1)*%
X144449800Y-111125000D03*
X140106400Y-112953800D03*
%TO.N,+3.3V*%
X136677400Y-92506800D03*
X132410200Y-95935800D03*
X149479000Y-95427800D03*
%TO.N,+5V*%
X140665200Y-107086400D03*
X141909800Y-91414600D03*
%TO.N,Net-(J10-Pin_2)*%
X134594600Y-87630000D03*
%TO.N,Net-(J5-Pin_1)*%
X148200000Y-98700000D03*
X141800000Y-96800000D03*
%TO.N,GNDD*%
X138176000Y-87731600D03*
X141307956Y-102113600D03*
X125044200Y-105892600D03*
X134747000Y-89103200D03*
X150393400Y-98552000D03*
%TO.N,GND*%
X155371800Y-103200200D03*
X154686000Y-105460800D03*
X145923000Y-102412800D03*
X153974800Y-108432600D03*
%TO.N,/TACT*%
X143002000Y-94716600D03*
%TO.N,/PWM2*%
X162050000Y-105600000D03*
X163900000Y-115200000D03*
X161600000Y-98050000D03*
%TO.N,/ON1*%
X153082707Y-97617293D03*
%TO.N,/ON4*%
X146507200Y-114858800D03*
%TD*%
D22*
%TO.N,Net-(J7-Pin_1)*%
X140950000Y-104450200D02*
X140356956Y-103857156D01*
X152603200Y-93575600D02*
X152603200Y-91313000D01*
X141528800Y-104450200D02*
X140950000Y-104450200D01*
X152289400Y-93889400D02*
X152603200Y-93575600D01*
X140356956Y-95226762D02*
X141694318Y-93889400D01*
X141528800Y-105232200D02*
X141528800Y-104450200D01*
X141694318Y-93889400D02*
X152289400Y-93889400D01*
X140356956Y-103857156D02*
X140356956Y-95226762D01*
%TO.N,Net-(J6-Pin_1)*%
X141935200Y-111125000D02*
X140106400Y-112953800D01*
X144449800Y-111125000D02*
X141935200Y-111125000D01*
D23*
%TO.N,+3.3V*%
X134315200Y-94869000D02*
X136677400Y-92506800D01*
X133477000Y-94869000D02*
X134315200Y-94869000D01*
X156684600Y-103735600D02*
X159273400Y-106324400D01*
X149479000Y-95427800D02*
X156684600Y-102633400D01*
X156684600Y-102633400D02*
X156684600Y-103735600D01*
X132410200Y-95935800D02*
X133477000Y-94869000D01*
D22*
%TO.N,+5V*%
X140527800Y-106212400D02*
X140527800Y-106949000D01*
X139039600Y-95199200D02*
X139039600Y-104724200D01*
X141909800Y-92329000D02*
X139039600Y-95199200D01*
D23*
X144782200Y-107086400D02*
X151715800Y-114020000D01*
D22*
X139039600Y-104724200D02*
X140527800Y-106212400D01*
D23*
X140665200Y-107086400D02*
X144782200Y-107086400D01*
D22*
X141909800Y-91414600D02*
X141909800Y-92329000D01*
D23*
X140527800Y-106949000D02*
X140665200Y-107086400D01*
%TO.N,Net-(J10-Pin_2)*%
X117449600Y-107335600D02*
X117449600Y-99822000D01*
X118548000Y-98723600D02*
X119692800Y-98723600D01*
X119692800Y-97757200D02*
X125600000Y-91850000D01*
X117449600Y-99822000D02*
X118548000Y-98723600D01*
X125600000Y-87650000D02*
X134574600Y-87650000D01*
X134574600Y-87650000D02*
X134594600Y-87630000D01*
X119692800Y-98723600D02*
X119692800Y-97757200D01*
X125600000Y-91850000D02*
X125600000Y-87650000D01*
X119660400Y-109546400D02*
X117449600Y-107335600D01*
D22*
%TO.N,Net-(J5-Pin_1)*%
X141800000Y-96800000D02*
X143700000Y-98700000D01*
X143700000Y-98700000D02*
X148200000Y-98700000D01*
D23*
%TO.N,GNDD*%
X157400000Y-107875400D02*
X160824400Y-107875400D01*
X160824400Y-104690400D02*
X159918400Y-103784400D01*
X154675400Y-110600000D02*
X157400000Y-107875400D01*
X119692800Y-101223600D02*
X119692800Y-101242800D01*
X159918400Y-103784400D02*
X159273400Y-103784400D01*
X127558800Y-92811600D02*
X128600200Y-92811600D01*
D24*
X119692800Y-101223600D02*
X119697400Y-101219000D01*
D23*
X160824400Y-107875400D02*
X160824400Y-104690400D01*
X119697400Y-101219000D02*
X124250000Y-101219000D01*
X150393400Y-103174800D02*
X155094000Y-107875400D01*
X141307956Y-102113600D02*
X143813600Y-102113600D01*
X155094000Y-107875400D02*
X157400000Y-107875400D01*
X143813600Y-102113600D02*
X152300000Y-110600000D01*
X134747000Y-89103200D02*
X136804400Y-89103200D01*
X119692800Y-101242800D02*
X124342600Y-105892600D01*
X128600200Y-92811600D02*
X130217200Y-91194600D01*
X136804400Y-89103200D02*
X138176000Y-87731600D01*
X124250000Y-96120400D02*
X127558800Y-92811600D01*
X152300000Y-110600000D02*
X154675400Y-110600000D01*
X130217200Y-91194600D02*
X130217200Y-90261600D01*
X150393400Y-98552000D02*
X150393400Y-103174800D01*
X124250000Y-101219000D02*
X124250000Y-96120400D01*
X124342600Y-105892600D02*
X125044200Y-105892600D01*
D22*
%TO.N,GND*%
X126100000Y-107844400D02*
X127717200Y-109461600D01*
X127717200Y-109461600D02*
X130086400Y-109461600D01*
X136717200Y-111961600D02*
X139106400Y-114350800D01*
X130086400Y-109461600D02*
X132586400Y-111961600D01*
X154686000Y-103886000D02*
X155371800Y-103200200D01*
X127717200Y-100161600D02*
X126100000Y-101778800D01*
X127717200Y-100161600D02*
X136742200Y-100161600D01*
X126100000Y-101778800D02*
X126100000Y-107844400D01*
D24*
X143385000Y-114350800D02*
X143715800Y-114020000D01*
D22*
X132586400Y-111961600D02*
X136717200Y-111961600D01*
X147955000Y-102412800D02*
X153974800Y-108432600D01*
X145923000Y-102412800D02*
X147955000Y-102412800D01*
X154686000Y-105460800D02*
X154686000Y-103886000D01*
X139106400Y-114350800D02*
X143385000Y-114350800D01*
D24*
%TO.N,/TACT*%
X158397800Y-94500000D02*
X159273400Y-93624400D01*
X143002000Y-94716600D02*
X143218600Y-94500000D01*
X143218600Y-94500000D02*
X158397800Y-94500000D01*
%TO.N,/PWM1*%
X136638800Y-91250000D02*
X137938800Y-89950000D01*
X157867800Y-89950000D02*
X159273400Y-88544400D01*
X133069415Y-91250000D02*
X136638800Y-91250000D01*
X137938800Y-89950000D02*
X157867800Y-89950000D01*
X127717200Y-97661600D02*
X127717200Y-96602215D01*
X127717200Y-96602215D02*
X133069415Y-91250000D01*
%TO.N,/PWM2*%
X145906200Y-109343186D02*
X144450414Y-107887400D01*
X145906200Y-115107743D02*
X145906200Y-109343186D01*
X139726800Y-107280785D02*
X138776785Y-107280785D01*
X138776785Y-107280785D02*
X136742200Y-105246200D01*
X162450000Y-98900000D02*
X161600000Y-98050000D01*
X162050000Y-105600000D02*
X162450000Y-105200000D01*
X146520457Y-115722000D02*
X145906200Y-115107743D01*
X163378000Y-115722000D02*
X163900000Y-115200000D01*
X144450414Y-107887400D02*
X140333414Y-107887400D01*
X162450000Y-105200000D02*
X162450000Y-98900000D01*
X136742200Y-105246200D02*
X136742200Y-102661600D01*
X146520457Y-115722000D02*
X163378000Y-115722000D01*
X140333414Y-107887400D02*
X139726800Y-107280785D01*
%TO.N,/ON1*%
X161815400Y-97315400D02*
X168284400Y-103784400D01*
X153082707Y-97555093D02*
X153322400Y-97315400D01*
X153082707Y-97617293D02*
X153082707Y-97555093D01*
X153322400Y-97315400D02*
X161815400Y-97315400D01*
X168284400Y-103784400D02*
X174523400Y-103784400D01*
%TO.N,/ON4*%
X175000160Y-105173400D02*
X175000160Y-104935400D01*
X165579000Y-115321000D02*
X173424600Y-107475400D01*
X146969400Y-115321000D02*
X163211900Y-115321000D01*
X146507200Y-114858800D02*
X146969400Y-115321000D01*
X163651057Y-114599000D02*
X164148943Y-114599000D01*
X173372400Y-107475400D02*
X173372400Y-105173400D01*
X163299000Y-114951057D02*
X163651057Y-114599000D01*
X173424600Y-107475400D02*
X173372400Y-107475400D01*
X173372400Y-105173400D02*
X175000160Y-105173400D01*
X175000160Y-104935400D02*
X175674400Y-104261160D01*
X164501000Y-114951057D02*
X164501000Y-115321000D01*
X175674400Y-104261160D02*
X175674400Y-94775400D01*
X163299000Y-115233900D02*
X163299000Y-114951057D01*
X164148943Y-114599000D02*
X164501000Y-114951057D01*
X175674400Y-94775400D02*
X174523400Y-93624400D01*
X163211900Y-115321000D02*
X163299000Y-115233900D01*
X164501000Y-115321000D02*
X165579000Y-115321000D01*
%TD*%
%TA.AperFunction,Conductor*%
%TO.N,GNDD*%
G36*
X177895439Y-86100285D02*
G01*
X177941194Y-86153089D01*
X177952400Y-86204600D01*
X177952400Y-116157200D01*
X177932715Y-116224239D01*
X177879911Y-116269994D01*
X177828400Y-116281200D01*
X163967397Y-116281200D01*
X163946151Y-116274961D01*
X163924063Y-116273382D01*
X163913279Y-116265309D01*
X163900358Y-116261515D01*
X163885858Y-116244781D01*
X163868130Y-116231510D01*
X163863422Y-116218889D01*
X163854603Y-116208711D01*
X163851451Y-116186793D01*
X163843713Y-116166046D01*
X163846575Y-116152885D01*
X163844659Y-116139553D01*
X163853858Y-116119409D01*
X163858565Y-116097773D01*
X163871833Y-116080047D01*
X163873684Y-116075997D01*
X163879716Y-116069519D01*
X163914661Y-116034574D01*
X163975984Y-116001089D01*
X163978151Y-116000638D01*
X164053052Y-115985738D01*
X164133497Y-115969737D01*
X164249950Y-115921501D01*
X164278622Y-115909625D01*
X164348091Y-115902156D01*
X164358163Y-115904409D01*
X164421943Y-115921500D01*
X165492331Y-115921500D01*
X165492347Y-115921501D01*
X165499943Y-115921501D01*
X165658054Y-115921501D01*
X165658057Y-115921501D01*
X165810785Y-115880577D01*
X165862879Y-115850500D01*
X165947716Y-115801520D01*
X166059520Y-115689716D01*
X166059520Y-115689714D01*
X166069724Y-115679511D01*
X166069728Y-115679506D01*
X169704123Y-112045111D01*
X172317300Y-112045111D01*
X172317300Y-112287688D01*
X172345226Y-112499815D01*
X172348962Y-112528189D01*
X172353347Y-112544554D01*
X172411747Y-112762504D01*
X172495927Y-112965731D01*
X172504576Y-112986612D01*
X172625864Y-113196689D01*
X172625866Y-113196692D01*
X172625867Y-113196693D01*
X172773533Y-113389136D01*
X172773539Y-113389143D01*
X172945056Y-113560660D01*
X172945062Y-113560665D01*
X173137511Y-113708336D01*
X173347588Y-113829624D01*
X173571700Y-113922454D01*
X173806011Y-113985238D01*
X173986386Y-114008984D01*
X174046511Y-114016900D01*
X174046512Y-114016900D01*
X174289089Y-114016900D01*
X174337188Y-114010567D01*
X174529589Y-113985238D01*
X174763900Y-113922454D01*
X174988012Y-113829624D01*
X175198089Y-113708336D01*
X175390538Y-113560665D01*
X175562065Y-113389138D01*
X175709736Y-113196689D01*
X175831024Y-112986612D01*
X175923854Y-112762500D01*
X175986638Y-112528189D01*
X176018300Y-112287688D01*
X176018300Y-112045112D01*
X175986638Y-111804611D01*
X175923854Y-111570300D01*
X175831024Y-111346188D01*
X175709736Y-111136111D01*
X175588217Y-110977744D01*
X175562066Y-110943663D01*
X175562060Y-110943656D01*
X175390543Y-110772139D01*
X175390536Y-110772133D01*
X175198093Y-110624467D01*
X175198092Y-110624466D01*
X175198089Y-110624464D01*
X174988012Y-110503176D01*
X174960314Y-110491703D01*
X174763904Y-110410347D01*
X174558329Y-110355263D01*
X174529589Y-110347562D01*
X174529588Y-110347561D01*
X174529585Y-110347561D01*
X174289089Y-110315900D01*
X174289088Y-110315900D01*
X174046512Y-110315900D01*
X174046511Y-110315900D01*
X173806014Y-110347561D01*
X173571695Y-110410347D01*
X173347594Y-110503173D01*
X173347585Y-110503177D01*
X173137506Y-110624467D01*
X172945063Y-110772133D01*
X172945056Y-110772139D01*
X172773539Y-110943656D01*
X172773533Y-110943663D01*
X172625867Y-111136106D01*
X172504577Y-111346185D01*
X172504573Y-111346194D01*
X172411747Y-111570295D01*
X172348961Y-111804614D01*
X172317300Y-112045111D01*
X169704123Y-112045111D01*
X173783106Y-107966128D01*
X173783111Y-107966124D01*
X173793314Y-107955920D01*
X173793316Y-107955920D01*
X173905120Y-107844116D01*
X173967021Y-107736900D01*
X173986727Y-107711219D01*
X173986728Y-107711218D01*
X174048051Y-107677733D01*
X174074409Y-107674899D01*
X175421271Y-107674899D01*
X175421272Y-107674899D01*
X175480883Y-107668491D01*
X175615731Y-107618196D01*
X175730946Y-107531946D01*
X175817196Y-107416731D01*
X175867491Y-107281883D01*
X175873900Y-107222273D01*
X175873899Y-105426528D01*
X175867491Y-105366917D01*
X175867339Y-105366510D01*
X175817197Y-105232071D01*
X175817195Y-105232068D01*
X175808780Y-105220827D01*
X175768361Y-105166835D01*
X175743945Y-105101374D01*
X175758796Y-105033101D01*
X175779945Y-105004848D01*
X176032906Y-104751888D01*
X176032911Y-104751884D01*
X176043114Y-104741680D01*
X176043116Y-104741680D01*
X176154920Y-104629876D01*
X176233977Y-104492944D01*
X176265359Y-104375823D01*
X176274900Y-104340218D01*
X176274900Y-104182103D01*
X176274900Y-94864460D01*
X176274901Y-94864447D01*
X176274901Y-94696345D01*
X176274901Y-94696343D01*
X176233977Y-94543615D01*
X176205039Y-94493495D01*
X176154920Y-94406684D01*
X176043116Y-94294880D01*
X176043115Y-94294879D01*
X176038785Y-94290549D01*
X176038774Y-94290539D01*
X175857157Y-94108922D01*
X175823672Y-94047599D01*
X175826907Y-93982923D01*
X175840646Y-93940643D01*
X175873900Y-93730687D01*
X175873900Y-93518113D01*
X175840646Y-93308157D01*
X175774957Y-93105988D01*
X175678451Y-92916584D01*
X175678449Y-92916581D01*
X175678448Y-92916579D01*
X175553509Y-92744613D01*
X175403186Y-92594290D01*
X175231220Y-92469351D01*
X175230515Y-92468991D01*
X175222454Y-92464885D01*
X175171659Y-92416912D01*
X175154863Y-92349092D01*
X175177399Y-92282956D01*
X175222454Y-92243915D01*
X175231216Y-92239451D01*
X175264921Y-92214963D01*
X175403186Y-92114509D01*
X175403188Y-92114506D01*
X175403192Y-92114504D01*
X175553504Y-91964192D01*
X175553506Y-91964188D01*
X175553509Y-91964186D01*
X175678448Y-91792220D01*
X175678447Y-91792220D01*
X175678451Y-91792216D01*
X175774957Y-91602812D01*
X175840646Y-91400643D01*
X175873900Y-91190687D01*
X175873900Y-90978113D01*
X175840646Y-90768157D01*
X175774957Y-90565988D01*
X175678451Y-90376584D01*
X175678449Y-90376581D01*
X175678448Y-90376579D01*
X175553509Y-90204613D01*
X175403186Y-90054290D01*
X175231220Y-89929351D01*
X175230515Y-89928991D01*
X175222454Y-89924885D01*
X175171659Y-89876912D01*
X175154863Y-89809092D01*
X175177399Y-89742956D01*
X175222454Y-89703915D01*
X175231216Y-89699451D01*
X175253189Y-89683486D01*
X175403186Y-89574509D01*
X175403188Y-89574506D01*
X175403192Y-89574504D01*
X175553504Y-89424192D01*
X175553506Y-89424188D01*
X175553509Y-89424186D01*
X175678448Y-89252220D01*
X175678447Y-89252220D01*
X175678451Y-89252216D01*
X175774957Y-89062812D01*
X175840646Y-88860643D01*
X175873900Y-88650687D01*
X175873900Y-88438113D01*
X175840646Y-88228157D01*
X175774957Y-88025988D01*
X175678451Y-87836584D01*
X175678449Y-87836581D01*
X175678448Y-87836579D01*
X175553509Y-87664613D01*
X175403186Y-87514290D01*
X175231220Y-87389351D01*
X175041814Y-87292844D01*
X175041813Y-87292843D01*
X175041812Y-87292843D01*
X174839643Y-87227154D01*
X174839641Y-87227153D01*
X174839640Y-87227153D01*
X174678357Y-87201608D01*
X174629687Y-87193900D01*
X174417113Y-87193900D01*
X174368442Y-87201608D01*
X174207160Y-87227153D01*
X174004985Y-87292844D01*
X173815579Y-87389351D01*
X173643613Y-87514290D01*
X173493290Y-87664613D01*
X173368351Y-87836579D01*
X173271844Y-88025985D01*
X173206153Y-88228160D01*
X173172900Y-88438113D01*
X173172900Y-88650686D01*
X173205371Y-88855703D01*
X173206154Y-88860643D01*
X173265387Y-89042944D01*
X173271844Y-89062814D01*
X173368351Y-89252220D01*
X173493290Y-89424186D01*
X173643613Y-89574509D01*
X173815582Y-89699450D01*
X173824346Y-89703916D01*
X173875142Y-89751891D01*
X173891936Y-89819712D01*
X173869398Y-89885847D01*
X173824346Y-89924884D01*
X173815582Y-89929349D01*
X173643613Y-90054290D01*
X173493290Y-90204613D01*
X173368351Y-90376579D01*
X173271844Y-90565985D01*
X173206153Y-90768160D01*
X173172900Y-90978113D01*
X173172900Y-91190686D01*
X173204760Y-91391846D01*
X173206154Y-91400643D01*
X173260459Y-91567777D01*
X173271844Y-91602814D01*
X173368351Y-91792220D01*
X173493290Y-91964186D01*
X173643613Y-92114509D01*
X173815582Y-92239450D01*
X173824346Y-92243916D01*
X173875142Y-92291891D01*
X173891936Y-92359712D01*
X173869398Y-92425847D01*
X173824346Y-92464884D01*
X173815582Y-92469349D01*
X173643613Y-92594290D01*
X173493290Y-92744613D01*
X173368351Y-92916579D01*
X173271844Y-93105985D01*
X173206153Y-93308160D01*
X173172900Y-93518113D01*
X173172900Y-93730686D01*
X173206153Y-93940639D01*
X173206153Y-93940641D01*
X173206154Y-93940643D01*
X173260831Y-94108922D01*
X173271844Y-94142814D01*
X173368351Y-94332220D01*
X173493290Y-94504186D01*
X173643613Y-94654509D01*
X173815582Y-94779450D01*
X173824346Y-94783916D01*
X173875142Y-94831891D01*
X173891936Y-94899712D01*
X173869398Y-94965847D01*
X173824346Y-95004884D01*
X173815582Y-95009349D01*
X173643613Y-95134290D01*
X173493290Y-95284613D01*
X173368351Y-95456579D01*
X173271844Y-95645985D01*
X173271843Y-95645987D01*
X173271843Y-95645988D01*
X173206154Y-95848157D01*
X173172900Y-96058113D01*
X173172900Y-96270687D01*
X173173272Y-96273033D01*
X173201537Y-96451497D01*
X173206154Y-96480643D01*
X173271662Y-96682256D01*
X173271844Y-96682814D01*
X173368351Y-96872220D01*
X173493290Y-97044186D01*
X173643613Y-97194509D01*
X173815582Y-97319450D01*
X173824346Y-97323916D01*
X173875142Y-97371891D01*
X173891936Y-97439712D01*
X173869398Y-97505847D01*
X173824346Y-97544884D01*
X173815582Y-97549349D01*
X173643613Y-97674290D01*
X173493290Y-97824613D01*
X173368351Y-97996579D01*
X173271844Y-98185985D01*
X173271843Y-98185987D01*
X173271843Y-98185988D01*
X173254578Y-98239124D01*
X173206153Y-98388160D01*
X173193746Y-98466498D01*
X173172900Y-98598113D01*
X173172900Y-98810687D01*
X173175941Y-98829886D01*
X173203921Y-99006549D01*
X173206154Y-99020643D01*
X173264462Y-99200097D01*
X173271844Y-99222814D01*
X173368351Y-99412220D01*
X173493290Y-99584186D01*
X173643613Y-99734509D01*
X173815582Y-99859450D01*
X173824346Y-99863916D01*
X173875142Y-99911891D01*
X173891936Y-99979712D01*
X173869398Y-100045847D01*
X173824346Y-100084884D01*
X173815582Y-100089349D01*
X173643613Y-100214290D01*
X173493290Y-100364613D01*
X173368351Y-100536579D01*
X173271844Y-100725985D01*
X173206153Y-100928160D01*
X173172900Y-101138113D01*
X173172900Y-101350686D01*
X173201396Y-101530607D01*
X173206154Y-101560643D01*
X173265167Y-101742266D01*
X173271844Y-101762814D01*
X173368351Y-101952220D01*
X173493290Y-102124186D01*
X173643613Y-102274509D01*
X173815582Y-102399450D01*
X173824346Y-102403916D01*
X173875142Y-102451891D01*
X173891936Y-102519712D01*
X173869398Y-102585847D01*
X173824346Y-102624884D01*
X173815582Y-102629349D01*
X173643613Y-102754290D01*
X173493290Y-102904613D01*
X173368348Y-103076584D01*
X173368347Y-103076585D01*
X173348165Y-103116195D01*
X173300191Y-103166991D01*
X173237681Y-103183900D01*
X168584498Y-103183900D01*
X168517459Y-103164215D01*
X168496817Y-103147581D01*
X162302990Y-96953755D01*
X162302988Y-96953752D01*
X162184117Y-96834881D01*
X162184116Y-96834880D01*
X162085078Y-96777701D01*
X162085077Y-96777700D01*
X162047188Y-96755825D01*
X162047185Y-96755823D01*
X162047184Y-96755822D01*
X162047183Y-96755822D01*
X161991281Y-96740843D01*
X161894457Y-96714899D01*
X161736343Y-96714899D01*
X161728747Y-96714899D01*
X161728731Y-96714900D01*
X160685202Y-96714900D01*
X160618163Y-96695215D01*
X160572408Y-96642411D01*
X160562464Y-96573253D01*
X160567271Y-96552582D01*
X160575493Y-96527278D01*
X160590646Y-96480643D01*
X160623900Y-96270687D01*
X160623900Y-96058113D01*
X160590646Y-95848157D01*
X160524957Y-95645988D01*
X160428451Y-95456584D01*
X160428449Y-95456581D01*
X160428448Y-95456579D01*
X160303509Y-95284613D01*
X160153186Y-95134290D01*
X159981220Y-95009351D01*
X159980515Y-95008991D01*
X159972454Y-95004885D01*
X159921659Y-94956912D01*
X159904863Y-94889092D01*
X159927399Y-94822956D01*
X159972454Y-94783915D01*
X159981216Y-94779451D01*
X160073520Y-94712389D01*
X160153186Y-94654509D01*
X160153188Y-94654506D01*
X160153192Y-94654504D01*
X160303504Y-94504192D01*
X160303506Y-94504188D01*
X160303509Y-94504186D01*
X160428448Y-94332220D01*
X160428447Y-94332220D01*
X160428451Y-94332216D01*
X160524957Y-94142812D01*
X160590646Y-93940643D01*
X160623900Y-93730687D01*
X160623900Y-93518113D01*
X160590646Y-93308157D01*
X160524957Y-93105988D01*
X160428451Y-92916584D01*
X160428449Y-92916581D01*
X160428448Y-92916579D01*
X160303509Y-92744613D01*
X160153186Y-92594290D01*
X159981220Y-92469351D01*
X159980515Y-92468991D01*
X159972454Y-92464885D01*
X159921659Y-92416912D01*
X159904863Y-92349092D01*
X159927399Y-92282956D01*
X159972454Y-92243915D01*
X159981216Y-92239451D01*
X160014921Y-92214963D01*
X160153186Y-92114509D01*
X160153188Y-92114506D01*
X160153192Y-92114504D01*
X160303504Y-91964192D01*
X160303506Y-91964188D01*
X160303509Y-91964186D01*
X160428448Y-91792220D01*
X160428447Y-91792220D01*
X160428451Y-91792216D01*
X160524957Y-91602812D01*
X160590646Y-91400643D01*
X160623900Y-91190687D01*
X160623900Y-90978113D01*
X160590646Y-90768157D01*
X160524957Y-90565988D01*
X160428451Y-90376584D01*
X160428449Y-90376581D01*
X160428448Y-90376579D01*
X160303509Y-90204613D01*
X160153186Y-90054290D01*
X159981220Y-89929351D01*
X159980515Y-89928991D01*
X159972454Y-89924885D01*
X159921659Y-89876912D01*
X159904863Y-89809092D01*
X159927399Y-89742956D01*
X159972454Y-89703915D01*
X159981216Y-89699451D01*
X160003189Y-89683486D01*
X160153186Y-89574509D01*
X160153188Y-89574506D01*
X160153192Y-89574504D01*
X160303504Y-89424192D01*
X160303506Y-89424188D01*
X160303509Y-89424186D01*
X160428448Y-89252220D01*
X160428447Y-89252220D01*
X160428451Y-89252216D01*
X160524957Y-89062812D01*
X160590646Y-88860643D01*
X160623900Y-88650687D01*
X160623900Y-88438113D01*
X160590646Y-88228157D01*
X160524957Y-88025988D01*
X160428451Y-87836584D01*
X160428449Y-87836581D01*
X160428448Y-87836579D01*
X160303509Y-87664613D01*
X160153186Y-87514290D01*
X159981220Y-87389351D01*
X159791814Y-87292844D01*
X159791813Y-87292843D01*
X159791812Y-87292843D01*
X159589643Y-87227154D01*
X159589641Y-87227153D01*
X159589640Y-87227153D01*
X159428357Y-87201608D01*
X159379687Y-87193900D01*
X159167113Y-87193900D01*
X159118442Y-87201608D01*
X158957160Y-87227153D01*
X158754985Y-87292844D01*
X158565579Y-87389351D01*
X158393613Y-87514290D01*
X158243290Y-87664613D01*
X158118351Y-87836579D01*
X158021844Y-88025985D01*
X157956153Y-88228160D01*
X157922900Y-88438113D01*
X157922900Y-88650686D01*
X157956154Y-88860644D01*
X157956154Y-88860647D01*
X157969891Y-88902923D01*
X157971886Y-88972764D01*
X157939641Y-89028922D01*
X157655382Y-89313182D01*
X157594062Y-89346666D01*
X157567703Y-89349500D01*
X138025470Y-89349500D01*
X138025454Y-89349499D01*
X138017858Y-89349499D01*
X137859743Y-89349499D01*
X137783379Y-89369961D01*
X137707014Y-89390423D01*
X137707009Y-89390426D01*
X137570090Y-89469475D01*
X137570082Y-89469481D01*
X136426384Y-90613181D01*
X136365061Y-90646666D01*
X136338703Y-90649500D01*
X133156084Y-90649500D01*
X133156068Y-90649499D01*
X133148472Y-90649499D01*
X132990358Y-90649499D01*
X132883002Y-90678265D01*
X132837625Y-90690424D01*
X132837624Y-90690425D01*
X132787511Y-90719359D01*
X132787510Y-90719360D01*
X132773368Y-90727525D01*
X132700700Y-90769479D01*
X132700697Y-90769481D01*
X127236681Y-96233497D01*
X127236677Y-96233502D01*
X127191878Y-96311097D01*
X127191877Y-96311101D01*
X127172629Y-96344439D01*
X127122061Y-96392654D01*
X127103563Y-96400368D01*
X127073786Y-96410043D01*
X126884379Y-96506551D01*
X126712413Y-96631490D01*
X126562090Y-96781813D01*
X126437151Y-96953779D01*
X126340644Y-97143185D01*
X126274953Y-97345360D01*
X126255340Y-97469192D01*
X126241700Y-97555313D01*
X126241700Y-97767887D01*
X126244195Y-97783637D01*
X126271921Y-97958697D01*
X126274954Y-97977843D01*
X126338733Y-98174135D01*
X126340644Y-98180014D01*
X126437151Y-98369420D01*
X126562090Y-98541386D01*
X126712409Y-98691705D01*
X126712414Y-98691709D01*
X126876993Y-98811282D01*
X126919659Y-98866611D01*
X126925638Y-98936225D01*
X126893033Y-98998020D01*
X126876993Y-99011918D01*
X126712414Y-99131490D01*
X126712409Y-99131494D01*
X126562090Y-99281813D01*
X126437151Y-99453779D01*
X126340644Y-99643185D01*
X126274953Y-99845360D01*
X126241700Y-100055313D01*
X126241700Y-100267886D01*
X126273907Y-100471237D01*
X126264952Y-100540531D01*
X126239115Y-100578316D01*
X125517050Y-101300380D01*
X125517044Y-101300388D01*
X125467812Y-101374068D01*
X125467813Y-101374069D01*
X125434921Y-101423296D01*
X125434914Y-101423308D01*
X125378342Y-101559886D01*
X125378340Y-101559892D01*
X125349500Y-101704879D01*
X125349500Y-101704882D01*
X125349500Y-107918318D01*
X125349500Y-107918320D01*
X125349499Y-107918320D01*
X125378340Y-108063307D01*
X125378343Y-108063317D01*
X125434914Y-108199892D01*
X125449840Y-108222230D01*
X125449841Y-108222233D01*
X125517046Y-108322814D01*
X125517052Y-108322821D01*
X126218204Y-109023971D01*
X126251689Y-109085294D01*
X126249924Y-109140333D01*
X126251092Y-109140614D01*
X126249954Y-109145353D01*
X126216700Y-109355313D01*
X126216700Y-109567887D01*
X126249954Y-109777843D01*
X126277507Y-109862643D01*
X126315644Y-109980014D01*
X126412151Y-110169420D01*
X126537090Y-110341386D01*
X126675905Y-110480201D01*
X126709390Y-110541524D01*
X126704406Y-110611216D01*
X126662534Y-110667149D01*
X126653321Y-110673421D01*
X126498542Y-110768889D01*
X126374489Y-110892942D01*
X126282387Y-111042263D01*
X126282386Y-111042266D01*
X126227201Y-111208803D01*
X126227201Y-111208804D01*
X126227200Y-111208804D01*
X126216700Y-111311583D01*
X126216700Y-112611601D01*
X126216701Y-112611618D01*
X126227200Y-112714396D01*
X126227201Y-112714399D01*
X126269282Y-112841388D01*
X126282386Y-112880934D01*
X126374488Y-113030256D01*
X126498544Y-113154312D01*
X126647866Y-113246414D01*
X126814403Y-113301599D01*
X126917191Y-113312100D01*
X128517208Y-113312099D01*
X128619997Y-113301599D01*
X128786534Y-113246414D01*
X128935856Y-113154312D01*
X129059912Y-113030256D01*
X129152014Y-112880934D01*
X129207199Y-112714397D01*
X129217700Y-112611609D01*
X129217699Y-111311592D01*
X129215861Y-111293603D01*
X129207199Y-111208803D01*
X129207198Y-111208800D01*
X129183111Y-111136111D01*
X129152014Y-111042266D01*
X129059912Y-110892944D01*
X128935856Y-110768888D01*
X128786534Y-110676786D01*
X128786533Y-110676785D01*
X128781078Y-110673421D01*
X128734354Y-110621473D01*
X128723131Y-110552510D01*
X128750975Y-110488428D01*
X128758472Y-110480223D01*
X128897304Y-110341392D01*
X128922888Y-110306177D01*
X128954103Y-110263215D01*
X129009433Y-110220549D01*
X129054421Y-110212100D01*
X129724170Y-110212100D01*
X129791209Y-110231785D01*
X129811851Y-110248419D01*
X132107986Y-112544554D01*
X132137458Y-112564245D01*
X132181670Y-112593786D01*
X132230905Y-112626684D01*
X132230906Y-112626684D01*
X132230907Y-112626685D01*
X132230909Y-112626686D01*
X132367482Y-112683256D01*
X132367487Y-112683258D01*
X132367491Y-112683258D01*
X132367492Y-112683259D01*
X132512479Y-112712100D01*
X132512482Y-112712100D01*
X132512483Y-112712100D01*
X132660317Y-112712100D01*
X135379979Y-112712100D01*
X135447018Y-112731785D01*
X135480297Y-112763215D01*
X135537092Y-112841388D01*
X135687413Y-112991709D01*
X135859379Y-113116648D01*
X135859381Y-113116649D01*
X135859384Y-113116651D01*
X136048788Y-113213157D01*
X136250957Y-113278846D01*
X136460913Y-113312100D01*
X136460914Y-113312100D01*
X136954970Y-113312100D01*
X137022009Y-113331785D01*
X137042651Y-113348419D01*
X138627978Y-114933747D01*
X138627985Y-114933753D01*
X138700265Y-114982048D01*
X138700267Y-114982049D01*
X138700270Y-114982051D01*
X138750905Y-115015884D01*
X138750906Y-115015884D01*
X138750907Y-115015885D01*
X138887482Y-115072456D01*
X138887487Y-115072458D01*
X138887491Y-115072458D01*
X138887492Y-115072459D01*
X139032479Y-115101300D01*
X139032482Y-115101300D01*
X139032483Y-115101300D01*
X139180317Y-115101300D01*
X142623711Y-115101300D01*
X142690750Y-115120985D01*
X142711392Y-115137619D01*
X142738290Y-115164517D01*
X142929367Y-115303343D01*
X143000384Y-115339528D01*
X143139803Y-115410566D01*
X143139805Y-115410566D01*
X143139808Y-115410568D01*
X143260212Y-115449689D01*
X143364431Y-115483553D01*
X143597703Y-115520500D01*
X143597708Y-115520500D01*
X143833897Y-115520500D01*
X144067168Y-115483553D01*
X144089001Y-115476459D01*
X144291792Y-115410568D01*
X144502233Y-115303343D01*
X144693310Y-115164517D01*
X144860317Y-114997510D01*
X144999143Y-114806433D01*
X145071215Y-114664982D01*
X145119189Y-114614187D01*
X145187010Y-114597392D01*
X145253145Y-114619929D01*
X145296597Y-114674644D01*
X145305700Y-114721278D01*
X145305700Y-115021073D01*
X145305699Y-115021091D01*
X145305699Y-115186797D01*
X145305698Y-115186797D01*
X145346623Y-115339528D01*
X145360796Y-115364076D01*
X145360795Y-115364076D01*
X145360796Y-115364077D01*
X145425675Y-115476452D01*
X145425681Y-115476460D01*
X145544549Y-115595328D01*
X145544555Y-115595333D01*
X146018740Y-116069519D01*
X146052225Y-116130842D01*
X146047241Y-116200534D01*
X146005369Y-116256467D01*
X145939905Y-116280884D01*
X145931059Y-116281200D01*
X116125800Y-116281200D01*
X116058761Y-116261515D01*
X116013006Y-116208711D01*
X116001800Y-116157200D01*
X116001800Y-99723455D01*
X116449100Y-99723455D01*
X116449100Y-99723459D01*
X116449100Y-107434141D01*
X116464701Y-107512570D01*
X116487549Y-107627436D01*
X116496689Y-107649501D01*
X116500341Y-107658319D01*
X116500342Y-107658321D01*
X116562964Y-107809507D01*
X116562971Y-107809520D01*
X116672459Y-107973380D01*
X116672460Y-107973381D01*
X116672461Y-107973382D01*
X116811818Y-108112739D01*
X116811819Y-108112739D01*
X116818886Y-108119806D01*
X116818885Y-108119806D01*
X116818889Y-108119809D01*
X118123581Y-109424501D01*
X118157066Y-109485824D01*
X118159900Y-109512182D01*
X118159900Y-109652687D01*
X118193154Y-109862643D01*
X118231290Y-109980014D01*
X118258844Y-110064814D01*
X118355351Y-110254220D01*
X118480290Y-110426186D01*
X118619105Y-110565001D01*
X118652590Y-110626324D01*
X118647606Y-110696016D01*
X118605734Y-110751949D01*
X118596521Y-110758221D01*
X118441742Y-110853689D01*
X118317689Y-110977742D01*
X118225587Y-111127063D01*
X118225585Y-111127068D01*
X118209775Y-111174781D01*
X118170401Y-111293603D01*
X118170401Y-111293604D01*
X118170400Y-111293604D01*
X118159900Y-111396383D01*
X118159900Y-112696401D01*
X118159901Y-112696418D01*
X118170400Y-112799196D01*
X118170401Y-112799199D01*
X118225585Y-112965731D01*
X118225587Y-112965736D01*
X118238465Y-112986614D01*
X118317688Y-113115056D01*
X118441744Y-113239112D01*
X118591066Y-113331214D01*
X118757603Y-113386399D01*
X118860391Y-113396900D01*
X120460408Y-113396899D01*
X120563197Y-113386399D01*
X120729734Y-113331214D01*
X120879056Y-113239112D01*
X121003112Y-113115056D01*
X121095214Y-112965734D01*
X121150399Y-112799197D01*
X121160900Y-112696409D01*
X121160899Y-111396392D01*
X121152236Y-111311591D01*
X121150399Y-111293603D01*
X121150398Y-111293600D01*
X121137204Y-111253784D01*
X121095214Y-111127066D01*
X121003112Y-110977744D01*
X120879056Y-110853688D01*
X120729734Y-110761586D01*
X120729733Y-110761585D01*
X120724278Y-110758221D01*
X120677554Y-110706273D01*
X120666331Y-110637310D01*
X120694175Y-110573228D01*
X120701672Y-110565023D01*
X120840504Y-110426192D01*
X120857106Y-110403342D01*
X120965448Y-110254220D01*
X120965447Y-110254220D01*
X120965451Y-110254216D01*
X121061957Y-110064812D01*
X121127646Y-109862643D01*
X121160900Y-109652687D01*
X121160900Y-109440113D01*
X121127646Y-109230157D01*
X121061957Y-109027988D01*
X120965451Y-108838584D01*
X120965449Y-108838581D01*
X120965448Y-108838579D01*
X120840509Y-108666613D01*
X120690186Y-108516290D01*
X120518220Y-108391351D01*
X120328814Y-108294844D01*
X120328813Y-108294843D01*
X120328812Y-108294843D01*
X120126643Y-108229154D01*
X120126641Y-108229153D01*
X120126640Y-108229153D01*
X119941891Y-108199892D01*
X119916687Y-108195900D01*
X119916686Y-108195900D01*
X119776183Y-108195900D01*
X119709144Y-108176215D01*
X119688502Y-108159581D01*
X118486419Y-106957498D01*
X118452934Y-106896175D01*
X118450100Y-106869817D01*
X118450100Y-102621657D01*
X118469785Y-102554618D01*
X118522589Y-102508863D01*
X118591747Y-102498919D01*
X118616609Y-102506328D01*
X118616823Y-102505686D01*
X118790102Y-102563105D01*
X118790109Y-102563106D01*
X118892819Y-102573599D01*
X119442799Y-102573599D01*
X119442800Y-102573598D01*
X119442800Y-101656612D01*
X119499807Y-101689525D01*
X119626974Y-101723600D01*
X119758626Y-101723600D01*
X119885793Y-101689525D01*
X119942800Y-101656612D01*
X119942800Y-102573599D01*
X120492772Y-102573599D01*
X120492786Y-102573598D01*
X120595497Y-102563105D01*
X120761919Y-102507958D01*
X120761924Y-102507956D01*
X120911145Y-102415915D01*
X121035115Y-102291945D01*
X121127156Y-102142724D01*
X121127158Y-102142719D01*
X121182305Y-101976297D01*
X121182306Y-101976290D01*
X121192799Y-101873586D01*
X121192800Y-101873573D01*
X121192800Y-101473600D01*
X120125812Y-101473600D01*
X120158725Y-101416593D01*
X120192800Y-101289426D01*
X120192800Y-101157774D01*
X120158725Y-101030607D01*
X120125812Y-100973600D01*
X121192799Y-100973600D01*
X121192799Y-100573628D01*
X121192798Y-100573613D01*
X121182305Y-100470902D01*
X121127158Y-100304480D01*
X121127156Y-100304475D01*
X121035115Y-100155254D01*
X120911145Y-100031284D01*
X120756315Y-99935784D01*
X120709591Y-99883836D01*
X120698368Y-99814873D01*
X120726212Y-99750791D01*
X120733709Y-99742586D01*
X120872904Y-99603392D01*
X120892545Y-99576359D01*
X120997848Y-99431420D01*
X120997847Y-99431420D01*
X120997851Y-99431416D01*
X121094357Y-99242012D01*
X121160046Y-99039843D01*
X121193300Y-98829887D01*
X121193300Y-98617313D01*
X121160046Y-98407357D01*
X121094357Y-98205188D01*
X120997851Y-98015784D01*
X120997849Y-98015780D01*
X120997516Y-98015322D01*
X120997442Y-98015116D01*
X120995305Y-98011628D01*
X120996037Y-98011178D01*
X120974040Y-97949515D01*
X120989869Y-97881462D01*
X121010153Y-97854765D01*
X126377139Y-92487782D01*
X126381725Y-92480918D01*
X126383232Y-92478664D01*
X126433843Y-92402918D01*
X126486632Y-92323914D01*
X126562051Y-92141835D01*
X126564879Y-92127621D01*
X126567452Y-92114689D01*
X126600499Y-91948545D01*
X126600500Y-91948542D01*
X126600500Y-91796852D01*
X126620185Y-91729813D01*
X126672989Y-91684058D01*
X126742147Y-91674114D01*
X126789596Y-91691313D01*
X126797866Y-91696414D01*
X126964403Y-91751599D01*
X127067191Y-91762100D01*
X128367208Y-91762099D01*
X128469997Y-91751599D01*
X128636534Y-91696414D01*
X128785856Y-91604312D01*
X128909912Y-91480256D01*
X129002014Y-91330934D01*
X129002014Y-91330931D01*
X129005648Y-91325041D01*
X129057595Y-91278316D01*
X129126558Y-91267093D01*
X129190640Y-91294936D01*
X129198868Y-91302456D01*
X129337735Y-91441323D01*
X129337740Y-91441327D01*
X129509642Y-91566220D01*
X129698982Y-91662695D01*
X129901071Y-91728357D01*
X129967200Y-91738831D01*
X129967200Y-90694612D01*
X130024207Y-90727525D01*
X130151374Y-90761600D01*
X130283026Y-90761600D01*
X130410193Y-90727525D01*
X130467200Y-90694612D01*
X130467200Y-91738830D01*
X130533326Y-91728357D01*
X130533329Y-91728357D01*
X130735417Y-91662695D01*
X130924757Y-91566220D01*
X131096659Y-91441327D01*
X131096664Y-91441323D01*
X131246923Y-91291064D01*
X131246927Y-91291059D01*
X131371820Y-91119157D01*
X131468295Y-90929817D01*
X131533957Y-90727730D01*
X131533957Y-90727727D01*
X131567200Y-90517846D01*
X131567200Y-90511600D01*
X130650212Y-90511600D01*
X130683125Y-90454593D01*
X130717200Y-90327426D01*
X130717200Y-90195774D01*
X130683125Y-90068607D01*
X130650212Y-90011600D01*
X131567200Y-90011600D01*
X131567200Y-90005353D01*
X131533957Y-89795472D01*
X131533957Y-89795469D01*
X131468295Y-89593382D01*
X131371820Y-89404042D01*
X131246927Y-89232140D01*
X131246923Y-89232135D01*
X131096664Y-89081876D01*
X131096659Y-89081872D01*
X130924757Y-88956979D01*
X130783463Y-88884985D01*
X130732667Y-88837010D01*
X130715872Y-88769189D01*
X130738410Y-88703054D01*
X130793125Y-88659603D01*
X130839758Y-88650500D01*
X134673143Y-88650500D01*
X134706720Y-88643820D01*
X134809094Y-88623457D01*
X134866436Y-88612051D01*
X134919765Y-88589961D01*
X135048514Y-88536632D01*
X135212382Y-88427139D01*
X135351739Y-88287782D01*
X135351739Y-88287781D01*
X135371739Y-88267782D01*
X135481231Y-88103914D01*
X135556651Y-87921836D01*
X135595100Y-87728540D01*
X135595100Y-87531460D01*
X135595100Y-87531457D01*
X135595099Y-87531455D01*
X135591685Y-87514290D01*
X135556651Y-87338164D01*
X135481231Y-87156086D01*
X135481229Y-87156083D01*
X135481227Y-87156079D01*
X135371739Y-86992219D01*
X135371736Y-86992215D01*
X135232384Y-86852863D01*
X135232380Y-86852860D01*
X135068520Y-86743372D01*
X135068510Y-86743367D01*
X134886436Y-86667949D01*
X134886428Y-86667947D01*
X134693143Y-86629500D01*
X134693140Y-86629500D01*
X134496060Y-86629500D01*
X134496059Y-86629500D01*
X134447528Y-86639153D01*
X134407492Y-86647117D01*
X134383302Y-86649500D01*
X125501457Y-86649500D01*
X125308170Y-86687947D01*
X125308160Y-86687950D01*
X125126092Y-86763364D01*
X125126079Y-86763371D01*
X124962218Y-86872860D01*
X124962214Y-86872863D01*
X124822863Y-87012214D01*
X124822860Y-87012218D01*
X124713371Y-87176079D01*
X124713364Y-87176092D01*
X124637950Y-87358160D01*
X124637947Y-87358170D01*
X124599500Y-87551456D01*
X124599500Y-91384217D01*
X124579815Y-91451256D01*
X124563181Y-91471898D01*
X119055020Y-96980059D01*
X119055018Y-96980061D01*
X118990893Y-97044186D01*
X118915659Y-97119419D01*
X118806171Y-97283279D01*
X118806164Y-97283292D01*
X118767327Y-97377056D01*
X118767327Y-97377057D01*
X118730750Y-97465361D01*
X118730747Y-97465370D01*
X118724354Y-97497512D01*
X118699335Y-97623291D01*
X118686905Y-97647052D01*
X118677815Y-97672289D01*
X118670954Y-97677545D01*
X118666950Y-97685202D01*
X118643646Y-97698471D01*
X118622356Y-97714787D01*
X118611419Y-97716823D01*
X118606235Y-97719776D01*
X118587955Y-97722677D01*
X118582848Y-97723100D01*
X118449459Y-97723100D01*
X118361195Y-97740657D01*
X118354276Y-97742033D01*
X118354267Y-97742034D01*
X118256167Y-97761547D01*
X118256159Y-97761550D01*
X118202834Y-97783637D01*
X118202834Y-97783638D01*
X118157315Y-97802492D01*
X118074089Y-97836966D01*
X118074079Y-97836971D01*
X117910219Y-97946459D01*
X117868290Y-97988389D01*
X117770861Y-98085818D01*
X117770858Y-98085821D01*
X116811821Y-99044858D01*
X116811818Y-99044861D01*
X116775004Y-99081675D01*
X116672459Y-99184219D01*
X116562971Y-99348079D01*
X116562964Y-99348092D01*
X116523016Y-99444537D01*
X116523013Y-99444545D01*
X116520547Y-99450500D01*
X116487549Y-99530164D01*
X116468324Y-99626812D01*
X116467206Y-99632429D01*
X116467205Y-99632435D01*
X116449100Y-99723455D01*
X116001800Y-99723455D01*
X116001800Y-90963111D01*
X118367300Y-90963111D01*
X118367300Y-91205688D01*
X118398961Y-91446185D01*
X118461747Y-91680504D01*
X118509940Y-91796852D01*
X118554576Y-91904612D01*
X118675864Y-92114689D01*
X118675866Y-92114692D01*
X118675867Y-92114693D01*
X118823533Y-92307136D01*
X118823539Y-92307143D01*
X118995056Y-92478660D01*
X118995063Y-92478666D01*
X119006946Y-92487784D01*
X119187511Y-92626336D01*
X119397588Y-92747624D01*
X119621700Y-92840454D01*
X119856011Y-92903238D01*
X120036386Y-92926984D01*
X120096511Y-92934900D01*
X120096512Y-92934900D01*
X120339089Y-92934900D01*
X120397432Y-92927219D01*
X120579589Y-92903238D01*
X120813900Y-92840454D01*
X121038012Y-92747624D01*
X121248089Y-92626336D01*
X121440538Y-92478665D01*
X121612065Y-92307138D01*
X121759736Y-92114689D01*
X121881024Y-91904612D01*
X121973854Y-91680500D01*
X122036638Y-91446189D01*
X122068300Y-91205688D01*
X122068300Y-90963112D01*
X122036638Y-90722611D01*
X121973854Y-90488300D01*
X121881024Y-90264188D01*
X121759736Y-90054111D01*
X121683373Y-89954593D01*
X121612066Y-89861663D01*
X121612060Y-89861656D01*
X121440543Y-89690139D01*
X121440536Y-89690133D01*
X121248093Y-89542467D01*
X121248092Y-89542466D01*
X121248089Y-89542464D01*
X121043236Y-89424192D01*
X121038014Y-89421177D01*
X121038005Y-89421173D01*
X120813904Y-89328347D01*
X120579585Y-89265561D01*
X120339089Y-89233900D01*
X120339088Y-89233900D01*
X120096512Y-89233900D01*
X120096511Y-89233900D01*
X119856014Y-89265561D01*
X119621695Y-89328347D01*
X119397594Y-89421173D01*
X119397585Y-89421177D01*
X119187506Y-89542467D01*
X118995063Y-89690133D01*
X118995056Y-89690139D01*
X118823539Y-89861656D01*
X118823533Y-89861663D01*
X118675867Y-90054106D01*
X118554577Y-90264185D01*
X118554573Y-90264194D01*
X118461747Y-90488295D01*
X118398961Y-90722614D01*
X118367300Y-90963111D01*
X116001800Y-90963111D01*
X116001800Y-86204600D01*
X116021485Y-86137561D01*
X116074289Y-86091806D01*
X116125800Y-86080600D01*
X177828400Y-86080600D01*
X177895439Y-86100285D01*
G37*
%TD.AperFunction*%
%TA.AperFunction,Conductor*%
G36*
X148902834Y-96271113D02*
G01*
X148924976Y-96288697D01*
X154966386Y-102330106D01*
X154999871Y-102391429D01*
X154994887Y-102461121D01*
X154953015Y-102517054D01*
X154947597Y-102520888D01*
X154861513Y-102578408D01*
X154861507Y-102578413D01*
X154750013Y-102689907D01*
X154750007Y-102689915D01*
X154662407Y-102821018D01*
X154662406Y-102821019D01*
X154652605Y-102844680D01*
X154625727Y-102884903D01*
X154103049Y-103407581D01*
X154053812Y-103481271D01*
X154020921Y-103530496D01*
X154020914Y-103530508D01*
X153964342Y-103667086D01*
X153964340Y-103667092D01*
X153935500Y-103812079D01*
X153935500Y-105156196D01*
X153926062Y-105203644D01*
X153916263Y-105227303D01*
X153916262Y-105227306D01*
X153916260Y-105227311D01*
X153885500Y-105381953D01*
X153885500Y-105539646D01*
X153916261Y-105694289D01*
X153916264Y-105694301D01*
X153976602Y-105839972D01*
X153976609Y-105839985D01*
X154064210Y-105971088D01*
X154064213Y-105971092D01*
X154175707Y-106082586D01*
X154175711Y-106082589D01*
X154306814Y-106170190D01*
X154306827Y-106170197D01*
X154431376Y-106221786D01*
X154452503Y-106230537D01*
X154607153Y-106261299D01*
X154607156Y-106261300D01*
X154607158Y-106261300D01*
X154764844Y-106261300D01*
X154764845Y-106261299D01*
X154919497Y-106230537D01*
X155065179Y-106170194D01*
X155196289Y-106082589D01*
X155307789Y-105971089D01*
X155395394Y-105839979D01*
X155455737Y-105694297D01*
X155486500Y-105539642D01*
X155486500Y-105381958D01*
X155486500Y-105381955D01*
X155486499Y-105381953D01*
X155455739Y-105227311D01*
X155455738Y-105227308D01*
X155455737Y-105227303D01*
X155445937Y-105203644D01*
X155436500Y-105156196D01*
X155436500Y-104248228D01*
X155445143Y-104218791D01*
X155451667Y-104188802D01*
X155455422Y-104183784D01*
X155456185Y-104181189D01*
X155472810Y-104160556D01*
X155557171Y-104076194D01*
X155618489Y-104042713D01*
X155688181Y-104047697D01*
X155744115Y-104089568D01*
X155759409Y-104116426D01*
X155797966Y-104209510D01*
X155797971Y-104209520D01*
X155907460Y-104373381D01*
X155907463Y-104373385D01*
X156051137Y-104517059D01*
X156051159Y-104517079D01*
X157886581Y-106352501D01*
X157920066Y-106413824D01*
X157922900Y-106440182D01*
X157922900Y-107222270D01*
X157922901Y-107222276D01*
X157929308Y-107281883D01*
X157979602Y-107416728D01*
X157979606Y-107416735D01*
X158065852Y-107531944D01*
X158065855Y-107531947D01*
X158181064Y-107618193D01*
X158181071Y-107618197D01*
X158315917Y-107668491D01*
X158315916Y-107668491D01*
X158322844Y-107669235D01*
X158375527Y-107674900D01*
X160171272Y-107674899D01*
X160230883Y-107668491D01*
X160365731Y-107618196D01*
X160480946Y-107531946D01*
X160567196Y-107416731D01*
X160617491Y-107281883D01*
X160623900Y-107222273D01*
X160623899Y-105426528D01*
X160617491Y-105366917D01*
X160617339Y-105366510D01*
X160567197Y-105232071D01*
X160567193Y-105232064D01*
X160480947Y-105116855D01*
X160480944Y-105116852D01*
X160365735Y-105030606D01*
X160365728Y-105030602D01*
X160230882Y-104980308D01*
X160230883Y-104980308D01*
X160171283Y-104973901D01*
X160171281Y-104973900D01*
X160171273Y-104973900D01*
X160171265Y-104973900D01*
X160160709Y-104973900D01*
X160093670Y-104954215D01*
X160073028Y-104937581D01*
X159402808Y-104267362D01*
X159466393Y-104250325D01*
X159580407Y-104184499D01*
X159673499Y-104091407D01*
X159739325Y-103977393D01*
X159756362Y-103913809D01*
X160388670Y-104546117D01*
X160388670Y-104546116D01*
X160428022Y-104491954D01*
X160524495Y-104302617D01*
X160590157Y-104100530D01*
X160590157Y-104100527D01*
X160623400Y-103890646D01*
X160623400Y-103678153D01*
X160590157Y-103468272D01*
X160590157Y-103468269D01*
X160524495Y-103266182D01*
X160428024Y-103076849D01*
X160388670Y-103022682D01*
X160388669Y-103022682D01*
X159756362Y-103654990D01*
X159739325Y-103591407D01*
X159673499Y-103477393D01*
X159580407Y-103384301D01*
X159466393Y-103318475D01*
X159402809Y-103301437D01*
X160035116Y-102669128D01*
X159980947Y-102629773D01*
X159980947Y-102629772D01*
X159971900Y-102625163D01*
X159921106Y-102577188D01*
X159904312Y-102509366D01*
X159926851Y-102443232D01*
X159971908Y-102404193D01*
X159981216Y-102399451D01*
X160076662Y-102330106D01*
X160153186Y-102274509D01*
X160153188Y-102274506D01*
X160153192Y-102274504D01*
X160303504Y-102124192D01*
X160303506Y-102124188D01*
X160303509Y-102124186D01*
X160428448Y-101952220D01*
X160428447Y-101952220D01*
X160428451Y-101952216D01*
X160524957Y-101762812D01*
X160590646Y-101560643D01*
X160623900Y-101350687D01*
X160623900Y-101138113D01*
X160590646Y-100928157D01*
X160524957Y-100725988D01*
X160428451Y-100536584D01*
X160428449Y-100536581D01*
X160428448Y-100536579D01*
X160303509Y-100364613D01*
X160153186Y-100214290D01*
X159981220Y-100089351D01*
X159980515Y-100088991D01*
X159972454Y-100084885D01*
X159921659Y-100036912D01*
X159904863Y-99969092D01*
X159927399Y-99902956D01*
X159972454Y-99863915D01*
X159981216Y-99859451D01*
X160042573Y-99814873D01*
X160153186Y-99734509D01*
X160153188Y-99734506D01*
X160153192Y-99734504D01*
X160303504Y-99584192D01*
X160303506Y-99584188D01*
X160303509Y-99584186D01*
X160428448Y-99412220D01*
X160428447Y-99412220D01*
X160428451Y-99412216D01*
X160524957Y-99222812D01*
X160590646Y-99020643D01*
X160623900Y-98810687D01*
X160623900Y-98598113D01*
X160590646Y-98388157D01*
X160524957Y-98185988D01*
X160479204Y-98096194D01*
X160478696Y-98093489D01*
X160476896Y-98091411D01*
X160472287Y-98059361D01*
X160466309Y-98027526D01*
X160467343Y-98024976D01*
X160466952Y-98022253D01*
X160480405Y-97992794D01*
X160492585Y-97962785D01*
X160494834Y-97961199D01*
X160495977Y-97958697D01*
X160523214Y-97941192D01*
X160549691Y-97922528D01*
X160553149Y-97921954D01*
X160554755Y-97920923D01*
X160589690Y-97915900D01*
X160675500Y-97915900D01*
X160742539Y-97935585D01*
X160788294Y-97988389D01*
X160799500Y-98039900D01*
X160799500Y-98128846D01*
X160830261Y-98283489D01*
X160830264Y-98283501D01*
X160890602Y-98429172D01*
X160890609Y-98429185D01*
X160978210Y-98560288D01*
X160978213Y-98560292D01*
X161089707Y-98671786D01*
X161089711Y-98671789D01*
X161220814Y-98759390D01*
X161220827Y-98759397D01*
X161366498Y-98819735D01*
X161366503Y-98819737D01*
X161431147Y-98832595D01*
X161521849Y-98850638D01*
X161583760Y-98883023D01*
X161585339Y-98884574D01*
X161813181Y-99112416D01*
X161846666Y-99173739D01*
X161849500Y-99200097D01*
X161849500Y-104733740D01*
X161829815Y-104800779D01*
X161777011Y-104846534D01*
X161772953Y-104848301D01*
X161670824Y-104890604D01*
X161670814Y-104890609D01*
X161539711Y-104978210D01*
X161539707Y-104978213D01*
X161428213Y-105089707D01*
X161428210Y-105089711D01*
X161340609Y-105220814D01*
X161340602Y-105220827D01*
X161280264Y-105366498D01*
X161280261Y-105366510D01*
X161249500Y-105521153D01*
X161249500Y-105678846D01*
X161280261Y-105833489D01*
X161280264Y-105833501D01*
X161340602Y-105979172D01*
X161340609Y-105979185D01*
X161428210Y-106110288D01*
X161428213Y-106110292D01*
X161539707Y-106221786D01*
X161539711Y-106221789D01*
X161670814Y-106309390D01*
X161670827Y-106309397D01*
X161774891Y-106352501D01*
X161816503Y-106369737D01*
X161971153Y-106400499D01*
X161971156Y-106400500D01*
X161971158Y-106400500D01*
X162128844Y-106400500D01*
X162128845Y-106400499D01*
X162283497Y-106369737D01*
X162429179Y-106309394D01*
X162560289Y-106221789D01*
X162671789Y-106110289D01*
X162759394Y-105979179D01*
X162819737Y-105833497D01*
X162850500Y-105678842D01*
X162850500Y-105678840D01*
X162850637Y-105678152D01*
X162883021Y-105616241D01*
X162884516Y-105614719D01*
X162930520Y-105568716D01*
X163009577Y-105431784D01*
X163043249Y-105306118D01*
X163050500Y-105279058D01*
X163050500Y-105120943D01*
X163050500Y-99699097D01*
X163070185Y-99632058D01*
X163122989Y-99586303D01*
X163192147Y-99576359D01*
X163255703Y-99605384D01*
X163262180Y-99611415D01*
X167915684Y-104264920D01*
X167915686Y-104264921D01*
X167915690Y-104264924D01*
X168046105Y-104340218D01*
X168052616Y-104343977D01*
X168205343Y-104384901D01*
X168205345Y-104384901D01*
X168371054Y-104384901D01*
X168371070Y-104384900D01*
X173074348Y-104384900D01*
X173141387Y-104404585D01*
X173187142Y-104457389D01*
X173197086Y-104526547D01*
X173168061Y-104590103D01*
X173136347Y-104616287D01*
X173003690Y-104692875D01*
X173003682Y-104692881D01*
X172891881Y-104804682D01*
X172891875Y-104804690D01*
X172812826Y-104941609D01*
X172812823Y-104941616D01*
X172771900Y-105094343D01*
X172771900Y-107227503D01*
X172752215Y-107294542D01*
X172735581Y-107315184D01*
X165366584Y-114684181D01*
X165339656Y-114698884D01*
X165313838Y-114715477D01*
X165307637Y-114716368D01*
X165305261Y-114717666D01*
X165278903Y-114720500D01*
X165132877Y-114720500D01*
X165065838Y-114700815D01*
X165025490Y-114658500D01*
X164981520Y-114582341D01*
X164629464Y-114230285D01*
X164629463Y-114230284D01*
X164517659Y-114118480D01*
X164430847Y-114068360D01*
X164430847Y-114068359D01*
X164430843Y-114068358D01*
X164380728Y-114039423D01*
X164228000Y-113998499D01*
X164069886Y-113998499D01*
X164062290Y-113998499D01*
X164062274Y-113998500D01*
X163737727Y-113998500D01*
X163737711Y-113998499D01*
X163730115Y-113998499D01*
X163572000Y-113998499D01*
X163454495Y-114029985D01*
X163419268Y-114039424D01*
X163282344Y-114118477D01*
X163282339Y-114118481D01*
X162923217Y-114477603D01*
X162923214Y-114477605D01*
X162923215Y-114477606D01*
X162818478Y-114582342D01*
X162809790Y-114597392D01*
X162790420Y-114630944D01*
X162789003Y-114633398D01*
X162789002Y-114633399D01*
X162774510Y-114658500D01*
X162723943Y-114706715D01*
X162667123Y-114720500D01*
X153236584Y-114720500D01*
X153169545Y-114700815D01*
X153123790Y-114648011D01*
X153113846Y-114578853D01*
X153118651Y-114558187D01*
X153179353Y-114371368D01*
X153200633Y-114237011D01*
X153216300Y-114138097D01*
X153216300Y-113901902D01*
X153179353Y-113668631D01*
X153120301Y-113486890D01*
X153106368Y-113444008D01*
X153106366Y-113444005D01*
X153106366Y-113444003D01*
X153040324Y-113314389D01*
X152999143Y-113233567D01*
X152860317Y-113042490D01*
X152693310Y-112875483D01*
X152502233Y-112736657D01*
X152492671Y-112731785D01*
X152291796Y-112629433D01*
X152067168Y-112556446D01*
X151833897Y-112519500D01*
X151833892Y-112519500D01*
X151681582Y-112519500D01*
X151614543Y-112499815D01*
X151593901Y-112483181D01*
X145563679Y-106452959D01*
X145563659Y-106452937D01*
X145419985Y-106309263D01*
X145419981Y-106309260D01*
X145256120Y-106199771D01*
X145256107Y-106199764D01*
X145115967Y-106141717D01*
X145115963Y-106141716D01*
X145108158Y-106138483D01*
X145074036Y-106124349D01*
X144977388Y-106105124D01*
X144973718Y-106104394D01*
X144880744Y-106085900D01*
X144880741Y-106085900D01*
X142100783Y-106085900D01*
X142033744Y-106066215D01*
X141987989Y-106013411D01*
X141978045Y-105944253D01*
X142007070Y-105880697D01*
X142031893Y-105858797D01*
X142039089Y-105853989D01*
X142150589Y-105742489D01*
X142238194Y-105611379D01*
X142298537Y-105465697D01*
X142329300Y-105311042D01*
X142329300Y-105153358D01*
X142329300Y-105153355D01*
X142329299Y-105153353D01*
X142298539Y-104998711D01*
X142298538Y-104998708D01*
X142298537Y-104998703D01*
X142288737Y-104975044D01*
X142279300Y-104927596D01*
X142279300Y-104376279D01*
X142250459Y-104231292D01*
X142250458Y-104231291D01*
X142250458Y-104231287D01*
X142230782Y-104183784D01*
X142193887Y-104094711D01*
X142193880Y-104094698D01*
X142111751Y-103971784D01*
X142111748Y-103971780D01*
X142007219Y-103867251D01*
X142007215Y-103867248D01*
X141884301Y-103785119D01*
X141884288Y-103785112D01*
X141747717Y-103728543D01*
X141747707Y-103728540D01*
X141602720Y-103699700D01*
X141602718Y-103699700D01*
X141312230Y-103699700D01*
X141282789Y-103691055D01*
X141252803Y-103684532D01*
X141247787Y-103680777D01*
X141245191Y-103680015D01*
X141224549Y-103663381D01*
X141143775Y-103582607D01*
X141110290Y-103521284D01*
X141107456Y-103494926D01*
X141107456Y-102333953D01*
X145122500Y-102333953D01*
X145122500Y-102491646D01*
X145153261Y-102646289D01*
X145153264Y-102646301D01*
X145213602Y-102791972D01*
X145213609Y-102791985D01*
X145301210Y-102923088D01*
X145301213Y-102923092D01*
X145412707Y-103034586D01*
X145412711Y-103034589D01*
X145543814Y-103122190D01*
X145543827Y-103122197D01*
X145643060Y-103163300D01*
X145689503Y-103182537D01*
X145844153Y-103213299D01*
X145844156Y-103213300D01*
X145844158Y-103213300D01*
X146001844Y-103213300D01*
X146001845Y-103213299D01*
X146078152Y-103198120D01*
X146156488Y-103182539D01*
X146156489Y-103182538D01*
X146156497Y-103182537D01*
X146180155Y-103172737D01*
X146227604Y-103163300D01*
X147592770Y-103163300D01*
X147659809Y-103182985D01*
X147680451Y-103199619D01*
X153228727Y-108747895D01*
X153255607Y-108788123D01*
X153265404Y-108811775D01*
X153265409Y-108811785D01*
X153353010Y-108942888D01*
X153353013Y-108942892D01*
X153464507Y-109054386D01*
X153464511Y-109054389D01*
X153595614Y-109141990D01*
X153595627Y-109141997D01*
X153741298Y-109202335D01*
X153741303Y-109202337D01*
X153881163Y-109230157D01*
X153895953Y-109233099D01*
X153895956Y-109233100D01*
X153895958Y-109233100D01*
X154053644Y-109233100D01*
X154053645Y-109233099D01*
X154208297Y-109202337D01*
X154353979Y-109141994D01*
X154485089Y-109054389D01*
X154596589Y-108942889D01*
X154684194Y-108811779D01*
X154684272Y-108811592D01*
X154744535Y-108666101D01*
X154744537Y-108666097D01*
X154775300Y-108511442D01*
X154775300Y-108353758D01*
X154775300Y-108353755D01*
X154775299Y-108353753D01*
X154758418Y-108268888D01*
X154744537Y-108199103D01*
X154743210Y-108195900D01*
X154684197Y-108053427D01*
X154684190Y-108053414D01*
X154596589Y-107922311D01*
X154596586Y-107922307D01*
X154485092Y-107810813D01*
X154485088Y-107810810D01*
X154353985Y-107723209D01*
X154353975Y-107723204D01*
X154330323Y-107713407D01*
X154290095Y-107686527D01*
X148433421Y-101829852D01*
X148433414Y-101829846D01*
X148359729Y-101780612D01*
X148359729Y-101780613D01*
X148310491Y-101747713D01*
X148173917Y-101691143D01*
X148173907Y-101691140D01*
X148028920Y-101662300D01*
X148028918Y-101662300D01*
X146227604Y-101662300D01*
X146180155Y-101652862D01*
X146156497Y-101643063D01*
X146156493Y-101643062D01*
X146156488Y-101643060D01*
X146001845Y-101612300D01*
X146001842Y-101612300D01*
X145844158Y-101612300D01*
X145844155Y-101612300D01*
X145689510Y-101643061D01*
X145689498Y-101643064D01*
X145543827Y-101703402D01*
X145543814Y-101703409D01*
X145412711Y-101791010D01*
X145412707Y-101791013D01*
X145301213Y-101902507D01*
X145301210Y-101902511D01*
X145213609Y-102033614D01*
X145213602Y-102033627D01*
X145153264Y-102179298D01*
X145153261Y-102179310D01*
X145122500Y-102333953D01*
X141107456Y-102333953D01*
X141107456Y-97531998D01*
X141109652Y-97524517D01*
X141108388Y-97516825D01*
X141119357Y-97491467D01*
X141127141Y-97464959D01*
X141133032Y-97459854D01*
X141136128Y-97452698D01*
X141159067Y-97437294D01*
X141179945Y-97419204D01*
X141187660Y-97418094D01*
X141194134Y-97413748D01*
X141221756Y-97413192D01*
X141249103Y-97409260D01*
X141257962Y-97412463D01*
X141263989Y-97412342D01*
X141288529Y-97423515D01*
X141296383Y-97426355D01*
X141298396Y-97427592D01*
X141420821Y-97509394D01*
X141453566Y-97522957D01*
X141461949Y-97528109D01*
X141468217Y-97535055D01*
X141484703Y-97546071D01*
X143221578Y-99282947D01*
X143221585Y-99282953D01*
X143279704Y-99321786D01*
X143279706Y-99321787D01*
X143279709Y-99321789D01*
X143344505Y-99365084D01*
X143344506Y-99365084D01*
X143344507Y-99365085D01*
X143481082Y-99421656D01*
X143481087Y-99421658D01*
X143481091Y-99421658D01*
X143481092Y-99421659D01*
X143626079Y-99450500D01*
X143626082Y-99450500D01*
X143626083Y-99450500D01*
X143773918Y-99450500D01*
X147895396Y-99450500D01*
X147942844Y-99459937D01*
X147966503Y-99469737D01*
X147966508Y-99469738D01*
X147966511Y-99469739D01*
X148121153Y-99500499D01*
X148121156Y-99500500D01*
X148121158Y-99500500D01*
X148278844Y-99500500D01*
X148278845Y-99500499D01*
X148433497Y-99469737D01*
X148549576Y-99421656D01*
X148579172Y-99409397D01*
X148579172Y-99409396D01*
X148579179Y-99409394D01*
X148710289Y-99321789D01*
X148821789Y-99210289D01*
X148909394Y-99079179D01*
X148969737Y-98933497D01*
X149000500Y-98778842D01*
X149000500Y-98621158D01*
X149000500Y-98621155D01*
X149000499Y-98621153D01*
X148969738Y-98466510D01*
X148969737Y-98466503D01*
X148969735Y-98466498D01*
X148909397Y-98320827D01*
X148909390Y-98320814D01*
X148821789Y-98189711D01*
X148821786Y-98189707D01*
X148710292Y-98078213D01*
X148710288Y-98078210D01*
X148579185Y-97990609D01*
X148579172Y-97990602D01*
X148433501Y-97930264D01*
X148433489Y-97930261D01*
X148278845Y-97899500D01*
X148278842Y-97899500D01*
X148206704Y-97899500D01*
X148139665Y-97879815D01*
X148093910Y-97827011D01*
X148083086Y-97765771D01*
X148084905Y-97742658D01*
X147426858Y-97084612D01*
X147447391Y-97079111D01*
X147584208Y-97000119D01*
X147695919Y-96888408D01*
X147774911Y-96751591D01*
X147780412Y-96731059D01*
X148438458Y-97389105D01*
X148438458Y-97389104D01*
X148498714Y-97306169D01*
X148498718Y-97306163D01*
X148605902Y-97095802D01*
X148678865Y-96871247D01*
X148715800Y-96638052D01*
X148715800Y-96401954D01*
X148714822Y-96395781D01*
X148723775Y-96326487D01*
X148768769Y-96273033D01*
X148835519Y-96252391D01*
X148902834Y-96271113D01*
G37*
%TD.AperFunction*%
%TA.AperFunction,Conductor*%
G36*
X158024149Y-97935585D02*
G01*
X158069904Y-97988389D01*
X158079848Y-98057547D01*
X158067595Y-98096195D01*
X158021844Y-98185985D01*
X158021843Y-98185987D01*
X158021843Y-98185988D01*
X158004578Y-98239124D01*
X157956153Y-98388160D01*
X157943746Y-98466498D01*
X157922900Y-98598113D01*
X157922900Y-98810687D01*
X157925941Y-98829886D01*
X157953921Y-99006549D01*
X157956154Y-99020643D01*
X158014462Y-99200097D01*
X158021844Y-99222814D01*
X158118351Y-99412220D01*
X158243290Y-99584186D01*
X158393613Y-99734509D01*
X158565582Y-99859450D01*
X158574346Y-99863916D01*
X158625142Y-99911891D01*
X158641936Y-99979712D01*
X158619398Y-100045847D01*
X158574346Y-100084884D01*
X158565582Y-100089349D01*
X158393613Y-100214290D01*
X158243290Y-100364613D01*
X158118351Y-100536579D01*
X158021844Y-100725985D01*
X157956153Y-100928160D01*
X157922900Y-101138113D01*
X157922900Y-101350686D01*
X157951396Y-101530607D01*
X157956154Y-101560643D01*
X158015167Y-101742266D01*
X158021844Y-101762814D01*
X158118351Y-101952220D01*
X158243290Y-102124186D01*
X158393613Y-102274509D01*
X158565579Y-102399448D01*
X158565581Y-102399449D01*
X158565584Y-102399451D01*
X158574893Y-102404194D01*
X158625690Y-102452166D01*
X158642487Y-102519987D01*
X158619952Y-102586122D01*
X158574905Y-102625160D01*
X158565846Y-102629776D01*
X158565840Y-102629780D01*
X158511682Y-102669127D01*
X158511682Y-102669128D01*
X159143991Y-103301437D01*
X159080407Y-103318475D01*
X158966393Y-103384301D01*
X158873301Y-103477393D01*
X158807475Y-103591407D01*
X158790437Y-103654991D01*
X158158128Y-103022682D01*
X158158127Y-103022682D01*
X158118780Y-103076839D01*
X158022305Y-103266181D01*
X157988651Y-103369757D01*
X157987098Y-103372027D01*
X157986902Y-103374772D01*
X157967494Y-103400696D01*
X157949213Y-103427432D01*
X157946678Y-103428503D01*
X157945030Y-103430705D01*
X157914690Y-103442021D01*
X157884854Y-103454630D01*
X157882143Y-103454160D01*
X157879566Y-103455122D01*
X157847923Y-103448238D01*
X157816008Y-103442715D01*
X157813158Y-103440675D01*
X157811293Y-103440270D01*
X157783039Y-103419119D01*
X157721419Y-103357499D01*
X157687934Y-103296176D01*
X157685100Y-103269818D01*
X157685100Y-102534856D01*
X157668651Y-102452166D01*
X157653711Y-102377057D01*
X157646651Y-102341564D01*
X157587817Y-102199527D01*
X157571232Y-102159486D01*
X157520624Y-102083745D01*
X157461739Y-101995617D01*
X157319286Y-101853164D01*
X157319255Y-101853135D01*
X153732076Y-98265956D01*
X153717424Y-98239124D01*
X153700844Y-98213427D01*
X153700835Y-98208743D01*
X153698591Y-98204633D01*
X153700772Y-98174135D01*
X153700716Y-98143557D01*
X153703364Y-98137877D01*
X153703575Y-98134941D01*
X153715319Y-98111426D01*
X153715954Y-98110433D01*
X153792101Y-97996472D01*
X153797971Y-97982298D01*
X153803891Y-97973051D01*
X153822297Y-97957043D01*
X153837605Y-97938046D01*
X153848193Y-97934521D01*
X153856612Y-97927200D01*
X153880750Y-97923684D01*
X153903899Y-97915979D01*
X153908329Y-97915900D01*
X157957110Y-97915900D01*
X158024149Y-97935585D01*
G37*
%TD.AperFunction*%
%TA.AperFunction,Conductor*%
G36*
X146303027Y-95120185D02*
G01*
X146348782Y-95172989D01*
X146358726Y-95242147D01*
X146349437Y-95262485D01*
X146346694Y-95297340D01*
X147004741Y-95955387D01*
X146984209Y-95960889D01*
X146847392Y-96039881D01*
X146735681Y-96151592D01*
X146656689Y-96288409D01*
X146651187Y-96308941D01*
X145993140Y-95650894D01*
X145932884Y-95733830D01*
X145825697Y-95944197D01*
X145752734Y-96168752D01*
X145715800Y-96401947D01*
X145715800Y-96638052D01*
X145752734Y-96871247D01*
X145825697Y-97095802D01*
X145932887Y-97306174D01*
X145993138Y-97389104D01*
X145993140Y-97389105D01*
X146651187Y-96731058D01*
X146656689Y-96751591D01*
X146735681Y-96888408D01*
X146847392Y-97000119D01*
X146984209Y-97079111D01*
X147004740Y-97084612D01*
X146346693Y-97742658D01*
X146347896Y-97757935D01*
X146365305Y-97780511D01*
X146371284Y-97850125D01*
X146338679Y-97911920D01*
X146277840Y-97946277D01*
X146249754Y-97949500D01*
X144682697Y-97949500D01*
X144615658Y-97929815D01*
X144569903Y-97877011D01*
X144559959Y-97807853D01*
X144588984Y-97744297D01*
X144609812Y-97725182D01*
X144646576Y-97698471D01*
X144693310Y-97664517D01*
X144860317Y-97497510D01*
X144999143Y-97306433D01*
X145106368Y-97095992D01*
X145179353Y-96871368D01*
X145183124Y-96847557D01*
X145216300Y-96638097D01*
X145216300Y-96401902D01*
X145179353Y-96168631D01*
X145134393Y-96030261D01*
X145106368Y-95944008D01*
X145106366Y-95944005D01*
X145106366Y-95944003D01*
X145048814Y-95831051D01*
X144999143Y-95733567D01*
X144860317Y-95542490D01*
X144693310Y-95375483D01*
X144623573Y-95324816D01*
X144580910Y-95269488D01*
X144574931Y-95199875D01*
X144607537Y-95138080D01*
X144668376Y-95103722D01*
X144696461Y-95100500D01*
X146235988Y-95100500D01*
X146303027Y-95120185D01*
G37*
%TD.AperFunction*%
%TA.AperFunction,Conductor*%
G36*
X148439948Y-95120185D02*
G01*
X148485703Y-95172989D01*
X148495647Y-95242147D01*
X148494526Y-95248692D01*
X148478500Y-95329257D01*
X148478500Y-95329260D01*
X148478500Y-95526340D01*
X148478500Y-95526342D01*
X148478499Y-95526342D01*
X148479591Y-95531828D01*
X148473362Y-95601420D01*
X148445654Y-95643697D01*
X147780412Y-96308940D01*
X147774911Y-96288409D01*
X147695919Y-96151592D01*
X147584208Y-96039881D01*
X147447391Y-95960889D01*
X147426859Y-95955387D01*
X148084905Y-95297340D01*
X148083267Y-95276529D01*
X148082818Y-95276011D01*
X148082297Y-95272388D01*
X148080060Y-95269487D01*
X148077361Y-95238061D01*
X148072874Y-95206853D01*
X148074395Y-95203521D01*
X148074082Y-95199873D01*
X148088797Y-95171986D01*
X148101899Y-95143297D01*
X148104980Y-95141316D01*
X148106689Y-95138079D01*
X148134143Y-95122574D01*
X148160677Y-95105523D01*
X148165589Y-95104816D01*
X148167528Y-95103722D01*
X148195612Y-95100500D01*
X148372909Y-95100500D01*
X148439948Y-95120185D01*
G37*
%TD.AperFunction*%
%TD*%
D25*
X153013633Y-103813927D02*
X152880300Y-103623451D01*
X152785062Y-103813927D02*
X152785062Y-103413927D01*
X152785062Y-103413927D02*
X152937443Y-103413927D01*
X152937443Y-103413927D02*
X152975538Y-103432975D01*
X152975538Y-103432975D02*
X152994585Y-103452022D01*
X152994585Y-103452022D02*
X153013633Y-103490118D01*
X153013633Y-103490118D02*
X153013633Y-103547260D01*
X153013633Y-103547260D02*
X152994585Y-103585356D01*
X152994585Y-103585356D02*
X152975538Y-103604403D01*
X152975538Y-103604403D02*
X152937443Y-103623451D01*
X152937443Y-103623451D02*
X152785062Y-103623451D01*
X153146966Y-103413927D02*
X153413633Y-103413927D01*
X153413633Y-103413927D02*
X153242204Y-103813927D01*
X145857433Y-103864727D02*
X145724100Y-103674251D01*
X145628862Y-103864727D02*
X145628862Y-103464727D01*
X145628862Y-103464727D02*
X145781243Y-103464727D01*
X145781243Y-103464727D02*
X145819338Y-103483775D01*
X145819338Y-103483775D02*
X145838385Y-103502822D01*
X145838385Y-103502822D02*
X145857433Y-103540918D01*
X145857433Y-103540918D02*
X145857433Y-103598060D01*
X145857433Y-103598060D02*
X145838385Y-103636156D01*
X145838385Y-103636156D02*
X145819338Y-103655203D01*
X145819338Y-103655203D02*
X145781243Y-103674251D01*
X145781243Y-103674251D02*
X145628862Y-103674251D01*
X146086004Y-103636156D02*
X146047909Y-103617108D01*
X146047909Y-103617108D02*
X146028862Y-103598060D01*
X146028862Y-103598060D02*
X146009814Y-103559965D01*
X146009814Y-103559965D02*
X146009814Y-103540918D01*
X146009814Y-103540918D02*
X146028862Y-103502822D01*
X146028862Y-103502822D02*
X146047909Y-103483775D01*
X146047909Y-103483775D02*
X146086004Y-103464727D01*
X146086004Y-103464727D02*
X146162195Y-103464727D01*
X146162195Y-103464727D02*
X146200290Y-103483775D01*
X146200290Y-103483775D02*
X146219338Y-103502822D01*
X146219338Y-103502822D02*
X146238385Y-103540918D01*
X146238385Y-103540918D02*
X146238385Y-103559965D01*
X146238385Y-103559965D02*
X146219338Y-103598060D01*
X146219338Y-103598060D02*
X146200290Y-103617108D01*
X146200290Y-103617108D02*
X146162195Y-103636156D01*
X146162195Y-103636156D02*
X146086004Y-103636156D01*
X146086004Y-103636156D02*
X146047909Y-103655203D01*
X146047909Y-103655203D02*
X146028862Y-103674251D01*
X146028862Y-103674251D02*
X146009814Y-103712346D01*
X146009814Y-103712346D02*
X146009814Y-103788537D01*
X146009814Y-103788537D02*
X146028862Y-103826632D01*
X146028862Y-103826632D02*
X146047909Y-103845680D01*
X146047909Y-103845680D02*
X146086004Y-103864727D01*
X146086004Y-103864727D02*
X146162195Y-103864727D01*
X146162195Y-103864727D02*
X146200290Y-103845680D01*
X146200290Y-103845680D02*
X146219338Y-103826632D01*
X146219338Y-103826632D02*
X146238385Y-103788537D01*
X146238385Y-103788537D02*
X146238385Y-103712346D01*
X146238385Y-103712346D02*
X146219338Y-103674251D01*
X146219338Y-103674251D02*
X146200290Y-103655203D01*
X146200290Y-103655203D02*
X146162195Y-103636156D01*
X138434127Y-92238966D02*
X138243651Y-92372299D01*
X138434127Y-92467537D02*
X138034127Y-92467537D01*
X138034127Y-92467537D02*
X138034127Y-92315156D01*
X138034127Y-92315156D02*
X138053175Y-92277061D01*
X138053175Y-92277061D02*
X138072222Y-92258014D01*
X138072222Y-92258014D02*
X138110318Y-92238966D01*
X138110318Y-92238966D02*
X138167460Y-92238966D01*
X138167460Y-92238966D02*
X138205556Y-92258014D01*
X138205556Y-92258014D02*
X138224603Y-92277061D01*
X138224603Y-92277061D02*
X138243651Y-92315156D01*
X138243651Y-92315156D02*
X138243651Y-92467537D01*
X138034127Y-92105633D02*
X138034127Y-91858014D01*
X138034127Y-91858014D02*
X138186508Y-91991347D01*
X138186508Y-91991347D02*
X138186508Y-91934204D01*
X138186508Y-91934204D02*
X138205556Y-91896109D01*
X138205556Y-91896109D02*
X138224603Y-91877061D01*
X138224603Y-91877061D02*
X138262699Y-91858014D01*
X138262699Y-91858014D02*
X138357937Y-91858014D01*
X138357937Y-91858014D02*
X138396032Y-91877061D01*
X138396032Y-91877061D02*
X138415080Y-91896109D01*
X138415080Y-91896109D02*
X138434127Y-91934204D01*
X138434127Y-91934204D02*
X138434127Y-92048490D01*
X138434127Y-92048490D02*
X138415080Y-92086585D01*
X138415080Y-92086585D02*
X138396032Y-92105633D01*
X149800632Y-112689166D02*
X149819680Y-112708214D01*
X149819680Y-112708214D02*
X149838727Y-112765356D01*
X149838727Y-112765356D02*
X149838727Y-112803452D01*
X149838727Y-112803452D02*
X149819680Y-112860595D01*
X149819680Y-112860595D02*
X149781584Y-112898690D01*
X149781584Y-112898690D02*
X149743489Y-112917737D01*
X149743489Y-112917737D02*
X149667299Y-112936785D01*
X149667299Y-112936785D02*
X149610156Y-112936785D01*
X149610156Y-112936785D02*
X149533965Y-112917737D01*
X149533965Y-112917737D02*
X149495870Y-112898690D01*
X149495870Y-112898690D02*
X149457775Y-112860595D01*
X149457775Y-112860595D02*
X149438727Y-112803452D01*
X149438727Y-112803452D02*
X149438727Y-112765356D01*
X149438727Y-112765356D02*
X149457775Y-112708214D01*
X149457775Y-112708214D02*
X149476822Y-112689166D01*
X149438727Y-112346309D02*
X149438727Y-112422499D01*
X149438727Y-112422499D02*
X149457775Y-112460595D01*
X149457775Y-112460595D02*
X149476822Y-112479642D01*
X149476822Y-112479642D02*
X149533965Y-112517737D01*
X149533965Y-112517737D02*
X149610156Y-112536785D01*
X149610156Y-112536785D02*
X149762537Y-112536785D01*
X149762537Y-112536785D02*
X149800632Y-112517737D01*
X149800632Y-112517737D02*
X149819680Y-112498690D01*
X149819680Y-112498690D02*
X149838727Y-112460595D01*
X149838727Y-112460595D02*
X149838727Y-112384404D01*
X149838727Y-112384404D02*
X149819680Y-112346309D01*
X149819680Y-112346309D02*
X149800632Y-112327261D01*
X149800632Y-112327261D02*
X149762537Y-112308214D01*
X149762537Y-112308214D02*
X149667299Y-112308214D01*
X149667299Y-112308214D02*
X149629203Y-112327261D01*
X149629203Y-112327261D02*
X149610156Y-112346309D01*
X149610156Y-112346309D02*
X149591108Y-112384404D01*
X149591108Y-112384404D02*
X149591108Y-112460595D01*
X149591108Y-112460595D02*
X149610156Y-112498690D01*
X149610156Y-112498690D02*
X149629203Y-112517737D01*
X149629203Y-112517737D02*
X149667299Y-112536785D01*
X145855233Y-99686432D02*
X145836185Y-99705480D01*
X145836185Y-99705480D02*
X145779043Y-99724527D01*
X145779043Y-99724527D02*
X145740947Y-99724527D01*
X145740947Y-99724527D02*
X145683804Y-99705480D01*
X145683804Y-99705480D02*
X145645709Y-99667384D01*
X145645709Y-99667384D02*
X145626662Y-99629289D01*
X145626662Y-99629289D02*
X145607614Y-99553099D01*
X145607614Y-99553099D02*
X145607614Y-99495956D01*
X145607614Y-99495956D02*
X145626662Y-99419765D01*
X145626662Y-99419765D02*
X145645709Y-99381670D01*
X145645709Y-99381670D02*
X145683804Y-99343575D01*
X145683804Y-99343575D02*
X145740947Y-99324527D01*
X145740947Y-99324527D02*
X145779043Y-99324527D01*
X145779043Y-99324527D02*
X145836185Y-99343575D01*
X145836185Y-99343575D02*
X145855233Y-99362622D01*
X146236185Y-99724527D02*
X146007614Y-99724527D01*
X146121900Y-99724527D02*
X146121900Y-99324527D01*
X146121900Y-99324527D02*
X146083804Y-99381670D01*
X146083804Y-99381670D02*
X146045709Y-99419765D01*
X146045709Y-99419765D02*
X146007614Y-99438813D01*
X151781832Y-91607166D02*
X151800880Y-91626214D01*
X151800880Y-91626214D02*
X151819927Y-91683356D01*
X151819927Y-91683356D02*
X151819927Y-91721452D01*
X151819927Y-91721452D02*
X151800880Y-91778595D01*
X151800880Y-91778595D02*
X151762784Y-91816690D01*
X151762784Y-91816690D02*
X151724689Y-91835737D01*
X151724689Y-91835737D02*
X151648499Y-91854785D01*
X151648499Y-91854785D02*
X151591356Y-91854785D01*
X151591356Y-91854785D02*
X151515165Y-91835737D01*
X151515165Y-91835737D02*
X151477070Y-91816690D01*
X151477070Y-91816690D02*
X151438975Y-91778595D01*
X151438975Y-91778595D02*
X151419927Y-91721452D01*
X151419927Y-91721452D02*
X151419927Y-91683356D01*
X151419927Y-91683356D02*
X151438975Y-91626214D01*
X151438975Y-91626214D02*
X151458022Y-91607166D01*
X151419927Y-91245261D02*
X151419927Y-91435737D01*
X151419927Y-91435737D02*
X151610403Y-91454785D01*
X151610403Y-91454785D02*
X151591356Y-91435737D01*
X151591356Y-91435737D02*
X151572308Y-91397642D01*
X151572308Y-91397642D02*
X151572308Y-91302404D01*
X151572308Y-91302404D02*
X151591356Y-91264309D01*
X151591356Y-91264309D02*
X151610403Y-91245261D01*
X151610403Y-91245261D02*
X151648499Y-91226214D01*
X151648499Y-91226214D02*
X151743737Y-91226214D01*
X151743737Y-91226214D02*
X151781832Y-91245261D01*
X151781832Y-91245261D02*
X151800880Y-91264309D01*
X151800880Y-91264309D02*
X151819927Y-91302404D01*
X151819927Y-91302404D02*
X151819927Y-91397642D01*
X151819927Y-91397642D02*
X151800880Y-91435737D01*
X151800880Y-91435737D02*
X151781832Y-91454785D01*
X153018033Y-101629527D02*
X152884700Y-101439051D01*
X152789462Y-101629527D02*
X152789462Y-101229527D01*
X152789462Y-101229527D02*
X152941843Y-101229527D01*
X152941843Y-101229527D02*
X152979938Y-101248575D01*
X152979938Y-101248575D02*
X152998985Y-101267622D01*
X152998985Y-101267622D02*
X153018033Y-101305718D01*
X153018033Y-101305718D02*
X153018033Y-101362860D01*
X153018033Y-101362860D02*
X152998985Y-101400956D01*
X152998985Y-101400956D02*
X152979938Y-101420003D01*
X152979938Y-101420003D02*
X152941843Y-101439051D01*
X152941843Y-101439051D02*
X152789462Y-101439051D01*
X153170414Y-101267622D02*
X153189462Y-101248575D01*
X153189462Y-101248575D02*
X153227557Y-101229527D01*
X153227557Y-101229527D02*
X153322795Y-101229527D01*
X153322795Y-101229527D02*
X153360890Y-101248575D01*
X153360890Y-101248575D02*
X153379938Y-101267622D01*
X153379938Y-101267622D02*
X153398985Y-101305718D01*
X153398985Y-101305718D02*
X153398985Y-101343813D01*
X153398985Y-101343813D02*
X153379938Y-101400956D01*
X153379938Y-101400956D02*
X153151366Y-101629527D01*
X153151366Y-101629527D02*
X153398985Y-101629527D01*
D26*
X149599407Y-102185766D02*
X149599407Y-102452432D01*
X150018455Y-102452432D02*
X149218455Y-102452432D01*
X149218455Y-102452432D02*
X149218455Y-102071480D01*
X149294645Y-101804814D02*
X149256550Y-101766718D01*
X149256550Y-101766718D02*
X149218455Y-101690528D01*
X149218455Y-101690528D02*
X149218455Y-101500052D01*
X149218455Y-101500052D02*
X149256550Y-101423861D01*
X149256550Y-101423861D02*
X149294645Y-101385766D01*
X149294645Y-101385766D02*
X149370836Y-101347671D01*
X149370836Y-101347671D02*
X149447026Y-101347671D01*
X149447026Y-101347671D02*
X149561312Y-101385766D01*
X149561312Y-101385766D02*
X150018455Y-101842909D01*
X150018455Y-101842909D02*
X150018455Y-101347671D01*
D25*
X145666957Y-101756527D02*
X145533624Y-101566051D01*
X145438386Y-101756527D02*
X145438386Y-101356527D01*
X145438386Y-101356527D02*
X145590767Y-101356527D01*
X145590767Y-101356527D02*
X145628862Y-101375575D01*
X145628862Y-101375575D02*
X145647909Y-101394622D01*
X145647909Y-101394622D02*
X145666957Y-101432718D01*
X145666957Y-101432718D02*
X145666957Y-101489860D01*
X145666957Y-101489860D02*
X145647909Y-101527956D01*
X145647909Y-101527956D02*
X145628862Y-101547003D01*
X145628862Y-101547003D02*
X145590767Y-101566051D01*
X145590767Y-101566051D02*
X145438386Y-101566051D01*
X146047909Y-101756527D02*
X145819338Y-101756527D01*
X145933624Y-101756527D02*
X145933624Y-101356527D01*
X145933624Y-101356527D02*
X145895528Y-101413670D01*
X145895528Y-101413670D02*
X145857433Y-101451765D01*
X145857433Y-101451765D02*
X145819338Y-101470813D01*
X146428861Y-101756527D02*
X146200290Y-101756527D01*
X146314576Y-101756527D02*
X146314576Y-101356527D01*
X146314576Y-101356527D02*
X146276480Y-101413670D01*
X146276480Y-101413670D02*
X146238385Y-101451765D01*
X146238385Y-101451765D02*
X146200290Y-101470813D01*
X134687632Y-92213866D02*
X134706680Y-92232914D01*
X134706680Y-92232914D02*
X134725727Y-92290056D01*
X134725727Y-92290056D02*
X134725727Y-92328152D01*
X134725727Y-92328152D02*
X134706680Y-92385295D01*
X134706680Y-92385295D02*
X134668584Y-92423390D01*
X134668584Y-92423390D02*
X134630489Y-92442437D01*
X134630489Y-92442437D02*
X134554299Y-92461485D01*
X134554299Y-92461485D02*
X134497156Y-92461485D01*
X134497156Y-92461485D02*
X134420965Y-92442437D01*
X134420965Y-92442437D02*
X134382870Y-92423390D01*
X134382870Y-92423390D02*
X134344775Y-92385295D01*
X134344775Y-92385295D02*
X134325727Y-92328152D01*
X134325727Y-92328152D02*
X134325727Y-92290056D01*
X134325727Y-92290056D02*
X134344775Y-92232914D01*
X134344775Y-92232914D02*
X134363822Y-92213866D01*
X134325727Y-92080533D02*
X134325727Y-91832914D01*
X134325727Y-91832914D02*
X134478108Y-91966247D01*
X134478108Y-91966247D02*
X134478108Y-91909104D01*
X134478108Y-91909104D02*
X134497156Y-91871009D01*
X134497156Y-91871009D02*
X134516203Y-91851961D01*
X134516203Y-91851961D02*
X134554299Y-91832914D01*
X134554299Y-91832914D02*
X134649537Y-91832914D01*
X134649537Y-91832914D02*
X134687632Y-91851961D01*
X134687632Y-91851961D02*
X134706680Y-91871009D01*
X134706680Y-91871009D02*
X134725727Y-91909104D01*
X134725727Y-91909104D02*
X134725727Y-92023390D01*
X134725727Y-92023390D02*
X134706680Y-92061485D01*
X134706680Y-92061485D02*
X134687632Y-92080533D01*
X146028727Y-112691366D02*
X145838251Y-112824699D01*
X146028727Y-112919937D02*
X145628727Y-112919937D01*
X145628727Y-112919937D02*
X145628727Y-112767556D01*
X145628727Y-112767556D02*
X145647775Y-112729461D01*
X145647775Y-112729461D02*
X145666822Y-112710414D01*
X145666822Y-112710414D02*
X145704918Y-112691366D01*
X145704918Y-112691366D02*
X145762060Y-112691366D01*
X145762060Y-112691366D02*
X145800156Y-112710414D01*
X145800156Y-112710414D02*
X145819203Y-112729461D01*
X145819203Y-112729461D02*
X145838251Y-112767556D01*
X145838251Y-112767556D02*
X145838251Y-112919937D01*
X145628727Y-112329461D02*
X145628727Y-112519937D01*
X145628727Y-112519937D02*
X145819203Y-112538985D01*
X145819203Y-112538985D02*
X145800156Y-112519937D01*
X145800156Y-112519937D02*
X145781108Y-112481842D01*
X145781108Y-112481842D02*
X145781108Y-112386604D01*
X145781108Y-112386604D02*
X145800156Y-112348509D01*
X145800156Y-112348509D02*
X145819203Y-112329461D01*
X145819203Y-112329461D02*
X145857299Y-112310414D01*
X145857299Y-112310414D02*
X145952537Y-112310414D01*
X145952537Y-112310414D02*
X145990632Y-112329461D01*
X145990632Y-112329461D02*
X146009680Y-112348509D01*
X146009680Y-112348509D02*
X146028727Y-112386604D01*
X146028727Y-112386604D02*
X146028727Y-112481842D01*
X146028727Y-112481842D02*
X146009680Y-112519937D01*
X146009680Y-112519937D02*
X145990632Y-112538985D01*
D27*
X142418223Y-111290714D02*
X142387747Y-111275476D01*
X142387747Y-111275476D02*
X142357271Y-111245000D01*
X142357271Y-111245000D02*
X142311557Y-111199285D01*
X142311557Y-111199285D02*
X142281080Y-111184047D01*
X142281080Y-111184047D02*
X142250604Y-111184047D01*
X142265842Y-111260238D02*
X142235366Y-111245000D01*
X142235366Y-111245000D02*
X142204890Y-111214523D01*
X142204890Y-111214523D02*
X142189652Y-111153571D01*
X142189652Y-111153571D02*
X142189652Y-111046904D01*
X142189652Y-111046904D02*
X142204890Y-110985952D01*
X142204890Y-110985952D02*
X142235366Y-110955476D01*
X142235366Y-110955476D02*
X142265842Y-110940238D01*
X142265842Y-110940238D02*
X142326795Y-110940238D01*
X142326795Y-110940238D02*
X142357271Y-110955476D01*
X142357271Y-110955476D02*
X142387747Y-110985952D01*
X142387747Y-110985952D02*
X142402985Y-111046904D01*
X142402985Y-111046904D02*
X142402985Y-111153571D01*
X142402985Y-111153571D02*
X142387747Y-111214523D01*
X142387747Y-111214523D02*
X142357271Y-111245000D01*
X142357271Y-111245000D02*
X142326795Y-111260238D01*
X142326795Y-111260238D02*
X142265842Y-111260238D01*
X142707747Y-111260238D02*
X142524890Y-111260238D01*
X142616318Y-111260238D02*
X142616318Y-110940238D01*
X142616318Y-110940238D02*
X142585842Y-110985952D01*
X142585842Y-110985952D02*
X142555366Y-111016428D01*
X142555366Y-111016428D02*
X142524890Y-111031666D01*
X143858223Y-90218914D02*
X143827747Y-90203676D01*
X143827747Y-90203676D02*
X143797271Y-90173200D01*
X143797271Y-90173200D02*
X143751557Y-90127485D01*
X143751557Y-90127485D02*
X143721080Y-90112247D01*
X143721080Y-90112247D02*
X143690604Y-90112247D01*
X143705842Y-90188438D02*
X143675366Y-90173200D01*
X143675366Y-90173200D02*
X143644890Y-90142723D01*
X143644890Y-90142723D02*
X143629652Y-90081771D01*
X143629652Y-90081771D02*
X143629652Y-89975104D01*
X143629652Y-89975104D02*
X143644890Y-89914152D01*
X143644890Y-89914152D02*
X143675366Y-89883676D01*
X143675366Y-89883676D02*
X143705842Y-89868438D01*
X143705842Y-89868438D02*
X143766795Y-89868438D01*
X143766795Y-89868438D02*
X143797271Y-89883676D01*
X143797271Y-89883676D02*
X143827747Y-89914152D01*
X143827747Y-89914152D02*
X143842985Y-89975104D01*
X143842985Y-89975104D02*
X143842985Y-90081771D01*
X143842985Y-90081771D02*
X143827747Y-90142723D01*
X143827747Y-90142723D02*
X143797271Y-90173200D01*
X143797271Y-90173200D02*
X143766795Y-90188438D01*
X143766795Y-90188438D02*
X143705842Y-90188438D01*
X143964890Y-89898914D02*
X143980128Y-89883676D01*
X143980128Y-89883676D02*
X144010604Y-89868438D01*
X144010604Y-89868438D02*
X144086795Y-89868438D01*
X144086795Y-89868438D02*
X144117271Y-89883676D01*
X144117271Y-89883676D02*
X144132509Y-89898914D01*
X144132509Y-89898914D02*
X144147747Y-89929390D01*
X144147747Y-89929390D02*
X144147747Y-89959866D01*
X144147747Y-89959866D02*
X144132509Y-90005580D01*
X144132509Y-90005580D02*
X143949652Y-90188438D01*
X143949652Y-90188438D02*
X144147747Y-90188438D01*
X151318914Y-107114576D02*
X151303676Y-107145052D01*
X151303676Y-107145052D02*
X151273200Y-107175528D01*
X151273200Y-107175528D02*
X151227485Y-107221242D01*
X151227485Y-107221242D02*
X151212247Y-107251719D01*
X151212247Y-107251719D02*
X151212247Y-107282195D01*
X151288438Y-107266957D02*
X151273200Y-107297433D01*
X151273200Y-107297433D02*
X151242723Y-107327909D01*
X151242723Y-107327909D02*
X151181771Y-107343147D01*
X151181771Y-107343147D02*
X151075104Y-107343147D01*
X151075104Y-107343147D02*
X151014152Y-107327909D01*
X151014152Y-107327909D02*
X150983676Y-107297433D01*
X150983676Y-107297433D02*
X150968438Y-107266957D01*
X150968438Y-107266957D02*
X150968438Y-107206004D01*
X150968438Y-107206004D02*
X150983676Y-107175528D01*
X150983676Y-107175528D02*
X151014152Y-107145052D01*
X151014152Y-107145052D02*
X151075104Y-107129814D01*
X151075104Y-107129814D02*
X151181771Y-107129814D01*
X151181771Y-107129814D02*
X151242723Y-107145052D01*
X151242723Y-107145052D02*
X151273200Y-107175528D01*
X151273200Y-107175528D02*
X151288438Y-107206004D01*
X151288438Y-107206004D02*
X151288438Y-107266957D01*
X150968438Y-107023147D02*
X150968438Y-106825052D01*
X150968438Y-106825052D02*
X151090342Y-106931719D01*
X151090342Y-106931719D02*
X151090342Y-106886004D01*
X151090342Y-106886004D02*
X151105580Y-106855528D01*
X151105580Y-106855528D02*
X151120819Y-106840290D01*
X151120819Y-106840290D02*
X151151295Y-106825052D01*
X151151295Y-106825052D02*
X151227485Y-106825052D01*
X151227485Y-106825052D02*
X151257961Y-106840290D01*
X151257961Y-106840290D02*
X151273200Y-106855528D01*
X151273200Y-106855528D02*
X151288438Y-106886004D01*
X151288438Y-106886004D02*
X151288438Y-106977433D01*
X151288438Y-106977433D02*
X151273200Y-107007909D01*
X151273200Y-107007909D02*
X151257961Y-107023147D01*
D25*
X140199432Y-88762366D02*
X140218480Y-88781414D01*
X140218480Y-88781414D02*
X140237527Y-88838556D01*
X140237527Y-88838556D02*
X140237527Y-88876652D01*
X140237527Y-88876652D02*
X140218480Y-88933795D01*
X140218480Y-88933795D02*
X140180384Y-88971890D01*
X140180384Y-88971890D02*
X140142289Y-88990937D01*
X140142289Y-88990937D02*
X140066099Y-89009985D01*
X140066099Y-89009985D02*
X140008956Y-89009985D01*
X140008956Y-89009985D02*
X139932765Y-88990937D01*
X139932765Y-88990937D02*
X139894670Y-88971890D01*
X139894670Y-88971890D02*
X139856575Y-88933795D01*
X139856575Y-88933795D02*
X139837527Y-88876652D01*
X139837527Y-88876652D02*
X139837527Y-88838556D01*
X139837527Y-88838556D02*
X139856575Y-88781414D01*
X139856575Y-88781414D02*
X139875622Y-88762366D01*
X139875622Y-88609985D02*
X139856575Y-88590937D01*
X139856575Y-88590937D02*
X139837527Y-88552842D01*
X139837527Y-88552842D02*
X139837527Y-88457604D01*
X139837527Y-88457604D02*
X139856575Y-88419509D01*
X139856575Y-88419509D02*
X139875622Y-88400461D01*
X139875622Y-88400461D02*
X139913718Y-88381414D01*
X139913718Y-88381414D02*
X139951813Y-88381414D01*
X139951813Y-88381414D02*
X140008956Y-88400461D01*
X140008956Y-88400461D02*
X140237527Y-88629033D01*
X140237527Y-88629033D02*
X140237527Y-88381414D01*
D27*
X143823114Y-106987576D02*
X143807876Y-107018052D01*
X143807876Y-107018052D02*
X143777400Y-107048528D01*
X143777400Y-107048528D02*
X143731685Y-107094242D01*
X143731685Y-107094242D02*
X143716447Y-107124719D01*
X143716447Y-107124719D02*
X143716447Y-107155195D01*
X143792638Y-107139957D02*
X143777400Y-107170433D01*
X143777400Y-107170433D02*
X143746923Y-107200909D01*
X143746923Y-107200909D02*
X143685971Y-107216147D01*
X143685971Y-107216147D02*
X143579304Y-107216147D01*
X143579304Y-107216147D02*
X143518352Y-107200909D01*
X143518352Y-107200909D02*
X143487876Y-107170433D01*
X143487876Y-107170433D02*
X143472638Y-107139957D01*
X143472638Y-107139957D02*
X143472638Y-107079004D01*
X143472638Y-107079004D02*
X143487876Y-107048528D01*
X143487876Y-107048528D02*
X143518352Y-107018052D01*
X143518352Y-107018052D02*
X143579304Y-107002814D01*
X143579304Y-107002814D02*
X143685971Y-107002814D01*
X143685971Y-107002814D02*
X143746923Y-107018052D01*
X143746923Y-107018052D02*
X143777400Y-107048528D01*
X143777400Y-107048528D02*
X143792638Y-107079004D01*
X143792638Y-107079004D02*
X143792638Y-107139957D01*
X143579304Y-106728528D02*
X143792638Y-106728528D01*
X143457400Y-106804719D02*
X143685971Y-106880909D01*
X143685971Y-106880909D02*
X143685971Y-106682814D01*
D25*
X147451127Y-91660166D02*
X147260651Y-91793499D01*
X147451127Y-91888737D02*
X147051127Y-91888737D01*
X147051127Y-91888737D02*
X147051127Y-91736356D01*
X147051127Y-91736356D02*
X147070175Y-91698261D01*
X147070175Y-91698261D02*
X147089222Y-91679214D01*
X147089222Y-91679214D02*
X147127318Y-91660166D01*
X147127318Y-91660166D02*
X147184460Y-91660166D01*
X147184460Y-91660166D02*
X147222556Y-91679214D01*
X147222556Y-91679214D02*
X147241603Y-91698261D01*
X147241603Y-91698261D02*
X147260651Y-91736356D01*
X147260651Y-91736356D02*
X147260651Y-91888737D01*
X147051127Y-91317309D02*
X147051127Y-91393499D01*
X147051127Y-91393499D02*
X147070175Y-91431595D01*
X147070175Y-91431595D02*
X147089222Y-91450642D01*
X147089222Y-91450642D02*
X147146365Y-91488737D01*
X147146365Y-91488737D02*
X147222556Y-91507785D01*
X147222556Y-91507785D02*
X147374937Y-91507785D01*
X147374937Y-91507785D02*
X147413032Y-91488737D01*
X147413032Y-91488737D02*
X147432080Y-91469690D01*
X147432080Y-91469690D02*
X147451127Y-91431595D01*
X147451127Y-91431595D02*
X147451127Y-91355404D01*
X147451127Y-91355404D02*
X147432080Y-91317309D01*
X147432080Y-91317309D02*
X147413032Y-91298261D01*
X147413032Y-91298261D02*
X147374937Y-91279214D01*
X147374937Y-91279214D02*
X147279699Y-91279214D01*
X147279699Y-91279214D02*
X147241603Y-91298261D01*
X147241603Y-91298261D02*
X147222556Y-91317309D01*
X147222556Y-91317309D02*
X147203508Y-91355404D01*
X147203508Y-91355404D02*
X147203508Y-91431595D01*
X147203508Y-91431595D02*
X147222556Y-91469690D01*
X147222556Y-91469690D02*
X147241603Y-91488737D01*
X147241603Y-91488737D02*
X147279699Y-91507785D01*
D28*
X158728219Y-97767733D02*
X159442504Y-97767733D01*
X159442504Y-97767733D02*
X159585361Y-97815352D01*
X159585361Y-97815352D02*
X159680600Y-97910590D01*
X159680600Y-97910590D02*
X159728219Y-98053447D01*
X159728219Y-98053447D02*
X159728219Y-98148685D01*
X159728219Y-97243923D02*
X159728219Y-97053447D01*
X159728219Y-97053447D02*
X159680600Y-96958209D01*
X159680600Y-96958209D02*
X159632980Y-96910590D01*
X159632980Y-96910590D02*
X159490123Y-96815352D01*
X159490123Y-96815352D02*
X159299647Y-96767733D01*
X159299647Y-96767733D02*
X158918695Y-96767733D01*
X158918695Y-96767733D02*
X158823457Y-96815352D01*
X158823457Y-96815352D02*
X158775838Y-96862971D01*
X158775838Y-96862971D02*
X158728219Y-96958209D01*
X158728219Y-96958209D02*
X158728219Y-97148685D01*
X158728219Y-97148685D02*
X158775838Y-97243923D01*
X158775838Y-97243923D02*
X158823457Y-97291542D01*
X158823457Y-97291542D02*
X158918695Y-97339161D01*
X158918695Y-97339161D02*
X159156790Y-97339161D01*
X159156790Y-97339161D02*
X159252028Y-97291542D01*
X159252028Y-97291542D02*
X159299647Y-97243923D01*
X159299647Y-97243923D02*
X159347266Y-97148685D01*
X159347266Y-97148685D02*
X159347266Y-96958209D01*
X159347266Y-96958209D02*
X159299647Y-96862971D01*
X159299647Y-96862971D02*
X159252028Y-96815352D01*
X159252028Y-96815352D02*
X159156790Y-96767733D01*
X119455895Y-91539219D02*
X119455895Y-90539219D01*
X119455895Y-91015409D02*
X120027323Y-91015409D01*
X120027323Y-91539219D02*
X120027323Y-90539219D01*
X121027323Y-91539219D02*
X120455895Y-91539219D01*
X120741609Y-91539219D02*
X120741609Y-90539219D01*
X120741609Y-90539219D02*
X120646371Y-90682076D01*
X120646371Y-90682076D02*
X120551133Y-90777314D01*
X120551133Y-90777314D02*
X120455895Y-90824933D01*
D25*
X149559327Y-91607166D02*
X149368851Y-91740499D01*
X149559327Y-91835737D02*
X149159327Y-91835737D01*
X149159327Y-91835737D02*
X149159327Y-91683356D01*
X149159327Y-91683356D02*
X149178375Y-91645261D01*
X149178375Y-91645261D02*
X149197422Y-91626214D01*
X149197422Y-91626214D02*
X149235518Y-91607166D01*
X149235518Y-91607166D02*
X149292660Y-91607166D01*
X149292660Y-91607166D02*
X149330756Y-91626214D01*
X149330756Y-91626214D02*
X149349803Y-91645261D01*
X149349803Y-91645261D02*
X149368851Y-91683356D01*
X149368851Y-91683356D02*
X149368851Y-91835737D01*
X149559327Y-91416690D02*
X149559327Y-91340499D01*
X149559327Y-91340499D02*
X149540280Y-91302404D01*
X149540280Y-91302404D02*
X149521232Y-91283356D01*
X149521232Y-91283356D02*
X149464089Y-91245261D01*
X149464089Y-91245261D02*
X149387899Y-91226214D01*
X149387899Y-91226214D02*
X149235518Y-91226214D01*
X149235518Y-91226214D02*
X149197422Y-91245261D01*
X149197422Y-91245261D02*
X149178375Y-91264309D01*
X149178375Y-91264309D02*
X149159327Y-91302404D01*
X149159327Y-91302404D02*
X149159327Y-91378595D01*
X149159327Y-91378595D02*
X149178375Y-91416690D01*
X149178375Y-91416690D02*
X149197422Y-91435737D01*
X149197422Y-91435737D02*
X149235518Y-91454785D01*
X149235518Y-91454785D02*
X149330756Y-91454785D01*
X149330756Y-91454785D02*
X149368851Y-91435737D01*
X149368851Y-91435737D02*
X149387899Y-91416690D01*
X149387899Y-91416690D02*
X149406946Y-91378595D01*
X149406946Y-91378595D02*
X149406946Y-91302404D01*
X149406946Y-91302404D02*
X149387899Y-91264309D01*
X149387899Y-91264309D02*
X149368851Y-91245261D01*
X149368851Y-91245261D02*
X149330756Y-91226214D01*
D26*
X148690033Y-88209807D02*
X148423367Y-88209807D01*
X148423367Y-88628855D02*
X148423367Y-87828855D01*
X148423367Y-87828855D02*
X148804319Y-87828855D01*
X149032890Y-87828855D02*
X149528128Y-87828855D01*
X149528128Y-87828855D02*
X149261462Y-88133617D01*
X149261462Y-88133617D02*
X149375747Y-88133617D01*
X149375747Y-88133617D02*
X149451938Y-88171712D01*
X149451938Y-88171712D02*
X149490033Y-88209807D01*
X149490033Y-88209807D02*
X149528128Y-88285998D01*
X149528128Y-88285998D02*
X149528128Y-88476474D01*
X149528128Y-88476474D02*
X149490033Y-88552664D01*
X149490033Y-88552664D02*
X149451938Y-88590760D01*
X149451938Y-88590760D02*
X149375747Y-88628855D01*
X149375747Y-88628855D02*
X149147176Y-88628855D01*
X149147176Y-88628855D02*
X149070985Y-88590760D01*
X149070985Y-88590760D02*
X149032890Y-88552664D01*
X147296233Y-109215607D02*
X147029567Y-109215607D01*
X147029567Y-109634655D02*
X147029567Y-108834655D01*
X147029567Y-108834655D02*
X147410519Y-108834655D01*
X148058138Y-109101321D02*
X148058138Y-109634655D01*
X147867662Y-108796560D02*
X147677185Y-109367988D01*
X147677185Y-109367988D02*
X148172424Y-109367988D01*
X142372807Y-102212066D02*
X142372807Y-102478732D01*
X142791855Y-102478732D02*
X141991855Y-102478732D01*
X141991855Y-102478732D02*
X141991855Y-102097780D01*
X142791855Y-101373971D02*
X142791855Y-101831114D01*
X142791855Y-101602542D02*
X141991855Y-101602542D01*
X141991855Y-101602542D02*
X142106140Y-101678733D01*
X142106140Y-101678733D02*
X142182331Y-101754923D01*
X142182331Y-101754923D02*
X142220426Y-101831114D01*
D25*
X136630727Y-88788866D02*
X136440251Y-88922199D01*
X136630727Y-89017437D02*
X136230727Y-89017437D01*
X136230727Y-89017437D02*
X136230727Y-88865056D01*
X136230727Y-88865056D02*
X136249775Y-88826961D01*
X136249775Y-88826961D02*
X136268822Y-88807914D01*
X136268822Y-88807914D02*
X136306918Y-88788866D01*
X136306918Y-88788866D02*
X136364060Y-88788866D01*
X136364060Y-88788866D02*
X136402156Y-88807914D01*
X136402156Y-88807914D02*
X136421203Y-88826961D01*
X136421203Y-88826961D02*
X136440251Y-88865056D01*
X136440251Y-88865056D02*
X136440251Y-89017437D01*
X136364060Y-88446009D02*
X136630727Y-88446009D01*
X136211680Y-88541247D02*
X136497394Y-88636485D01*
X136497394Y-88636485D02*
X136497394Y-88388866D01*
D28*
X173978219Y-97767733D02*
X174692504Y-97767733D01*
X174692504Y-97767733D02*
X174835361Y-97815352D01*
X174835361Y-97815352D02*
X174930600Y-97910590D01*
X174930600Y-97910590D02*
X174978219Y-98053447D01*
X174978219Y-98053447D02*
X174978219Y-98148685D01*
X174406790Y-97148685D02*
X174359171Y-97243923D01*
X174359171Y-97243923D02*
X174311552Y-97291542D01*
X174311552Y-97291542D02*
X174216314Y-97339161D01*
X174216314Y-97339161D02*
X174168695Y-97339161D01*
X174168695Y-97339161D02*
X174073457Y-97291542D01*
X174073457Y-97291542D02*
X174025838Y-97243923D01*
X174025838Y-97243923D02*
X173978219Y-97148685D01*
X173978219Y-97148685D02*
X173978219Y-96958209D01*
X173978219Y-96958209D02*
X174025838Y-96862971D01*
X174025838Y-96862971D02*
X174073457Y-96815352D01*
X174073457Y-96815352D02*
X174168695Y-96767733D01*
X174168695Y-96767733D02*
X174216314Y-96767733D01*
X174216314Y-96767733D02*
X174311552Y-96815352D01*
X174311552Y-96815352D02*
X174359171Y-96862971D01*
X174359171Y-96862971D02*
X174406790Y-96958209D01*
X174406790Y-96958209D02*
X174406790Y-97148685D01*
X174406790Y-97148685D02*
X174454409Y-97243923D01*
X174454409Y-97243923D02*
X174502028Y-97291542D01*
X174502028Y-97291542D02*
X174597266Y-97339161D01*
X174597266Y-97339161D02*
X174787742Y-97339161D01*
X174787742Y-97339161D02*
X174882980Y-97291542D01*
X174882980Y-97291542D02*
X174930600Y-97243923D01*
X174930600Y-97243923D02*
X174978219Y-97148685D01*
X174978219Y-97148685D02*
X174978219Y-96958209D01*
X174978219Y-96958209D02*
X174930600Y-96862971D01*
X174930600Y-96862971D02*
X174882980Y-96815352D01*
X174882980Y-96815352D02*
X174787742Y-96767733D01*
X174787742Y-96767733D02*
X174597266Y-96767733D01*
X174597266Y-96767733D02*
X174502028Y-96815352D01*
X174502028Y-96815352D02*
X174454409Y-96862971D01*
X174454409Y-96862971D02*
X174406790Y-96958209D01*
D25*
X153018033Y-99356232D02*
X152998985Y-99375280D01*
X152998985Y-99375280D02*
X152941843Y-99394327D01*
X152941843Y-99394327D02*
X152903747Y-99394327D01*
X152903747Y-99394327D02*
X152846604Y-99375280D01*
X152846604Y-99375280D02*
X152808509Y-99337184D01*
X152808509Y-99337184D02*
X152789462Y-99299089D01*
X152789462Y-99299089D02*
X152770414Y-99222899D01*
X152770414Y-99222899D02*
X152770414Y-99165756D01*
X152770414Y-99165756D02*
X152789462Y-99089565D01*
X152789462Y-99089565D02*
X152808509Y-99051470D01*
X152808509Y-99051470D02*
X152846604Y-99013375D01*
X152846604Y-99013375D02*
X152903747Y-98994327D01*
X152903747Y-98994327D02*
X152941843Y-98994327D01*
X152941843Y-98994327D02*
X152998985Y-99013375D01*
X152998985Y-99013375D02*
X153018033Y-99032422D01*
X153360890Y-99127660D02*
X153360890Y-99394327D01*
X153265652Y-98975280D02*
X153170414Y-99260994D01*
X153170414Y-99260994D02*
X153418033Y-99260994D01*
X147933727Y-112879642D02*
X147743251Y-113012975D01*
X147933727Y-113108213D02*
X147533727Y-113108213D01*
X147533727Y-113108213D02*
X147533727Y-112955832D01*
X147533727Y-112955832D02*
X147552775Y-112917737D01*
X147552775Y-112917737D02*
X147571822Y-112898690D01*
X147571822Y-112898690D02*
X147609918Y-112879642D01*
X147609918Y-112879642D02*
X147667060Y-112879642D01*
X147667060Y-112879642D02*
X147705156Y-112898690D01*
X147705156Y-112898690D02*
X147724203Y-112917737D01*
X147724203Y-112917737D02*
X147743251Y-112955832D01*
X147743251Y-112955832D02*
X147743251Y-113108213D01*
X147933727Y-112498690D02*
X147933727Y-112727261D01*
X147933727Y-112612975D02*
X147533727Y-112612975D01*
X147533727Y-112612975D02*
X147590870Y-112651071D01*
X147590870Y-112651071D02*
X147628965Y-112689166D01*
X147628965Y-112689166D02*
X147648013Y-112727261D01*
X147533727Y-112251071D02*
X147533727Y-112212976D01*
X147533727Y-112212976D02*
X147552775Y-112174880D01*
X147552775Y-112174880D02*
X147571822Y-112155833D01*
X147571822Y-112155833D02*
X147609918Y-112136785D01*
X147609918Y-112136785D02*
X147686108Y-112117738D01*
X147686108Y-112117738D02*
X147781346Y-112117738D01*
X147781346Y-112117738D02*
X147857537Y-112136785D01*
X147857537Y-112136785D02*
X147895632Y-112155833D01*
X147895632Y-112155833D02*
X147914680Y-112174880D01*
X147914680Y-112174880D02*
X147933727Y-112212976D01*
X147933727Y-112212976D02*
X147933727Y-112251071D01*
X147933727Y-112251071D02*
X147914680Y-112289166D01*
X147914680Y-112289166D02*
X147895632Y-112308214D01*
X147895632Y-112308214D02*
X147857537Y-112327261D01*
X147857537Y-112327261D02*
X147781346Y-112346309D01*
X147781346Y-112346309D02*
X147686108Y-112346309D01*
X147686108Y-112346309D02*
X147609918Y-112327261D01*
X147609918Y-112327261D02*
X147571822Y-112308214D01*
X147571822Y-112308214D02*
X147552775Y-112289166D01*
X147552775Y-112289166D02*
X147533727Y-112251071D01*
D29*
%TO.C,R7*%
X152280300Y-103232000D02*
X153880300Y-103232000D01*
X152280300Y-104032000D02*
X152280300Y-103232000D01*
X153880300Y-103232000D02*
X153880300Y-104032000D01*
X153880300Y-104032000D02*
X152280300Y-104032000D01*
%TO.C,R8*%
X145124100Y-103282800D02*
X146724100Y-103282800D01*
X145124100Y-104082800D02*
X145124100Y-103282800D01*
X146724100Y-103282800D02*
X146724100Y-104082800D01*
X146724100Y-104082800D02*
X145124100Y-104082800D01*
%TO.C,R3*%
X137852200Y-91372300D02*
X138652200Y-91372300D01*
X137852200Y-92972300D02*
X137852200Y-91372300D01*
X138652200Y-91372300D02*
X138652200Y-92972300D01*
X138652200Y-92972300D02*
X137852200Y-92972300D01*
%TO.C,C6*%
X149256800Y-111822500D02*
X150056800Y-111822500D01*
X149256800Y-113422500D02*
X149256800Y-111822500D01*
X150056800Y-111822500D02*
X150056800Y-113422500D01*
X150056800Y-113422500D02*
X149256800Y-113422500D01*
%TO.C,C1*%
X145121900Y-99142600D02*
X146721900Y-99142600D01*
X145121900Y-99942600D02*
X145121900Y-99142600D01*
X146721900Y-99142600D02*
X146721900Y-99942600D01*
X146721900Y-99942600D02*
X145121900Y-99942600D01*
%TO.C,J5*%
X133342200Y-95211600D02*
X133342200Y-105111600D01*
X133342200Y-105111600D02*
X139092200Y-105111600D01*
X138092200Y-97661600D02*
X139092200Y-98286600D01*
X139092200Y-95211600D02*
X133342200Y-95211600D01*
X139092200Y-97036600D02*
X138092200Y-97661600D01*
X139092200Y-105111600D02*
X139092200Y-95211600D01*
%TO.C,J4*%
X125367200Y-95211600D02*
X125367200Y-105111600D01*
X125367200Y-103286600D02*
X126367200Y-102661600D01*
X125367200Y-105111600D02*
X131117200Y-105111600D01*
X126367200Y-102661600D02*
X125367200Y-102036600D01*
X131117200Y-95211600D02*
X125367200Y-95211600D01*
X131117200Y-105111600D02*
X131117200Y-95211600D01*
%TO.C,C5*%
X151238000Y-90740500D02*
X152038000Y-90740500D01*
X151238000Y-92340500D02*
X151238000Y-90740500D01*
X152038000Y-90740500D02*
X152038000Y-92340500D01*
X152038000Y-92340500D02*
X151238000Y-92340500D01*
%TO.C,R2*%
X152284700Y-101047600D02*
X153884700Y-101047600D01*
X152284700Y-101847600D02*
X152284700Y-101047600D01*
X153884700Y-101047600D02*
X153884700Y-101847600D01*
X153884700Y-101847600D02*
X152284700Y-101847600D01*
%TO.C,F2*%
X148854600Y-100319100D02*
X150454600Y-100319100D01*
X148854600Y-103519100D02*
X148854600Y-100319100D01*
X150454600Y-100319100D02*
X150454600Y-103519100D01*
X150454600Y-103519100D02*
X148854600Y-103519100D01*
%TO.C,J6*%
X125367200Y-107011600D02*
X125367200Y-114411600D01*
X125367200Y-112586600D02*
X126367200Y-111961600D01*
X125367200Y-114411600D02*
X131117200Y-114411600D01*
X126367200Y-111961600D02*
X125367200Y-111336600D01*
X131117200Y-107011600D02*
X125367200Y-107011600D01*
X131117200Y-114411600D02*
X131117200Y-107011600D01*
%TO.C,R11*%
X145124100Y-101174600D02*
X146724100Y-101174600D01*
X145124100Y-101974600D02*
X145124100Y-101174600D01*
X146724100Y-101174600D02*
X146724100Y-101974600D01*
X146724100Y-101974600D02*
X145124100Y-101974600D01*
%TO.C,C3*%
X134143800Y-91347200D02*
X134943800Y-91347200D01*
X134143800Y-92947200D02*
X134143800Y-91347200D01*
X134943800Y-91347200D02*
X134943800Y-92947200D01*
X134943800Y-92947200D02*
X134143800Y-92947200D01*
%TO.C,R5*%
X145446800Y-111824700D02*
X146246800Y-111824700D01*
X145446800Y-113424700D02*
X145446800Y-111824700D01*
X146246800Y-111824700D02*
X146246800Y-113424700D01*
X146246800Y-113424700D02*
X145446800Y-113424700D01*
%TO.C,Q1*%
X141798700Y-109664800D02*
X143098700Y-109664800D01*
X141798700Y-112564800D02*
X141798700Y-109664800D01*
X142773700Y-112564800D02*
X141798700Y-112564800D01*
X143098700Y-109664800D02*
X143098700Y-112239800D01*
X143098700Y-112239800D02*
X142773700Y-112564800D01*
%TO.C,Q2*%
X143238700Y-88593000D02*
X144538700Y-88593000D01*
X143238700Y-91493000D02*
X143238700Y-88593000D01*
X144213700Y-91493000D02*
X143238700Y-91493000D01*
X144538700Y-88593000D02*
X144538700Y-91168000D01*
X144538700Y-91168000D02*
X144213700Y-91493000D01*
%TO.C,Q3*%
X149693000Y-106434100D02*
X152268000Y-106434100D01*
X149693000Y-107734100D02*
X149693000Y-106434100D01*
X152268000Y-106434100D02*
X152593000Y-106759100D01*
X152593000Y-106759100D02*
X152593000Y-107734100D01*
X152593000Y-107734100D02*
X149693000Y-107734100D01*
%TO.C,B+*%
X117310400Y-107096400D02*
X117310400Y-114496400D01*
X117310400Y-112671400D02*
X118310400Y-112046400D01*
X117310400Y-114496400D02*
X123060400Y-114496400D01*
X118310400Y-112046400D02*
X117310400Y-111421400D01*
X123060400Y-107096400D02*
X117310400Y-107096400D01*
X123060400Y-114496400D02*
X123060400Y-107096400D01*
%TO.C,C2*%
X139655600Y-87895700D02*
X140455600Y-87895700D01*
X139655600Y-89495700D02*
X139655600Y-87895700D01*
X140455600Y-87895700D02*
X140455600Y-89495700D01*
X140455600Y-89495700D02*
X139655600Y-89495700D01*
%TO.C,J3*%
X125267200Y-87911600D02*
X125267200Y-93661600D01*
X125267200Y-93661600D02*
X132667200Y-93661600D01*
X127092200Y-87911600D02*
X127717200Y-88911600D01*
X127717200Y-88911600D02*
X128342200Y-87911600D01*
X132667200Y-87911600D02*
X125267200Y-87911600D01*
X132667200Y-93661600D02*
X132667200Y-87911600D01*
%TO.C,Q4*%
X142197200Y-106307100D02*
X144772200Y-106307100D01*
X142197200Y-107607100D02*
X142197200Y-106307100D01*
X144772200Y-106307100D02*
X145097200Y-106632100D01*
X145097200Y-106632100D02*
X145097200Y-107607100D01*
X145097200Y-107607100D02*
X142197200Y-107607100D01*
%TO.C,R6*%
X146869200Y-90793500D02*
X147669200Y-90793500D01*
X146869200Y-92393500D02*
X146869200Y-90793500D01*
X147669200Y-90793500D02*
X147669200Y-92393500D01*
X147669200Y-92393500D02*
X146869200Y-92393500D01*
%TO.C,J9*%
X158003400Y-87274400D02*
X160543400Y-87274400D01*
X158003400Y-107594400D02*
X158003400Y-87274400D01*
X159908400Y-107594400D02*
X158003400Y-107594400D01*
X160543400Y-87274400D02*
X160543400Y-106959400D01*
X160543400Y-106959400D02*
X159908400Y-107594400D01*
%TO.C,R9*%
X148977400Y-90740500D02*
X149777400Y-90740500D01*
X148977400Y-92340500D02*
X148977400Y-90740500D01*
X149777400Y-90740500D02*
X149777400Y-92340500D01*
X149777400Y-92340500D02*
X148977400Y-92340500D01*
%TO.C,F3*%
X147356700Y-87465000D02*
X150556700Y-87465000D01*
X147356700Y-89065000D02*
X147356700Y-87465000D01*
X150556700Y-87465000D02*
X150556700Y-89065000D01*
X150556700Y-89065000D02*
X147356700Y-89065000D01*
%TO.C,F4*%
X145962900Y-108470800D02*
X149162900Y-108470800D01*
X145962900Y-110070800D02*
X145962900Y-108470800D01*
X149162900Y-108470800D02*
X149162900Y-110070800D01*
X149162900Y-110070800D02*
X145962900Y-110070800D01*
%TO.C,F1*%
X141628000Y-100345400D02*
X143228000Y-100345400D01*
X141628000Y-103545400D02*
X141628000Y-100345400D01*
X143228000Y-100345400D02*
X143228000Y-103545400D01*
X143228000Y-103545400D02*
X141628000Y-103545400D01*
%TO.C,R4*%
X136048800Y-87922200D02*
X136848800Y-87922200D01*
X136048800Y-89522200D02*
X136048800Y-87922200D01*
X136848800Y-87922200D02*
X136848800Y-89522200D01*
X136848800Y-89522200D02*
X136048800Y-89522200D01*
%TO.C,J10*%
X117342800Y-96273600D02*
X117342800Y-103673600D01*
X117342800Y-101848600D02*
X118342800Y-101223600D01*
X117342800Y-103673600D02*
X123092800Y-103673600D01*
X118342800Y-101223600D02*
X117342800Y-100598600D01*
X123092800Y-96273600D02*
X117342800Y-96273600D01*
X123092800Y-103673600D02*
X123092800Y-96273600D01*
%TO.C,J7*%
X133317200Y-107011600D02*
X133317200Y-114411600D01*
X133317200Y-114411600D02*
X139067200Y-114411600D01*
X138067200Y-109461600D02*
X139067200Y-110086600D01*
X139067200Y-107011600D02*
X133317200Y-107011600D01*
X139067200Y-108836600D02*
X138067200Y-109461600D01*
X139067200Y-114411600D02*
X139067200Y-107011600D01*
%TO.C,J8*%
X173253400Y-87274400D02*
X175793400Y-87274400D01*
X173253400Y-107594400D02*
X173253400Y-87274400D01*
X175158400Y-107594400D02*
X173253400Y-107594400D01*
X175793400Y-87274400D02*
X175793400Y-106959400D01*
X175793400Y-106959400D02*
X175158400Y-107594400D01*
%TO.C,C4*%
X152284700Y-98812400D02*
X153884700Y-98812400D01*
X152284700Y-99612400D02*
X152284700Y-98812400D01*
X153884700Y-98812400D02*
X153884700Y-99612400D01*
X153884700Y-99612400D02*
X152284700Y-99612400D01*
%TO.C,R10*%
X147351800Y-111822500D02*
X148151800Y-111822500D01*
X147351800Y-113422500D02*
X147351800Y-111822500D01*
X148151800Y-111822500D02*
X148151800Y-113422500D01*
X148151800Y-113422500D02*
X147351800Y-113422500D01*
%TD*%
M02*
